<svg width="228" height="228" viewBox="0 0 228 228" fill="none" xmlns="http://www.w3.org/2000/svg">
<circle cx="114" cy="114" r="114" fill="white"/>
<mask id="mask0_817_4649" style="mask-type:alpha" maskUnits="userSpaceOnUse" x="0" y="0" width="228" height="228">
<circle cx="114" cy="114" r="114" fill="white"/>
</mask>
<g mask="url(#mask0_817_4649)">
<path d="M240.401 229.722L230.775 234.329L236.136 239.785L227.535 237.714L226.614 245.158L219.585 237.828L215.973 243.967L216.366 235.882L210.435 239.951L215.559 232.144L208.075 227.444L218.861 228.324L219.927 219.296L223.788 227.599L229.885 223.52L229.098 229.411L240.401 229.722Z" fill="#E55936"/>
<path d="M209.203 171.652L202.806 175.617L207.505 178.754H201.398L203.707 187.047L198.407 181.85L196.802 188.548L195.809 181.757L185.737 187.647L190.012 179.251L181.09 179.769L190.033 174.758L186.431 170.751L193.635 171.58L196.802 177.419L194.277 171.559L202.702 164.115L200.405 172.056L209.203 171.652Z" fill="#E55936"/>
<path d="M194.277 171.559L196.803 177.419L193.635 171.58L181.328 148.824C181.649 148.886 181.815 147.996 181.69 146.94H181.742C182.819 146.36 183.45 146.857 183.688 147.136C183.771 147.23 183.812 147.292 183.812 147.292L184.713 149.373L194.277 171.559Z" fill="#8C725B"/>
<path d="M186.431 144.538C184.806 143.254 183.502 142.094 183.502 142.094C184.371 142.043 185.334 141.97 186.411 141.867C186.411 141.867 187.125 142.322 188.139 142.674C188.947 144.279 192.745 146.66 192.776 147.033C192.983 149.3 189.226 146.733 186.431 144.538Z" fill="#FFD9B3"/>
<path d="M100.033 127.197C101.13 125.385 102.134 123.946 103.148 122.859C105.094 120.778 107.071 119.981 109.711 120.281C110.021 120.322 110.342 120.364 110.674 120.436C112.102 120.726 114.307 121.347 116.874 122.134C124.658 124.536 135.743 128.439 138.528 128.967C142.233 129.661 146.322 127.87 153.226 129.961C160.12 132.063 170.17 135.21 173.866 134.868C177.561 134.516 178.513 137.363 182.208 138.813C185.914 140.262 186.815 139.361 188.212 139.91C189.609 140.459 191.762 142.809 191.762 142.809C190.562 143.295 189.195 143.037 188.14 142.674C187.125 142.322 186.411 141.867 186.411 141.867C185.334 141.97 184.372 142.043 183.502 142.095C183.502 142.095 184.807 143.254 186.432 144.538C186.401 144.745 186.069 147.24 185.045 149.228L184.713 149.373L183.813 147.292C183.813 147.292 183.771 147.23 183.689 147.136L183.813 145.366L181.091 144.962C181.432 145.552 181.618 146.277 181.691 146.94C181.815 147.996 181.65 148.886 181.329 148.824C181.225 148.814 181.091 148.669 180.946 148.389C179.983 146.495 176.65 144.662 174.58 143.627C172.52 142.591 171.816 139.361 171.816 139.361C163.753 137.167 143.072 142.426 133.632 137.767C128.663 135.313 124.254 133.833 120.693 132.943L120.641 133.139C120.641 133.139 122.267 135.51 122.349 138.067C121.076 137.508 119.068 139.258 118.851 139.444C119.016 139.185 120.579 136.576 116.843 134.112C112.889 131.514 104.09 135.81 99.5464 138.367C95.1265 140.852 92.0937 140.034 91.9385 139.983C92.9322 139.009 93.8844 137.798 94.8574 136.307C95.6027 135.168 96.3479 133.854 97.145 132.363C98.1904 130.385 99.1427 128.667 100.033 127.197Z" fill="#FFD9B3"/>
<path d="M189.06 211.097L182.467 212.495L183.864 219.089L177.871 213.851L174.569 221.791L173.668 213.851L164.373 215.994L171.577 209.741L163.576 203.394L173.668 205.299L177.674 197.7L179.568 205.299L186.162 204.699L182.467 207.898L189.06 211.097Z" fill="#E55936"/>
<path d="M112.526 87.9591C112.66 89.305 113.84 91.2203 113.84 91.2203C109.845 90.3299 107.506 88.425 106.139 86.5718C106.139 86.5718 104.649 94.0259 102.248 97.1732L102.113 97.1939C102.423 99.9167 103.045 103.364 104.183 104.658C103.955 104.565 100.27 102.95 97.6517 99.016C97.6517 99.016 97.1652 100.289 97.1445 102.08H96.9479C96.9479 102.08 91.1514 98.7676 91.1514 85.0292C91.1514 80.0908 92.1865 76.1981 93.7494 73.2268C96.5442 67.9158 101.005 65.5346 104.245 65.3793C106.346 65.2758 108.106 65.6692 109.659 66.2697H109.669C113.644 67.8226 116.263 70.7732 119.885 70.5247C124.937 70.1831 127.483 67.481 127.483 67.481C127.576 69.0132 127.09 69.8621 127.007 69.976C132.565 67.3567 138.227 69.6758 138.227 69.6758C135.536 69.945 132.907 71.2805 131.178 72.3572C138.61 70.2141 143.475 74.1275 143.475 74.1275C140.929 73.8273 138.579 75.6805 138.579 75.6805C138.579 75.6805 144.872 76.6226 146.477 85.0292C148.071 93.4254 142.326 95.7031 142.326 95.7031C141.043 100.196 137.233 101.956 136.995 102.06C138.983 98.5605 136.643 93.3426 136.643 93.3426C136.405 94.4297 135.929 94.8748 135.929 94.8748C135.339 92.9388 134.553 91.4066 133.725 90.2057C131.706 87.2965 129.45 86.3233 129.212 86.2301H129.191C128.829 85.4847 128.208 84.6254 127.162 83.6212L124.823 84.0353C125.102 84.8221 125.258 85.7021 125.309 86.6028C125.485 89.6673 124.481 93.1459 123.519 95.0819C122.753 96.6245 122.007 97.2043 121.883 95.8273C121.728 94.0777 120.724 92.3487 119.627 90.9511L119.285 91.2203C116.397 90.4024 114.192 89.2221 112.526 87.9591Z" fill="#FFED8E"/>
<path d="M133.724 90.2055C133.683 90.3815 133.403 91.4479 133.082 92.918L131.809 92.773C131.074 92.2761 130.319 92.245 129.625 92.4728L128.983 89.5119C128.983 89.5119 130.308 88.4559 129.211 86.23C129.449 86.3232 131.706 87.2963 133.724 90.2055Z" fill="#FFD9B3"/>
<path d="M125.971 117.123C123.653 118.169 120.641 117.072 120.641 117.072L120.93 115.136C121.924 115.27 123.208 115.312 124.822 115.156C125.402 115.105 125.961 114.908 126.447 114.587C127.069 114.163 127.907 113.459 128.445 112.516L126.365 110.435C126.365 110.435 127.534 109.369 127.493 108.634C127.462 107.961 125.433 106.947 125.04 105.601C125.123 105.652 126.199 106.17 128.021 105.601C129.17 105.249 130.609 104.472 132.265 102.888H132.275C132.855 104.721 133.983 106.025 133.983 108.116C133.983 109.99 132.379 114.701 128.756 117.921L125.971 117.123Z" fill="#FFD9B3"/>
<path d="M131.81 92.7733L133.083 92.9183C132.865 93.9018 132.617 95.082 132.42 96.2933C130.557 96.2623 129.18 96.9559 128.166 97.867L126.282 95.403C126.282 95.403 126.313 95.3512 126.365 95.2684C126.717 94.7714 128.032 92.97 129.626 92.4731C130.319 92.2453 131.075 92.2764 131.81 92.7733Z" fill="#FFD9B3"/>
<path d="M128.166 97.8666C129.18 96.9556 130.557 96.2619 132.42 96.293C132.306 96.9659 132.203 97.6492 132.12 98.3222L131.923 98.3015C131.644 98.3325 131.374 98.3532 131.136 98.3843C128.776 98.6535 126.737 100.072 125.713 102.07H125.702C125.702 102.07 126.282 99.5852 128.166 97.8666Z" fill="#FFED8E"/>
<path d="M132.275 102.888H132.265C130.609 104.472 129.17 105.248 128.021 105.6C128.021 105.6 127.276 102.639 129.046 101.138C130.723 99.7199 131.923 101.407 131.923 101.407H131.965C132.016 101.946 132.13 102.432 132.275 102.888Z" fill="#BCD8E2"/>
<path d="M131.924 98.3018L132.12 98.3225C132.037 98.9954 131.975 99.6476 131.934 100.269C131.913 100.673 131.934 101.056 131.965 101.408H131.924C131.924 101.408 130.723 99.7201 129.046 101.138C127.276 102.64 128.021 105.601 128.021 105.601C126.2 106.17 125.123 105.652 125.04 105.601C124.988 105.466 124.968 105.331 124.968 105.186C124.968 105.042 124.968 104.886 124.978 104.741C125.03 103.778 125.278 102.878 125.713 102.07C126.738 100.072 128.777 98.6538 131.137 98.3846C131.375 98.3535 131.644 98.3328 131.924 98.3018Z" fill="white"/>
<path d="M128.539 145.139C129.336 144.435 130.319 143.751 131.272 143.596C131.665 143.524 131.924 144.02 131.634 144.321C130.247 145.791 127.017 149.321 126.086 151.464C126.086 151.464 129.284 150.916 129.936 152.013C130.588 153.11 127.38 153.411 126.386 154.156C125.382 154.912 125.237 155.564 122.691 155.605C120.134 155.657 113.437 155.761 109.897 155.16C106.347 154.56 96.6582 150.512 96.6582 150.512C100.043 148.659 104.639 148.296 107.744 147.137C107.744 147.137 111.046 150.16 117.339 150.864C117.339 150.864 119.948 147.416 122.132 146.743C122.566 146.609 122.98 146.578 123.353 146.712C123.353 146.712 123.829 146.371 124.523 145.988C125.692 145.346 127.473 144.569 128.539 145.139Z" fill="#FFD9B3"/>
<path d="M128.984 89.5122L129.626 92.4731C128.032 92.9701 126.717 94.7715 126.365 95.2684L123.519 95.0821C124.481 93.1461 125.485 89.6675 125.309 86.603H125.33C125.33 86.603 128.187 87.5969 128.984 89.5122Z" fill="#FFD9B3"/>
<path d="M129.212 86.23C130.309 88.4559 128.984 89.5119 128.984 89.5119C128.187 87.5966 125.33 86.6027 125.33 86.6027H125.31C125.258 85.702 125.103 84.822 124.823 84.0352L127.163 83.6211C128.208 84.6253 128.829 85.4846 129.191 86.2197H129.212V86.23Z" fill="#FFED8E"/>
<path d="M125.04 105.6C125.433 106.946 127.462 107.961 127.493 108.634C127.535 109.369 126.365 110.435 126.365 110.435L128.445 112.516C127.907 113.458 127.069 114.162 126.448 114.587C125.961 114.908 125.402 115.104 124.823 115.156C123.208 115.312 121.924 115.27 120.931 115.136L120.641 117.072C120.641 117.072 123.653 118.169 125.972 117.123L128.756 117.92C127.338 119.184 125.609 120.219 123.539 120.768C121.438 121.327 119.14 120.975 116.873 120.115C114.337 119.142 111.853 117.537 109.731 115.84C107.692 114.204 105.984 112.475 104.918 111.15C104.473 111.336 103.935 111.44 103.262 111.274C102.175 111.015 100.757 110.042 98.8937 107.568C97.486 105.683 97.1237 103.675 97.1444 102.08C97.1651 100.289 97.6516 99.016 97.6516 99.016C100.27 102.95 103.955 104.565 104.183 104.658C103.044 103.364 102.423 99.9167 102.113 97.1939L102.247 97.1732C104.649 94.0259 106.139 86.5718 106.139 86.5718C107.506 88.425 109.845 90.3299 113.84 91.2203C113.84 91.2203 112.66 89.3049 112.526 87.9591C114.192 89.2221 116.397 90.4024 119.285 91.2203L119.626 90.9511C120.724 92.3487 121.728 94.0777 121.883 95.8273C122.007 97.2042 122.752 96.6245 123.518 95.0819L126.365 95.2683C126.313 95.3511 126.282 95.4028 126.282 95.4028L128.166 97.8668C126.282 99.5854 125.702 102.07 125.702 102.07H125.713C125.278 102.878 125.03 103.778 124.978 104.741C124.968 104.886 124.968 105.041 124.968 105.186C124.968 105.331 124.988 105.466 125.04 105.6ZM118.736 108.406C118.622 106.926 118.25 105.828 117.732 105.01C117.484 104.617 117.194 104.286 116.873 104.016C113.333 99.6579 107.744 102.07 107.744 102.07C108.22 103.633 109.979 103.54 109.979 103.54C110.497 106.926 112.257 108.282 114.068 108.717C116.366 109.286 118.736 108.406 118.736 108.406Z" fill="#FFD9B3"/>
<path d="M100.115 177.201C95.7163 176.301 91.6691 175.659 91.3896 175.617C93.0872 171.621 92.6524 165.306 92.6524 165.306C92.6524 165.306 95.0435 165.306 99.4012 161.113C103.593 157.055 106.854 159.425 107.082 159.601C107.082 159.601 124.523 172.356 124.523 176.052C124.523 179.748 125.216 184.945 122.473 186.053C120.465 186.861 106.274 190.608 96.6479 193.818C95.4161 189.832 93.8842 185.774 92.4868 182.336C96.0268 179.624 98.9561 177.408 100.105 177.212L100.115 177.201Z" fill="#FFD9B3"/>
<path d="M124.451 145.842L124.523 145.987C123.83 146.37 123.353 146.712 123.353 146.712C122.981 146.577 122.567 146.608 122.132 146.743C122.132 146.743 121.925 144.724 122.132 144.331C122.225 144.144 123.219 142.301 123.685 141.908C124.026 141.629 124.554 141.856 124.565 142.301C124.565 142.871 124.057 145.076 124.451 145.842Z" fill="#FFD9B3"/>
<path d="M123.24 262.437L123.343 262.551C122.08 263.597 121.232 265.129 121.076 266.858L120.642 266.837C115 264.466 113.551 258.285 112.764 253.989C112.485 252.498 112.299 251.235 112.04 250.438C111.046 247.342 96.5447 235.944 91.5452 230.446C86.5561 224.939 86.7838 219.079 86.3905 215.88C86.0592 213.292 86.2663 206.831 81.6705 200.868C80.594 199.47 79.2587 198.104 77.5922 196.82C77.1471 196.478 76.6917 196.106 76.2466 195.702C71.4438 191.488 66.5582 184.686 63.2666 179.634L66.1234 179.261C66.8273 180.224 67.7589 181.001 68.9906 181.353C68.9906 181.353 71.3299 177.357 74.725 175.421C78.1201 173.485 80.2524 171.952 80.4594 167.956C80.4594 167.956 88.3882 170.223 88.5848 173.288C88.5848 173.288 89.3198 174.841 90.3962 177.325C91.0069 178.733 91.7315 180.442 92.4975 182.336C93.8948 185.773 95.4268 189.832 96.6585 193.818C98.2112 198.787 99.3084 203.643 99.1427 207.049C98.6459 217.35 113.944 240.137 116.439 245.241C118.934 250.334 123.136 259.331 123.24 262.437Z" fill="#FFD9B3"/>
<path d="M118.851 139.444C119.068 139.258 121.076 137.508 122.349 138.067C122.401 139.341 122.059 140.666 120.941 141.763C119.741 142.944 117.66 143.875 114.193 144.217C114.193 144.217 112.236 145.439 107.744 147.137C104.639 148.296 100.043 148.658 96.6583 150.512C95.5921 151.091 94.6606 151.816 93.9153 152.758C93.905 152.976 93.9671 154.984 99.1425 155.409C104.432 155.854 106.937 159.384 107.082 159.601C106.854 159.425 103.593 157.055 99.4013 161.113C95.0436 165.306 92.6525 165.306 92.6525 165.306C92.6525 165.306 93.0872 171.621 91.3897 175.617C91.1102 176.259 90.7893 176.839 90.396 177.326C89.3195 174.841 88.5846 173.288 88.5846 173.288C88.3879 170.224 80.4592 167.956 80.4592 167.956C80.2522 171.953 78.1199 173.485 74.7248 175.421C71.3297 177.357 68.9904 181.353 68.9904 181.353C67.7586 181.001 66.8271 180.225 66.1232 179.262C63.9081 176.187 63.9702 171.135 63.9702 171.135C62.3244 172.056 60.72 172.667 59.2192 173.05C53.1122 174.572 48.5371 172.356 48.5371 172.356C48.5371 172.356 52.3772 171.694 52.8016 168.091C52.9879 166.497 53.2985 165.192 53.6711 164.115C44.1379 162.583 46.0736 150.263 46.0736 150.263C48.6716 153.359 58.9604 152.458 60.9581 149.259C62.9662 146.06 70.16 140.863 79.3516 142.467C85.2413 143.492 88.802 142.995 91.9279 139.983H91.9383C92.0936 140.034 95.1264 140.852 99.5462 138.368C104.09 135.81 112.888 131.514 116.842 134.113C120.579 136.577 119.016 139.185 118.851 139.444Z" fill="#A5D75F"/>
<path d="M117.732 105.01C118.25 105.828 118.623 106.926 118.736 108.406C118.736 108.406 116.366 109.286 114.068 108.727C113.975 108.458 112.36 103.685 117.732 105.01Z" fill="#BCD8E2"/>
<path d="M116.873 104.016C117.194 104.286 117.484 104.617 117.732 105.01C112.36 103.685 113.975 108.458 114.068 108.717C112.257 108.282 110.497 106.926 109.979 103.54C109.979 103.54 114.285 101.801 116.873 104.016Z" fill="white"/>
<path d="M116.874 120.115V122.134C114.307 121.347 112.102 120.726 110.674 120.436C110.342 120.364 110.021 120.322 109.711 120.281L109.732 120.105C110.208 118.966 109.732 115.839 109.732 115.839C111.854 117.537 114.338 119.142 116.874 120.105V120.115Z" fill="#FFD9B3"/>
<path d="M116.874 104.016C114.286 101.801 109.98 103.54 109.98 103.54C109.98 103.54 108.22 103.633 107.744 102.07C107.744 102.07 113.334 99.6579 116.874 104.016Z" fill="#FFED8E"/>
<path d="M110.787 52.5311C110.787 52.5311 114.389 55.0779 112.391 59.0845C112.391 59.0845 113.623 64.8511 109.669 66.2694H109.659C108.106 65.669 106.346 65.2756 104.245 65.3791C101.005 65.5344 96.5441 67.9155 93.7494 73.2266C93.7494 73.2266 85.2513 69.0233 87.456 63.6812C87.456 63.6812 85.8516 53.732 93.5009 53.6803C93.5009 53.6803 94.4636 51.7339 97.2169 50.6986C98.4901 50.2224 100.136 49.9428 102.247 50.1292C102.247 50.1292 108.396 48.3381 110.787 52.5311Z" fill="#FFED8E"/>
<path d="M103.262 111.274L103.241 111.357C103.241 111.357 103.593 118.417 103.148 122.859C102.133 123.946 101.129 125.385 100.032 127.197C94.1113 111.864 85.0233 96.7383 75.9663 83.6729C71.2877 49.7153 82.5287 21.7831 86.3896 13.2315C86.6691 12.6103 87.5799 12.7656 87.6317 13.4386C87.8801 16.5755 89.412 21.5139 91.151 26.5868C95.4363 39.0828 97.2166 50.6988 97.2166 50.6988C94.4633 51.7341 93.5006 53.6805 93.5006 53.6805C85.8513 53.7322 87.4557 63.6814 87.4557 63.6814C85.251 69.0235 93.7491 73.2268 93.7491 73.2268C92.1861 76.1981 91.151 80.0908 91.151 85.0292C91.151 98.7675 96.9475 102.07 96.9475 102.07H97.1442C97.1234 103.675 97.4857 105.683 98.8935 107.568C100.757 110.042 102.175 111.015 103.262 111.274Z" fill="#D9F7FF"/>
<path d="M100.032 127.197C99.1421 128.667 98.1898 130.386 97.1443 132.363C96.3473 133.854 95.6021 135.169 94.8568 136.307C85.127 133.243 60.7921 116.036 42.8022 85.9093C28.8079 62.4702 29.1701 29.9102 30.0189 16.617C30.0914 15.4782 31.6854 15.3022 32.0063 16.3893C34.0972 23.3982 38.8068 35.77 48.4021 47.914C53.3601 54.1982 64.6426 67.3257 75.9664 83.673C85.0235 96.7384 94.1115 111.864 100.032 127.197Z" fill="#D9F7FF"/>
<path d="M77.5916 196.82C79.258 198.104 80.5933 199.471 81.6698 200.868C74.6209 204.647 65.6156 209.254 63.5661 209.741L63.4212 209.906C62.4586 209.006 61.1647 208.457 59.7466 208.457C59.5707 208.457 59.3947 208.467 59.2188 208.488C59.2188 208.488 62.6863 200.734 70.8842 199.098C71.4431 198.984 72.0124 198.901 72.6128 198.849C72.6128 198.849 74.0412 197.597 76.2459 195.702C76.691 196.106 77.1465 196.479 77.5916 196.82Z" fill="#FFD9B3"/>
<path d="M70.884 199.088C62.6861 200.734 59.2186 208.488 59.2186 208.488C56.7861 208.716 54.8298 210.559 54.4158 212.919L52.6561 212.391C52.1593 212.236 51.8695 211.739 51.9626 211.242C52.1593 210.279 52.7183 208.633 54.3226 206.749C56.8793 203.746 59.0633 205.051 61.1646 202.545C63.2658 200.05 66.8576 195.547 68.5551 195.702C70.2009 195.847 70.8426 198.881 70.884 199.088Z" fill="#A5D75F"/>
<path d="M66.1228 179.262L63.2659 179.635C60.7921 175.856 59.2188 173.05 59.2188 173.05C60.7196 172.667 62.324 172.056 63.9698 171.135C63.9698 171.135 63.9077 176.187 66.1228 179.262Z" fill="#FFD9B3"/>
<path d="M65.1606 213.882C65.1606 216.874 62.7385 219.297 59.7471 219.297C56.7557 219.297 54.3232 216.874 54.3232 213.882C54.3232 213.551 54.3543 213.23 54.4164 212.919C54.8304 210.559 56.7868 208.716 59.2192 208.488C59.3952 208.467 59.5711 208.457 59.7471 208.457C61.1652 208.457 62.459 209.006 63.4217 209.906C64.4878 210.89 65.1606 212.308 65.1606 213.882Z" fill="white"/>
<path d="M100.043 127.228C100.043 127.228 100.032 127.207 100.032 127.197C94.1115 111.864 85.0235 96.7384 75.9664 83.673C64.6426 67.3257 53.3601 54.1982 48.4021 47.914C38.8068 35.77 34.0972 23.3982 32.0063 16.3893C31.6854 15.3022 30.0914 15.4782 30.0189 16.617C29.1701 29.9102 28.8079 62.4702 42.8022 85.9093C60.7921 116.036 85.127 133.243 94.8568 136.307" stroke="black" stroke-width="0.4" stroke-linecap="round" stroke-linejoin="round"/>
<path d="M116.874 120.105C114.338 119.142 111.853 117.537 109.731 115.839C107.692 114.204 105.984 112.475 104.918 111.149C104.401 110.508 104.038 109.969 103.842 109.565" stroke="black" stroke-width="0.4" stroke-linecap="round" stroke-linejoin="round"/>
<path d="M133.735 90.1748C133.735 90.1748 133.735 90.1852 133.724 90.2059C133.683 90.3819 133.403 91.4482 133.083 92.9183C132.865 93.9019 132.617 95.0821 132.42 96.2934C132.306 96.9663 132.203 97.6496 132.12 98.3226C132.037 98.9955 131.975 99.6477 131.934 100.269C131.913 100.673 131.934 101.056 131.965 101.408C132.016 101.946 132.13 102.433 132.275 102.888C132.855 104.721 133.983 106.025 133.983 108.116C133.983 109.99 132.379 114.701 128.756 117.921C127.338 119.184 125.609 120.219 123.539 120.768C121.438 121.327 119.14 120.975 116.873 120.116" stroke="black" stroke-width="0.4" stroke-linecap="round" stroke-linejoin="round"/>
<path d="M107.744 81.9751C107.744 81.9751 108.779 85.1327 112.526 87.9591C114.193 89.2221 116.397 90.4024 119.285 91.2203" stroke="black" stroke-width="0.4" stroke-linecap="round" stroke-linejoin="round"/>
<path d="M116.636 87.8763C116.636 87.8763 118.199 89.129 119.627 90.9511C120.724 92.3488 121.728 94.0777 121.884 95.8274C122.008 97.2043 122.753 96.6245 123.519 95.082C124.482 93.146 125.486 89.6674 125.31 86.6029C125.258 85.7022 125.103 84.8222 124.823 84.0354C124.606 83.4453 124.316 82.9069 123.933 82.4307" stroke="black" stroke-width="0.4" stroke-linecap="round" stroke-linejoin="round"/>
<path d="M129.191 86.2197C128.829 85.4846 128.208 84.6253 127.162 83.6211" stroke="black" stroke-width="0.4" stroke-linecap="round" stroke-linejoin="round"/>
<path d="M125.33 86.6027C125.33 86.6027 128.187 87.5966 128.984 89.5119C128.984 89.5119 130.309 88.4559 129.212 86.23" stroke="black" stroke-width="0.4" stroke-linecap="round" stroke-linejoin="round"/>
<path d="M129.19 86.2197H129.211C129.449 86.3233 131.706 87.2964 133.724 90.2056C134.552 91.4066 135.339 92.9388 135.929 94.8748C135.929 94.8748 136.405 94.4296 136.643 93.3426C136.881 92.2451 136.881 90.5266 135.929 87.9694" stroke="black" stroke-width="0.4" stroke-linecap="round" stroke-linejoin="round"/>
<path d="M104.245 81.9751C104.245 81.9751 104.421 84.232 106.139 86.5718C107.506 88.425 109.845 90.3299 113.84 91.2203C113.84 91.2203 112.66 89.305 112.526 87.9591" stroke="black" stroke-width="0.4" stroke-linecap="round" stroke-linejoin="round"/>
<path d="M106.139 86.5718C106.139 86.5718 104.648 94.0259 102.247 97.1732" stroke="black" stroke-width="0.4" stroke-linecap="round" stroke-linejoin="round"/>
<path d="M104.193 104.669H104.183C103.955 104.565 100.27 102.95 97.6514 99.016C96.3782 97.1111 95.3535 94.6574 95.0947 91.5723" stroke="black" stroke-width="0.4" stroke-linecap="round" stroke-linejoin="round"/>
<path d="M101.792 93.4771C101.792 93.4771 101.864 95.1335 102.113 97.1938C102.423 99.9166 103.044 103.364 104.183 104.658" stroke="black" stroke-width="0.4" stroke-linecap="round" stroke-linejoin="round"/>
<path d="M136.985 102.07H136.996C137.234 101.956 141.043 100.196 142.326 95.7032C143.072 93.1253 142.968 89.6364 140.877 85.0293" stroke="black" stroke-width="0.4" stroke-linecap="round" stroke-linejoin="round"/>
<path d="M136.644 93.3428C136.644 93.3428 138.983 98.5607 136.995 102.06" stroke="black" stroke-width="0.4" stroke-linecap="round" stroke-linejoin="round"/>
<path d="M142.327 95.7032C142.327 95.7032 148.071 93.4255 146.477 85.0293C144.873 76.6227 138.58 75.6806 138.58 75.6806C138.58 75.6806 140.929 73.8274 143.476 74.1276C143.476 74.1276 138.611 70.2142 131.179 72.3573" stroke="black" stroke-width="0.4" stroke-linecap="round" stroke-linejoin="round"/>
<path d="M127.007 69.9863C125.982 70.4626 124.957 71.1148 123.984 71.9741" stroke="black" stroke-width="0.4" stroke-linecap="round" stroke-linejoin="round"/>
<path d="M129.191 73.7237C129.191 73.7237 129.946 73.1025 131.168 72.3571H131.178C132.907 71.2804 135.536 69.9449 138.227 69.6757C138.227 69.6757 132.565 67.3566 127.007 69.9759" stroke="black" stroke-width="0.4" stroke-linecap="round" stroke-linejoin="round"/>
<path d="M109.659 66.2697C108.106 65.6692 106.346 65.2758 104.245 65.3793C101.005 65.5346 96.5442 67.9158 93.7494 73.2268C92.1865 76.1981 91.1514 80.0908 91.1514 85.0292C91.1514 98.7676 96.9479 102.07 96.9479 102.07" stroke="black" stroke-width="0.4" stroke-linecap="round" stroke-linejoin="round"/>
<path d="M127.007 69.9862C127.089 69.862 127.576 69.0131 127.483 67.4808C127.483 67.4808 124.936 70.1829 119.885 70.5246C116.262 70.7731 113.644 67.8225 109.669 66.2695" stroke="black" stroke-width="0.4" stroke-linecap="round" stroke-linejoin="round"/>
<path d="M97.6516 99.0161C97.6516 99.0161 97.1651 100.29 97.1444 102.081C97.1237 103.675 97.486 105.683 98.8937 107.568C100.757 110.042 102.175 111.015 103.262 111.274C103.935 111.44 104.473 111.336 104.918 111.15H104.928" stroke="black" stroke-width="0.4" stroke-linecap="round" stroke-linejoin="round"/>
<path d="M97.2166 50.6988C97.2166 50.6988 95.4363 39.0828 91.151 26.5868C89.412 21.5139 87.8801 16.5755 87.6317 13.4386C87.5799 12.7656 86.6691 12.6103 86.3896 13.2315C82.5287 21.7831 71.2877 49.7153 75.9663 83.6729" stroke="black" stroke-width="0.4" stroke-linecap="round" stroke-linejoin="round"/>
<path d="M93.7494 73.2266C93.7494 73.2266 85.2513 69.0233 87.456 63.6812C87.456 63.6812 85.8516 53.732 93.5009 53.6803C93.5009 53.6803 94.4636 51.7339 97.2169 50.6986C98.4901 50.2224 100.136 49.9428 102.247 50.1292C102.247 50.1292 108.396 48.3381 110.787 52.5311C110.787 52.5311 114.389 55.0779 112.391 59.0845C112.391 59.0845 113.623 64.8511 109.669 66.2694H109.659" stroke="black" stroke-width="0.4" stroke-linecap="round" stroke-linejoin="round"/>
<path d="M126.282 95.403C126.282 95.403 126.313 95.3512 126.365 95.2684C126.717 94.7714 128.032 92.97 129.626 92.4731C130.319 92.2453 131.075 92.2764 131.81 92.7733" stroke="black" stroke-width="0.4" stroke-linecap="round" stroke-linejoin="round"/>
<path d="M117.36 98.9022C117.36 98.9022 110.094 93.322 107.517 98.4674" stroke="black" stroke-width="0.4" stroke-linecap="round" stroke-linejoin="round"/>
<path d="M126.365 110.435C126.365 110.435 127.535 109.369 127.493 108.634C127.462 107.961 125.434 106.946 125.04 105.601C124.988 105.466 124.968 105.331 124.968 105.186C124.968 105.042 124.968 104.886 124.978 104.741C125.03 103.778 125.278 102.878 125.713 102.07C126.738 100.072 128.777 98.6538 131.137 98.3846C131.375 98.3535 131.644 98.3328 131.924 98.3018" stroke="black" stroke-width="0.4" stroke-linecap="round" stroke-linejoin="round"/>
<path d="M114.068 108.717C112.257 108.282 110.497 106.926 109.979 103.54C109.979 103.54 114.285 101.801 116.873 104.016C117.194 104.286 117.484 104.617 117.732 105.01C118.25 105.828 118.622 106.926 118.736 108.406C118.736 108.406 116.366 109.286 114.068 108.727" stroke="black" stroke-width="0.4" stroke-linecap="round" stroke-linejoin="round"/>
<path d="M125.03 105.601C125.113 105.652 126.19 106.17 128.011 105.601C129.16 105.249 130.599 104.472 132.255 102.888" stroke="black" stroke-width="0.4" stroke-linecap="round" stroke-linejoin="round"/>
<path d="M114.068 108.727C113.975 108.458 112.36 103.685 117.732 105.01" stroke="black" stroke-width="0.4" stroke-linecap="round" stroke-linejoin="round"/>
<path d="M128.021 105.6C128.021 105.6 127.276 102.639 129.046 101.138C130.723 99.7199 131.923 101.407 131.923 101.407" stroke="black" stroke-width="0.4" stroke-linecap="round" stroke-linejoin="round"/>
<path d="M109.98 103.54C109.98 103.54 108.22 103.633 107.744 102.07C107.744 102.07 113.334 99.6579 116.874 104.016" stroke="black" stroke-width="0.4" stroke-linecap="round" stroke-linejoin="round"/>
<path d="M125.702 102.07C125.702 102.07 126.282 99.5852 128.166 97.8666C129.18 96.9556 130.557 96.2619 132.42 96.293" stroke="black" stroke-width="0.4" stroke-linecap="round" stroke-linejoin="round"/>
<path d="M123.508 110.291C123.508 110.291 123.932 110.57 124.481 110.746" stroke="black" stroke-width="0.4" stroke-linecap="round" stroke-linejoin="round"/>
<path d="M128.446 112.516C127.907 113.458 127.069 114.162 126.448 114.587C125.961 114.908 125.402 115.104 124.823 115.156C123.208 115.311 121.925 115.27 120.931 115.135C118.529 114.804 117.732 113.914 117.732 113.914" stroke="black" stroke-width="0.4" stroke-linecap="round" stroke-linejoin="round"/>
<path d="M120.641 117.071C120.641 117.071 123.653 118.169 125.971 117.123C126.075 117.082 126.178 117.03 126.282 116.968" stroke="black" stroke-width="0.4" stroke-linecap="round" stroke-linejoin="round"/>
<path d="M103.242 111.357C103.242 111.357 103.594 118.418 103.148 122.859" stroke="black" stroke-width="0.4" stroke-linecap="round" stroke-linejoin="round"/>
<path d="M111.211 131.597C111.211 131.597 114.803 131.473 120.692 132.943C124.253 133.833 128.663 135.314 133.631 137.767C143.071 142.426 163.752 137.167 171.815 139.362C171.815 139.362 172.519 142.592 174.579 143.627C176.649 144.662 179.982 146.495 180.945 148.389C181.09 148.669 181.224 148.814 181.328 148.824C181.649 148.886 181.814 147.996 181.69 146.94C181.618 146.277 181.431 145.553 181.09 144.962C180.903 144.631 180.665 144.341 180.376 144.124" stroke="black" stroke-width="0.4" stroke-linecap="round" stroke-linejoin="round"/>
<path d="M91.9385 139.983C92.9322 139.009 93.8844 137.798 94.8574 136.307C95.6027 135.168 96.3479 133.854 97.145 132.363C98.1904 130.385 99.1427 128.667 100.033 127.197C101.13 125.385 102.134 123.946 103.148 122.859C105.094 120.778 107.071 119.981 109.711 120.281C110.021 120.322 110.342 120.364 110.674 120.436C112.102 120.726 114.307 121.347 116.874 122.134C124.658 124.536 135.743 128.439 138.528 128.967C142.233 129.661 146.322 127.87 153.226 129.961C160.12 132.063 170.17 135.21 173.866 134.868C177.561 134.516 178.513 137.363 182.208 138.813C185.914 140.262 186.815 139.361 188.212 139.91C189.609 140.459 191.762 142.809 191.762 142.809C190.562 143.295 189.195 143.037 188.14 142.674C187.125 142.322 186.411 141.867 186.411 141.867C185.334 141.97 184.372 142.043 183.502 142.095C174.59 142.664 175.46 140.966 175.46 140.966" stroke="black" stroke-width="0.4" stroke-linecap="round" stroke-linejoin="round"/>
<path d="M53.6711 164.115C44.1379 162.583 46.0736 150.263 46.0736 150.263C48.6716 153.358 58.9604 152.458 60.9581 149.259C62.9662 146.06 70.16 140.862 79.3516 142.467C85.2413 143.492 88.802 142.995 91.9279 139.982" stroke="black" stroke-width="0.4" stroke-linecap="round" stroke-linejoin="round"/>
<path d="M181.09 144.962L183.812 145.366L183.688 147.137" stroke="black" stroke-width="0.4" stroke-linecap="round" stroke-linejoin="round"/>
<path d="M183.502 142.095C183.502 142.095 184.806 143.254 186.431 144.538C189.226 146.733 192.983 149.3 192.776 147.033C192.745 146.66 188.947 144.279 188.139 142.674" stroke="black" stroke-width="0.4" stroke-linecap="round" stroke-linejoin="round"/>
<path d="M186.431 144.527C186.4 144.745 186.069 147.24 185.044 149.228" stroke="black" stroke-width="0.4" stroke-linecap="round" stroke-linejoin="round"/>
<path d="M181.328 148.824L193.635 171.58L196.803 177.419L194.277 171.559L184.713 149.373L183.812 147.292C183.812 147.292 183.771 147.23 183.688 147.136C183.45 146.857 182.819 146.36 181.742 146.94" stroke="black" stroke-width="0.4" stroke-linecap="round" stroke-linejoin="round"/>
<path d="M56.8178 159.529C56.8178 159.529 54.9132 160.533 53.6711 164.115C53.2985 165.192 52.988 166.496 52.8017 168.091C52.3773 171.694 48.5371 172.356 48.5371 172.356C48.5371 172.356 53.1122 174.572 59.2192 173.05C60.7201 172.667 62.3245 172.056 63.9703 171.134C64.964 170.575 65.968 169.892 66.9927 169.085" stroke="black" stroke-width="0.4" stroke-linecap="round" stroke-linejoin="round"/>
<path d="M63.9699 171.134C63.9699 171.134 63.9078 176.187 66.1229 179.261C66.8267 180.224 67.7583 181.001 68.9901 181.353C68.9901 181.353 71.3294 177.357 74.7245 175.421C78.1195 173.485 80.2518 171.952 80.4588 167.956C80.4588 167.956 88.3876 170.223 88.5843 173.288C88.5843 173.288 89.3192 174.841 90.3957 177.325C91.0064 178.733 91.731 180.442 92.4969 182.336C93.8943 185.773 95.4262 189.832 96.658 193.818C98.2106 198.787 99.3078 203.643 99.1422 207.049C98.6453 217.35 113.944 240.137 116.438 245.241C118.933 250.334 123.136 259.331 123.239 262.437" stroke="black" stroke-width="0.4" stroke-linecap="round" stroke-linejoin="round"/>
<path d="M59.2188 173.05C59.2188 173.05 60.7921 175.855 63.2659 179.634C66.5575 184.687 71.4431 191.488 76.2459 195.702C76.691 196.106 77.1465 196.479 77.5916 196.82C79.258 198.104 80.5933 199.471 81.6698 200.868C86.2656 206.831 86.0586 213.292 86.3898 215.88C86.7831 219.079 86.5554 224.939 91.5445 230.447C96.544 235.944 111.046 247.343 112.039 250.438C112.298 251.235 112.484 252.498 112.764 253.989C113.55 258.286 115 264.466 120.641 266.837" stroke="black" stroke-width="0.4" stroke-linecap="round" stroke-linejoin="round"/>
<path d="M107.092 159.612C106.947 159.384 104.442 155.854 99.1526 155.409C93.9772 154.984 93.9151 152.976 93.9254 152.769" stroke="black" stroke-width="0.4" stroke-linecap="round" stroke-linejoin="round"/>
<path d="M90.3955 177.326C90.7888 176.839 91.1097 176.259 91.3892 175.617C93.0867 171.621 92.652 165.306 92.652 165.306C92.652 165.306 95.0431 165.306 99.4008 161.113C103.593 157.055 106.853 159.425 107.081 159.601" stroke="black" stroke-width="0.4" stroke-linecap="round" stroke-linejoin="round"/>
<path d="M63.5664 209.741C65.6159 209.254 74.6211 204.647 81.6701 200.868" stroke="black" stroke-width="0.4" stroke-linecap="round" stroke-linejoin="round"/>
<path d="M107.092 159.612C107.092 159.612 124.533 172.356 124.533 176.052C124.533 179.748 125.227 184.945 122.484 186.053C120.476 186.861 106.285 190.609 96.6582 193.818" stroke="black" stroke-width="0.4" stroke-linecap="round" stroke-linejoin="round"/>
<path d="M63.4217 209.906C64.4878 210.89 65.1606 212.308 65.1606 213.882C65.1606 216.874 62.7385 219.297 59.7471 219.297C56.7557 219.297 54.3232 216.874 54.3232 213.882C54.3232 213.551 54.3543 213.23 54.4164 212.919C54.8304 210.559 56.7868 208.716 59.2192 208.488C59.3952 208.467 59.5711 208.457 59.7471 208.457C61.1652 208.457 62.459 209.006 63.4217 209.906Z" stroke="black" stroke-width="0.4" stroke-linecap="round" stroke-linejoin="round"/>
<path d="M100.115 177.212C98.9664 177.409 96.0371 179.624 92.4971 182.337" stroke="black" stroke-width="0.4" stroke-linecap="round" stroke-linejoin="round"/>
<path d="M70.8848 199.088C71.4437 198.984 72.013 198.901 72.6134 198.849C72.6134 198.849 74.0418 197.597 76.2465 195.702" stroke="black" stroke-width="0.4" stroke-linecap="round" stroke-linejoin="round"/>
<path d="M59.2188 208.488C59.2188 208.488 62.6863 200.733 70.8842 199.098" stroke="black" stroke-width="0.4" stroke-linecap="round" stroke-linejoin="round"/>
<path d="M70.884 199.098C70.8426 198.881 70.2009 195.847 68.5551 195.702C66.8576 195.547 63.2658 200.05 61.1646 202.545C59.0633 205.051 56.8793 203.746 54.3226 206.749C52.7183 208.633 52.1593 210.279 51.9626 211.242C51.8695 211.739 52.1593 212.236 52.6561 212.391L54.4158 212.919" stroke="black" stroke-width="0.4" stroke-linecap="round" stroke-linejoin="round"/>
<path d="M91.3789 175.617H91.3893C91.6687 175.659 95.7159 176.3 100.115 177.201C104.483 178.102 109.182 179.241 110.942 180.317" stroke="black" stroke-width="0.4" stroke-linecap="round" stroke-linejoin="round"/>
<path d="M118.83 139.465L118.851 139.444C119.068 139.258 121.076 137.508 122.349 138.067" stroke="black" stroke-width="0.4" stroke-linecap="round" stroke-linejoin="round"/>
<path d="M91.9277 139.983H91.9381C92.0934 140.034 95.1262 140.852 99.546 138.368C104.09 135.81 112.888 131.514 116.842 134.113C120.579 136.577 119.016 139.185 118.85 139.444" stroke="black" stroke-width="0.4" stroke-linecap="round" stroke-linejoin="round"/>
<path d="M120.641 133.139C120.641 133.139 122.266 135.51 122.349 138.067C122.401 139.341 122.059 140.666 120.942 141.763C119.741 142.943 117.66 143.875 114.193 144.217C114.193 144.217 112.236 145.438 107.744 147.136C104.639 148.296 100.043 148.658 96.6584 150.511C95.5922 151.091 94.6606 151.816 93.9154 152.758C93.5738 153.182 93.284 153.648 93.0459 154.156" stroke="black" stroke-width="0.4" stroke-linecap="round" stroke-linejoin="round"/>
<path d="M107.744 147.136C107.744 147.136 111.046 150.16 117.339 150.864C117.339 150.864 119.948 147.416 122.132 146.743C122.567 146.608 122.981 146.577 123.353 146.712C123.353 146.712 123.829 146.37 124.523 145.987C125.693 145.345 127.473 144.569 128.539 145.138" stroke="black" stroke-width="0.4" stroke-linecap="round" stroke-linejoin="round"/>
<path d="M126.79 147.012C126.79 147.012 127.514 146.05 128.539 145.139C129.336 144.435 130.319 143.751 131.272 143.596C131.665 143.524 131.924 144.02 131.634 144.321C130.247 145.791 127.017 149.321 126.086 151.464C126.086 151.464 129.284 150.916 129.936 152.013C130.588 153.11 127.38 153.411 126.386 154.156C125.382 154.912 125.237 155.564 122.691 155.605C120.134 155.657 113.437 155.761 109.897 155.16C106.347 154.56 96.6582 150.512 96.6582 150.512" stroke="black" stroke-width="0.4" stroke-linecap="round" stroke-linejoin="round"/>
<path d="M122.132 146.743C122.132 146.743 121.925 144.724 122.132 144.331C122.225 144.144 123.219 142.301 123.685 141.908C124.026 141.629 124.554 141.856 124.565 142.301C124.565 142.871 124.057 145.076 124.451 145.842" stroke="black" stroke-width="0.4" stroke-linecap="round" stroke-linejoin="round"/>
<path d="M193.635 171.58L186.431 170.751L190.033 174.758L181.09 179.769L190.012 179.251L185.737 187.647L195.809 181.757L196.802 188.548L198.407 181.85L203.707 187.047L201.398 178.754H207.505L202.806 175.617L209.203 171.652L200.405 172.056L202.702 164.115L194.277 171.559" stroke="black" stroke-width="0.4" stroke-linecap="round" stroke-linejoin="round"/>
<path d="M189.06 211.097L182.467 212.495L183.864 219.089L177.871 213.851L174.569 221.791L173.668 213.851L164.373 215.994L171.577 209.741L163.576 203.394L173.668 205.299L177.674 197.7L179.568 205.299L186.162 204.699L182.467 207.898L189.06 211.097Z" stroke="black" stroke-width="0.4" stroke-linecap="round" stroke-linejoin="round"/>
<path d="M240.401 229.722L230.775 234.329L236.136 239.785L227.535 237.714L226.614 245.158L219.585 237.828L215.973 243.967L216.366 235.882L210.435 239.951L215.559 232.144L208.075 227.444L218.861 228.324L219.927 219.296L223.788 227.599L229.885 223.52L229.098 229.411L240.401 229.722Z" stroke="black" stroke-width="0.4" stroke-linecap="round" stroke-linejoin="round"/>
<path d="M109.731 115.839C109.731 115.839 110.208 118.966 109.731 120.105" stroke="black" stroke-width="0.4" stroke-linecap="round" stroke-linejoin="round"/>
<path d="M116.873 120.105V120.115V122.134" stroke="black" stroke-width="0.4" stroke-linecap="round" stroke-linejoin="round"/>
</g>
</svg>
