<svg width="24" height="48" viewBox="0 0 24 48" fill="none" xmlns="http://www.w3.org/2000/svg">
<g clip-path="url(#clip0_347_1818)">
<path d="M19.751 19.5368C20.3989 20.6117 20.8194 21.8617 20.9332 23.2381C20.9381 23.2916 20.943 23.3403 20.948 23.3938C21.3239 28.7049 18.6232 35.3925 14.948 39.5607C12.1186 42.7757 4.39729 48.4565 2.1813 47.2065C0.410483 46.2046 2.70067 44.0548 3.79878 38.2184C5.15904 30.9909 3.35855 30.4996 3.10628 23.3938C3.06671 22.2557 3.29424 21.385 3.68996 20.4999C3.68996 20.4999 7.67182 16.39 12.0049 16.1128C16.3379 15.8355 18.6726 17.9318 19.751 19.5368Z" fill="#E55936"/>
<path d="M19.2169 19.8484C20.9036 22.7229 20.4881 26.2782 19.6522 29.357C18.8162 32.4357 17.3026 35.5971 15.2746 38.2138C13.7363 40.203 11.7577 41.8713 9.72968 43.3547C8.64642 44.1475 7.52358 44.9014 6.34139 45.5483C5.45104 46.0395 4.50132 46.5259 3.48731 46.7204C3.19547 46.7788 2.8789 46.808 2.62663 46.735C2.44856 46.6815 2.25565 46.521 2.20124 46.4189C2.13694 46.2924 2.14188 46.02 2.19135 45.7671C2.27049 45.3634 2.41394 44.9646 2.55244 44.5755C3.59613 41.633 4.48648 38.7293 4.81295 35.6068C5.07016 33.1604 4.70413 30.8647 4.27379 28.462C4.01163 27.0029 3.8385 25.5389 3.75936 24.0652C3.7099 23.1411 3.71979 22.2608 4.01163 21.3707C4.13034 21.0157 4.13034 20.9233 4.38261 20.6801C6.07923 19.0702 8.16167 17.6354 10.442 16.9983C13.1328 16.2444 16.3084 16.8037 18.3265 18.7735C18.6629 19.0994 18.9597 19.4544 19.2219 19.8387C19.6621 20.4855 20.7355 19.8776 20.2903 19.2258C18.742 16.9496 16.2342 15.6705 13.4692 15.4954C10.1897 15.2862 7.26142 16.7599 4.77338 18.7297C4.26884 19.1286 3.67033 19.5566 3.25977 20.0673C2.75524 20.6947 2.59201 21.755 2.51781 22.5332C2.42878 23.5108 2.5376 24.5176 2.62663 25.4903C2.86901 28.1119 3.64559 30.6896 3.69011 33.3258C3.74452 36.7498 2.86406 40.1593 1.69176 43.3596C1.17733 44.7652 0.108909 47.1338 2.17651 47.8585C3.02235 48.1552 3.99679 47.8974 4.80306 47.6056C6.02482 47.1582 7.16744 46.521 8.2606 45.8304C10.625 44.3421 12.8954 42.5863 14.8344 40.5873C17.174 38.1749 18.8855 35.1691 20.0726 32.0612C21.2746 28.8998 22.1155 25.1644 21.3439 21.8036C21.1361 20.8941 20.7701 20.0284 20.2952 19.221C19.8995 18.5449 18.8311 19.1529 19.2268 19.8338L19.2169 19.8484Z" fill="#410A0A"/>
<path d="M19.6963 16.7896C18.0343 16.1281 16.679 13.6136 13.4193 13.0494C13.538 12.1642 13.5627 10.9823 13.7062 9.06111C13.9189 6.21098 12.9395 6.49794 12.5537 6.51253C12.2124 6.52712 10.5751 6.72167 10.8175 7.67009C11.0203 8.45801 10.8867 11.9356 10.8373 13.098C9.69463 13.3023 8.20081 13.7886 6.93453 14.9316C4.60972 17.0327 4.09035 18.1757 2.49265 18.4043C1.74575 18.5113 0.771302 18.3314 0.627856 18.7594C0.48441 19.1874 1.45391 20.413 4.58499 20.4033C8.24039 20.3887 10.862 19.2895 12.5932 17.4753C12.5932 17.4753 14.0178 19.7467 17.9452 19.7029C21.8727 19.6591 22.8125 17.9568 22.7977 17.1106C22.7828 16.2594 21.4968 17.4948 19.7062 16.7847L19.6963 16.7896Z" fill="#3A7C45"/>
<path d="M20.008 16.2641C19.0039 15.8409 18.257 14.9801 17.4211 14.3137C16.2834 13.4091 15.0319 12.733 13.5826 12.4607L14.0377 13.0492C14.2306 11.5122 14.3493 9.89748 14.3493 8.35082C14.3493 7.48508 14.2306 6.21079 13.2018 5.93842C12.5538 5.76333 11.6733 5.97247 11.0995 6.23997C10.6098 6.46856 10.1894 6.88684 10.1746 7.45103C10.1647 7.90822 10.2883 8.38487 10.2982 8.85178C10.3328 10.2671 10.2784 11.6873 10.2141 13.1027L10.6692 12.5142C9.60572 12.7136 8.56697 13.0784 7.64694 13.6425C6.65271 14.2554 5.82666 15.1065 5.01544 15.9334C4.46639 16.4878 3.93218 17.1347 3.24463 17.5287C2.5175 17.9421 1.72113 17.7524 0.934652 17.908C0.281726 18.0345 -0.158505 18.5598 0.059137 19.2115C0.222369 19.6979 0.677439 20.0626 1.11272 20.3107C2.87859 21.3078 5.2776 21.1229 7.20176 20.8117C9.40291 20.4566 11.4804 19.513 13.0286 17.9177L12.0591 17.7962C13.2067 19.6006 15.7096 20.3058 17.7376 20.3253C19.7657 20.3447 23.3617 19.7757 23.4161 17.1979C23.4309 16.5802 23.0105 16.1765 22.3872 16.2106C22.0608 16.23 21.7492 16.337 21.4276 16.3857C20.8835 16.4635 20.384 16.4003 19.8695 16.2154C19.1226 15.9431 18.8011 17.1201 19.5431 17.3876C20.3642 17.6843 21.1754 17.6746 22.0212 17.5092C22.0806 17.4995 22.4367 17.4654 22.4614 17.4216C22.4713 17.4071 22.2389 17.1444 22.1795 17.1736C22.1548 17.1833 22.1696 17.3341 22.1152 17.4557C21.7442 18.3458 20.5769 18.7786 19.6123 18.9634C17.9553 19.2796 16.0558 19.1823 14.5521 18.3652C14.1366 18.1415 13.7558 17.8691 13.4243 17.5335C13.3699 17.48 13.1127 17.1833 13.2117 17.3098C13.177 17.2709 13.1473 17.2271 13.1226 17.1833C12.9149 16.8575 12.4351 16.7699 12.1531 17.0617C11.0303 18.2193 9.62056 18.9829 8.05749 19.3915C6.29657 19.8535 4.15477 20.0772 2.3889 19.5374C1.95361 19.406 1.52328 19.1385 1.27101 18.8954C1.18692 18.8175 1.24133 18.8175 1.23144 18.8273C1.31058 18.7884 1.08304 19.0559 1.13251 19.1142C1.14735 19.1288 1.62715 19.0753 1.68156 19.0753C1.95361 19.0704 2.22567 19.0607 2.49277 19.0315C3.81841 18.871 4.71371 18.0102 5.59912 17.1055C6.38065 16.3079 7.15724 15.4373 8.09706 14.8196C8.97752 14.2408 9.9668 13.8955 11.0006 13.7058C11.2727 13.6523 11.4458 13.3702 11.4557 13.1173C11.515 11.7943 11.5645 10.4665 11.5447 9.13874C11.5447 8.81288 11.5348 8.48701 11.5051 8.16114C11.4903 7.99577 11.3617 7.66504 11.4161 7.52399C11.52 7.26135 12.1383 7.17867 12.4054 7.14462C12.5142 7.13003 12.623 7.12517 12.7318 7.1203C12.9198 7.11057 12.8159 7.08626 12.9198 7.13489C12.8308 7.09112 12.9248 7.1203 12.9742 7.26135C13.0633 7.5094 13.0929 7.76231 13.1078 8.02495C13.1572 8.99283 13.0187 9.98017 12.9643 10.9432C12.9248 11.6484 12.8901 12.3585 12.8011 13.0589C12.7714 13.3021 13.0138 13.5988 13.2562 13.6474C14.6511 13.9052 15.8135 14.5666 16.8868 15.4616C17.6733 16.1182 18.4202 16.9207 19.3848 17.3244C20.107 17.6259 20.7401 16.5802 20.008 16.2738V16.2641Z" fill="#410A0A"/>
<path d="M8.94272 32.12C10.4671 32.12 11.7028 29.888 11.7028 27.1347C11.7028 24.3814 10.4671 22.1494 8.94272 22.1494C7.41836 22.1494 6.18262 24.3814 6.18262 27.1347C6.18262 29.888 7.41836 32.12 8.94272 32.12Z" fill="white"/>
<path d="M11.1784 27.1344C11.1636 28.5108 10.9014 30.4563 9.66977 31.3464C8.57661 32.1391 7.63185 30.894 7.24108 29.9845C6.57332 28.4184 6.53869 26.5167 7.02344 24.8971C7.29055 24.0119 8.11165 22.2318 9.36309 22.7473C9.9715 23.0002 10.3672 23.6568 10.6244 24.2259C11.03 25.1403 11.1735 26.1471 11.1834 27.1392C11.1883 27.8007 12.237 27.8056 12.232 27.1392C12.2172 25.364 11.7769 23.0197 10.1199 21.9837C8.60134 21.0353 7.08774 22.2318 6.42492 23.5887C5.49005 25.5002 5.41091 27.9369 6.10835 29.9359C6.59805 31.3415 7.8396 33.1119 9.60052 32.5428C11.6879 31.8668 12.2172 28.9826 12.232 27.1441C12.237 26.4826 11.1883 26.4778 11.1834 27.1441L11.1784 27.1344Z" fill="#410A0A"/>
<path d="M10.3084 27.3364C11.1478 27.036 11.4382 25.7386 10.957 24.4387C10.4758 23.1387 9.40526 22.3285 8.56583 22.6289C7.72639 22.9293 7.43598 24.2267 7.91716 25.5266C8.39835 26.8265 9.46892 27.6368 10.3084 27.3364Z" fill="#410A0A"/>
<path d="M15.0472 32.12C16.5716 32.12 17.8073 29.888 17.8073 27.1347C17.8073 24.3814 16.5716 22.1494 15.0472 22.1494C13.5228 22.1494 12.2871 24.3814 12.2871 27.1347C12.2871 29.888 13.5228 32.12 15.0472 32.12Z" fill="white"/>
<path d="M17.2829 27.1344C17.2681 28.5108 17.0059 30.4563 15.7743 31.3464C14.6811 32.1391 13.7363 30.894 13.3456 29.9845C12.6778 28.4184 12.6432 26.5167 13.1279 24.8971C13.395 24.0119 14.2161 22.2318 15.4676 22.7473C16.076 23.0002 16.4717 23.6568 16.7289 24.2259C17.1345 25.1403 17.278 26.1471 17.2879 27.1392C17.2928 27.8007 18.3415 27.8056 18.3365 27.1392C18.3217 25.364 17.8814 23.0197 16.2244 21.9837C14.7058 21.0353 13.1922 22.2318 12.5294 23.5887C11.5945 25.5002 11.5154 27.9369 12.2128 29.9359C12.7025 31.3415 13.9441 33.1119 15.705 32.5428C17.7924 31.8668 18.3217 28.9826 18.3365 27.1441C18.3415 26.4826 17.2928 26.4778 17.2879 27.1441L17.2829 27.1344Z" fill="#410A0A"/>
<path d="M16.4148 27.3413C17.2542 27.0409 17.5447 25.7435 17.0635 24.4436C16.5823 23.1436 15.5117 22.3334 14.6723 22.6338C13.8328 22.9342 13.5424 24.2315 14.0236 25.5315C14.5048 26.8314 15.5754 27.6417 16.4148 27.3413Z" fill="#410A0A"/>
<path d="M6.37053 2.14493C4.758 4.68865 4.758 8.02516 6.37053 10.5737C6.79098 11.2352 7.8594 10.6272 7.43896 9.96092C6.04901 7.76738 6.04901 4.95129 7.43896 2.76262C7.8594 2.09629 6.79098 1.48346 6.37053 2.14979V2.14493Z" fill="#410A0A"/>
<path d="M2.67086 0.286509C0.346043 3.95861 0.346043 8.76396 2.67086 12.4312C3.0913 13.0927 4.15973 12.4847 3.73928 11.8184C1.63706 8.50132 1.63706 4.22125 3.73928 0.899337C4.15973 0.233008 3.0913 -0.37982 2.67086 0.286509Z" fill="#410A0A"/>
<path d="M18.5592 10.5735C20.1717 8.02981 20.1717 4.6933 18.5592 2.14471C18.1387 1.48325 17.0703 2.09121 17.4908 2.75754C18.8807 4.95107 18.8807 7.76716 17.4908 9.95584C17.0703 10.6222 18.1387 11.235 18.5592 10.5687V10.5735Z" fill="#410A0A"/>
<path d="M22.2584 12.432C24.5832 8.75986 24.5832 3.95451 22.2584 0.282406C21.838 -0.379059 20.7695 0.228905 21.19 0.895234C23.2922 4.21715 23.2922 8.49722 21.19 11.8143C20.7695 12.4806 21.838 13.0934 22.2584 12.4271V12.432Z" fill="#410A0A"/>
</g>
<defs>
<clipPath id="clip0_347_1818">
<rect width="24" height="48" fill="white"/>
</clipPath>
</defs>
</svg>
