<svg width="113" height="172" viewBox="0 0 113 172" fill="none" xmlns="http://www.w3.org/2000/svg">
<path d="M24.0134 136.968H17.5014V129.496H22.5574V125.224H17.5014V123.688H24.2694V131.016H19.2294V135.448H24.3494C25.6774 135.448 26.7334 135.16 27.3414 134.616V123.432H29.0854V137.944H27.3414V136.056C26.7654 136.632 25.5174 136.968 24.0134 136.968ZM34.8608 125.816H42.7488V123.608H44.4928V131.048H33.1168V123.608H34.8608V125.816ZM42.7488 129.56V127.304H34.8608V129.56H42.7488ZM32.3648 134.392V132.872H45.2448V134.392H42.4768V138.088H40.7648V134.392H36.9088V138.088H35.1968V134.392H32.3648ZM52.5724 125.112V123.608H60.0764V125.112H57.1964V125.832C57.1964 128.296 58.5244 129.464 60.3324 129.864V131.4C58.6044 131.096 57.1164 130.184 56.3644 128.952C55.5964 130.2 54.0924 131.288 52.3164 131.592V130.024C54.1724 129.64 55.4524 128.328 55.4524 125.832V125.112H52.5724ZM64.1084 123.432V126.84H66.2204V128.36H64.1084V131.816H62.3644V123.432H64.1084ZM53.2124 132.76H64.1084V138.184H62.3644V134.28H53.2124V132.76ZM72.5558 123.528V125.32C72.5558 127.832 73.9478 129.128 75.8038 129.688V131.224C73.9798 130.84 72.4598 129.816 71.7078 128.6C71.0198 129.864 69.4838 130.952 67.5958 131.4V129.864C69.4998 129.256 70.8278 127.768 70.8278 125.32V123.528H72.5558ZM79.8518 131.704H78.1078V127.56H74.9398V126.072H78.1078V123.432H79.8518V131.704ZM74.4918 138.28C72.8278 138.28 71.1798 138.056 70.0758 137.368C69.3078 136.888 68.8118 136.168 68.8118 135.192C68.8118 134.216 69.3078 133.496 70.0758 133.016C71.1798 132.344 72.8278 132.104 74.4918 132.104C76.1558 132.104 77.8198 132.344 78.9078 133.016C79.6758 133.496 80.1878 134.216 80.1878 135.192C80.1878 136.168 79.6758 136.888 78.9078 137.368C77.8198 138.056 76.1558 138.28 74.4918 138.28ZM74.4918 133.592C73.1798 133.592 71.8998 133.752 71.1638 134.2C70.7798 134.456 70.5398 134.776 70.5398 135.192C70.5398 135.608 70.7798 135.928 71.1638 136.168C71.8998 136.616 73.1798 136.792 74.4918 136.792C75.8198 136.792 77.0998 136.616 77.8198 136.168C78.2038 135.928 78.4438 135.608 78.4438 135.192C78.4438 134.776 78.2038 134.456 77.8198 134.2C77.0998 133.752 75.8198 133.592 74.4918 133.592ZM89.1952 130.296C89.1952 127.992 89.0352 126.312 88.4272 125.544C88.1392 125.144 87.6912 124.936 87.1632 124.936C86.6512 124.936 86.2032 125.144 85.8992 125.544C85.3232 126.312 85.1472 127.992 85.1472 130.296C85.1472 132.6 85.3232 134.28 85.8992 135.064C86.2032 135.432 86.6512 135.64 87.1632 135.64C87.6912 135.64 88.1392 135.432 88.4272 135.064C89.0352 134.28 89.1952 132.6 89.1952 130.296ZM83.4192 130.296C83.4192 127.672 83.6752 125.704 84.6032 124.568C85.1952 123.832 86.0912 123.432 87.1632 123.432C88.2512 123.432 89.1312 123.832 89.7392 124.568C90.6672 125.704 90.9232 127.672 90.9232 130.296C90.9232 132.92 90.6672 134.888 89.7392 136.024C89.1312 136.76 88.2512 137.128 87.1632 137.128C86.0912 137.128 85.1952 136.76 84.6032 136.024C83.6752 134.888 83.4192 132.92 83.4192 130.296ZM95.1792 123.432V137.944H93.4352V123.432H95.1792ZM1.834 153.456C1.834 152.56 2.154 151.824 2.762 151.296C3.45 150.672 4.474 150.336 5.738 150.336C7.002 150.336 8.042 150.672 8.73 151.296C9.322 151.824 9.642 152.56 9.642 153.456C9.642 154.336 9.322 155.072 8.73 155.6C8.202 156.08 7.482 156.384 6.618 156.496V157.968H8.714C10.026 157.968 10.938 157.728 11.466 157.376V150.432H13.21V154.784H15.338V156.272H13.21V161.056H11.466V158.8C10.874 159.248 9.866 159.488 8.25 159.488H1.37V157.968H4.858V156.496C3.994 156.384 3.29 156.064 2.762 155.6C2.154 155.072 1.834 154.336 1.834 153.456ZM3.514 153.456C3.514 153.904 3.674 154.272 3.962 154.544C4.346 154.912 4.97 155.072 5.738 155.072C6.522 155.072 7.146 154.912 7.514 154.544C7.818 154.272 7.978 153.904 7.978 153.456C7.978 152.992 7.818 152.624 7.514 152.352C7.146 152 6.522 151.824 5.738 151.824C4.97 151.824 4.346 152 3.962 152.352C3.674 152.624 3.514 152.992 3.514 153.456ZM13.482 165.088H2.506V160.816H4.234V163.584H13.482V165.088ZM19.3374 156.048V158.416H29.1454V159.92H26.8574V162.8H29.7214V164.304H16.8414V162.8H19.8014V159.92H17.5934V154.544H27.2254V152.224H17.5934V150.688H28.9694V156.048H19.3374ZM25.1134 159.92H21.5294V162.8H25.1134V159.92ZM40.2168 152.224H34.6008V157.36H40.3928V158.864H37.4968V162.624H39.4488C40.7608 162.624 41.8648 162.432 42.5368 161.872V150.432H44.2808V164.944H42.5368V163.296C41.9128 163.888 40.6008 164.112 39.0008 164.112H32.2488V162.624H35.7688V158.864H32.8568V150.688H40.2168V152.224ZM47.7521 154.176C47.7521 152.832 48.1841 151.808 48.9681 151.152C49.6241 150.624 50.5201 150.336 51.5601 150.336C52.6161 150.336 53.4961 150.624 54.1521 151.152C54.7921 151.68 55.1921 152.448 55.3201 153.44H57.9281V150.432H59.6721V158.608H57.9281V154.944H55.3201C55.1761 155.904 54.7761 156.656 54.1521 157.184C53.4961 157.728 52.6161 158 51.5601 158C50.5201 158 49.6241 157.728 48.9681 157.184C48.1841 156.528 47.7521 155.504 47.7521 154.176ZM49.4481 154.176C49.4481 154.976 49.6881 155.6 50.1201 156C50.4881 156.32 50.9681 156.512 51.5601 156.512C52.1521 156.512 52.6481 156.32 53.0001 156C53.4321 155.6 53.6721 154.976 53.6721 154.176C53.6721 153.376 53.4321 152.752 53.0001 152.352C52.6481 152.016 52.1521 151.84 51.5601 151.84C50.9681 151.84 50.4881 152.016 50.1201 152.352C49.6881 152.752 49.4481 153.376 49.4481 154.176ZM54.2961 165.104C53.2721 164.72 52.1841 163.824 51.6561 162.896C51.0481 163.856 49.6401 164.768 48.1841 165.104V163.584C49.6721 163.072 50.7601 161.856 50.7601 159.904V159.392H52.5041V159.904C52.5041 161.584 53.2881 162.8 54.2961 163.472C55.2881 162.8 56.1201 161.584 56.1201 159.904V159.392H57.8481V159.904C57.8481 161.856 58.9041 163.056 60.4241 163.584V165.104C58.9521 164.768 57.5441 163.872 56.9361 162.896C56.4241 163.824 55.3841 164.688 54.2961 165.104ZM69.3355 153.344C68.1515 154.64 65.7515 155.648 63.2395 155.84V154.336C65.8315 154.048 68.4715 152.864 68.4715 150.832V150.528H70.1995V150.832C70.1995 152.864 72.7595 154 75.4635 154.336V155.84C72.8715 155.616 70.5835 154.64 69.3355 153.344ZM62.8235 158.272V156.8H75.8955V158.272H62.8235ZM63.7835 159.36H65.5115V160.736H73.2075V159.36H74.9515V165.088H63.7835V159.36ZM73.2075 163.632V162.208H65.5115V163.632H73.2075ZM85.2069 163.968H78.7749V150.608H80.5029V162.448H85.5269C86.8869 162.448 87.9749 162.144 88.6149 161.584V150.432H90.3589V164.944H88.6149V162.992C88.0069 163.616 86.7269 163.968 85.2069 163.968ZM100.31 163.968H94.0223V150.688H101.014V152.224H95.7503V162.448H100.63C101.958 162.448 103.014 162.16 103.622 161.616V150.432H105.366V156.352H107.638V157.872H105.366V164.944H103.622V163.056C103.03 163.632 101.782 163.968 100.31 163.968ZM111.158 151.44V153.632L110.982 160.512H109.542L109.366 153.632V151.44H111.158ZM111.174 162.112V163.984H109.35V162.112H111.174Z" fill="#410A0A"/>
<path fill-rule="evenodd" clip-rule="evenodd" d="M57 84C80.196 84 99 65.196 99 42C99 18.804 80.196 0 57 0C33.804 0 15 18.804 15 42C15 65.196 33.804 84 57 84ZM78.3284 32.8284C79.8905 31.2663 79.8905 28.7337 78.3284 27.1716C76.7663 25.6095 74.2337 25.6095 72.6716 27.1716L51 48.8431L40.8284 38.6716C39.2663 37.1095 36.7337 37.1095 35.1716 38.6716C33.6095 40.2337 33.6095 42.7663 35.1716 44.3284L47.4645 56.6213C49.4171 58.5739 52.5829 58.5739 54.5355 56.6213L78.3284 32.8284Z" fill="#410A0A"/>
</svg>
