<svg width="12" height="18" viewBox="0 0 12 18" fill="none" xmlns="http://www.w3.org/2000/svg">
<path d="M11.9734 11.6129C11.9734 15.1404 9.24636 18 5.95662 18C2.66687 18 0 15.1404 0 11.6129C0 6.25806 5.53544 5.35484 4.03125 0C10.048 3.16129 12.2742 8.19355 11.9734 11.6129Z" fill="#E55936"/>
<mask id="mask0_957_1894" style="mask-type:alpha" maskUnits="userSpaceOnUse" x="0" y="0" width="12" height="18">
<path d="M11.9734 11.6553C11.9734 15.1592 9.24636 17.9997 5.95662 17.9997C2.66687 17.9997 0 15.1592 0 11.6553C0 6.33632 5.53544 5.43914 4.03125 0.120117C10.048 3.26026 12.2742 8.25886 11.9734 11.6553Z" fill="#E55936"/>
</mask>
<g mask="url(#mask0_957_1894)">
<path fill-rule="evenodd" clip-rule="evenodd" d="M6.57109 18.2437C7.79223 18.2375 8.93549 17.723 9.61736 16.3068C9.79787 15.9319 12.0842 10.7459 5.58607 6.62207C6.54001 8.7399 6.0733 10.7083 5.45415 12.3947C4.96874 11.1941 4.23418 10.0485 3.17963 9.55863C3.83825 10.9265 3.31862 11.9211 2.79427 12.9247C2.40846 13.6631 2.0201 14.4065 2.09665 15.307C2.2613 17.2439 3.72715 18.0754 5.88712 18.2436C6.17518 18.2661 6.39946 18.2649 6.57109 18.2437Z" fill="#F6B95B"/>
</g>
</svg>
