<svg width="90" height="29" viewBox="0 0 90 29" fill="none" xmlns="http://www.w3.org/2000/svg">
<g clip-path="url(#clip0_399_3749)">
<path d="M6.72437 15.226L5.55473 18.2502C5.39211 18.7118 5.24512 19.1924 5.1169 19.689C4.98555 20.1856 4.84794 20.6186 4.70408 20.991C4.56022 21.3635 4.33505 21.6563 4.03482 21.8728C3.73459 22.0861 3.39683 22.2484 3.02467 22.3567C2.64939 22.4649 2.26472 22.5095 1.86754 22.4935C1.47036 22.4776 1.11696 22.4012 0.807353 22.2707C0.109946 21.9396 -0.133991 21.3953 0.0755444 20.6345C0.82299 17.2952 1.52353 14.618 2.1834 12.5998C2.84016 10.5848 3.38432 8.99629 3.8159 7.84074C4.24748 6.6852 4.69783 5.45962 5.16693 4.17038C5.21697 3.6897 5.41087 3.26314 5.75176 2.88114C6.09264 2.50232 6.49607 2.18717 6.95893 1.93888C7.42178 1.69058 7.9034 1.51231 8.40691 1.40726C8.91042 1.29903 9.35763 1.2863 9.74543 1.36906C10.1364 1.45183 10.4241 1.63328 10.6117 1.91341C10.7994 2.19354 10.8119 2.60101 10.6492 3.12944C10.0644 4.65106 9.65161 5.72384 9.40767 6.35413C9.16374 6.98125 8.94482 7.54469 8.75092 8.04129L8.06915 9.67752C8.41004 9.69343 8.84162 9.64568 9.36076 9.5279C10.3021 9.31462 10.9839 9.23822 11.4061 9.30507C11.4061 9.2223 11.4467 9.08223 11.528 8.88487C11.9815 6.86983 12.4944 5.01714 13.0636 3.32999C13.4702 1.94206 14.5178 1.21308 16.2066 1.14941C16.8728 1.14941 17.3763 1.31495 17.7171 1.64601C18.0893 1.99299 18.1393 2.46412 17.8641 3.0594C16.3692 7.32505 15.3153 10.6866 14.6961 13.1505C13.9987 15.9932 13.539 17.9096 13.32 18.9028C13.1011 19.896 12.9103 20.4817 12.7477 20.6631C12.5851 20.8446 12.4193 20.9719 12.2473 21.0483C12.0753 21.1215 11.9096 21.1916 11.747 21.2584C11.5843 21.3253 11.3811 21.4908 11.2841 21.755C11.1528 22.0542 10.8713 22.2834 10.4303 22.449C9.99249 22.6145 9.54841 22.675 9.10432 22.6336C8.6571 22.5922 8.28494 22.4267 7.98471 22.137C7.68448 21.8473 7.6063 21.4048 7.75328 20.8096C7.91591 19.8673 8.18486 18.855 8.55702 17.7727C8.92918 16.6904 9.22628 15.8436 9.4452 15.2324C9.66412 14.6212 9.84863 14.0514 9.99249 13.523C10.0269 13.4975 9.73605 13.6376 9.61408 13.6726C9.48899 13.7076 9.33574 13.7713 9.15123 13.8668C8.97922 13.9559 8.79783 14.0323 8.61332 14.096C8.4288 14.1596 8.24428 14.2297 8.06602 14.2933C7.61255 14.4748 7.23726 14.6562 6.94642 14.8377L6.7275 15.2356L6.72437 15.226Z" fill="#BF2518"/>
<path d="M18.1983 7.25798C18.1952 7.23888 18.2077 7.21978 18.2234 7.2166C19.1491 7.0256 19.0896 9.57225 20.0247 9.99882C20.0998 10.0402 20.2937 10.0688 20.3906 10.0434C23.1365 9.57862 17.9825 1.91001 22.9613 0.693986C23.002 0.684436 23.0333 0.738553 23.002 0.767203C22.5704 1.13965 21.3195 2.44481 23.4586 5.07104C25.4257 7.48718 24.4625 8.00288 25.1724 8.20343C25.726 8.35941 26.5516 6.12472 24.5375 2.83636C24.5031 2.77906 24.5626 2.70902 24.622 2.74086C27.3741 4.18608 27.7588 7.56676 27.8244 9.73778C27.8526 10.6259 27.9214 11.5141 28.0527 12.3927C28.2341 13.6151 28.1184 14.9234 27.7118 16.3209C27.1771 18.2213 26.267 19.7429 24.9848 20.8826C24.3999 21.411 23.7838 21.7452 23.1334 21.8853C22.4829 22.0254 21.898 22.105 21.3789 22.1209C20.8597 22.1368 20.3844 22.14 19.9528 22.1336C19.5212 22.1241 19.1053 22.0795 18.6987 21.9967C17.823 21.8153 17.1006 21.3919 16.5314 20.733C15.8653 19.9881 15.5807 18.8325 15.6777 17.2631C15.7433 15.8752 16.0873 14.4746 16.7128 13.0612C17.3352 11.6541 18.6237 9.34942 18.1983 7.25798ZM23.7088 15.1335C23.5118 13.5769 22.3108 12.676 21.8886 12.5773C21.8636 12.5709 21.8417 12.5996 21.8511 12.6282C22.3953 14.0607 22.1169 15.3404 21.6885 15.8561C21.4977 16.0853 21.1318 15.993 21.0536 15.7033C20.9066 14.9712 20.744 14.7197 20.6533 14.621C20.6283 14.5923 20.5814 14.6114 20.5814 14.6528C20.5564 15.4869 20.0654 16.3973 19.8809 16.7952C19.4055 17.8425 19.7745 18.9312 20.5157 19.1795C21.1349 19.3864 21.6447 19.2304 21.9543 19.1286C22.2639 19.0299 22.5517 18.8389 22.8206 18.5588C23.0896 18.2786 23.296 17.9476 23.443 17.5656C23.7338 16.8557 23.8245 16.0439 23.7119 15.1367L23.7088 15.1335Z" fill="#BF2518"/>
<path d="M66.8761 7.25798C66.8729 7.23888 66.8854 7.21978 66.9011 7.2166C67.8268 7.0256 67.7674 9.57225 68.7025 9.99882C68.7775 10.0402 68.9714 10.0688 69.0684 10.0434C71.8142 9.57862 66.6603 1.91001 71.6391 0.693986C71.6797 0.684436 71.711 0.738553 71.6797 0.767203C71.2482 1.13965 69.9972 2.44481 72.1363 5.07104C74.1035 7.48718 73.1402 8.00288 73.8501 8.20343C74.4037 8.35941 75.2293 6.12472 73.2153 2.83636C73.1809 2.77906 73.2403 2.70902 73.2997 2.74086C76.0518 4.18608 76.4365 7.56676 76.5022 9.73778C76.5303 10.6259 76.5991 11.5141 76.7305 12.3927C76.9119 13.6151 76.7961 14.9234 76.3896 16.3209C75.8548 18.2213 74.9447 19.7429 73.6625 20.8826C73.0777 21.411 72.4616 21.7452 71.8111 21.8853C71.1606 22.0254 70.5758 22.105 70.0566 22.1209C69.5375 22.1368 69.0621 22.14 68.6305 22.1336C68.199 22.1241 67.783 22.0795 67.3764 21.9967C66.5008 21.8153 65.7784 21.3919 65.2092 20.733C64.543 19.9881 64.2584 18.8325 64.3554 17.2631C64.4211 15.8752 64.7651 14.4746 65.3906 13.0612C66.0129 11.6541 67.3014 9.34942 66.8761 7.25798ZM72.3865 15.1335C72.1895 13.5769 70.9886 12.676 70.5664 12.5773C70.5414 12.5709 70.5195 12.5996 70.5289 12.6282C71.073 14.0607 70.7947 15.3404 70.3662 15.8561C70.1755 16.0853 69.8096 15.993 69.7314 15.7033C69.5844 14.9712 69.4218 14.7197 69.3311 14.621C69.306 14.5923 69.2591 14.6114 69.2591 14.6528C69.2341 15.4869 68.7431 16.3973 68.5586 16.7952C68.0832 17.8425 68.4523 18.9312 69.1935 19.1795C69.8127 19.3864 70.3225 19.2304 70.6321 19.1286C70.9417 19.0299 71.2294 18.8389 71.4983 18.5588C71.7673 18.2786 71.9737 17.9476 72.1207 17.5656C72.4115 16.8557 72.5022 16.0439 72.3897 15.1367L72.3865 15.1335Z" fill="#BF2518"/>
<path d="M35.3862 1.95779L35.4488 1.86229L35.6364 1.62354C35.821 1.18106 36.0211 0.916847 36.2369 0.830897C36.3526 0.795881 36.5027 0.754498 36.6872 0.703565C36.8718 0.652632 37.1126 0.525299 37.4159 0.321567C37.5316 0.0828184 37.7756 -0.0222309 38.1446 0.00323558C38.5136 0.0287021 38.8764 0.146485 39.2361 0.359767C39.5957 0.573049 39.8897 0.865914 40.1149 1.24155C40.34 1.61718 40.3963 2.00236 40.2775 2.40346C40.1618 2.80455 40.0648 3.1006 39.9898 3.29797C39.9147 3.49533 39.8397 3.67678 39.7646 3.8455C39.6895 4.0174 39.5957 4.2084 39.4894 4.41849C39.3799 4.63178 39.2423 4.91509 39.0766 5.27481L38.2478 7.03518C38.1634 7.25801 38.0946 7.38534 38.0351 7.41718C37.9757 7.45219 37.9226 7.50949 37.8725 7.59544C38.0226 7.56043 38.1477 7.53496 38.2478 7.51904C38.3479 7.50313 38.448 7.48403 38.548 7.46811C38.7826 7.43309 39.0484 7.40126 39.3518 7.36624C39.5363 7.40126 39.6927 7.41718 39.8271 7.41718H40.1774C40.3776 7.41718 40.6215 7.47129 40.9061 7.58271C41.1907 7.69412 41.3752 7.88512 41.4565 8.15571C41.5409 8.42947 41.5472 8.70324 41.4815 8.98655C41.4159 9.26987 41.2814 9.52771 41.0812 9.76646C40.8811 10.0052 40.6215 10.1325 40.3025 10.1485C38.8483 10.5559 37.81 10.7788 37.1908 10.8138L37.0406 10.992V11.0175C36.8718 11.425 36.6935 11.9407 36.5027 12.5614C36.3088 13.1822 36.1024 13.8538 35.8741 14.5796C35.6489 15.3022 35.4175 16.0535 35.183 16.8271C34.9484 17.6006 34.7076 18.3455 34.4543 19.0617C33.6505 21.462 33.0657 22.7639 32.6998 22.9677C32.5653 23.0345 32.4277 23.0823 32.287 23.1077C32.1431 23.1332 32.065 23.1555 32.0493 23.1714C31.4645 23.1364 30.9798 23.0186 30.5951 22.8149C30.2104 22.6111 29.9508 22.4138 29.8164 22.2291C29.6819 22.0413 29.6475 21.828 29.7163 21.5893C30.0353 18.6288 30.6701 15.385 31.624 11.8611C31.2894 11.8611 31.0548 11.8961 30.9203 11.963C30.6701 12.0998 30.3699 12.1762 30.0165 12.1921H29.9915C29.7225 12.1762 29.4817 12.0489 29.2628 11.8102C29.0439 11.5714 28.9126 11.3008 28.8625 10.992C28.8125 10.6833 28.8625 10.3713 29.0126 10.0466C29.1627 9.7219 29.463 9.46723 29.9164 9.27942C30.4512 9.12662 30.8453 8.99928 31.0955 8.89742C31.5802 8.69369 31.9868 8.54725 32.312 8.46449C32.6373 8.37854 32.8218 8.32442 32.8656 8.29895C32.9062 8.27349 32.9375 8.25121 32.9531 8.23529C33.0032 8.20027 33.1283 8.18435 33.3284 8.18435C33.4285 7.69094 33.5286 7.18798 33.6287 6.67865C33.7287 6.16932 33.8538 5.65044 34.0039 5.12201C34.3386 3.89643 34.7983 2.83957 35.3831 1.95461L35.3862 1.95779Z" fill="#BF2518"/>
<path d="M46.9576 21.3312C46.3227 21.8596 45.5721 22.2607 44.7027 22.5344C43.8333 22.8082 42.9608 22.9515 42.0851 22.9674C41.2094 22.9833 40.3869 22.8751 39.6238 22.6459C38.8608 22.4135 38.2603 22.0506 37.8225 21.554C37.3033 20.9905 37.1251 20.4303 37.2877 19.8668C37.369 19.6344 37.5097 19.453 37.713 19.3225C37.9163 19.192 38.1633 19.1569 38.4573 19.2238C38.6512 19.2397 38.7951 19.1856 38.8826 19.0614C38.9702 18.9373 39.0484 18.7972 39.1141 18.6413C39.1797 18.4853 39.2517 18.3357 39.333 18.1956C39.4143 18.0555 39.5425 17.9855 39.7239 17.9855C42.5823 18.0683 44.0679 17.8104 44.1804 17.2151C43.9865 17.0337 43.7457 16.8777 43.4611 16.744C43.1766 16.6103 42.8888 16.4798 42.598 16.3461C41.8818 16.015 41.4033 15.6521 41.1594 15.2542C40.8498 15.0887 40.6152 14.6908 40.4526 14.0636C40.3713 13.7835 40.3306 13.4938 40.3306 13.1946C40.3306 12.8954 40.3807 12.6248 40.4776 12.3765C40.4276 11.7335 40.8185 11.0204 41.6473 10.2437C41.8756 10.0304 42.1601 9.798 42.501 9.5497C42.8419 9.3014 43.3548 9.06265 44.0366 8.83027C44.7184 8.59789 45.397 8.42917 46.0694 8.32094C46.7418 8.21271 47.3516 8.17769 47.8958 8.20953C48.4399 8.24136 48.8309 8.37506 49.0654 8.60744C49.3 8.83982 49.4876 9.1295 49.6252 9.47649C49.7628 9.82347 49.8066 10.1641 49.7597 10.492C49.6284 11.2369 49.0279 11.7494 47.9583 12.0295C46.6104 12.2269 45.9599 12.4115 46.01 12.5739C46.01 12.6057 45.7535 12.628 45.8411 12.698C47.092 13.5734 47.9615 14.4329 48.4462 15.2765C49.1123 16.4352 49.2093 17.7245 48.737 19.1442C48.5901 19.6185 48.4118 20.1852 47.5205 20.8791C47.311 21.0447 47.1233 21.1943 46.9607 21.3248L46.9576 21.3312Z" fill="#BF2518"/>
<path d="M55.302 10.728C56.1151 9.4897 57.241 8.74481 58.689 8.49651C59.1612 8.41374 59.7398 8.35644 60.4309 8.32143C61.1221 8.28959 61.7132 8.44558 62.2104 8.79256C62.7045 9.13954 63.0736 9.5852 63.3175 10.1327C63.7397 11.1068 63.8054 12.3069 63.5114 13.7267C63.3488 14.5034 63.1549 15.3597 62.9266 16.2924C62.6983 17.2252 62.3574 18.1483 61.9039 19.0556C61.4473 19.966 60.8563 20.8159 60.1244 21.6086C59.3926 22.4012 58.445 23.0283 57.2754 23.4931C56.578 23.7732 55.965 23.8783 55.4365 23.8019C54.908 23.7287 54.5139 23.6173 54.2543 23.4676C53.9948 23.318 53.8165 23.1047 53.7196 22.8246C53.3943 23.7669 53.091 24.7219 52.8064 25.6896C52.5218 26.6573 52.1434 27.5773 51.6742 28.4527C51.4178 28.6246 51.1113 28.7583 50.7642 28.8634C50.3357 28.9907 49.8823 29.0384 49.4444 28.9557C48.8064 28.8347 48.3592 28.5227 48.109 28.0198C47.9057 27.6155 47.8057 27.173 47.8057 26.6923C47.8057 26.0493 47.9589 25.263 48.2685 24.3367C48.722 22.9647 49.0941 21.9078 49.3756 21.1629C49.6602 20.418 49.8416 19.9342 49.9229 19.7113C50.0042 19.4885 50.0855 19.2529 50.1668 19.0046C50.5234 18.0465 50.7892 17.2665 50.9581 16.6617C51.127 16.0569 51.2864 15.5348 51.4334 15.086V15.0605C51.5961 14.3347 51.8525 13.5612 52.1996 12.7431C52.5499 11.9249 52.7876 11.4252 52.9189 11.2437C53.1942 10.9636 53.4787 10.7885 53.7727 10.7216C54.0636 10.6548 54.3982 10.6134 54.7704 10.5975H54.8423L55.3051 10.7216L55.302 10.728ZM57.1753 14.7358C56.9814 15.0828 56.6562 15.4043 56.1996 15.7035L55.9807 16.2256C55.818 16.6553 55.6648 17.0946 55.5178 17.5403C55.3708 17.986 55.2082 18.4253 55.0299 18.855C55.1926 19.0205 55.3145 19.1765 55.3958 19.3261C56.3059 18.5176 57.1347 17.4512 57.8821 16.1269C58.173 15.5826 58.3637 15.035 58.4544 14.4907C58.5451 13.9463 58.5639 13.5994 58.5138 13.4497C58.4638 13.3001 58.3887 13.2269 58.2824 13.2269C58.1761 13.2269 58.0698 13.2556 57.9666 13.3129C57.8602 13.3702 57.7789 13.4275 57.7226 13.4879C57.6663 13.5452 57.7226 13.4879 57.6163 13.6057C57.438 13.8222 57.4255 13.9018 57.3442 14.0578C57.2629 14.2137 57.2066 14.4429 57.1753 14.739V14.7358Z" fill="#BF2518"/>
<path d="M83.8612 1.95779L83.9269 1.86547L84.1114 1.62354C84.296 1.18106 84.4961 0.916847 84.7119 0.830897C84.8276 0.795881 84.9777 0.754498 85.1622 0.703565C85.3468 0.652632 85.5876 0.525299 85.8909 0.321567C86.0066 0.0828184 86.2506 -0.0222309 86.6196 0.00323558C86.9886 0.0287021 87.3514 0.146485 87.7111 0.359767C88.0707 0.573049 88.3616 0.865914 88.5899 1.24155C88.815 1.61718 88.8713 2.00236 88.7525 2.40346C88.6336 2.80455 88.5398 3.1006 88.4648 3.29797C88.3897 3.49533 88.3147 3.67678 88.2396 3.8455C88.1645 4.0174 88.0707 4.2084 87.9644 4.41849C87.8549 4.63178 87.7173 4.91509 87.5516 5.27481L86.7228 7.03518C86.6384 7.25801 86.5696 7.38534 86.5101 7.41718C86.4507 7.45219 86.3976 7.50949 86.3475 7.59544C86.4976 7.56043 86.6227 7.53496 86.7228 7.51904C86.8229 7.50313 86.923 7.48403 87.023 7.46811C87.2576 7.43309 87.5234 7.40126 87.8268 7.36624C88.0113 7.40126 88.1708 7.41718 88.3021 7.41718H88.6524C88.8526 7.41718 89.0965 7.47129 89.3811 7.58271C89.6657 7.69412 89.8502 7.88512 89.9315 8.15571C90.016 8.42947 90.0222 8.70324 89.9565 8.98655C89.8909 9.26668 89.7564 9.52771 89.5562 9.76646C89.3561 10.0052 89.0965 10.1325 88.7775 10.1485C87.3233 10.5559 86.285 10.7788 85.6658 10.8138L85.5156 10.992V11.0175C85.3468 11.425 85.1685 11.9407 84.9777 12.5614C84.7838 13.1822 84.5774 13.8538 84.3491 14.5796C84.1239 15.3022 83.8925 16.0535 83.658 16.8271C83.4234 17.6006 83.1826 18.3455 82.9293 19.0617C82.1256 21.462 81.5407 22.7639 81.1717 22.9677C81.0372 23.0345 80.8996 23.0823 80.7589 23.1077C80.6651 23.1237 80.5994 23.1396 80.5619 23.1523C80.5243 23.165 80.4837 23.1682 80.443 23.1682C79.8926 23.1268 79.4329 23.0122 79.0638 22.8149C78.6792 22.6111 78.4196 22.4138 78.2851 22.2291C78.1506 22.0413 78.1162 21.828 78.185 21.5893C78.504 18.6288 79.1389 15.385 80.0927 11.8611C79.7581 11.8611 79.5236 11.8961 79.3891 11.963C79.1389 12.0998 78.8355 12.1762 78.4853 12.1921H78.4603C78.1913 12.1762 77.9505 12.0489 77.7316 11.8102C77.5158 11.5714 77.3813 11.3008 77.3313 10.992C77.2812 10.6864 77.3313 10.3713 77.4814 10.0466C77.6315 9.7219 77.9317 9.46723 78.3852 9.27942C78.92 9.12662 79.314 8.99928 79.5642 8.89742C80.049 8.69369 80.4555 8.54725 80.7808 8.46449C81.106 8.37854 81.2905 8.32442 81.3343 8.29895C81.375 8.27349 81.4063 8.25121 81.4219 8.23529C81.4719 8.20027 81.597 8.18435 81.7972 8.18435C81.8972 7.69094 81.9973 7.18798 82.0974 6.67865C82.1975 6.16932 82.3226 5.65044 82.4727 5.12201C82.8073 3.89643 83.267 2.83957 83.8519 1.95461L83.8612 1.95779Z" fill="#BF2518"/>
</g>
<defs>
<clipPath id="clip0_399_3749">
<rect width="90" height="29" fill="white"/>
</clipPath>
</defs>
</svg>
