<svg width="304" height="428" viewBox="0 0 304 428" fill="none" xmlns="http://www.w3.org/2000/svg">
<g filter="url(#filter0_d_523_3281)">
<rect x="11" y="11" width="276" height="400" rx="6" fill="white" shape-rendering="crispEdges"/>
<rect x="8" y="8" width="282" height="406" rx="9" stroke="#3A7C45" stroke-width="6" shape-rendering="crispEdges"/>
<path d="M110.465 70.4531C110.465 71.1425 110.19 71.7054 109.639 72.142C109.134 72.5786 108.537 72.7969 107.848 72.7969C107.113 72.7969 106.493 72.5786 105.988 72.142C105.46 71.7054 105.196 71.1425 105.196 70.4531C105.196 69.7638 105.46 69.1893 105.988 68.7298C106.493 68.3162 107.113 68.1094 107.848 68.1094C108.514 68.1094 109.111 68.3162 109.639 68.7298C110.19 69.1893 110.465 69.7638 110.465 70.4531Z" fill="#410A0A"/>
<path d="M98.7219 70.4531C98.7219 71.1425 98.4464 71.7054 97.8955 72.142C97.3904 72.5786 96.7935 72.7969 96.1047 72.7969C95.3701 72.7969 94.7502 72.5786 94.2452 72.142C93.7171 71.7054 93.4531 71.1425 93.4531 70.4531C93.4531 69.7638 93.7171 69.1893 94.2452 68.7298C94.7502 68.3162 95.3701 68.1094 96.1047 68.1094C96.7705 68.1094 97.3674 68.3162 97.8955 68.7298C98.4464 69.1893 98.7219 69.7638 98.7219 70.4531Z" fill="#410A0A"/>
<path d="M86.9788 70.4531C86.9788 71.1425 86.7033 71.7054 86.1523 72.142C85.6472 72.5786 85.0503 72.7969 84.3616 72.7969C83.6269 72.7969 83.0071 72.5786 82.502 72.142C81.974 71.7054 81.71 71.1425 81.71 70.4531C81.71 69.7638 81.974 69.1893 82.502 68.7298C83.0071 68.3162 83.6269 68.1094 84.3616 68.1094C85.0274 68.1094 85.6243 68.3162 86.1523 68.7298C86.7033 69.1893 86.9788 69.7638 86.9788 70.4531Z" fill="#410A0A"/>
<path d="M61.9437 46.7056C59.4413 46.7056 57.5014 47.4179 56.1239 48.8425C54.9301 50.1063 54.3332 51.7148 54.3332 53.6679C54.3332 55.2534 55.1712 56.7699 56.8471 58.2175C58.5689 59.7111 60.4285 60.4579 62.4258 60.4579C64.4232 60.4579 66.0761 59.7915 67.3847 58.4588C68.6704 57.149 69.3247 55.5061 69.3476 53.53C69.3247 52.0135 68.6244 50.5314 67.247 49.0838C65.7318 47.4983 63.964 46.7056 61.9437 46.7056ZM61.8404 49.5663C62.8965 49.5663 63.964 50.0718 65.043 51.0829C66.0532 52.002 66.5582 52.8177 66.5582 53.53C66.5582 54.541 66.1565 55.4257 65.353 56.184C64.5035 56.9882 63.5049 57.3903 62.357 57.3903C61.1632 57.3903 60.0153 56.9308 58.9133 56.0116C57.7654 55.0466 57.2144 54.0011 57.2603 52.8751C57.2603 52.0939 57.7769 51.3471 58.81 50.6348C59.8201 49.9225 60.8303 49.5663 61.8404 49.5663ZM64.8364 67.9717C66.2139 67.8108 67.3732 67.6155 68.3145 67.3857C68.8425 67.2478 69.428 67.0525 70.0708 66.7998C70.5529 66.616 70.9202 66.5011 71.1728 66.4551C71.586 66.3862 72.1485 66.4206 72.8602 66.5585C74.0999 66.7653 74.9723 67.1789 75.4773 67.7993C75.8447 68.2819 75.9595 68.8218 75.8217 69.4193C75.661 70.0626 75.4199 70.4418 75.0985 70.5567C74.823 70.6486 74.1687 70.6256 73.1356 70.4877C71.9878 70.3499 70.9891 70.258 70.1397 70.212C68.6474 70.1201 67.0518 70.1201 65.353 70.212C62.2077 70.4188 59.5332 70.7175 57.3292 71.1081C56.0895 71.3149 54.7809 71.6022 53.4034 71.9698C52.3933 72.2685 51.6701 72.3834 51.2339 72.3145C50.6829 72.2226 49.7187 71.8319 48.3412 71.1426C46.6653 70.2694 45.8388 69.5456 45.8618 68.9712C45.8618 68.4427 46.3898 68.2474 47.4459 68.3853C49.2136 68.4772 51.3946 68.5116 53.9888 68.4887C57.0652 68.4427 59.8546 68.3278 62.357 68.144L62.3225 67.9717C62.1848 67.1904 62.0241 66.524 61.8404 65.9726C61.496 64.9615 61.0369 64.1343 60.4629 63.491C59.6135 62.6408 59.4528 62.0433 59.9808 61.6987C60.5089 61.354 61.519 61.4344 63.0113 61.9399C64.3658 62.6063 65.1693 63.1463 65.4218 63.5599C65.6055 63.8816 65.5711 64.5135 65.3185 65.4556C65.2037 65.8921 65.1119 66.2483 65.043 66.524C64.9282 66.9836 64.8479 67.4546 64.802 67.9372L64.8364 67.9717Z" fill="#410A0A"/>
<path d="M178.162 104.188C179.867 103.647 181.795 103.412 183.969 103.624C186.743 98.5294 186.097 85.9883 186.073 85.5294C186.073 85.5294 197.522 106.118 203.916 105.718C210.17 105.329 202.541 88.6118 202.188 87.8706C202.929 88.7059 226.614 115.718 234.219 156.306C235.218 155.588 236.499 154.812 237.981 154.212C241.107 152.941 245.162 152.459 249.5 154.965C259.009 160.447 258.809 173.271 257.458 180.059C256.094 186.859 248.336 196.176 240.778 195.788C233.208 195.4 229.529 190.941 229.529 190.941C223.734 204.082 216.364 214.518 207.678 222.059C198.921 229.659 188.847 234.306 177.739 235.776C155.629 238.694 132.344 235 111.586 218.694C108.036 215.906 105.085 212.788 102.617 209.459C92.9902 196.447 90.8979 180.188 90.51 167.624H90.4983C94.342 164.682 94.8004 162.718 94.0833 162.341C93.7425 162.165 92.4142 162.353 90.4277 162.541C90.4277 161.4 90.4395 160.318 90.4512 159.282C90.557 148.706 97.5626 119.518 113.525 98.7177C115.817 95.7412 118.262 92.8824 120.966 90.2353H120.977L121.013 90.2C122.071 89.7059 139.173 81.6235 141.254 80.8706C140.854 81.2353 126.572 94.2941 129.828 97.353C133.061 100.412 158.392 85.4706 159.285 84.953C158.803 85.6706 149.341 99.7294 153.69 103.541C158.145 107.447 173.86 86.8706 173.86 86.8706C173.86 86.8706 174.26 99.7059 178.162 104.188ZM150.963 154.976C150.963 154.976 137.198 188.8 146.308 190.635C155.324 192.459 151.069 155.824 150.963 154.976ZM169.946 131.8C170.522 129.153 169.746 126.741 168.207 126.412C166.678 126.071 164.962 127.953 164.398 130.6C163.822 133.235 164.598 135.659 166.138 135.988C167.666 136.318 169.382 134.447 169.946 131.8ZM152.079 130.588C152.644 127.941 151.868 125.529 150.34 125.188C148.8 124.859 147.096 126.741 146.52 129.376C145.944 132.024 146.731 134.447 148.259 134.776C149.799 135.106 151.504 133.235 152.079 130.588ZM150.328 219.694C150.328 217.776 148.13 216.235 145.415 216.235C142.699 216.235 140.513 217.776 140.513 219.694C140.513 221.612 142.711 223.141 145.415 223.141C148.118 223.141 150.328 221.6 150.328 219.694Z" fill="#FFD9B3"/>
<path d="M159.285 84.9529C158.392 85.4706 133.061 100.412 129.828 97.3529C126.573 94.2941 140.854 81.2353 141.254 80.8706C139.173 81.6235 122.071 89.7059 121.013 90.2C132.544 78.9294 148.824 71.4235 177.739 74.0588C193.478 75.4941 214.589 85.3176 227.778 113.859C234.548 128.518 237.91 141.494 237.981 154.212C236.5 154.812 235.218 155.588 234.219 156.306C226.614 115.718 202.929 88.7059 202.188 87.8706C202.541 88.6117 210.17 105.329 203.916 105.718C197.522 106.118 186.073 85.5294 186.073 85.5294C186.097 85.9882 186.743 98.5294 183.969 103.612C181.795 103.412 179.867 103.647 178.163 104.188C174.26 99.7059 173.86 86.8706 173.86 86.8706C173.86 86.8706 158.145 107.447 153.69 103.541C149.341 99.7294 158.803 85.6706 159.285 84.9529Z" fill="#492B2A"/>
<path d="M221.524 310.33C221.195 310.53 220.831 310.612 220.537 310.694C219.808 310.906 217.587 310.541 216.811 309.965H216.764C216.635 308.4 216.529 307.271 216.529 307.271C216.717 307.165 216.893 307.059 217.058 306.93C217.058 306.93 216.388 300.93 215.718 294.318H215.73L224.451 291.318C224.451 291.318 224.087 295.471 224.451 295.859C224.816 296.247 230.787 295.283 232.433 298C234.078 300.718 233.749 307.753 232.433 309.012C231.128 310.283 226.473 311 221.524 310.33Z" fill="#FFD9B3"/>
<path d="M56.4573 220.294C56.5161 220.271 56.5983 220.283 56.6571 220.33C57.8208 221.165 61.4647 222.294 62.1817 221.165C62.8752 220.059 63.122 216.824 63.1808 215.859C63.1808 215.718 63.3219 215.6 63.4747 215.635C66.1782 216.294 68.6466 220.941 69.3989 221.318C70.1511 221.694 72.7019 224.13 73.2778 224.812C73.8655 225.494 76.6513 228.012 78.8847 228.306C79.5076 228.388 80.1306 228.647 80.6948 228.988C81.5294 227.106 89.9925 220.518 92.3904 218.788C94.8118 217.047 98.5027 212.671 99.4666 211.318C100.442 209.953 102.617 209.459 102.617 209.459C105.085 212.788 108.036 215.906 111.585 218.694C132.344 235 155.629 238.694 177.739 235.777C188.847 234.306 198.92 229.659 207.677 222.059C207.677 222.059 224.874 221.93 226.426 222.059C227.977 222.188 231.656 222.483 230.975 230.153C230.305 237.812 228.847 242.965 229.235 247.624C229.623 252.283 228.847 263.247 228.647 266.259C228.459 269.271 229.141 272.953 228.941 276.353C228.753 279.753 227.484 285.577 228.459 289.941L224.451 291.318L215.729 294.318H215.717C216.387 300.93 217.057 306.93 217.057 306.93C216.893 307.059 216.717 307.165 216.528 307.271C213.613 308.906 209.311 307.235 207.125 307.518C204.798 307.8 195.194 311.2 190.728 308.965C186.273 306.741 183.628 307.459 182.288 307.612C179.726 307.906 175.506 307.706 168.712 309.741C161.929 311.788 156.593 310.624 153.678 307.318C150.774 304.024 145.732 305.283 143.499 306.059C141.265 306.835 127.889 310.718 121.776 310.518C115.664 310.33 114.689 304.8 111.103 303.53C107.518 302.271 94.8118 304.988 93.1662 303.53C91.5089 302.083 92.5785 297.13 93.1662 294.306C93.7422 291.494 93.4601 285.671 95.5876 279.941C97.7269 274.224 97.4331 270.824 98.3969 265.188C98.8789 262.435 100.501 256.188 102.053 250.518L101.747 250.435C101.312 250.341 99.5136 250.824 97.6682 251.412C95.8345 251.988 91.4148 254.612 89.1345 254.518C86.8541 254.412 86.7601 254.565 80.6478 256.788C74.5473 259.024 73.2778 256.118 72.8429 254.412C72.408 252.718 66.2957 243.541 65.2261 241.506C64.1682 239.471 60.6771 232.33 59.9013 230.294C59.1255 228.259 57.715 225.73 56.8922 224.13C56.3045 222.988 56.2575 221.365 56.281 220.518C56.281 220.4 56.3633 220.318 56.4573 220.294Z" fill="#FCD47C"/>
<path d="M138.444 339.024C136.693 338.812 135.071 338.647 133.848 338.647C129.335 338.647 122.576 339.447 120.683 339.447C120.002 339.447 117.698 339.4 114.888 339.271C109.881 339.035 103.275 338.529 101.406 337.553C98.5029 336.024 94.5769 337.776 92.2848 337.553C89.9927 337.341 86.9365 337.118 87.0071 335.082C87.0776 333.047 90.933 318.412 91.8734 314.118C92.8255 309.824 93.1664 303.529 93.1664 303.529C94.812 304.988 107.518 302.271 111.104 303.529C114.689 304.8 115.664 310.329 121.777 310.518C127.889 310.718 141.265 306.835 143.499 306.059C145.732 305.282 150.775 304.024 153.678 307.318C156.593 310.624 161.93 311.788 168.712 309.741C175.506 307.706 179.726 307.906 182.288 307.612C183.628 307.459 186.273 306.741 190.728 308.965C195.194 311.2 204.798 307.8 207.125 307.518C209.311 307.235 213.614 308.906 216.529 307.271C216.529 307.271 216.634 308.4 216.764 309.965C216.94 312.294 217.152 315.588 217.058 317.506C216.917 320.718 216.964 324.4 217.88 326.588C218.809 328.776 219.832 337.988 218.95 338.871C218.445 339.376 209.311 339.753 200.895 339.941C194.607 340.082 188.718 340.129 187.166 340.035C185.497 339.929 181.771 339.694 177.727 339.518C172.967 339.306 167.771 339.176 165.056 339.447C160.037 339.953 154.865 340.835 153.995 340.4C153.314 340.047 152.808 335.129 152.514 332.341C152.385 332.859 151.162 338.271 149.846 339.518C148.847 340.482 143.181 339.576 138.444 339.024Z" fill="#06A5AB"/>
<path d="M212.791 388.718C214.296 389.247 218.374 390.8 215.506 392.447C212.65 394.094 193.937 388.953 186.026 388.612C178.127 388.271 175.459 386.824 176.811 385.412C177.775 384.412 180.22 381.835 181.571 380.412C182.124 379.835 182.488 379.447 182.488 379.447C182.829 379.447 189.13 382.212 190.387 381.577C191.657 380.941 191.915 379.518 192.597 377.235C193.455 374.33 194.031 372.73 195.124 372.706C195.277 372.706 195.43 372.73 195.606 372.788C197.005 373.282 196.406 381.235 197.569 383.13C198.733 385.024 211.287 388.177 212.791 388.718Z" fill="#0778AA"/>
<path d="M200.895 339.941L196.558 364.376C196.558 364.376 193.561 365.612 188.224 365.518C182.888 365.412 180.678 364.141 180.678 364.141L177.739 339.518C181.783 339.694 185.509 339.929 187.178 340.035C188.73 340.129 194.619 340.082 200.907 339.941H200.895Z" fill="#FFD9B3"/>
<path d="M196.558 364.376L195.1 372.553L195.124 372.706C194.031 372.729 193.455 374.329 192.597 377.235C191.915 379.518 191.656 380.941 190.387 381.576C189.129 382.212 182.829 379.447 182.488 379.447L180.666 364.141C180.666 364.141 182.876 365.412 188.212 365.518C193.549 365.612 196.546 364.376 196.546 364.376H196.558Z" fill="white"/>
<path d="M168.207 126.412C169.746 126.741 170.522 129.153 169.946 131.8C169.382 134.447 167.666 136.317 166.138 135.988C164.598 135.659 163.822 133.235 164.398 130.6C164.962 127.953 166.679 126.07 168.207 126.412Z" fill="#232322"/>
<path d="M150.34 125.188C151.868 125.529 152.644 127.941 152.08 130.588C151.504 133.235 149.799 135.106 148.26 134.777C146.731 134.447 145.944 132.024 146.52 129.377C147.096 126.741 148.8 124.859 150.34 125.188Z" fill="#232322"/>
<path d="M150.963 154.977C151.069 155.824 155.324 192.459 146.308 190.635C137.199 188.8 150.963 154.977 150.963 154.977Z" fill="white"/>
<path d="M145.415 216.235C148.131 216.235 150.329 217.777 150.329 219.694C150.329 221.612 148.131 223.141 145.415 223.141C142.7 223.141 140.514 221.6 140.514 219.694C140.514 217.788 142.712 216.235 145.415 216.235Z" fill="#9E6363"/>
<path d="M138.444 339.023C138.374 339.329 135.506 351.27 133.202 361.953C125.55 364.859 117.533 362.435 117.134 362.306H117.122L114.889 339.271C117.698 339.4 120.002 339.447 120.684 339.447C122.576 339.447 129.335 338.647 133.848 338.647C135.071 338.647 136.693 338.812 138.444 339.023Z" fill="#FFD9B3"/>
<path d="M117.898 370.188C120.461 370.506 120.496 377.623 120.954 377.894C121.436 378.176 124.974 377.941 127.737 377.894C129.077 377.87 129.758 377.917 130.334 378.259C130.957 378.623 131.463 379.306 132.544 380.553C134.625 382.988 134.378 385.553 132.544 386.282C130.699 387.012 115.853 386.329 109.071 388.223C102.277 390.117 93.9428 390.117 93.6019 387.6C93.2611 385.07 101.607 384.541 104.51 383.47C107.425 382.4 114.008 380.376 114.501 379.588C115.465 378.035 114.16 371 117.311 370.223C117.522 370.176 117.722 370.165 117.898 370.188Z" fill="#0778AA"/>
<path d="M133.202 361.953C131.545 369.647 130.169 376.683 130.334 378.259C129.758 377.918 129.076 377.871 127.736 377.894C124.974 377.941 121.436 378.177 120.954 377.894C120.496 377.624 120.46 370.506 117.898 370.188L117.134 362.306C117.533 362.435 125.55 364.859 133.202 361.953Z" fill="white"/>
<path d="M94.0833 162.341C94.8003 162.718 94.3419 164.682 90.4982 167.612C89.934 168.047 89.2875 168.506 88.5587 168.988C84.4682 171.671 78.8379 173.094 72.7021 172.847C71.8205 172.8 70.9154 172.729 70.0221 172.624C68.8701 172.482 67.7182 172.294 66.5545 172.024C66.2371 171.965 65.9315 171.894 65.6142 171.812C65.1087 171.682 64.615 171.541 64.1331 171.377C63.0164 171.012 61.9586 170.553 60.9477 170.035C60.0896 169.6 59.2785 169.129 58.5028 168.624C53.5071 165.365 50.0984 160.918 49.1345 159.235C47.6064 156.565 47.2891 154.529 47.63 153.165C47.6652 153.035 47.7122 152.918 47.771 152.8C48.2294 151.929 49.4284 151.447 50.4393 150.977C50.8507 150.777 51.215 150.482 51.4971 150.118C51.9908 149.471 53.0252 148.412 54.5063 148.365H54.6708C57.6094 148.424 58.1971 151.235 60.9124 154.482C63.6277 157.729 71.2915 161.082 79.0024 162.341C83.5161 163.082 87.6301 162.812 90.4277 162.541C92.4142 162.353 93.7424 162.165 94.0833 162.341Z" fill="#BF2202"/>
<path d="M72.7021 172.835C72.0556 176.353 70.6215 182.353 68.9407 184.235C66.531 186.882 62.2289 187.141 62.2289 187.141C62.2289 187.141 61.1357 190.565 59.5489 195.435C58.7379 194.635 57.9503 193.953 57.2921 193.518C56.4105 192.941 55.2703 192.235 54.0479 191.612C55.858 187.729 57.0922 185.106 57.0922 185.106C57.0922 185.106 54.1301 181.988 54.1889 178.412C54.2124 176.165 56.6221 171.694 58.5028 168.624C59.2786 169.129 60.0896 169.6 60.9477 170.035C60.0779 172.047 59.02 174.412 58.3852 176.094C58.1384 176.729 60.6891 177.965 61.2533 177.612C61.6059 177.376 62.9459 174.176 64.1331 171.376C64.615 171.541 65.1087 171.682 65.6142 171.812C65.9315 171.894 66.2371 171.965 66.5545 172.024C65.4966 174.941 64.2154 178.4 64.3212 178.824C64.474 179.459 67.1893 180.306 67.4478 179.671C68.2236 177.753 69.211 174.824 70.0221 172.624C70.9154 172.729 71.8205 172.8 72.7021 172.835Z" fill="#CCCCCC"/>
<path d="M60.0195 207.118C59.4671 207.73 58.1506 208.965 56.5755 208.965C56.2111 208.965 55.8232 208.906 55.4353 208.741C53.0844 207.777 56.646 199.518 59.1732 196.588C59.1732 196.588 59.1732 196.581 59.1732 196.565C59.4436 196.259 59.7022 196.012 59.9372 195.835C62.4997 198.471 65.2032 202.188 65.2032 203.494C65.2032 204.212 64.3804 206.024 63.4048 207.918L60.0078 207.118H60.0195Z" fill="#FFD9B3"/>
<path d="M54.6353 217.306L52.5195 217.271C53.1308 217.271 53.6244 217.024 54.0594 216.412C55.3994 214.518 54.9292 213.306 55.893 212.753C56.8687 212.188 57.3271 211.777 57.0097 209.2L56.5748 208.965C58.1499 208.965 59.4664 207.729 60.0188 207.118L63.4158 207.918C61.9936 210.671 60.2422 213.612 60.2422 213.612L63.1808 215.859C63.122 216.824 62.8751 220.059 62.1816 221.165C61.4646 222.294 57.8208 221.165 56.6571 220.329C56.5983 220.282 56.516 220.271 56.4573 220.294C56.3867 220.071 55.6697 217.729 54.6353 217.306Z" fill="#FFD9B3"/>
<path d="M59.5487 195.435C59.4312 195.788 59.3019 196.176 59.1843 196.565C59.1843 196.565 59.1843 196.572 59.1843 196.588C56.6571 199.518 53.0955 207.776 55.4464 208.741C55.8343 208.906 56.2222 208.965 56.5866 208.965L57.0215 209.2C57.3389 211.776 56.8805 212.188 55.9048 212.753C54.941 213.306 55.4112 214.518 54.0712 216.412C53.6363 217.023 53.1426 217.27 52.5313 217.27C52.402 217.27 52.2727 217.259 52.1434 217.235C50.9092 217.059 49.2636 216.07 46.901 215.141C45.7843 214.694 44.891 214.141 44.174 213.529C42.4343 212.047 41.7408 210.27 41.3059 209.059C40.6829 207.353 41.8819 206.659 42.6812 204.576C43.4805 202.506 42.787 199.812 43.1513 198.682C43.5157 197.553 44.7147 197.953 45.2671 196.506C45.8078 195.047 45.1496 193.223 46.9363 190.823C48.1705 189.153 51.2971 190.188 54.0594 191.612C55.2819 192.235 56.422 192.941 57.3036 193.518C57.9619 193.953 58.7494 194.635 59.5605 195.435H59.5487Z" fill="#FFD9B3"/>
<path d="M54.5067 148.365C53.0256 148.412 51.9913 149.47 51.4976 150.118C51.2155 150.482 50.8511 150.776 50.4397 150.976C49.4288 151.447 48.2299 151.929 47.7714 152.8C47.7714 152.8 45.6204 149.647 48.6765 147.765C51.7327 145.87 53.0492 146.694 54.5067 148.365Z" fill="#3A7C45"/>
<path d="M52.1316 217.235C50.0511 223.012 48.2644 227.506 47.5239 228.188C45.5492 230.023 42.9867 228.459 42.9867 228.459C42.9867 228.459 40.0481 227.847 39.8601 225.165C39.7778 224.129 41.635 219.4 44.1622 213.529C44.8792 214.141 45.7725 214.694 46.8892 215.141C49.2518 216.07 50.8974 217.059 52.1316 217.235Z" fill="#CCCCCC"/>
<path d="M90.5098 167.624C90.8977 180.188 92.9899 196.447 102.617 209.459C105.085 212.788 108.036 215.906 111.585 218.694C132.344 235 155.629 238.694 177.739 235.776C188.847 234.306 198.92 229.659 207.677 222.059C216.364 214.518 223.734 204.082 229.529 190.941" stroke="#1D1D1B" stroke-width="0.4" stroke-linecap="round" stroke-linejoin="round"/>
<path d="M121.013 90.2C132.544 78.9294 148.824 71.4235 177.739 74.0588C193.478 75.4941 214.589 85.3176 227.778 113.859C234.548 128.518 237.91 141.494 237.981 154.212" stroke="#1D1D1B" stroke-width="0.4" stroke-linecap="round" stroke-linejoin="round"/>
<path d="M90.4277 162.541C90.4277 161.4 90.4395 160.318 90.4512 159.282C90.557 148.706 97.5626 119.518 113.525 98.7177C115.817 95.7412 118.262 92.8824 120.966 90.2354" stroke="#1D1D1B" stroke-width="0.4" stroke-linecap="round" stroke-linejoin="round"/>
<path d="M231.857 158.318C231.857 158.318 232.726 157.377 234.219 156.306C235.218 155.588 236.5 154.812 237.981 154.212C241.107 152.941 245.163 152.459 249.5 154.965C259.009 160.447 258.809 173.271 257.458 180.059C256.094 186.859 248.336 196.177 240.778 195.788C233.208 195.4 229.529 190.941 229.529 190.941" stroke="#1D1D1B" stroke-width="0.4" stroke-linecap="round" stroke-linejoin="round"/>
<path d="M166.291 118.129C166.291 118.129 169.171 107.012 178.163 104.188C179.867 103.647 181.795 103.412 183.97 103.624C184.945 103.694 185.968 103.871 187.049 104.153C202.154 108.024 202.177 124.059 202.177 124.153" stroke="#1D1D1B" stroke-width="0.4" stroke-linecap="round" stroke-linejoin="round"/>
<path d="M156.206 116.964C156.206 116.964 156.206 100.459 143.593 99.6821C130.993 98.9057 119.544 116.188 119.544 116.188" stroke="#1D1D1B" stroke-width="0.4" stroke-linecap="round" stroke-linejoin="round"/>
<path d="M202.188 87.8706C202.929 88.7059 226.614 115.718 234.219 156.306" stroke="#1D1D1B" stroke-width="0.4" stroke-linecap="round" stroke-linejoin="round"/>
<path d="M186.074 85.5293C186.097 85.9881 186.744 98.5293 183.97 103.612" stroke="#1D1D1B" stroke-width="0.4" stroke-linecap="round" stroke-linejoin="round"/>
<path d="M202.177 87.8469C202.177 87.8469 202.177 87.8469 202.177 87.8705C202.529 88.6116 210.158 105.329 203.905 105.718C197.51 106.118 186.062 85.5293 186.062 85.5293" stroke="#1D1D1B" stroke-width="0.4" stroke-linecap="round" stroke-linejoin="round"/>
<path d="M159.285 84.9531C158.803 85.6708 149.341 99.7296 153.69 103.541C158.145 107.447 173.86 86.8708 173.86 86.8708C173.86 86.8708 174.26 99.7061 178.162 104.188" stroke="#1D1D1B" stroke-width="0.4" stroke-linecap="round" stroke-linejoin="round"/>
<path d="M141.254 80.8706C140.855 81.2353 126.573 94.2941 129.829 97.353C133.061 100.412 158.392 85.4706 159.285 84.953L159.309 84.9294" stroke="#1D1D1B" stroke-width="0.4" stroke-linecap="round" stroke-linejoin="round"/>
<path d="M141.266 80.8589C139.185 81.6236 122.082 89.7059 121.025 90.2001C121.013 90.2118 121.001 90.2236 120.989 90.2236H120.978" stroke="#1D1D1B" stroke-width="0.4" stroke-linecap="round" stroke-linejoin="round"/>
<path d="M169.946 131.8C169.382 134.447 167.666 136.317 166.138 135.988C164.598 135.659 163.822 133.235 164.398 130.6C164.962 127.953 166.679 126.07 168.207 126.412C169.746 126.741 170.522 129.153 169.946 131.8Z" stroke="#1D1D1B" stroke-width="0.4" stroke-miterlimit="10"/>
<path d="M152.08 130.588C151.504 133.235 149.799 135.106 148.26 134.777C146.731 134.447 145.944 132.024 146.52 129.377C147.096 126.741 148.8 124.859 150.34 125.188C151.868 125.529 152.644 127.941 152.08 130.588Z" stroke="#1D1D1B" stroke-width="0.4" stroke-miterlimit="10"/>
<path d="M102.617 209.459C102.617 209.459 100.443 209.953 99.4672 211.318C98.5034 212.671 94.8125 217.047 92.3911 218.788C89.9932 220.518 81.53 227.106 80.6955 228.988C80.6719 229.024 80.6602 229.059 80.6484 229.083" stroke="#1D1D1B" stroke-width="0.4" stroke-linecap="round" stroke-linejoin="round"/>
<path d="M83.269 231.212C83.269 231.212 82.1524 229.859 80.6948 228.988C80.1306 228.647 79.5076 228.388 78.8847 228.306C76.6513 228.012 73.8655 225.494 73.2778 224.812C72.7019 224.129 70.1747 221.706 69.3989 221.318C68.6231 220.929 66.1782 216.294 63.4747 215.635C63.3219 215.6 63.1926 215.718 63.1808 215.859C63.122 216.823 62.8752 220.059 62.1817 221.165C61.4647 222.294 57.8208 221.165 56.6571 220.329C56.5983 220.282 56.5161 220.271 56.4573 220.294C56.3633 220.318 56.281 220.4 56.281 220.518C56.2575 221.365 56.3045 222.988 56.8922 224.129C57.715 225.729 59.1255 228.259 59.9013 230.294C60.6771 232.329 64.1682 239.471 65.2261 241.506C66.2957 243.541 72.408 252.718 72.8429 254.412C73.2778 256.118 74.5473 259.023 80.6478 256.788C86.7601 254.565 86.8541 254.412 89.1345 254.518C91.4148 254.612 95.8345 251.988 97.6682 251.412C99.5136 250.823 101.312 250.341 101.747 250.435" stroke="#1D1D1B" stroke-width="0.4" stroke-linecap="round" stroke-linejoin="round"/>
<path d="M105.191 239.271C105.191 239.271 103.675 244.576 102.053 250.518C100.501 256.188 98.8792 262.435 98.3973 265.188C97.4334 270.823 97.7273 274.223 95.588 279.941C93.4604 285.671 93.7425 291.494 93.1666 294.306C92.5788 297.129 91.5092 302.082 93.1666 303.529C94.8122 304.988 107.519 302.27 111.104 303.529C114.689 304.8 115.664 310.329 121.777 310.518C127.889 310.718 141.265 306.835 143.499 306.059C145.732 305.282 150.775 304.023 153.678 307.318C156.593 310.623 161.93 311.788 168.712 309.741C175.506 307.706 179.726 307.906 182.288 307.612C183.628 307.459 186.273 306.741 190.728 308.965C195.195 311.2 204.798 307.8 207.125 307.518C209.312 307.235 213.614 308.906 216.529 307.271C216.717 307.165 216.893 307.059 217.058 306.929C217.058 306.929 216.388 300.929 215.718 294.318C215.013 287.259 214.296 279.518 214.39 277.718C214.589 274.223 213.426 257.518 213.426 257.518" stroke="#1D1D1B" stroke-width="0.4" stroke-linecap="round" stroke-linejoin="round"/>
<path d="M207.678 222.059C207.678 222.059 224.874 221.93 226.426 222.059C227.978 222.188 231.657 222.483 230.975 230.153C230.305 237.812 228.847 242.965 229.235 247.624C229.623 252.283 228.847 263.247 228.648 266.259C228.459 269.271 229.141 272.953 228.941 276.353C228.753 279.753 227.484 285.577 228.459 289.941L224.451 291.318L215.729 294.318" stroke="#1D1D1B" stroke-width="0.4" stroke-linecap="round" stroke-linejoin="round"/>
<path d="M224.451 291.318C224.451 291.318 224.087 295.471 224.451 295.859C224.816 296.247 230.787 295.283 232.432 298C234.078 300.718 233.749 307.753 232.432 309.012C231.128 310.283 226.473 311 221.524 310.33" stroke="#1D1D1B" stroke-width="0.4" stroke-linecap="round" stroke-linejoin="round"/>
<path d="M225.686 303.764C225.686 303.764 223.406 300.812 221.795 302.753C220.197 304.694 221.995 306.188 222.242 308.235C222.383 309.459 222.007 310.023 221.525 310.329C221.196 310.529 220.832 310.612 220.538 310.694C219.809 310.906 217.587 310.541 216.812 309.964" stroke="#1D1D1B" stroke-width="0.4" stroke-linecap="round" stroke-linejoin="round"/>
<path d="M152.514 332.306C152.432 331.541 152.373 330.929 152.326 330.635C152.103 329.259 148.765 324.67 148.765 324.67" stroke="#1D1D1B" stroke-width="0.4" stroke-linecap="round" stroke-linejoin="round"/>
<path d="M216.529 307.271C216.529 307.271 216.635 308.4 216.764 309.965C216.94 312.294 217.152 315.588 217.058 317.506C216.917 320.718 216.964 324.4 217.881 326.588C218.809 328.776 219.832 337.988 218.95 338.871C218.445 339.376 209.312 339.753 200.896 339.941C194.607 340.082 188.718 340.129 187.167 340.035C185.497 339.929 181.771 339.694 177.728 339.518C172.967 339.306 167.772 339.176 165.057 339.447C160.037 339.953 154.866 340.835 153.996 340.4C153.314 340.047 152.809 335.129 152.515 332.341" stroke="#1D1D1B" stroke-width="0.4" stroke-linecap="round" stroke-linejoin="round"/>
<path d="M152.514 332.306V332.341C152.385 332.859 151.163 338.27 149.846 339.518C148.847 340.482 143.181 339.576 138.444 339.023C136.693 338.812 135.071 338.647 133.848 338.647C129.335 338.647 122.576 339.447 120.683 339.447C120.002 339.447 117.698 339.4 114.888 339.27C109.881 339.035 103.275 338.529 101.406 337.553C98.5029 336.023 94.5769 337.776 92.2848 337.553C89.9927 337.341 86.9365 337.118 87.0071 335.082C87.0776 333.047 90.933 318.412 91.8734 314.118C92.8255 309.823 93.1664 303.529 93.1664 303.529" stroke="#1D1D1B" stroke-width="0.4" stroke-linecap="round" stroke-linejoin="round"/>
<path d="M177.728 339.518L180.666 364.141L182.488 379.447M182.488 379.447C182.488 379.447 182.124 379.835 181.571 380.412C180.22 381.835 177.775 384.412 176.811 385.412C175.459 386.823 178.127 388.271 186.026 388.612C193.937 388.953 212.65 394.094 215.506 392.447C218.374 390.8 214.296 389.247 212.791 388.718C211.287 388.176 198.733 385.023 197.569 383.129C196.406 381.235 197.005 373.282 195.606 372.788C195.43 372.729 195.277 372.706 195.124 372.706C194.031 372.729 193.455 374.329 192.597 377.235C191.915 379.518 191.657 380.941 190.387 381.576C189.13 382.212 182.829 379.447 182.488 379.447Z" stroke="#1D1D1B" stroke-width="0.4" stroke-linecap="round" stroke-linejoin="round"/>
<path d="M200.895 339.941L196.558 364.377L195.101 372.553" stroke="#1D1D1B" stroke-width="0.4" stroke-linecap="round" stroke-linejoin="round"/>
<path d="M180.666 364.141C180.666 364.141 182.876 365.412 188.212 365.518C193.549 365.612 196.546 364.376 196.546 364.376" stroke="#1D1D1B" stroke-width="0.4" stroke-linecap="round" stroke-linejoin="round"/>
<path d="M117.122 362.306L114.889 339.271" stroke="#1D1D1B" stroke-width="0.4" stroke-linecap="round" stroke-linejoin="round"/>
<path d="M117.898 370.223V370.188L117.134 362.306" stroke="#1D1D1B" stroke-width="0.4" stroke-linecap="round" stroke-linejoin="round"/>
<path d="M138.444 339.012C138.374 339.329 135.506 351.271 133.202 361.953C131.544 369.647 130.169 376.682 130.334 378.259" stroke="#1D1D1B" stroke-width="0.4" stroke-linecap="round" stroke-linejoin="round"/>
<path d="M117.898 370.188C117.722 370.165 117.522 370.176 117.311 370.223C114.16 371 115.465 378.035 114.501 379.588C114.008 380.376 107.425 382.4 104.51 383.47C101.607 384.541 93.2611 385.07 93.6019 387.6C93.9428 390.117 102.277 390.117 109.071 388.223C115.853 386.329 130.699 387.012 132.544 386.282C134.378 385.553 134.625 382.988 132.544 380.553C131.463 379.306 130.957 378.623 130.334 378.259C129.758 377.917 129.077 377.87 127.737 377.894C124.974 377.941 121.436 378.176 120.954 377.894C120.496 377.623 120.461 370.506 117.898 370.188Z" stroke="#1D1D1B" stroke-width="0.4" stroke-linecap="round" stroke-linejoin="round"/>
<path d="M117.122 362.306H117.134C117.533 362.435 125.55 364.859 133.202 361.953" stroke="#1D1D1B" stroke-width="0.4" stroke-linecap="round" stroke-linejoin="round"/>
<path d="M150.963 154.977C150.963 154.977 137.199 188.8 146.308 190.635C155.324 192.459 151.069 155.824 150.963 154.977Z" stroke="#1D1D1B" stroke-width="0.4" stroke-linecap="round" stroke-linejoin="round"/>
<path d="M150.963 154.965V154.976" stroke="#1D1D1B" stroke-width="0.4" stroke-linecap="round" stroke-linejoin="round"/>
<path d="M150.329 219.694C150.329 221.6 148.131 223.141 145.415 223.141C142.7 223.141 140.514 221.6 140.514 219.694C140.514 217.788 142.712 216.235 145.415 216.235C148.119 216.235 150.329 217.777 150.329 219.694Z" stroke="#1D1D1B" stroke-width="0.4" stroke-linecap="round" stroke-linejoin="round"/>
<path d="M56.4574 220.306C56.3868 220.071 55.6698 217.729 54.6354 217.306C54.5649 217.271 54.4826 217.259 54.4121 217.247" stroke="#1D1D1B" stroke-width="0.4" stroke-linecap="round" stroke-linejoin="round"/>
<path d="M63.1808 215.859L60.2423 213.612C60.2423 213.612 61.9937 210.67 63.4159 207.918C64.3915 206.023 65.2144 204.212 65.2144 203.494C65.2144 202.188 62.5108 198.47 59.9484 195.835L59.5487 195.435C58.7377 194.635 57.9501 193.953 57.2919 193.518C56.4103 192.941 55.2701 192.235 54.0477 191.612C51.2854 190.188 48.1587 189.153 46.9245 190.823C45.1379 193.223 45.7961 195.047 45.2554 196.506C44.703 197.953 43.504 197.553 43.1396 198.682C42.7752 199.812 43.4687 202.506 42.6694 204.576C41.8701 206.659 40.6712 207.353 41.2942 209.059C41.7291 210.27 42.4226 212.047 44.1622 213.529C44.8793 214.141 45.7726 214.694 46.8893 215.141C49.2519 216.07 50.8975 217.059 52.1317 217.235C52.261 217.259 52.3903 217.27 52.5196 217.27C53.1308 217.27 53.6245 217.023 54.0594 216.412C55.3994 214.518 54.9293 213.306 55.8931 212.753C56.8687 212.188 57.3272 211.776 57.0098 209.2" stroke="#1D1D1B" stroke-width="0.4" stroke-linecap="round" stroke-linejoin="round"/>
<path d="M59.1846 196.565C59.4549 196.259 59.7135 196.012 59.9486 195.835" stroke="#1D1D1B" stroke-width="0.4" stroke-linecap="round" stroke-linejoin="round"/>
<path d="M60.3134 206.777C60.3134 206.777 60.2076 206.918 60.0195 207.118C59.4671 207.73 58.1506 208.965 56.5755 208.965C56.2111 208.965 55.8232 208.906 55.4353 208.741C53.0844 207.777 56.646 199.518 59.1732 196.588" stroke="#1D1D1B" stroke-width="0.4" stroke-linecap="round" stroke-linejoin="round"/>
<path d="M123.81 143.565L118.674 153.165" stroke="#1D1D1B" stroke-width="0.4" stroke-linecap="round" stroke-linejoin="round"/>
<path d="M132.638 145.012L127.983 154.341" stroke="#1D1D1B" stroke-width="0.4" stroke-linecap="round" stroke-linejoin="round"/>
<path d="M143.193 145.894L138.645 154.965" stroke="#1D1D1B" stroke-width="0.4" stroke-linecap="round" stroke-linejoin="round"/>
<path d="M178.162 144.529L171.921 156.306" stroke="#1D1D1B" stroke-width="0.4" stroke-linecap="round" stroke-linejoin="round"/>
<path d="M186.755 147.153L182.582 156.306" stroke="#1D1D1B" stroke-width="0.4" stroke-linecap="round" stroke-linejoin="round"/>
<path d="M195.172 149.094L191.41 156.765" stroke="#1D1D1B" stroke-width="0.4" stroke-linecap="round" stroke-linejoin="round"/>
<path d="M44.1622 213.529C41.635 219.4 39.7778 224.129 39.8601 225.165C40.0481 227.847 42.9867 228.459 42.9867 228.459C42.9867 228.459 45.5492 230.023 47.5239 228.188C48.2644 227.506 50.0511 223.012 52.1316 217.235" stroke="#1D1D1B" stroke-width="0.4" stroke-linecap="round" stroke-linejoin="round"/>
<path d="M54.0479 191.612C55.858 187.729 57.0922 185.106 57.0922 185.106C57.0922 185.106 54.1301 181.988 54.1889 178.412C54.2124 176.165 56.6221 171.694 58.5028 168.624" stroke="#1D1D1B" stroke-width="0.4" stroke-linecap="round" stroke-linejoin="round"/>
<path d="M66.5549 172.035C65.497 174.941 64.2158 178.4 64.3216 178.823C64.4744 179.459 67.1896 180.306 67.4482 179.67C68.224 177.753 69.2114 174.823 70.0225 172.623" stroke="#1D1D1B" stroke-width="0.4" stroke-linecap="round" stroke-linejoin="round"/>
<path d="M59.1729 196.588C59.1729 196.588 59.1729 196.577 59.1729 196.565C59.2904 196.177 59.4197 195.788 59.5372 195.435C61.1241 190.565 62.2172 187.141 62.2172 187.141C62.2172 187.141 66.5193 186.882 68.929 184.235C70.6099 182.353 72.0439 176.353 72.6904 172.847" stroke="#1D1D1B" stroke-width="0.4" stroke-linecap="round" stroke-linejoin="round"/>
<path d="M60.9484 170.035C60.0785 172.047 59.0206 174.412 58.3859 176.094C58.1391 176.729 60.6898 177.965 61.254 177.612C61.6066 177.376 62.9466 174.176 64.1338 171.376" stroke="#1D1D1B" stroke-width="0.4" stroke-linecap="round" stroke-linejoin="round"/>
<path d="M54.5063 148.365C53.0252 148.412 51.9908 149.471 51.4971 150.118C51.215 150.482 50.8507 150.777 50.4393 150.977C49.4284 151.447 48.2294 151.929 47.771 152.8C47.7122 152.918 47.6652 153.035 47.63 153.165C47.2891 154.529 47.6064 156.565 49.1345 159.235C50.0984 160.918 53.5071 165.365 58.5028 168.624C59.2785 169.129 60.0896 169.6 60.9477 170.035C61.9586 170.553 63.0164 171.012 64.1331 171.377C64.615 171.541 65.1087 171.682 65.6142 171.812C65.9315 171.894 66.2371 171.965 66.5545 172.024C67.7182 172.294 68.8701 172.482 70.0221 172.624C70.9154 172.729 71.8205 172.8 72.7021 172.835C78.8379 173.094 84.4682 171.671 88.5587 168.988C89.2875 168.506 89.934 168.047 90.4982 167.612C94.3419 164.682 94.8003 162.718 94.0833 162.341C93.7424 162.165 92.4142 162.353 90.4277 162.541C87.6301 162.812 83.5161 163.082 79.0024 162.341C71.2915 161.082 63.6277 157.729 60.9124 154.482C58.1971 151.235 57.6094 148.424 54.6708 148.365H54.5063Z" stroke="#1D1D1B" stroke-width="0.4" stroke-linecap="round" stroke-linejoin="round"/>
<path d="M47.7714 152.8C47.7714 152.8 45.6204 149.647 48.6765 147.765C51.7327 145.87 53.0492 146.694 54.5067 148.365" stroke="#1D1D1B" stroke-width="0.4" stroke-linecap="round" stroke-linejoin="round"/>
</g>
<defs>
<filter id="filter0_d_523_3281" x="0" y="0" width="304" height="428" filterUnits="userSpaceOnUse" color-interpolation-filters="sRGB">
<feFlood flood-opacity="0" result="BackgroundImageFix"/>
<feColorMatrix in="SourceAlpha" type="matrix" values="0 0 0 0 0 0 0 0 0 0 0 0 0 0 0 0 0 0 127 0" result="hardAlpha"/>
<feOffset dx="3" dy="3"/>
<feGaussianBlur stdDeviation="4"/>
<feComposite in2="hardAlpha" operator="out"/>
<feColorMatrix type="matrix" values="0 0 0 0 0 0 0 0 0 0 0 0 0 0 0 0 0 0 0.2 0"/>
<feBlend mode="normal" in2="BackgroundImageFix" result="effect1_dropShadow_523_3281"/>
<feBlend mode="normal" in="SourceGraphic" in2="effect1_dropShadow_523_3281" result="shape"/>
</filter>
</defs>
</svg>
