<svg width="244" height="356" viewBox="0 0 244 356" fill="none" xmlns="http://www.w3.org/2000/svg">
<g filter="url(#filter0_d_399_3286)">
<g clip-path="url(#clip0_399_3286)">
<rect x="5" y="5" width="228" height="340" rx="12" fill="white"/>
<g clip-path="url(#clip1_399_3286)">
<path d="M44.9469 46.659C44.9502 46.4789 44.8614 46.2877 44.6807 46.0853C44.5961 45.963 44.4077 45.7721 44.1158 45.5126C43.7738 45.2035 43.5566 44.9686 43.4642 44.808C43.314 44.5596 43.319 44.3393 43.4792 44.1472C43.8454 43.694 44.5231 43.596 45.5122 43.8532C46.4169 44.0877 47.1882 44.4988 47.826 45.0866C48.3409 45.5599 48.5798 45.9996 48.5428 46.4057C48.5169 46.6701 48.2657 47.1497 47.7892 47.8446L47.1606 48.8694C47.4402 48.8723 47.7236 48.8446 48.0107 48.7862C48.1829 48.7511 48.4106 48.6948 48.6938 48.6173C49.1645 48.4817 49.5129 48.4307 49.739 48.4644C50.126 48.5053 50.5461 48.7088 50.9993 49.075C51.4143 49.449 51.6933 49.8407 51.8364 50.2501C51.9678 50.6021 51.9937 50.9256 51.9143 51.2209C51.8309 51.4969 51.6822 51.6966 51.4681 51.8199C51.2579 51.9623 51.0454 51.9956 50.8307 51.9197C50.5585 51.8555 50.2594 51.7569 49.9334 51.6239C49.7377 51.5441 49.4193 51.3996 48.9782 51.1904C48.4487 50.9393 48.0325 50.7549 47.7295 50.6372C47.2348 50.4588 46.7709 50.3339 46.3378 50.2626C45.3161 51.7062 44.4213 52.7453 43.6535 53.3799C42.9392 53.9836 41.8707 54.6096 40.4479 55.2578C39.8741 55.4742 39.411 55.5984 39.0587 55.6302C38.7638 55.6503 38.6047 55.6029 38.5813 55.4881C38.5541 55.3541 38.6743 55.2101 38.9419 55.056C39.2669 54.8902 39.6878 54.7547 40.2046 54.6496C41.1109 54.2061 42.1085 52.9866 43.1974 50.9912C44.1799 49.2566 44.7691 47.891 44.9649 46.8945L44.9469 46.659ZM36.4623 48.8934C36.439 48.7786 36.3619 48.6448 36.2312 48.492C36.1734 48.4041 36.0331 48.2533 35.8102 48.0395C35.4375 47.6768 35.201 47.3961 35.1007 47.1972C34.9541 46.8683 35.0298 46.6038 35.3279 46.4036C35.867 46.1145 36.5048 46.1143 37.2412 46.403C37.9776 46.6917 38.6246 47.1779 39.1823 47.8617C39.5551 48.2243 39.6771 48.628 39.5483 49.0728C39.4802 49.3258 39.2879 49.654 38.9713 50.0572L38.9027 50.1609C39.0522 50.2102 39.24 50.2517 39.4661 50.2854C39.6079 50.2964 39.811 50.3149 40.0754 50.3408C40.6385 50.3658 41.0314 50.4353 41.2539 50.5495C41.6299 50.7321 41.8667 51.1125 41.9644 51.6905C41.982 52.3646 41.7844 52.8632 41.3718 53.1864C40.9592 53.5095 40.5626 53.4706 40.1821 53.0696L39.9977 52.8979C39.6405 52.6118 39.3544 52.381 39.1393 52.2055C38.736 51.8889 38.3962 51.6392 38.1198 51.4562C37.3913 52.3818 36.538 53.233 35.56 54.01C34.4405 54.8756 33.3318 55.4998 32.2337 55.8826C31.813 56.0679 31.4552 56.1706 31.1603 56.1907C30.9037 56.2031 30.7466 56.1653 30.6888 56.0774C30.6463 55.9664 30.7225 55.8513 30.9175 55.7319C31.166 55.5817 31.5123 55.4713 31.9564 55.4009C32.4387 55.3227 33.1642 54.627 34.1328 53.3138C35.1623 51.9084 35.9255 50.4676 36.4224 48.9912L36.4623 48.8934ZM45.4693 58.6311C43.1616 59.2401 41.1584 59.8769 39.4599 60.5413C38.5189 60.9122 37.4805 61.3925 36.3449 61.9823C35.3315 62.4875 34.5797 62.76 34.0895 62.8C33.4193 62.8366 32.3117 62.6335 30.7665 62.1904C30.2105 62.0046 29.7674 61.7858 29.4371 61.5341C29.1568 61.332 28.9838 61.1181 28.9179 60.8923C28.879 60.7009 28.9339 60.5303 29.0828 60.3804C29.2356 60.2497 29.469 60.1723 29.783 60.1483C31.1808 60.0632 33.5351 59.634 36.8459 58.8608C39.4102 58.2394 42.2786 57.4964 45.4512 56.6317C46.6336 56.2715 47.6474 55.9158 48.4928 55.5644C48.9709 55.3675 49.4968 55.111 50.0703 54.795C50.5942 54.529 51.0092 54.3648 51.3155 54.3025C51.7595 54.2321 52.4721 54.2565 53.4531 54.3758C53.9896 54.466 54.3982 54.6619 54.6788 54.9636C54.9095 55.2156 55.0216 55.5217 55.0151 55.8818C55.02 56.1997 54.931 56.4968 54.748 56.7732C54.5651 57.0496 54.3492 57.2131 54.1004 57.2637C53.8899 57.3066 53.6774 57.3398 53.463 57.3635C53.3442 57.3678 53.1279 57.3819 52.8139 57.4059C52.0097 57.4699 51.2285 57.5491 50.4704 57.6435C49.1573 57.8509 47.5189 58.1742 45.5554 58.6136L45.4693 58.6311ZM48.4568 63.7635C48.3325 63.2507 48.0971 62.7305 47.7506 62.2031C47.4502 61.7061 47.1618 61.3661 46.8854 61.1832C46.4705 60.8092 46.3602 60.4629 46.5545 60.1443C46.7296 59.8297 47.0738 59.66 47.587 59.6353C48.1041 59.6298 48.681 59.7715 49.3178 60.0605C49.8894 60.3229 50.4594 60.6753 51.0278 61.1178C51.3006 61.3811 51.4604 61.6277 51.5071 61.8573C51.5383 62.0105 51.5276 62.2518 51.4751 62.5814L51.4255 63.2193C51.6659 64.1072 51.8025 64.8766 51.8353 65.5277C51.8558 65.9222 51.8363 66.4144 51.777 67.0045C51.7472 67.2498 51.7248 67.4337 51.7099 67.5563C51.6953 67.7785 51.6979 67.9873 51.7177 68.1826C52.5745 68.965 52.8198 69.5828 52.4536 70.036C52.1636 70.374 51.5305 70.6423 50.5544 70.8409C49.965 70.9808 49.4273 71.13 48.9414 71.2887C48.6582 71.3662 48.3043 71.4881 47.8797 71.6542C47.325 71.8667 46.883 71.9965 46.5537 72.0435C46.0752 72.1409 45.4357 72.1813 44.6351 72.1648C44.435 73.0426 44.1436 73.5205 43.7608 73.5984C43.378 73.6762 42.9689 73.3309 42.5335 72.5625C42.3019 72.0117 42.0679 71.3517 41.8317 70.5826C41.6809 70.1349 41.47 69.4902 41.199 68.6484L40.8097 67.3224C40.6935 66.9475 40.4817 66.5919 40.1741 66.2559C39.9934 66.0535 39.6995 65.7844 39.2924 65.4487L38.8603 65.0881C38.2111 64.5425 37.9778 64.0817 38.1604 63.7057C38.3126 63.3758 38.7964 63.1578 39.6119 63.0517C40.6234 63.1249 41.4612 63.373 42.1252 63.796C42.7471 64.2076 43.1895 64.7654 43.4523 65.4693L44.3057 64.6679C45.054 63.9376 45.6138 63.5048 45.9849 63.3695C46.6122 63.1223 47.2163 63.3482 47.797 64.0472C48.2051 64.6817 48.1015 65.2011 47.4861 65.6053C47.1001 65.8633 46.2681 66.182 44.99 66.5616L43.6986 66.9739L44.4228 70.5338C45.456 70.2239 46.4336 69.8855 47.3555 69.5185C48.0938 69.2288 48.855 68.9045 49.639 68.5457L48.4568 63.7635ZM65.7791 63.5279C65.8959 64.1021 65.7616 64.6178 65.3762 65.0749C65.0292 65.5242 64.5685 65.8072 63.9944 65.924C63.3819 66.0486 62.8282 65.972 62.3331 65.694C61.8189 65.4199 61.5034 64.9958 61.3866 64.4216C61.2698 63.8474 61.3926 63.3242 61.7549 62.8518C62.1058 62.4216 62.5876 62.1443 63.2 62.0197C63.755 61.9067 64.2877 61.9777 64.798 62.2327C65.3352 62.522 65.6622 62.9538 65.7791 63.5279ZM75.5687 61.5362C75.6856 62.1104 75.5513 62.626 75.1659 63.0831C74.8188 63.5324 74.3582 63.8155 73.784 63.9323C73.1716 64.0569 72.6178 63.9802 72.1228 63.7023C71.6086 63.4282 71.2931 63.004 71.1763 62.4299C71.0595 61.8557 71.1822 61.3324 71.5446 60.8601C71.8955 60.4299 72.3772 60.1525 72.9897 60.0279C73.5447 59.915 74.0774 59.986 74.5877 60.241C75.1249 60.5303 75.4519 60.962 75.5687 61.5362ZM85.0168 43.1706C84.1286 43.3114 83.4678 43.2964 83.0344 43.1255C82.6893 42.9964 82.1115 42.6057 81.3011 41.9534L80.8344 41.5699C80.3384 40.9932 80.1551 40.582 80.2845 40.3365C80.3987 40.1139 80.7893 40.0743 81.4562 40.2177C82.0236 40.3613 82.6539 40.4224 83.3471 40.401C84.14 40.3792 85.0627 40.2612 86.1154 40.0471C86.5977 39.9689 87.0211 39.9924 87.3854 40.1176C87.7075 40.2314 87.9361 40.4241 88.071 40.6956C88.1982 40.9288 88.2277 41.172 88.1596 41.425C88.0763 41.7011 87.9027 41.9257 87.639 42.099C87.2491 42.3377 86.861 42.5363 86.4746 42.6946C86.0539 42.8799 85.6254 43.0268 85.1891 43.1355L85.0168 43.1706ZM85.7454 46.311C85.095 46.543 84.5059 46.7825 83.9782 47.0293C83.6684 47.1721 83.307 47.3552 82.8941 47.5788C82.3167 47.8756 81.9073 48.0187 81.6659 48.008C81.4054 48.0012 80.8342 47.8384 79.9521 47.5196C78.9396 47.1476 78.54 46.7505 78.7531 46.3285C78.9396 45.9716 79.3507 45.7883 79.9866 45.7786C81.6594 45.4781 82.9494 45.2057 83.8564 44.9613C85.0888 44.6508 86.3552 44.2138 87.6556 43.6502C87.8697 43.5269 88.0934 43.4017 88.3266 43.2745C88.4528 43.209 88.623 43.1146 88.8371 42.9913C89.2996 42.7178 89.6401 42.5788 89.8584 42.5742C90.1572 42.5732 90.673 42.7573 91.4058 43.1264C91.9816 43.5075 92.1745 43.9168 91.9844 44.3541C91.7944 44.7914 91.3031 45.0707 90.5106 45.1921C90.0626 45.2433 89.3621 45.3759 88.409 45.5897C87.8004 45.7335 86.9872 45.9488 85.9693 46.2356L85.7454 46.311ZM86.6213 47.0895C85.3199 47.3543 84.2765 48.0549 83.4912 49.1913C82.7478 50.2395 82.4792 51.2708 82.6856 52.2851C82.9504 53.5866 83.7275 54.6144 85.0171 55.3685C86.2375 56.077 87.4889 56.3007 88.7712 56.0398C90.0344 55.7828 91.0664 55.1244 91.8673 54.0645C92.6681 53.0047 92.9498 51.891 92.7123 50.7235C92.4163 49.269 91.6238 48.2144 90.3346 47.5598C89.1988 46.9737 87.9611 46.817 86.6213 47.0895ZM87.1348 49.4665C87.7664 49.338 88.4389 49.4105 89.1523 49.6839C89.9347 50.0031 90.3805 50.4306 90.4895 50.9665C90.6024 51.5215 90.4758 52.0256 90.1096 52.4788C89.7129 52.9781 89.0839 53.3154 88.2226 53.4906C87.4379 53.6502 86.6809 53.5053 85.9517 53.0557C85.2954 52.671 84.9147 52.2203 84.8095 51.7035C84.7161 51.2442 84.8927 50.7897 85.3394 50.3401C85.8091 49.9057 86.4076 49.6145 87.1348 49.4665ZM94.619 38.3469C94.51 37.811 94.1596 37.2644 93.5678 36.7071C93.2029 36.3828 92.5558 35.8965 91.6267 35.2484L91.3849 35.0884C91.1889 34.909 91.1596 34.7156 91.2968 34.5083C91.4531 34.2972 91.7418 34.1487 92.1629 34.0631C92.6414 33.9657 93.2121 33.9791 93.8752 34.1033C94.6457 34.2655 95.4875 34.5825 96.4007 35.0545C96.8766 35.3364 97.1801 35.6035 97.3112 35.8558C97.4267 36.0317 97.5005 36.3455 97.5326 36.7974L97.6967 37.7506L99.8227 48.2006C100.198 48.0844 100.529 47.9474 100.815 47.7894C100.995 47.693 101.207 47.5602 101.452 47.3908C101.708 47.1793 101.928 47.0349 102.111 46.9577C102.406 46.838 102.779 46.7621 103.231 46.7299C104.07 46.7386 104.654 46.8688 104.984 47.1205C105.273 47.3609 105.421 47.7492 105.431 48.2854C105.433 48.9825 105.203 49.4181 104.74 49.592C104.464 49.7078 103.848 49.7635 102.89 49.759C102.331 49.7532 101.892 49.7527 101.575 49.7576C101.038 49.767 100.55 49.8165 100.11 49.9061C100.589 52.2602 100.841 54.2818 100.865 55.971C100.869 56.9669 100.764 58.1642 100.55 59.563L100.41 60.6379C100.141 61.6692 99.9512 62.1065 99.8396 61.9498C99.778 61.8428 99.7303 61.3143 99.6965 60.3645C99.6604 59.8935 99.5668 59.3843 99.4156 58.8371C99.3264 58.4965 99.1482 57.9149 98.8812 57.0922C98.5292 56.0477 98.2505 55.1676 98.0451 54.452C97.7002 53.2466 97.3895 51.9644 97.113 50.6055L94.619 38.3469Z" fill="#410A0A"/>
<path d="M124.66 102.98C125.53 102.88 126.38 102.87 127.16 102.92C126.74 107.16 125.39 108.57 120.95 110.7C117.94 112.15 115.4 110.85 114.08 109.87L114.06 109.85C113.44 109.39 113.1 109 113.1 109C114.15 108.79 115.22 108.02 115.9 107.46C117.32 106.3 122.85 103.19 124.66 102.98Z" fill="#232322"/>
<path d="M109.49 113.51C109.52 113.74 109.61 115.65 105.97 118.37C105.61 118.12 105.19 117.82 104.72 117.43C102.43 115.56 102.64 113.88 102.67 113.72C104.11 114.38 106.31 114.02 107.42 110.46C107.74 111.15 108.3 112.15 109.2 113.11C109.31 113.23 109.41 113.36 109.49 113.51Z" fill="#232322"/>
<path d="M120.3 119.34C122.68 120.22 121.06 120.96 121.06 120.96C119.45 121.99 118.1 122.69 116.96 123.15L116.87 122.91C116.87 122.91 117.92 118.46 120.3 119.34Z" fill="#472B47"/>
<path d="M120.77 138.43C120.31 138.77 119.85 139 119.32 139.08C118.23 139.24 117.15 138.8 116.63 137.98C116.14 137.21 116.15 136.11 117.1 134.88C117.34 134.58 117.6 134.28 117.87 134C117.94 134.16 118.7 135.96 119.44 135.68C119.44 135.68 119.41 137.49 120.77 138.43Z" fill="#472B47"/>
<path d="M139.08 127.83C140.82 132.35 131.28 132.03 126.9 134.02C123.61 135.52 122.17 137.44 120.77 138.44C119.41 137.49 119.44 135.68 119.44 135.68C120.21 135.39 125.58 130.57 138.73 127.23C138.88 127.4 138.99 127.6 139.08 127.83Z" fill="white"/>
<path d="M122.59 130.5C124.01 129.68 136.04 123.93 138.73 127.23C125.58 130.57 120.21 135.39 119.44 135.68C118.7 135.96 117.94 134.16 117.87 134C119.87 131.93 122.59 130.5 122.59 130.5Z" fill="white"/>
<path d="M190.66 233.84C190.75 233.29 190.81 233 190.81 233C190.81 233 188.18 231.83 184.11 230.22C182.56 229.61 180.8 228.93 178.9 228.24L178.95 228.09C179.04 226.28 181.3 216.99 184.38 209.96C185.22 208.04 186.12 206.29 187.06 204.91C191.44 198.45 192.19 194.82 192.19 194.82C185.94 190.81 185.94 182.04 185.94 182.04C186.23 179.11 185.63 162.46 193.79 155.1C203.19 146.63 216.86 141.79 240.43 143.28C240.43 143.28 262.15 152.72 269.56 161.67C276.96 170.62 286.79 194.98 276.82 212.35C276.82 212.35 280.24 221.47 278.53 231.86C276.82 242.26 271.55 254.94 270.98 258.78C270.79 260.08 268.3 265.52 264.59 272.52C257.38 286.12 245.54 305.63 236.94 312.26C223.91 322.3 217.57 330.28 209.24 331.98C200.91 333.69 185.1 325.93 185.1 325.93C193.79 318.74 199.91 290.97 193.22 272.6C187.31 256.38 189.95 237.94 190.65 233.84H190.66Z" fill="#AF77AC"/>
<path d="M264.6 272.52C264.6 272.52 259.49 297.41 255 306.38C250.52 315.36 256.57 322.52 255.82 328.64C254.52 339.3 253.1 345 253.1 345L250.38 363.9H114.62V345C114.71 343.13 111.55 313.86 109.74 307.35C108.47 302.79 105.64 289.84 104.06 282.44C103.41 279.43 102.97 277.35 102.92 277.12C108 281.52 117.65 289.67 128.72 297.95C138.6 305.34 157.1 314 170.21 319.71C178.83 323.46 185.11 325.93 185.11 325.93C185.11 325.93 200.92 333.69 209.25 331.98C217.58 330.28 223.92 322.3 236.95 312.26C245.55 305.63 257.39 286.12 264.6 272.52Z" fill="#1B2149"/>
<path d="M240.44 143.28C216.87 141.79 203.2 146.63 193.8 155.1C185.64 162.46 186.24 179.11 185.95 182.04C185.94 182.18 185.92 182.3 185.9 182.37C185.47 183.98 177.14 191.45 175.53 191.67C173.93 191.88 171.69 188.57 171.05 187.5C171 187.43 170.98 187.33 170.96 187.21C170.77 185.62 173.1 180.32 173.4 178.64C173.67 177.13 169.65 165.96 167.98 161.67C168.12 161.52 169.37 160.17 171.8 156.74C174.36 153.11 183.44 133.99 186.22 128.75C188.99 123.52 194.45 122.05 194.45 122.05C219.32 125.95 240.44 143.28 240.44 143.28Z" fill="#D6BA47"/>
<path d="M193.23 272.6C199.92 290.97 193.8 318.74 185.11 325.93C185.11 325.93 178.83 323.46 170.21 319.71C175.03 314.12 177.88 303.82 177.88 303.82C177.88 303.82 184.19 302.22 183.06 301.04C182.85 300.82 182.59 300.39 182.32 299.83C184.08 294.46 183.69 278.86 178.95 258.64C178.74 257.72 178.55 256.83 178.4 255.96C176.49 245.41 178.69 238.47 180.89 234.48C182.5 231.56 184.11 230.23 184.11 230.23C188.18 231.83 190.81 233 190.81 233C190.81 233 190.75 233.29 190.66 233.84C189.96 237.94 187.32 256.38 193.23 272.6Z" fill="#BCA339"/>
<path d="M179.53 115.57C180.08 113.89 180.13 111.17 180.13 111.17C184.25 115.08 187.82 121.35 187.82 121.35C190.05 121.46 192.26 121.7 194.45 122.05C194.45 122.05 188.99 123.52 186.22 128.75C183.44 133.99 174.36 153.11 171.8 156.74C169.37 160.17 168.12 161.52 167.98 161.66C167.64 160.8 167.4 160.21 167.31 160.05C166.78 159.09 169.13 155.78 169.13 154.18C169.13 152.58 165.74 139.08 165.74 139.08C165.74 139.08 169.9 128.09 173.4 123.63C175.01 121.58 178.35 117.79 179.2 116.36C179.33 116.15 179.44 115.88 179.53 115.57Z" fill="#BCA339"/>
<path d="M192.2 194.82C192.2 194.82 191.45 198.45 187.07 204.91C186.13 206.29 185.23 208.04 184.39 209.96C171.94 204.11 169.04 191.37 169.04 191.37H169.03C170.11 189.05 170.97 187.21 170.97 187.21C170.99 187.33 171.01 187.43 171.06 187.5C171.7 188.57 173.94 191.88 175.54 191.67C177.15 191.45 185.48 183.98 185.91 182.37C185.93 182.3 185.95 182.18 185.96 182.04C185.96 182.04 185.96 190.81 192.21 194.82H192.2Z" fill="#BCA339"/>
<path d="M184.11 230.22C184.11 230.22 182.5 231.56 180.89 234.48C178.31 232.11 159.98 225.24 150.65 223.6C141.32 221.97 123.83 219.24 123.83 219.24C125.56 218.01 126.86 217.48 126.86 217.48C126.86 217.48 131.14 218.44 138.33 219.51C142.19 220.08 146.88 220.68 152.21 221.18C160.39 221.95 170.91 225.3 178.9 228.24C180.8 228.93 182.56 229.61 184.11 230.22Z" fill="#D6BA47"/>
<path d="M102.92 277.12C100.48 275 99.09 273.74 99.09 273.74C99.09 273.74 89.76 268.15 91.9 260.03C91.9 260.03 95.64 254.37 112.41 261.2C112.41 261.2 113.96 260.97 113.57 256.5C113.57 256.5 118.28 263.66 121.06 265.9C123.84 268.15 165.6 291 179.59 292.71C179.59 292.71 181.13 297.42 182.32 299.83C182.59 300.39 182.85 300.82 183.06 301.04C184.19 302.22 177.88 303.82 177.88 303.82C177.88 303.82 175.03 314.12 170.21 319.71C157.1 314 138.6 305.34 128.72 297.95C117.65 289.67 108 281.52 102.92 277.12Z" fill="#D6BA47"/>
<path d="M178.95 258.64C183.69 278.86 184.08 294.46 182.32 299.83C181.13 297.42 179.59 292.71 179.59 292.71C165.6 291 123.84 268.15 121.06 265.9C118.28 263.66 113.57 256.5 113.57 256.5C113.48 255.48 113.28 254.23 112.94 252.7C114.99 253.48 116.09 253.48 115.04 251.09C113.04 246.53 113.46 239.34 115.56 231.97C115.56 231.97 129.93 235.5 143.46 240.48C156.98 245.47 178.4 255.96 178.4 255.96C178.55 256.83 178.74 257.72 178.95 258.64Z" fill="#D6BA47"/>
<path d="M184.38 209.96C181.3 216.99 179.04 226.28 178.95 228.09L178.9 228.24C170.91 225.3 160.39 221.95 152.21 221.18C146.88 220.68 142.19 220.08 138.33 219.51L165.55 205.07C165.55 205.07 164.03 202.29 165.55 198.93C166.4 197.04 167.84 193.91 169.02 191.37H169.03C169.03 191.37 171.93 204.11 184.38 209.96Z" fill="#1B2149"/>
<path d="M180.13 111.17C180.13 111.17 180.08 113.89 179.53 115.57C179.36 115.38 177.68 113.59 175.65 111.33L175.84 111.17C176.68 110.81 180.13 111.17 180.13 111.17Z" fill="#968330"/>
<path d="M102.67 113.72C102.04 113.43 101.55 112.94 101.35 112.45C100.71 110.83 100.77 106.75 100.77 106.75C100.77 106.52 100.74 106.26 100.68 105.97C100.46 104.71 99.8203 102.91 99.2603 101.08C98.4203 98.3001 98.4303 95.3401 99.2503 92.5601C101.02 86.6001 105.62 75.4101 115.93 71.7201C130.25 66.5901 142.64 68.3001 146.48 70.1101C150.33 71.9301 159.83 81.3301 164.64 88.8101C169.45 96.2801 166.14 99.1701 168.16 102.37C169.31 104.19 172.83 108.21 175.65 111.33C177.68 113.59 179.36 115.38 179.53 115.57C179.44 115.88 179.33 116.15 179.2 116.36C178.35 117.79 175.01 121.58 173.4 123.63C169.9 128.09 165.74 139.08 165.74 139.08C165.74 139.08 169.13 152.57 169.13 154.18C169.13 155.79 166.78 159.09 167.31 160.05C167.31 160.05 163.68 167.92 158.12 172.33C152.57 176.75 143.17 179.74 142.17 180.88C141.76 181.35 139.16 185.64 136.22 191.37C134.98 191.33 131.04 191.1 131.04 191.1C132.86 187.13 134.32 184.16 134.53 183.66C135.14 182.16 132.99 181.73 131.28 179.45C129.57 177.18 135.05 172.97 135.34 170.55C135.62 168.13 132.49 161.67 132.49 161.67L132.43 161.42C131.3 161.66 130.3 161.71 129.42 161.64C127.41 161.48 125.95 160.67 124.58 159.84C122.13 158.34 119.14 147.98 117.75 144.78C117.18 143.48 115.72 141.05 114.06 138.43L116.63 137.98C117.15 138.8 118.23 139.24 119.32 139.08C119.85 139 120.31 138.77 120.77 138.44C122.17 137.44 123.61 135.52 126.9 134.02C131.28 132.03 140.82 132.35 139.08 127.83L141.62 127.53C141.68 126.88 141.19 123.52 140.34 121.7C139.49 119.89 136.28 120.16 132.22 118.87C128.27 117.63 123.36 117.04 123.09 117.01H123.08C122.4 115.88 120.87 114.83 119.4 114.71L119.96 112.77C115.77 111.61 114.25 110.06 114.08 109.87C115.4 110.85 117.94 112.15 120.95 110.7C125.39 108.57 126.74 107.16 127.16 102.92C126.38 102.87 125.53 102.88 124.66 102.98C122.85 103.19 117.32 106.3 115.9 107.46C115.22 108.02 114.15 108.79 113.1 109C111.95 109.23 110.83 108.8 110.27 106.68L107.88 106.77C107.91 107.2 108.04 107.92 108.52 108.66L107.07 109.58C107.07 109.58 107.17 109.93 107.42 110.46C106.31 114.02 104.11 114.38 102.67 113.72Z" fill="#AF77AC"/>
<path d="M180.89 234.48C178.69 238.47 176.49 245.41 178.4 255.96C178.4 255.96 156.98 245.47 143.46 240.48C129.93 235.5 115.56 231.97 115.56 231.97C115.86 230.94 116.18 229.9 116.54 228.87C118.24 223.99 121.44 220.94 123.83 219.24C123.83 219.24 141.32 221.97 150.65 223.6C159.98 225.24 178.31 232.11 180.89 234.48Z" fill="#D6BA47"/>
<path d="M167.98 161.67C169.65 165.96 173.67 177.13 173.4 178.64C173.1 180.32 170.77 185.62 170.96 187.21C170.96 187.21 170.1 189.05 169.02 191.37C167.84 193.91 166.4 197.04 165.55 198.93C164.03 202.29 165.55 205.07 165.55 205.07L138.33 219.51C131.14 218.44 126.86 217.48 126.86 217.48C126.86 217.39 126.87 217.29 126.88 217.2C127.32 210.14 132.11 199.36 136.22 191.37C139.16 185.64 141.76 181.35 142.17 180.88C143.17 179.74 152.57 176.75 158.12 172.33C163.68 167.92 167.31 160.05 167.31 160.05C167.4 160.21 167.64 160.8 167.98 161.66V161.67Z" fill="#D6BA47"/>
<path d="M116.96 123.15C118.1 122.69 119.45 121.99 121.06 120.96C121.06 120.96 122.68 120.22 120.3 119.34C117.92 118.46 116.87 122.91 116.87 122.91L116.96 123.15ZM108.52 108.66C108.04 107.92 107.91 107.2 107.88 106.77L110.27 106.68C110.83 108.8 111.95 109.23 113.1 109C113.1 109 113.44 109.39 114.06 109.85L114.08 109.87C114.25 110.06 115.77 111.61 119.96 112.77L119.4 114.71C120.87 114.83 122.4 115.88 123.08 117.01H123.09C123.36 117.04 128.27 117.63 132.22 118.87C136.28 120.16 139.49 119.89 140.34 121.7C141.19 123.52 141.68 126.88 141.62 127.53L139.08 127.83C138.99 127.6 138.88 127.4 138.73 127.23C136.04 123.93 124.01 129.68 122.59 130.5C122.59 130.5 119.87 131.93 117.87 134C117.6 134.28 117.34 134.58 117.1 134.88C116.15 136.11 116.14 137.21 116.63 137.98L114.06 138.43C112.92 136.62 111.68 134.72 110.57 133.03L113.27 132.26C113.04 131.41 112.89 130.46 112.27 128.72C111.55 126.72 112.55 123.64 112.55 123.64C111.48 123.22 110.95 122.31 110.59 121.54C109.8 119.86 110.67 115.48 109.49 113.51C109.41 113.36 109.31 113.23 109.2 113.11C108.3 112.15 107.74 111.15 107.42 110.46C107.17 109.93 107.07 109.58 107.07 109.58L108.52 108.66Z" fill="#AF77AC"/>
<path d="M132.49 161.67C132.49 161.67 135.62 168.13 135.34 170.55C135.05 172.97 129.57 177.18 131.28 179.45C132.99 181.73 135.14 182.16 134.53 183.66C134.32 184.16 132.86 187.13 131.04 191.1C127.45 198.92 122.45 210.62 122.73 215.2L122.55 215.59C118.48 213.72 116.32 211.64 116.32 211.64C115.84 211.48 115.4 211.38 114.98 211.36H114.97C112.21 209.08 112.19 206.42 112.19 206.21C112.46 205.91 112.61 205.67 112.62 205.45C112.69 204.31 109.77 202.03 109.77 202.03L109.73 201.93C111.5 201.14 112.87 200.24 113.59 199.46C114.84 198.11 114.04 191.99 112.3 185.43C114.46 180.79 130 171.41 131.28 168.84C132.56 166.28 129.42 161.64 129.42 161.64C130.3 161.71 131.3 161.66 132.43 161.42L132.49 161.67Z" fill="#D6BA47"/>
<path d="M131.04 191.1C131.04 191.1 134.98 191.33 136.22 191.37C132.11 199.36 127.32 210.14 126.88 217.2H126.86C125.25 216.73 123.81 216.17 122.55 215.59L122.73 215.2C122.45 210.62 127.45 198.92 131.04 191.1Z" fill="#1B2149"/>
<path d="M126.88 217.2C126.87 217.29 126.86 217.39 126.86 217.48C126.86 217.48 125.56 218.01 123.83 219.24C121.44 220.94 118.24 223.99 116.54 228.87C116.18 229.9 115.86 230.94 115.56 231.97C113.46 239.34 113.04 246.53 115.04 251.09C116.09 253.48 114.99 253.48 112.94 252.7C110.53 251.78 106.8 249.78 103.72 249.31C98.0199 248.46 95.6699 248.31 95.8899 246.32C96.0999 244.33 94.6799 230.08 85.0599 228.09H84.9199C85.1999 224.78 85.5399 221.36 85.7899 218.47H85.7999C85.7999 218.47 92.9699 221.33 102.3 217.2C110.36 213.63 112.25 211.17 114.97 211.36H114.98C115.4 211.38 115.84 211.48 116.32 211.64C116.32 211.64 118.48 213.72 122.55 215.59C123.81 216.17 125.25 216.73 126.86 217.2H126.88Z" fill="#D6BA47"/>
<path d="M114.97 211.36C112.25 211.17 110.36 213.63 102.3 217.2C92.97 221.33 85.8 218.47 85.8 218.47H85.79C85.97 216.49 86.11 214.76 86.17 213.49C86.17 213.49 97.88 212.92 103.29 210.86C107.68 209.18 111.04 207.42 112.19 206.21C112.19 206.42 112.21 209.08 114.97 211.36Z" fill="#BCA339"/>
<path d="M114.62 345V363.9L61.9004 366.57L69.2604 345C73.1004 329.56 104.05 282.44 104.05 282.44C105.63 289.84 108.46 302.79 109.73 307.35C111.54 313.86 114.7 343.13 114.61 345H114.62Z" fill="#AF77AC"/>
<path d="M112.3 185.43C114.04 191.99 114.84 198.11 113.59 199.46C112.87 200.24 111.5 201.14 109.73 201.93C104.92 204.09 97.1499 205.43 91.3699 201.17C77.6399 191.08 79.9699 175.18 79.9699 175.18C79.9699 175.18 81.9699 166.46 87.4099 163.25C87.5999 163.14 87.7999 163.03 87.9899 162.94H87.9999C93.3099 160.29 99.3499 163.51 104.4 167.72C107.18 170.04 110.34 178.01 112.3 185.42V185.43ZM103.33 183.94C105.18 183.19 105.96 180.34 104.82 177.89C103.69 175.43 102.01 173.65 99.7999 174.11C95.3599 175.04 95.7299 179.61 97.0099 181.8C98.6299 184.58 101.48 184.69 103.33 183.94Z" fill="#D6BA47"/>
<path d="M113.57 256.5C113.96 260.97 112.41 261.2 112.41 261.2C95.6396 254.37 91.8996 260.03 91.8996 260.03C89.7596 268.15 99.0896 273.74 99.0896 273.74C99.0896 273.74 95.4196 274.77 94.5696 274.23C93.7196 273.7 79.9696 257.55 79.9696 257.55C79.9696 257.55 80.0796 251.02 75.8096 244.82L77.2996 240.85C77.2996 240.85 81.4496 243.7 82.2896 244.4C82.6296 244.69 84.0696 244.68 84.3496 236.35C84.4296 234.04 84.6496 231.11 84.9196 228.08H85.0596C94.6796 230.08 96.0996 244.33 95.8896 246.32C95.6696 248.31 98.0196 248.46 103.72 249.31C106.8 249.78 110.53 251.78 112.94 252.7C113.28 254.23 113.48 255.48 113.57 256.5Z" fill="#BCA339"/>
<path d="M113.27 132.26L110.57 133.03C109.34 131.16 108.29 129.56 107.71 128.65C105.73 125.5 107.39 122.72 107.71 120.9C107.97 119.45 107.43 119.37 105.97 118.37C109.61 115.65 109.52 113.74 109.49 113.51C110.67 115.48 109.8 119.86 110.59 121.54C110.95 122.31 111.48 123.22 112.55 123.64C112.55 123.64 111.55 126.72 112.27 128.72C112.89 130.46 113.04 131.41 113.27 132.26Z" fill="#AF77AC"/>
<path d="M109.77 202.03C109.77 202.03 112.69 204.31 112.62 205.45C112.61 205.67 112.46 205.91 112.19 206.2C111.04 207.42 107.68 209.18 103.29 210.86C97.8798 212.92 86.1698 213.49 86.1698 213.49C86.2298 212.17 86.2098 211.33 86.0598 211.21C85.3498 210.64 74.1698 203.45 72.1798 199.82C70.1798 196.19 69.3298 193.06 69.7498 191.99C70.1798 190.92 74.1698 190.06 74.5298 188.85C74.8798 187.64 75.1698 186.72 74.1698 185.44C73.1698 184.15 70.6098 184.3 70.2498 183.3C69.9298 182.4 67.7398 178.47 72.0398 175.18C72.5198 174.81 73.0698 174.46 73.7198 174.11L73.8098 173.89C77.0098 175.24 79.9698 175.18 79.9698 175.18C79.9698 175.18 77.6398 191.08 91.3698 201.17C97.1498 205.43 104.92 204.09 109.73 201.93L109.77 202.03Z" fill="#D6BA47"/>
<path d="M104.82 177.89C105.96 180.34 105.18 183.19 103.33 183.94C101.48 184.69 98.6304 184.58 97.0104 181.8C95.7304 179.61 95.3604 175.04 99.8004 174.11C102.01 173.65 103.69 175.43 104.82 177.89Z" fill="#BF2202"/>
<path d="M87.9905 162.94C87.8005 163.03 87.6005 163.14 87.4105 163.25C81.9705 166.46 79.9705 175.18 79.9705 175.18C79.9705 175.18 77.0105 175.24 73.8105 173.89C72.8005 173.48 71.7605 172.91 70.7905 172.16C70.7505 171.83 69.9805 164.07 80.8405 159.92C83.8805 161.51 87.8105 162.88 87.9805 162.94H87.9905Z" fill="#D6BA47"/>
<path d="M77.2997 240.85L75.8097 244.82C80.0797 251.02 79.9697 257.55 79.9697 257.55C79.9697 257.55 75.3397 249.88 71.9297 246.25C68.5097 242.62 55.6897 238.02 48.5297 226.81C48.5297 226.81 46.7497 227.24 45.3297 224.51L45.5997 222.38L40.8997 217.52C38.0097 214.42 36.3597 205.55 36.5697 202.56C36.7797 199.57 37.5697 197.61 37.5697 197.61C38.5797 191.92 42.9797 188.18 42.9797 188.18C42.2997 187.44 42.0197 186.51 42.0297 185.49C42.0497 182.24 44.9097 178.04 46.5997 175.68C48.8397 172.58 55.6597 169.17 55.6597 169.17C55.8897 169.48 56.0097 169.66 56.0097 169.66L72.0397 175.18C67.7397 178.47 69.9297 182.4 70.2497 183.3C70.6097 184.3 73.1697 184.15 74.1697 185.44C75.1697 186.72 74.8797 187.64 74.5297 188.85C74.1697 190.06 70.1797 190.92 69.7497 191.99C69.3297 193.06 70.1797 196.19 72.1797 199.82C74.1697 203.45 85.3497 210.64 86.0597 211.21C86.2097 211.33 86.2297 212.17 86.1697 213.49C86.1096 214.76 85.9697 216.49 85.7897 218.47C85.5397 221.36 85.1996 224.78 84.9197 228.08C84.6497 231.11 84.4297 234.04 84.3497 236.35C84.0697 244.68 82.6297 244.69 82.2897 244.4C81.4497 243.7 77.2997 240.85 77.2997 240.85ZM68.3697 233.99C70.7497 231.19 70.5396 223.77 65.4597 216.91C60.3897 210.04 53.4497 206.55 49.9797 209.12C46.5097 211.69 46.6497 220.04 51.7297 226.91C56.8097 233.77 65.5697 237.28 68.3697 233.99ZM53.6597 188.77C55.5797 187.5 53.8697 183.26 51.9497 181.52C51.0997 180.75 49.4097 179.87 47.8897 180.95C45.8997 182.37 46.4697 185.44 47.8897 187C49.3197 188.57 51.7397 190.03 53.6597 188.77ZM46.6097 202.03C47.6097 201 46.9297 198.4 45.7897 196.58C45.3597 195.9 43.2997 193.38 41.7697 194.62C39.8197 196.19 43.0497 205.72 46.6097 202.03ZM44.3297 215.39C44.3297 215.39 45.6897 212.07 41.4797 208.37C41.4797 208.37 38.8497 209.08 40.1997 212.42C41.5597 215.77 44.3297 215.39 44.3297 215.39Z" fill="#D6BA47"/>
<path d="M80.8497 159.91C69.9897 164.07 70.7597 171.83 70.7997 172.16C70.1497 171.67 69.5197 171.09 68.9497 170.41C66.4297 167.45 64.6897 164.55 64.2597 161.62C63.9697 159.7 64.2397 157.77 65.2097 155.78C66.6897 152.73 68.5797 150.95 70.3297 150.25C71.4697 149.8 72.5497 149.8 73.4297 150.22C75.6697 151.29 75.8897 155.24 77.5997 157.59C78.1497 158.34 79.3997 159.15 80.8597 159.91H80.8497Z" fill="#D6BA47"/>
<path d="M70.3197 145.42C71.1797 148.41 70.3197 150.25 70.3197 150.25C68.5697 150.95 66.6797 152.73 65.1997 155.78C64.2297 157.77 63.9597 159.7 64.2497 161.62L64.1297 161.64C64.1297 161.64 63.1597 162.13 61.8997 162.95C60.0397 155.24 53.4897 151.15 53.1797 150.95C56.9897 148 61.2897 144.58 62.4197 143.28C64.5597 140.82 69.4697 142.43 70.3197 145.42Z" fill="#D6BA47"/>
<path d="M65.46 216.91C70.54 223.77 70.75 231.19 68.37 233.99C65.57 237.28 56.81 233.77 51.73 226.91C46.65 220.04 46.51 211.69 49.98 209.12C53.45 206.55 60.39 210.04 65.46 216.91ZM65.02 231.55C67.29 229.87 66.08 224.36 62.3 219.25C58.52 214.14 53.61 211.36 51.33 213.04C49.06 214.72 49.51 220.68 53.29 225.79C57.07 230.91 62.74 233.23 65.02 231.55Z" fill="#BCA339"/>
<path d="M62.2996 219.25C66.0796 224.36 67.2896 229.87 65.0196 231.55C62.7396 233.23 57.0696 230.91 53.2896 225.79C49.5096 220.68 49.0596 214.72 51.3296 213.04C53.6096 211.36 58.5196 214.14 62.2996 219.25Z" fill="#369A15"/>
<path d="M61.8996 162.94C59.5696 164.44 56.2196 167.03 56.0096 169.66C56.0096 169.66 55.8896 169.48 55.6596 169.17C54.2596 167.19 48.8996 159.8 47.1496 159.52C46.9996 159.5 46.8996 159.36 46.8196 159.13C46.6296 158.56 46.6396 157.39 46.6996 155.87C46.6996 155.87 49.7296 153.6 53.1696 150.95C53.4796 151.15 60.0296 155.24 61.8896 162.94H61.8996Z" fill="#D6BA47"/>
<path d="M51.9501 181.52C53.8701 183.26 55.5801 187.5 53.6601 188.77C51.7401 190.03 49.3201 188.57 47.8901 187C46.4701 185.44 45.9001 182.37 47.8901 180.95C49.4101 179.87 51.1001 180.75 51.9501 181.52Z" fill="#F7DE4B"/>
<path d="M55.6601 169.17C55.6601 169.17 48.8401 172.58 46.6001 175.68C44.9101 178.04 42.0501 182.24 42.0301 185.49C40.7801 180.52 35.8901 175.99 33.1801 171.66C32.8901 171.21 32.6401 170.77 32.4101 170.33C32.4101 170.33 31.8701 163.25 36.4801 159.89C41.1001 156.53 46.8201 159.13 46.8201 159.13C46.9001 159.36 47.0001 159.5 47.1501 159.52C48.9001 159.8 54.2601 167.19 55.6601 169.17Z" fill="#D6BA47"/>
<path d="M41.4797 135.7C47.0797 136.94 47.2097 145.39 46.9097 151.88H46.8197C36.6597 144.67 32.2197 151.62 32.2197 151.62C33.5097 143.04 36.2497 134.54 41.4897 135.7H41.4797Z" fill="#D6BA47"/>
<path d="M46.8197 151.88H46.9097C46.8397 153.35 46.7497 154.71 46.6997 155.87C46.6397 157.39 46.6297 158.56 46.8197 159.13C46.8197 159.13 41.0997 156.53 36.4797 159.89C31.8697 163.25 32.4097 170.33 32.4097 170.33C31.8297 169.21 31.4397 168.11 31.3397 167.01C31.1097 164.54 31.2497 158.06 32.2097 151.62C32.2097 151.62 36.6497 144.67 46.8097 151.88H46.8197Z" fill="#D6BA47"/>
<path d="M45.7898 196.58C46.9298 198.4 47.6098 201 46.6098 202.03C43.0498 205.72 39.8198 196.19 41.7698 194.62C43.2998 193.38 45.3598 195.9 45.7898 196.58Z" fill="#15489A"/>
<path d="M40.8999 217.52L45.5999 222.38L45.3299 224.51C39.0799 222.11 40.8999 217.52 40.8999 217.52Z" fill="#DD7B2A"/>
<path d="M41.4799 208.37C45.6899 212.07 44.3299 215.39 44.3299 215.39C44.3299 215.39 41.5599 215.77 40.1999 212.42C38.8499 209.08 41.4799 208.37 41.4799 208.37Z" fill="#981CBA"/>
<path d="M42.0302 185.49C42.0202 186.51 42.3002 187.44 42.9802 188.18C42.9802 188.18 38.5802 191.92 37.5702 197.61C35.4302 196.47 35.2902 193.41 35.5002 189.99C35.7202 186.58 32.2302 176.82 32.0802 174.9C31.9402 172.97 33.0902 171.72 33.0902 171.72L33.1802 171.66C35.8902 175.99 40.7802 180.52 42.0302 185.49Z" fill="#D6BA47"/>
<path d="M100.68 105.97C100.74 106.26 100.77 106.52 100.77 106.75C100.77 106.75 100.71 110.83 101.35 112.45C101.55 112.94 102.04 113.43 102.67 113.72C104.11 114.38 106.31 114.02 107.42 110.46" stroke="#1D1D1B" stroke-width="0.4" stroke-linecap="round" stroke-linejoin="round"/>
<path d="M179.54 115.58C179.54 115.58 179.54 115.57 179.53 115.57C179.36 115.38 177.68 113.59 175.65 111.33C172.83 108.21 169.31 104.19 168.16 102.37C166.14 99.1701 169.45 96.2801 164.64 88.8101C159.83 81.3301 150.33 71.9301 146.48 70.1101C142.64 68.3001 130.25 66.5901 115.93 71.7201C105.62 75.4101 101.02 86.6001 99.2503 92.5601C98.4303 95.3401 98.4203 98.3001 99.2603 101.08C99.8203 102.91 100.46 104.71 100.68 105.96" stroke="#1D1D1B" stroke-width="0.4" stroke-linecap="round" stroke-linejoin="round"/>
<path d="M134.53 160.82C134.53 160.82 140.18 169.88 140.61 173.19" stroke="#1D1D1B" stroke-width="0.4" stroke-linecap="round" stroke-linejoin="round"/>
<path d="M167.98 161.67C169.65 165.96 173.67 177.13 173.4 178.64C173.1 180.32 170.77 185.62 170.96 187.21C170.98 187.33 171 187.43 171.05 187.5C171.69 188.57 173.93 191.88 175.53 191.67C177.14 191.45 185.47 183.98 185.9 182.37C185.92 182.3 185.94 182.18 185.95 182.04C186.24 179.11 185.64 162.46 193.8 155.1C203.2 146.63 216.87 141.79 240.44 143.28C240.44 143.28 219.32 125.95 194.45 122.05C192.26 121.7 190.05 121.46 187.82 121.35C187.82 121.35 184.25 115.08 180.13 111.17" stroke="#1D1D1B" stroke-width="0.4" stroke-linecap="round" stroke-linejoin="round"/>
<path d="M175.84 111.17C176.68 110.81 180.13 111.17 180.13 111.17C180.13 111.17 180.08 113.89 179.53 115.57C179.44 115.88 179.33 116.15 179.2 116.36C178.35 117.79 175.01 121.58 173.4 123.63C169.9 128.09 165.74 139.08 165.74 139.08C165.74 139.08 169.13 152.57 169.13 154.18C169.13 155.79 166.78 159.09 167.31 160.05C167.4 160.21 167.64 160.8 167.98 161.66" stroke="#1D1D1B" stroke-width="0.4" stroke-linecap="round" stroke-linejoin="round"/>
<path d="M184.38 209.96C181.3 216.99 179.04 226.28 178.95 228.09" stroke="#1D1D1B" stroke-width="0.4" stroke-linecap="round" stroke-linejoin="round"/>
<path d="M185.95 182.04C185.95 182.04 185.95 190.81 192.2 194.82C192.2 194.82 191.45 198.45 187.07 204.91C186.13 206.29 185.23 208.04 184.39 209.96" stroke="#1D1D1B" stroke-width="0.4" stroke-linecap="round" stroke-linejoin="round"/>
<path d="M240.44 143.28C240.44 143.28 262.16 152.72 269.57 161.67C276.97 170.62 286.8 194.98 276.83 212.35C276.83 212.35 280.25 221.47 278.54 231.86C276.83 242.26 271.56 254.94 270.99 258.78C270.8 260.08 268.31 265.52 264.6 272.52C257.39 286.12 245.55 305.63 236.95 312.26C223.92 322.3 217.58 330.28 209.25 331.98C200.92 333.69 185.11 325.93 185.11 325.93C193.8 318.74 199.92 290.97 193.23 272.6C187.32 256.38 189.96 237.94 190.66 233.84C190.75 233.29 190.81 233 190.81 233C190.81 233 188.18 231.83 184.11 230.22C182.56 229.61 180.8 228.93 178.9 228.24C170.91 225.3 160.39 221.95 152.21 221.18C146.88 220.68 142.19 220.08 138.33 219.51C131.14 218.44 126.86 217.48 126.86 217.48C126.86 217.48 125.56 218.01 123.83 219.24C121.44 220.94 118.24 223.99 116.54 228.87C116.18 229.9 115.86 230.94 115.56 231.97C113.46 239.34 113.04 246.53 115.04 251.09C116.09 253.48 114.99 253.48 112.94 252.7C110.53 251.78 106.8 249.78 103.72 249.31C98.0196 248.46 95.6696 248.31 95.8896 246.32C96.0996 244.33 94.6796 230.08 85.0596 228.09" stroke="#1D1D1B" stroke-width="0.4" stroke-linecap="round" stroke-linejoin="round"/>
<path d="M99.0898 273.74C99.0898 273.74 100.48 275 102.92 277.12C108 281.52 117.65 289.67 128.72 297.95C138.6 305.34 157.1 314 170.21 319.71C178.83 323.46 185.11 325.93 185.11 325.93" stroke="#1D1D1B" stroke-width="0.4" stroke-linecap="round" stroke-linejoin="round"/>
<path d="M79.9697 257.55C79.9697 257.55 93.7197 273.7 94.5697 274.23C95.4197 274.77 99.0897 273.74 99.0897 273.74C99.0897 273.74 89.7597 268.15 91.8997 260.03C91.8997 260.03 95.6397 254.37 112.41 261.2C112.41 261.2 113.96 260.97 113.57 256.5C113.48 255.48 113.28 254.23 112.94 252.7" stroke="#1D1D1B" stroke-width="0.4" stroke-linecap="round" stroke-linejoin="round"/>
<path d="M77.3001 240.84L75.8101 244.82C80.0801 251.02 79.9701 257.55 79.9701 257.55C79.9701 257.55 75.3401 249.88 71.9301 246.25C68.5101 242.62 55.6901 238.02 48.5301 226.81C48.5301 226.81 46.7501 227.24 45.3301 224.51" stroke="#1D1D1B" stroke-width="0.4" stroke-linecap="round" stroke-linejoin="round"/>
<path d="M73.7198 174.11C73.0698 174.46 72.5198 174.81 72.0398 175.18C67.7398 178.47 69.9298 182.4 70.2498 183.3C70.6098 184.3 73.1698 184.15 74.1698 185.44C75.1698 186.72 74.8798 187.64 74.5298 188.85C74.1698 190.06 70.1798 190.92 69.7498 191.99C69.3298 193.06 70.1798 196.19 72.1798 199.82C74.1698 203.45 85.3498 210.64 86.0598 211.21C86.2098 211.33 86.2298 212.17 86.1698 213.49C86.1098 214.76 85.9698 216.49 85.7898 218.47C85.5398 221.36 85.1998 224.78 84.9198 228.08C84.6498 231.11 84.4298 234.04 84.3498 236.35C84.0698 244.68 82.6298 244.69 82.2898 244.4C81.4498 243.7 77.2998 240.85 77.2998 240.85" stroke="#1D1D1B" stroke-width="0.4" stroke-linecap="round" stroke-linejoin="round"/>
<path d="M113.57 256.5C113.57 256.5 118.28 263.66 121.06 265.9C123.84 268.15 165.6 291 179.59 292.71C179.59 292.71 181.13 297.42 182.32 299.83C182.59 300.39 182.85 300.82 183.06 301.04C184.19 302.22 177.88 303.82 177.88 303.82C177.88 303.82 175.03 314.12 170.21 319.71" stroke="#1D1D1B" stroke-width="0.4" stroke-linecap="round" stroke-linejoin="round"/>
<path d="M184.11 230.23C184.11 230.23 182.5 231.56 180.89 234.48C178.69 238.47 176.49 245.41 178.4 255.96C178.55 256.83 178.74 257.72 178.95 258.64C183.69 278.86 184.08 294.46 182.32 299.83" stroke="#1D1D1B" stroke-width="0.4" stroke-linecap="round" stroke-linejoin="round"/>
<path d="M123.83 219.24C123.83 219.24 141.32 221.97 150.65 223.6C159.98 225.24 178.31 232.11 180.89 234.48" stroke="#1D1D1B" stroke-width="0.4" stroke-linecap="round" stroke-linejoin="round"/>
<path d="M115.56 231.97C115.56 231.97 129.93 235.5 143.46 240.48C156.98 245.47 178.4 255.96 178.4 255.96" stroke="#1D1D1B" stroke-width="0.4" stroke-linecap="round" stroke-linejoin="round"/>
<path d="M194.45 122.05C194.45 122.05 188.99 123.52 186.22 128.75C183.44 133.99 174.36 153.11 171.8 156.74C169.37 160.17 168.12 161.52 167.98 161.66" stroke="#1D1D1B" stroke-width="0.4" stroke-linecap="round" stroke-linejoin="round"/>
<path d="M167.31 160.05C167.31 160.05 163.68 167.92 158.12 172.33C152.57 176.75 143.17 179.74 142.17 180.88C141.76 181.35 139.16 185.64 136.22 191.37C132.11 199.36 127.32 210.14 126.88 217.2C126.87 217.29 126.86 217.39 126.86 217.48" stroke="#1D1D1B" stroke-width="0.4" stroke-linecap="round" stroke-linejoin="round"/>
<path d="M138.33 219.51L165.55 205.07C165.55 205.07 164.03 202.29 165.55 198.93C166.4 197.04 167.84 193.91 169.02 191.37C170.1 189.05 170.96 187.21 170.96 187.21" stroke="#1D1D1B" stroke-width="0.4" stroke-linecap="round" stroke-linejoin="round"/>
<path d="M132.49 161.67C132.49 161.67 135.62 168.13 135.34 170.55C135.05 172.97 129.57 177.18 131.28 179.45C132.99 181.73 135.14 182.16 134.53 183.66C134.32 184.16 132.86 187.13 131.04 191.1C127.45 198.92 122.45 210.62 122.73 215.2" stroke="#1D1D1B" stroke-width="0.4" stroke-linecap="round" stroke-linejoin="round"/>
<path d="M129.42 161.64C129.42 161.64 132.56 166.28 131.28 168.84C130 171.41 114.46 180.79 112.3 185.42" stroke="#1D1D1B" stroke-width="0.4" stroke-linecap="round" stroke-linejoin="round"/>
<path d="M131.04 191.1C131.04 191.1 134.98 191.33 136.22 191.37" stroke="#1D1D1B" stroke-width="0.4" stroke-linecap="round" stroke-linejoin="round"/>
<path d="M114.98 211.36C115.4 211.38 115.84 211.48 116.32 211.64C116.32 211.64 118.48 213.72 122.55 215.59C123.81 216.17 125.25 216.73 126.86 217.2" stroke="#1D1D1B" stroke-width="0.4" stroke-linecap="round" stroke-linejoin="round"/>
<path d="M85.7998 218.47C85.7998 218.47 92.9698 221.33 102.3 217.2C110.36 213.63 112.25 211.17 114.97 211.36" stroke="#1D1D1B" stroke-width="0.4" stroke-linecap="round" stroke-linejoin="round"/>
<path d="M112.19 206.21C111.04 207.42 107.68 209.18 103.29 210.86C97.8799 212.92 86.1699 213.49 86.1699 213.49" stroke="#1D1D1B" stroke-width="0.4" stroke-linecap="round" stroke-linejoin="round"/>
<path d="M109.77 202.03C109.77 202.03 112.69 204.31 112.62 205.45C112.61 205.67 112.46 205.91 112.19 206.2" stroke="#1D1D1B" stroke-width="0.4" stroke-linecap="round" stroke-linejoin="round"/>
<path d="M112.19 206.2C112.19 206.42 112.21 209.08 114.97 211.36H114.98" stroke="#1D1D1B" stroke-width="0.4" stroke-linecap="round" stroke-linejoin="round"/>
<path d="M87.9897 162.94C87.7997 163.03 87.5997 163.14 87.4097 163.25C81.9697 166.46 79.9697 175.18 79.9697 175.18" stroke="#1D1D1B" stroke-width="0.4" stroke-linecap="round" stroke-linejoin="round"/>
<path d="M79.9699 175.18C79.9699 175.18 77.6399 191.08 91.3699 201.17C97.1499 205.43 104.92 204.09 109.73 201.93C111.5 201.14 112.87 200.24 113.59 199.46C114.84 198.11 114.04 191.99 112.3 185.43C110.34 178.01 107.18 170.04 104.4 167.72C99.3499 163.51 93.3099 160.29 87.9999 162.94" stroke="#1D1D1B" stroke-width="0.4" stroke-linecap="round" stroke-linejoin="round"/>
<path d="M79.97 175.18C79.97 175.18 77.01 175.24 73.81 173.89C72.8 173.48 71.76 172.91 70.79 172.16C70.14 171.67 69.51 171.09 68.94 170.41C66.42 167.45 64.68 164.55 64.25 161.62C63.96 159.7 64.23 157.77 65.2 155.78C66.68 152.73 68.57 150.95 70.32 150.25C71.46 149.8 72.54 149.8 73.42 150.22C75.66 151.29 75.88 155.24 77.59 157.59C78.14 158.34 79.39 159.15 80.85 159.91C83.89 161.51 87.82 162.88 87.99 162.94H88" stroke="#1D1D1B" stroke-width="0.4" stroke-linecap="round" stroke-linejoin="round"/>
<path d="M72.0397 175.18L56.0097 169.66C56.0097 169.66 55.8897 169.48 55.6597 169.17C54.2597 167.19 48.8997 159.8 47.1497 159.52C46.9997 159.5 46.8997 159.36 46.8197 159.13C46.6297 158.56 46.6397 157.39 46.6997 155.87C46.7497 154.71 46.8397 153.35 46.9097 151.88C47.2097 145.39 47.0797 136.94 41.4797 135.7C36.2397 134.54 33.4997 143.04 32.2097 151.62C31.2497 158.06 31.1097 164.54 31.3397 167.01C31.4397 168.11 31.8297 169.21 32.4097 170.33C32.6397 170.77 32.8897 171.21 33.1797 171.66C35.8897 175.99 40.7797 180.52 42.0297 185.49" stroke="#1D1D1B" stroke-width="0.4" stroke-linecap="round" stroke-linejoin="round"/>
<path d="M53.1797 150.95C56.9897 148 61.2897 144.58 62.4197 143.28C64.5597 140.82 69.4697 142.43 70.3197 145.42C71.1797 148.41 70.3197 150.25 70.3197 150.25" stroke="#1D1D1B" stroke-width="0.4" stroke-linecap="round" stroke-linejoin="round"/>
<path d="M46.7002 155.87C46.7002 155.87 49.7302 153.6 53.1702 150.95" stroke="#1D1D1B" stroke-width="0.4" stroke-linecap="round" stroke-linejoin="round"/>
<path d="M64.1298 161.64C64.1298 161.64 63.1598 162.13 61.8998 162.95C59.5698 164.44 56.2198 167.03 56.0098 169.66" stroke="#1D1D1B" stroke-width="0.4" stroke-linecap="round" stroke-linejoin="round"/>
<path d="M102.92 277.1V277.12C102.97 277.35 103.41 279.43 104.06 282.44C105.64 289.84 108.47 302.79 109.74 307.35C111.55 313.86 114.71 343.13 114.62 345V363.9H250.38L253.1 345C253.1 345 254.52 339.3 255.82 328.64C256.57 322.52 250.52 315.36 255 306.38C259.49 297.41 264.6 272.52 264.6 272.52" stroke="#1D1D1B" stroke-width="0.4" stroke-linecap="round" stroke-linejoin="round"/>
<path d="M104.05 282.44C104.05 282.44 73.1004 329.56 69.2604 345L61.9004 366.57L114.62 363.9" stroke="#1D1D1B" stroke-width="0.4" stroke-linecap="round" stroke-linejoin="round"/>
<path d="M33.0902 171.72C33.0902 171.72 31.9402 172.97 32.0802 174.9C32.2302 176.82 35.7202 186.58 35.5002 189.99C35.2902 193.41 35.4302 196.47 37.5702 197.61C37.5702 197.61 36.7802 199.57 36.5702 202.56C36.3602 205.55 38.0102 214.42 40.9002 217.52" stroke="#1D1D1B" stroke-width="0.4" stroke-linecap="round" stroke-linejoin="round"/>
<path d="M169.03 191.37C169.03 191.37 171.93 204.11 184.38 209.96" stroke="#1D1D1B" stroke-width="0.4" stroke-linecap="round" stroke-linejoin="round"/>
<path d="M103.33 183.94C101.48 184.69 98.6304 184.58 97.0104 181.8C95.7304 179.61 95.3604 175.04 99.8004 174.11C102.01 173.65 103.69 175.43 104.82 177.89C105.96 180.34 105.18 183.19 103.33 183.94Z" stroke="#1D1D1B" stroke-width="0.4" stroke-linecap="round" stroke-linejoin="round"/>
<path d="M40.8999 217.52C40.8999 217.52 39.0799 222.11 45.3299 224.51L45.5999 222.38L40.8999 217.52Z" stroke="#1D1D1B" stroke-width="0.4" stroke-linecap="round" stroke-linejoin="round"/>
<path d="M44.3299 215.39C44.3299 215.39 45.6899 212.07 41.4799 208.37C41.4799 208.37 38.8499 209.08 40.1999 212.42C41.5599 215.77 44.3299 215.39 44.3299 215.39Z" stroke="#1D1D1B" stroke-width="0.4" stroke-linecap="round" stroke-linejoin="round"/>
<path d="M46.6098 202.03C47.6098 201 46.9298 198.4 45.7898 196.58C45.3598 195.9 43.2998 193.38 41.7698 194.62C39.8198 196.19 43.0498 205.72 46.6098 202.03Z" stroke="#1D1D1B" stroke-width="0.4" stroke-linecap="round" stroke-linejoin="round"/>
<path d="M53.6601 188.77C55.5801 187.5 53.8701 183.26 51.9501 181.52C51.1001 180.75 49.4101 179.87 47.8901 180.95C45.9001 182.37 46.4701 185.44 47.8901 187C49.3201 188.57 51.7401 190.03 53.6601 188.77Z" stroke="#1D1D1B" stroke-width="0.4" stroke-linecap="round" stroke-linejoin="round"/>
<path d="M65.0196 231.55C62.7396 233.23 57.0696 230.91 53.2896 225.79C49.5096 220.68 49.0596 214.72 51.3296 213.04C53.6096 211.36 58.5196 214.14 62.2996 219.25C66.0796 224.36 67.2896 229.87 65.0196 231.55Z" stroke="#1D1D1B" stroke-width="0.4" stroke-linecap="round" stroke-linejoin="round"/>
<path d="M68.37 233.99C65.57 237.28 56.81 233.77 51.73 226.91C46.65 220.04 46.51 211.69 49.98 209.12C53.45 206.55 60.39 210.04 65.46 216.91C70.54 223.77 70.75 231.19 68.37 233.99Z" stroke="#1D1D1B" stroke-width="0.4" stroke-linecap="round" stroke-linejoin="round"/>
<path d="M131.63 103.92C131.63 103.92 129.74 103.1 127.16 102.92C126.38 102.87 125.53 102.88 124.66 102.98C122.85 103.19 117.32 106.3 115.9 107.46C115.22 108.02 114.15 108.79 113.1 109C111.95 109.23 110.83 108.8 110.27 106.68" stroke="#1D1D1B" stroke-width="0.4" stroke-linecap="round" stroke-linejoin="round"/>
<path d="M107.07 109.58C107.07 109.58 107.17 109.93 107.42 110.46C107.74 111.15 108.3 112.15 109.2 113.11C109.31 113.23 109.41 113.36 109.49 113.51C110.67 115.48 109.8 119.86 110.59 121.54C110.95 122.31 111.48 123.22 112.55 123.64C113.49 124.01 114.87 123.99 116.96 123.15C118.1 122.69 119.45 121.99 121.06 120.96C121.06 120.96 122.68 120.22 120.3 119.34C117.92 118.46 116.87 122.91 116.87 122.91" stroke="#1D1D1B" stroke-width="0.4" stroke-linecap="round" stroke-linejoin="round"/>
<path d="M148.92 151.77C149.65 151.17 150.4 150.56 151.18 149.9C168.7 135.16 164.75 121.06 164.43 120.1C164.11 119.14 159.17 109.08 158.85 109.08C158.85 109.08 161.14 108.77 162.63 107.14C164.13 105.5 165.12 101.65 163.91 96.6295C162.7 91.6095 158.71 88.1595 155.77 88.4795C151.43 88.9495 152.71 94.0395 152.71 94.0395" stroke="#1D1D1B" stroke-width="0.4" stroke-linecap="round" stroke-linejoin="round"/>
<path d="M145.36 154.53C146.48 153.69 147.65 152.79 148.91 151.77" stroke="#1D1D1B" stroke-width="0.4" stroke-linecap="round" stroke-linejoin="round"/>
<path d="M133.38 161.19C133.75 161.08 134.13 160.96 134.53 160.82C135.46 160.49 136.46 160.06 137.57 159.5C138.87 158.84 140.3 158 141.89 156.96C142.97 156.25 144.12 155.44 145.35 154.53" stroke="#1D1D1B" stroke-width="0.4" stroke-linecap="round" stroke-linejoin="round"/>
<path d="M102.67 113.71C102.64 113.88 102.43 115.56 104.72 117.43C105.19 117.82 105.61 118.12 105.97 118.37C107.43 119.37 107.97 119.45 107.71 120.9C107.39 122.72 105.73 125.5 107.71 128.65C108.29 129.56 109.34 131.16 110.57 133.03C111.68 134.72 112.92 136.62 114.06 138.43C115.72 141.05 117.18 143.48 117.75 144.78C119.14 147.98 122.13 158.34 124.58 159.84C125.95 160.67 127.41 161.48 129.42 161.64C130.3 161.71 131.3 161.66 132.43 161.42C132.73 161.36 133.05 161.28 133.37 161.19" stroke="#1D1D1B" stroke-width="0.4" stroke-linecap="round" stroke-linejoin="round"/>
<path d="M123.09 117.01C123.3 117.36 123.44 117.73 123.46 118.07" stroke="#1D1D1B" stroke-width="0.4" stroke-linecap="round" stroke-linejoin="round"/>
<path d="M116.25 117.32C116.25 117.32 117.48 114.55 119.4 114.71C120.87 114.83 122.4 115.88 123.08 117.01" stroke="#1D1D1B" stroke-width="0.4" stroke-linecap="round" stroke-linejoin="round"/>
<path d="M123.08 117.01H123.09C123.36 117.04 128.27 117.63 132.22 118.87C136.28 120.16 139.49 119.89 140.34 121.7C141.19 123.52 141.68 126.88 141.62 127.53" stroke="#1D1D1B" stroke-width="0.4" stroke-linecap="round" stroke-linejoin="round"/>
<path d="M112.55 123.64C112.55 123.64 111.55 126.72 112.27 128.72C112.89 130.46 113.04 131.41 113.27 132.26C113.3 132.39 113.33 132.51 113.37 132.63" stroke="#1D1D1B" stroke-width="0.4" stroke-linecap="round" stroke-linejoin="round"/>
<path d="M114.08 109.87C115.4 110.85 117.94 112.15 120.95 110.7C125.39 108.57 126.74 107.16 127.16 102.92" stroke="#1D1D1B" stroke-width="0.4" stroke-linecap="round" stroke-linejoin="round"/>
<path d="M113.1 109C113.1 109 113.44 109.39 114.06 109.85" stroke="#1D1D1B" stroke-width="0.4" stroke-linecap="round" stroke-linejoin="round"/>
<path d="M114.06 109.85L114.08 109.87C114.25 110.06 115.77 111.61 119.96 112.77C120.02 112.79 120.07 112.8 120.13 112.82" stroke="#1D1D1B" stroke-width="0.4" stroke-linecap="round" stroke-linejoin="round"/>
<path d="M107.87 106.38C107.87 106.38 107.86 106.53 107.88 106.77C107.91 107.2 108.04 107.92 108.52 108.66C108.78 109.07 109.15 109.48 109.68 109.85" stroke="#1D1D1B" stroke-width="0.4" stroke-linecap="round" stroke-linejoin="round"/>
<path d="M117.87 134C119.87 131.93 122.59 130.5 122.59 130.5C124.01 129.68 136.04 123.93 138.73 127.23C138.88 127.4 138.99 127.6 139.08 127.83C140.82 132.35 131.28 132.03 126.9 134.02C123.61 135.52 122.17 137.44 120.77 138.44C120.31 138.77 119.85 139 119.32 139.08C118.23 139.24 117.15 138.8 116.63 137.98C116.14 137.21 116.15 136.11 117.1 134.88C117.34 134.58 117.6 134.28 117.87 134Z" stroke="#1D1D1B" stroke-width="0.4" stroke-linecap="round" stroke-linejoin="round"/>
<path d="M117.87 133.99C117.94 134.16 118.7 135.96 119.44 135.68C120.21 135.39 125.58 130.57 138.73 127.23H138.74" stroke="#1D1D1B" stroke-width="0.4" stroke-linecap="round" stroke-linejoin="round"/>
<path d="M119.44 135.68C119.44 135.68 119.41 137.49 120.77 138.43" stroke="#1D1D1B" stroke-width="0.4" stroke-linecap="round" stroke-linejoin="round"/>
<path d="M137.22 82.6504C137.22 82.6504 138.8 87.2004 140.39 89.5504C141.66 91.4304 144.56 94.0004 143.81 95.2504C143.06 96.5004 141.28 96.6404 139.97 93.0104" stroke="#1D1D1B" stroke-width="0.4" stroke-linecap="round" stroke-linejoin="round"/>
<path d="M109.49 113.49V113.51C109.52 113.74 109.61 115.65 105.97 118.37" stroke="#1D1D1B" stroke-width="0.4" stroke-linecap="round" stroke-linejoin="round"/>
<path d="M124.58 138.79C124.58 138.79 125.26 136.84 131.42 135.52" stroke="#1D1D1B" stroke-width="0.4" stroke-linecap="round" stroke-linejoin="round"/>
<path d="M75.6602 122.67L70.7002 140.1" stroke="#1D1D1B" stroke-width="0.4" stroke-linecap="round" stroke-linejoin="round"/>
<path d="M83.95 133.01L75.21 142.81" stroke="#1D1D1B" stroke-width="0.4" stroke-linecap="round" stroke-linejoin="round"/>
<path d="M91.6902 142.81L78.2002 147.27" stroke="#1D1D1B" stroke-width="0.4" stroke-linecap="round" stroke-linejoin="round"/>
<path d="M63.6299 123.25L65.3899 138.59" stroke="#1D1D1B" stroke-width="0.4" stroke-linecap="round" stroke-linejoin="round"/>
<path d="M100.68 105.97C100.72 105.86 101.38 104.09 102.65 103.08C103.97 102.05 105.19 102.66 105.97 102.12C106.75 101.59 106.82 100.27 107.99 99.2003C109.17 98.1303 111.27 96.3904 120.53 93.8604" stroke="#1D1D1B" stroke-width="0.4" stroke-linecap="round" stroke-linejoin="round"/>
<path d="M99.2598 101.08C99.2598 101.08 99.7698 99.3402 101.12 98.3502C102.47 97.3502 102.76 98.0302 103.69 97.6702C104.61 97.3202 105.23 94.7102 106.18 93.8602C107.49 92.6902 109.95 90.5502 118.82 89.9102" stroke="#1D1D1B" stroke-width="0.4" stroke-linecap="round" stroke-linejoin="round"/>
<path d="M135 138.43C135 138.43 135.92 139.92 135.96 141.41C136.04 144.57 138.52 150.66 145.35 154.53H145.36" stroke="#1D1D1B" stroke-width="0.4" stroke-linecap="round" stroke-linejoin="round"/>
<path d="M131.04 140.79C131.04 140.79 132.1 141.86 132.35 143.28C132.68 145.11 132.92 152.55 141.89 156.96" stroke="#1D1D1B" stroke-width="0.4" stroke-linecap="round" stroke-linejoin="round"/>
<path d="M127.15 142.81C127.15 142.81 127.97 143.95 128.31 145.04C128.86 146.81 128.62 154.36 137.57 159.5" stroke="#1D1D1B" stroke-width="0.4" stroke-linecap="round" stroke-linejoin="round"/>
<path d="M124.09 144.38C124.09 144.38 124.58 144.88 124.58 147.27C124.58 149.91 125.56 157.46 133.37 161.19H133.38" stroke="#1D1D1B" stroke-width="0.4" stroke-linecap="round" stroke-linejoin="round"/>
<path d="M138.74 136.27C138.74 136.27 139.74 138.43 139.75 139.83C139.78 142.64 141.52 148.64 148.91 151.77H148.92" stroke="#1D1D1B" stroke-width="0.4" stroke-linecap="round" stroke-linejoin="round"/>
<path d="M55.6603 169.17C55.6603 169.17 48.8403 172.58 46.6003 175.68C44.9103 178.04 42.0503 182.24 42.0303 185.49C42.0203 186.51 42.3003 187.44 42.9803 188.18C42.9803 188.18 38.5803 191.92 37.5703 197.61" stroke="#1D1D1B" stroke-width="0.4" stroke-linecap="round" stroke-linejoin="round"/>
<path d="M46.8201 159.13C46.8201 159.13 41.1001 156.53 36.4801 159.89C31.8701 163.25 32.4101 170.33 32.4101 170.33" stroke="#1D1D1B" stroke-width="0.4" stroke-linecap="round" stroke-linejoin="round"/>
<path d="M32.2197 151.62C32.2197 151.62 36.6597 144.67 46.8197 151.88" stroke="#1D1D1B" stroke-width="0.4" stroke-linecap="round" stroke-linejoin="round"/>
<path d="M53.1699 150.95C53.4799 151.15 60.0299 155.24 61.8899 162.94" stroke="#1D1D1B" stroke-width="0.4" stroke-linecap="round" stroke-linejoin="round"/>
<path d="M70.7905 172.17C70.7505 171.83 69.9805 164.07 80.8405 159.92" stroke="#1D1D1B" stroke-width="0.4" stroke-linecap="round" stroke-linejoin="round"/>
<path d="M190.66 233.84C190.66 233.84 204.86 238.5 215 248.28" stroke="#1D1D1B" stroke-width="0.4" stroke-linecap="round" stroke-linejoin="round"/>
<path d="M131.59 167.96C131.59 167.96 131.79 169.01 135.34 170.55" stroke="#1D1D1B" stroke-width="0.4" stroke-miterlimit="10"/>
<path d="M144.95 109C144.95 109 148.62 113.84 149.09 116.72C149.56 119.6 151.17 121.14 152.33 120.51C152.77 120.27 153.36 119.32 151.11 115.92" stroke="#1D1D1B" stroke-width="0.4" stroke-miterlimit="10" stroke-linecap="round"/>
<path d="M220.76 171.52C220.76 171.52 221.81 181.71 218.95 186C216.09 190.29 218.47 192.1 218.47 192.1C218.47 192.1 220.76 193.83 221.71 188.78" stroke="#1D1D1B" stroke-width="0.4" stroke-miterlimit="10" stroke-linecap="round"/>
<path d="M222.59 282.44C222.59 282.44 223.61 292.14 221.99 295.75C220.63 298.78 219.79 303.27 222.51 302.97C225.23 302.67 225.13 297.43 225.23 293.43" stroke="#1D1D1B" stroke-width="0.4" stroke-miterlimit="10" stroke-linecap="round"/>
<path d="M99.0897 313.04C99.0897 313.04 99.0897 318.66 95.6497 322.96C91.7397 327.85 91.9097 329.23 92.5697 330.09C93.2297 330.95 95.5997 331.99 96.7997 326.38" stroke="#1D1D1B" stroke-width="0.4" stroke-miterlimit="10" stroke-linecap="round"/>
</g>
</g>
<rect x="7" y="7" width="224" height="336" rx="10" stroke="#F6B95B" stroke-width="4"/>
</g>
<defs>
<filter id="filter0_d_399_3286" x="0" y="0" width="244" height="356" filterUnits="userSpaceOnUse" color-interpolation-filters="sRGB">
<feFlood flood-opacity="0" result="BackgroundImageFix"/>
<feColorMatrix in="SourceAlpha" type="matrix" values="0 0 0 0 0 0 0 0 0 0 0 0 0 0 0 0 0 0 127 0" result="hardAlpha"/>
<feOffset dx="3" dy="3"/>
<feGaussianBlur stdDeviation="4"/>
<feComposite in2="hardAlpha" operator="out"/>
<feColorMatrix type="matrix" values="0 0 0 0 0 0 0 0 0 0 0 0 0 0 0 0 0 0 0.2 0"/>
<feBlend mode="normal" in2="BackgroundImageFix" result="effect1_dropShadow_399_3286"/>
<feBlend mode="normal" in="SourceGraphic" in2="effect1_dropShadow_399_3286" result="shape"/>
</filter>
<clipPath id="clip0_399_3286">
<rect x="5" y="5" width="228" height="340" rx="12" fill="white"/>
</clipPath>
<clipPath id="clip1_399_3286">
<rect width="228" height="340" fill="white" transform="translate(5 5)"/>
</clipPath>
</defs>
</svg>
