<svg width="304" height="428" viewBox="0 0 304 428" fill="none" xmlns="http://www.w3.org/2000/svg">
<g filter="url(#filter0_d_523_3279)">
<rect x="11" y="11" width="276" height="400" rx="6" fill="white"/>
<rect x="8" y="8" width="282" height="406" rx="9" stroke="#F6B95B" stroke-width="6"/>
<g clip-path="url(#clip0_523_3279)">
<path d="M113.054 55.9067C112.01 56.0724 111.233 56.0547 110.724 55.8536C110.318 55.7017 109.639 55.2421 108.687 54.4746L108.138 54.0236C107.555 53.345 107.339 52.8613 107.492 52.5724C107.626 52.3106 108.085 52.264 108.869 52.4326C109.536 52.6017 110.277 52.6736 111.092 52.6483C112.023 52.6227 113.108 52.4839 114.345 52.232C114.912 52.1399 115.41 52.1676 115.838 52.3149C116.217 52.4488 116.486 52.6755 116.644 52.9949C116.794 53.2693 116.828 53.5553 116.748 53.853C116.65 54.1778 116.446 54.4421 116.136 54.6459C115.678 54.9268 115.222 55.1604 114.768 55.3467C114.273 55.5647 113.769 55.7376 113.257 55.8654L113.054 55.9067ZM113.911 59.6013C113.146 59.8742 112.454 60.1559 111.833 60.4464C111.469 60.6143 111.044 60.8298 110.559 61.0928C109.88 61.442 109.399 61.6104 109.115 61.5978C108.809 61.5898 108.138 61.3982 107.101 61.0231C105.911 60.5855 105.441 60.1184 105.691 59.6218C105.911 59.202 106.394 58.9864 107.141 58.9749C109.108 58.6213 110.624 58.3009 111.69 58.0134C113.139 57.6481 114.627 57.1339 116.156 56.4709C116.408 56.3259 116.67 56.1786 116.945 56.0289C117.093 55.9518 117.293 55.8408 117.545 55.6957C118.088 55.374 118.488 55.2104 118.745 55.2051C119.096 55.2039 119.703 55.4204 120.564 55.8547C121.241 56.3031 121.468 56.7845 121.244 57.299C121.021 57.8135 120.443 58.1421 119.512 58.2849C118.985 58.3452 118.162 58.5012 117.041 58.7527C116.326 58.9218 115.37 59.1751 114.174 59.5126L113.911 59.6013ZM114.94 60.5172C113.41 60.8287 112.184 61.6529 111.261 62.9899C110.387 64.223 110.071 65.4363 110.314 66.6297C110.625 68.1608 111.539 69.37 113.054 70.2572C114.489 71.0906 115.96 71.3539 117.467 71.0469C118.952 70.7446 120.165 69.97 121.106 68.7231C122.048 67.4762 122.379 66.166 122.1 64.7925C121.752 63.0812 120.82 61.8406 119.305 61.0705C117.97 60.381 116.515 60.1965 114.94 60.5172ZM115.544 63.3136C116.286 63.1625 117.077 63.2477 117.915 63.5694C118.835 63.9449 119.359 64.4478 119.487 65.0783C119.62 65.7313 119.471 66.3244 119.04 66.8576C118.574 67.4449 117.835 67.8417 116.822 68.0478C115.9 68.2357 115.01 68.0651 114.153 67.5362C113.382 67.0836 112.934 66.5534 112.811 65.9454C112.701 65.405 112.908 64.8703 113.433 64.3413C113.985 63.8303 114.689 63.4877 115.544 63.3136ZM124.341 50.2317C124.213 49.6013 123.801 48.9582 123.105 48.3026C122.676 47.921 121.916 47.3489 120.824 46.5865L120.539 46.3982C120.309 46.1871 120.275 45.9597 120.436 45.7158C120.62 45.4673 120.959 45.2927 121.454 45.1919C122.016 45.0774 122.687 45.0932 123.467 45.2393C124.372 45.4301 125.362 45.8031 126.435 46.3583C126.995 46.6899 127.351 47.0042 127.505 47.3011C127.641 47.5079 127.728 47.8772 127.766 48.4088L127.959 49.5302L130.458 61.8243C130.898 61.6877 131.287 61.5264 131.624 61.3405C131.836 61.2272 132.085 61.0709 132.372 60.8716C132.673 60.6228 132.932 60.4529 133.147 60.3621C133.494 60.2213 133.932 60.1319 134.463 60.0941C135.45 60.1044 136.137 60.2575 136.525 60.5537C136.863 60.8365 137.038 61.2933 137.049 61.9241C137.052 62.7443 136.781 63.2566 136.237 63.4612C135.914 63.5975 135.189 63.663 134.063 63.6577C133.406 63.6509 132.89 63.6504 132.517 63.6561C131.886 63.6672 131.313 63.7254 130.795 63.8308C131.358 66.6004 131.654 68.9787 131.683 70.9659C131.687 72.1376 131.563 73.5462 131.312 75.1919L131.148 76.4565C130.832 77.6697 130.609 78.1842 130.477 77.9999C130.405 77.8739 130.349 77.2523 130.309 76.1348C130.267 75.5807 130.157 74.9817 129.979 74.3379C129.874 73.9371 129.665 73.2529 129.351 72.285C128.937 71.0562 128.609 70.0208 128.368 69.1789C127.963 67.7608 127.597 66.2523 127.272 64.6536L124.341 50.2317Z" fill="#410A0A"/>
<path d="M101.949 77.5134C102.087 78.1889 101.929 78.7955 101.476 79.3333C101.068 79.8619 100.526 80.1949 99.8514 80.3324C99.1315 80.4789 98.4806 80.3887 97.8988 80.0617C97.2944 79.7392 96.9235 79.2403 96.7862 78.5648C96.6489 77.8893 96.7932 77.2737 97.2191 76.718C97.6316 76.2119 98.1978 75.8855 98.9177 75.739C99.5701 75.6061 100.196 75.6896 100.796 75.9896C101.428 76.33 101.812 76.8379 101.949 77.5134Z" fill="#410A0A"/>
<path d="M90.4414 79.8567C90.5787 80.5322 90.4209 81.1388 89.9679 81.6766C89.56 82.2052 89.0185 82.5382 88.3436 82.6756C87.6237 82.8222 86.9728 82.732 86.3909 82.405C85.7865 82.0825 85.4157 81.5835 85.2784 80.908C85.1411 80.2325 85.2854 79.6169 85.7112 79.0612C86.1238 78.5551 86.69 78.2288 87.4099 78.0822C88.0623 77.9494 88.6884 78.0329 89.2883 78.3328C89.9197 78.6732 90.3041 79.1812 90.4414 79.8567Z" fill="#410A0A"/>
<path d="M65.9548 60.0105C65.9586 59.7986 65.8543 59.5737 65.6419 59.3355C65.5424 59.1917 65.321 58.9671 64.9778 58.6618C64.5759 58.2981 64.3206 58.0218 64.2119 57.8329C64.0354 57.5406 64.0413 57.2814 64.2296 57.0555C64.6601 56.5223 65.4566 56.407 66.6193 56.7096C67.6827 56.9854 68.5893 57.4691 69.339 58.1606C69.9442 58.7174 70.2251 59.2347 70.1816 59.7125C70.1511 60.0236 69.8558 60.5878 69.2957 61.4053L68.5568 62.611C68.8855 62.6144 69.2186 62.5818 69.5561 62.513C69.7585 62.4718 70.0262 62.4056 70.3591 62.3144C70.9123 62.1548 71.3219 62.0949 71.5876 62.1345C72.0425 62.1826 72.5364 62.422 73.0691 62.8529C73.5568 63.2929 73.8847 63.7537 74.0529 64.2353C74.2074 64.6494 74.2379 65.0301 74.1445 65.3774C74.0465 65.7022 73.8717 65.9371 73.6201 66.0821C73.373 66.2497 73.1232 66.2888 72.8708 66.1995C72.5509 66.124 72.1993 66.008 71.8161 65.8515C71.5861 65.7577 71.2119 65.5877 70.6933 65.3415C70.071 65.0462 69.5817 64.8292 69.2256 64.6907C68.6441 64.4809 68.0988 64.334 67.5898 64.25C66.3887 65.9484 65.337 67.1709 64.4345 67.9174C63.5949 68.6277 62.3389 69.3642 60.6665 70.1268C59.992 70.3814 59.4477 70.5274 59.0336 70.5648C58.687 70.5885 58.4999 70.5328 58.4725 70.3977C58.4404 70.2401 58.5817 70.0706 58.8963 69.8893C59.2783 69.6943 59.7731 69.5349 60.3805 69.4112C61.4458 68.8895 62.6184 67.4548 63.8984 65.1072C65.0532 63.0665 65.7458 61.4599 65.976 60.2875L65.9548 60.0105ZM55.9817 62.6392C55.9542 62.5041 55.8637 62.3467 55.71 62.167C55.6421 62.0635 55.4772 61.8861 55.2152 61.6346C54.777 61.208 54.4991 60.8777 54.3812 60.6437C54.2088 60.2567 54.2979 59.9455 54.6483 59.71C55.282 59.3699 56.0316 59.3697 56.8972 59.7093C57.7628 60.0489 58.5234 60.621 59.1789 61.4254C59.617 61.8521 59.7604 62.327 59.6091 62.8503C59.529 63.1479 59.3029 63.534 58.9308 64.0084L58.8502 64.1303C59.026 64.1883 59.2467 64.2372 59.5125 64.2768C59.6791 64.2898 59.9178 64.3115 60.2286 64.3421C60.8906 64.3714 61.3523 64.4532 61.6139 64.5876C62.0559 64.8024 62.3342 65.2499 62.4491 65.9299C62.4697 66.723 62.2375 67.3096 61.7525 67.6897C61.2675 68.0699 60.8014 68.0241 60.3541 67.5524L60.1373 67.3504C59.7174 67.0138 59.3811 66.7423 59.1283 66.5358C58.6543 66.1634 58.2549 65.8695 57.93 65.6543C57.0736 66.7432 56.0706 67.7447 54.9211 68.6588C53.6052 69.6771 52.302 70.4114 51.0113 70.8618C50.5167 71.0798 50.0961 71.2006 49.7495 71.2243C49.4479 71.2388 49.2632 71.1944 49.1953 71.0909C49.1453 70.9604 49.2349 70.8249 49.4641 70.6845C49.7562 70.5077 50.1632 70.378 50.6852 70.2951C51.2522 70.2031 52.1049 69.3846 53.2434 67.8397C54.4536 66.1863 55.3507 64.4912 55.9348 62.7543L55.9817 62.6392ZM66.5688 74.0953C63.8562 74.8118 61.5017 75.5609 59.5052 76.3427C58.3991 76.779 57.1785 77.344 55.8436 78.038C54.6525 78.6322 53.7688 78.9529 53.1926 78.9999C52.4049 79.043 51.1029 78.804 49.2867 78.2828C48.6331 78.0641 48.1122 77.8068 47.724 77.5106C47.3946 77.2729 47.1911 77.0212 47.1137 76.7556C47.0679 76.5304 47.1325 76.3297 47.3075 76.1533C47.4871 75.9995 47.7615 75.9085 48.1306 75.8802C49.7736 75.7801 52.5409 75.2753 56.4325 74.3656C59.4467 73.6345 62.8184 72.7604 66.5475 71.7431C67.9374 71.3194 69.1291 70.9008 70.1228 70.4874C70.6848 70.2557 71.3029 69.954 71.977 69.5823C72.5928 69.2693 73.0807 69.0761 73.4406 69.0028C73.9626 68.92 74.8002 68.9488 75.9533 69.0891C76.584 69.1952 77.0642 69.4257 77.3941 69.7806C77.6652 70.0771 77.797 70.4372 77.7894 70.8608C77.7951 71.2348 77.6905 71.5844 77.4754 71.9096C77.2604 72.2347 77.0066 72.4271 76.7142 72.4867C76.4667 72.5371 76.217 72.5762 75.9649 72.6041C75.8254 72.609 75.571 72.6256 75.2019 72.6539C74.2567 72.7292 73.3385 72.8223 72.4474 72.9334C70.9039 73.1774 68.9781 73.5578 66.6701 74.0747L66.5688 74.0953ZM70.0805 80.1335C69.9344 79.5301 69.6577 78.9181 69.2504 78.2976C68.8973 77.713 68.5583 77.313 68.2334 77.0978C67.7457 76.6578 67.616 76.2504 67.8444 75.8756C68.0503 75.5054 68.4548 75.3058 69.0581 75.2767C69.6659 75.2702 70.344 75.437 71.0926 75.777C71.7644 76.0857 72.4344 76.5003 73.1025 77.0208C73.4232 77.3307 73.611 77.6207 73.666 77.8909C73.7026 78.071 73.69 78.355 73.6283 78.7427L73.57 79.4932C73.8526 80.5378 74.0132 81.443 74.0517 82.209C74.0758 82.6731 74.0529 83.2522 73.9832 83.9464C73.9481 84.2349 73.9218 84.4513 73.9043 84.5956C73.8871 84.857 73.8902 85.1026 73.9135 85.3324C74.9206 86.2528 75.2089 86.9796 74.7784 87.5128C74.4376 87.9105 73.6935 88.2262 72.5461 88.4598C71.8533 88.6243 71.2213 88.7999 70.6501 88.9866C70.3172 89.0778 69.9012 89.2212 69.4021 89.4166C68.7501 89.6666 68.2305 89.8193 67.8435 89.8746C67.2811 89.9892 66.5294 90.0367 65.5883 90.0173C65.3531 91.0501 65.0105 91.6122 64.5606 91.7039C64.1106 91.7955 63.6298 91.3893 63.118 90.4852C62.8457 89.8372 62.5707 89.0607 62.2931 88.1559C62.1158 87.6292 61.8679 86.8707 61.5494 85.8804L61.0917 84.3204C60.9552 83.8793 60.7062 83.461 60.3447 83.0656C60.1323 82.8275 59.7868 82.511 59.3082 82.116L58.8003 81.6918C58.0373 81.0499 57.7631 80.5078 57.9777 80.0655C58.1565 79.6774 58.7252 79.4209 59.6838 79.296C60.8728 79.3822 61.8575 79.6741 62.6381 80.1717C63.3691 80.656 63.889 81.3122 64.1979 82.1403L65.2011 81.1974C66.0807 80.3383 66.7387 79.8291 67.1749 79.6699C67.9123 79.3791 68.6223 79.6449 69.3049 80.4673C69.7846 81.2137 69.6628 81.8247 68.9395 82.3003C68.4858 82.6037 67.5077 82.9788 66.0054 83.4254L64.4875 83.9103L65.3388 88.0984C66.5532 87.7339 67.7023 87.3358 68.7859 86.9041C69.6538 86.5632 70.5485 86.1817 71.4701 85.7596L70.0805 80.1335Z" fill="#410A0A"/>
<path d="M159.653 126.271C160.675 126.153 161.674 126.141 162.591 126.2C162.097 131.188 160.511 132.847 155.292 135.353C151.754 137.059 148.768 135.529 147.216 134.377L147.193 134.353C146.464 133.812 146.064 133.353 146.064 133.353C147.299 133.106 148.556 132.2 149.356 131.541C151.025 130.177 157.525 126.518 159.653 126.271Z" fill="#232322"/>
<path d="M141.821 138.659C141.856 138.93 141.962 141.177 137.684 144.377C137.26 144.083 136.767 143.73 136.214 143.271C133.523 141.071 133.769 139.094 133.805 138.906C135.497 139.683 138.083 139.259 139.388 135.071C139.764 135.883 140.422 137.059 141.48 138.188C141.61 138.33 141.727 138.483 141.821 138.659Z" fill="#232322"/>
<path d="M154.528 145.518C157.325 146.553 155.421 147.424 155.421 147.424C153.529 148.636 151.942 149.459 150.602 150L150.496 149.718C150.496 149.718 151.73 144.483 154.528 145.518Z" fill="#472B47"/>
<path d="M155.081 167.976C154.54 168.376 153.999 168.647 153.376 168.741C152.095 168.929 150.826 168.412 150.214 167.447C149.638 166.541 149.65 165.247 150.767 163.8C151.049 163.447 151.355 163.094 151.672 162.765C151.754 162.953 152.648 165.071 153.517 164.741C153.517 164.741 153.482 166.871 155.081 167.976Z" fill="#472B47"/>
<path d="M176.603 155.506C178.649 160.823 167.435 160.447 162.286 162.788C158.419 164.553 156.727 166.812 155.081 167.988C153.482 166.87 153.518 164.741 153.518 164.741C154.423 164.4 160.735 158.729 176.192 154.8C176.368 155 176.497 155.235 176.603 155.506Z" fill="white"/>
<path d="M157.22 158.647C158.889 157.682 173.03 150.918 176.192 154.8C160.734 158.729 154.422 164.4 153.517 164.741C152.647 165.071 151.754 162.953 151.672 162.765C154.023 160.329 157.22 158.647 157.22 158.647Z" fill="white"/>
<path d="M237.232 280.224C237.338 279.577 237.409 279.235 237.409 279.235C237.409 279.235 234.317 277.859 229.533 275.965C227.711 275.247 225.643 274.447 223.409 273.635L223.468 273.459C223.574 271.33 226.23 260.4 229.851 252.13C230.838 249.871 231.896 247.812 233.001 246.188C238.149 238.588 239.031 234.318 239.031 234.318C231.684 229.6 231.684 219.283 231.684 219.283C232.025 215.835 231.32 196.247 240.911 187.588C251.961 177.624 268.029 171.93 295.734 173.683C295.734 173.683 321.264 184.788 329.974 195.318C338.673 205.847 350.227 234.506 338.508 254.941C338.508 254.941 342.528 265.671 340.518 277.894C338.508 290.13 332.314 305.047 331.644 309.565C331.42 311.094 328.493 317.494 324.133 325.73C315.658 341.73 301.74 364.683 291.632 372.483C276.316 384.294 268.863 393.683 259.072 395.683C249.281 397.694 230.697 388.565 230.697 388.565C240.911 380.106 248.105 347.435 240.241 325.824C233.295 306.741 236.398 285.047 237.221 280.224H237.232Z" fill="#AF77AC"/>
<path d="M324.144 325.729C324.144 325.729 318.137 355.012 312.859 365.565C307.593 376.13 314.705 384.553 313.823 391.753C312.295 404.294 310.626 411 310.626 411L307.429 433.235H147.851V411C147.957 408.8 144.243 374.365 142.115 366.706C140.622 361.341 137.296 346.106 135.439 337.4C134.675 333.859 134.157 331.412 134.099 331.141C140.07 336.318 151.413 345.906 164.425 355.647C176.038 364.341 197.784 374.529 213.194 381.247C223.326 385.659 230.708 388.565 230.708 388.565C230.708 388.565 249.292 397.694 259.083 395.682C268.874 393.682 276.327 384.294 291.643 372.482C301.751 364.682 315.669 341.729 324.144 325.729Z" fill="#1B2149"/>
<path d="M295.746 173.683C268.04 171.93 251.972 177.624 240.923 187.588C231.331 196.247 232.037 215.835 231.696 219.283C231.684 219.447 231.661 219.588 231.637 219.671C231.132 221.565 221.34 230.353 219.448 230.612C217.567 230.859 214.934 226.965 214.182 225.706C214.123 225.624 214.1 225.506 214.076 225.365C213.853 223.494 216.591 217.259 216.944 215.283C217.261 213.506 212.536 200.365 210.573 195.318C210.738 195.141 212.207 193.553 215.063 189.518C218.073 185.247 228.746 162.753 232.013 156.588C235.269 150.435 241.687 148.706 241.687 148.706C270.92 153.294 295.746 173.683 295.746 173.683Z" fill="#D6BA47"/>
<path d="M240.253 325.824C248.117 347.435 240.923 380.106 230.708 388.565C230.708 388.565 223.327 385.659 213.194 381.247C218.86 374.671 222.21 362.553 222.21 362.553C222.21 362.553 229.627 360.671 228.299 359.282C228.052 359.024 227.746 358.518 227.429 357.859C229.498 351.541 229.039 333.188 223.468 309.4C223.221 308.318 222.997 307.271 222.821 306.247C220.576 293.835 223.162 285.671 225.748 280.977C227.64 277.541 229.533 275.977 229.533 275.977C234.317 277.859 237.408 279.235 237.408 279.235C237.408 279.235 237.338 279.577 237.232 280.224C236.409 285.047 233.306 306.741 240.253 325.824Z" fill="#BCA339"/>
<path d="M224.15 141.082C224.796 139.106 224.855 135.906 224.855 135.906C229.698 140.506 233.894 147.882 233.894 147.882C236.515 148.012 239.113 148.294 241.687 148.706C241.687 148.706 235.269 150.435 232.013 156.588C228.746 162.753 218.073 185.247 215.064 189.518C212.207 193.553 210.738 195.141 210.573 195.306C210.174 194.294 209.892 193.6 209.786 193.412C209.163 192.282 211.925 188.388 211.925 186.506C211.925 184.623 207.94 168.741 207.94 168.741C207.94 168.741 212.83 155.812 216.944 150.565C218.837 148.153 222.763 143.694 223.762 142.012C223.915 141.765 224.044 141.447 224.15 141.082Z" fill="#BCA339"/>
<path d="M239.043 234.318C239.043 234.318 238.161 238.588 233.013 246.188C231.908 247.812 230.85 249.87 229.862 252.129C215.228 245.247 211.819 230.259 211.819 230.259H211.808C213.077 227.529 214.088 225.365 214.088 225.365C214.111 225.506 214.135 225.623 214.194 225.706C214.946 226.965 217.579 230.859 219.46 230.612C221.352 230.353 231.144 221.565 231.649 219.67C231.673 219.588 231.696 219.447 231.708 219.282C231.708 219.282 231.708 229.6 239.054 234.318H239.043Z" fill="#BCA339"/>
<path d="M229.533 275.965C229.533 275.965 227.641 277.541 225.748 280.977C222.716 278.188 201.17 270.106 190.203 268.177C179.236 266.259 158.678 263.047 158.678 263.047C160.711 261.6 162.239 260.977 162.239 260.977C162.239 260.977 167.27 262.106 175.722 263.365C180.259 264.035 185.772 264.741 192.037 265.33C201.652 266.235 214.017 270.177 223.409 273.635C225.642 274.447 227.711 275.247 229.533 275.965Z" fill="#D6BA47"/>
<path d="M134.099 331.141C131.231 328.647 129.597 327.165 129.597 327.165C129.597 327.165 118.63 320.588 121.145 311.035C121.145 311.035 125.542 304.376 145.254 312.412C145.254 312.412 147.076 312.141 146.617 306.882C146.617 306.882 152.153 315.306 155.421 317.941C158.689 320.588 207.775 347.471 224.22 349.482C224.22 349.482 226.03 355.023 227.429 357.859C227.746 358.518 228.052 359.024 228.298 359.282C229.627 360.671 222.21 362.553 222.21 362.553C222.21 362.553 218.86 374.671 213.194 381.247C197.784 374.529 176.038 364.341 164.425 355.647C151.413 345.906 140.07 336.318 134.099 331.141Z" fill="#D6BA47"/>
<path d="M223.468 309.4C229.039 333.188 229.498 351.541 227.429 357.859C226.03 355.023 224.22 349.482 224.22 349.482C207.776 347.47 158.689 320.588 155.422 317.941C152.154 315.306 146.617 306.882 146.617 306.882C146.512 305.682 146.277 304.212 145.877 302.412C148.287 303.329 149.58 303.329 148.345 300.518C145.994 295.153 146.488 286.694 148.957 278.023C148.957 278.023 165.848 282.176 181.751 288.035C197.643 293.906 222.821 306.247 222.821 306.247C222.997 307.271 223.221 308.318 223.468 309.4Z" fill="#D6BA47"/>
<path d="M229.851 252.129C226.23 260.4 223.574 271.329 223.468 273.459L223.409 273.635C214.017 270.176 201.652 266.235 192.037 265.329C185.772 264.741 180.259 264.035 175.722 263.365L207.717 246.376C207.717 246.376 205.93 243.106 207.717 239.153C208.716 236.929 210.409 233.247 211.796 230.259H211.808C211.808 230.259 215.216 245.247 229.851 252.129Z" fill="#1B2149"/>
<path d="M224.855 135.906C224.855 135.906 224.796 139.106 224.15 141.082C223.95 140.859 221.975 138.753 219.589 136.094L219.812 135.906C220.8 135.482 224.855 135.906 224.855 135.906Z" fill="#968330"/>
<path d="M133.805 138.906C133.065 138.565 132.489 137.988 132.254 137.412C131.502 135.506 131.572 130.706 131.572 130.706C131.572 130.436 131.537 130.13 131.466 129.788C131.208 128.306 130.455 126.188 129.797 124.036C128.81 120.765 128.822 117.283 129.785 114.012C131.866 107 137.273 93.8355 149.392 89.4943C166.224 83.459 180.788 85.4708 185.301 87.6002C189.827 89.7414 200.993 100.8 206.647 109.6C212.301 118.388 208.41 121.788 210.785 125.553C212.137 127.694 216.274 132.424 219.589 136.094C221.975 138.753 223.95 140.859 224.15 141.083C224.044 141.447 223.915 141.765 223.762 142.012C222.763 143.694 218.837 148.153 216.944 150.565C212.83 155.812 207.94 168.741 207.94 168.741C207.94 168.741 211.925 184.612 211.925 186.506C211.925 188.4 209.163 192.283 209.786 193.412C209.786 193.412 205.519 202.671 198.983 207.859C192.46 213.059 181.411 216.577 180.235 217.918C179.753 218.471 176.697 223.518 173.241 230.259C171.784 230.212 167.153 229.941 167.153 229.941C169.292 225.271 171.008 221.777 171.255 221.188C171.972 219.424 169.445 218.918 167.435 216.236C165.425 213.565 171.866 208.612 172.207 205.765C172.536 202.918 168.857 195.318 168.857 195.318L168.786 195.024C167.458 195.306 166.283 195.365 165.248 195.283C162.886 195.094 161.17 194.141 159.559 193.165C156.679 191.4 153.165 179.212 151.531 175.447C150.861 173.918 149.145 171.059 147.194 167.977L150.215 167.447C150.826 168.412 152.095 168.93 153.376 168.741C153.999 168.647 154.54 168.377 155.081 167.988C156.726 166.812 158.419 164.553 162.286 162.788C167.435 160.447 178.648 160.824 176.603 155.506L179.589 155.153C179.659 154.388 179.083 150.436 178.084 148.294C177.085 146.165 173.312 146.483 168.54 144.965C163.897 143.506 158.125 142.812 157.808 142.777H157.796C156.997 141.447 155.198 140.212 153.47 140.071L154.129 137.788C149.204 136.424 147.417 134.6 147.217 134.377C148.769 135.53 151.754 137.059 155.292 135.353C160.511 132.847 162.098 131.188 162.592 126.2C161.675 126.141 160.676 126.153 159.653 126.271C157.526 126.518 151.026 130.177 149.356 131.541C148.557 132.2 147.299 133.106 146.065 133.353C144.713 133.624 143.397 133.118 142.739 130.624L139.929 130.73C139.965 131.236 140.118 132.083 140.682 132.953L138.977 134.036C138.977 134.036 139.095 134.447 139.389 135.071C138.084 139.259 135.498 139.683 133.805 138.906Z" fill="#AF77AC"/>
<path d="M225.747 280.976C223.161 285.67 220.576 293.835 222.821 306.247C222.821 306.247 197.643 293.906 181.751 288.035C165.847 282.176 148.956 278.023 148.956 278.023C149.309 276.812 149.685 275.588 150.108 274.376C152.106 268.635 155.868 265.047 158.677 263.047C158.677 263.047 179.235 266.259 190.202 268.176C201.169 270.106 222.715 278.188 225.747 280.976Z" fill="#D6BA47"/>
<path d="M210.573 195.317C212.536 200.365 217.262 213.506 216.944 215.282C216.592 217.259 213.853 223.494 214.076 225.365C214.076 225.365 213.065 227.529 211.796 230.259C210.409 233.247 208.716 236.929 207.717 239.153C205.93 243.106 207.717 246.376 207.717 246.376L175.722 263.365C167.27 262.106 162.239 260.976 162.239 260.976C162.239 260.87 162.251 260.753 162.263 260.647C162.78 252.341 168.41 239.659 173.241 230.259C176.697 223.517 179.753 218.47 180.235 217.918C181.411 216.576 192.46 213.059 198.983 207.859C205.519 202.67 209.786 193.412 209.786 193.412C209.892 193.6 210.174 194.294 210.573 195.306V195.317Z" fill="#D6BA47"/>
<path d="M150.602 150C151.942 149.459 153.528 148.635 155.421 147.424C155.421 147.424 157.325 146.553 154.528 145.518C151.73 144.482 150.496 149.718 150.496 149.718L150.602 150ZM140.681 132.953C140.117 132.082 139.964 131.235 139.929 130.729L142.738 130.624C143.396 133.118 144.713 133.624 146.064 133.353C146.064 133.353 146.464 133.812 147.193 134.353L147.216 134.376C147.416 134.6 149.203 136.424 154.128 137.788L153.47 140.071C155.198 140.212 156.996 141.447 157.795 142.776H157.807C158.124 142.812 163.896 143.506 168.539 144.965C173.311 146.482 177.084 146.165 178.083 148.294C179.083 150.435 179.658 154.388 179.588 155.153L176.602 155.506C176.497 155.235 176.367 155 176.191 154.8C173.029 150.918 158.888 157.682 157.219 158.647C157.219 158.647 154.022 160.329 151.671 162.765C151.354 163.094 151.048 163.447 150.766 163.8C149.65 165.247 149.638 166.541 150.214 167.447L147.193 167.976C145.853 165.847 144.395 163.612 143.091 161.624L146.264 160.718C145.994 159.718 145.818 158.6 145.089 156.553C144.243 154.2 145.418 150.576 145.418 150.576C144.16 150.082 143.537 149.012 143.114 148.106C142.186 146.129 143.208 140.976 141.821 138.659C141.727 138.482 141.61 138.329 141.48 138.188C140.422 137.059 139.764 135.882 139.388 135.071C139.094 134.447 138.977 134.035 138.977 134.035L140.681 132.953Z" fill="#AF77AC"/>
<path d="M168.856 195.318C168.856 195.318 172.536 202.918 172.206 205.765C171.866 208.612 165.424 213.565 167.434 216.235C169.444 218.918 171.971 219.423 171.254 221.188C171.008 221.776 169.291 225.271 167.152 229.941C162.932 239.141 157.055 252.906 157.384 258.294L157.173 258.753C152.389 256.553 149.85 254.106 149.85 254.106C149.285 253.918 148.768 253.8 148.275 253.776H148.263C145.019 251.094 144.995 247.965 144.995 247.718C145.312 247.365 145.489 247.082 145.501 246.823C145.583 245.482 142.151 242.8 142.151 242.8L142.104 242.682C144.184 241.753 145.794 240.694 146.641 239.776C148.11 238.188 147.17 230.988 145.124 223.27C147.663 217.812 165.93 206.776 167.434 203.753C168.939 200.741 165.248 195.282 165.248 195.282C166.282 195.365 167.458 195.306 168.786 195.023L168.856 195.318Z" fill="#D6BA47"/>
<path d="M167.152 229.941C167.152 229.941 171.784 230.212 173.241 230.259C168.41 239.659 162.78 252.341 162.262 260.647H162.239C160.347 260.094 158.654 259.436 157.173 258.753L157.384 258.294C157.055 252.906 162.932 239.141 167.152 229.941Z" fill="#1B2149"/>
<path d="M162.263 260.647C162.251 260.753 162.239 260.87 162.239 260.976C162.239 260.976 160.711 261.6 158.678 263.047C155.868 265.047 152.107 268.635 150.109 274.376C149.686 275.588 149.309 276.812 148.957 278.023C146.488 286.694 145.995 295.153 148.346 300.517C149.58 303.329 148.287 303.329 145.877 302.412C143.044 301.329 138.66 298.976 135.04 298.423C128.34 297.423 125.577 297.247 125.836 294.906C126.083 292.565 124.414 275.8 113.106 273.459H112.941C113.271 269.564 113.67 265.541 113.964 262.141H113.976C113.976 262.141 122.404 265.506 133.371 260.647C142.845 256.447 145.066 253.553 148.263 253.776H148.275C148.769 253.8 149.286 253.917 149.85 254.106C149.85 254.106 152.389 256.553 157.173 258.753C158.654 259.435 160.347 260.094 162.239 260.647H162.263Z" fill="#D6BA47"/>
<path d="M148.263 253.777C145.066 253.553 142.844 256.447 133.37 260.647C122.404 265.506 113.976 262.141 113.976 262.141H113.964C114.175 259.812 114.34 257.777 114.411 256.282C114.411 256.282 128.175 255.612 134.534 253.188C139.694 251.212 143.644 249.141 144.995 247.718C144.995 247.965 145.019 251.094 148.263 253.777Z" fill="#BCA339"/>
<path d="M147.852 411V433.235L85.8828 436.376L94.534 411C99.0477 392.835 135.428 337.4 135.428 337.4C137.285 346.106 140.611 361.341 142.104 366.706C144.232 374.365 147.946 408.8 147.84 411H147.852Z" fill="#AF77AC"/>
<path d="M145.124 223.271C147.169 230.988 148.11 238.188 146.64 239.777C145.794 240.694 144.184 241.753 142.103 242.682C136.449 245.224 127.316 246.8 120.522 241.788C104.383 229.918 107.122 211.212 107.122 211.212C107.122 211.212 109.473 200.953 115.867 197.177C116.091 197.047 116.326 196.918 116.549 196.812H116.561C122.802 193.694 129.902 197.482 135.838 202.435C139.106 205.165 142.82 214.541 145.124 223.259V223.271ZM134.58 221.518C136.755 220.635 137.672 217.282 136.332 214.4C135.004 211.506 133.029 209.412 130.431 209.953C125.212 211.047 125.647 216.424 127.152 219C129.056 222.271 132.406 222.4 134.58 221.518Z" fill="#D6BA47"/>
<path d="M146.617 306.883C147.075 312.141 145.253 312.412 145.253 312.412C125.541 304.377 121.145 311.035 121.145 311.035C118.63 320.588 129.597 327.165 129.597 327.165C129.597 327.165 125.283 328.377 124.284 327.741C123.285 327.118 107.122 308.118 107.122 308.118C107.122 308.118 107.252 300.436 102.232 293.141L103.984 288.471C103.984 288.471 108.862 291.824 109.849 292.647C110.249 292.988 111.942 292.977 112.271 283.177C112.365 280.459 112.623 277.012 112.941 273.447H113.105C124.413 275.8 126.082 292.565 125.835 294.906C125.577 297.247 128.339 297.424 135.039 298.424C138.659 298.977 143.044 301.33 145.876 302.412C146.276 304.212 146.511 305.683 146.617 306.883Z" fill="#BCA339"/>
<path d="M146.264 160.718L143.091 161.623C141.645 159.423 140.411 157.541 139.729 156.47C137.401 152.765 139.353 149.494 139.729 147.353C140.034 145.647 139.4 145.553 137.684 144.376C141.962 141.176 141.856 138.929 141.821 138.659C143.208 140.976 142.186 146.129 143.114 148.106C143.537 149.012 144.16 150.082 145.418 150.576C145.418 150.576 144.243 154.2 145.089 156.553C145.818 158.6 145.994 159.718 146.264 160.718Z" fill="#AF77AC"/>
<path d="M142.15 242.8C142.15 242.8 145.583 245.483 145.5 246.824C145.489 247.083 145.312 247.365 144.995 247.706C143.643 249.141 139.694 251.212 134.534 253.188C128.175 255.612 114.41 256.283 114.41 256.283C114.481 254.73 114.457 253.741 114.281 253.6C113.446 252.93 100.305 244.471 97.9657 240.2C95.6149 235.93 94.6157 232.247 95.1094 230.988C95.6149 229.73 100.305 228.718 100.728 227.294C101.139 225.871 101.48 224.788 100.305 223.283C99.1294 221.765 96.1203 221.941 95.6971 220.765C95.321 219.706 92.7468 215.083 97.8012 211.212C98.3654 210.777 99.0119 210.365 99.7759 209.953L99.8817 209.694C103.643 211.283 107.122 211.212 107.122 211.212C107.122 211.212 104.384 229.918 120.522 241.788C127.316 246.8 136.45 245.224 142.103 242.683L142.15 242.8Z" fill="#D6BA47"/>
<path d="M136.332 214.4C137.672 217.283 136.755 220.635 134.581 221.518C132.406 222.4 129.056 222.271 127.152 219C125.647 216.424 125.212 211.047 130.431 209.953C133.029 209.412 135.004 211.506 136.332 214.4Z" fill="#BF2202"/>
<path d="M116.55 196.812C116.326 196.918 116.091 197.047 115.868 197.176C109.474 200.953 107.123 211.212 107.123 211.212C107.123 211.212 103.643 211.282 99.8819 209.694C98.6947 209.212 97.4723 208.541 96.3321 207.659C96.2851 207.271 95.38 198.141 108.145 193.259C111.719 195.129 116.338 196.741 116.538 196.812H116.55Z" fill="#D6BA47"/>
<path d="M103.985 288.471L102.233 293.141C107.252 300.435 107.123 308.118 107.123 308.118C107.123 308.118 101.681 299.094 97.6724 294.823C93.6524 290.553 78.5833 285.141 70.1672 271.953C70.1672 271.953 68.0749 272.459 66.4058 269.247L66.7231 266.741L61.1986 261.023C57.8016 257.376 55.8621 246.941 56.1089 243.423C56.3558 239.906 57.2844 237.6 57.2844 237.6C58.4716 230.906 63.6435 226.506 63.6435 226.506C62.8442 225.635 62.5151 224.541 62.5268 223.341C62.5503 219.518 65.9121 214.576 67.8986 211.8C70.5316 208.153 78.548 204.141 78.548 204.141C78.8184 204.506 78.9594 204.718 78.9594 204.718L97.8017 211.212C92.7473 215.082 95.3216 219.706 95.6977 220.765C96.1209 221.941 99.13 221.765 100.305 223.282C101.481 224.788 101.14 225.871 100.729 227.294C100.305 228.718 95.6154 229.729 95.11 230.988C94.6163 232.247 95.6154 235.929 97.9663 240.2C100.305 244.471 113.447 252.929 114.281 253.6C114.458 253.741 114.481 254.729 114.411 256.282C114.34 257.776 114.176 259.812 113.964 262.141C113.67 265.541 113.271 269.565 112.941 273.447C112.624 277.012 112.365 280.459 112.271 283.176C111.942 292.976 110.25 292.988 109.85 292.647C108.863 291.823 103.985 288.471 103.985 288.471ZM93.4879 280.4C96.2854 277.106 96.0386 268.376 90.0673 260.306C84.1079 252.223 75.9503 248.118 71.8716 251.141C67.7928 254.165 67.9573 263.988 73.9286 272.071C79.8998 280.141 90.1966 284.271 93.4879 280.4ZM76.1972 227.2C78.454 225.706 76.444 220.718 74.1872 218.671C73.1881 217.765 71.2016 216.729 69.4149 218C67.0758 219.671 67.7458 223.282 69.4149 225.118C71.0958 226.965 73.9403 228.682 76.1972 227.2ZM67.9103 242.8C69.0858 241.588 68.2865 238.529 66.9465 236.388C66.441 235.588 64.0196 232.623 62.2212 234.082C59.9291 235.929 63.7258 247.141 67.9103 242.8ZM65.2303 258.518C65.2303 258.518 66.8289 254.612 61.8803 250.259C61.8803 250.259 58.7889 251.094 60.3758 255.023C61.9744 258.965 65.2303 258.518 65.2303 258.518Z" fill="#D6BA47"/>
<path d="M108.157 193.247C95.3913 198.141 96.2964 207.271 96.3434 207.659C95.5794 207.083 94.8388 206.4 94.1688 205.6C91.2067 202.118 89.1615 198.706 88.656 195.259C88.3152 193 88.6325 190.73 89.7727 188.388C91.5124 184.8 93.7339 182.706 95.791 181.883C97.131 181.353 98.4004 181.353 99.4348 181.847C102.068 183.106 102.326 187.753 104.336 190.518C104.983 191.4 106.452 192.353 108.168 193.247H108.157Z" fill="#D6BA47"/>
<path d="M95.7798 176.2C96.7907 179.718 95.7798 181.882 95.7798 181.882C93.7228 182.706 91.5012 184.8 89.7616 188.388C88.6214 190.729 88.304 193 88.6449 195.259L88.5039 195.282C88.5039 195.282 87.3637 195.859 85.8826 196.824C83.6963 187.753 75.9972 182.941 75.6328 182.706C80.1112 179.235 85.1656 175.212 86.4939 173.682C89.0093 170.788 94.7807 172.682 95.7798 176.2Z" fill="#D6BA47"/>
<path d="M90.0673 260.306C96.0385 268.376 96.2854 277.106 93.4878 280.4C90.1966 284.27 79.8998 280.141 73.9285 272.07C67.9573 263.988 67.7927 254.165 71.8715 251.141C75.9503 248.118 84.1078 252.223 90.0673 260.306ZM89.5501 277.529C92.2184 275.553 90.7961 269.07 86.3529 263.059C81.9098 257.047 76.1384 253.776 73.4584 255.753C70.7901 257.729 71.3191 264.741 75.7622 270.753C80.2054 276.776 86.8701 279.506 89.5501 277.529Z" fill="#BCA339"/>
<path d="M86.3528 263.059C90.796 269.071 92.2183 275.553 89.55 277.53C86.87 279.506 80.2053 276.777 75.7621 270.753C71.319 264.741 70.79 257.73 73.4583 255.753C76.1383 253.777 81.9097 257.047 86.3528 263.059Z" fill="#369A15"/>
<path d="M85.8826 196.812C83.1439 198.577 79.2061 201.624 78.9593 204.718C78.9593 204.718 78.8182 204.506 78.5479 204.141C76.9023 201.812 70.6019 193.118 68.5449 192.788C68.3686 192.765 68.2511 192.6 68.157 192.33C67.9337 191.659 67.9454 190.283 68.016 188.494C68.016 188.494 71.5775 185.824 75.6211 182.706C75.9854 182.941 83.6846 187.753 85.8709 196.812H85.8826Z" fill="#D6BA47"/>
<path d="M74.1871 218.67C76.4439 220.718 78.4539 225.706 76.1971 227.2C73.9403 228.682 71.0957 226.965 69.4148 225.118C67.7457 223.282 67.0757 219.67 69.4148 218C71.2015 216.729 73.188 217.765 74.1871 218.67Z" fill="#F7DE4B"/>
<path d="M78.5481 204.141C78.5481 204.141 70.5316 208.153 67.8986 211.8C65.9121 214.577 62.5504 219.518 62.5269 223.341C61.0576 217.494 55.3097 212.165 52.1242 207.071C51.7834 206.541 51.4895 206.024 51.2192 205.506C51.2192 205.506 50.5844 197.177 56.0032 193.224C61.4337 189.271 68.1572 192.329 68.1572 192.329C68.2513 192.6 68.3688 192.765 68.5451 192.788C70.6021 193.118 76.9025 201.812 78.5481 204.141Z" fill="#D6BA47"/>
<path d="M61.8797 164.765C68.4621 166.223 68.6149 176.165 68.2623 183.8H68.1565C56.2141 175.318 50.9951 183.494 50.9951 183.494C52.5114 173.4 55.7321 163.4 61.8914 164.765H61.8797Z" fill="#D6BA47"/>
<path d="M68.1569 183.8H68.2627C68.1804 185.53 68.0746 187.13 68.0159 188.494C67.9453 190.282 67.9336 191.659 68.1569 192.33C68.1569 192.33 61.4334 189.271 56.0029 193.224C50.5841 197.177 51.2188 205.506 51.2188 205.506C50.5371 204.188 50.0787 202.894 49.9611 201.6C49.6908 198.694 49.8553 191.071 50.9838 183.494C50.9838 183.494 56.2027 175.318 68.1452 183.8H68.1569Z" fill="#D6BA47"/>
<path d="M66.9459 236.388C68.2859 238.529 69.0852 241.588 67.9097 242.8C63.7252 247.141 59.9285 235.929 62.2206 234.082C64.019 232.623 66.4404 235.588 66.9459 236.388Z" fill="#15489A"/>
<path d="M61.198 261.023L66.7225 266.741L66.4052 269.247C59.0587 266.423 61.198 261.023 61.198 261.023Z" fill="#DD7B2A"/>
<path d="M61.8805 250.259C66.829 254.612 65.2305 258.518 65.2305 258.518C65.2305 258.518 61.9745 258.965 60.3759 255.023C58.789 251.094 61.8805 250.259 61.8805 250.259Z" fill="#981CBA"/>
<path d="M62.5269 223.341C62.5151 224.541 62.8443 225.635 63.6436 226.506C63.6436 226.506 58.4716 230.906 57.2844 237.6C54.769 236.259 54.6044 232.659 54.8513 228.636C55.1099 224.624 51.0076 213.141 50.8313 210.883C50.6667 208.612 52.0185 207.141 52.0185 207.141L52.1243 207.071C55.3097 212.165 61.0576 217.494 62.5269 223.341Z" fill="#D6BA47"/>
<path d="M131.466 129.788C131.536 130.129 131.572 130.435 131.572 130.706C131.572 130.706 131.501 135.506 132.253 137.412C132.488 137.988 133.064 138.565 133.805 138.906C135.498 139.682 138.084 139.259 139.388 135.07" stroke="#1D1D1B" stroke-width="0.4" stroke-linecap="round" stroke-linejoin="round"/>
<path d="M224.161 141.094C224.161 141.094 224.161 141.083 224.15 141.083C223.95 140.859 221.975 138.753 219.589 136.094C216.274 132.424 212.137 127.694 210.785 125.553C208.41 121.788 212.301 118.388 206.647 109.6C200.993 100.8 189.827 89.7414 185.301 87.6002C180.788 85.4708 166.224 83.459 149.392 89.4943C137.273 93.8355 131.866 107 129.785 114.012C128.822 117.283 128.81 120.765 129.797 124.036C130.455 126.188 131.208 128.306 131.466 129.777" stroke="#1D1D1B" stroke-width="0.4" stroke-linecap="round" stroke-linejoin="round"/>
<path d="M171.255 194.318C171.255 194.318 177.896 204.977 178.402 208.871" stroke="#1D1D1B" stroke-width="0.4" stroke-linecap="round" stroke-linejoin="round"/>
<path d="M210.573 195.318C212.536 200.365 217.261 213.506 216.944 215.282C216.591 217.259 213.853 223.494 214.076 225.365C214.1 225.506 214.123 225.623 214.182 225.706C214.934 226.965 217.567 230.859 219.448 230.612C221.34 230.353 231.132 221.565 231.637 219.67C231.661 219.588 231.684 219.447 231.696 219.282C232.037 215.835 231.331 196.247 240.923 187.588C251.972 177.623 268.04 171.929 295.746 173.682C295.746 173.682 270.92 153.294 241.687 148.706C239.113 148.294 236.515 148.012 233.894 147.882C233.894 147.882 229.698 140.506 224.855 135.906" stroke="#1D1D1B" stroke-width="0.4" stroke-linecap="round" stroke-linejoin="round"/>
<path d="M219.812 135.906C220.8 135.482 224.855 135.906 224.855 135.906C224.855 135.906 224.796 139.106 224.15 141.082C224.044 141.447 223.915 141.765 223.762 142.012C222.763 143.694 218.837 148.153 216.944 150.565C212.83 155.812 207.94 168.741 207.94 168.741C207.94 168.741 211.925 184.612 211.925 186.506C211.925 188.4 209.163 192.282 209.786 193.412C209.892 193.6 210.174 194.294 210.573 195.306" stroke="#1D1D1B" stroke-width="0.4" stroke-linecap="round" stroke-linejoin="round"/>
<path d="M229.85 252.129C226.23 260.4 223.574 271.329 223.468 273.459" stroke="#1D1D1B" stroke-width="0.4" stroke-linecap="round" stroke-linejoin="round"/>
<path d="M231.696 219.282C231.696 219.282 231.696 229.6 239.042 234.318C239.042 234.318 238.161 238.588 233.012 246.188C231.908 247.812 230.85 249.87 229.862 252.129" stroke="#1D1D1B" stroke-width="0.4" stroke-linecap="round" stroke-linejoin="round"/>
<path d="M295.745 173.682C295.745 173.682 321.276 184.788 329.986 195.317C338.684 205.847 350.238 234.506 338.519 254.941C338.519 254.941 342.539 265.67 340.529 277.894C338.519 290.129 332.325 305.047 331.655 309.564C331.431 311.094 328.505 317.494 324.144 325.729C315.669 341.729 301.752 364.682 291.643 372.482C276.327 384.294 268.875 393.682 259.083 395.682C249.292 397.694 230.708 388.564 230.708 388.564C240.923 380.106 248.116 347.435 240.253 325.823C233.306 306.741 236.409 285.047 237.232 280.223C237.338 279.576 237.408 279.235 237.408 279.235C237.408 279.235 234.317 277.859 229.533 275.964C227.711 275.247 225.642 274.447 223.409 273.635C214.017 270.176 201.651 266.235 192.036 265.329C185.771 264.741 180.258 264.035 175.721 263.364C167.27 262.106 162.239 260.976 162.239 260.976C162.239 260.976 160.711 261.6 158.677 263.047C155.868 265.047 152.107 268.635 150.108 274.376C149.685 275.588 149.309 276.812 148.956 278.023C146.488 286.694 145.994 295.153 148.345 300.517C149.579 303.329 148.286 303.329 145.877 302.412C143.044 301.329 138.66 298.976 135.039 298.423C128.339 297.423 125.577 297.247 125.835 294.906C126.082 292.564 124.413 275.8 113.105 273.459" stroke="#1D1D1B" stroke-width="0.4" stroke-linecap="round" stroke-linejoin="round"/>
<path d="M129.597 327.165C129.597 327.165 131.231 328.647 134.099 331.141C140.07 336.317 151.413 345.906 164.425 355.647C176.038 364.341 197.784 374.529 213.194 381.247C223.326 385.659 230.708 388.565 230.708 388.565" stroke="#1D1D1B" stroke-width="0.4" stroke-linecap="round" stroke-linejoin="round"/>
<path d="M107.123 308.118C107.123 308.118 123.285 327.118 124.284 327.741C125.284 328.376 129.597 327.165 129.597 327.165C129.597 327.165 118.631 320.588 121.146 311.035C121.146 311.035 125.542 304.376 145.254 312.412C145.254 312.412 147.076 312.141 146.618 306.882C146.512 305.682 146.277 304.212 145.877 302.412" stroke="#1D1D1B" stroke-width="0.4" stroke-linecap="round" stroke-linejoin="round"/>
<path d="M103.984 288.459L102.233 293.141C107.252 300.435 107.122 308.118 107.122 308.118C107.122 308.118 101.68 299.094 97.6719 294.824C93.6519 290.553 78.5828 285.141 70.1667 271.953C70.1667 271.953 68.0744 272.459 66.4053 269.247" stroke="#1D1D1B" stroke-width="0.4" stroke-linecap="round" stroke-linejoin="round"/>
<path d="M99.7759 209.953C99.0119 210.365 98.3654 210.777 97.8012 211.212C92.7468 215.083 95.321 219.706 95.6971 220.765C96.1203 221.941 99.1294 221.765 100.305 223.283C101.48 224.788 101.139 225.871 100.728 227.294C100.305 228.718 95.6149 229.73 95.1094 230.988C94.6157 232.247 95.6149 235.93 97.9657 240.2C100.305 244.471 113.446 252.93 114.281 253.6C114.457 253.741 114.481 254.73 114.41 256.283C114.34 257.777 114.175 259.812 113.963 262.141C113.67 265.541 113.27 269.565 112.941 273.447C112.623 277.012 112.365 280.459 112.271 283.177C111.942 292.977 110.249 292.988 109.849 292.647C108.862 291.824 103.984 288.471 103.984 288.471" stroke="#1D1D1B" stroke-width="0.4" stroke-linecap="round" stroke-linejoin="round"/>
<path d="M146.617 306.882C146.617 306.882 152.154 315.306 155.421 317.941C158.689 320.588 207.775 347.471 224.22 349.482C224.22 349.482 226.03 355.023 227.429 357.859C227.746 358.518 228.052 359.024 228.298 359.282C229.627 360.671 222.21 362.553 222.21 362.553C222.21 362.553 218.86 374.671 213.194 381.247" stroke="#1D1D1B" stroke-width="0.4" stroke-linecap="round" stroke-linejoin="round"/>
<path d="M229.533 275.977C229.533 275.977 227.64 277.541 225.748 280.977C223.162 285.671 220.576 293.835 222.821 306.247C222.997 307.271 223.221 308.318 223.467 309.4C229.039 333.188 229.497 351.541 227.429 357.859" stroke="#1D1D1B" stroke-width="0.4" stroke-linecap="round" stroke-linejoin="round"/>
<path d="M158.678 263.047C158.678 263.047 179.236 266.259 190.203 268.176C201.17 270.106 222.716 278.188 225.748 280.976" stroke="#1D1D1B" stroke-width="0.4" stroke-linecap="round" stroke-linejoin="round"/>
<path d="M148.956 278.023C148.956 278.023 165.847 282.176 181.751 288.035C197.643 293.906 222.821 306.247 222.821 306.247" stroke="#1D1D1B" stroke-width="0.4" stroke-linecap="round" stroke-linejoin="round"/>
<path d="M241.687 148.706C241.687 148.706 235.269 150.435 232.013 156.588C228.746 162.753 218.073 185.247 215.063 189.518C212.207 193.553 210.738 195.141 210.573 195.306" stroke="#1D1D1B" stroke-width="0.4" stroke-linecap="round" stroke-linejoin="round"/>
<path d="M209.786 193.412C209.786 193.412 205.519 202.67 198.983 207.859C192.46 213.059 181.411 216.576 180.235 217.918C179.753 218.47 176.697 223.517 173.241 230.259C168.41 239.659 162.78 252.341 162.263 260.647C162.251 260.753 162.239 260.87 162.239 260.976" stroke="#1D1D1B" stroke-width="0.4" stroke-linecap="round" stroke-linejoin="round"/>
<path d="M175.722 263.365L207.717 246.377C207.717 246.377 205.93 243.106 207.717 239.153C208.716 236.929 210.409 233.247 211.796 230.259C213.065 227.529 214.076 225.365 214.076 225.365" stroke="#1D1D1B" stroke-width="0.4" stroke-linecap="round" stroke-linejoin="round"/>
<path d="M168.857 195.318C168.857 195.318 172.536 202.918 172.207 205.765C171.866 208.612 165.424 213.565 167.434 216.236C169.444 218.918 171.972 219.424 171.255 221.188C171.008 221.777 169.292 225.271 167.152 229.941C162.932 239.141 157.055 252.906 157.384 258.294" stroke="#1D1D1B" stroke-width="0.4" stroke-linecap="round" stroke-linejoin="round"/>
<path d="M165.249 195.282C165.249 195.282 168.939 200.741 167.435 203.753C165.93 206.776 147.664 217.812 145.125 223.259" stroke="#1D1D1B" stroke-width="0.4" stroke-linecap="round" stroke-linejoin="round"/>
<path d="M167.152 229.941C167.152 229.941 171.784 230.212 173.241 230.259" stroke="#1D1D1B" stroke-width="0.4" stroke-linecap="round" stroke-linejoin="round"/>
<path d="M148.274 253.776C148.768 253.8 149.285 253.918 149.849 254.106C149.849 254.106 152.388 256.553 157.172 258.753C158.654 259.435 160.346 260.094 162.239 260.647" stroke="#1D1D1B" stroke-width="0.4" stroke-linecap="round" stroke-linejoin="round"/>
<path d="M113.976 262.141C113.976 262.141 122.403 265.506 133.37 260.647C142.844 256.447 145.066 253.553 148.263 253.776" stroke="#1D1D1B" stroke-width="0.4" stroke-linecap="round" stroke-linejoin="round"/>
<path d="M144.995 247.718C143.643 249.141 139.694 251.212 134.534 253.188C128.175 255.612 114.41 256.282 114.41 256.282" stroke="#1D1D1B" stroke-width="0.4" stroke-linecap="round" stroke-linejoin="round"/>
<path d="M142.15 242.8C142.15 242.8 145.583 245.482 145.5 246.823C145.489 247.082 145.312 247.365 144.995 247.706" stroke="#1D1D1B" stroke-width="0.4" stroke-linecap="round" stroke-linejoin="round"/>
<path d="M144.995 247.706C144.995 247.965 145.019 251.094 148.263 253.777H148.275" stroke="#1D1D1B" stroke-width="0.4" stroke-linecap="round" stroke-linejoin="round"/>
<path d="M116.55 196.812C116.327 196.917 116.092 197.047 115.868 197.176C109.474 200.953 107.123 211.212 107.123 211.212" stroke="#1D1D1B" stroke-width="0.4" stroke-linecap="round" stroke-linejoin="round"/>
<path d="M107.122 211.212C107.122 211.212 104.383 229.918 120.522 241.788C127.316 246.8 136.449 245.224 142.103 242.682C144.184 241.753 145.794 240.694 146.64 239.777C148.11 238.188 147.169 230.988 145.124 223.271C142.82 214.541 139.106 205.165 135.838 202.435C129.902 197.482 122.802 193.694 116.561 196.812" stroke="#1D1D1B" stroke-width="0.4" stroke-linecap="round" stroke-linejoin="round"/>
<path d="M107.122 211.212C107.122 211.212 103.643 211.283 99.8815 209.694C98.6943 209.212 97.4719 208.541 96.3317 207.659C95.5677 207.083 94.8271 206.4 94.1571 205.6C91.195 202.118 89.1498 198.706 88.6443 195.259C88.3034 193 88.6208 190.73 89.761 188.388C91.5006 184.8 93.7222 182.706 95.7792 181.883C97.1192 181.353 98.3887 181.353 99.4231 181.847C102.056 183.106 102.315 187.753 104.325 190.518C104.971 191.4 106.44 192.353 108.157 193.247C111.73 195.13 116.349 196.741 116.549 196.812H116.561" stroke="#1D1D1B" stroke-width="0.4" stroke-linecap="round" stroke-linejoin="round"/>
<path d="M97.8015 211.212L78.9592 204.718C78.9592 204.718 78.8181 204.506 78.5478 204.141C76.9022 201.812 70.6018 193.118 68.5448 192.788C68.3685 192.765 68.251 192.6 68.1569 192.329C67.9336 191.659 67.9453 190.282 68.0159 188.494C68.0746 187.129 68.1804 185.529 68.2627 183.8C68.6153 176.165 68.4625 166.223 61.8801 164.765C55.7208 163.4 52.5001 173.4 50.9838 183.494C49.8553 191.071 49.6908 198.694 49.9611 201.6C50.0787 202.894 50.5371 204.188 51.2188 205.506C51.4892 206.023 51.7831 206.541 52.1239 207.071C55.3094 212.165 61.0573 217.494 62.5266 223.341" stroke="#1D1D1B" stroke-width="0.4" stroke-linecap="round" stroke-linejoin="round"/>
<path d="M75.6328 182.706C80.1112 179.235 85.1656 175.212 86.4939 173.682C89.0093 170.788 94.7807 172.682 95.7798 176.2C96.7907 179.718 95.7798 181.882 95.7798 181.882" stroke="#1D1D1B" stroke-width="0.4" stroke-linecap="round" stroke-linejoin="round"/>
<path d="M68.0156 188.494C68.0156 188.494 71.5772 185.824 75.6207 182.706" stroke="#1D1D1B" stroke-width="0.4" stroke-linecap="round" stroke-linejoin="round"/>
<path d="M88.5035 195.282C88.5035 195.282 87.3634 195.859 85.8823 196.823C83.1435 198.576 79.2058 201.623 78.959 204.718" stroke="#1D1D1B" stroke-width="0.4" stroke-linecap="round" stroke-linejoin="round"/>
<path d="M134.099 331.118V331.141C134.157 331.412 134.675 333.859 135.439 337.4C137.296 346.106 140.622 361.341 142.115 366.706C144.243 374.365 147.957 408.8 147.851 411V433.235H307.429L310.626 411C310.626 411 312.295 404.294 313.823 391.753C314.705 384.553 307.593 376.13 312.859 365.565C318.137 355.012 324.144 325.729 324.144 325.729" stroke="#1D1D1B" stroke-width="0.4" stroke-linecap="round" stroke-linejoin="round"/>
<path d="M135.428 337.4C135.428 337.4 99.0477 392.835 94.534 411L85.8828 436.376L147.852 433.235" stroke="#1D1D1B" stroke-width="0.4" stroke-linecap="round" stroke-linejoin="round"/>
<path d="M52.0185 207.141C52.0185 207.141 50.6667 208.612 50.8313 210.882C51.0076 213.141 55.1099 224.623 54.8513 228.635C54.6044 232.659 54.769 236.259 57.2844 237.6C57.2844 237.6 56.3558 239.906 56.109 243.423C55.8622 246.941 57.8016 257.376 61.1986 261.023" stroke="#1D1D1B" stroke-width="0.4" stroke-linecap="round" stroke-linejoin="round"/>
<path d="M211.808 230.259C211.808 230.259 215.216 245.247 229.851 252.129" stroke="#1D1D1B" stroke-width="0.4" stroke-linecap="round" stroke-linejoin="round"/>
<path d="M134.581 221.518C132.406 222.4 129.056 222.271 127.152 219C125.647 216.424 125.212 211.047 130.431 209.953C133.029 209.412 135.004 211.506 136.332 214.4C137.672 217.283 136.755 220.635 134.581 221.518Z" stroke="#1D1D1B" stroke-width="0.4" stroke-linecap="round" stroke-linejoin="round"/>
<path d="M61.198 261.023C61.198 261.023 59.0587 266.423 66.4052 269.247L66.7225 266.741L61.198 261.023Z" stroke="#1D1D1B" stroke-width="0.4" stroke-linecap="round" stroke-linejoin="round"/>
<path d="M65.2305 258.518C65.2305 258.518 66.829 254.612 61.8805 250.259C61.8805 250.259 58.789 251.094 60.3759 255.023C61.9745 258.965 65.2305 258.518 65.2305 258.518Z" stroke="#1D1D1B" stroke-width="0.4" stroke-linecap="round" stroke-linejoin="round"/>
<path d="M67.9097 242.8C69.0852 241.588 68.2859 238.529 66.9459 236.388C66.4404 235.588 64.019 232.623 62.2206 234.082C59.9285 235.929 63.7252 247.141 67.9097 242.8Z" stroke="#1D1D1B" stroke-width="0.4" stroke-linecap="round" stroke-linejoin="round"/>
<path d="M76.1971 227.2C78.4539 225.706 76.4439 220.718 74.1871 218.67C73.188 217.765 71.2015 216.729 69.4148 218C67.0757 219.67 67.7457 223.282 69.4148 225.118C71.0957 226.965 73.9403 228.682 76.1971 227.2Z" stroke="#1D1D1B" stroke-width="0.4" stroke-linecap="round" stroke-linejoin="round"/>
<path d="M89.55 277.53C86.87 279.506 80.2053 276.777 75.7621 270.753C71.319 264.741 70.79 257.73 73.4583 255.753C76.1383 253.777 81.9097 257.047 86.3528 263.059C90.796 269.071 92.2183 275.553 89.55 277.53Z" stroke="#1D1D1B" stroke-width="0.4" stroke-linecap="round" stroke-linejoin="round"/>
<path d="M93.4878 280.4C90.1966 284.27 79.8998 280.141 73.9285 272.07C67.9573 263.988 67.7927 254.165 71.8715 251.141C75.9503 248.118 84.1078 252.223 90.0673 260.306C96.0385 268.376 96.2854 277.106 93.4878 280.4Z" stroke="#1D1D1B" stroke-width="0.4" stroke-linecap="round" stroke-linejoin="round"/>
<path d="M167.846 127.377C167.846 127.377 165.624 126.412 162.591 126.2C161.675 126.141 160.675 126.153 159.653 126.271C157.525 126.518 151.025 130.177 149.356 131.541C148.557 132.2 147.299 133.106 146.065 133.353C144.713 133.624 143.397 133.118 142.738 130.624" stroke="#1D1D1B" stroke-width="0.4" stroke-linecap="round" stroke-linejoin="round"/>
<path d="M138.977 134.035C138.977 134.035 139.094 134.447 139.388 135.07C139.764 135.882 140.422 137.059 141.48 138.188C141.61 138.329 141.727 138.482 141.821 138.659C143.208 140.976 142.186 146.129 143.114 148.106C143.537 149.012 144.16 150.082 145.418 150.576C146.523 151.012 148.145 150.988 150.602 150C151.942 149.459 153.528 148.635 155.421 147.423C155.421 147.423 157.325 146.553 154.528 145.518C151.73 144.482 150.496 149.718 150.496 149.718" stroke="#1D1D1B" stroke-width="0.4" stroke-linecap="round" stroke-linejoin="round"/>
<path d="M188.169 183.67C189.027 182.965 189.909 182.247 190.825 181.47C211.419 164.129 206.776 147.541 206.4 146.412C206.024 145.282 200.217 133.447 199.841 133.447C199.841 133.447 202.533 133.082 204.284 131.165C206.047 129.235 207.211 124.706 205.789 118.8C204.366 112.894 199.676 108.835 196.221 109.212C191.119 109.765 192.624 115.753 192.624 115.753" stroke="#1D1D1B" stroke-width="0.4" stroke-linecap="round" stroke-linejoin="round"/>
<path d="M183.984 186.917C185.301 185.929 186.676 184.87 188.157 183.67" stroke="#1D1D1B" stroke-width="0.4" stroke-linecap="round" stroke-linejoin="round"/>
<path d="M169.902 194.753C170.337 194.623 170.784 194.482 171.254 194.317C172.347 193.929 173.523 193.423 174.827 192.765C176.356 191.988 178.036 191 179.905 189.776C181.175 188.941 182.527 187.988 183.972 186.917" stroke="#1D1D1B" stroke-width="0.4" stroke-linecap="round" stroke-linejoin="round"/>
<path d="M133.805 138.894C133.769 139.094 133.523 141.071 136.214 143.271C136.767 143.729 137.26 144.082 137.684 144.376C139.4 145.553 140.034 145.647 139.729 147.353C139.353 149.494 137.401 152.765 139.729 156.471C140.411 157.541 141.645 159.423 143.091 161.623C144.395 163.612 145.853 165.847 147.193 167.976C149.144 171.059 150.86 173.918 151.53 175.447C153.164 179.212 156.679 191.4 159.558 193.165C161.169 194.141 162.885 195.094 165.248 195.282C166.282 195.365 167.457 195.306 168.786 195.023C169.138 194.953 169.514 194.859 169.891 194.753" stroke="#1D1D1B" stroke-width="0.4" stroke-linecap="round" stroke-linejoin="round"/>
<path d="M157.808 142.776C158.054 143.188 158.219 143.623 158.243 144.023" stroke="#1D1D1B" stroke-width="0.4" stroke-linecap="round" stroke-linejoin="round"/>
<path d="M149.768 143.141C149.768 143.141 151.213 139.882 153.47 140.07C155.198 140.212 156.997 141.447 157.796 142.776" stroke="#1D1D1B" stroke-width="0.4" stroke-linecap="round" stroke-linejoin="round"/>
<path d="M157.796 142.776H157.808C158.125 142.812 163.896 143.506 168.539 144.965C173.312 146.482 177.085 146.165 178.084 148.294C179.083 150.435 179.659 154.388 179.589 155.153" stroke="#1D1D1B" stroke-width="0.4" stroke-linecap="round" stroke-linejoin="round"/>
<path d="M145.419 150.577C145.419 150.577 144.243 154.2 145.09 156.553C145.818 158.6 145.995 159.718 146.265 160.718C146.3 160.871 146.336 161.012 146.383 161.153" stroke="#1D1D1B" stroke-width="0.4" stroke-linecap="round" stroke-linejoin="round"/>
<path d="M147.217 134.377C148.768 135.53 151.754 137.059 155.292 135.353C160.511 132.847 162.098 131.188 162.592 126.2" stroke="#1D1D1B" stroke-width="0.4" stroke-linecap="round" stroke-linejoin="round"/>
<path d="M146.064 133.353C146.064 133.353 146.464 133.812 147.193 134.353" stroke="#1D1D1B" stroke-width="0.4" stroke-linecap="round" stroke-linejoin="round"/>
<path d="M147.193 134.353L147.217 134.377C147.417 134.6 149.203 136.424 154.128 137.788C154.199 137.812 154.258 137.824 154.328 137.847" stroke="#1D1D1B" stroke-width="0.4" stroke-linecap="round" stroke-linejoin="round"/>
<path d="M139.917 130.271C139.917 130.271 139.905 130.447 139.929 130.729C139.964 131.235 140.117 132.082 140.681 132.953C140.987 133.435 141.422 133.918 142.045 134.353" stroke="#1D1D1B" stroke-width="0.4" stroke-linecap="round" stroke-linejoin="round"/>
<path d="M151.672 162.765C154.023 160.329 157.22 158.647 157.22 158.647C158.889 157.682 173.03 150.918 176.192 154.8C176.368 155 176.497 155.235 176.603 155.506C178.648 160.823 167.435 160.447 162.286 162.788C158.419 164.553 156.726 166.812 155.081 167.988C154.54 168.376 153.999 168.647 153.376 168.741C152.095 168.929 150.826 168.412 150.214 167.447C149.638 166.541 149.65 165.247 150.767 163.8C151.049 163.447 151.355 163.094 151.672 162.765Z" stroke="#1D1D1B" stroke-width="0.4" stroke-linecap="round" stroke-linejoin="round"/>
<path d="M151.672 162.753C151.754 162.953 152.647 165.07 153.517 164.741C154.422 164.4 160.734 158.729 176.192 154.8H176.203" stroke="#1D1D1B" stroke-width="0.4" stroke-linecap="round" stroke-linejoin="round"/>
<path d="M153.518 164.741C153.518 164.741 153.482 166.871 155.081 167.977" stroke="#1D1D1B" stroke-width="0.4" stroke-linecap="round" stroke-linejoin="round"/>
<path d="M174.416 102.353C174.416 102.353 176.273 107.706 178.142 110.471C179.635 112.682 183.044 115.706 182.162 117.177C181.281 118.647 179.188 118.812 177.648 114.541" stroke="#1D1D1B" stroke-width="0.4" stroke-linecap="round" stroke-linejoin="round"/>
<path d="M141.821 138.635V138.659C141.856 138.929 141.962 141.176 137.684 144.376" stroke="#1D1D1B" stroke-width="0.4" stroke-linecap="round" stroke-linejoin="round"/>
<path d="M159.559 168.4C159.559 168.4 160.358 166.106 167.599 164.553" stroke="#1D1D1B" stroke-width="0.4" stroke-linecap="round" stroke-linejoin="round"/>
<path d="M102.057 149.435L96.2266 169.941" stroke="#1D1D1B" stroke-width="0.4" stroke-linecap="round" stroke-linejoin="round"/>
<path d="M111.801 161.6L101.527 173.13" stroke="#1D1D1B" stroke-width="0.4" stroke-linecap="round" stroke-linejoin="round"/>
<path d="M120.899 173.129L105.042 178.376" stroke="#1D1D1B" stroke-width="0.4" stroke-linecap="round" stroke-linejoin="round"/>
<path d="M87.916 150.118L89.9848 168.165" stroke="#1D1D1B" stroke-width="0.4" stroke-linecap="round" stroke-linejoin="round"/>
<path d="M131.466 129.788C131.513 129.659 132.289 127.576 133.781 126.388C135.333 125.176 136.767 125.894 137.684 125.259C138.601 124.635 138.683 123.082 140.058 121.823C141.445 120.565 143.914 118.517 154.798 115.541" stroke="#1D1D1B" stroke-width="0.4" stroke-linecap="round" stroke-linejoin="round"/>
<path d="M129.797 124.035C129.797 124.035 130.396 121.988 131.983 120.823C133.57 119.647 133.911 120.447 135.004 120.023C136.085 119.612 136.814 116.541 137.931 115.541C139.471 114.165 142.362 111.647 152.788 110.894" stroke="#1D1D1B" stroke-width="0.4" stroke-linecap="round" stroke-linejoin="round"/>
<path d="M171.807 167.977C171.807 167.977 172.888 169.73 172.935 171.482C173.029 175.2 175.944 182.365 183.972 186.918H183.984" stroke="#1D1D1B" stroke-width="0.4" stroke-linecap="round" stroke-linejoin="round"/>
<path d="M167.152 170.753C167.152 170.753 168.398 172.012 168.692 173.682C169.08 175.835 169.362 184.588 179.906 189.776" stroke="#1D1D1B" stroke-width="0.4" stroke-linecap="round" stroke-linejoin="round"/>
<path d="M162.58 173.129C162.58 173.129 163.544 174.471 163.944 175.753C164.59 177.835 164.308 186.718 174.828 192.765" stroke="#1D1D1B" stroke-width="0.4" stroke-linecap="round" stroke-linejoin="round"/>
<path d="M158.983 174.977C158.983 174.977 159.559 175.565 159.559 178.377C159.559 181.482 160.711 190.365 169.891 194.753H169.903" stroke="#1D1D1B" stroke-width="0.4" stroke-linecap="round" stroke-linejoin="round"/>
<path d="M176.203 165.436C176.203 165.436 177.379 167.977 177.39 169.624C177.426 172.93 179.471 179.988 188.157 183.671H188.169" stroke="#1D1D1B" stroke-width="0.4" stroke-linecap="round" stroke-linejoin="round"/>
<path d="M78.5479 204.141C78.5479 204.141 70.5314 208.153 67.8984 211.8C65.9119 214.576 62.5501 219.518 62.5266 223.341C62.5149 224.541 62.844 225.635 63.6433 226.506C63.6433 226.506 58.4714 230.906 57.2842 237.6" stroke="#1D1D1B" stroke-width="0.4" stroke-linecap="round" stroke-linejoin="round"/>
<path d="M68.1572 192.329C68.1572 192.329 61.4337 189.271 56.0032 193.224C50.5844 197.177 51.2192 205.506 51.2192 205.506" stroke="#1D1D1B" stroke-width="0.4" stroke-linecap="round" stroke-linejoin="round"/>
<path d="M50.9951 183.494C50.9951 183.494 56.2141 175.318 68.1565 183.8" stroke="#1D1D1B" stroke-width="0.4" stroke-linecap="round" stroke-linejoin="round"/>
<path d="M75.6211 182.706C75.9855 182.941 83.6846 187.753 85.8709 196.812" stroke="#1D1D1B" stroke-width="0.4" stroke-linecap="round" stroke-linejoin="round"/>
<path d="M96.3321 207.671C96.2851 207.271 95.38 198.141 108.145 193.259" stroke="#1D1D1B" stroke-width="0.4" stroke-linecap="round" stroke-linejoin="round"/>
<path d="M237.232 280.224C237.232 280.224 253.924 285.706 265.843 297.212" stroke="#1D1D1B" stroke-width="0.4" stroke-linecap="round" stroke-linejoin="round"/>
<path d="M167.799 202.718C167.799 202.718 168.034 203.953 172.207 205.765" stroke="#1D1D1B" stroke-width="0.4" stroke-miterlimit="10"/>
<path d="M183.503 133.353C183.503 133.353 187.817 139.047 188.369 142.435C188.922 145.824 190.814 147.635 192.178 146.894C192.695 146.612 193.388 145.494 190.744 141.494" stroke="#1D1D1B" stroke-width="0.4" stroke-miterlimit="10" stroke-linecap="round"/>
<path d="M272.612 206.906C272.612 206.906 273.847 218.894 270.485 223.941C267.123 228.988 269.921 231.118 269.921 231.118C269.921 231.118 272.613 233.153 273.729 227.212" stroke="#1D1D1B" stroke-width="0.4" stroke-miterlimit="10" stroke-linecap="round"/>
<path d="M274.763 337.4C274.763 337.4 275.962 348.812 274.058 353.059C272.459 356.623 271.472 361.906 274.669 361.553C277.866 361.2 277.749 355.035 277.866 350.329" stroke="#1D1D1B" stroke-width="0.4" stroke-miterlimit="10" stroke-linecap="round"/>
<path d="M129.597 373.4C129.597 373.4 129.597 380.012 125.553 385.07C120.957 390.823 121.157 392.447 121.933 393.459C122.709 394.47 125.494 395.694 126.905 389.094" stroke="#1D1D1B" stroke-width="0.4" stroke-miterlimit="10" stroke-linecap="round"/>
</g>
</g>
<defs>
<filter id="filter0_d_523_3279" x="0" y="0" width="304" height="428" filterUnits="userSpaceOnUse" color-interpolation-filters="sRGB">
<feFlood flood-opacity="0" result="BackgroundImageFix"/>
<feColorMatrix in="SourceAlpha" type="matrix" values="0 0 0 0 0 0 0 0 0 0 0 0 0 0 0 0 0 0 127 0" result="hardAlpha"/>
<feOffset dx="3" dy="3"/>
<feGaussianBlur stdDeviation="4"/>
<feComposite in2="hardAlpha" operator="out"/>
<feColorMatrix type="matrix" values="0 0 0 0 0 0 0 0 0 0 0 0 0 0 0 0 0 0 0.2 0"/>
<feBlend mode="normal" in2="BackgroundImageFix" result="effect1_dropShadow_523_3279"/>
<feBlend mode="normal" in="SourceGraphic" in2="effect1_dropShadow_523_3279" result="shape"/>
</filter>
<clipPath id="clip0_523_3279">
<rect width="268" height="400" fill="white" transform="translate(19 11)"/>
</clipPath>
</defs>
</svg>
