<svg width="244" height="356" viewBox="0 0 244 356" fill="none" xmlns="http://www.w3.org/2000/svg">
<g filter="url(#filter0_d_523_3287)">
<g clip-path="url(#clip0_523_3287)">
<rect x="5" y="5" width="228" height="340" rx="12" fill="white"/>
<path d="M44.9375 35.3496C42.8086 35.3496 41.1582 35.9551 39.9863 37.166C38.9707 38.2402 38.4629 39.6074 38.4629 41.2676C38.4629 42.6152 39.1758 43.9043 40.6016 45.1348C42.0664 46.4043 43.6484 47.0391 45.3477 47.0391C47.0469 47.0391 48.4531 46.4727 49.5664 45.3398C50.6602 44.2266 51.2168 42.8301 51.2363 41.1504C51.2168 39.8613 50.6211 38.6016 49.4492 37.3711C48.1602 36.0234 46.6562 35.3496 44.9375 35.3496ZM44.8496 37.7812C45.748 37.7812 46.6562 38.2109 47.5742 39.0703C48.4336 39.8516 48.8633 40.5449 48.8633 41.1504C48.8633 42.0098 48.5215 42.7617 47.8379 43.4062C47.1152 44.0898 46.2656 44.4316 45.2891 44.4316C44.2734 44.4316 43.2969 44.041 42.3594 43.2598C41.3828 42.4395 40.9141 41.5508 40.9531 40.5938C40.9531 39.9297 41.3926 39.2949 42.2715 38.6895C43.1309 38.084 43.9902 37.7812 44.8496 37.7812ZM47.3984 53.4258C48.5703 53.2891 49.5566 53.123 50.3574 52.9277C50.8066 52.8105 51.3047 52.6445 51.8516 52.4297C52.2617 52.2734 52.5742 52.1758 52.7891 52.1367C53.1406 52.0781 53.6191 52.1074 54.2246 52.2246C55.2793 52.4004 56.0215 52.752 56.4512 53.2793C56.7637 53.6895 56.8613 54.1484 56.7441 54.6562C56.6074 55.2031 56.4023 55.5254 56.1289 55.623C55.8945 55.7012 55.3379 55.6816 54.459 55.5645C53.4824 55.4473 52.6328 55.3691 51.9102 55.3301C50.6406 55.252 49.2832 55.252 47.8379 55.3301C45.1621 55.5059 42.8867 55.7598 41.0117 56.0918C39.957 56.2676 38.8438 56.5117 37.6719 56.8242C36.8125 57.0781 36.1973 57.1758 35.8262 57.1172C35.3574 57.0391 34.5371 56.707 33.3652 56.1211C31.9395 55.3789 31.2363 54.7637 31.2559 54.2754C31.2559 53.8262 31.7051 53.6602 32.6035 53.7773C34.1074 53.8555 35.9629 53.8848 38.1699 53.8652C40.7871 53.8262 43.1602 53.7285 45.2891 53.5723L45.2598 53.4258C45.1426 52.7617 45.0059 52.1953 44.8496 51.7266C44.5566 50.8672 44.166 50.1641 43.6777 49.6172C42.9551 48.8945 42.8184 48.3867 43.2676 48.0938C43.7168 47.8008 44.5762 47.8691 45.8457 48.2988C46.998 48.8652 47.6816 49.3242 47.8965 49.6758C48.0527 49.9492 48.0234 50.4863 47.8086 51.2871C47.7109 51.6582 47.6328 51.9609 47.5742 52.1953C47.4766 52.5859 47.4082 52.9863 47.3691 53.3965L47.3984 53.4258ZM66.2363 55.5352C66.2363 56.1211 66.002 56.5996 65.5332 56.9707C65.1035 57.3418 64.5957 57.5273 64.0098 57.5273C63.3848 57.5273 62.8574 57.3418 62.4277 56.9707C61.9785 56.5996 61.7539 56.1211 61.7539 55.5352C61.7539 54.9492 61.9785 54.4609 62.4277 54.0703C62.8574 53.7188 63.3848 53.543 64.0098 53.543C64.5762 53.543 65.084 53.7188 65.5332 54.0703C66.002 54.4609 66.2363 54.9492 66.2363 55.5352ZM76.2266 55.5352C76.2266 56.1211 75.9922 56.5996 75.5234 56.9707C75.0938 57.3418 74.5859 57.5273 74 57.5273C73.375 57.5273 72.8477 57.3418 72.418 56.9707C71.9688 56.5996 71.7441 56.1211 71.7441 55.5352C71.7441 54.9492 71.9688 54.4609 72.418 54.0703C72.8477 53.7188 73.375 53.543 74 53.543C74.5664 53.543 75.0742 53.7188 75.5234 54.0703C75.9922 54.4609 76.2266 54.9492 76.2266 55.5352ZM86.2168 55.5352C86.2168 56.1211 85.9824 56.5996 85.5137 56.9707C85.084 57.3418 84.5762 57.5273 83.9902 57.5273C83.3652 57.5273 82.8379 57.3418 82.4082 56.9707C81.959 56.5996 81.7344 56.1211 81.7344 55.5352C81.7344 54.9492 81.959 54.4609 82.4082 54.0703C82.8379 53.7188 83.3652 53.543 83.9902 53.543C84.5566 53.543 85.0645 53.7188 85.5137 54.0703C85.9824 54.4609 86.2168 54.9492 86.2168 55.5352Z" fill="#410A0A"/>
<path d="M143.81 84.2096C145.26 83.7496 146.9 83.5497 148.75 83.7297C151.11 79.3997 150.56 68.7396 150.54 68.3496C150.54 68.3496 160.28 85.8497 165.72 85.5097C171.04 85.1797 164.55 70.9696 164.25 70.3396C164.88 71.0496 185.03 94.0097 191.5 128.51C192.35 127.9 193.44 127.24 194.7 126.73C197.36 125.65 200.81 125.24 204.5 127.37C212.59 132.03 212.42 142.93 211.27 148.7C210.11 154.48 203.51 162.4 197.08 162.07C190.64 161.74 187.51 157.95 187.51 157.95C182.58 169.12 176.31 177.99 168.92 184.4C161.47 190.86 152.9 194.81 143.45 196.06C124.64 198.54 104.83 195.4 87.1699 181.54C84.1499 179.17 81.6399 176.52 79.5399 173.69C71.3499 162.63 69.5699 148.81 69.2399 138.13H69.2299C72.4999 135.63 72.8899 133.96 72.2799 133.64C71.9899 133.49 70.8599 133.65 69.1699 133.81C69.1699 132.84 69.1799 131.92 69.1899 131.04C69.2799 122.05 75.2399 97.2396 88.8199 79.5596C90.7699 77.0296 92.8499 74.5996 95.1499 72.3496H95.1599L95.1899 72.3196C96.0899 71.8996 110.64 65.0296 112.41 64.3896C112.07 64.6996 99.9199 75.7997 102.69 78.3997C105.44 80.9997 126.99 68.2996 127.75 67.8596C127.34 68.4696 119.29 80.4197 122.99 83.6597C126.78 86.9797 140.15 69.4896 140.15 69.4896C140.15 69.4896 140.49 80.3996 143.81 84.2096ZM120.67 127.38C120.67 127.38 108.96 156.13 116.71 157.69C124.38 159.24 120.76 128.1 120.67 127.38ZM136.82 107.68C137.31 105.43 136.65 103.38 135.34 103.1C134.04 102.81 132.58 104.41 132.1 106.66C131.61 108.9 132.27 110.96 133.58 111.24C134.88 111.52 136.34 109.93 136.82 107.68ZM121.62 106.65C122.1 104.4 121.44 102.35 120.14 102.06C118.83 101.78 117.38 103.38 116.89 105.62C116.4 107.87 117.07 109.93 118.37 110.21C119.68 110.49 121.13 108.9 121.62 106.65ZM120.13 182.39C120.13 180.76 118.26 179.45 115.95 179.45C113.64 179.45 111.78 180.76 111.78 182.39C111.78 184.02 113.65 185.32 115.95 185.32C118.25 185.32 120.13 184.01 120.13 182.39Z" fill="#FFD9B3"/>
<path d="M127.75 67.8596C126.99 68.2996 105.44 80.9996 102.69 78.3996C99.9204 75.7996 112.07 64.6996 112.41 64.3896C110.64 65.0296 96.0904 71.8996 95.1904 72.3196C105 62.7396 118.85 56.3596 143.45 58.5996C156.84 59.8196 174.8 68.1696 186.02 92.4296C191.78 104.89 194.64 115.92 194.7 126.73C193.44 127.24 192.35 127.9 191.5 128.51C185.03 94.0096 164.88 71.0496 164.25 70.3396C164.55 70.9696 171.04 85.1796 165.72 85.5096C160.28 85.8496 150.54 68.3496 150.54 68.3496C150.56 68.7396 151.11 79.3996 148.75 83.7196C146.9 83.5496 145.26 83.7496 143.81 84.2096C140.49 80.3996 140.15 69.4896 140.15 69.4896C140.15 69.4896 126.78 86.9796 122.99 83.6596C119.29 80.4196 127.34 68.4696 127.75 67.8596Z" fill="#492B2A"/>
<path d="M180.7 259.43C180.42 259.6 180.11 259.67 179.86 259.74C179.24 259.92 177.35 259.61 176.69 259.12H176.65C176.54 257.79 176.45 256.83 176.45 256.83C176.61 256.74 176.76 256.65 176.9 256.54C176.9 256.54 176.33 251.44 175.76 245.82H175.77L183.19 243.27C183.19 243.27 182.88 246.8 183.19 247.13C183.5 247.46 188.58 246.64 189.98 248.95C191.38 251.26 191.1 257.24 189.98 258.31C188.87 259.39 184.91 260 180.7 259.43Z" fill="#FFD9B3"/>
<path d="M40.2701 182.9C40.3201 182.88 40.3901 182.89 40.4401 182.93C41.4301 183.64 44.5301 184.6 45.1401 183.64C45.7301 182.7 45.9401 179.95 45.9901 179.13C45.9901 179.01 46.1101 178.91 46.2401 178.94C48.5401 179.5 50.6401 183.45 51.2801 183.77C51.9201 184.09 54.0901 186.16 54.5801 186.74C55.0801 187.32 57.4501 189.46 59.3501 189.71C59.8801 189.78 60.4101 190 60.8901 190.29C61.6001 188.69 68.8001 183.09 70.8401 181.62C72.9001 180.14 76.0401 176.42 76.8601 175.27C77.6901 174.11 79.5401 173.69 79.5401 173.69C81.6401 176.52 84.1501 179.17 87.1701 181.54C104.83 195.4 124.64 198.54 143.45 196.06C152.9 194.81 161.47 190.86 168.92 184.4C168.92 184.4 183.55 184.29 184.87 184.4C186.19 184.51 189.32 184.76 188.74 191.28C188.17 197.79 186.93 202.17 187.26 206.13C187.59 210.09 186.93 219.41 186.76 221.97C186.6 224.53 187.18 227.66 187.01 230.55C186.85 233.44 185.77 238.39 186.6 242.1L183.19 243.27L175.77 245.82H175.76C176.33 251.44 176.9 256.54 176.9 256.54C176.76 256.65 176.61 256.74 176.45 256.83C173.97 258.22 170.31 256.8 168.45 257.04C166.47 257.28 158.3 260.17 154.5 258.27C150.71 256.38 148.46 256.99 147.32 257.12C145.14 257.37 141.55 257.2 135.77 258.93C130 260.67 125.46 259.68 122.98 256.87C120.51 254.07 116.22 255.14 114.32 255.8C112.42 256.46 101.04 259.76 95.8401 259.59C90.6401 259.43 89.8101 254.73 86.7601 253.65C83.7101 252.58 72.9001 254.89 71.5001 253.65C70.0901 252.42 71.0001 248.21 71.5001 245.81C71.9901 243.42 71.7501 238.47 73.5601 233.6C75.3801 228.74 75.1301 225.85 75.9501 221.06C76.3601 218.72 77.7401 213.41 79.0601 208.59L78.8001 208.52C78.4301 208.44 76.9001 208.85 75.3301 209.35C73.7701 209.84 70.0101 212.07 68.0701 211.99C66.1301 211.9 66.0501 212.03 60.8501 213.92C55.6601 215.82 54.5801 213.35 54.2101 211.9C53.8401 210.46 48.6401 202.66 47.7301 200.93C46.8301 199.2 43.8601 193.13 43.2001 191.4C42.5401 189.67 41.3401 187.52 40.6401 186.16C40.1401 185.19 40.1001 183.81 40.1201 183.09C40.1201 182.99 40.1901 182.92 40.2701 182.9Z" fill="#FCD47C"/>
<path d="M110.02 283.82C108.53 283.64 107.15 283.5 106.11 283.5C102.27 283.5 96.5198 284.18 94.9098 284.18C94.3298 284.18 92.3698 284.14 89.9798 284.03C85.7198 283.83 80.0998 283.4 78.5098 282.57C76.0398 281.27 72.6998 282.76 70.7498 282.57C68.7998 282.39 66.1998 282.2 66.2598 280.47C66.3198 278.74 69.5998 266.3 70.3998 262.65C71.2098 259 71.4998 253.65 71.4998 253.65C72.8998 254.89 83.7098 252.58 86.7598 253.65C89.8098 254.73 90.6398 259.43 95.8398 259.59C101.04 259.76 112.42 256.46 114.32 255.8C116.22 255.14 120.51 254.07 122.98 256.87C125.46 259.68 130 260.67 135.77 258.93C141.55 257.2 145.14 257.37 147.32 257.12C148.46 256.99 150.71 256.38 154.5 258.27C158.3 260.17 166.47 257.28 168.45 257.04C170.31 256.8 173.97 258.22 176.45 256.83C176.45 256.83 176.54 257.79 176.65 259.12C176.8 261.1 176.98 263.9 176.9 265.53C176.78 268.26 176.82 271.39 177.6 273.25C178.39 275.11 179.26 282.94 178.51 283.69C178.08 284.12 170.31 284.44 163.15 284.6C157.8 284.72 152.79 284.76 151.47 284.68C150.05 284.59 146.88 284.39 143.44 284.24C139.39 284.06 134.97 283.95 132.66 284.18C128.39 284.61 123.99 285.36 123.25 284.99C122.67 284.69 122.24 280.51 121.99 278.14C121.88 278.58 120.84 283.18 119.72 284.24C118.87 285.06 114.05 284.29 110.02 283.82Z" fill="#06A5AB"/>
<path d="M173.27 326.06C174.55 326.51 178.02 327.83 175.58 329.23C173.15 330.63 157.23 326.26 150.5 325.97C143.78 325.68 141.51 324.45 142.66 323.25C143.48 322.4 145.56 320.21 146.71 319C147.18 318.51 147.49 318.18 147.49 318.18C147.78 318.18 153.14 320.53 154.21 319.99C155.29 319.45 155.51 318.24 156.09 316.3C156.82 313.83 157.31 312.47 158.24 312.45C158.37 312.45 158.5 312.47 158.65 312.52C159.84 312.94 159.33 319.7 160.32 321.31C161.31 322.92 171.99 325.6 173.27 326.06Z" fill="#0778AA"/>
<path d="M163.15 284.6L159.46 305.37C159.46 305.37 156.91 306.42 152.37 306.34C147.83 306.25 145.95 305.17 145.95 305.17L143.45 284.24C146.89 284.39 150.06 284.59 151.48 284.68C152.8 284.76 157.81 284.72 163.16 284.6H163.15Z" fill="#FFD9B3"/>
<path d="M159.46 305.37L158.22 312.32L158.24 312.45C157.31 312.47 156.82 313.83 156.09 316.3C155.51 318.24 155.29 319.45 154.21 319.99C153.14 320.53 147.78 318.18 147.49 318.18L145.94 305.17C145.94 305.17 147.82 306.25 152.36 306.34C156.9 306.42 159.45 305.37 159.45 305.37H159.46Z" fill="white"/>
<path d="M135.34 103.1C136.65 103.38 137.31 105.43 136.82 107.68C136.34 109.93 134.88 111.52 133.58 111.24C132.27 110.96 131.61 108.9 132.1 106.66C132.58 104.41 134.04 102.81 135.34 103.1Z" fill="#232322"/>
<path d="M120.14 102.06C121.44 102.35 122.1 104.4 121.62 106.65C121.13 108.9 119.68 110.49 118.37 110.21C117.07 109.93 116.4 107.87 116.89 105.62C117.38 103.38 118.83 101.78 120.14 102.06Z" fill="#232322"/>
<path d="M120.67 127.38C120.76 128.1 124.38 159.24 116.71 157.69C108.96 156.13 120.67 127.38 120.67 127.38Z" fill="white"/>
<path d="M115.95 179.45C118.26 179.45 120.13 180.76 120.13 182.39C120.13 184.02 118.26 185.32 115.95 185.32C113.64 185.32 111.78 184.01 111.78 182.39C111.78 180.77 113.65 179.45 115.95 179.45Z" fill="#9E6363"/>
<path d="M110.02 283.82C109.96 284.08 107.52 294.23 105.56 303.31C99.0505 305.78 92.2305 303.72 91.8905 303.61H91.8805L89.9805 284.03C92.3705 284.14 94.3305 284.18 94.9105 284.18C96.5205 284.18 102.27 283.5 106.11 283.5C107.15 283.5 108.53 283.64 110.02 283.82Z" fill="#FFD9B3"/>
<path d="M92.54 310.31C94.72 310.58 94.75 316.63 95.14 316.86C95.55 317.1 98.56 316.9 100.91 316.86C102.05 316.84 102.63 316.88 103.12 317.17C103.65 317.48 104.08 318.06 105 319.12C106.77 321.19 106.56 323.37 105 323.99C103.43 324.61 90.8 324.03 85.03 325.64C79.25 327.25 72.16 327.25 71.87 325.11C71.58 322.96 78.68 322.51 81.15 321.6C83.63 320.69 89.23 318.97 89.65 318.3C90.47 316.98 89.36 311 92.04 310.34C92.22 310.3 92.39 310.29 92.54 310.31Z" fill="#0778AA"/>
<path d="M105.56 303.31C104.15 309.85 102.98 315.83 103.12 317.17C102.63 316.88 102.05 316.84 100.91 316.86C98.5597 316.9 95.5496 317.1 95.1396 316.86C94.7496 316.63 94.7197 310.58 92.5396 310.31L91.8896 303.61C92.2296 303.72 99.0496 305.78 105.56 303.31Z" fill="white"/>
<path d="M72.2799 133.64C72.8899 133.96 72.4999 135.63 69.2299 138.12C68.7499 138.49 68.1999 138.88 67.5799 139.29C64.0999 141.57 59.3099 142.78 54.0899 142.57C53.3399 142.53 52.5699 142.47 51.8099 142.38C50.8299 142.26 49.8499 142.1 48.8599 141.87C48.5899 141.82 48.3299 141.76 48.0599 141.69C47.6299 141.58 47.2099 141.46 46.7999 141.32C45.8499 141.01 44.9499 140.62 44.0899 140.18C43.3599 139.81 42.6699 139.41 42.0099 138.98C37.7599 136.21 34.8599 132.43 34.0399 131C32.7399 128.73 32.4699 127 32.7599 125.84C32.7899 125.73 32.8299 125.63 32.8799 125.53C33.2699 124.79 34.2899 124.38 35.1499 123.98C35.4999 123.81 35.8099 123.56 36.0499 123.25C36.4699 122.7 37.3499 121.8 38.6099 121.76H38.7499C41.2499 121.81 41.7499 124.2 44.0599 126.96C46.3699 129.72 52.8899 132.57 59.4499 133.64C63.2899 134.27 66.7899 134.04 69.1699 133.81C70.8599 133.65 71.9899 133.49 72.2799 133.64Z" fill="#BF2202"/>
<path d="M54.0897 142.56C53.5397 145.55 52.3197 150.65 50.8897 152.25C48.8397 154.5 45.1797 154.72 45.1797 154.72C45.1797 154.72 44.2497 157.63 42.8997 161.77C42.2097 161.09 41.5397 160.51 40.9797 160.14C40.2297 159.65 39.2597 159.05 38.2197 158.52C39.7597 155.22 40.8097 152.99 40.8097 152.99C40.8097 152.99 38.2897 150.34 38.3397 147.3C38.3597 145.39 40.4097 141.59 42.0097 138.98C42.6697 139.41 43.3597 139.81 44.0897 140.18C43.3497 141.89 42.4497 143.9 41.9097 145.33C41.6997 145.87 43.8697 146.92 44.3497 146.62C44.6497 146.42 45.7897 143.7 46.7997 141.32C47.2097 141.46 47.6297 141.58 48.0597 141.69C48.3297 141.76 48.5897 141.82 48.8597 141.87C47.9597 144.35 46.8697 147.29 46.9597 147.65C47.0897 148.19 49.3997 148.91 49.6197 148.37C50.2797 146.74 51.1197 144.25 51.8097 142.38C52.5697 142.47 53.3397 142.53 54.0897 142.56Z" fill="#CCCCCC"/>
<path d="M43.2997 171.7C42.8297 172.22 41.7097 173.27 40.3697 173.27C40.0597 173.27 39.7297 173.22 39.3997 173.08C37.3997 172.26 40.4297 165.24 42.5797 162.75C42.5797 162.75 42.5797 162.744 42.5797 162.73C42.8097 162.47 43.0297 162.26 43.2297 162.11C45.4097 164.35 47.7097 167.51 47.7097 168.62C47.7097 169.23 47.0097 170.77 46.1797 172.38L43.2897 171.7H43.2997Z" fill="#FFD9B3"/>
<path d="M38.7199 180.36L36.9199 180.33C37.4399 180.33 37.8599 180.12 38.2299 179.6C39.3699 177.99 38.9699 176.96 39.7899 176.49C40.6199 176.01 41.0099 175.66 40.7399 173.47L40.3699 173.27C41.7099 173.27 42.8299 172.22 43.2999 171.7L46.1899 172.38C44.9799 174.72 43.4899 177.22 43.4899 177.22L45.9899 179.13C45.9399 179.95 45.7299 182.7 45.1399 183.64C44.5299 184.6 41.4299 183.64 40.4399 182.93C40.3899 182.89 40.3199 182.88 40.2699 182.9C40.2099 182.71 39.5999 180.72 38.7199 180.36Z" fill="#FFD9B3"/>
<path d="M42.8997 161.77C42.7997 162.07 42.6897 162.4 42.5897 162.73C42.5897 162.73 42.5897 162.736 42.5897 162.75C40.4397 165.24 37.4097 172.26 39.4097 173.08C39.7397 173.22 40.0697 173.27 40.3797 173.27L40.7497 173.47C41.0197 175.66 40.6297 176.01 39.7997 176.49C38.9797 176.96 39.3797 177.99 38.2397 179.6C37.8697 180.12 37.4497 180.33 36.9297 180.33C36.8197 180.33 36.7097 180.32 36.5997 180.3C35.5497 180.15 34.1497 179.31 32.1397 178.52C31.1897 178.14 30.4297 177.67 29.8197 177.15C28.3397 175.89 27.7497 174.38 27.3797 173.35C26.8497 171.9 27.8697 171.31 28.5497 169.54C29.2297 167.78 28.6397 165.49 28.9497 164.53C29.2597 163.57 30.2797 163.91 30.7497 162.68C31.2097 161.44 30.6497 159.89 32.1697 157.85C33.2197 156.43 35.8797 157.31 38.2297 158.52C39.2697 159.05 40.2397 159.65 40.9897 160.14C41.5497 160.51 42.2197 161.09 42.9097 161.77H42.8997Z" fill="#FFD9B3"/>
<path d="M38.6104 121.76C37.3504 121.8 36.4704 122.7 36.0504 123.25C35.8104 123.56 35.5004 123.81 35.1504 123.98C34.2904 124.38 33.2704 124.79 32.8804 125.53C32.8804 125.53 31.0504 122.85 33.6504 121.25C36.2504 119.64 37.3704 120.34 38.6104 121.76Z" fill="#3A7C45"/>
<path d="M36.5897 180.3C34.8197 185.21 33.2997 189.03 32.6697 189.61C30.9897 191.17 28.8097 189.84 28.8097 189.84C28.8097 189.84 26.3097 189.32 26.1497 187.04C26.0797 186.16 27.6597 182.14 29.8097 177.15C30.4197 177.67 31.1797 178.14 32.1297 178.52C34.1397 179.31 35.5397 180.15 36.5897 180.3Z" fill="#CCCCCC"/>
<path d="M69.2402 138.13C69.5702 148.81 71.3502 162.63 79.5402 173.69C81.6402 176.52 84.1502 179.17 87.1702 181.54C104.83 195.4 124.64 198.54 143.45 196.06C152.9 194.81 161.47 190.86 168.92 184.4C176.31 177.99 182.58 169.12 187.51 157.95" stroke="#1D1D1B" stroke-width="0.4" stroke-linecap="round" stroke-linejoin="round"/>
<path d="M95.1904 72.3196C105 62.7396 118.85 56.3596 143.45 58.5996C156.84 59.8196 174.8 68.1696 186.02 92.4296C191.78 104.89 194.64 115.92 194.7 126.73" stroke="#1D1D1B" stroke-width="0.4" stroke-linecap="round" stroke-linejoin="round"/>
<path d="M69.1699 133.81C69.1699 132.84 69.1799 131.92 69.1899 131.04C69.2799 122.05 75.2399 97.2396 88.8199 79.5596C90.7699 77.0296 92.8499 74.5996 95.1499 72.3496" stroke="#1D1D1B" stroke-width="0.4" stroke-linecap="round" stroke-linejoin="round"/>
<path d="M189.49 130.22C189.49 130.22 190.23 129.42 191.5 128.51C192.35 127.9 193.44 127.24 194.7 126.73C197.36 125.65 200.81 125.24 204.5 127.37C212.59 132.03 212.42 142.93 211.27 148.7C210.11 154.48 203.51 162.4 197.08 162.07C190.64 161.74 187.51 157.95 187.51 157.95" stroke="#1D1D1B" stroke-width="0.4" stroke-linecap="round" stroke-linejoin="round"/>
<path d="M133.71 96.0597C133.71 96.0597 136.16 86.6097 143.81 84.2097C145.26 83.7497 146.9 83.5497 148.75 83.7297C149.58 83.7897 150.45 83.9397 151.37 84.1797C164.22 87.4697 164.24 101.1 164.24 101.18" stroke="#1D1D1B" stroke-width="0.4" stroke-linecap="round" stroke-linejoin="round"/>
<path d="M125.13 95.07C125.13 95.07 125.13 81.04 114.4 80.38C103.68 79.72 93.9404 94.41 93.9404 94.41" stroke="#1D1D1B" stroke-width="0.4" stroke-linecap="round" stroke-linejoin="round"/>
<path d="M164.25 70.3398C164.88 71.0498 185.03 94.0098 191.5 128.51" stroke="#1D1D1B" stroke-width="0.4" stroke-linecap="round" stroke-linejoin="round"/>
<path d="M150.54 68.3496C150.56 68.7396 151.11 79.3996 148.75 83.7196" stroke="#1D1D1B" stroke-width="0.4" stroke-linecap="round" stroke-linejoin="round"/>
<path d="M164.24 70.3196C164.24 70.3196 164.24 70.3196 164.24 70.3396C164.54 70.9696 171.03 85.1796 165.71 85.5096C160.27 85.8496 150.53 68.3496 150.53 68.3496" stroke="#1D1D1B" stroke-width="0.4" stroke-linecap="round" stroke-linejoin="round"/>
<path d="M127.75 67.8604C127.34 68.4704 119.29 80.4204 122.99 83.6604C126.78 86.9804 140.15 69.4903 140.15 69.4903C140.15 69.4903 140.49 80.4004 143.81 84.2104" stroke="#1D1D1B" stroke-width="0.4" stroke-linecap="round" stroke-linejoin="round"/>
<path d="M112.41 64.3896C112.07 64.6996 99.9196 75.7997 102.69 78.3997C105.44 80.9997 126.99 68.2996 127.75 67.8596L127.77 67.8396" stroke="#1D1D1B" stroke-width="0.4" stroke-linecap="round" stroke-linejoin="round"/>
<path d="M112.42 64.3799C110.65 65.0299 96.1001 71.8999 95.2001 72.3199C95.1901 72.3299 95.1802 72.3399 95.1702 72.3399H95.1602" stroke="#1D1D1B" stroke-width="0.4" stroke-linecap="round" stroke-linejoin="round"/>
<path d="M136.82 107.68C136.34 109.93 134.88 111.52 133.58 111.24C132.27 110.96 131.61 108.9 132.1 106.66C132.58 104.41 134.04 102.81 135.34 103.1C136.65 103.38 137.31 105.43 136.82 107.68Z" stroke="#1D1D1B" stroke-width="0.4" stroke-miterlimit="10"/>
<path d="M121.62 106.65C121.13 108.9 119.68 110.49 118.37 110.21C117.07 109.93 116.4 107.87 116.89 105.62C117.38 103.38 118.83 101.78 120.14 102.06C121.44 102.35 122.1 104.4 121.62 106.65Z" stroke="#1D1D1B" stroke-width="0.4" stroke-miterlimit="10"/>
<path d="M79.5396 173.69C79.5396 173.69 77.6896 174.11 76.8596 175.27C76.0396 176.42 72.8996 180.14 70.8396 181.62C68.7996 183.09 61.5996 188.69 60.8896 190.29C60.8696 190.32 60.8596 190.35 60.8496 190.37" stroke="#1D1D1B" stroke-width="0.4" stroke-linecap="round" stroke-linejoin="round"/>
<path d="M63.0801 192.18C63.0801 192.18 62.1301 191.03 60.8901 190.29C60.4101 190 59.8801 189.78 59.3501 189.71C57.4501 189.46 55.0801 187.32 54.5801 186.74C54.0901 186.16 51.9401 184.1 51.2801 183.77C50.6201 183.44 48.5401 179.5 46.2401 178.94C46.1101 178.91 46.0001 179.01 45.9901 179.13C45.9401 179.95 45.7301 182.7 45.1401 183.64C44.5301 184.6 41.4301 183.64 40.4401 182.93C40.3901 182.89 40.3201 182.88 40.2701 182.9C40.1901 182.92 40.1201 182.99 40.1201 183.09C40.1001 183.81 40.1401 185.19 40.6401 186.16C41.3401 187.52 42.5401 189.67 43.2001 191.4C43.8601 193.13 46.8301 199.2 47.7301 200.93C48.6401 202.66 53.8401 210.46 54.2101 211.9C54.5801 213.35 55.6601 215.82 60.8501 213.92C66.0501 212.03 66.1301 211.9 68.0701 211.99C70.0101 212.07 73.7701 209.84 75.3301 209.35C76.9001 208.85 78.4301 208.44 78.8001 208.52" stroke="#1D1D1B" stroke-width="0.4" stroke-linecap="round" stroke-linejoin="round"/>
<path d="M81.7302 199.03C81.7302 199.03 80.4402 203.54 79.0602 208.59C77.7402 213.41 76.3602 218.72 75.9502 221.06C75.1302 225.85 75.3802 228.74 73.5602 233.6C71.7502 238.47 71.9902 243.42 71.5002 245.81C71.0002 248.21 70.0902 252.42 71.5002 253.65C72.9002 254.89 83.7102 252.58 86.7602 253.65C89.8102 254.73 90.6402 259.43 95.8402 259.59C101.04 259.76 112.42 256.46 114.32 255.8C116.22 255.14 120.51 254.07 122.98 256.87C125.46 259.68 130 260.67 135.77 258.93C141.55 257.2 145.14 257.37 147.32 257.12C148.46 256.99 150.71 256.38 154.5 258.27C158.3 260.17 166.47 257.28 168.45 257.04C170.31 256.8 173.97 258.22 176.45 256.83C176.61 256.74 176.76 256.65 176.9 256.54C176.9 256.54 176.33 251.44 175.76 245.82C175.16 239.82 174.55 233.24 174.63 231.71C174.8 228.74 173.81 214.54 173.81 214.54" stroke="#1D1D1B" stroke-width="0.4" stroke-linecap="round" stroke-linejoin="round"/>
<path d="M168.92 184.4C168.92 184.4 183.55 184.29 184.87 184.4C186.19 184.51 189.32 184.76 188.74 191.28C188.17 197.79 186.93 202.17 187.26 206.13C187.59 210.09 186.93 219.41 186.76 221.97C186.6 224.53 187.18 227.66 187.01 230.55C186.85 233.44 185.77 238.39 186.6 242.1L183.19 243.27L175.77 245.82" stroke="#1D1D1B" stroke-width="0.4" stroke-linecap="round" stroke-linejoin="round"/>
<path d="M183.19 243.27C183.19 243.27 182.88 246.8 183.19 247.13C183.5 247.46 188.58 246.64 189.98 248.95C191.38 251.26 191.1 257.24 189.98 258.31C188.87 259.39 184.91 260 180.7 259.43" stroke="#1D1D1B" stroke-width="0.4" stroke-linecap="round" stroke-linejoin="round"/>
<path d="M184.24 253.85C184.24 253.85 182.3 251.34 180.93 252.99C179.57 254.64 181.1 255.91 181.31 257.65C181.43 258.69 181.11 259.17 180.7 259.43C180.42 259.6 180.11 259.67 179.86 259.74C179.24 259.92 177.35 259.61 176.69 259.12" stroke="#1D1D1B" stroke-width="0.4" stroke-linecap="round" stroke-linejoin="round"/>
<path d="M121.99 278.11C121.92 277.46 121.87 276.94 121.83 276.69C121.64 275.52 118.8 271.62 118.8 271.62" stroke="#1D1D1B" stroke-width="0.4" stroke-linecap="round" stroke-linejoin="round"/>
<path d="M176.45 256.83C176.45 256.83 176.54 257.79 176.65 259.12C176.8 261.1 176.98 263.9 176.9 265.53C176.78 268.26 176.82 271.39 177.6 273.25C178.39 275.11 179.26 282.94 178.51 283.69C178.08 284.12 170.31 284.44 163.15 284.6C157.8 284.72 152.79 284.76 151.47 284.68C150.05 284.59 146.88 284.39 143.44 284.24C139.39 284.06 134.97 283.95 132.66 284.18C128.39 284.61 123.99 285.36 123.25 284.99C122.67 284.69 122.24 280.51 121.99 278.14" stroke="#1D1D1B" stroke-width="0.4" stroke-linecap="round" stroke-linejoin="round"/>
<path d="M121.99 278.11V278.14C121.88 278.58 120.84 283.18 119.72 284.24C118.87 285.06 114.05 284.29 110.02 283.82C108.53 283.64 107.15 283.5 106.11 283.5C102.27 283.5 96.5198 284.18 94.9098 284.18C94.3298 284.18 92.3698 284.14 89.9798 284.03C85.7198 283.83 80.0998 283.4 78.5098 282.57C76.0398 281.27 72.6998 282.76 70.7498 282.57C68.7998 282.39 66.1998 282.2 66.2598 280.47C66.3198 278.74 69.5998 266.3 70.3998 262.65C71.2098 259 71.4998 253.65 71.4998 253.65" stroke="#1D1D1B" stroke-width="0.4" stroke-linecap="round" stroke-linejoin="round"/>
<path d="M143.44 284.24L145.94 305.17L147.49 318.18M147.49 318.18C147.49 318.18 147.18 318.51 146.71 319C145.56 320.21 143.48 322.4 142.66 323.25C141.51 324.45 143.78 325.68 150.5 325.97C157.23 326.26 173.15 330.63 175.58 329.23C178.02 327.83 174.55 326.51 173.27 326.06C171.99 325.6 161.31 322.92 160.32 321.31C159.33 319.7 159.84 312.94 158.65 312.52C158.5 312.47 158.37 312.45 158.24 312.45C157.31 312.47 156.82 313.83 156.09 316.3C155.51 318.24 155.29 319.45 154.21 319.99C153.14 320.53 147.78 318.18 147.49 318.18Z" stroke="#1D1D1B" stroke-width="0.4" stroke-linecap="round" stroke-linejoin="round"/>
<path d="M163.15 284.6L159.46 305.37L158.22 312.32" stroke="#1D1D1B" stroke-width="0.4" stroke-linecap="round" stroke-linejoin="round"/>
<path d="M145.94 305.17C145.94 305.17 147.82 306.25 152.36 306.34C156.9 306.42 159.45 305.37 159.45 305.37" stroke="#1D1D1B" stroke-width="0.4" stroke-linecap="round" stroke-linejoin="round"/>
<path d="M91.8805 303.61L89.9805 284.03" stroke="#1D1D1B" stroke-width="0.4" stroke-linecap="round" stroke-linejoin="round"/>
<path d="M92.5396 310.34V310.31L91.8896 303.61" stroke="#1D1D1B" stroke-width="0.4" stroke-linecap="round" stroke-linejoin="round"/>
<path d="M110.02 283.81C109.96 284.08 107.52 294.23 105.56 303.31C104.15 309.85 102.98 315.83 103.12 317.17" stroke="#1D1D1B" stroke-width="0.4" stroke-linecap="round" stroke-linejoin="round"/>
<path d="M92.54 310.31C92.39 310.29 92.22 310.3 92.04 310.34C89.36 311 90.47 316.98 89.65 318.3C89.23 318.97 83.63 320.69 81.15 321.6C78.68 322.51 71.58 322.96 71.87 325.11C72.16 327.25 79.25 327.25 85.03 325.64C90.8 324.03 103.43 324.61 105 323.99C106.56 323.37 106.77 321.19 105 319.12C104.08 318.06 103.65 317.48 103.12 317.17C102.63 316.88 102.05 316.84 100.91 316.86C98.56 316.9 95.55 317.1 95.14 316.86C94.75 316.63 94.72 310.58 92.54 310.31Z" stroke="#1D1D1B" stroke-width="0.4" stroke-linecap="round" stroke-linejoin="round"/>
<path d="M91.8799 303.61H91.8899C92.2299 303.72 99.0499 305.78 105.56 303.31" stroke="#1D1D1B" stroke-width="0.4" stroke-linecap="round" stroke-linejoin="round"/>
<path d="M120.67 127.38C120.67 127.38 108.96 156.13 116.71 157.69C124.38 159.24 120.76 128.1 120.67 127.38Z" stroke="#1D1D1B" stroke-width="0.4" stroke-linecap="round" stroke-linejoin="round"/>
<path d="M120.67 127.37V127.38" stroke="#1D1D1B" stroke-width="0.4" stroke-linecap="round" stroke-linejoin="round"/>
<path d="M120.13 182.39C120.13 184.01 118.26 185.32 115.95 185.32C113.64 185.32 111.78 184.01 111.78 182.39C111.78 180.77 113.65 179.45 115.95 179.45C118.25 179.45 120.13 180.76 120.13 182.39Z" stroke="#1D1D1B" stroke-width="0.4" stroke-linecap="round" stroke-linejoin="round"/>
<path d="M40.2703 182.91C40.2103 182.71 39.6003 180.72 38.7203 180.36C38.6603 180.33 38.5903 180.32 38.5303 180.31" stroke="#1D1D1B" stroke-width="0.4" stroke-linecap="round" stroke-linejoin="round"/>
<path d="M45.9899 179.13L43.4899 177.22C43.4899 177.22 44.9799 174.72 46.1899 172.38C47.0199 170.77 47.7199 169.23 47.7199 168.62C47.7199 167.51 45.4199 164.35 43.2399 162.11L42.8999 161.77C42.2099 161.09 41.5399 160.51 40.9799 160.14C40.2299 159.65 39.2599 159.05 38.2199 158.52C35.8699 157.31 33.2099 156.43 32.1599 157.85C30.6399 159.89 31.1999 161.44 30.7399 162.68C30.2699 163.91 29.2499 163.57 28.9399 164.53C28.6299 165.49 29.2199 167.78 28.5399 169.54C27.8599 171.31 26.8399 171.9 27.3699 173.35C27.7399 174.38 28.3299 175.89 29.8099 177.15C30.4199 177.67 31.1799 178.14 32.1299 178.52C34.1399 179.31 35.5399 180.15 36.5899 180.3C36.6999 180.32 36.8099 180.33 36.9199 180.33C37.4399 180.33 37.8599 180.12 38.2299 179.6C39.3699 177.99 38.9699 176.96 39.7899 176.49C40.6199 176.01 41.0099 175.66 40.7399 173.47" stroke="#1D1D1B" stroke-width="0.4" stroke-linecap="round" stroke-linejoin="round"/>
<path d="M42.5898 162.73C42.8198 162.47 43.0398 162.26 43.2398 162.11" stroke="#1D1D1B" stroke-width="0.4" stroke-linecap="round" stroke-linejoin="round"/>
<path d="M43.5497 171.41C43.5497 171.41 43.4597 171.53 43.2997 171.7C42.8297 172.22 41.7097 173.27 40.3697 173.27C40.0597 173.27 39.7297 173.22 39.3997 173.08C37.3997 172.26 40.4297 165.24 42.5797 162.75" stroke="#1D1D1B" stroke-width="0.4" stroke-linecap="round" stroke-linejoin="round"/>
<path d="M97.5702 117.68L93.2002 125.84" stroke="#1D1D1B" stroke-width="0.4" stroke-linecap="round" stroke-linejoin="round"/>
<path d="M105.08 118.91L101.12 126.84" stroke="#1D1D1B" stroke-width="0.4" stroke-linecap="round" stroke-linejoin="round"/>
<path d="M114.06 119.66L110.19 127.37" stroke="#1D1D1B" stroke-width="0.4" stroke-linecap="round" stroke-linejoin="round"/>
<path d="M143.81 118.5L138.5 128.51" stroke="#1D1D1B" stroke-width="0.4" stroke-linecap="round" stroke-linejoin="round"/>
<path d="M151.12 120.73L147.57 128.51" stroke="#1D1D1B" stroke-width="0.4" stroke-linecap="round" stroke-linejoin="round"/>
<path d="M158.28 122.38L155.08 128.9" stroke="#1D1D1B" stroke-width="0.4" stroke-linecap="round" stroke-linejoin="round"/>
<path d="M29.8097 177.15C27.6597 182.14 26.0797 186.16 26.1497 187.04C26.3097 189.32 28.8097 189.84 28.8097 189.84C28.8097 189.84 30.9897 191.17 32.6697 189.61C33.2997 189.03 34.8197 185.21 36.5897 180.3" stroke="#1D1D1B" stroke-width="0.4" stroke-linecap="round" stroke-linejoin="round"/>
<path d="M38.2197 158.52C39.7597 155.22 40.8097 152.99 40.8097 152.99C40.8097 152.99 38.2897 150.34 38.3397 147.3C38.3597 145.39 40.4097 141.59 42.0097 138.98" stroke="#1D1D1B" stroke-width="0.4" stroke-linecap="round" stroke-linejoin="round"/>
<path d="M48.8603 141.88C47.9603 144.35 46.8703 147.29 46.9603 147.65C47.0903 148.19 49.4003 148.91 49.6203 148.37C50.2803 146.74 51.1203 144.25 51.8103 142.38" stroke="#1D1D1B" stroke-width="0.4" stroke-linecap="round" stroke-linejoin="round"/>
<path d="M42.5801 162.75C42.5801 162.75 42.5801 162.74 42.5801 162.73C42.6801 162.4 42.7901 162.07 42.8901 161.77C44.2401 157.63 45.1701 154.72 45.1701 154.72C45.1701 154.72 48.8301 154.5 50.8801 152.25C52.3101 150.65 53.5301 145.55 54.0801 142.57" stroke="#1D1D1B" stroke-width="0.4" stroke-linecap="round" stroke-linejoin="round"/>
<path d="M44.0898 140.18C43.3498 141.89 42.4498 143.9 41.9098 145.33C41.6998 145.87 43.8698 146.92 44.3498 146.62C44.6498 146.42 45.7898 143.7 46.7998 141.32" stroke="#1D1D1B" stroke-width="0.4" stroke-linecap="round" stroke-linejoin="round"/>
<path d="M38.6099 121.76C37.3499 121.8 36.4699 122.7 36.0499 123.25C35.8099 123.56 35.4999 123.81 35.1499 123.98C34.2899 124.38 33.2699 124.79 32.8799 125.53C32.8299 125.63 32.7899 125.73 32.7599 125.84C32.4699 127 32.7399 128.73 34.0399 131C34.8599 132.43 37.7599 136.21 42.0099 138.98C42.6699 139.41 43.3599 139.81 44.0899 140.18C44.9499 140.62 45.8499 141.01 46.7999 141.32C47.2099 141.46 47.6299 141.58 48.0599 141.69C48.3299 141.76 48.5899 141.82 48.8599 141.87C49.8499 142.1 50.8299 142.26 51.8099 142.38C52.5699 142.47 53.3399 142.53 54.0899 142.56C59.3099 142.78 64.0999 141.57 67.5799 139.29C68.1999 138.88 68.7499 138.49 69.2299 138.12C72.4999 135.63 72.8899 133.96 72.2799 133.64C71.9899 133.49 70.8599 133.65 69.1699 133.81C66.7899 134.04 63.2899 134.27 59.4499 133.64C52.8899 132.57 46.3699 129.72 44.0599 126.96C41.7499 124.2 41.2499 121.81 38.7499 121.76H38.6099Z" stroke="#1D1D1B" stroke-width="0.4" stroke-linecap="round" stroke-linejoin="round"/>
<path d="M32.8804 125.53C32.8804 125.53 31.0504 122.85 33.6504 121.25C36.2504 119.64 37.3704 120.34 38.6104 121.76" stroke="#1D1D1B" stroke-width="0.4" stroke-linecap="round" stroke-linejoin="round"/>
</g>
<rect x="7" y="7" width="224" height="336" rx="10" stroke="#3A7C45" stroke-width="4"/>
</g>
<defs>
<filter id="filter0_d_523_3287" x="0" y="0" width="244" height="356" filterUnits="userSpaceOnUse" color-interpolation-filters="sRGB">
<feFlood flood-opacity="0" result="BackgroundImageFix"/>
<feColorMatrix in="SourceAlpha" type="matrix" values="0 0 0 0 0 0 0 0 0 0 0 0 0 0 0 0 0 0 127 0" result="hardAlpha"/>
<feOffset dx="3" dy="3"/>
<feGaussianBlur stdDeviation="4"/>
<feComposite in2="hardAlpha" operator="out"/>
<feColorMatrix type="matrix" values="0 0 0 0 0 0 0 0 0 0 0 0 0 0 0 0 0 0 0.2 0"/>
<feBlend mode="normal" in2="BackgroundImageFix" result="effect1_dropShadow_523_3287"/>
<feBlend mode="normal" in="SourceGraphic" in2="effect1_dropShadow_523_3287" result="shape"/>
</filter>
<clipPath id="clip0_523_3287">
<rect x="5" y="5" width="228" height="340" rx="12" fill="white"/>
</clipPath>
</defs>
</svg>
