<svg width="304" height="428" viewBox="0 0 304 428" fill="none" xmlns="http://www.w3.org/2000/svg">
<g filter="url(#filter0_d_523_3277)">
<rect x="11" y="11" width="276" height="400" rx="6" fill="white" shape-rendering="crispEdges"/>
<rect x="8" y="8" width="282" height="406" rx="9" stroke="#E55936" stroke-width="6" shape-rendering="crispEdges"/>
<g clip-path="url(#clip0_523_3277)">
<path d="M120.557 51.6388C120.194 50.3991 120.19 49.4393 120.547 48.7593C120.836 48.2098 121.374 47.8567 122.162 47.7C122.95 47.5432 123.583 47.6634 124.06 48.0606C124.604 48.5614 124.945 49.4541 125.083 50.7386L126.817 63.185C126.901 64.0818 126.883 64.7533 126.76 65.1992C126.602 65.6993 126.275 65.9985 125.78 66.0971C125.307 66.1911 124.902 66.0374 124.565 65.6359C124.259 65.275 123.985 64.6618 123.743 63.7963L120.557 51.6388ZM129.435 70.8873C129.569 71.5634 129.408 72.1693 128.953 72.705C128.52 73.2362 127.966 73.569 127.29 73.7034C126.592 73.8422 125.953 73.7468 125.373 73.4171C124.77 73.0919 124.401 72.5913 124.267 71.9152C124.133 71.239 124.28 70.6241 124.708 70.0703C125.123 69.5661 125.679 69.2446 126.377 69.1058C127.053 68.9714 127.69 69.0556 128.288 69.3582C128.918 69.7015 129.3 70.2112 129.435 70.8873Z" fill="#410A0A"/>
<path d="M100.418 51.7087C99.7649 51.8386 99.1099 51.7815 98.4528 51.5373C98.0523 51.4061 97.4178 51.0989 96.5494 50.6157L96.1108 50.3515C95.7107 49.8689 95.5558 49.5014 95.6461 49.2492C95.7545 48.9699 96.1757 48.851 96.9095 48.8925C97.8008 49.0197 98.726 49.0231 99.6852 48.9026C100.437 48.7999 101.279 48.6207 102.212 48.3649C103.315 48.1455 104.008 48.3356 104.291 48.9353C104.565 49.4899 104.29 50.0483 103.465 50.6106L103.046 50.7994C102.618 51.0016 102.285 51.1499 102.046 51.2443C101.636 51.4195 101.161 51.5609 100.621 51.6684L100.418 51.7087ZM101.158 54.1971C99.9237 54.5832 98.8516 54.9604 97.9417 55.3288C97.4011 55.5534 96.8132 55.8344 96.178 56.1716C95.5383 56.4862 95.0676 56.6501 94.7659 56.6633C94.4192 56.6854 93.7485 56.5494 92.7538 56.2553C91.5117 55.7761 90.882 55.3157 90.8645 54.874C90.874 54.4504 91.4574 54.2055 92.6146 54.1394C94.5014 53.8578 96.2825 53.5152 97.9579 53.1117C99.881 52.6589 101.656 52.1068 103.282 51.4553C103.624 51.2935 103.978 51.1295 104.343 50.9632C104.577 50.8463 104.863 50.6957 105.201 50.5114C105.944 50.1292 106.478 49.9293 106.802 49.9117C107.266 49.8898 107.905 50.1023 108.72 50.5495C109.417 50.9964 109.621 51.4946 109.332 52.0441C109.021 52.598 108.352 52.8833 107.325 52.9001C106.465 52.9306 105.418 53.0802 104.184 53.3491C103.153 53.5777 102.212 53.8469 101.36 54.1568L101.158 54.1971ZM101.475 54.7315C100.169 54.9913 99.0759 55.6186 98.1968 56.6134C97.3717 57.5272 97.0397 58.3898 97.2008 59.2011C97.4872 60.6435 98.4135 61.654 99.9796 62.2328C101.24 62.6849 102.545 62.7766 103.896 62.5079C105.225 62.2437 106.295 61.6208 107.107 60.6395C107.923 59.6806 108.228 58.6828 108.022 57.6461C107.812 56.5869 107.052 55.7658 105.742 55.1828C104.428 54.5774 103.006 54.4269 101.475 54.7315ZM102.478 56.9566C103.154 56.8223 103.777 56.8388 104.349 57.0062C105.024 57.2233 105.422 57.6362 105.543 58.2447C105.614 58.6053 105.441 58.9678 105.021 59.3323C104.607 59.7194 104.073 59.9778 103.42 60.1077C102.722 60.2465 102.006 60.2367 101.272 60.078C100.39 59.8787 99.8996 59.5311 99.8012 59.0353C99.689 58.7062 99.9371 58.3054 100.546 57.833C101.136 57.3876 101.78 57.0955 102.478 56.9566ZM102.973 66.3462C100.104 67.2214 97.6965 68.0634 95.7505 68.8722C94.6469 69.326 93.5341 69.8519 92.4123 70.4498C91.6734 70.8545 91.1306 71.0679 90.7839 71.09C90.3967 71.1436 89.6629 71.0436 88.5826 70.7899C87.6284 70.5814 86.8385 70.3169 86.2131 69.9961C85.6686 69.7296 85.2862 69.4543 85.066 69.1701C84.8727 68.904 84.8482 68.6629 84.9926 68.4467C85.1414 68.2531 85.4319 68.1251 85.8642 68.0625C88.4086 67.6736 91.784 66.9905 95.9904 66.0132C100.625 64.9509 103.964 64.0289 106.009 63.2473C106.811 62.9238 107.552 62.589 108.232 62.2428C108.642 62.0676 109.111 61.8338 109.638 61.5416C110.377 61.1369 110.929 60.91 111.294 60.8609C111.766 60.7668 112.566 60.7836 113.691 60.9111C114.699 61.1557 115.293 61.6701 115.472 62.4545C115.651 63.1216 115.516 63.6172 115.065 63.9411C114.732 64.1479 114.396 64.285 114.058 64.3522C113.788 64.4059 113.272 64.4616 112.511 64.5193C111.588 64.5857 110.785 64.6636 110.1 64.7529C108.862 64.8821 107.529 65.0652 106.101 65.3023C107.101 65.3846 107.681 65.5971 107.843 65.9398C107.96 66.1743 107.878 66.5888 107.598 67.1833L107.273 68.0211L106.866 69.3319C106.654 69.913 106.44 70.1898 106.224 70.1625C106.03 70.1308 105.889 69.8895 105.799 69.4388C105.687 69.1097 105.546 68.8098 105.375 68.5392C105.271 68.3724 105.11 68.1468 104.889 67.8627C104.71 67.6642 104.584 67.5018 104.512 67.3755C104.377 67.1681 104.267 66.9674 104.182 66.7735C104.101 66.485 103.973 66.3114 103.797 66.2526C103.676 66.2299 103.401 66.2611 102.973 66.3462ZM104.612 73.7161C104.716 73.2971 104.714 72.9344 104.607 72.6278C104.49 72.2762 104.209 71.8635 103.764 71.3898C103.553 71.1507 103.458 70.9117 103.481 70.6729C103.5 70.4116 103.637 70.2202 103.894 70.0989C104.146 69.955 104.486 69.899 104.914 69.9311C105.418 69.9948 105.992 70.1735 106.635 70.4672C107.972 71.0682 108.698 71.6617 108.815 72.2476C108.913 72.6263 108.676 73.2591 108.103 74.1462L108.035 74.3354C108.638 74.5434 109.298 74.6817 110.014 74.7501C110.419 74.7867 110.997 74.8122 111.749 74.8266C112.947 74.8461 113.777 74.962 114.241 75.1744C114.961 75.4997 115.518 76.2439 115.913 77.4071C116.322 78.4035 116.181 79.1108 115.492 79.529C114.838 79.8933 114.165 79.8046 113.473 79.263C112.267 78.3782 111.174 77.6469 110.193 77.0689C109.127 76.4141 108.2 75.9308 107.413 75.6189C105.82 77.8566 104.265 79.6302 102.746 80.9397C101.624 81.8892 100.484 82.6314 99.326 83.1662C98.4882 83.4265 97.7947 83.5879 97.2453 83.6503C96.7454 83.7263 96.4483 83.7034 96.3539 83.5817C96.264 83.4824 96.4015 83.3496 96.7664 83.1833C97.1493 82.99 97.7055 82.8443 98.435 82.746C99.1286 82.5846 100.188 81.3782 101.614 79.1268C102.809 77.2491 103.8 75.459 104.585 73.7566L104.612 73.7161Z" fill="#410A0A"/>
<path d="M66.1033 62.259C64.9592 62.6271 63.957 63.0022 63.0966 63.3841C62.5785 63.6043 62.0019 63.883 61.3666 64.2202C60.6277 64.6249 60.0737 64.8405 59.7044 64.8671C59.2182 64.8935 58.3696 64.746 57.1589 64.4246C55.7322 63.9587 55.0552 63.4374 55.128 62.8607C55.2052 62.3065 55.8134 62.0098 56.9525 61.9707C58.8889 61.7026 60.7623 61.3534 62.5728 60.923C64.721 60.4255 66.7974 59.8016 68.8019 59.0515C69.1893 58.8807 69.5745 58.6987 69.9574 58.5054C70.1917 58.3885 70.489 58.2357 70.8494 58.0468C71.5252 57.6781 72.0252 57.485 72.3494 57.4673C72.7907 57.4499 73.432 57.6737 74.2734 58.1389C75.0065 58.7662 75.2219 59.3793 74.9195 59.9783C74.6216 60.5998 73.8828 60.9459 72.7031 61.0165C71.8565 61.1146 70.8455 61.2689 69.6701 61.4792C68.4947 61.6896 67.3936 61.9203 66.3668 62.1714L66.1033 62.259ZM65.5332 59.034C64.6775 59.2042 63.8311 59.1265 62.9941 58.8011C62.283 58.5208 61.4822 58.0241 60.5916 57.311C60.0115 56.747 59.8004 56.3322 59.9583 56.0665C60.1207 55.8234 60.607 55.7383 61.4174 55.8114C62.4438 55.9118 63.5154 55.8861 64.6322 55.7342C65.4743 55.6136 66.5439 55.4009 67.8409 55.096C68.9532 54.9216 69.6418 55.1478 69.9067 55.7745C70.1671 56.3786 69.9165 57.0025 69.1548 57.6459C68.6727 57.9293 68.1839 58.1788 67.6883 58.3945C67.1253 58.6236 66.4857 58.8211 65.7696 58.987L65.5332 59.034ZM66.6764 63.0235C65.1677 63.3236 63.8949 64.1039 62.8578 65.3644C61.8432 66.6204 61.459 67.8682 61.7051 69.1078C62.0139 70.6628 63.0187 71.8335 64.7197 72.6196C66.2451 73.347 67.7621 73.5607 69.2708 73.2606C70.9371 72.9292 72.2302 72.1917 73.1501 71.0482C74.1691 69.8147 74.5131 68.3641 74.1819 66.6963C73.8821 65.1863 72.9874 64.0992 71.498 63.435C70.1075 62.7979 68.5003 62.6607 66.6764 63.0235ZM67.5986 65.5459C68.4542 65.3757 69.3051 65.4759 70.1511 65.8465C71.051 66.2531 71.5793 66.8509 71.736 67.6397C71.8657 68.2933 71.6422 68.8766 71.0652 69.3896C70.5514 69.8666 69.7991 70.2037 68.8083 70.4007C68.0202 70.5575 67.2054 70.4619 66.3638 70.1139C65.4188 69.7161 64.8702 69.1342 64.7181 68.3679C64.5973 67.7594 64.8434 67.1716 65.4564 66.6046C66.0288 66.069 66.7429 65.7161 67.5986 65.5459ZM69.8606 76.9385C66.663 77.6917 64.0417 78.459 61.9966 79.2406C60.8435 79.6809 59.7082 80.2112 58.5909 80.8317C57.807 81.2454 57.2169 81.4564 56.8207 81.465C56.2894 81.5004 55.335 81.3505 53.9577 81.0153C52.3735 80.4636 51.5503 79.9128 51.4879 79.363C51.43 78.8357 51.9932 78.4894 53.1776 78.3241C55.2896 77.9977 57.4805 77.5971 59.7503 77.1222C62.9838 76.4321 66.4157 75.5621 70.0459 74.512C71.4152 74.0991 72.5841 73.6792 73.5526 73.2523C74.1112 73.0006 74.7171 72.6927 75.3704 72.3285C75.9742 71.9507 76.4607 71.7485 76.8299 71.7219C77.3343 71.6684 78.2481 71.7912 79.5715 72.0903C80.071 72.2486 80.4489 72.5014 80.7051 72.8487C80.9074 73.1599 80.9992 73.5047 80.9808 73.8833C80.9353 74.2437 80.7954 74.541 80.561 74.775C80.313 75.0586 80.0269 75.2092 79.7027 75.2268C79.0093 75.2711 78.0096 75.3645 76.7038 75.5071C75.1232 75.6809 73.8601 75.8619 72.9143 76.05C73.7198 76.452 74.2259 76.8199 74.4326 77.1536C74.5674 77.3611 74.621 77.6901 74.5934 78.1407L74.5588 78.8504C75.0376 81.2619 75.2313 83.0038 75.14 84.0762C75.0896 84.7656 74.8704 85.4301 74.4825 86.0695C74.3381 86.2856 74.2321 86.459 74.1644 86.5896C74.0426 86.8012 73.9478 87.0309 73.8799 87.2787C73.4914 88.3868 73.2499 88.8799 73.1555 88.7582C73.07 88.6814 73.0526 88.1812 73.1033 87.2575C73.1082 86.9285 73.0322 86.4868 72.8753 85.9323C72.7812 85.5762 72.5815 84.9834 72.2764 84.1539C71.9263 83.2161 71.6729 82.47 71.5159 81.9155C71.2154 80.9914 70.9801 80.1011 70.8101 79.2446C70.7072 78.7263 70.5839 78.2823 70.4403 77.9126C70.2652 77.5023 70.0899 77.2092 69.9145 77.0332L69.8606 76.9385Z" fill="#410A0A"/>
<path d="M244.199 93.5531C249.665 100.918 274.819 137.247 256.036 158.635C251.251 164.071 240.637 166.435 227.084 166.859C203.329 167.6 170.569 162.353 144.439 157.094C119.967 152.177 101.301 147.259 101.301 147.259C88.3709 158.6 78.7559 173.224 73.4546 189.588L72.4555 192.671L59.5962 187.294C47.5127 117.53 95.7997 118.471 95.7997 118.471C113.89 87.2355 204.116 120.577 225.357 114.541C242.494 109.671 243.588 98.1296 243.364 93.859C243.341 93.3884 243.928 93.1767 244.199 93.5531Z" fill="#232322"/>
<path d="M178.574 223.612H189.13C194.654 219.082 194.972 207.318 190.505 199C190.058 198.824 189.588 198.718 189.094 198.659C183.828 198.059 178.621 202.447 175.412 205.906C175.412 205.906 175.048 208.141 175.013 211.094C174.954 215.224 175.518 220.753 178.574 223.612ZM120.625 186.118C120.425 186.624 115.853 197.788 119.638 206.259L133.39 212.059H133.402C133.931 211.918 146.99 208.259 144.052 187.306C143.311 186.682 142.476 186.106 141.56 185.612C133.955 181.494 125.668 183.847 120.637 186.106H120.625V186.118ZM227.085 166.871C231.316 176.765 233.643 187.623 233.643 198.988C233.643 241.118 201.719 276.023 159.943 282.412C160.179 281.6 160.461 280.859 160.719 280.259C161.33 278.8 161.131 277.106 160.096 275.918C157.052 272.4 150.129 272.882 144.51 274.047L144.486 273.953C146.579 244.376 134.354 243.153 134.354 243.153C134.354 243.153 126.831 240.706 126.831 254.882C126.831 263.518 124.492 273.082 121.824 280.129C106.555 275.859 93.014 267.682 82.4351 256.788C81.4712 255.8 80.5308 254.776 79.614 253.741C66.6137 239 58.7617 219.871 58.7617 198.988C58.7617 195.023 59.0438 191.118 59.5845 187.294H59.5963L72.4556 192.671L73.4547 189.588C78.7559 173.223 88.371 158.6 101.301 147.259C101.301 147.259 119.967 152.176 144.439 157.094C170.569 162.353 203.329 167.6 227.085 166.859V166.871ZM208.654 198.988C210.264 201.494 210.581 182.953 205.856 182.435C201.143 181.906 179.985 188.294 175.083 194.859C173.59 196.871 191.786 191.318 199.391 191.706C204.434 191.965 205.492 194.071 208.654 198.988ZM164.775 191.447C164.775 191.447 167.748 191.094 162.541 184.953C156.511 177.812 152.056 164.412 143.393 162.706C134.742 161 130.158 174.906 132.25 175.824C134.354 176.741 139.385 169.035 146.814 177.529C154.548 186.388 162.67 192.624 164.775 191.447ZM124.657 239.612C120.002 236.353 116.182 231.447 113.631 225.482C112.362 228.471 110.775 231.176 108.918 233.565C107.06 235.941 104.933 237.976 102.606 239.612C104.933 241.247 107.06 243.282 108.918 245.659C110.775 248.047 112.362 250.753 113.631 253.741C114.912 250.753 116.499 248.047 118.356 245.659C120.214 243.282 122.329 241.247 124.657 239.612Z" fill="white"/>
<path d="M205.856 182.435C210.581 182.953 210.264 201.494 208.653 198.988C205.491 194.07 204.433 191.964 199.391 191.706C191.786 191.317 173.59 196.87 175.083 194.859C179.984 188.294 201.142 181.906 205.856 182.435Z" fill="#232322"/>
<path d="M202.365 277.4C204.034 281.306 206.537 284.518 209.582 286.659C208.054 287.729 206.667 289.07 205.456 290.623C204.245 292.188 203.199 293.965 202.365 295.918C201.53 293.965 200.484 292.188 199.273 290.623C198.051 289.07 196.664 287.729 195.136 286.659C196.664 285.588 198.051 284.247 199.273 282.694C200.484 281.129 201.53 279.353 202.365 277.4Z" fill="#F6B95B"/>
<path d="M190.505 199C194.972 207.318 194.654 219.083 189.13 223.612H182.606V220.106C183.499 220.106 184.369 219 184.616 217.506C184.863 215.93 184.299 214.53 183.358 214.377C182.688 214.271 182.007 214.812 181.572 215.694L179.15 214.353C180.396 214.353 181.701 212.847 182.159 210.753C182.665 208.483 181.983 206.412 180.643 206.106C179.303 205.812 177.81 207.4 177.305 209.671C177.199 210.177 177.14 210.671 177.14 211.141L175.013 211.094C175.048 208.141 175.412 205.906 175.412 205.906C178.621 202.447 183.828 198.059 189.094 198.659C189.588 198.718 190.058 198.824 190.505 198.988V199Z" fill="#232322"/>
<path d="M181.125 289.718C183.664 295.682 187.496 300.588 192.139 303.847C189.812 305.482 187.696 307.518 185.839 309.894C183.982 312.282 182.395 314.988 181.125 317.977C179.844 314.988 178.257 312.282 176.4 309.894C174.543 307.518 172.427 305.482 170.1 303.847C172.427 302.212 174.543 300.177 176.4 297.8C178.257 295.412 179.844 292.706 181.125 289.718Z" fill="#F6B95B"/>
<path d="M183.358 214.376C184.299 214.529 184.863 215.929 184.616 217.506C184.369 219 183.499 220.106 182.606 220.106C182.559 220.106 182.5 220.106 182.442 220.094C181.489 219.941 180.925 218.541 181.184 216.953C181.254 216.494 181.395 216.059 181.572 215.694C182.007 214.812 182.688 214.271 183.358 214.376Z" fill="white"/>
<path d="M182.606 220.106V223.612H178.574C175.518 220.753 174.954 215.224 175.013 211.094L177.14 211.141C177.14 212.777 177.775 214.094 178.821 214.318C178.927 214.341 179.033 214.353 179.15 214.353L181.572 215.694C181.395 216.059 181.254 216.494 181.184 216.953C180.925 218.541 181.489 219.941 182.442 220.094C182.5 220.106 182.559 220.106 182.606 220.106Z" fill="#232322"/>
<path d="M180.642 206.106C181.982 206.412 182.664 208.482 182.159 210.753C181.7 212.847 180.396 214.353 179.15 214.353C179.032 214.353 178.926 214.341 178.821 214.318C177.774 214.094 177.14 212.776 177.14 211.141C177.14 210.671 177.198 210.176 177.304 209.671C177.81 207.4 179.302 205.812 180.642 206.106Z" fill="white"/>
<path d="M162.541 184.953C167.749 191.094 164.775 191.447 164.775 191.447C162.671 192.624 154.548 186.388 146.814 177.529C139.385 169.035 134.354 176.741 132.25 175.824C130.158 174.906 134.742 161 143.393 162.706C152.056 164.412 156.511 177.812 162.541 184.953Z" fill="#232322"/>
<path d="M121.824 280.129C124.492 273.082 126.831 263.518 126.831 254.882C126.831 240.706 134.354 243.153 134.354 243.153C134.354 243.153 146.579 244.376 144.486 273.953L144.51 274.047C150.128 272.882 157.052 272.4 160.096 275.918C161.131 277.106 161.33 278.8 160.719 280.259C160.461 280.859 160.178 281.6 159.943 282.412C159.403 284.153 159.05 286.188 159.532 287.776C160.578 291.282 163.199 291.282 163.716 296C164.257 300.729 158.827 303.176 159.179 305.976C159.532 308.776 162.67 310 162.329 313.329C161.977 316.647 159.885 317.176 160.049 319.8C160.225 322.423 162.188 324.353 159.003 327.506C156.323 330.153 153.737 331.047 148.165 331.282C147.061 331.329 145.85 331.353 144.486 331.353C135.2 331.376 125.632 324.176 120.637 325.235C120.143 325.329 119.32 325.6 118.227 325.976C117.945 311.765 114.771 297.6 113.255 291.576C114.783 291.2 116.052 290.6 116.863 289.706C118.298 288.141 120.131 284.647 121.824 280.129Z" fill="white"/>
<path d="M148.765 378.776L152.844 417.671L48.5235 419.8L46.1138 412.235C42.0821 395.482 47.2893 378.247 47.2893 378.247C56.8691 379.447 114.689 386.176 148.753 378.741V378.776H148.765Z" fill="#1B2149"/>
<path d="M151.656 378.071C150.716 378.306 149.74 378.541 148.753 378.741C114.689 386.176 56.869 379.447 47.2892 378.247C46.3959 378.129 45.9257 378.071 45.9257 378.071C44.8796 356.035 53.8482 333.847 53.8482 333.847L53.9304 333.729C72.7375 346.776 107.789 337.471 107.789 337.471C107.813 336.294 107.813 335.082 107.789 333.847L118.227 329.776C118.25 328.518 118.239 327.247 118.227 325.976C119.32 325.6 120.143 325.329 120.637 325.235C125.632 324.176 135.2 331.376 144.486 331.353C145.85 331.353 147.06 331.329 148.165 331.282V331.353C148.165 331.353 150.763 363.435 151.656 378.071Z" fill="#1B2149"/>
<path d="M144.051 187.306C146.99 208.259 133.931 211.918 133.402 212.059H133.39L119.637 206.259C115.852 197.788 120.425 186.623 120.625 186.118H120.636C125.667 183.847 133.954 181.494 141.559 185.612C142.476 186.106 143.311 186.682 144.051 187.294V187.306ZM133.002 202.682C133.249 201.106 132.696 199.694 131.744 199.541C130.792 199.388 129.828 200.553 129.57 202.129C129.311 203.706 129.875 205.118 130.828 205.27C131.768 205.423 132.744 204.259 133.002 202.682ZM130.475 194.553C131.074 191.859 130.275 189.4 128.676 189.047C127.09 188.682 125.315 190.576 124.715 193.27C124.116 195.953 124.927 198.423 126.514 198.776C128.112 199.129 129.887 197.235 130.475 194.553Z" fill="#232322"/>
<path d="M131.744 199.541C132.696 199.694 133.249 201.106 133.002 202.683C132.743 204.259 131.768 205.424 130.827 205.271C129.875 205.118 129.311 203.706 129.57 202.13C129.828 200.553 130.792 199.388 131.744 199.541Z" fill="white"/>
<path d="M128.676 189.047C130.275 189.4 131.074 191.859 130.475 194.553C129.887 197.235 128.112 199.129 126.514 198.776C124.927 198.423 124.116 195.953 124.715 193.27C125.315 190.576 127.09 188.682 128.676 189.047Z" fill="white"/>
<path d="M102.499 289.235C102.64 290.024 102.817 290.977 103.016 292.071C104.462 300.177 107.001 315.929 107.648 329.518C107.718 330.988 107.777 332.435 107.789 333.847C107.812 335.082 107.812 336.294 107.789 337.471C107.789 337.471 72.7371 346.777 53.9301 333.729C50.6271 331.435 47.8178 328.459 45.7961 324.612C29.4457 293.553 70.2217 253.741 79.6135 253.741C80.5303 254.777 81.4706 255.8 82.4345 256.788C93.0135 267.682 106.555 275.859 121.823 280.129C120.131 284.647 118.297 288.141 116.863 289.706C116.052 290.6 114.783 291.2 113.255 291.577C112.773 289.659 112.455 288.565 112.455 288.565L102.499 289.235Z" fill="#1B2149"/>
<path d="M113.631 225.482C116.182 231.447 120.002 236.353 124.657 239.612C122.329 241.247 120.214 243.282 118.356 245.659C116.499 248.047 114.912 250.753 113.631 253.741C112.362 250.753 110.775 248.047 108.918 245.659C107.06 243.282 104.933 241.247 102.605 239.612C104.933 237.977 107.06 235.941 108.918 233.565C110.775 231.177 112.362 228.471 113.631 225.482Z" fill="#F6B95B"/>
<path d="M118.227 325.976C118.239 327.247 118.251 328.517 118.227 329.776L107.789 333.847C107.778 332.435 107.719 330.988 107.648 329.517C107.002 315.929 104.463 300.176 103.017 292.07C102.817 290.976 102.641 290.023 102.5 289.235L112.456 288.564C112.456 288.564 112.773 289.659 113.255 291.576C114.772 297.6 117.945 311.764 118.227 325.976Z" fill="white"/>
<path d="M227.084 166.871C231.316 176.765 233.643 187.624 233.643 198.988C233.643 241.118 201.718 276.024 159.943 282.412" stroke="#1D1D1B" stroke-width="0.4" stroke-miterlimit="10"/>
<path d="M59.5845 187.294C59.0438 191.117 58.7617 195.023 58.7617 198.988C58.7617 219.87 66.6137 239 79.614 253.741C80.5308 254.776 81.4712 255.8 82.4351 256.788C93.014 267.682 106.555 275.859 121.824 280.129" stroke="#1D1D1B" stroke-width="0.4" stroke-miterlimit="10"/>
<path d="M208.653 198.988C210.264 201.494 210.581 182.953 205.856 182.435C201.142 181.906 179.984 188.294 175.083 194.859C173.59 196.87 191.786 191.317 199.391 191.706C204.433 191.964 205.491 194.07 208.653 198.988Z" stroke="black" stroke-width="0.4" stroke-linecap="round" stroke-linejoin="round"/>
<path d="M164.775 191.447C162.671 192.624 154.548 186.388 146.814 177.529C139.385 169.035 134.354 176.741 132.25 175.824C130.158 174.906 134.742 161 143.393 162.706C152.056 164.412 156.511 177.812 162.541 184.953C167.749 191.094 164.775 191.447 164.775 191.447Z" stroke="black" stroke-width="0.4" stroke-linecap="round" stroke-linejoin="round"/>
<path d="M168.877 180.247C168.877 180.247 169.582 188.729 168.184 192.671" stroke="black" stroke-width="0.4" stroke-linecap="round" stroke-linejoin="round"/>
<path d="M176.317 179.635C176.317 179.635 177.01 186.482 173.602 191.588" stroke="black" stroke-width="0.4" stroke-linecap="round" stroke-linejoin="round"/>
<path d="M175.177 223.612C175.965 224.471 176.459 225.424 176.376 226.553C176.047 231.082 163.07 236.2 163.07 236.2" stroke="black" stroke-width="0.4" stroke-linecap="round" stroke-linejoin="round"/>
<path d="M169.758 196.235C169.758 196.235 165.103 211.859 166.479 216.059C167.513 219.224 172.767 221 175.165 223.612" stroke="black" stroke-width="0.4" stroke-linecap="round" stroke-linejoin="round"/>
<path d="M190.505 199C197.91 201.635 200.238 217.494 200.238 217.494L203.717 214.541" stroke="black" stroke-width="0.4" stroke-linecap="round" stroke-linejoin="round"/>
<path d="M172.18 209.824C172.18 209.824 173.414 208.047 175.412 205.906C178.621 202.447 183.828 198.059 189.094 198.659C189.588 198.718 190.058 198.824 190.505 198.988" stroke="black" stroke-width="0.4" stroke-linecap="round" stroke-linejoin="round"/>
<path d="M178.574 223.612C175.518 220.753 174.954 215.223 175.013 211.094C175.048 208.141 175.412 205.906 175.412 205.906" stroke="black" stroke-width="0.4" stroke-linecap="round" stroke-linejoin="round"/>
<path d="M190.505 198.988C194.972 207.318 194.654 219.082 189.13 223.612" stroke="black" stroke-width="0.4" stroke-linecap="round" stroke-linejoin="round"/>
<path d="M196.64 223.612H189.129H182.606H178.574H175.177H175.165" stroke="black" stroke-width="0.4" stroke-linecap="round" stroke-linejoin="round"/>
<path d="M144.052 187.306C153.032 194.835 149.952 210.67 149.952 210.67" stroke="black" stroke-width="0.4" stroke-linecap="round" stroke-linejoin="round"/>
<path d="M120.637 186.106C125.668 183.847 133.954 181.494 141.56 185.612C142.476 186.106 143.311 186.682 144.051 187.294" stroke="black" stroke-width="0.4" stroke-linecap="round" stroke-linejoin="round"/>
<path d="M113.631 183.506L115.923 188.694C115.923 188.694 117.733 187.424 120.625 186.118" stroke="black" stroke-width="0.4" stroke-linecap="round" stroke-linejoin="round"/>
<path d="M120.636 186.106H120.625C120.425 186.624 115.852 197.788 119.637 206.259" stroke="black" stroke-width="0.4" stroke-linecap="round" stroke-linejoin="round"/>
<path d="M133.402 212.059C133.931 211.917 146.99 208.259 144.052 187.306" stroke="black" stroke-width="0.4" stroke-linecap="round" stroke-linejoin="round"/>
<path d="M115.465 204.506L119.638 206.259L133.39 212.059H133.402L141.959 215.659" stroke="black" stroke-width="0.4" stroke-linecap="round" stroke-linejoin="round"/>
<path d="M137.363 230.553C137.363 230.553 145.497 243.812 178.539 248.67" stroke="black" stroke-width="0.4" stroke-linecap="round" stroke-linejoin="round"/>
<path d="M140.032 226.447C140.032 226.447 134.872 231.165 135.224 236.2" stroke="black" stroke-width="0.4" stroke-linecap="round" stroke-linejoin="round"/>
<path d="M181.124 245.518C181.124 245.518 177.715 248.059 178.538 253.741" stroke="black" stroke-width="0.4" stroke-linecap="round" stroke-linejoin="round"/>
<path d="M147.378 247.094C147.378 247.094 152.268 254.353 163.728 254.882" stroke="black" stroke-width="0.4" stroke-linecap="round" stroke-linejoin="round"/>
<path d="M130.475 194.553C129.887 197.235 128.112 199.129 126.514 198.776C124.927 198.423 124.116 195.953 124.715 193.27C125.315 190.576 127.09 188.682 128.676 189.047C130.275 189.4 131.074 191.859 130.475 194.553Z" stroke="black" stroke-width="0.4" stroke-linecap="round" stroke-linejoin="round"/>
<path d="M177.14 211.141C177.14 210.671 177.198 210.176 177.304 209.671C177.81 207.4 179.302 205.812 180.642 206.106C181.982 206.412 182.664 208.482 182.159 210.753C181.7 212.847 180.396 214.353 179.15 214.353C179.032 214.353 178.926 214.341 178.821 214.318C177.774 214.094 177.14 212.776 177.14 211.141Z" stroke="black" stroke-width="0.4" stroke-linecap="round" stroke-linejoin="round"/>
<path d="M133.002 202.683C132.743 204.259 131.768 205.424 130.827 205.271C129.875 205.118 129.311 203.706 129.57 202.13C129.828 200.553 130.792 199.388 131.744 199.541C132.696 199.694 133.249 201.106 133.002 202.683Z" stroke="black" stroke-width="0.4" stroke-linecap="round" stroke-linejoin="round"/>
<path d="M181.572 215.694C182.007 214.812 182.688 214.271 183.358 214.376C184.299 214.529 184.863 215.929 184.616 217.506C184.369 219 183.499 220.106 182.606 220.106C182.559 220.106 182.5 220.106 182.442 220.094C181.489 219.941 180.925 218.541 181.184 216.953C181.254 216.494 181.395 216.059 181.572 215.694Z" stroke="black" stroke-width="0.4" stroke-linecap="round" stroke-linejoin="round"/>
<path d="M113.255 291.576C114.783 291.2 116.052 290.6 116.863 289.706C118.298 288.141 120.131 284.647 121.824 280.129C124.492 273.082 126.831 263.518 126.831 254.882C126.831 240.706 134.354 243.153 134.354 243.153C134.354 243.153 146.579 244.376 144.486 273.953" stroke="black" stroke-width="0.4" stroke-linecap="round" stroke-linejoin="round"/>
<path d="M136.105 276.4C136.105 276.4 139.866 274.988 144.509 274.047C150.128 272.882 157.051 272.4 160.096 275.918C161.13 277.106 161.33 278.8 160.719 280.259C160.46 280.859 160.178 281.6 159.943 282.412C159.402 284.153 159.05 286.188 159.531 287.777C160.578 291.282 163.199 291.282 163.716 296C164.257 300.73 158.826 303.177 159.179 305.977C159.531 308.777 162.67 310 162.329 313.33C161.976 316.647 159.884 317.177 160.049 319.8C160.225 322.424 162.188 324.353 159.003 327.506C156.323 330.153 153.737 331.047 148.165 331.282C147.06 331.33 145.849 331.353 144.486 331.353C135.2 331.377 125.632 324.177 120.636 325.235C120.143 325.33 119.32 325.6 118.227 325.977" stroke="black" stroke-width="0.4" stroke-linecap="round" stroke-linejoin="round"/>
<path d="M59.5962 187.294L72.4555 192.671L73.4546 189.588C78.7559 173.224 88.3709 158.6 101.301 147.259C101.301 147.259 119.967 152.177 144.439 157.094C170.569 162.353 203.329 167.6 227.084 166.859C240.637 166.435 251.251 164.071 256.036 158.635C274.819 137.247 249.665 100.918 244.199 93.5531C243.929 93.1767 243.341 93.3884 243.364 93.859C243.588 98.1296 242.494 109.671 225.357 114.541C204.116 120.577 113.89 87.2355 95.7997 118.471C95.7997 118.471 47.5127 117.53 59.5962 187.294Z" stroke="black" stroke-width="0.4" stroke-linecap="round" stroke-linejoin="round"/>
<path d="M124.657 239.612C122.329 241.247 120.214 243.282 118.356 245.659C116.499 248.047 114.912 250.753 113.631 253.741C112.362 250.753 110.775 248.047 108.918 245.659C107.06 243.282 104.933 241.247 102.605 239.612C104.933 237.977 107.06 235.941 108.918 233.565C110.775 231.177 112.362 228.471 113.631 225.482C116.182 231.447 120.002 236.353 124.657 239.612Z" stroke="black" stroke-width="0.4" stroke-linecap="round" stroke-linejoin="round"/>
<path d="M181.125 289.718C183.664 295.682 187.496 300.588 192.139 303.847C189.812 305.482 187.696 307.518 185.839 309.894C183.982 312.282 182.395 314.988 181.125 317.977C179.844 314.988 178.257 312.282 176.4 309.894C174.543 307.518 172.427 305.482 170.1 303.847C172.427 302.212 174.543 300.177 176.4 297.8C178.257 295.412 179.844 292.706 181.125 289.718Z" stroke="black" stroke-width="0.4" stroke-linecap="round" stroke-linejoin="round"/>
<path d="M202.365 277.4C204.034 281.306 206.537 284.518 209.582 286.659C208.054 287.729 206.667 289.07 205.456 290.623C204.245 292.188 203.199 293.965 202.365 295.918C201.53 293.965 200.484 292.188 199.273 290.623C198.051 289.07 196.664 287.729 195.136 286.659C196.664 285.588 198.051 284.247 199.273 282.694C200.484 281.129 201.53 279.353 202.365 277.4Z" stroke="black" stroke-width="0.4" stroke-linecap="round" stroke-linejoin="round"/>
<path d="M107.789 333.847L118.227 329.776C118.251 328.517 118.239 327.247 118.227 325.976C117.945 311.764 114.772 297.6 113.255 291.576C112.773 289.659 112.456 288.564 112.456 288.564L102.5 289.235" stroke="black" stroke-width="0.4" stroke-linecap="round" stroke-linejoin="round"/>
<path d="M79.6135 253.741C70.2217 253.741 29.4457 293.553 45.7961 324.612C47.8178 328.459 50.6271 331.435 53.9301 333.729C72.7371 346.777 107.789 337.471 107.789 337.471C107.812 336.294 107.812 335.082 107.789 333.847C107.777 332.435 107.718 330.988 107.648 329.518C107.001 315.929 104.462 300.177 103.016 292.071C102.817 290.977 102.64 290.024 102.499 289.235C102.194 287.577 102.006 286.647 102.006 286.647C102.006 286.647 75.9578 286.035 70.351 288.565" stroke="black" stroke-width="0.4" stroke-linecap="round" stroke-linejoin="round"/>
<path d="M53.8482 333.847C53.8482 333.847 44.8796 356.035 45.9257 378.07C45.9257 378.07 46.3959 378.129 47.2892 378.247C56.869 379.447 114.689 386.176 148.753 378.741C149.74 378.541 150.716 378.306 151.656 378.07" stroke="black" stroke-width="0.4" stroke-linecap="round" stroke-linejoin="round"/>
<path d="M148.165 331.353C148.165 331.353 150.763 363.435 151.656 378.07" stroke="black" stroke-width="0.4" stroke-linecap="round" stroke-linejoin="round"/>
<path d="M47.2893 378.247C47.2893 378.247 42.0821 395.482 46.1138 412.235L48.5235 419.8L152.844 417.671L148.765 378.776" stroke="black" stroke-width="0.4" stroke-linecap="round" stroke-linejoin="round"/>
</g>
</g>
<defs>
<filter id="filter0_d_523_3277" x="0" y="0" width="304" height="428" filterUnits="userSpaceOnUse" color-interpolation-filters="sRGB">
<feFlood flood-opacity="0" result="BackgroundImageFix"/>
<feColorMatrix in="SourceAlpha" type="matrix" values="0 0 0 0 0 0 0 0 0 0 0 0 0 0 0 0 0 0 127 0" result="hardAlpha"/>
<feOffset dx="3" dy="3"/>
<feGaussianBlur stdDeviation="4"/>
<feComposite in2="hardAlpha" operator="out"/>
<feColorMatrix type="matrix" values="0 0 0 0 0 0 0 0 0 0 0 0 0 0 0 0 0 0 0.2 0"/>
<feBlend mode="normal" in2="BackgroundImageFix" result="effect1_dropShadow_523_3277"/>
<feBlend mode="normal" in="SourceGraphic" in2="effect1_dropShadow_523_3277" result="shape"/>
</filter>
<clipPath id="clip0_523_3277">
<rect width="268" height="400" fill="white" transform="translate(15 11)"/>
</clipPath>
</defs>
</svg>
