<svg width="244" height="356" viewBox="0 0 244 356" fill="none" xmlns="http://www.w3.org/2000/svg">
<g filter="url(#filter0_d_399_3288)">
<g clip-path="url(#clip0_399_3288)">
<rect x="5" y="5" width="228" height="340" rx="12" fill="white"/>
<g clip-path="url(#clip1_399_3288)">
<path d="M48.4755 48.5705C47.5022 48.8835 46.6496 49.2022 45.9176 49.5269C45.4768 49.7141 44.9863 49.951 44.4458 50.2376C43.8172 50.5816 43.3459 50.7648 43.0317 50.7874C42.618 50.8099 41.8962 50.6846 40.8661 50.4113C39.6524 50.0153 39.0764 49.5722 39.1383 49.082C39.204 48.6109 39.7214 48.3588 40.6905 48.3255C42.3379 48.0977 43.9317 47.8008 45.472 47.435C47.2996 47.0121 49.066 46.4818 50.7713 45.8442C51.1009 45.699 51.4286 45.5443 51.7544 45.38C51.9537 45.2807 52.2067 45.1507 52.5133 44.9902C53.0882 44.6768 53.5136 44.5126 53.7894 44.4977C54.1648 44.4828 54.7104 44.6731 55.4262 45.0685C56.0499 45.6017 56.2332 46.1228 55.9759 46.6319C55.7224 47.1602 55.0939 47.4544 54.0903 47.5145C53.37 47.5979 52.51 47.729 51.51 47.9078C50.5101 48.0866 49.5733 48.2827 48.6997 48.4961L48.4755 48.5705ZM47.9905 45.8293C47.2625 45.974 46.5425 45.908 45.8304 45.6313C45.2255 45.3931 44.5442 44.9709 43.7865 44.3648C43.293 43.8854 43.1134 43.5328 43.2477 43.3069C43.3859 43.1003 43.7996 43.028 44.489 43.0901C45.3623 43.1755 46.2739 43.1536 47.224 43.0245C47.9404 42.922 48.8504 42.7411 49.9538 42.482C50.9001 42.3338 51.4859 42.526 51.7113 43.0587C51.9328 43.5723 51.7196 44.1025 51.0716 44.6495C50.6614 44.8903 50.2456 45.1024 49.824 45.2857C49.345 45.4805 48.8008 45.6484 48.1916 45.7893L47.9905 45.8293ZM48.9631 49.2204C47.6796 49.4755 46.5967 50.1387 45.7144 51.2102C44.8513 52.2778 44.5244 53.3384 44.7338 54.392C44.9965 55.7138 45.8513 56.7089 47.2984 57.3771C48.5962 57.9954 49.8868 58.177 51.1703 57.9219C52.5879 57.6402 53.688 57.0134 54.4706 56.0414C55.3375 54.9929 55.6301 53.7599 55.3484 52.3423C55.0933 51.0588 54.3322 50.1348 53.065 49.5701C51.8821 49.0286 50.5148 48.912 48.9631 49.2204ZM49.7476 51.3645C50.4756 51.2198 51.1994 51.3049 51.9192 51.6199C52.6848 51.9656 53.1343 52.4737 53.2675 53.1441C53.3779 53.6997 53.1877 54.1955 52.6969 54.6316C52.2597 55.037 51.6197 55.3235 50.7768 55.4911C50.1063 55.6243 49.4131 55.543 48.6972 55.2472C47.8932 54.9091 47.4265 54.4145 47.2971 53.7631C47.1943 53.2459 47.4037 52.7463 47.9252 52.2643C48.4122 51.8091 49.0197 51.5091 49.7476 51.3645ZM51.6721 61.0481C48.9517 61.6883 46.7216 62.3406 44.9818 63.005C44.0008 63.3791 43.035 63.83 42.0844 64.3574C41.4175 64.709 40.9155 64.8884 40.5784 64.8956C40.1264 64.9257 39.3145 64.7983 38.1427 64.5135C36.795 64.0445 36.0946 63.5763 36.0416 63.109C35.9923 62.6607 36.4715 62.3664 37.479 62.2259C39.2758 61.9485 41.1397 61.6079 43.0707 61.2043C45.8217 60.6177 48.7413 59.8782 51.8297 58.9857C52.9946 58.6347 53.989 58.2778 54.813 57.9149C55.2882 57.701 55.8037 57.4392 56.3595 57.1296C56.8732 56.8085 57.2871 56.6366 57.6012 56.614C58.0303 56.5686 58.8077 56.673 59.9335 56.9271C60.3585 57.0617 60.68 57.2766 60.898 57.5718C61.0701 57.8363 61.1482 58.1294 61.1325 58.4512C61.0938 58.7576 60.9748 59.0102 60.7753 59.2092C60.5644 59.4502 60.321 59.5782 60.0452 59.5932C59.4553 59.6308 58.6048 59.7102 57.4939 59.8314C56.1492 59.9792 55.0746 60.133 54.27 60.2929C54.9552 60.6346 55.3858 60.9473 55.5616 61.231C55.6763 61.4073 55.7219 61.687 55.6985 62.07L55.669 62.6733C56.0764 64.723 56.2412 66.2037 56.1635 67.1152C56.1206 67.7012 55.9342 68.266 55.6041 68.8095C55.4813 68.9932 55.3911 69.1406 55.3335 69.2516C55.2299 69.4315 55.1492 69.6267 55.0915 69.8373C54.7609 70.7792 54.5555 71.1984 54.4752 71.0949C54.4025 71.0296 54.3877 70.6045 54.4308 69.8193C54.4349 69.5397 54.3703 69.1642 54.2368 68.6929C54.1567 68.3902 53.9869 67.8863 53.7273 67.1812C53.4295 66.3841 53.2138 65.7499 53.0803 65.2786C52.8247 64.4931 52.6245 63.7363 52.4798 63.0084C52.3923 62.5678 52.2874 62.1903 52.1652 61.8761C52.0162 61.5274 51.8672 61.2782 51.7179 61.1286L51.6721 61.0481ZM77.6683 39.6028C77.1128 39.7132 76.5555 39.6647 75.9966 39.4572C75.6558 39.3457 75.116 39.0845 74.3773 38.6738L74.0041 38.4492C73.6637 38.039 73.5319 37.7266 73.6088 37.5122C73.701 37.2749 74.0592 37.1738 74.6836 37.209C75.4418 37.3172 76.229 37.3201 77.045 37.2177C77.6848 37.1303 78.4012 36.978 79.1944 36.7606C80.1331 36.5741 80.7228 36.7357 80.9634 37.2454C81.1965 37.7168 80.9623 38.1915 80.2607 38.6695L79.9043 38.8299C79.5402 39.0018 79.2566 39.1279 79.0535 39.2081C78.7048 39.357 78.3005 39.4772 77.8408 39.5686L77.6683 39.6028ZM78.2978 41.718C77.2478 42.0461 76.3358 42.3668 75.5617 42.6799C75.1018 42.8709 74.6017 43.1096 74.0612 43.3963C73.517 43.6637 73.1165 43.8031 72.8599 43.8142C72.5649 43.833 71.9943 43.7174 71.1481 43.4674C70.0914 43.0601 69.5557 42.6687 69.5408 42.2933C69.5489 41.9333 70.0452 41.7251 71.0297 41.6689C72.6349 41.4295 74.1502 41.1384 75.5755 40.7954C77.2115 40.4105 78.7213 39.9412 80.1047 39.3875C80.396 39.2499 80.6969 39.1105 81.0073 38.9691C81.2066 38.8698 81.45 38.7418 81.7375 38.5851C82.3699 38.2603 82.824 38.0904 83.0998 38.0754C83.4943 38.0567 84.038 38.2374 84.7309 38.6175C85.3241 38.9974 85.4979 39.4209 85.2522 39.8879C84.9873 40.3587 84.4182 40.6012 83.5449 40.6155C82.8132 40.6414 81.9225 40.7686 80.8727 40.9972C79.9953 41.1915 79.1945 41.4203 78.4702 41.6837L78.2978 41.718ZM78.5673 42.1722C77.4562 42.393 76.5267 42.9262 75.7787 43.7718C75.0768 44.5485 74.7944 45.2817 74.9314 45.9714C75.1751 47.1974 75.9631 48.0564 77.2955 48.5483C78.3675 48.9326 79.4782 49.0106 80.6276 48.7822C81.7579 48.5575 82.6682 48.0281 83.3587 47.194C84.053 46.3789 84.3126 45.5308 84.1375 44.6496C83.9585 43.7493 83.3121 43.0513 82.198 42.5559C81.0802 42.0412 79.8699 41.9133 78.5673 42.1722ZM79.4211 44.0636C79.9958 43.9493 80.5262 43.9634 81.0125 44.1057C81.5869 44.2903 81.9254 44.6412 82.0282 45.1584C82.0891 45.4649 81.9413 45.7731 81.5847 46.0829C81.2319 46.4119 80.7777 46.6316 80.2222 46.742C79.6283 46.86 79.0193 46.8516 78.3951 46.7168C77.6445 46.5473 77.2274 46.2519 77.1436 45.8304C77.0482 45.5507 77.2593 45.21 77.7769 44.8085C78.2791 44.4299 78.8272 44.1816 79.4211 44.0636ZM79.8422 52.0447C77.4014 52.7886 75.3531 53.5043 73.6976 54.1918C72.7587 54.5775 71.812 55.0245 70.8576 55.5328C70.229 55.8768 69.7672 56.0581 69.4723 56.0769C69.1428 56.1225 68.5185 56.0375 67.5995 55.8218C66.7877 55.6447 66.1157 55.4198 65.5836 55.1472C65.1204 54.9206 64.7951 54.6865 64.6077 54.445C64.4433 54.2188 64.4225 54.0139 64.5453 53.8301C64.6719 53.6656 64.9191 53.5567 65.2869 53.5036C67.4514 53.1729 70.323 52.5923 73.9016 51.7617C77.8442 50.8587 80.6854 50.075 82.4252 49.4106C83.1074 49.1357 83.7378 48.8511 84.3166 48.5568C84.6653 48.4079 85.0639 48.2092 85.5124 47.9608C86.141 47.6168 86.6104 47.4239 86.9207 47.3822C87.323 47.3022 88.0029 47.3165 88.9604 47.4249C89.8181 47.6328 90.3232 48.07 90.4756 48.7367C90.6281 49.3038 90.5127 49.725 90.1293 50.0003C89.8457 50.1762 89.5602 50.2927 89.2728 50.3498C89.0429 50.3955 88.6043 50.4428 87.9569 50.4918C87.1716 50.5483 86.4878 50.6145 85.9055 50.6904C84.852 50.8002 83.718 50.9559 82.5035 51.1574C83.3538 51.2274 83.8477 51.408 83.9852 51.6993C84.0846 51.8986 84.0152 52.2509 83.7771 52.7562L83.5004 53.4683L83.1543 54.5825C82.9737 55.0764 82.7915 55.3118 82.6076 55.2886C82.443 55.2616 82.3226 55.0565 82.2464 54.6734C82.151 54.3936 82.0307 54.1388 81.8854 53.9088C81.7975 53.7669 81.6598 53.5752 81.4724 53.3337C81.3194 53.165 81.2123 53.027 81.1512 52.9196C81.0365 52.7433 80.9428 52.5727 80.8702 52.4079C80.8016 52.1627 80.6926 52.0151 80.5433 51.9651C80.4399 51.9458 80.2062 51.9724 79.8422 52.0447ZM81.2365 58.3091C81.325 57.953 81.3235 57.6446 81.2319 57.3841C81.1327 57.0852 80.8937 56.7344 80.515 56.3317C80.3352 56.1285 80.255 55.9254 80.2744 55.7224C80.29 55.5003 80.407 55.3376 80.6255 55.2345C80.8401 55.1121 81.1294 55.0646 81.4932 55.0919C81.9222 55.146 82.4104 55.2979 82.9578 55.5476C84.0948 56.0584 84.7128 56.5628 84.8118 57.0609C84.8957 57.3828 84.6939 57.9207 84.2065 58.6747L84.1489 58.8355C84.6619 59.0123 85.223 59.1298 85.8319 59.188C86.1766 59.2191 86.6688 59.2408 87.3085 59.253C88.3273 59.2696 89.0339 59.3681 89.4282 59.5487C90.0407 59.8252 90.5149 60.4578 90.8508 61.4464C91.1983 62.2934 91.0789 62.8946 90.4924 63.2501C89.9366 63.5597 89.364 63.4843 88.7747 63.0239C87.7491 62.2719 86.8191 61.6503 85.9846 61.159C85.0775 60.6024 84.289 60.1916 83.619 59.9265C82.2645 61.8286 80.9412 63.3361 79.649 64.4492C78.6942 65.2562 77.7244 65.8871 76.7394 66.3417C76.0267 66.563 75.4366 66.7002 74.9693 66.7532C74.544 66.8178 74.2912 66.7984 74.2109 66.6948C74.1344 66.6105 74.2514 66.4976 74.5618 66.3563C74.8876 66.192 75.3608 66.0681 75.9814 65.9845C76.5715 65.8474 77.4729 64.8219 78.6856 62.9082C79.7026 61.3122 80.5452 59.7906 81.2135 58.3435L81.2365 58.3091ZM94.8018 39.5433C94.4928 38.4896 94.49 37.6737 94.7933 37.0957C95.039 36.6287 95.4971 36.3285 96.1676 36.1953C96.8381 36.062 97.3761 36.1642 97.7817 36.5018C98.2447 36.9275 98.5349 37.6863 98.6523 38.7781L100.127 49.3575C100.199 50.1199 100.183 50.6906 100.079 51.0697C99.9448 51.4947 99.6668 51.7491 99.2454 51.8328C98.8431 51.9128 98.4985 51.7821 98.2116 51.4408C97.9515 51.1341 97.7185 50.6129 97.5126 49.8772L94.8018 39.5433ZM102.355 55.9045C102.469 56.4792 102.332 56.9942 101.945 57.4496C101.576 57.9011 101.105 58.184 100.53 58.2982C99.9364 58.4162 99.3926 58.3351 98.8988 58.0549C98.3858 57.7785 98.0723 57.3529 97.9581 56.7782C97.8438 56.2035 97.969 55.6808 98.3334 55.2101C98.6864 54.7815 99.1597 54.5082 99.7536 54.3902C100.328 54.276 100.87 54.3475 101.379 54.6048C101.915 54.8966 102.24 55.3298 102.355 55.9045Z" fill="#410A0A"/>
<path d="M199.99 75.1701C204.64 81.4301 226.04 112.31 210.06 130.49C205.99 135.11 196.96 137.12 185.43 137.48C165.22 138.11 137.35 133.65 115.12 129.18C94.3003 125 78.4203 120.82 78.4203 120.82C67.4203 130.46 59.2403 142.89 54.7303 156.8L53.8803 159.42L42.9403 154.85C32.6603 95.5502 73.7403 96.3501 73.7403 96.3501C89.1303 69.8001 165.89 98.1402 183.96 93.0102C198.54 88.8702 199.47 79.0602 199.28 75.4302C199.26 75.0302 199.76 74.8501 199.99 75.1701Z" fill="#232322"/>
<path d="M144.16 185.72H153.14C157.84 181.87 158.11 171.87 154.31 164.8C153.93 164.65 153.53 164.56 153.11 164.51C148.63 164 144.2 167.73 141.47 170.67C141.47 170.67 141.16 172.57 141.13 175.08C141.08 178.59 141.56 183.29 144.16 185.72ZM94.8605 153.85C94.6905 154.28 90.8005 163.77 94.0205 170.97L105.72 175.9H105.73C106.18 175.78 117.29 172.67 114.79 154.86C114.16 154.33 113.45 153.84 112.67 153.42C106.2 149.92 99.1505 151.92 94.8705 153.84H94.8605V153.85ZM185.43 137.49C189.03 145.9 191.01 155.13 191.01 164.79C191.01 200.6 163.85 230.27 128.31 235.7C128.51 235.01 128.75 234.38 128.97 233.87C129.49 232.63 129.32 231.19 128.44 230.18C125.85 227.19 119.96 227.6 115.18 228.59L115.16 228.51C116.94 203.37 106.54 202.33 106.54 202.33C106.54 202.33 100.14 200.25 100.14 212.3C100.14 219.64 98.1505 227.77 95.8805 233.76C82.8905 230.13 71.3705 223.18 62.3705 213.92C61.5505 213.08 60.7505 212.21 59.9705 211.33C48.9105 198.8 42.2305 182.54 42.2305 164.79C42.2305 161.42 42.4705 158.1 42.9305 154.85H42.9405L53.8805 159.42L54.7305 156.8C59.2405 142.89 67.4205 130.46 78.4205 120.82C78.4205 120.82 94.3005 125 115.12 129.18C137.35 133.65 165.22 138.11 185.43 137.48V137.49ZM169.75 164.79C171.12 166.92 171.39 151.16 167.37 150.72C163.36 150.27 145.36 155.7 141.19 161.28C139.92 162.99 155.4 158.27 161.87 158.6C166.16 158.82 167.06 160.61 169.75 164.79ZM132.42 158.38C132.42 158.38 134.95 158.08 130.52 152.86C125.39 146.79 121.6 135.4 114.23 133.95C106.87 132.5 102.97 144.32 104.75 145.1C106.54 145.88 110.82 139.33 117.14 146.55C123.72 154.08 130.63 159.38 132.42 158.38ZM98.2905 199.32C94.3305 196.55 91.0805 192.38 88.9105 187.31C87.8305 189.85 86.4805 192.15 84.9005 194.18C83.3205 196.2 81.5105 197.93 79.5305 199.32C81.5105 200.71 83.3205 202.44 84.9005 204.46C86.4805 206.49 87.8305 208.79 88.9105 211.33C90.0005 208.79 91.3505 206.49 92.9305 204.46C94.5105 202.44 96.3105 200.71 98.2905 199.32Z" fill="white"/>
<path d="M167.37 150.72C171.39 151.16 171.12 166.92 169.75 164.79C167.06 160.61 166.16 158.82 161.87 158.6C155.4 158.27 139.92 162.99 141.19 161.28C145.36 155.7 163.36 150.27 167.37 150.72Z" fill="#232322"/>
<path d="M164.4 231.44C165.82 234.76 167.95 237.49 170.54 239.31C169.24 240.22 168.06 241.36 167.03 242.68C166 244.01 165.11 245.52 164.4 247.18C163.69 245.52 162.8 244.01 161.77 242.68C160.73 241.36 159.55 240.22 158.25 239.31C159.55 238.4 160.73 237.26 161.77 235.94C162.8 234.61 163.69 233.1 164.4 231.44Z" fill="#F6B95B"/>
<path d="M154.31 164.8C158.11 171.87 157.84 181.87 153.14 185.72H147.59V182.74C148.35 182.74 149.09 181.8 149.3 180.53C149.51 179.19 149.03 178 148.23 177.87C147.66 177.78 147.08 178.24 146.71 178.99L144.65 177.85C145.71 177.85 146.82 176.57 147.21 174.79C147.64 172.86 147.06 171.1 145.92 170.84C144.78 170.59 143.51 171.94 143.08 173.87C142.99 174.3 142.94 174.72 142.94 175.12L141.13 175.08C141.16 172.57 141.47 170.67 141.47 170.67C144.2 167.73 148.63 164 153.11 164.51C153.53 164.56 153.93 164.65 154.31 164.79V164.8Z" fill="#232322"/>
<path d="M146.33 241.91C148.49 246.98 151.75 251.15 155.7 253.92C153.72 255.31 151.92 257.04 150.34 259.06C148.76 261.09 147.41 263.39 146.33 265.93C145.24 263.39 143.89 261.09 142.31 259.06C140.73 257.04 138.93 255.31 136.95 253.92C138.93 252.53 140.73 250.8 142.31 248.78C143.89 246.75 145.24 244.45 146.33 241.91Z" fill="#F6B95B"/>
<path d="M148.23 177.87C149.03 178 149.51 179.19 149.3 180.53C149.09 181.8 148.35 182.74 147.59 182.74C147.55 182.74 147.5 182.74 147.45 182.73C146.64 182.6 146.16 181.41 146.38 180.06C146.44 179.67 146.56 179.3 146.71 178.99C147.08 178.24 147.66 177.78 148.23 177.87Z" fill="white"/>
<path d="M147.59 182.74V185.72H144.16C141.56 183.29 141.08 178.59 141.13 175.08L142.94 175.12C142.94 176.51 143.48 177.63 144.37 177.82C144.46 177.84 144.55 177.85 144.65 177.85L146.71 178.99C146.56 179.3 146.44 179.67 146.38 180.06C146.16 181.41 146.64 182.6 147.45 182.73C147.5 182.74 147.55 182.74 147.59 182.74Z" fill="#232322"/>
<path d="M145.92 170.84C147.06 171.1 147.64 172.86 147.21 174.79C146.82 176.57 145.71 177.85 144.65 177.85C144.55 177.85 144.46 177.84 144.37 177.82C143.48 177.63 142.94 176.51 142.94 175.12C142.94 174.72 142.99 174.3 143.08 173.87C143.51 171.94 144.78 170.59 145.92 170.84Z" fill="white"/>
<path d="M130.52 152.86C134.95 158.08 132.42 158.38 132.42 158.38C130.63 159.38 123.72 154.08 117.14 146.55C110.82 139.33 106.54 145.88 104.75 145.1C102.97 144.32 106.87 132.5 114.23 133.95C121.6 135.4 125.39 146.79 130.52 152.86Z" fill="#232322"/>
<path d="M95.8798 233.76C98.1498 227.77 100.14 219.64 100.14 212.3C100.14 200.25 106.54 202.33 106.54 202.33C106.54 202.33 116.94 203.37 115.16 228.51L115.18 228.59C119.96 227.6 125.85 227.19 128.44 230.18C129.32 231.19 129.49 232.63 128.97 233.87C128.75 234.38 128.51 235.01 128.31 235.7C127.85 237.18 127.55 238.91 127.96 240.26C128.85 243.24 131.08 243.24 131.52 247.25C131.98 251.27 127.36 253.35 127.66 255.73C127.96 258.11 130.63 259.15 130.34 261.98C130.04 264.8 128.26 265.25 128.4 267.48C128.55 269.71 130.22 271.35 127.51 274.03C125.23 276.28 123.03 277.04 118.29 277.24C117.35 277.28 116.32 277.3 115.16 277.3C107.26 277.32 99.1199 271.2 94.8699 272.1C94.4499 272.18 93.7498 272.41 92.8198 272.73C92.5798 260.65 89.8798 248.61 88.5898 243.49C89.8898 243.17 90.9699 242.66 91.6599 241.9C92.8799 240.57 94.4398 237.6 95.8798 233.76Z" fill="white"/>
<path d="M118.8 317.61L122.27 350.67L33.5203 352.48L31.4703 346.05C28.0403 331.81 32.4703 317.16 32.4703 317.16C40.6203 318.18 89.8103 323.9 118.79 317.58V317.61H118.8Z" fill="#1B2149"/>
<path d="M121.26 317.01C120.46 317.21 119.63 317.41 118.79 317.58C89.8095 323.9 40.6195 318.18 32.4695 317.16C31.7095 317.06 31.3095 317.01 31.3095 317.01C30.4195 298.28 38.0495 279.42 38.0495 279.42L38.1195 279.32C54.1195 290.41 83.9395 282.5 83.9395 282.5C83.9595 281.5 83.9595 280.47 83.9395 279.42L92.8195 275.96C92.8395 274.89 92.8295 273.81 92.8195 272.73C93.7495 272.41 94.4495 272.18 94.8695 272.1C99.1195 271.2 107.26 277.32 115.16 277.3C116.32 277.3 117.35 277.28 118.29 277.24V277.3C118.29 277.3 120.5 304.57 121.26 317.01Z" fill="#1B2149"/>
<path d="M114.79 154.86C117.29 172.67 106.18 175.78 105.73 175.9H105.72L94.0197 170.97C90.7997 163.77 94.6897 154.28 94.8597 153.85H94.8697C99.1497 151.92 106.2 149.92 112.67 153.42C113.45 153.84 114.16 154.33 114.79 154.85V154.86ZM105.39 167.93C105.6 166.59 105.13 165.39 104.32 165.26C103.51 165.13 102.69 166.12 102.47 167.46C102.25 168.8 102.73 170 103.54 170.13C104.34 170.26 105.17 169.27 105.39 167.93ZM103.24 161.02C103.75 158.73 103.07 156.64 101.71 156.34C100.36 156.03 98.8497 157.64 98.3397 159.93C97.8297 162.21 98.5197 164.31 99.8697 164.61C101.23 164.91 102.74 163.3 103.24 161.02Z" fill="#232322"/>
<path d="M104.32 165.26C105.13 165.39 105.6 166.59 105.39 167.93C105.17 169.27 104.34 170.26 103.54 170.13C102.73 170 102.25 168.8 102.47 167.46C102.69 166.12 103.51 165.13 104.32 165.26Z" fill="white"/>
<path d="M101.71 156.34C103.07 156.64 103.75 158.73 103.24 161.02C102.74 163.3 101.23 164.91 99.87 164.61C98.52 164.31 97.83 162.21 98.34 159.93C98.85 157.64 100.36 156.03 101.71 156.34Z" fill="white"/>
<path d="M79.4397 241.5C79.5597 242.17 79.7097 242.98 79.8797 243.91C81.1097 250.8 83.2697 264.19 83.8197 275.74C83.8797 276.99 83.9297 278.22 83.9397 279.42C83.9597 280.47 83.9597 281.5 83.9397 282.5C83.9397 282.5 54.1197 290.41 38.1197 279.32C35.3097 277.37 32.9197 274.84 31.1997 271.57C17.2897 245.17 51.9797 211.33 59.9697 211.33C60.7497 212.21 61.5497 213.08 62.3697 213.92C71.3697 223.18 82.8897 230.13 95.8797 233.76C94.4397 237.6 92.8797 240.57 91.6597 241.9C90.9697 242.66 89.8897 243.17 88.5897 243.49C88.1797 241.86 87.9097 240.93 87.9097 240.93L79.4397 241.5Z" fill="#1B2149"/>
<path d="M88.9103 187.31C91.0803 192.38 94.3303 196.55 98.2903 199.32C96.3103 200.71 94.5103 202.44 92.9303 204.46C91.3503 206.49 90.0003 208.79 88.9103 211.33C87.8303 208.79 86.4803 206.49 84.9003 204.46C83.3203 202.44 81.5103 200.71 79.5303 199.32C81.5103 197.93 83.3203 196.2 84.9003 194.18C86.4803 192.15 87.8303 189.85 88.9103 187.31Z" fill="#F6B95B"/>
<path d="M92.8204 272.73C92.8304 273.81 92.8404 274.89 92.8204 275.96L83.9404 279.42C83.9304 278.22 83.8804 276.99 83.8204 275.74C83.2704 264.19 81.1104 250.8 79.8804 243.91C79.7104 242.98 79.5604 242.17 79.4404 241.5L87.9104 240.93C87.9104 240.93 88.1804 241.86 88.5904 243.49C89.8804 248.61 92.5804 260.65 92.8204 272.73Z" fill="white"/>
<path d="M185.43 137.49C189.03 145.9 191.01 155.13 191.01 164.79C191.01 200.6 163.85 230.27 128.31 235.7" stroke="#1D1D1B" stroke-width="0.4" stroke-miterlimit="10"/>
<path d="M42.9305 154.85C42.4705 158.1 42.2305 161.42 42.2305 164.79C42.2305 182.54 48.9105 198.8 59.9705 211.33C60.7505 212.21 61.5505 213.08 62.3705 213.92C71.3705 223.18 82.8905 230.13 95.8805 233.76" stroke="#1D1D1B" stroke-width="0.4" stroke-miterlimit="10"/>
<path d="M169.75 164.79C171.12 166.92 171.39 151.16 167.37 150.72C163.36 150.27 145.36 155.7 141.19 161.28C139.92 162.99 155.4 158.27 161.87 158.6C166.16 158.82 167.06 160.61 169.75 164.79Z" stroke="black" stroke-width="0.4" stroke-linecap="round" stroke-linejoin="round"/>
<path d="M132.42 158.38C130.63 159.38 123.72 154.08 117.14 146.55C110.82 139.33 106.54 145.88 104.75 145.1C102.97 144.32 106.87 132.5 114.23 133.95C121.6 135.4 125.39 146.79 130.52 152.86C134.95 158.08 132.42 158.38 132.42 158.38Z" stroke="black" stroke-width="0.4" stroke-linecap="round" stroke-linejoin="round"/>
<path d="M135.91 148.86C135.91 148.86 136.51 156.07 135.32 159.42" stroke="black" stroke-width="0.4" stroke-linecap="round" stroke-linejoin="round"/>
<path d="M142.24 148.34C142.24 148.34 142.83 154.16 139.93 158.5" stroke="black" stroke-width="0.4" stroke-linecap="round" stroke-linejoin="round"/>
<path d="M141.27 185.72C141.94 186.45 142.36 187.26 142.29 188.22C142.01 192.07 130.97 196.42 130.97 196.42" stroke="black" stroke-width="0.4" stroke-linecap="round" stroke-linejoin="round"/>
<path d="M136.66 162.45C136.66 162.45 132.7 175.73 133.87 179.3C134.75 181.99 139.22 183.5 141.26 185.72" stroke="black" stroke-width="0.4" stroke-linecap="round" stroke-linejoin="round"/>
<path d="M154.31 164.8C160.61 167.04 162.59 180.52 162.59 180.52L165.55 178.01" stroke="black" stroke-width="0.4" stroke-linecap="round" stroke-linejoin="round"/>
<path d="M138.72 174C138.72 174 139.77 172.49 141.47 170.67C144.2 167.73 148.63 164 153.11 164.51C153.53 164.56 153.93 164.65 154.31 164.79" stroke="black" stroke-width="0.4" stroke-linecap="round" stroke-linejoin="round"/>
<path d="M144.16 185.72C141.56 183.29 141.08 178.59 141.13 175.08C141.16 172.57 141.47 170.67 141.47 170.67" stroke="black" stroke-width="0.4" stroke-linecap="round" stroke-linejoin="round"/>
<path d="M154.31 164.79C158.11 171.87 157.84 181.87 153.14 185.72" stroke="black" stroke-width="0.4" stroke-linecap="round" stroke-linejoin="round"/>
<path d="M159.53 185.72H153.14H147.59H144.16H141.27H141.26" stroke="black" stroke-width="0.4" stroke-linecap="round" stroke-linejoin="round"/>
<path d="M114.79 154.86C122.43 161.26 119.81 174.72 119.81 174.72" stroke="black" stroke-width="0.4" stroke-linecap="round" stroke-linejoin="round"/>
<path d="M94.8701 153.84C99.1501 151.92 106.2 149.92 112.67 153.42C113.45 153.84 114.16 154.33 114.79 154.85" stroke="black" stroke-width="0.4" stroke-linecap="round" stroke-linejoin="round"/>
<path d="M88.9102 151.63L90.8602 156.04C90.8602 156.04 92.4002 154.96 94.8602 153.85" stroke="black" stroke-width="0.4" stroke-linecap="round" stroke-linejoin="round"/>
<path d="M94.8697 153.84H94.8597C94.6897 154.28 90.7997 163.77 94.0197 170.97" stroke="black" stroke-width="0.4" stroke-linecap="round" stroke-linejoin="round"/>
<path d="M105.73 175.9C106.18 175.78 117.29 172.67 114.79 154.86" stroke="black" stroke-width="0.4" stroke-linecap="round" stroke-linejoin="round"/>
<path d="M90.4697 169.48L94.0197 170.97L105.72 175.9H105.73L113.01 178.96" stroke="black" stroke-width="0.4" stroke-linecap="round" stroke-linejoin="round"/>
<path d="M109.1 191.62C109.1 191.62 116.02 202.89 144.13 207.02" stroke="black" stroke-width="0.4" stroke-linecap="round" stroke-linejoin="round"/>
<path d="M111.37 188.13C111.37 188.13 106.98 192.14 107.28 196.42" stroke="black" stroke-width="0.4" stroke-linecap="round" stroke-linejoin="round"/>
<path d="M146.33 204.34C146.33 204.34 143.43 206.5 144.13 211.33" stroke="black" stroke-width="0.4" stroke-linecap="round" stroke-linejoin="round"/>
<path d="M117.62 205.68C117.62 205.68 121.78 211.85 131.53 212.3" stroke="black" stroke-width="0.4" stroke-linecap="round" stroke-linejoin="round"/>
<path d="M103.24 161.02C102.74 163.3 101.23 164.91 99.87 164.61C98.52 164.31 97.83 162.21 98.34 159.93C98.85 157.64 100.36 156.03 101.71 156.34C103.07 156.64 103.75 158.73 103.24 161.02Z" stroke="black" stroke-width="0.4" stroke-linecap="round" stroke-linejoin="round"/>
<path d="M142.94 175.12C142.94 174.72 142.99 174.3 143.08 173.87C143.51 171.94 144.78 170.59 145.92 170.84C147.06 171.1 147.64 172.86 147.21 174.79C146.82 176.57 145.71 177.85 144.65 177.85C144.55 177.85 144.46 177.84 144.37 177.82C143.48 177.63 142.94 176.51 142.94 175.12Z" stroke="black" stroke-width="0.4" stroke-linecap="round" stroke-linejoin="round"/>
<path d="M105.39 167.93C105.17 169.27 104.34 170.26 103.54 170.13C102.73 170 102.25 168.8 102.47 167.46C102.69 166.12 103.51 165.13 104.32 165.26C105.13 165.39 105.6 166.59 105.39 167.93Z" stroke="black" stroke-width="0.4" stroke-linecap="round" stroke-linejoin="round"/>
<path d="M146.71 178.99C147.08 178.24 147.66 177.78 148.23 177.87C149.03 178 149.51 179.19 149.3 180.53C149.09 181.8 148.35 182.74 147.59 182.74C147.55 182.74 147.5 182.74 147.45 182.73C146.64 182.6 146.16 181.41 146.38 180.06C146.44 179.67 146.56 179.3 146.71 178.99Z" stroke="black" stroke-width="0.4" stroke-linecap="round" stroke-linejoin="round"/>
<path d="M88.5898 243.49C89.8898 243.17 90.9699 242.66 91.6599 241.9C92.8799 240.57 94.4398 237.6 95.8798 233.76C98.1498 227.77 100.14 219.64 100.14 212.3C100.14 200.25 106.54 202.33 106.54 202.33C106.54 202.33 116.94 203.37 115.16 228.51" stroke="black" stroke-width="0.4" stroke-linecap="round" stroke-linejoin="round"/>
<path d="M108.03 230.59C108.03 230.59 111.23 229.39 115.18 228.59C119.96 227.6 125.85 227.19 128.44 230.18C129.32 231.19 129.49 232.63 128.97 233.87C128.75 234.38 128.51 235.01 128.31 235.7C127.85 237.18 127.55 238.91 127.96 240.26C128.85 243.24 131.08 243.24 131.52 247.25C131.98 251.27 127.36 253.35 127.66 255.73C127.96 258.11 130.63 259.15 130.34 261.98C130.04 264.8 128.26 265.25 128.4 267.48C128.55 269.71 130.22 271.35 127.51 274.03C125.23 276.28 123.03 277.04 118.29 277.24C117.35 277.28 116.32 277.3 115.16 277.3C107.26 277.32 99.1203 271.2 94.8703 272.1C94.4503 272.18 93.7503 272.41 92.8203 272.73" stroke="black" stroke-width="0.4" stroke-linecap="round" stroke-linejoin="round"/>
<path d="M42.9403 154.85L53.8803 159.42L54.7303 156.8C59.2403 142.89 67.4203 130.46 78.4203 120.82C78.4203 120.82 94.3003 125 115.12 129.18C137.35 133.65 165.22 138.11 185.43 137.48C196.96 137.12 205.99 135.11 210.06 130.49C226.04 112.31 204.64 81.4301 199.99 75.1701C199.76 74.8501 199.26 75.0302 199.28 75.4302C199.47 79.0602 198.54 88.8702 183.96 93.0102C165.89 98.1402 89.1303 69.8001 73.7403 96.3501C73.7403 96.3501 32.6603 95.5502 42.9403 154.85Z" stroke="black" stroke-width="0.4" stroke-linecap="round" stroke-linejoin="round"/>
<path d="M98.2903 199.32C96.3103 200.71 94.5103 202.44 92.9303 204.46C91.3503 206.49 90.0003 208.79 88.9103 211.33C87.8303 208.79 86.4803 206.49 84.9003 204.46C83.3203 202.44 81.5103 200.71 79.5303 199.32C81.5103 197.93 83.3203 196.2 84.9003 194.18C86.4803 192.15 87.8303 189.85 88.9103 187.31C91.0803 192.38 94.3303 196.55 98.2903 199.32Z" stroke="black" stroke-width="0.4" stroke-linecap="round" stroke-linejoin="round"/>
<path d="M146.33 241.91C148.49 246.98 151.75 251.15 155.7 253.92C153.72 255.31 151.92 257.04 150.34 259.06C148.76 261.09 147.41 263.39 146.33 265.93C145.24 263.39 143.89 261.09 142.31 259.06C140.73 257.04 138.93 255.31 136.95 253.92C138.93 252.53 140.73 250.8 142.31 248.78C143.89 246.75 145.24 244.45 146.33 241.91Z" stroke="black" stroke-width="0.4" stroke-linecap="round" stroke-linejoin="round"/>
<path d="M164.4 231.44C165.82 234.76 167.95 237.49 170.54 239.31C169.24 240.22 168.06 241.36 167.03 242.68C166 244.01 165.11 245.52 164.4 247.18C163.69 245.52 162.8 244.01 161.77 242.68C160.73 241.36 159.55 240.22 158.25 239.31C159.55 238.4 160.73 237.26 161.77 235.94C162.8 234.61 163.69 233.1 164.4 231.44Z" stroke="black" stroke-width="0.4" stroke-linecap="round" stroke-linejoin="round"/>
<path d="M83.9404 279.42L92.8204 275.96C92.8404 274.89 92.8304 273.81 92.8204 272.73C92.5804 260.65 89.8804 248.61 88.5904 243.49C88.1804 241.86 87.9104 240.93 87.9104 240.93L79.4404 241.5" stroke="black" stroke-width="0.4" stroke-linecap="round" stroke-linejoin="round"/>
<path d="M59.9697 211.33C51.9797 211.33 17.2897 245.17 31.1997 271.57C32.9197 274.84 35.3097 277.37 38.1197 279.32C54.1197 290.41 83.9397 282.5 83.9397 282.5C83.9597 281.5 83.9597 280.47 83.9397 279.42C83.9297 278.22 83.8797 276.99 83.8197 275.74C83.2697 264.19 81.1097 250.8 79.8797 243.91C79.7097 242.98 79.5597 242.17 79.4397 241.5C79.1797 240.09 79.0197 239.3 79.0197 239.3C79.0197 239.3 56.8597 238.78 52.0897 240.93" stroke="black" stroke-width="0.4" stroke-linecap="round" stroke-linejoin="round"/>
<path d="M38.0495 279.42C38.0495 279.42 30.4195 298.28 31.3095 317.01C31.3095 317.01 31.7095 317.06 32.4695 317.16C40.6195 318.18 89.8095 323.9 118.79 317.58C119.63 317.41 120.46 317.21 121.26 317.01" stroke="black" stroke-width="0.4" stroke-linecap="round" stroke-linejoin="round"/>
<path d="M118.29 277.3C118.29 277.3 120.5 304.57 121.26 317.01" stroke="black" stroke-width="0.4" stroke-linecap="round" stroke-linejoin="round"/>
<path d="M32.4703 317.16C32.4703 317.16 28.0403 331.81 31.4703 346.05L33.5203 352.48L122.27 350.67L118.8 317.61" stroke="black" stroke-width="0.4" stroke-linecap="round" stroke-linejoin="round"/>
</g>
</g>
<rect x="7" y="7" width="224" height="336" rx="10" stroke="#E55936" stroke-width="4"/>
</g>
<defs>
<filter id="filter0_d_399_3288" x="0" y="0" width="244" height="356" filterUnits="userSpaceOnUse" color-interpolation-filters="sRGB">
<feFlood flood-opacity="0" result="BackgroundImageFix"/>
<feColorMatrix in="SourceAlpha" type="matrix" values="0 0 0 0 0 0 0 0 0 0 0 0 0 0 0 0 0 0 127 0" result="hardAlpha"/>
<feOffset dx="3" dy="3"/>
<feGaussianBlur stdDeviation="4"/>
<feComposite in2="hardAlpha" operator="out"/>
<feColorMatrix type="matrix" values="0 0 0 0 0 0 0 0 0 0 0 0 0 0 0 0 0 0 0.2 0"/>
<feBlend mode="normal" in2="BackgroundImageFix" result="effect1_dropShadow_399_3288"/>
<feBlend mode="normal" in="SourceGraphic" in2="effect1_dropShadow_399_3288" result="shape"/>
</filter>
<clipPath id="clip0_399_3288">
<rect x="5" y="5" width="228" height="340" rx="12" fill="white"/>
</clipPath>
<clipPath id="clip1_399_3288">
<rect width="228" height="340" fill="white" transform="translate(5 5)"/>
</clipPath>
</defs>
</svg>
