<svg width="244" height="356" viewBox="0 0 244 356" fill="none" xmlns="http://www.w3.org/2000/svg">
<g filter="url(#filter0_d_570_3190)">
<rect x="5" y="5" width="228" height="340" rx="12" fill="url(#paint0_linear_570_3190)"/>
<rect x="7" y="7" width="224" height="336" rx="10" stroke="url(#paint1_linear_570_3190)" stroke-width="4"/>
<rect x="13" y="13" width="212" height="324" rx="7" stroke="white" stroke-width="2"/>
<path d="M80.1491 148.065C80.3357 150.048 80.8257 151.542 81.6191 152.545C82.4357 153.525 83.6141 154.015 85.1541 154.015C85.7841 154.015 86.3791 153.922 86.9391 153.735C87.5224 153.572 88.0357 153.292 88.4791 152.895C88.9224 152.498 89.2724 151.985 89.5291 151.355C89.8091 150.702 89.9491 149.908 89.9491 148.975C89.9491 147.342 89.5407 146.082 88.7241 145.195C87.9307 144.308 86.7291 143.865 85.1191 143.865H82.1091V139.735H85.1191C86.3791 139.735 87.4057 139.362 88.1991 138.615C89.0157 137.845 89.4241 136.725 89.4241 135.255C89.4241 133.995 89.0741 132.98 88.3741 132.21C87.6974 131.44 86.6241 131.055 85.1541 131.055C83.8941 131.055 82.8791 131.51 82.1091 132.42C81.3624 133.307 80.9424 134.742 80.8491 136.725H75.5291C75.5291 135.232 75.7274 133.867 76.1241 132.63C76.5441 131.393 77.1507 130.343 77.9441 129.48C78.7607 128.593 79.7757 127.917 80.9891 127.45C82.2024 126.96 83.6257 126.715 85.2591 126.715C86.3091 126.715 87.3824 126.855 88.4791 127.135C89.5757 127.415 90.5674 127.882 91.4541 128.535C92.3641 129.188 93.1107 130.063 93.6941 131.16C94.2774 132.257 94.5691 133.61 94.5691 135.22C94.5691 136.41 94.2774 137.565 93.6941 138.685C93.1107 139.782 92.2591 140.703 91.1391 141.45C92.4691 142.127 93.4841 143.083 94.1841 144.32C94.9074 145.557 95.2691 146.945 95.2691 148.485C95.2691 151.775 94.3707 154.248 92.5741 155.905C90.8007 157.562 88.2691 158.39 84.9791 158.39C83.5557 158.39 82.2257 158.157 80.9891 157.69C79.7757 157.223 78.7141 156.547 77.8041 155.66C76.9174 154.773 76.2057 153.688 75.6691 152.405C75.1557 151.122 74.8874 149.675 74.8641 148.065H80.1491ZM99.1781 143.83V126.365H117.483V130.775H104.638V139.455H118.183V143.83H99.1781ZM100.578 146.7H106.038V153.91H127.213V158.285H100.578V146.7ZM131.133 134.905V139.28H126.513V150.34H121.088V125.91H126.513V134.905H131.133ZM148.3 126.365V133.4H151.38V126.19H156.595V158.18H151.38V149.29H147.775V144.915H151.38V137.775H148.23C148.09 139.992 147.716 142.092 147.11 144.075C146.526 146.058 145.675 147.913 144.555 149.64C143.458 151.343 142.081 152.907 140.425 154.33C138.791 155.777 136.843 157.048 134.58 158.145L131.92 154.225C135.513 152.452 138.231 150.188 140.075 147.435C141.918 144.682 142.84 141.438 142.84 137.705V130.74H133.81V126.365H148.3ZM158.065 125.91H163.315V158.74H158.065V125.91ZM72.2254 204.67H77.6854V207.26H94.4854V204.67H99.9104V218.635H72.2254V204.67ZM70.5804 186.365H85.8404V202.255H70.5804V186.365ZM94.6954 191.755V185.91H99.9104V203.305H94.6954V196.13H92.8754V202.955H87.6604V186.155H92.8754V191.755H94.6954ZM77.6854 211.565V214.33H94.4854V211.565H77.6854ZM75.9004 190.67V197.95H80.5554V190.67H75.9004ZM105.667 209.85H127.892V208.8H105.667V204.845H116.727V203.445H103.392V199.07H135.522V203.445H122.187V204.845H133.317V213.665H111.127V214.68H134.017V218.635H105.667V209.85ZM105.842 186.365H133.142V197.635H105.842V186.365ZM111.302 190.74V193.295H127.682V190.74H111.302ZM156.643 190.74C156.807 192 157.215 193.155 157.868 194.205C158.545 195.255 159.42 196.188 160.493 197.005C161.59 197.822 162.862 198.522 164.308 199.105C165.755 199.665 167.342 200.108 169.068 200.435L167.353 204.565C165.953 204.332 164.565 203.982 163.188 203.515C161.812 203.048 160.528 202.488 159.338 201.835C158.148 201.158 157.075 200.4 156.118 199.56C155.162 198.697 154.392 197.752 153.808 196.725C153.225 197.752 152.467 198.697 151.533 199.56C150.6 200.4 149.538 201.158 148.348 201.835C147.158 202.488 145.875 203.048 144.498 203.515C143.122 203.982 141.71 204.332 140.263 204.565L138.548 200.435C140.275 200.108 141.862 199.665 143.308 199.105C144.755 198.522 146.015 197.822 147.088 197.005C148.162 196.188 149.025 195.255 149.678 194.205C150.355 193.155 150.775 192 150.938 190.74H140.123V186.365H167.493V190.74H156.643ZM150.973 211.425H137.708V207.05H169.908V211.425H156.433V219.16H150.973V211.425Z" fill="white"/>
</g>
<defs>
<filter id="filter0_d_570_3190" x="0" y="0" width="244" height="356" filterUnits="userSpaceOnUse" color-interpolation-filters="sRGB">
<feFlood flood-opacity="0" result="BackgroundImageFix"/>
<feColorMatrix in="SourceAlpha" type="matrix" values="0 0 0 0 0 0 0 0 0 0 0 0 0 0 0 0 0 0 127 0" result="hardAlpha"/>
<feOffset dx="3" dy="3"/>
<feGaussianBlur stdDeviation="4"/>
<feComposite in2="hardAlpha" operator="out"/>
<feColorMatrix type="matrix" values="0 0 0 0 0 0 0 0 0 0 0 0 0 0 0 0 0 0 0.2 0"/>
<feBlend mode="normal" in2="BackgroundImageFix" result="effect1_dropShadow_570_3190"/>
<feBlend mode="normal" in="SourceGraphic" in2="effect1_dropShadow_570_3190" result="shape"/>
</filter>
<linearGradient id="paint0_linear_570_3190" x1="233" y1="175" x2="5" y2="175" gradientUnits="userSpaceOnUse">
<stop stop-color="#E55936"/>
<stop offset="1" stop-color="#B03415"/>
</linearGradient>
<linearGradient id="paint1_linear_570_3190" x1="233" y1="175" x2="5" y2="175" gradientUnits="userSpaceOnUse">
<stop stop-color="#E55936"/>
<stop offset="1" stop-color="#B03415"/>
</linearGradient>
</defs>
</svg>
