<svg width="244" height="356" viewBox="0 0 244 356" fill="none" xmlns="http://www.w3.org/2000/svg">
<g filter="url(#filter0_d_570_3187)">
<rect x="5" y="5" width="228" height="340" rx="12" fill="url(#paint0_linear_570_3187)"/>
<rect x="7" y="7" width="224" height="336" rx="10" stroke="url(#paint1_linear_570_3187)" stroke-width="4"/>
<rect x="13" y="13" width="212" height="324" rx="7" stroke="white" stroke-width="2"/>
<path d="M74.2141 137.425C74.2841 135.745 74.5291 134.252 74.9491 132.945C75.3691 131.615 75.9757 130.495 76.7691 129.585C77.5857 128.652 78.6007 127.94 79.8141 127.45C81.0274 126.96 82.4624 126.715 84.1191 126.715C85.8691 126.715 87.3507 126.937 88.5641 127.38C89.8007 127.823 90.7924 128.43 91.5391 129.2C92.3091 129.97 92.8691 130.88 93.2191 131.93C93.5691 132.957 93.7441 134.065 93.7441 135.255C93.7441 136.352 93.6157 137.343 93.3591 138.23C93.1024 139.093 92.6941 139.945 92.1341 140.785C91.5741 141.625 90.8391 142.477 89.9291 143.34C89.0424 144.203 87.9457 145.16 86.6391 146.21L83.1041 149.045C82.4274 149.582 81.7857 150.212 81.1791 150.935C80.5957 151.635 80.1524 152.58 79.8491 153.77H94.1991V157.97H74.1441C74.2141 156.5 74.3541 155.182 74.5641 154.015C74.7974 152.848 75.1357 151.775 75.5791 150.795C76.0457 149.815 76.6407 148.893 77.3641 148.03C78.0874 147.167 78.9974 146.303 80.0941 145.44L85.2741 141.31C86.3241 140.493 87.1057 139.618 87.6191 138.685C88.1557 137.752 88.4241 136.585 88.4241 135.185C88.4241 134.625 88.3424 134.1 88.1791 133.61C88.0391 133.12 87.7941 132.688 87.4441 132.315C87.1174 131.942 86.6741 131.65 86.1141 131.44C85.5541 131.207 84.8774 131.09 84.0841 131.09C82.5907 131.09 81.4707 131.603 80.7241 132.63C80.0007 133.633 79.6157 135.232 79.5691 137.425H74.2141ZM98.1781 143.83V126.365H116.483V130.775H103.638V139.455H117.183V143.83H98.1781ZM99.5781 146.7H105.038V153.91H126.213V158.285H99.5781V146.7ZM130.133 134.905V139.28H125.513V150.34H120.088V125.91H125.513V134.905H130.133ZM147.3 126.365V133.4H150.38V126.19H155.595V158.18H150.38V149.29H146.775V144.915H150.38V137.775H147.23C147.09 139.992 146.716 142.092 146.11 144.075C145.526 146.058 144.675 147.913 143.555 149.64C142.458 151.343 141.081 152.907 139.425 154.33C137.791 155.777 135.843 157.048 133.58 158.145L130.92 154.225C134.513 152.452 137.231 150.188 139.075 147.435C140.918 144.682 141.84 141.438 141.84 137.705V130.74H132.81V126.365H147.3ZM157.065 125.91H162.315V158.74H157.065V125.91ZM71.2254 204.67H76.6854V207.26H93.4854V204.67H98.9104V218.635H71.2254V204.67ZM69.5804 186.365H84.8404V202.255H69.5804V186.365ZM93.6954 191.755V185.91H98.9104V203.305H93.6954V196.13H91.8754V202.955H86.6604V186.155H91.8754V191.755H93.6954ZM76.6854 211.565V214.33H93.4854V211.565H76.6854ZM74.9004 190.67V197.95H79.5554V190.67H74.9004ZM104.842 186.365H110.302V202.255H132.667V206.63H104.842V186.365ZM102.392 213.56H115.727V208.065H121.187V213.56H134.592V217.935H102.392V213.56ZM136.708 213.56H168.908V217.935H136.708V213.56ZM166.353 207.33C164.953 207.097 163.565 206.747 162.188 206.28C160.812 205.813 159.528 205.253 158.338 204.6C157.148 203.923 156.075 203.165 155.118 202.325C154.162 201.462 153.392 200.517 152.808 199.49C152.225 200.517 151.467 201.462 150.533 202.325C149.6 203.165 148.538 203.923 147.348 204.6C146.158 205.253 144.875 205.813 143.498 206.28C142.122 206.747 140.71 207.097 139.263 207.33L137.548 203.2C139.392 202.85 141.083 202.36 142.623 201.73C144.163 201.077 145.482 200.295 146.578 199.385C147.675 198.452 148.527 197.39 149.133 196.2C149.74 195.01 150.043 193.692 150.043 192.245V186.19H155.573V192.245C155.573 193.692 155.877 195.01 156.483 196.2C157.09 197.39 157.942 198.452 159.038 199.385C160.135 200.295 161.442 201.077 162.958 201.73C164.498 202.36 166.202 202.85 168.068 203.2L166.353 207.33Z" fill="white"/>
</g>
<defs>
<filter id="filter0_d_570_3187" x="0" y="0" width="244" height="356" filterUnits="userSpaceOnUse" color-interpolation-filters="sRGB">
<feFlood flood-opacity="0" result="BackgroundImageFix"/>
<feColorMatrix in="SourceAlpha" type="matrix" values="0 0 0 0 0 0 0 0 0 0 0 0 0 0 0 0 0 0 127 0" result="hardAlpha"/>
<feOffset dx="3" dy="3"/>
<feGaussianBlur stdDeviation="4"/>
<feComposite in2="hardAlpha" operator="out"/>
<feColorMatrix type="matrix" values="0 0 0 0 0 0 0 0 0 0 0 0 0 0 0 0 0 0 0.2 0"/>
<feBlend mode="normal" in2="BackgroundImageFix" result="effect1_dropShadow_570_3187"/>
<feBlend mode="normal" in="SourceGraphic" in2="effect1_dropShadow_570_3187" result="shape"/>
</filter>
<linearGradient id="paint0_linear_570_3187" x1="233" y1="175" x2="5" y2="175" gradientUnits="userSpaceOnUse">
<stop stop-color="#F6B95B"/>
<stop offset="1" stop-color="#D78305"/>
</linearGradient>
<linearGradient id="paint1_linear_570_3187" x1="5" y1="175" x2="233" y2="175" gradientUnits="userSpaceOnUse">
<stop stop-color="#D78305"/>
<stop offset="1" stop-color="#F6B95B"/>
</linearGradient>
</defs>
</svg>
