<svg width="396" height="396" viewBox="0 0 396 396" fill="none" xmlns="http://www.w3.org/2000/svg">
<g filter="url(#filter0_i_487_2419)">
<rect width="396" height="396" rx="24" fill="#E55936"/>
</g>
<path d="M41.38 51.368C41.38 50.0613 41.8933 49.0253 42.92 48.26C43.9653 47.4947 45.608 47.112 47.848 47.112C50.1067 47.112 51.7493 47.4853 52.776 48.232C53.8213 48.9787 54.344 50.024 54.344 51.368C54.344 52.712 53.8213 53.7573 52.776 54.504C51.7493 55.2507 50.1067 55.624 47.848 55.624C45.608 55.624 43.9653 55.2413 42.92 54.476C41.8933 53.7107 41.38 52.6747 41.38 51.368ZM62.632 65.816C61.5307 65.6853 60.4667 65.48 59.44 65.2C58.4133 64.9387 57.452 64.6027 56.556 64.192C55.66 63.8 54.8387 63.3333 54.092 62.792C53.364 62.2507 52.7387 61.6347 52.216 60.944C51.712 61.6347 51.0867 62.2507 50.34 62.792C49.612 63.3333 48.7907 63.8 47.876 64.192C46.98 64.6027 46.0187 64.9387 44.992 65.2C43.9653 65.48 42.9107 65.6853 41.828 65.816L40.68 63.072C42.0427 62.9227 43.3213 62.68 44.516 62.344C45.7107 62.0267 46.7467 61.5973 47.624 61.056C48.52 60.5333 49.22 59.908 49.724 59.18C50.2467 58.452 50.508 57.6213 50.508 56.688V56.492H53.952V56.688C53.952 57.6213 54.204 58.452 54.708 59.18C55.2307 59.908 55.9307 60.5333 56.808 61.056C57.704 61.5973 58.7493 62.0267 59.944 62.344C61.1387 62.68 62.4173 62.9227 63.78 63.072L62.632 65.816ZM66.076 48.848H62.1V57.192H58.656V39.44H62.1V46.02H66.076V48.848ZM40.316 46.132V43.332H55.408V46.132H40.316ZM43.396 42.324V39.524H52.3V42.324H43.396ZM50.928 51.368C50.928 51.144 50.8813 50.948 50.788 50.78C50.6947 50.5933 50.5267 50.4347 50.284 50.304C50.06 50.1547 49.752 50.0427 49.36 49.968C48.968 49.8933 48.464 49.856 47.848 49.856C46.6907 49.856 45.888 49.996 45.44 50.276C45.0107 50.556 44.796 50.9107 44.796 51.34C44.796 51.788 45.0107 52.1613 45.44 52.46C45.888 52.74 46.6907 52.88 47.848 52.88C48.464 52.88 48.968 52.8427 49.36 52.768C49.752 52.6933 50.06 52.5907 50.284 52.46C50.5267 52.3107 50.6947 52.152 50.788 51.984C50.8813 51.7973 50.928 51.592 50.928 51.368ZM68.8331 51.928C68.8331 50.584 69.3558 49.52 70.4011 48.736C71.4651 47.9333 73.0985 47.532 75.3011 47.532C77.5038 47.532 79.1371 47.924 80.2011 48.708C81.2651 49.492 81.7971 50.5653 81.7971 51.928C81.7971 53.2907 81.2651 54.364 80.2011 55.148C79.1371 55.932 77.5038 56.324 75.3011 56.324C73.0985 56.324 71.4651 55.932 70.4011 55.148C69.3558 54.3453 68.8331 53.272 68.8331 51.928ZM93.5291 50.276H89.5531V58.76H86.1091V39.44H89.5531V47.448H93.5291V50.276ZM72.8931 57.472V62.288H89.9731V65.116H69.4211V57.472H72.8931ZM67.7691 46.412V43.612H82.8611V46.412H67.7691ZM70.8491 42.324V39.524H79.7531V42.324H70.8491ZM78.3811 51.928C78.3811 51.704 78.3345 51.4893 78.2411 51.284C78.1478 51.0787 77.9798 50.9013 77.7371 50.752C77.4945 50.6027 77.1771 50.4907 76.7851 50.416C76.3931 50.3227 75.8985 50.276 75.3011 50.276C74.1811 50.276 73.3878 50.4347 72.9211 50.752C72.4731 51.0507 72.2491 51.4333 72.2491 51.9C72.2491 52.3853 72.4731 52.7867 72.9211 53.104C73.3878 53.4213 74.1811 53.58 75.3011 53.58C75.8985 53.58 76.3931 53.5427 76.7851 53.468C77.1771 53.3747 77.4945 53.2533 77.7371 53.104C77.9798 52.9547 78.1478 52.7867 78.2411 52.6C78.3345 52.3947 78.3811 52.1707 78.3811 51.928ZM104.681 51.368C104.681 50.0613 105.194 49.0253 106.221 48.26C107.266 47.4947 108.909 47.112 111.149 47.112C113.407 47.112 115.05 47.4853 116.077 48.232C117.122 48.9787 117.645 50.024 117.645 51.368C117.645 52.712 117.122 53.7573 116.077 54.504C115.05 55.2507 113.407 55.624 111.149 55.624C108.909 55.624 107.266 55.2413 106.221 54.476C105.194 53.7107 104.681 52.6747 104.681 51.368ZM125.933 65.816C124.831 65.6853 123.767 65.48 122.741 65.2C121.714 64.9387 120.753 64.6027 119.857 64.192C118.961 63.8 118.139 63.3333 117.393 62.792C116.665 62.2507 116.039 61.6347 115.517 60.944C115.013 61.6347 114.387 62.2507 113.641 62.792C112.913 63.3333 112.091 63.8 111.177 64.192C110.281 64.6027 109.319 64.9387 108.293 65.2C107.266 65.48 106.211 65.6853 105.129 65.816L103.981 63.072C105.343 62.9227 106.622 62.68 107.817 62.344C109.011 62.0267 110.047 61.5973 110.925 61.056C111.821 60.5333 112.521 59.908 113.025 59.18C113.547 58.452 113.809 57.6213 113.809 56.688V56.492H117.253V56.688C117.253 57.6213 117.505 58.452 118.009 59.18C118.531 59.908 119.231 60.5333 120.109 61.056C121.005 61.5973 122.05 62.0267 123.245 62.344C124.439 62.68 125.718 62.9227 127.081 63.072L125.933 65.816ZM129.377 48.848H125.401V57.192H121.957V39.44H125.401V46.02H129.377V48.848ZM103.617 46.132V43.332H118.709V46.132H103.617ZM106.697 42.324V39.524H115.601V42.324H106.697ZM114.229 51.368C114.229 51.144 114.182 50.948 114.089 50.78C113.995 50.5933 113.827 50.4347 113.585 50.304C113.361 50.1547 113.053 50.0427 112.661 49.968C112.269 49.8933 111.765 49.856 111.149 49.856C109.991 49.856 109.189 49.996 108.741 50.276C108.311 50.556 108.097 50.9107 108.097 51.34C108.097 51.788 108.311 52.1613 108.741 52.46C109.189 52.74 109.991 52.88 111.149 52.88C111.765 52.88 112.269 52.8427 112.661 52.768C113.053 52.6933 113.361 52.5907 113.585 52.46C113.827 52.3107 113.995 52.152 114.089 51.984C114.182 51.7973 114.229 51.592 114.229 51.368ZM131.518 53.636C132.638 53.412 133.795 53.076 134.99 52.628C136.203 52.1613 137.305 51.564 138.294 50.836C139.283 50.0893 140.095 49.184 140.73 48.12C141.365 47.0373 141.682 45.768 141.682 44.312V39.664H145.21V44.312C145.21 45.768 145.527 47.0373 146.162 48.12C146.797 49.184 147.609 50.0893 148.598 50.836C149.587 51.564 150.679 52.1613 151.874 52.628C153.087 53.076 154.254 53.412 155.374 53.636L154.254 56.324C153.302 56.156 152.294 55.904 151.23 55.568C150.166 55.2133 149.13 54.7653 148.122 54.224C147.133 53.6827 146.227 53.0387 145.406 52.292C144.585 51.5453 143.941 50.6773 143.474 49.688C142.989 50.6773 142.326 51.5453 141.486 52.292C140.665 53.0387 139.75 53.6827 138.742 54.224C137.753 54.7653 136.726 55.2133 135.662 55.568C134.598 55.904 133.59 56.156 132.638 56.324L131.518 53.636ZM156.158 62.008V64.836H130.762V62.008H156.158ZM160.959 50.556L160.399 44.088L163.787 43.864L164.347 50.556H167.735L168.323 43.864L171.711 44.088L171.123 50.556H174.203V53.412H158.215V50.556H160.959ZM180.839 65.816C179.738 65.6853 178.674 65.48 177.647 65.2C176.62 64.9387 175.659 64.6027 174.763 64.192C173.867 63.8 173.046 63.3333 172.299 62.792C171.571 62.2507 170.946 61.6347 170.423 60.944C169.919 61.6347 169.294 62.2507 168.547 62.792C167.819 63.3333 166.998 63.8 166.083 64.192C165.187 64.6027 164.226 64.9387 163.199 65.2C162.172 65.48 161.118 65.6853 160.035 65.816L158.887 63.072C160.25 62.9227 161.528 62.68 162.723 62.344C163.918 62.0267 164.954 61.5973 165.831 61.056C166.727 60.5333 167.427 59.908 167.931 59.18C168.454 58.452 168.715 57.6213 168.715 56.688V55.372H172.159V56.688C172.159 57.6213 172.411 58.452 172.915 59.18C173.438 59.908 174.138 60.5333 175.015 61.056C175.911 61.5973 176.956 62.0267 178.151 62.344C179.346 62.68 180.624 62.9227 181.987 63.072L180.839 65.816ZM184.283 48.008H180.307V56.072H176.863V39.44H180.307V45.18H184.283V48.008ZM173.643 39.804V42.66H158.495V39.804H173.643ZM45.44 85.776V91.292H60.028V85.776H63.472V101.792H41.968V85.776H45.44ZM50.984 108.008V102.912H54.456V108.008H65.404V110.836H40.008V108.008H50.984ZM45.44 98.964H60.028V94.12H45.44V98.964ZM68.5811 110.892V96.752H78.8291V88.66H68.5251V85.804H82.3291V99.608H72.0531V108.092H83.8411V110.892H68.5811ZM91.5131 85.44V111.396H88.0691V99.048H83.8411V96.192H88.0691V85.44H91.5131ZM108.606 92.048C108.606 94.4933 108.326 96.6773 107.766 98.6C107.206 100.523 106.404 102.249 105.358 103.78C104.332 105.292 103.081 106.627 101.606 107.784C100.132 108.941 98.4703 109.968 96.6223 110.864L94.9143 108.372C96.3516 107.681 97.6863 106.86 98.9183 105.908C100.169 104.937 101.242 103.817 102.138 102.548C103.053 101.279 103.772 99.8413 104.294 98.236C104.817 96.6307 105.078 94.8293 105.078 92.832V88.632H95.7823V85.804H108.606V92.048ZM120.982 98.488H117.006V111.396H113.562V85.44H117.006V95.632H120.982V98.488ZM136.339 92.048C136.339 94.4933 136.059 96.6773 135.499 98.6C134.939 100.523 134.137 102.249 133.091 103.78C132.065 105.292 130.814 106.627 129.339 107.784C127.865 108.941 126.203 109.968 124.355 110.864L122.647 108.372C124.085 107.681 125.419 106.86 126.651 105.908C127.902 104.937 128.975 103.817 129.871 102.548C130.786 101.279 131.505 99.8413 132.027 98.236C132.55 96.6307 132.811 94.8293 132.811 92.832V88.632H123.515V85.804H136.339V92.048ZM142.975 85.44H146.419V111.396H142.975V85.44Z" fill="#410A0A"/>
<path fill-rule="evenodd" clip-rule="evenodd" d="M328.529 311.926L323.914 319.919C329.958 320.894 335.19 322.604 339.215 324.717C346.013 328.286 347.3 331.705 347.3 333.163C347.3 334.621 346.013 338.039 339.215 341.608C332.825 344.963 323.394 347.3 312.5 347.3C301.606 347.3 292.175 344.963 285.785 341.608C278.987 338.039 277.7 334.621 277.7 333.163C277.7 331.705 278.987 328.286 285.785 324.717C289.811 322.604 295.043 320.894 301.087 319.918L296.472 311.925C280.38 315.276 269 323.521 269 333.163C269 345.775 288.476 356 312.5 356C336.524 356 356 345.775 356 333.163C356 323.522 344.621 315.276 328.529 311.926Z" fill="#410A0A"/>
<path d="M341 268.333C341 274.494 338.235 280.43 335.289 285.761L312.5 325.031L289.75 285.829C289.72 285.768 289.689 285.707 289.658 285.646C286.642 279.649 284 274.396 284 268.333C284 252.705 296.74 240 312.5 240C328.26 240 341 252.705 341 268.333Z" stroke="#410A0A" stroke-width="8" stroke-linejoin="round"/>
<circle cx="312" cy="266" r="9" fill="#410A0A"/>
<defs>
<filter id="filter0_i_487_2419" x="-5" y="-5" width="401" height="401" filterUnits="userSpaceOnUse" color-interpolation-filters="sRGB">
<feFlood flood-opacity="0" result="BackgroundImageFix"/>
<feBlend mode="normal" in="SourceGraphic" in2="BackgroundImageFix" result="shape"/>
<feColorMatrix in="SourceAlpha" type="matrix" values="0 0 0 0 0 0 0 0 0 0 0 0 0 0 0 0 0 0 127 0" result="hardAlpha"/>
<feMorphology radius="5" operator="erode" in="SourceAlpha" result="effect1_innerShadow_487_2419"/>
<feOffset dx="-5" dy="-5"/>
<feGaussianBlur stdDeviation="4"/>
<feComposite in2="hardAlpha" operator="arithmetic" k2="-1" k3="1"/>
<feColorMatrix type="matrix" values="0 0 0 0 0 0 0 0 0 0 0 0 0 0 0 0 0 0 0.15 0"/>
<feBlend mode="normal" in2="shape" result="effect1_innerShadow_487_2419"/>
</filter>
</defs>
</svg>
