<svg width="87" height="120" viewBox="0 0 87 120" fill="none" xmlns="http://www.w3.org/2000/svg">
<path fill-rule="evenodd" clip-rule="evenodd" d="M59.5292 75.9256L54.9145 83.9186C60.9581 84.8944 66.1897 86.6037 70.2151 88.717C77.0128 92.2858 78.3 95.7046 78.3 97.1626C78.3 98.6206 77.0128 102.039 70.2151 105.608C63.8245 108.963 54.3937 111.3 43.5 111.3C32.6063 111.3 23.1755 108.963 16.7849 105.608C9.98717 102.039 8.7 98.6206 8.7 97.1626C8.7 95.7046 9.98717 92.2858 16.7849 88.717C20.8106 86.6036 26.0427 84.8941 32.0869 83.9184L27.4721 75.9253C11.3797 79.2756 0 87.5214 0 97.1626C0 109.775 19.4756 120 43.5 120C67.5244 120 87 109.775 87 97.1626C87 87.5217 75.6209 79.2761 59.5292 75.9256Z" fill="#410A0A"/>
<path d="M72 32.3333C72 38.4935 69.2353 44.4303 66.289 49.7615L43.5 89.0307L20.7503 49.8292C20.7197 49.7682 20.689 49.7073 20.6584 49.6465C17.6422 43.6494 15 38.3959 15 32.3333C15 16.7046 27.7405 4 43.5 4C59.2595 4 72 16.7046 72 32.3333Z" stroke="#410A0A" stroke-width="8" stroke-linejoin="round"/>
<circle cx="43" cy="30" r="9" fill="#410A0A"/>
</svg>
