<svg width="22" height="32" viewBox="0 0 22 32" fill="none" xmlns="http://www.w3.org/2000/svg">
<path fill-rule="evenodd" clip-rule="evenodd" d="M20.3163 17.204C20.1107 17.5904 19.8862 18.0121 19.6429 18.4893L11.8486 30.9946C11.4571 31.6227 10.5427 31.6227 10.1513 30.9946L2.35714 18.4893C0.785714 15.4077 0 13.714 0 10.7854C0 4.82884 4.92491 0 11 0C17.0751 0 22 4.82884 22 10.7854C22 14.0409 21.4388 15.0953 20.3163 17.204ZM11 15.6877C13.7614 15.6877 16 13.4927 16 10.7852C16 8.07764 13.7614 5.88273 11 5.88273C8.23858 5.88273 6 8.07764 6 10.7852C6 13.4927 8.23858 15.6877 11 15.6877Z" fill="#BF2202"/>
</svg>
