<svg width="438" height="99" viewBox="0 0 438 99" fill="none" xmlns="http://www.w3.org/2000/svg">
<path d="M57.4383 0.747999V33.004H42.2463V0.747999H57.4383ZM68.0223 0.279999H72.3783V33.652H68.0223V17.056H64.4943V33.184H60.1743V0.567999H64.4943V13.42H68.0223V0.279999ZM46.5663 29.404H53.1183V4.384H46.5663V29.404ZM85.6432 14.212C83.1232 14.212 81.2512 13.612 80.0272 12.412C78.8032 11.188 78.1912 9.544 78.1912 7.48C78.1912 5.416 78.8032 3.784 80.0272 2.584C81.2512 1.36 83.1232 0.747999 85.6432 0.747999H99.0352C101.555 0.747999 103.427 1.36 104.651 2.584C105.875 3.784 106.487 5.416 106.487 7.48C106.487 9.544 105.875 11.188 104.651 12.412C103.427 13.612 101.555 14.212 99.0352 14.212H85.6432ZM75.9952 20.836V17.2H108.611V20.836H94.4992V26.416H90.0352V20.836H75.9952ZM82.7992 23.176V30.016H106.703V33.652H78.3352V23.176H82.7992ZM82.5472 7.48C82.5472 7.888 82.5952 8.284 82.6912 8.668C82.8112 9.052 83.0152 9.388 83.3032 9.676C83.5912 9.964 83.9752 10.204 84.4552 10.396C84.9352 10.564 85.5472 10.648 86.2912 10.648H98.3872C99.1312 10.648 99.7432 10.564 100.223 10.396C100.703 10.204 101.087 9.964 101.375 9.676C101.663 9.388 101.855 9.052 101.951 8.668C102.071 8.284 102.131 7.888 102.131 7.48C102.131 7.072 102.071 6.676 101.951 6.292C101.855 5.908 101.663 5.572 101.375 5.284C101.087 4.996 100.703 4.768 100.223 4.6C99.7432 4.408 99.1312 4.312 98.3872 4.312H86.2912C85.5472 4.312 84.9352 4.408 84.4552 4.6C83.9752 4.768 83.5912 4.996 83.3032 5.284C83.0152 5.572 82.8112 5.908 82.6912 6.292C82.5952 6.676 82.5472 7.072 82.5472 7.48ZM140.121 2.98C140.121 4.924 139.749 6.736 139.005 8.416C138.285 10.096 137.253 11.632 135.909 13.024C134.565 14.392 132.933 15.616 131.013 16.696C129.117 17.752 127.005 18.652 124.677 19.396L122.589 16.048C124.197 15.568 125.745 14.944 127.233 14.176C128.745 13.408 130.077 12.532 131.229 11.548C132.405 10.54 133.365 9.436 134.109 8.236C134.853 7.012 135.285 5.716 135.405 4.348H123.849V0.711999H140.121V2.98ZM152.613 34.192C151.197 34.024 149.829 33.76 148.509 33.4C147.189 33.064 145.953 32.632 144.801 32.104C143.649 31.6 142.593 31 141.633 30.304C140.697 29.608 139.893 28.816 139.221 27.928C138.573 28.816 137.769 29.608 136.809 30.304C135.873 31 134.817 31.6 133.641 32.104C132.489 32.632 131.253 33.064 129.933 33.4C128.613 33.76 127.257 34.024 125.865 34.192L124.389 30.664C126.141 30.472 127.785 30.16 129.321 29.728C130.857 29.32 132.189 28.768 133.317 28.072C134.469 27.4 135.369 26.596 136.017 25.66C136.689 24.724 137.025 23.656 137.025 22.456V20.764H141.453V22.456C141.453 23.656 141.777 24.724 142.425 25.66C143.097 26.596 143.997 27.4 145.125 28.072C146.277 28.768 147.621 29.32 149.157 29.728C150.693 30.16 152.337 30.472 154.089 30.664L152.613 34.192ZM153.009 0.279999V21.664H148.581V11.08H141.345V7.408H148.581V0.279999H153.009ZM174.122 24.292C174.122 25.732 174.002 27.016 173.762 28.144C173.522 29.272 173.114 30.22 172.538 30.988C171.962 31.78 171.182 32.368 170.198 32.752C169.214 33.16 167.99 33.364 166.526 33.364C165.038 33.364 163.802 33.16 162.818 32.752C161.858 32.368 161.09 31.78 160.514 30.988C159.938 30.22 159.53 29.272 159.29 28.144C159.05 27.016 158.93 25.732 158.93 24.292V9.46C158.93 8.02 159.05 6.736 159.29 5.608C159.53 4.48 159.938 3.532 160.514 2.764C161.09 1.972 161.858 1.384 162.818 0.999998C163.802 0.591999 165.038 0.387999 166.526 0.387999C167.99 0.387999 169.214 0.591999 170.198 0.999998C171.182 1.384 171.962 1.972 172.538 2.764C173.114 3.532 173.522 4.48 173.762 5.608C174.002 6.736 174.122 8.02 174.122 9.46V13.42H177.938V0.567999H182.258V33.184H177.938V17.056H174.122V24.292ZM169.766 9.46C169.766 8.572 169.718 7.792 169.622 7.12C169.526 6.448 169.358 5.896 169.118 5.464C168.878 5.032 168.542 4.708 168.11 4.492C167.702 4.276 167.174 4.168 166.526 4.168C165.206 4.168 164.33 4.6 163.898 5.464C163.466 6.328 163.25 7.66 163.25 9.46V24.292C163.25 26.092 163.466 27.424 163.898 28.288C164.33 29.152 165.206 29.584 166.526 29.584C167.174 29.584 167.702 29.476 168.11 29.26C168.542 29.044 168.878 28.72 169.118 28.288C169.358 27.856 169.526 27.316 169.622 26.668C169.718 25.996 169.766 25.204 169.766 24.292V9.46ZM189.062 0.279999V33.652H184.706V0.279999H189.062ZM216 4.42V6.112C216 7.288 216.228 8.368 216.684 9.352C217.14 10.312 217.728 11.164 218.448 11.908C219.192 12.652 220.032 13.288 220.968 13.816C221.928 14.344 222.912 14.752 223.92 15.04L221.868 18.28C220.428 17.92 219.012 17.248 217.62 16.264C216.252 15.28 215.016 13.984 213.912 12.376C212.904 13.96 211.668 15.34 210.204 16.516C208.74 17.692 207.108 18.628 205.308 19.324L203.256 16.264C204.504 15.76 205.632 15.184 206.64 14.536C207.672 13.864 208.548 13.12 209.268 12.304C209.988 11.464 210.54 10.552 210.924 9.568C211.332 8.56 211.536 7.456 211.536 6.256V4.42H204.66V0.747999H222.84V4.42H216ZM210.816 21.664V29.656H234.936V33.292H206.352V21.664H210.816ZM229.968 0.279999H234.396V25.12H229.968V0.279999ZM269.693 20.944V33.652H241.649V20.944H269.693ZM246.113 30.088H265.265V24.508H246.113V30.088ZM265.265 0.279999H269.693V19.684H265.265V0.279999ZM257.417 17.884C255.977 17.284 254.573 16.408 253.205 15.256C251.837 14.08 250.613 12.556 249.533 10.684C248.573 12.412 247.385 13.948 245.969 15.292C244.553 16.636 242.945 17.728 241.145 18.568L238.841 15.508C240.089 14.908 241.217 14.212 242.225 13.42C243.257 12.604 244.133 11.716 244.853 10.756C245.597 9.772 246.161 8.716 246.545 7.588C246.953 6.46 247.157 5.272 247.157 4.024V0.567999H251.657V3.88C251.657 5.248 251.885 6.496 252.341 7.624C252.797 8.752 253.397 9.772 254.141 10.684C254.885 11.596 255.737 12.388 256.697 13.06C257.657 13.732 258.629 14.284 259.613 14.716L257.417 17.884ZM281.41 21.664V29.656H305.53V33.292H276.946V21.664H281.41ZM300.562 0.279999H304.99V25.12H300.562V0.279999ZM274.75 9.604C274.75 8.116 275.002 6.796 275.506 5.644C276.01 4.492 276.682 3.532 277.522 2.764C278.386 1.972 279.382 1.384 280.51 0.999998C281.662 0.591999 282.874 0.387999 284.146 0.387999C285.418 0.387999 286.618 0.591999 287.746 0.999998C288.898 1.384 289.906 1.972 290.77 2.764C291.634 3.532 292.318 4.492 292.822 5.644C293.326 6.772 293.578 8.092 293.578 9.604C293.578 11.116 293.326 12.448 292.822 13.6C292.318 14.728 291.634 15.676 290.77 16.444C289.906 17.212 288.898 17.788 287.746 18.172C286.618 18.556 285.418 18.748 284.146 18.748C282.874 18.748 281.662 18.556 280.51 18.172C279.382 17.764 278.386 17.176 277.522 16.408C276.682 15.64 276.01 14.692 275.506 13.564C275.002 12.412 274.75 11.092 274.75 9.604ZM289.186 9.604C289.186 7.732 288.706 6.352 287.746 5.464C286.81 4.552 285.61 4.096 284.146 4.096C283.45 4.096 282.79 4.216 282.166 4.456C281.566 4.672 281.038 5.008 280.582 5.464C280.15 5.896 279.802 6.46 279.538 7.156C279.274 7.828 279.142 8.632 279.142 9.568C279.142 10.504 279.274 11.32 279.538 12.016C279.802 12.712 280.15 13.288 280.582 13.744C281.038 14.176 281.566 14.5 282.166 14.716C282.79 14.932 283.45 15.04 284.146 15.04C285.61 15.04 286.81 14.608 287.746 13.744C288.706 12.856 289.186 11.476 289.186 9.604ZM329.407 33.652C326.863 33.652 324.979 33.124 323.755 32.068C322.555 31.036 321.955 29.428 321.955 27.244C321.955 25.06 322.555 23.464 323.755 22.456C324.979 21.448 326.863 20.944 329.407 20.944H341.827C344.371 20.944 346.243 21.448 347.443 22.456C348.667 23.464 349.279 25.06 349.279 27.244C349.279 29.428 348.667 31.036 347.443 32.068C346.243 33.124 344.371 33.652 341.827 33.652H329.407ZM321.235 0.747999H339.595V4.384H325.699V14.464H340.315V18.064H321.235V0.747999ZM353.671 10.936H348.559V19.324H344.131V0.279999H348.559V7.3H353.671V10.936ZM326.311 27.244C326.311 28.108 326.575 28.792 327.103 29.296C327.631 29.824 328.639 30.088 330.127 30.088H341.107C342.571 30.088 343.567 29.824 344.095 29.296C344.647 28.792 344.923 28.108 344.923 27.244C344.923 26.38 344.647 25.708 344.095 25.228C343.567 24.748 342.571 24.508 341.107 24.508H330.127C328.639 24.508 327.631 24.748 327.103 25.228C326.575 25.708 326.311 26.38 326.311 27.244ZM362.796 21.664V29.656H386.916V33.292H358.332V21.664H362.796ZM381.948 0.279999H386.376V25.12H381.948V0.279999ZM374.1 18.604C372.66 18.004 371.256 17.128 369.888 15.976C368.52 14.8 367.296 13.276 366.216 11.404C365.256 13.132 364.068 14.668 362.652 16.012C361.236 17.356 359.628 18.448 357.828 19.288L355.524 16.228C356.772 15.628 357.9 14.932 358.908 14.14C359.94 13.324 360.816 12.436 361.536 11.476C362.28 10.492 362.844 9.436 363.228 8.308C363.636 7.18 363.84 5.992 363.84 4.744V0.567999H368.34V4.6C368.34 5.968 368.568 7.216 369.024 8.344C369.48 9.472 370.08 10.492 370.824 11.404C371.568 12.316 372.42 13.108 373.38 13.78C374.34 14.452 375.312 15.004 376.296 15.436L374.1 18.604ZM392.549 28.684H397.841V33.688H392.549V28.684ZM19.7528 97.896C18.1448 96.816 16.6208 95.508 15.1808 93.972C13.7648 92.436 12.6008 90.732 11.6888 88.86C10.7288 90.756 9.50481 92.52 8.01681 94.152C6.52881 95.808 4.95681 97.176 3.30081 98.256L0.672813 95.304C3.43281 93.576 5.58081 91.476 7.11681 89.004C8.67681 86.508 9.45681 83.736 9.45681 80.688V69.42H2.32881V65.748H21.0848V69.42H13.9568V80.688C13.9568 83.808 14.6648 86.532 16.0808 88.86C17.5208 91.188 19.6208 93.216 22.3808 94.944L19.7528 97.896ZM34.9448 82.056H29.8328V98.652H25.4048V65.28H29.8328V78.384H34.9448V82.056ZM44.0697 86.664V94.656H68.1897V98.292H39.6057V86.664H44.0697ZM63.2217 65.28H67.6497V90.12H63.2217V65.28ZM55.3737 83.604C53.9337 83.004 52.5297 82.128 51.1617 80.976C49.7937 79.8 48.5697 78.276 47.4897 76.404C46.5297 78.132 45.3417 79.668 43.9257 81.012C42.5097 82.356 40.9017 83.448 39.1017 84.288L36.7977 81.228C38.0457 80.628 39.1737 79.932 40.1817 79.14C41.2137 78.324 42.0897 77.436 42.8097 76.476C43.5537 75.492 44.1177 74.436 44.5017 73.308C44.9097 72.18 45.1137 70.992 45.1137 69.744V65.568H49.6137V69.6C49.6137 70.968 49.8417 72.216 50.2977 73.344C50.7537 74.472 51.3537 75.492 52.0977 76.404C52.8417 77.316 53.6937 78.108 54.6537 78.78C55.6137 79.452 56.5857 80.004 57.5697 80.436L55.3737 83.604ZM98.5186 65.28H102.947V98.652H98.5186V65.28ZM97.3666 97.068C95.5186 97.26 93.5386 97.428 91.4266 97.572C89.3386 97.716 87.2146 97.824 85.0546 97.896C82.8946 97.992 80.7466 98.064 78.6106 98.112C76.4746 98.16 74.4586 98.184 72.5626 98.184L71.9866 94.584C73.8586 94.56 75.8506 94.524 77.9626 94.476C80.0986 94.428 82.2466 94.368 84.4066 94.296C86.5666 94.224 88.7026 94.128 90.8146 94.008C92.9266 93.888 94.9186 93.744 96.7906 93.576L97.3666 97.068ZM94.0186 78.852C94.0186 82.044 93.2026 84.384 91.5706 85.872C89.9386 87.36 87.5146 88.104 84.2986 88.104C81.0826 88.104 78.6466 87.36 76.9906 85.872C75.3586 84.384 74.5426 82.044 74.5426 78.852V74.64C74.5426 71.448 75.3586 69.108 76.9906 67.62C78.6466 66.132 81.0826 65.388 84.2986 65.388C87.5146 65.388 89.9386 66.132 91.5706 67.62C93.2026 69.108 94.0186 71.448 94.0186 74.64V78.852ZM89.5546 74.496C89.5546 73.464 89.4226 72.6 89.1586 71.904C88.9186 71.184 88.5586 70.62 88.0786 70.212C87.6226 69.78 87.0706 69.48 86.4226 69.312C85.7986 69.12 85.0906 69.024 84.2986 69.024C83.5066 69.024 82.7866 69.12 82.1386 69.312C81.4906 69.48 80.9266 69.78 80.4466 70.212C79.9906 70.62 79.6306 71.184 79.3666 71.904C79.1266 72.6 79.0066 73.464 79.0066 74.496V78.996C79.0066 80.052 79.1266 80.928 79.3666 81.624C79.6306 82.32 79.9906 82.884 80.4466 83.316C80.9266 83.724 81.4906 84.024 82.1386 84.216C82.7866 84.384 83.5066 84.468 84.2986 84.468C85.0906 84.468 85.7986 84.384 86.4226 84.216C87.0706 84.024 87.6226 83.724 88.0786 83.316C88.5586 82.884 88.9186 82.32 89.1586 81.624C89.4226 80.928 89.5546 80.052 89.5546 78.996V74.496ZM119.876 81.336C119.876 79.608 120.548 78.24 121.892 77.232C123.26 76.2 125.36 75.684 128.192 75.684C131.024 75.684 133.124 76.188 134.492 77.196C135.86 78.204 136.544 79.584 136.544 81.336C136.544 83.088 135.86 84.468 134.492 85.476C133.124 86.484 131.024 86.988 128.192 86.988C125.36 86.988 123.26 86.484 121.892 85.476C120.548 84.444 119.876 83.064 119.876 81.336ZM151.628 79.212H146.516V90.12H142.088V65.28H146.516V75.576H151.628V79.212ZM125.096 88.464V94.656H147.056V98.292H120.632V88.464H125.096ZM118.508 74.244V70.644H137.912V74.244H118.508ZM122.468 68.988V65.388H133.916V68.988H122.468ZM132.152 81.336C132.152 81.048 132.092 80.772 131.972 80.508C131.852 80.244 131.636 80.016 131.324 79.824C131.012 79.632 130.604 79.488 130.1 79.392C129.596 79.272 128.96 79.212 128.192 79.212C126.752 79.212 125.732 79.416 125.132 79.824C124.556 80.208 124.268 80.7 124.268 81.3C124.268 81.924 124.556 82.44 125.132 82.848C125.732 83.256 126.752 83.46 128.192 83.46C128.96 83.46 129.596 83.412 130.1 83.316C130.604 83.196 131.012 83.04 131.324 82.848C131.636 82.656 131.852 82.44 131.972 82.2C132.092 81.936 132.152 81.648 132.152 81.336ZM169.285 74.064C169.285 79.848 168.145 84.708 165.865 88.644C163.609 92.58 160.093 95.7 155.317 98.004L153.085 94.764C154.933 93.9 156.577 92.808 158.017 91.488C159.481 90.144 160.705 88.644 161.689 86.988C162.697 85.308 163.465 83.508 163.993 81.588C164.521 79.668 164.785 77.676 164.785 75.612V69.384H154.813V65.748H169.285V74.064ZM173.965 65.568H178.285V98.184H173.965V88.752H169.573V85.116H173.965V76.872H170.653V73.236H173.965V65.568ZM185.089 65.28V98.652H180.733V65.28H185.089ZM214.626 90.444V89.184H191.046V85.728H219.054V93.9H195.51V95.196H219.774V98.652H191.046V90.444H214.626ZM221.322 80.724V84.288H188.706V80.724H221.322ZM214.41 70.68V69.276H191.262V65.748H218.838V74.208H195.726V75.648H219.558V79.176H191.262V70.68H214.41ZM258.772 89.76V88.068H237.316V84.504H263.2V93.324H241.78V95.088H263.74V98.652H237.316V89.76H258.772ZM234.76 73.92C234.76 72.48 235.012 71.232 235.516 70.176C236.02 69.096 236.692 68.208 237.532 67.512C238.396 66.792 239.392 66.264 240.52 65.928C241.672 65.568 242.884 65.388 244.156 65.388C245.428 65.388 246.628 65.568 247.756 65.928C248.908 66.264 249.916 66.792 250.78 67.512C251.644 68.208 252.328 69.096 252.832 70.176C253.336 71.232 253.588 72.48 253.588 73.92C253.588 75.36 253.336 76.608 252.832 77.664C252.328 78.72 251.644 79.608 250.78 80.328C249.916 81.024 248.908 81.54 247.756 81.876C246.628 82.212 245.428 82.38 244.156 82.38C242.884 82.38 241.672 82.212 240.52 81.876C239.392 81.516 238.396 80.988 237.532 80.292C236.692 79.596 236.02 78.72 235.516 77.664C235.012 76.608 234.76 75.36 234.76 73.92ZM268.312 75.216H263.2V82.884H258.772V65.28H263.2V71.58H268.312V75.216ZM249.196 73.92C249.196 72.288 248.716 71.076 247.756 70.284C246.82 69.492 245.62 69.096 244.156 69.096C243.46 69.096 242.8 69.192 242.176 69.384C241.576 69.576 241.048 69.876 240.592 70.284C240.16 70.668 239.812 71.16 239.548 71.76C239.284 72.36 239.152 73.068 239.152 73.884C239.152 74.724 239.284 75.444 239.548 76.044C239.812 76.644 240.16 77.136 240.592 77.52C241.048 77.904 241.576 78.192 242.176 78.384C242.8 78.576 243.46 78.672 244.156 78.672C245.62 78.672 246.82 78.288 247.756 77.52C248.716 76.752 249.196 75.552 249.196 73.92ZM272.649 69.348V65.748H300.225V88.104H295.797V69.348H272.649ZM282.009 94.296V80.256H286.473V94.296H302.745V97.932H270.093V94.296H282.009ZM325.111 95.016L324.571 90.696L329.035 90.192L329.611 95.016H337.171L337.783 90.192L342.247 90.696L341.671 95.016H347.827V98.652H319.063V95.016H325.111ZM334.831 82.884C333.391 82.284 331.987 81.408 330.619 80.256C329.251 79.08 328.027 77.556 326.947 75.684C325.987 77.412 324.799 78.948 323.383 80.292C321.967 81.636 320.359 82.728 318.559 83.568L316.255 80.508C317.503 79.908 318.631 79.212 319.639 78.42C320.671 77.604 321.547 76.716 322.267 75.756C323.011 74.772 323.575 73.716 323.959 72.588C324.367 71.46 324.571 70.272 324.571 69.024V65.568H329.071V68.88C329.071 70.248 329.299 71.496 329.755 72.624C330.211 73.752 330.811 74.772 331.555 75.684C332.299 76.596 333.151 77.388 334.111 78.06C335.071 78.732 336.043 79.284 337.027 79.716L334.831 82.884ZM347.467 85.764V89.4H319.423V85.764H347.467ZM342.679 65.28H347.107V84.324H342.679V65.28ZM352.56 65.748H371.46V69.384H357.024V94.404H372.18V98.004H352.56V65.748ZM384.996 82.056H379.884V98.652H375.456V65.28H379.884V78.384H384.996V82.056ZM406.252 65.748V83.424H388.216V65.748H406.252ZM417.7 65.28V90.12H413.272V79.716H407.836V76.044H413.272V72.768H407.836V69.096H413.272V65.28H417.7ZM394.12 86.664V94.656H418.24V98.292H389.656V86.664H394.12ZM392.644 79.86H401.824V69.312H392.644V79.86ZM427.545 84.036C427.545 82.884 427.713 81.804 428.049 80.796C428.409 79.764 429.045 78.708 429.957 77.628C430.797 76.62 431.481 75.744 432.009 75C432.537 74.232 432.801 73.44 432.801 72.624C432.801 71.784 432.537 71.1 432.009 70.572C431.505 70.02 430.797 69.744 429.885 69.744C429.045 69.744 428.193 69.996 427.329 70.5C426.489 71.004 425.685 71.736 424.917 72.696L422.649 69.672C424.761 67.296 427.281 66.108 430.209 66.108C431.385 66.108 432.417 66.276 433.305 66.612C434.217 66.948 434.973 67.404 435.573 67.98C436.173 68.532 436.617 69.18 436.905 69.924C437.217 70.644 437.373 71.4 437.373 72.192C437.373 72.84 437.265 73.476 437.049 74.1C436.833 74.7 436.545 75.288 436.185 75.864C435.825 76.44 435.417 77.004 434.961 77.556C434.529 78.108 434.085 78.648 433.629 79.176C432.861 80.04 432.345 80.832 432.081 81.552C431.817 82.272 431.685 83.112 431.685 84.072V90.084H427.545V84.036ZM431.937 93.252V98.004H427.329V93.252H431.937Z" fill="#410A0A"/>
</svg>
