<svg width="228" height="58" viewBox="0 0 228 58" fill="none" xmlns="http://www.w3.org/2000/svg">
<g filter="url(#filter0_ii_817_4636)">
<rect width="228" height="58" rx="8" fill="#F5A324"/>
<path d="M58.8965 29.0295V30.4435H66.4845V29.0295H68.2065V34.5315H57.1605V29.0295H58.8965ZM62.4385 21.7355V27.9935H56.5025V21.7355H62.4385ZM66.5265 21.5535H68.2065V28.3995H66.5265V25.4175H65.1545V28.2595H63.4745V21.6515H65.1545V24.0035H66.5265V21.5535ZM58.8965 33.1455H66.4845V31.8295H58.8965V33.1455ZM58.1685 26.6215H60.7585V23.1075H58.1685V26.6215ZM76.613 24.8575C76.613 26.0802 76.473 27.1722 76.193 28.1335C75.913 29.0948 75.5117 29.9582 74.989 30.7235C74.4757 31.4795 73.8504 32.1468 73.113 32.7255C72.3757 33.3042 71.545 33.8175 70.621 34.2655L69.767 33.0195C70.4857 32.6742 71.153 32.2635 71.769 31.7875C72.3944 31.3022 72.931 30.7422 73.379 30.1075C73.8364 29.4728 74.1957 28.7542 74.457 27.9515C74.7184 27.1488 74.849 26.2482 74.849 25.2495V23.1495H70.201V21.7355H76.613V24.8575ZM79.931 21.5535H81.653V34.5315H79.931V21.5535ZM88.1529 34.2795V27.2095H92.0869V23.1635H88.1249V21.7355H93.8369V28.6375H89.8889V32.8795H94.6069V34.2795H88.1529ZM95.5449 21.6655H97.2249V34.3495H95.5449V28.3575H94.2709V26.9435H95.5449V21.6655ZM99.8709 21.5535V34.5315H98.1769V21.5535H99.8709ZM111.861 31.0595V30.4155H102.537V29.0295H113.583V32.4455H104.273V33.1455H113.793V34.5315H102.537V31.0595H111.861ZM109.271 24.0035V21.6515H110.951V28.2595H109.271V25.4175H107.801V27.9795H101.879V21.7355H103.601V23.6535H106.079V21.7355H107.801V24.0035H109.271ZM113.583 21.5535V28.3995H111.903V21.5535H113.583ZM103.601 25.0675V26.5935H106.079V25.0675H103.601ZM131.227 29.5895V34.5315H120.321V29.5895H131.227ZM126.215 22.6035C126.215 23.3595 126.071 24.0642 125.781 24.7175C125.501 25.3708 125.1 25.9682 124.577 26.5095C124.055 27.0415 123.42 27.5175 122.673 27.9375C121.936 28.3482 121.115 28.6982 120.209 28.9875L119.397 27.6855C120.023 27.4988 120.625 27.2562 121.203 26.9575C121.791 26.6588 122.309 26.3182 122.757 25.9355C123.215 25.5435 123.588 25.1142 123.877 24.6475C124.167 24.1715 124.335 23.6675 124.381 23.1355H119.887V21.7215H126.215V22.6035ZM131.227 21.5535V29.0995H129.505V25.7535H126.691V24.3255H129.505V21.5535H131.227ZM122.057 33.1455H129.505V30.9755H122.057V33.1455ZM140.054 34.2375C139.428 33.8175 138.836 33.3088 138.276 32.7115C137.725 32.1142 137.272 31.4515 136.918 30.7235C136.544 31.4608 136.068 32.1468 135.49 32.7815C134.911 33.4255 134.3 33.9575 133.656 34.3775L132.634 33.2295C133.707 32.5575 134.542 31.7408 135.14 30.7795C135.746 29.8088 136.05 28.7308 136.05 27.5455V21.6655H137.8V27.5455C137.8 28.7588 138.075 29.8182 138.626 30.7235C139.186 31.6288 140.002 32.4175 141.076 33.0895L140.054 34.2375ZM145.962 28.0775H143.974V34.5315H142.252V21.5535H143.974V26.6495H145.962V28.0775ZM154.088 30.5415C154.088 31.8108 153.813 32.7722 153.262 33.4255C152.712 34.0882 151.82 34.4195 150.588 34.4195C149.356 34.4195 148.46 34.0882 147.9 33.4255C147.35 32.7722 147.074 31.8108 147.074 30.5415V29.9675C147.074 28.6982 147.35 27.7368 147.9 27.0835C148.46 26.4208 149.356 26.0895 150.588 26.0895C151.82 26.0895 152.712 26.4208 153.262 27.0835C153.813 27.7368 154.088 28.6982 154.088 29.9675V30.5415ZM159.688 28.0775H157.7V34.5315H155.978V21.5535H157.7V26.6495H159.688V28.0775ZM152.352 29.9115C152.352 29.0902 152.212 28.4835 151.932 28.0915C151.652 27.6995 151.204 27.5035 150.588 27.5035C149.972 27.5035 149.52 27.6995 149.23 28.0915C148.95 28.4835 148.81 29.0902 148.81 29.9115V30.5975C148.81 31.4188 148.95 32.0255 149.23 32.4175C149.52 32.8095 149.972 33.0055 150.588 33.0055C151.204 33.0055 151.652 32.8095 151.932 32.4175C152.212 32.0255 152.352 31.4188 152.352 30.5975V29.9115ZM146.878 25.3475V23.9195H154.424V25.3475H146.878ZM148.278 23.0235V21.5955H153.01V23.0235H148.278ZM167.367 24.8575C167.367 26.0802 167.227 27.1722 166.947 28.1335C166.667 29.0948 166.266 29.9582 165.743 30.7235C165.23 31.4795 164.604 32.1468 163.867 32.7255C163.13 33.3042 162.299 33.8175 161.375 34.2655L160.521 33.0195C161.24 32.6742 161.907 32.2635 162.523 31.7875C163.148 31.3022 163.685 30.7422 164.133 30.1075C164.59 29.4728 164.95 28.7542 165.211 27.9515C165.472 27.1488 165.603 26.2482 165.603 25.2495V23.1495H160.955V21.7355H167.367V24.8575ZM170.685 21.5535H172.407V34.5315H170.685V21.5535Z" fill="white"/>
</g>
<defs>
<filter id="filter0_ii_817_4636" x="-5" y="-5" width="238" height="68" filterUnits="userSpaceOnUse" color-interpolation-filters="sRGB">
<feFlood flood-opacity="0" result="BackgroundImageFix"/>
<feBlend mode="normal" in="SourceGraphic" in2="BackgroundImageFix" result="shape"/>
<feColorMatrix in="SourceAlpha" type="matrix" values="0 0 0 0 0 0 0 0 0 0 0 0 0 0 0 0 0 0 127 0" result="hardAlpha"/>
<feMorphology radius="5" operator="erode" in="SourceAlpha" result="effect1_innerShadow_817_4636"/>
<feOffset dx="-5" dy="-5"/>
<feGaussianBlur stdDeviation="4"/>
<feComposite in2="hardAlpha" operator="arithmetic" k2="-1" k3="1"/>
<feColorMatrix type="matrix" values="0 0 0 0 0 0 0 0 0 0 0 0 0 0 0 0 0 0 0.15 0"/>
<feBlend mode="normal" in2="shape" result="effect1_innerShadow_817_4636"/>
<feColorMatrix in="SourceAlpha" type="matrix" values="0 0 0 0 0 0 0 0 0 0 0 0 0 0 0 0 0 0 127 0" result="hardAlpha"/>
<feMorphology radius="5" operator="erode" in="SourceAlpha" result="effect2_innerShadow_817_4636"/>
<feOffset dx="5" dy="5"/>
<feGaussianBlur stdDeviation="4"/>
<feComposite in2="hardAlpha" operator="arithmetic" k2="-1" k3="1"/>
<feColorMatrix type="matrix" values="0 0 0 0 1 0 0 0 0 1 0 0 0 0 1 0 0 0 0.15 0"/>
<feBlend mode="normal" in2="effect1_innerShadow_817_4636" result="effect2_innerShadow_817_4636"/>
</filter>
</defs>
</svg>
