<svg width="228" height="228" viewBox="0 0 228 228" fill="none" xmlns="http://www.w3.org/2000/svg">
<mask id="mask0_1100_6721" style="mask-type:alpha" maskUnits="userSpaceOnUse" x="0" y="0" width="228" height="228">
<circle cx="114" cy="114" r="114" fill="white"/>
</mask>
<g mask="url(#mask0_1100_6721)">
<path d="M139.659 100.754C141.846 104.426 143.265 108.697 143.649 113.4C143.666 113.582 143.683 113.749 143.699 113.931C144.968 132.078 135.853 154.927 123.449 169.169C113.9 180.153 87.8409 199.562 80.3619 195.292C74.3854 191.868 82.1148 184.523 85.8209 164.582C90.4118 139.888 84.3351 138.21 83.4837 113.931C83.3501 110.043 84.1181 107.068 85.4536 104.044C85.4536 104.044 98.8924 90.002 113.516 89.0548C128.141 88.1076 136.02 95.2698 139.659 100.754Z" fill="#E2DDDD"/>
<path d="M137.857 101.817C143.549 111.638 142.147 123.785 139.326 134.304C136.504 144.823 131.396 155.625 124.551 164.565C119.36 171.362 112.682 177.062 105.837 182.13C102.181 184.839 98.3917 187.415 94.4018 189.625C91.3969 191.303 88.1916 192.965 84.7693 193.63C83.7843 193.829 82.7159 193.929 81.8645 193.679C81.2635 193.497 80.6125 192.948 80.4288 192.599C80.2118 192.167 80.2285 191.237 80.3954 190.373C80.6625 188.993 81.1467 187.631 81.6141 186.301C85.1366 176.248 88.1415 166.327 89.2433 155.658C90.1114 147.3 88.8761 139.456 87.4237 131.247C86.5389 126.262 85.9546 121.26 85.6875 116.224C85.5205 113.067 85.5539 110.059 86.5389 107.018C86.9395 105.805 86.9395 105.489 87.7909 104.659C93.517 99.1581 100.545 94.2559 108.241 92.0789C117.323 89.5032 128.041 91.4142 134.852 98.1444C135.987 99.2578 136.989 100.471 137.873 101.784C139.359 103.994 142.982 101.917 141.479 99.6898C136.254 91.9128 127.79 87.5423 118.458 86.9441C107.39 86.2295 97.5069 91.2647 89.1098 97.9948C87.407 99.3575 85.387 100.82 84.0014 102.565C82.2986 104.708 81.7477 108.331 81.4973 110.99C81.1968 114.33 81.564 117.77 81.8645 121.093C82.6825 130.05 85.3035 138.858 85.4538 147.865C85.6374 159.563 82.6658 171.212 78.7093 182.147C76.9731 186.949 73.3672 195.042 80.3454 197.518C83.2001 198.532 86.4888 197.651 89.2099 196.654C93.3334 195.125 97.1897 192.948 100.879 190.589C108.859 185.504 116.522 179.505 123.066 172.675C130.962 164.432 136.738 154.163 140.745 143.544C144.751 132.925 147.639 119.98 145.035 108.497C144.334 105.39 143.099 102.432 141.496 99.6732C140.16 97.3634 136.555 99.4406 137.89 101.767L137.857 101.817Z" fill="#E2DDDD"/>
<path d="M139.476 91.3643C133.867 89.1043 129.293 80.513 118.291 78.5853C118.692 75.5609 118.775 71.5228 119.259 64.9588C119.977 55.2208 116.672 56.2013 115.37 56.2511C114.218 56.301 108.692 56.9657 109.51 60.2061C110.195 62.8982 109.744 74.7799 109.577 78.7515C105.72 79.4494 100.679 81.1112 96.4051 85.0164C88.5589 92.1952 86.806 96.1004 81.4138 96.8814C78.893 97.247 75.6042 96.6321 75.1201 98.0945C74.636 99.5568 77.908 103.744 88.4754 103.711C100.812 103.661 109.66 99.9058 115.503 93.7074C115.503 93.7074 120.311 101.468 133.566 101.318C146.821 101.169 149.993 95.3526 149.943 92.4611C149.893 89.553 145.553 93.7739 139.509 91.3477L139.476 91.3643Z" fill="#AFA4A4"/>
<path d="M140.528 89.5697C137.139 88.124 134.618 85.1826 131.797 82.906C127.957 79.8151 123.734 77.5052 118.842 76.5747L120.378 78.5854C121.029 73.3342 121.43 67.8171 121.43 62.5327C121.43 59.5748 121.029 55.2209 117.557 54.2903C115.37 53.6921 112.398 54.4067 110.462 55.3206C108.809 56.1017 107.39 57.5308 107.34 59.4584C107.307 61.0205 107.724 62.649 107.757 64.2443C107.874 69.0801 107.691 73.9324 107.474 78.7682L109.009 76.7574C105.42 77.4388 101.914 78.6851 98.8093 80.6128C95.4537 82.7066 92.6658 85.6147 89.928 88.4397C88.0749 90.3341 86.272 92.5443 83.9515 93.8903C81.4974 95.3028 78.8097 94.6547 76.1553 95.1865C73.9517 95.6185 72.4659 97.4132 73.2004 99.64C73.7513 101.302 75.2872 102.548 76.7563 103.396C82.7161 106.802 90.8128 106.171 97.3068 105.107C104.736 103.894 111.747 100.67 116.972 95.2197L113.7 94.8043C117.573 100.969 126.021 103.379 132.865 103.445C139.71 103.512 151.847 101.568 152.03 92.7603C152.08 90.6498 150.661 89.2706 148.558 89.3869C147.456 89.4534 146.404 89.819 145.319 89.9851C143.483 90.251 141.797 90.035 140.061 89.4035C137.54 88.4729 136.455 92.4944 138.959 93.4084C141.73 94.4221 144.468 94.3888 147.322 93.8238C147.523 93.7906 148.725 93.6743 148.808 93.5247C148.842 93.4748 148.057 92.5775 147.857 92.6772C147.773 92.7104 147.823 93.2256 147.64 93.641C146.388 96.6821 142.448 98.161 139.192 98.7925C133.6 99.8727 127.189 99.5403 122.114 96.7485C120.712 95.9841 119.427 95.0535 118.308 93.9069C118.124 93.7241 117.256 92.7104 117.59 93.1425C117.473 93.0096 117.373 92.86 117.29 92.7104C116.589 91.5971 114.969 91.2979 114.018 92.295C110.228 96.25 105.47 98.859 100.195 100.255C94.2518 101.834 87.0232 102.598 81.0634 100.753C79.5943 100.305 78.1419 99.3907 77.2905 98.5599C77.0067 98.294 77.1903 98.294 77.157 98.3272C77.4241 98.1943 76.6561 99.1082 76.8231 99.3077C76.8732 99.3575 78.4925 99.1747 78.6761 99.1747C79.5943 99.1581 80.5125 99.1249 81.414 99.0252C85.888 98.4768 88.9096 95.5354 91.8979 92.4445C94.5356 89.7192 97.1565 86.7447 100.328 84.6342C103.3 82.6567 106.639 81.4769 110.128 80.8288C111.046 80.646 111.63 79.6822 111.664 78.818C111.864 74.298 112.031 69.7614 111.964 65.2248C111.964 64.1114 111.931 62.998 111.831 61.8846C111.781 61.3196 111.347 60.1896 111.53 59.7077C111.881 58.8103 113.968 58.5278 114.869 58.4115C115.236 58.3617 115.604 58.345 115.971 58.3284C116.605 58.2952 116.255 58.2121 116.605 58.3783C116.305 58.2287 116.622 58.3284 116.789 58.8103C117.089 59.6578 117.19 60.522 117.24 61.4193C117.407 64.7262 116.939 68.0996 116.755 71.3899C116.622 73.7995 116.505 76.2257 116.205 78.6186C116.104 79.4495 116.922 80.4632 117.74 80.6294C122.448 81.5101 126.371 83.7701 129.994 86.8278C132.648 89.0712 135.169 91.8131 138.424 93.1923C140.862 94.2226 142.999 90.6498 140.528 89.6029V89.5697Z" fill="#AFA4A4"/>
<path d="M103.183 143.743C108.327 143.743 112.498 136.117 112.498 126.71C112.498 117.303 108.327 109.677 103.183 109.677C98.0378 109.677 93.8672 117.303 93.8672 126.71C93.8672 136.117 98.0378 143.743 103.183 143.743Z" fill="#E2DDDD"/>
<path d="M110.728 126.71C110.678 131.413 109.793 138.06 105.637 141.101C101.947 143.81 98.7586 139.556 97.4397 136.448C95.186 131.097 95.0692 124.6 96.7052 119.066C97.6067 116.041 100.378 109.959 104.602 111.721C106.655 112.585 107.99 114.828 108.859 116.773C110.227 119.897 110.712 123.337 110.745 126.727C110.762 128.987 114.301 129.003 114.284 126.727C114.234 120.661 112.748 112.651 107.156 109.112C102.031 105.871 96.9222 109.959 94.6852 114.596C91.53 121.126 91.2629 129.452 93.6168 136.282C95.2695 141.084 99.4597 147.133 105.403 145.189C112.448 142.879 114.234 133.025 114.284 126.743C114.301 124.483 110.762 124.467 110.745 126.743L110.728 126.71Z" fill="#AFA4A4"/>
<path d="M107.791 127.401C110.624 126.374 111.604 121.942 109.98 117.5C108.356 113.059 104.743 110.29 101.91 111.317C99.0769 112.343 98.0968 116.776 99.7208 121.217C101.345 125.659 104.958 128.427 107.791 127.401Z" fill="#AFA4A4"/>
<path d="M123.783 143.743C128.928 143.743 133.098 136.117 133.098 126.71C133.098 117.303 128.928 109.677 123.783 109.677C118.638 109.677 114.468 117.303 114.468 126.71C114.468 136.117 118.638 143.743 123.783 143.743Z" fill="#E2DDDD"/>
<path d="M131.329 126.71C131.279 131.413 130.394 138.06 126.237 141.101C122.548 143.81 119.359 139.556 118.04 136.448C115.787 131.097 115.67 124.6 117.306 119.066C118.207 116.041 120.979 109.959 125.202 111.721C127.256 112.585 128.591 114.828 129.459 116.773C130.828 119.897 131.312 123.337 131.346 126.727C131.362 128.987 134.901 129.003 134.885 126.727C134.835 120.661 133.349 112.651 127.756 109.112C122.631 105.871 117.523 109.959 115.286 114.596C112.131 121.126 111.863 129.452 114.217 136.282C115.87 141.084 120.06 147.133 126.003 145.189C133.048 142.879 134.835 133.025 134.885 126.743C134.901 124.483 131.362 124.467 131.346 126.743L131.329 126.71Z" fill="#AFA4A4"/>
<path d="M128.401 127.416C131.235 126.39 132.215 121.957 130.591 117.516C128.967 113.074 125.353 110.306 122.52 111.332C119.687 112.359 118.707 116.791 120.331 121.233C121.955 125.674 125.568 128.443 128.401 127.416Z" fill="#AFA4A4"/>
<path d="M94.5016 41.3284C89.0593 50.0195 89.0593 61.4192 94.5016 70.1269C95.9206 72.3869 99.5266 70.3097 98.1076 68.033C93.4165 60.5385 93.4165 50.9168 98.1076 43.4389C99.5266 41.1622 95.9206 39.0684 94.5016 41.345V41.3284Z" fill="#AFA4A4"/>
<path d="M82.0146 34.9803C74.1683 47.5266 74.1683 63.9449 82.0146 76.4747C83.4336 78.7347 87.0395 76.6575 85.6205 74.3808C78.5255 63.0476 78.5255 48.424 85.6205 37.0741C87.0395 34.7975 83.4336 32.7037 82.0146 34.9803Z" fill="#AFA4A4"/>
<path d="M135.637 70.1269C141.079 61.4358 141.079 50.0361 135.637 41.3284C134.218 39.0684 130.612 41.1456 132.031 43.4222C136.722 50.9168 136.722 60.5385 132.031 68.0164C130.612 70.293 134.218 72.3869 135.637 70.1103V70.1269Z" fill="#AFA4A4"/>
<path d="M148.124 76.4747C155.97 63.9283 155.97 47.51 148.124 34.9637C146.705 32.7037 143.099 34.7809 144.518 37.0575C151.613 48.4074 151.613 63.0309 144.518 74.3642C143.099 76.6408 146.705 78.7347 148.124 76.458V76.4747Z" fill="#AFA4A4"/>
</g>
<mask id="mask1_1100_6721" style="mask-type:alpha" maskUnits="userSpaceOnUse" x="0" y="0" width="228" height="228">
<circle cx="114" cy="114" r="114" fill="white"/>
</mask>
<g mask="url(#mask1_1100_6721)">
</g>
</svg>
