<svg width="286" height="460" viewBox="0 0 286 460" fill="none" xmlns="http://www.w3.org/2000/svg">
<path d="M90.6421 417.048V419.416H100.45V420.92H95.4901V423.8H101.026V425.304H88.1461V423.8H93.7621V420.92H88.8981V415.544H98.5301V413.224H88.8981V411.688H100.274V417.048H90.6421ZM113.889 416.744V413.224H104.161V411.688H115.633V416.52C115.633 418.312 115.473 420.248 115.169 421.672H113.457C113.761 420.264 113.889 418.328 113.889 416.744ZM103.505 425.304V423.8H116.385V425.304H103.505ZM119.057 415.528C119.057 414.056 119.505 412.92 120.273 412.216C120.929 411.64 121.809 411.336 122.865 411.336C123.937 411.336 124.817 411.64 125.457 412.216C126.241 412.92 126.673 414.056 126.673 415.528C126.673 417.016 126.241 418.152 125.457 418.856C124.817 419.432 123.937 419.736 122.865 419.736C121.809 419.736 120.929 419.432 120.273 418.856C119.505 418.152 119.057 417.016 119.057 415.528ZM120.753 415.528C120.753 416.504 120.993 417.224 121.441 417.688C121.793 418.04 122.273 418.232 122.865 418.232C123.457 418.232 123.937 418.04 124.305 417.688C124.737 417.224 124.977 416.504 124.977 415.528C124.977 414.568 124.737 413.832 124.305 413.384C123.937 413.032 123.457 412.84 122.865 412.84C122.273 412.84 121.793 413.032 121.441 413.384C120.993 413.832 120.753 414.568 120.753 415.528ZM130.977 421.592H129.233V411.432H130.977V421.592ZM131.233 426.008H120.129V421.08H121.873V424.504H131.233V426.008ZM134.816 413.736C134.816 413.128 135.056 412.664 135.52 412.312C136.416 411.656 138.144 411.416 140.688 411.416C143.248 411.416 144.96 411.656 145.84 412.312C146.304 412.664 146.544 413.128 146.544 413.736C146.544 414.328 146.304 414.792 145.84 415.144C144.96 415.8 143.248 416.04 140.688 416.04C138.144 416.04 136.416 415.8 135.52 415.144C135.056 414.792 134.816 414.328 134.816 413.736ZM136.56 413.736C136.56 413.912 136.656 414.072 136.848 414.216C137.36 414.52 138.64 414.632 140.688 414.632C142.736 414.632 144.016 414.52 144.528 414.216C144.72 414.072 144.816 413.912 144.816 413.736C144.816 413.544 144.72 413.384 144.528 413.256C144.016 412.936 142.736 412.824 140.688 412.824C138.64 412.824 137.36 412.936 136.848 413.256C136.656 413.384 136.56 413.544 136.56 413.736ZM134.128 418.568V417.128H147.2V418.568H134.128ZM136.816 423.624V424.68H146.576V426.088H135.088V422.232H144.512V421.16H135.088V419.752H146.256V423.624H136.816ZM160.608 414.6H154.32V413.096H156.624V411.016H158.384V413.096H160.608V414.6ZM156.288 420.456C156.288 422.12 156.496 423.096 156.912 423.528C157.072 423.688 157.28 423.784 157.52 423.784C157.744 423.784 157.952 423.704 158.128 423.56C158.544 423.144 158.752 422.152 158.752 420.456C158.752 418.792 158.56 417.8 158.16 417.384C157.984 417.208 157.76 417.128 157.52 417.128C157.248 417.128 157.024 417.224 156.832 417.448C156.48 417.912 156.288 418.856 156.288 420.456ZM154.624 420.456C154.624 418.328 155.024 416.856 155.936 416.152C156.336 415.816 156.864 415.64 157.52 415.64C158.176 415.64 158.704 415.832 159.136 416.184C160.016 416.904 160.432 418.36 160.432 420.456C160.432 422.6 160.016 424.056 159.088 424.76C158.688 425.08 158.16 425.24 157.52 425.24C156.88 425.24 156.368 425.08 155.968 424.776C155.024 424.072 154.624 422.616 154.624 420.456ZM166.544 425.944H164.88V418.728H163.424V425.768H161.808V411.528H163.424V417.208H164.88V411.432H166.544V425.944ZM175.583 418.296C175.583 415.992 175.407 414.312 174.831 413.544C174.527 413.144 174.079 412.936 173.567 412.936C173.039 412.936 172.591 413.144 172.303 413.544C171.695 414.312 171.551 415.992 171.551 418.296C171.551 420.6 171.695 422.28 172.303 423.064C172.591 423.432 173.039 423.64 173.567 423.64C174.079 423.64 174.527 423.432 174.831 423.064C175.407 422.28 175.583 420.6 175.583 418.296ZM169.823 418.296C169.823 415.672 170.079 413.704 170.991 412.568C171.599 411.832 172.479 411.432 173.567 411.432C174.639 411.432 175.535 411.832 176.127 412.568C177.055 413.704 177.311 415.672 177.311 418.296C177.311 420.92 177.055 422.888 176.127 424.024C175.535 424.76 174.639 425.128 173.567 425.128C172.479 425.128 171.599 424.76 170.991 424.024C170.079 422.888 169.823 420.92 169.823 418.296ZM181.327 411.432V415.128H183.567V416.664H181.327V419.88H183.567V421.4H181.327V425.944H179.583V411.432H181.327ZM192.239 419.464H185.151V411.608H192.239V419.464ZM190.559 417.992V413.112H186.863V417.992H190.559ZM196.687 411.432V415.384H198.799V416.92H196.687V421.592H194.943V411.432H196.687ZM187.711 421.08V424.504H196.959V426.008H185.983V421.08H187.711ZM62.6384 451.968H56.1264V444.496H61.1824V440.224H56.1264V438.688H62.8944V446.016H57.8544V450.448H62.9744C64.3024 450.448 65.3584 450.16 65.9664 449.616V438.432H67.7104V452.944H65.9664V451.056C65.3904 451.632 64.1424 451.968 62.6384 451.968ZM73.4858 440.816H81.3738V438.608H83.1178V446.048H71.7418V438.608H73.4858V440.816ZM81.3738 444.56V442.304H73.4858V444.56H81.3738ZM70.9898 449.392V447.872H83.8698V449.392H81.1018V453.088H79.3898V449.392H75.5338V453.088H73.8218V449.392H70.9898ZM91.1974 440.112V438.608H98.7014V440.112H95.8214V440.832C95.8214 443.296 97.1494 444.464 98.9574 444.864V446.4C97.2294 446.096 95.7414 445.184 94.9894 443.952C94.2214 445.2 92.7174 446.288 90.9414 446.592V445.024C92.7974 444.64 94.0774 443.328 94.0774 440.832V440.112H91.1974ZM102.733 438.432V441.84H104.845V443.36H102.733V446.816H100.989V438.432H102.733ZM91.8374 447.76H102.733V453.184H100.989V449.28H91.8374V447.76ZM111.181 438.528V440.32C111.181 442.832 112.573 444.128 114.429 444.688V446.224C112.605 445.84 111.085 444.816 110.333 443.6C109.645 444.864 108.109 445.952 106.221 446.4V444.864C108.125 444.256 109.453 442.768 109.453 440.32V438.528H111.181ZM118.477 446.704H116.733V442.56H113.565V441.072H116.733V438.432H118.477V446.704ZM113.117 453.28C111.453 453.28 109.805 453.056 108.701 452.368C107.933 451.888 107.437 451.168 107.437 450.192C107.437 449.216 107.933 448.496 108.701 448.016C109.805 447.344 111.453 447.104 113.117 447.104C114.781 447.104 116.445 447.344 117.533 448.016C118.301 448.496 118.813 449.216 118.813 450.192C118.813 451.168 118.301 451.888 117.533 452.368C116.445 453.056 114.781 453.28 113.117 453.28ZM113.117 448.592C111.805 448.592 110.525 448.752 109.789 449.2C109.405 449.456 109.165 449.776 109.165 450.192C109.165 450.608 109.405 450.928 109.789 451.168C110.525 451.616 111.805 451.792 113.117 451.792C114.445 451.792 115.725 451.616 116.445 451.168C116.829 450.928 117.069 450.608 117.069 450.192C117.069 449.776 116.829 449.456 116.445 449.2C115.725 448.752 114.445 448.592 113.117 448.592ZM122.316 440.736C122.316 440.128 122.556 439.664 123.02 439.312C123.916 438.656 125.644 438.416 128.188 438.416C130.748 438.416 132.46 438.656 133.34 439.312C133.804 439.664 134.044 440.128 134.044 440.736C134.044 441.328 133.804 441.792 133.34 442.144C132.46 442.8 130.748 443.04 128.188 443.04C125.644 443.04 123.916 442.8 123.02 442.144C122.556 441.792 122.316 441.328 122.316 440.736ZM124.06 440.736C124.06 440.912 124.156 441.072 124.348 441.216C124.86 441.52 126.14 441.632 128.188 441.632C130.236 441.632 131.516 441.52 132.028 441.216C132.22 441.072 132.316 440.912 132.316 440.736C132.316 440.544 132.22 440.384 132.028 440.256C131.516 439.936 130.236 439.824 128.188 439.824C126.14 439.824 124.86 439.936 124.348 440.256C124.156 440.384 124.06 440.544 124.06 440.736ZM121.628 445.568V444.128H134.7V445.568H121.628ZM124.316 450.624V451.68H134.076V453.088H122.588V449.232H132.012V448.16H122.588V446.752H133.756V450.624H124.316ZM149.692 440.784H141.436V439.392H144.748V438.016H146.476V439.392H149.692V440.784ZM143.548 443.808C143.548 444.096 143.708 444.32 143.98 444.496C144.348 444.72 144.924 444.832 145.58 444.832C146.188 444.832 146.732 444.752 147.116 444.544C147.42 444.384 147.612 444.144 147.612 443.808C147.612 443.504 147.436 443.28 147.148 443.104C146.764 442.912 146.22 442.8 145.58 442.8C144.956 442.8 144.38 442.912 144.012 443.104C143.724 443.28 143.548 443.504 143.548 443.808ZM141.868 443.808C141.868 443.056 142.236 442.464 142.892 442.048C143.532 441.68 144.428 441.472 145.58 441.472C146.668 441.472 147.564 441.68 148.22 442.048C148.892 442.448 149.276 443.04 149.276 443.808C149.276 444.576 148.924 445.168 148.284 445.552C147.66 445.952 146.732 446.176 145.58 446.176C144.476 446.176 143.548 445.968 142.892 445.568C142.252 445.184 141.868 444.576 141.868 443.808ZM153.468 441.648H155.58V443.168H153.468V446.096H151.724V438.432H153.468V441.648ZM144.492 451.776H153.644V453.088H142.764V449.392H151.724V448.288H142.764V446.96H153.468V450.672H144.492V451.776ZM168.187 442.352C167.211 443.984 165.003 445.232 161.995 445.696V444.16C165.195 443.568 167.307 441.952 167.307 439.136V438.528H169.035V439.136C169.035 441.952 171.179 443.552 174.379 444.16V445.696C171.387 445.232 169.163 443.984 168.187 442.352ZM161.755 449.28V447.744H174.635V449.28H169.035V453.184H167.307V449.28H161.755ZM181.963 442.176C181.963 440.832 182.395 439.808 183.179 439.152C183.835 438.624 184.731 438.336 185.771 438.336C186.827 438.336 187.707 438.624 188.363 439.152C189.147 439.808 189.579 440.832 189.579 442.176C189.579 443.504 189.147 444.528 188.363 445.184C187.707 445.728 186.827 446 185.771 446C184.731 446 183.835 445.728 183.179 445.184C182.395 444.528 181.963 443.504 181.963 442.176ZM183.659 442.176C183.659 442.976 183.899 443.6 184.331 444C184.699 444.32 185.179 444.512 185.771 444.512C186.363 444.512 186.859 444.32 187.211 444C187.643 443.6 187.883 442.976 187.883 442.176C187.883 441.376 187.643 440.752 187.211 440.352C186.859 440.016 186.363 439.84 185.771 439.84C185.179 439.84 184.699 440.016 184.331 440.352C183.899 440.752 183.659 441.376 183.659 442.176ZM193.883 446.528H192.139V438.432H193.883V446.528ZM188.507 453.104C187.483 452.72 186.395 451.824 185.867 450.896C185.259 451.856 183.851 452.768 182.395 453.104V451.584C183.883 451.072 184.971 449.856 184.971 447.904V447.392H186.715V447.904C186.715 449.584 187.499 450.8 188.507 451.472C189.499 450.8 190.331 449.584 190.331 447.904V447.392H192.059V447.904C192.059 449.856 193.115 451.056 194.635 451.584V453.104C193.163 452.768 191.755 451.872 191.147 450.896C190.635 451.824 189.595 452.688 188.507 453.104ZM203.226 445.296C203.226 442.992 203.066 441.312 202.458 440.544C202.17 440.144 201.722 439.936 201.194 439.936C200.682 439.936 200.234 440.144 199.93 440.544C199.354 441.312 199.178 442.992 199.178 445.296C199.178 447.6 199.354 449.28 199.93 450.064C200.234 450.432 200.682 450.64 201.194 450.64C201.722 450.64 202.17 450.432 202.458 450.064C203.066 449.28 203.226 447.6 203.226 445.296ZM197.45 445.296C197.45 442.672 197.706 440.704 198.634 439.568C199.226 438.832 200.122 438.432 201.194 438.432C202.282 438.432 203.162 438.832 203.77 439.568C204.57 440.544 204.874 442.128 204.938 444.208H207.466V438.432H209.21V452.944H207.466V445.712H204.954C204.922 448.128 204.65 449.952 203.77 451.024C203.162 451.76 202.282 452.128 201.194 452.128C200.122 452.128 199.226 451.76 198.634 451.024C197.706 449.888 197.45 447.92 197.45 445.296ZM212.922 442.864C212.922 441.536 213.45 440.512 214.346 439.792C215.418 438.928 217.018 438.528 218.938 438.528C220.874 438.528 222.474 438.928 223.546 439.792C224.426 440.512 224.97 441.536 224.97 442.864C224.97 444.224 224.426 445.232 223.546 445.952C223.242 446.192 222.89 446.4 222.506 446.576V450.8H225.37V452.304H212.49V450.8H215.45V446.608C215.034 446.432 214.666 446.208 214.346 445.952C213.45 445.232 212.922 444.224 212.922 442.864ZM220.762 447.072C220.202 447.168 219.594 447.216 218.938 447.216C218.314 447.216 217.722 447.168 217.178 447.088V450.8H220.762V447.072ZM214.666 442.864C214.666 443.712 214.986 444.336 215.562 444.8C216.314 445.424 217.498 445.696 218.938 445.696C220.378 445.696 221.578 445.424 222.33 444.8C222.906 444.336 223.226 443.712 223.226 442.864C223.226 442.048 222.906 441.408 222.33 440.928C221.578 440.32 220.378 440.048 218.938 440.048C217.498 440.048 216.314 440.32 215.562 440.928C214.986 441.408 214.666 442.048 214.666 442.864ZM230.009 439.44V441.632L229.833 448.512H228.393L228.217 441.632V439.44H230.009ZM230.025 450.112V451.984H228.201V450.112H230.025Z" fill="#AFA4A4"/>
<path d="M188.97 177.576C188.944 177.292 188.919 177.008 188.919 176.724C188.327 169.425 186.142 162.823 182.774 157.123L142.795 134.22L99.2158 161.714C97.1076 166.408 96.0535 171.514 96.2592 177.55C97.5704 215.206 106.929 217.811 99.8329 256.137C94.1252 287.087 82.2214 298.487 91.4257 303.8C102.944 310.429 143.077 280.304 157.784 263.281C176.886 241.152 190.924 205.714 188.97 177.55V177.576Z" fill="#E2DDDD"/>
<path d="M192.184 177.576C191.901 172.933 191.027 168.316 189.458 163.932C188.379 160.914 186.99 156.272 184.368 154.337C182.414 152.893 180.023 151.861 177.94 150.649L151.742 135.638L144.414 131.434C143.437 130.867 142.152 130.815 141.175 131.434C127.42 140.1 113.665 148.792 99.9356 157.458C99.2157 157.922 98.4187 158.335 97.7245 158.851C95.5392 160.527 94.7164 164.138 94.0994 166.743C91.9655 175.641 93.2253 185.442 94.3308 194.418C95.8734 207.03 99.3443 219.436 99.2414 232.202C99.1129 249.328 94.9221 266.376 89.1888 282.419C86.6692 289.46 80.9101 300.705 89.1116 306.199C97.3132 311.692 109.5 304.445 116.596 300.422C128.808 293.484 140.198 284.714 150.533 275.223C174.032 253.635 189.664 221.525 192.081 189.62C192.389 185.597 192.415 181.599 192.158 177.576C191.901 173.552 185.473 173.423 185.73 177.576C186.759 193.695 182.954 209.841 177.04 224.749C171.127 239.656 163.26 253.016 152.59 264.236C143.694 273.572 133.462 281.8 122.792 288.996C117.547 292.529 112.122 295.856 106.363 298.487C102.918 300.06 98.4444 302.046 94.5622 301.531C92.1454 301.221 91.1427 299.854 91.2713 297.61C91.477 293.664 93.5338 289.305 94.8964 285.54C100.398 270.245 104.358 254.435 105.438 238.16C106.26 226.012 103.972 214.509 101.967 202.645C100.707 195.166 99.9099 187.609 99.5757 180.026C99.37 175.409 99.4728 170.921 100.861 166.485C100.861 166.511 101.761 163.184 100.861 164.551C100.861 164.499 100.964 164.499 100.99 164.474C101.17 164.241 101.632 164.112 101.864 163.932C104.641 161.74 108.06 160.037 111.042 158.129L125.594 148.947C131.868 144.975 138.141 141.029 144.414 137.057H141.175C149.402 141.777 157.629 146.471 165.857 151.191L179.2 158.825C179.689 159.109 180.254 159.341 180.691 159.676C180.794 159.754 180.974 159.805 181.077 159.908C180.408 159.238 180.846 159.857 181.051 160.631C181.385 161.972 182.414 163.39 182.928 164.68C183.442 165.969 183.905 167.388 184.291 168.781C185.088 171.669 185.602 174.61 185.782 177.601C186.039 181.728 192.467 181.754 192.209 177.601L192.184 177.576Z" fill="#E2DDDD"/>
<path d="M182.49 142.525C173.851 139.017 166.807 125.683 149.864 122.691C150.481 117.997 150.609 111.73 151.355 101.542C152.461 86.4279 147.37 87.9496 145.365 88.027C143.591 88.1044 135.08 89.136 136.34 94.1654C137.394 98.3436 136.7 116.785 136.443 122.949C130.504 124.032 122.74 126.611 116.158 132.672C104.074 143.814 101.374 149.875 93.0701 151.088C89.1878 151.655 84.1229 150.701 83.3773 152.97C82.6317 155.24 87.6709 161.74 103.945 161.688C122.945 161.611 136.572 155.782 145.57 146.161C145.57 146.161 152.975 158.206 173.389 157.974C193.803 157.742 198.687 148.715 198.61 144.227C198.533 139.714 191.849 146.265 182.541 142.499L182.49 142.525Z" fill="#AFA4A4"/>
<path d="M184.11 139.739C178.891 137.495 175.009 132.93 170.664 129.397C164.75 124.6 158.246 121.015 150.713 119.57L153.078 122.691C154.081 114.541 154.698 105.978 154.698 97.7762C154.698 93.1853 154.081 86.4279 148.733 84.9836C145.365 84.0551 140.789 85.1641 137.806 86.5827C135.261 87.7949 133.075 90.013 132.998 93.0048C132.947 95.4292 133.59 97.9568 133.641 100.433C133.821 107.938 133.538 115.469 133.204 122.975L135.569 119.854C130.042 120.911 124.643 122.846 119.86 125.838C114.693 129.087 110.399 133.601 106.183 137.985C103.329 140.926 100.552 144.356 96.9784 146.445C93.199 148.637 89.0597 147.632 84.9718 148.457C81.578 149.127 79.2898 151.913 80.4211 155.369C81.2695 157.948 83.6348 159.883 85.8973 161.198C95.0759 166.485 107.545 165.505 117.547 163.855C128.988 161.972 139.786 156.968 147.833 148.508L142.794 147.864C148.759 157.432 161.768 161.172 172.309 161.275C182.85 161.379 201.542 158.361 201.825 144.691C201.902 141.416 199.716 139.275 196.477 139.456C194.78 139.559 193.16 140.126 191.489 140.384C188.661 140.797 186.064 140.461 183.39 139.481C179.508 138.037 177.837 144.279 181.693 145.697C185.961 147.27 190.178 147.219 194.574 146.342C194.883 146.29 196.734 146.11 196.862 145.878C196.914 145.8 195.705 144.408 195.397 144.562C195.268 144.614 195.346 145.413 195.063 146.058C193.134 150.778 187.067 153.074 182.053 154.054C173.44 155.73 163.568 155.214 155.752 150.881C153.592 149.695 151.613 148.251 149.89 146.471C149.607 146.187 148.27 144.614 148.784 145.285C148.604 145.078 148.45 144.846 148.322 144.614C147.242 142.886 144.748 142.422 143.282 143.969C137.446 150.108 130.119 154.157 121.994 156.323C112.842 158.774 101.709 159.96 92.5306 157.097C90.2681 156.401 88.0313 154.982 86.72 153.693C86.283 153.28 86.5658 153.28 86.5144 153.332C86.9257 153.125 85.7431 154.544 86.0002 154.853C86.0773 154.931 88.5712 154.647 88.854 154.647C90.2681 154.621 91.6821 154.57 93.0705 154.415C99.9608 153.564 104.614 148.999 109.216 144.201C113.279 139.971 117.315 135.355 122.2 132.079C126.777 129.01 131.919 127.179 137.292 126.173C138.706 125.889 139.606 124.393 139.657 123.052C139.966 116.037 140.223 108.996 140.12 101.954C140.12 100.226 140.069 98.4984 139.914 96.7704C139.837 95.8935 139.169 94.1396 139.452 93.3917C139.992 91.9989 143.205 91.5605 144.594 91.3799C145.159 91.3025 145.725 91.2767 146.291 91.251C147.268 91.1994 146.728 91.0704 147.268 91.3283C146.805 91.0962 147.293 91.2509 147.55 91.9989C148.013 93.3143 148.167 94.6555 148.245 96.0482C148.502 101.181 147.782 106.416 147.499 111.523C147.293 115.263 147.113 119.029 146.65 122.743C146.496 124.032 147.756 125.605 149.016 125.863C156.266 127.23 162.308 130.738 167.887 135.484C171.975 138.966 175.857 143.221 180.871 145.362C184.624 146.961 187.915 141.416 184.11 139.791V139.739Z" fill="#AFA4A4"/>
<path d="M138.192 197.384C138.115 204.683 136.753 215 130.351 219.719C124.669 223.923 119.758 217.321 117.727 212.498C114.256 204.193 114.076 194.108 116.596 185.52C117.984 180.826 122.252 171.386 128.757 174.12C131.919 175.461 133.976 178.943 135.313 181.96C137.421 186.809 138.167 192.148 138.218 197.41C138.244 200.917 143.694 200.943 143.669 197.41C143.591 187.996 141.303 175.564 132.69 170.07C124.797 165.041 116.93 171.386 113.485 178.582C108.626 188.718 108.214 201.639 111.839 212.24C114.385 219.694 120.838 229.082 129.991 226.064C140.84 222.479 143.591 207.185 143.669 197.435C143.694 193.928 138.244 193.902 138.218 197.435L138.192 197.384Z" fill="#AFA4A4"/>
<path d="M126.571 207.056C129.951 207.056 132.69 202.725 132.69 197.384C132.69 192.042 129.951 187.712 126.571 187.712C123.192 187.712 120.452 192.042 120.452 197.384C120.452 202.725 123.192 207.056 126.571 207.056Z" fill="#AFA4A4"/>
<path d="M169.919 197.384C169.842 204.683 168.479 215 162.077 219.719C156.395 223.923 151.485 217.321 149.454 212.498C145.983 204.193 145.803 194.108 148.322 185.52C149.711 180.826 153.979 171.386 160.483 174.12C163.646 175.461 165.702 178.943 167.039 181.96C169.148 186.809 169.893 192.148 169.945 197.41C169.97 200.917 175.421 200.943 175.395 197.41C175.318 187.996 173.03 175.564 164.417 170.07C156.524 165.041 148.657 171.386 145.211 178.582C140.352 188.718 139.941 201.639 143.566 212.24C146.111 219.694 152.564 229.082 161.717 226.064C172.567 222.479 175.318 207.185 175.395 197.435C175.421 193.928 169.97 193.902 169.945 197.435L169.919 197.384Z" fill="#AFA4A4"/>
<path d="M158.323 207.056C161.703 207.056 164.442 202.725 164.442 197.384C164.442 192.042 161.703 187.712 158.323 187.712C154.944 187.712 152.204 192.042 152.204 197.384C152.204 202.725 154.944 207.056 158.323 207.056Z" fill="#AFA4A4"/>
<path d="M168.582 95.4035C173.827 93.9076 179.072 92.4117 184.316 90.9158L181.18 90.0905C184.908 93.8818 188.636 97.6732 192.364 101.49C193.161 102.29 194.421 102.651 195.5 102.316C202.159 100.278 208.792 98.2148 215.451 96.1773C219.385 94.9651 217.714 88.7493 213.755 89.9615C207.096 91.999 200.462 94.0624 193.803 96.0999L196.94 96.9253C193.212 93.1339 189.484 89.3425 185.756 85.5253C184.959 84.7258 183.725 84.3905 182.62 84.7C177.375 86.1959 172.13 87.6918 166.885 89.1877C162.926 90.3226 164.597 96.5384 168.582 95.4035Z" fill="#AFA4A4"/>
<path d="M162.18 78.3292C165.419 73.9446 168.659 69.5342 171.924 65.1496L168.299 66.6198C173.569 67.3419 178.814 68.0899 184.085 68.8121C185.653 69.0184 186.784 68.6315 187.71 67.3419C191.746 61.642 195.757 55.9678 199.794 50.2678C200.796 48.8493 200.051 46.6828 198.637 45.8575C197.017 44.9032 195.243 45.5995 194.24 47.0181C190.204 52.718 186.193 58.3922 182.156 64.0922L185.782 62.622C180.511 61.8999 175.266 61.1519 169.996 60.4298C168.401 60.1976 167.322 60.6361 166.37 61.8999C163.131 66.2845 159.891 70.6948 156.626 75.0794C155.598 76.4722 156.395 78.6903 157.783 79.4898C159.429 80.4441 161.151 79.7477 162.18 78.3292Z" fill="#AFA4A4"/>
<path d="M119.115 89.1875C113.87 87.6916 108.625 86.1957 103.38 84.6998C102.275 84.3903 101.041 84.6998 100.244 85.5251C96.5157 89.3165 92.7878 93.1079 89.0598 96.925L92.1964 96.0997C85.5375 94.0621 78.9043 91.9988 72.2453 89.9613C68.286 88.7491 66.5891 94.9648 70.5485 96.1771C77.2074 98.2146 83.8406 100.278 90.4996 102.315C91.5794 102.651 92.8392 102.29 93.6362 101.49C97.3642 97.6988 101.092 93.9074 104.82 90.0902L101.683 90.9156C106.928 92.4115 112.173 93.9074 117.418 95.4033C121.403 96.5381 123.1 90.3223 119.115 89.1875Z" fill="#AFA4A4"/>
<path d="M129.348 75.0797C126.108 70.6951 122.869 66.2847 119.603 61.9002C118.652 60.5848 117.547 60.1979 115.978 60.43C110.708 61.1522 105.463 61.9002 100.192 62.6223L103.817 64.0925C99.7809 58.3925 95.7701 52.7183 91.7336 47.0184C90.7309 45.5998 88.9312 44.9292 87.3372 45.8577C85.9489 46.6831 85.1775 48.8496 86.1802 50.2681C90.2167 55.9681 94.2275 61.6422 98.264 67.3422C99.1896 68.6576 100.347 69.0445 101.889 68.8123C107.16 68.0902 112.405 67.3422 117.675 66.62L114.05 65.1499C117.29 69.5345 120.529 73.9449 123.794 78.3295C124.823 79.7222 126.571 80.4444 128.191 79.4901C129.553 78.6905 130.376 76.4983 129.348 75.0797Z" fill="#AFA4A4"/>
</svg>
