<svg width="227" height="78" viewBox="0 0 227 78" fill="none" xmlns="http://www.w3.org/2000/svg">
<path d="M30.4267 32.274C32.4865 35.8802 32.5256 40.119 31.8834 44.1365C31.2412 48.1539 29.8707 52.1951 28.0302 55.8804C26.409 59.1228 24.4041 62.2229 21.8822 64.8326C19.6815 67.1102 17.2301 69.1664 14.6769 71.0328C12.3039 72.7647 9.75071 74.5203 6.98608 75.5405C6.21073 75.8252 5.20042 76.1574 4.43291 76.0546C4.08831 76.0071 3.89251 75.9122 3.68105 75.7224C3.51658 75.5722 3.43043 75.3982 3.41477 75.2795C3.32079 74.465 3.64972 73.6188 3.91601 72.828C4.39375 71.4124 4.92631 70.0126 5.38839 68.5891C6.66497 64.6428 7.50298 60.483 7.73793 56.3391C7.9259 53.0334 7.39333 49.8621 6.81378 46.6197C6.46918 44.698 6.2029 42.7683 6.04626 40.8229C5.85047 38.2843 5.69383 35.7774 6.6963 33.3811C7.18188 32.2107 5.28657 31.6967 4.80883 32.8592C3.87685 35.0972 3.87685 37.446 4.02565 39.8343C4.15096 41.8272 4.37808 43.8043 4.69136 45.7735C5.17693 48.7787 5.85047 51.7285 5.82697 54.7969C5.79564 59.194 4.90282 63.6385 3.57924 67.8062C3.1015 69.3166 2.52977 70.8034 2.0207 72.306C1.70743 73.2471 1.37066 74.2673 1.44898 75.2795C1.62128 77.5176 3.82986 78.2452 5.73299 77.9288C8.55244 77.4622 11.2309 75.7382 13.5726 74.1882C19.4935 70.2577 24.8426 65.4337 28.4453 59.2098C30.9045 54.963 32.7449 50.2496 33.6299 45.4018C34.5071 40.6331 34.5698 35.5876 32.1027 31.2696C31.4762 30.1703 29.7845 31.1589 30.4111 32.2661L30.4267 32.274Z" fill="#410A0A"/>
<path d="M31.6796 26.4454C30.0898 25.7574 28.9072 24.3576 27.5836 23.2741C25.7823 21.8032 23.8008 20.7039 21.5061 20.2611L22.2266 21.218C22.532 18.7189 22.72 16.0934 22.72 13.5785C22.72 12.1708 22.532 10.0988 20.903 9.65598C19.8771 9.37128 18.483 9.71133 17.5745 10.1463C16.7992 10.518 16.1334 11.1981 16.11 12.1155C16.0943 12.8589 16.2901 13.6339 16.3057 14.3931C16.3606 16.6944 16.2744 19.0036 16.1726 21.305L16.8931 20.3481C15.2093 20.6723 13.5646 21.2654 12.1079 22.1828C10.5337 23.1792 9.22578 24.5632 7.94136 25.9076C7.07203 26.8092 6.22619 27.861 5.13757 28.5016C3.98629 29.1738 2.72537 28.8653 1.48011 29.1184C0.44631 29.324 -0.250722 30.1781 0.0938777 31.2378C0.352328 32.0287 1.07286 32.6218 1.76206 33.0251C4.55802 34.6463 8.35645 34.3458 11.403 33.8397C14.8882 33.2624 18.1776 31.7282 20.6289 29.1342L19.0939 28.9365C20.9109 31.8705 24.8738 33.0172 28.0848 33.0489C31.2959 33.0805 36.9896 32.1552 37.0757 27.9638C37.0992 26.9594 36.4335 26.303 35.4467 26.3584C34.9298 26.39 34.4364 26.564 33.9273 26.6431C33.0658 26.7696 32.2748 26.6668 31.4603 26.3663C30.2777 25.9234 29.7687 27.8373 30.9434 28.2722C32.2435 28.7546 33.5279 28.7388 34.8672 28.4699C34.9612 28.4541 35.525 28.3988 35.5642 28.3276C35.5799 28.3039 35.2118 27.8768 35.1178 27.9243C35.0786 27.9401 35.1021 28.1852 35.016 28.3829C34.4286 29.8302 32.5803 30.534 31.0531 30.8345C28.4294 31.3486 25.422 31.1904 23.0411 29.8618C22.3832 29.498 21.7802 29.0551 21.2555 28.5095C21.1693 28.4225 20.7621 27.9401 20.9187 28.1457C20.8639 28.0824 20.8169 28.0112 20.7777 27.9401C20.4488 27.4102 19.6891 27.2679 19.2427 27.7424C17.4649 29.6245 15.2328 30.8662 12.7579 31.5305C9.96981 32.2817 6.57863 32.6455 3.78267 31.7677C3.09347 31.5542 2.4121 31.1192 2.01267 30.7238C1.87953 30.5973 1.96568 30.5973 1.95002 30.6131C2.07533 30.5498 1.71506 30.9848 1.79338 31.0797C1.81688 31.1034 2.57657 31.0164 2.66272 31.0164C3.09347 31.0085 3.52422 30.9927 3.94713 30.9452C6.04606 30.6843 7.46362 29.2845 8.86552 27.8135C10.1029 26.5166 11.3325 25.101 12.8206 24.0966C14.2147 23.1555 15.781 22.594 17.4179 22.2856C17.8486 22.1986 18.1227 21.7399 18.1384 21.3287C18.2324 19.1776 18.3107 17.0186 18.2794 14.8597C18.2794 14.3298 18.2637 13.7999 18.2167 13.2701C18.1932 13.0012 17.9896 12.4634 18.0757 12.2341C18.2402 11.807 19.2192 11.6726 19.6421 11.6172C19.8144 11.5935 19.9867 11.5856 20.159 11.5777C20.4566 11.5619 20.2921 11.5223 20.4566 11.6014C20.3156 11.5303 20.4644 11.5777 20.5428 11.807C20.6837 12.2104 20.7307 12.6216 20.7542 13.0487C20.8325 14.6224 20.6133 16.2278 20.5271 17.7937C20.4644 18.9404 20.4096 20.095 20.2687 21.2338C20.2217 21.6292 20.6054 22.1116 20.9892 22.1907C23.1978 22.6098 25.0382 23.6854 26.7377 25.1405C27.983 26.2081 29.1656 27.513 30.6928 28.1694C31.8363 28.6597 32.8387 26.9594 31.6796 26.4612V26.4454Z" fill="#410A0A"/>
<path d="M17.6999 44.1207C17.6764 46.3587 17.2613 49.5221 15.3112 50.9693C13.5804 52.2583 12.0845 50.2338 11.4658 48.7549C10.4085 46.2085 10.3537 43.1163 11.1212 40.4828C11.5441 39.0435 12.8442 36.149 14.8256 36.9873C15.7889 37.3986 16.4155 38.4662 16.8227 39.3915C17.465 40.8782 17.6921 42.5153 17.7077 44.1286C17.7156 45.2041 19.3759 45.212 19.3681 44.1286C19.3446 41.242 18.6476 37.4302 16.0239 35.7457C13.6195 34.2036 11.223 36.149 10.1735 38.3555C8.69331 41.4635 8.568 45.4255 9.67229 48.6759C10.4476 50.9614 12.4134 53.84 15.2016 52.9147C18.5066 51.8155 19.3446 47.1258 19.3681 44.1365C19.3759 43.0609 17.7156 43.053 17.7077 44.1365L17.6999 44.1207Z" fill="#410A0A"/>
<path d="M27.364 44.1207C27.3405 46.3587 26.9254 49.5221 24.9753 50.9693C23.2444 52.2583 21.7486 50.2338 21.1298 48.7549C20.0725 46.2085 20.0177 43.1163 20.7852 40.4828C21.2082 39.0435 22.5082 36.149 24.4897 36.9873C25.453 37.3986 26.0796 38.4662 26.4868 39.3915C27.129 40.8782 27.3561 42.5153 27.3718 44.1286C27.3796 45.2041 29.04 45.212 29.0321 44.1286C29.0087 41.242 28.3116 37.4302 25.688 35.7457C23.2836 34.2036 20.8871 36.149 19.8376 38.3555C18.3574 41.4635 18.2321 45.4255 19.3364 48.6759C20.1117 50.9614 22.0775 53.84 24.8656 52.9147C28.1706 51.8155 29.0087 47.1258 29.0321 44.1365C29.04 43.0609 27.3796 43.053 27.3718 44.1365L27.364 44.1207Z" fill="#410A0A"/>
<path d="M9.79004 44.1206H28.5394" stroke="#1D1D1B" stroke-width="2" stroke-miterlimit="10"/>
<g clip-path="url(#clip0_755_4311)">
<path d="M79.6972 44.6527C79.6972 46.8963 78.5537 48.7213 77.144 48.7213C75.7343 48.7213 74.583 46.8963 74.583 44.6527C74.583 44.4551 74.5908 44.2655 74.6143 44.0759H79.6659C79.6894 44.2655 79.6972 44.4551 79.6972 44.6527Z" fill="#410A0A"/>
<path d="M89.3701 44.6527C89.3701 46.8963 88.2188 48.7213 86.8091 48.7213C85.3993 48.7213 84.248 46.8963 84.248 44.6527C84.248 44.4551 84.2559 44.2655 84.2794 44.0759H89.3387C89.3622 44.2655 89.3701 44.4551 89.3701 44.6527Z" fill="#410A0A"/>
<path d="M85.9709 63.574C83.0574 66.9317 79.4783 69.8074 75.8052 72.2723C74.0822 73.4337 72.2652 74.5555 70.3307 75.3297C69.3047 75.7406 67.6444 76.3568 66.7907 75.7327C66.5009 75.5193 66.4226 75.3613 66.3991 75.0453C66.36 74.4449 66.5636 73.8445 66.7516 73.2519C67.3859 71.2137 68.2005 69.2307 68.8035 67.1766C70.3229 62.0098 71.247 56.3689 70.55 50.9809C70.2446 48.6266 69.7198 46.3118 69.3909 43.9654C68.921 40.6236 68.3336 36.7919 69.6807 33.5923L68.8348 34.0821C74.1135 34.5561 79.9012 33.0313 83.6213 29.0891L82.0863 28.8916C84.5768 32.9049 90.3958 33.4422 94.531 32.6916L93.4267 32.2413C96.2462 37.1711 95.3769 43.3571 93.8653 48.5871C92.2911 54.0225 89.6361 59.2684 85.9787 63.574C85.1642 64.5379 86.5426 65.9362 87.3649 64.9724C91.32 60.327 94.1864 54.6941 95.8468 48.8162C97.5071 42.9384 98.165 36.5707 95.1263 31.2538C94.8913 30.8508 94.4527 30.7244 94.022 30.8034C91.3591 31.2854 88.3674 31.1511 85.963 29.7843C85.3208 29.4209 84.7334 28.9785 84.2244 28.4412C84.1539 28.3701 83.7623 27.904 83.9268 28.1173C83.8719 28.0541 83.8249 27.983 83.7858 27.9119C83.4568 27.3826 82.6972 27.2404 82.2507 27.7144C78.8596 31.3012 73.6279 32.5494 68.8427 32.1228C68.5372 32.0991 68.1221 32.3203 67.9968 32.6126C66.6576 35.8044 66.8925 39.1067 67.2606 42.4801C67.5191 44.8897 67.9812 47.2598 68.3884 49.6378C69.3439 55.2392 68.5685 60.959 67.01 66.3866C66.3678 68.6144 65.4593 70.7554 64.8093 72.9833C64.4255 74.279 64.1749 75.8196 65.1695 76.9177C67.6287 79.6196 72.3905 76.7123 74.7479 75.306C79.3451 72.5646 83.8484 69.0569 87.3728 64.9882C88.1951 64.0323 86.8167 62.6339 85.9865 63.5898L85.9709 63.574Z" fill="#410A0A"/>
<path d="M94.5305 32.6995C96.6921 32.2571 99.1513 31.1669 99.8875 28.8679C100.107 28.1805 100.209 27.2641 99.6447 26.7111C98.9633 26.0396 97.9295 26.4425 97.1307 26.5847C94.6636 27.0113 93.1756 25.5181 91.4604 24.0092C89.4163 22.2158 87.2156 20.77 84.5058 20.2486L85.2263 21.2045C85.5239 18.708 85.7119 16.0851 85.7197 13.5728C85.7197 12.1508 85.5239 10.073 83.8714 9.64636C82.8298 9.37775 81.4122 9.71746 80.4959 10.1757C79.6814 10.5865 79.0783 11.3212 79.1175 12.2772C79.141 12.9961 79.2898 13.6755 79.3133 14.4261C79.3681 16.7093 79.2819 19.0004 79.188 21.2836L79.9085 20.3276C76.7366 20.9359 74.2774 22.5318 72.0062 24.7992C70.6434 26.166 69.2102 28.3227 67.2444 28.8363C66.1166 29.1286 64.7147 28.7099 63.6966 29.3656C62.9839 29.8317 62.8508 30.6928 63.2032 31.4197C64.143 33.4106 66.939 33.8925 68.8499 34.0742C70.103 34.1927 70.0952 32.2176 68.8499 32.0991C67.7848 31.9964 66.657 31.7989 65.7172 31.2459C65.4509 31.0879 65.2551 30.9141 65.0437 30.7007C64.8635 30.5111 65.028 30.5032 64.9654 30.6059C64.5973 31.1906 64.8949 31.001 65.2551 30.9773C65.5371 30.9615 65.819 30.9694 66.101 30.9536C66.6022 30.9378 67.1035 30.8904 67.5969 30.7798C68.3096 30.6217 68.9909 30.3057 69.5861 29.8791C71.1995 28.7257 72.4682 27.0903 73.8858 25.7156C75.7733 23.8828 77.8565 22.7293 80.441 22.2316C80.8718 22.1526 81.1459 21.6865 81.1616 21.2757C81.2477 19.1031 81.3339 16.9147 81.2947 14.7421C81.2947 14.2839 81.279 13.8256 81.2477 13.3674C81.2242 13.0593 81.0598 12.5853 81.1146 12.2851C81.2164 11.7952 82.1171 11.653 82.6105 11.5819C82.7828 11.5582 82.9551 11.5503 83.1195 11.5424C83.2057 11.5424 83.2997 11.5424 83.3858 11.5424C83.4955 11.5424 83.2605 11.4634 83.4876 11.574C83.3388 11.5029 83.4955 11.5582 83.5738 11.7794C83.6991 12.1429 83.7539 12.5063 83.7774 12.8855C83.8792 14.4972 83.6443 16.1483 83.5503 17.76C83.4876 18.9055 83.4328 20.059 83.2997 21.1966C83.2527 21.5917 83.6364 22.0736 84.0202 22.1526C86.2679 22.5871 88.1319 23.6932 89.8549 25.1784C91.1315 26.2845 92.3532 27.6038 93.9509 28.2279C95.0474 28.6546 96.1987 28.7099 97.35 28.5361C97.6867 28.4887 98.2819 28.4729 98.5874 28.299C98.6109 28.299 98.6344 28.299 98.6579 28.299C98.9633 28.3148 98.791 28.1489 98.1331 27.8013C98.1801 27.7776 98.047 28.0857 98.1253 27.9751C98 28.1489 97.9765 28.4808 97.859 28.6862C97.6867 28.9943 97.4439 29.255 97.1776 29.4841C96.3005 30.2346 95.1414 30.5585 94.0449 30.7877C92.8075 31.0405 93.3322 32.9444 94.5618 32.6916L94.5305 32.6995Z" fill="#410A0A"/>
<path d="M80.6921 44.076C80.6686 46.3118 80.2535 49.4719 78.3034 50.9177C76.5726 52.2054 75.0767 50.1829 74.458 48.7056C73.4007 46.1617 73.3458 43.0726 74.1134 40.4418C74.5363 39.004 75.8364 36.1124 77.8178 36.9499C78.7811 37.3607 79.4077 38.4272 79.8149 39.3516C80.4571 40.8368 80.6843 42.4722 80.6999 44.0839C80.7078 45.1583 82.3681 45.1662 82.3603 44.0839C82.3368 41.2002 81.6397 37.3923 79.0161 35.7095C76.6117 34.1689 74.2152 36.1124 73.1657 38.3166C71.6855 41.4215 71.5602 45.3795 72.6645 48.6266C73.4398 50.9098 75.4056 53.7855 78.1937 52.8611C81.4988 51.763 82.3368 47.0781 82.3603 44.0918C82.3681 43.0173 80.7078 43.0094 80.6999 44.0918L80.6921 44.076Z" fill="#410A0A"/>
<path d="M90.364 44.076C90.3405 46.3118 89.9254 49.4719 87.9753 50.9177C86.2444 52.2054 84.7486 50.1829 84.1298 48.7056C83.0725 46.1617 83.0177 43.0726 83.7852 40.4418C84.2082 39.004 85.5082 36.1124 87.4897 36.9499C88.453 37.3607 89.0796 38.4272 89.4868 39.3516C90.129 40.8368 90.3561 42.4722 90.3718 44.0839C90.3796 45.1583 92.04 45.1662 92.0321 44.0839C92.0087 41.2002 91.3116 37.3923 88.688 35.7095C86.2836 34.1689 83.8871 36.1124 82.8376 38.3166C81.3574 41.4215 81.2321 45.3795 82.3364 48.6266C83.1117 50.9098 85.0775 53.7855 87.8656 52.8611C91.1706 51.763 92.0087 47.0781 92.0321 44.0918C92.04 43.0173 90.3796 43.0094 90.3718 44.0918L90.364 44.076Z" fill="#410A0A"/>
<path d="M72.79 44.0759H74.8028H79.8543H84.4673H89.5266H91.5394" fill="#410A0A"/>
<path d="M72.79 44.0759H74.8028H79.8543H84.4673H89.5266H91.5394" stroke="#1D1D1B" stroke-width="2" stroke-miterlimit="10"/>
</g>
<g clip-path="url(#clip1_755_4311)">
<path d="M148.971 63.574C146.057 66.9317 142.478 69.8074 138.805 72.2723C137.082 73.4337 135.265 74.5555 133.331 75.3297C132.305 75.7406 130.644 76.3568 129.791 75.7327C129.501 75.5193 129.423 75.3613 129.399 75.0453C129.36 74.4449 129.564 73.8445 129.752 73.2519C130.386 71.2137 131.2 69.2307 131.804 67.1766C133.323 62.0098 134.247 56.3689 133.55 50.9809C133.245 48.6266 132.72 46.3118 132.391 43.9654C131.921 40.6236 131.334 36.7919 132.681 33.5923L131.835 34.0821C137.114 34.5561 142.901 33.0313 146.621 29.0891L145.086 28.8916C147.577 32.9049 153.396 33.4422 157.531 32.6916L156.427 32.2413C159.27 37.2185 158.369 43.4756 156.818 48.7372C155.268 53.9988 152.605 59.3079 148.971 63.574C148.156 64.5379 149.535 65.9362 150.357 64.9724C154.281 60.3665 157.132 54.7889 158.792 48.9663C160.452 43.1438 161.181 36.6102 158.111 31.2538C157.876 30.8508 157.437 30.7244 157.006 30.8034C154.344 31.2854 151.352 31.1511 148.947 29.7843C148.305 29.4209 147.718 28.9785 147.209 28.4412C147.138 28.3701 146.747 27.904 146.911 28.1173C146.856 28.0541 146.809 27.983 146.77 27.9119C146.441 27.3826 145.682 27.2404 145.235 27.7144C141.844 31.3012 136.612 32.5494 131.827 32.1228C131.522 32.0991 131.107 32.3203 130.981 32.6126C129.642 35.7965 129.877 39.1067 130.245 42.4801C130.503 44.8897 130.966 47.2598 131.373 49.6378C132.328 55.2392 131.553 60.959 129.994 66.3866C129.352 68.6144 128.444 70.7554 127.794 72.9833C127.41 74.279 127.159 75.8196 128.154 76.9177C130.613 79.6196 135.375 76.7123 137.732 75.306C142.33 72.5646 146.833 69.0569 150.357 64.9882C151.179 64.0323 149.801 62.6339 148.971 63.5898V63.574Z" fill="#410A0A"/>
<path d="M157.53 32.6995C159.7 32.2492 162.167 31.1353 162.895 28.8205C163.115 28.1252 163.209 27.2009 162.637 26.6479C161.948 25.9763 160.922 26.3872 160.123 26.5452C157.664 27.0429 156.16 25.5102 154.46 24.0092C152.416 22.2158 150.216 20.77 147.514 20.2486L148.234 21.2045C148.532 18.708 148.72 16.0851 148.728 13.5728C148.728 12.1508 148.532 10.073 146.879 9.64636C145.838 9.37775 144.42 9.71746 143.504 10.1757C142.689 10.5865 142.086 11.3212 142.125 12.2772C142.149 12.9961 142.298 13.6755 142.321 14.4261C142.376 16.7093 142.29 19.0004 142.196 21.2836L142.916 20.3276C139.744 20.9359 137.285 22.5318 135.014 24.7992C133.651 26.166 132.218 28.3227 130.252 28.8363C129.124 29.1286 127.723 28.7099 126.704 29.3656C125.992 29.8317 125.859 30.6928 126.211 31.4197C127.151 33.4106 129.947 33.8925 131.858 34.0742C133.111 34.1927 133.103 32.2176 131.858 32.0991C130.793 31.9964 129.665 31.7989 128.725 31.2459C128.459 31.0879 128.263 30.9141 128.051 30.7007C127.871 30.5111 128.036 30.5032 127.973 30.6059C127.605 31.1906 127.903 31.001 128.263 30.9773C128.545 30.9615 128.827 30.9694 129.109 30.9536C129.61 30.9378 130.111 30.8904 130.605 30.7798C131.317 30.6217 131.999 30.3057 132.594 29.8791C134.207 28.7257 135.476 27.0903 136.894 25.7156C138.781 23.8828 140.864 22.7293 143.449 22.2316C143.88 22.1526 144.154 21.6865 144.169 21.2757C144.256 19.1031 144.342 16.9147 144.303 14.7421C144.303 14.2839 144.287 13.8256 144.256 13.3674C144.232 13.0593 144.068 12.5853 144.122 12.2851C144.224 11.7952 145.125 11.653 145.618 11.5819C145.791 11.5582 145.963 11.5503 146.127 11.5424C146.213 11.5424 146.307 11.5424 146.394 11.5424C146.503 11.5424 146.268 11.4634 146.495 11.574C146.347 11.5029 146.503 11.5582 146.582 11.7794C146.707 12.1429 146.762 12.5063 146.785 12.8855C146.887 14.4972 146.652 16.1483 146.558 17.76C146.495 18.9055 146.441 20.059 146.307 21.1966C146.26 21.5917 146.644 22.0736 147.028 22.1526C149.276 22.5871 151.14 23.6932 152.855 25.1784C154.131 26.2845 155.353 27.6038 156.959 28.2279C158.055 28.6546 159.206 28.702 160.358 28.5045C160.687 28.4492 161.298 28.4176 161.587 28.2437C161.611 28.2437 161.634 28.2437 161.658 28.2437C161.963 28.2516 161.791 28.0857 161.141 27.7539C161.188 27.7302 161.055 28.0462 161.141 27.9277C161.016 28.1094 160.992 28.4492 160.875 28.6546C160.702 28.9706 160.46 29.2392 160.185 29.4683C159.308 30.2346 158.157 30.5664 157.045 30.7956C155.815 31.0484 156.332 32.9523 157.562 32.6995H157.53Z" fill="#410A0A"/>
<path d="M143.692 44.076C143.669 46.3118 143.254 49.4719 141.303 50.9177C139.573 52.2054 138.077 50.1829 137.458 48.7056C136.401 46.1617 136.346 43.0726 137.113 40.4418C137.536 39.004 138.836 36.1124 140.818 36.9499C141.781 37.3607 142.408 38.4272 142.815 39.3516C143.457 40.8368 143.684 42.4722 143.7 44.0839C143.708 45.1583 145.368 45.1662 145.36 44.0839C145.337 41.2002 144.64 37.3923 142.016 35.7095C139.612 34.1689 137.215 36.1124 136.166 38.3166C134.685 41.4215 134.56 45.3795 135.664 48.6266C136.44 50.9098 138.406 53.7855 141.194 52.8611C144.499 51.763 145.337 47.0781 145.36 44.0918C145.368 43.0173 143.708 43.0094 143.7 44.0918L143.692 44.076Z" fill="#410A0A"/>
<path d="M153.364 44.076C153.34 46.3118 152.925 49.4719 150.975 50.9177C149.244 52.2054 147.749 50.1829 147.13 48.7056C146.073 46.1617 146.018 43.0726 146.785 40.4418C147.208 39.004 148.508 36.1124 150.49 36.9499C151.453 37.3607 152.08 38.4272 152.487 39.3516C153.129 40.8368 153.356 42.4722 153.372 44.0839C153.38 45.1583 155.04 45.1662 155.032 44.0839C155.009 41.2002 154.312 37.3923 151.688 35.7095C149.284 34.1689 146.887 36.1124 145.838 38.3166C144.357 41.4215 144.232 45.3795 145.336 48.6266C146.112 50.9098 148.077 53.7855 150.866 52.8611C154.171 51.763 155.009 47.0781 155.032 44.0918C155.04 43.0173 153.38 43.0094 153.372 44.0918L153.364 44.076Z" fill="#410A0A"/>
<path d="M136.088 3.48398C133.535 7.61585 133.535 13.0355 136.088 17.1753C136.753 18.2497 138.445 17.2622 137.779 16.1798C135.579 12.6168 135.579 8.04247 137.779 4.48732C138.445 3.40497 136.753 2.40953 136.088 3.49188V3.48398Z" fill="#410A0A"/>
<path d="M130.229 0.465998C126.549 6.43075 126.549 14.2363 130.229 20.1931C130.895 21.2676 132.587 20.28 131.921 19.1977C128.593 13.8097 128.593 6.85737 131.921 1.46144C132.587 0.379094 130.895 -0.616348 130.229 0.465998Z" fill="#410A0A"/>
<path d="M155.377 17.1753C157.93 13.0434 157.93 7.62376 155.377 3.48399C154.712 2.40955 153.02 3.39709 153.686 4.47943C155.886 8.04248 155.886 12.6168 153.686 16.1719C153.02 17.2543 154.712 18.2497 155.377 17.1674V17.1753Z" fill="#410A0A"/>
<path d="M161.236 20.1931C164.917 14.2284 164.917 6.42286 161.236 0.458112C160.57 -0.616334 158.878 0.371208 159.544 1.45355C162.872 6.84948 162.872 13.8018 159.544 19.1898C158.878 20.2722 160.57 21.2676 161.236 20.1852V20.1931Z" fill="#410A0A"/>
<path d="M135.947 42.1009C137.912 42.9858 139.878 43.8785 141.844 44.7634L142.69 45.1426L142.925 43.3413C141.029 44.0997 139.126 44.8582 137.231 45.6166L136.417 45.9405C135.923 46.138 135.579 46.6041 135.735 47.1572C135.86 47.6312 136.448 48.042 136.941 47.8445C138.837 47.0861 140.74 46.3276 142.635 45.5692L143.45 45.2453C143.818 45.0952 144.1 44.8424 144.154 44.4236C144.194 44.0681 144.045 43.602 143.684 43.4361C141.719 42.5513 139.753 41.6585 137.787 40.7737L136.941 40.3945C136.456 40.1733 135.892 40.2523 135.602 40.75C135.359 41.1687 135.469 41.8797 135.954 42.1009H135.947Z" fill="#410A0A"/>
<path d="M152.988 40.3945C151.023 41.2793 149.057 42.172 147.091 43.0569L146.245 43.4361C145.9 43.5941 145.728 44.0681 145.775 44.4236C145.838 44.8424 146.096 45.0952 146.48 45.2453C148.375 46.0037 150.278 46.7621 152.174 47.5206L152.988 47.8445C153.482 48.042 154.061 47.6312 154.194 47.1572C154.351 46.5962 154.006 46.138 153.513 45.9405C151.618 45.1821 149.715 44.4236 147.819 43.6652L147.005 43.3413L147.24 45.1426C149.206 44.2577 151.171 43.365 153.137 42.4802L153.983 42.1009C154.469 41.8797 154.578 41.1766 154.335 40.75C154.046 40.2523 153.482 40.1733 152.996 40.3945H152.988Z" fill="#410A0A"/>
</g>
<g clip-path="url(#clip2_755_4311)">
<path d="M219.427 32.2707C221.486 35.8765 221.526 40.115 220.883 44.132C220.241 48.149 218.91 52.087 217.101 55.7324C215.479 58.9982 213.475 62.1217 210.953 64.7549C208.799 67.0085 206.387 69.0329 203.888 70.8832C201.39 72.7336 198.939 74.4179 196.158 75.4775C195.336 75.7938 194.255 76.1734 193.433 76.0548C192.83 75.9757 192.485 75.6515 192.415 75.2245C192.321 74.6551 192.673 73.5718 192.916 72.8364C193.362 71.5 193.864 70.1874 194.302 68.851C195.594 64.9051 196.44 60.7695 196.714 56.618C196.934 53.2969 196.432 50.1022 195.845 46.8443C195.508 44.9544 195.226 43.0566 195.07 41.143C194.858 38.6363 194.678 36.2007 195.681 33.8364C196.174 32.6819 194.482 31.6697 193.989 32.84C192.282 36.8808 192.994 41.4355 193.668 45.6582C194.146 48.663 194.835 51.6125 194.827 54.6807C194.819 59.1168 193.918 63.6004 192.579 67.8151C192.101 69.3254 191.53 70.8121 191.021 72.3145C190.707 73.2555 190.371 74.2756 190.449 75.2877C190.621 77.5256 192.83 78.2531 194.733 77.9368C197.552 77.4702 200.231 75.7464 202.573 74.1965C208.493 70.2585 213.843 65.4428 217.445 59.2196C219.881 55.0128 221.706 50.3552 222.599 45.5633C223.491 40.7713 223.593 35.6472 221.103 31.2823C220.476 30.1831 218.785 31.1715 219.411 32.2786L219.427 32.2707Z" fill="#410A0A"/>
<path d="M220.68 26.4427C219.09 25.7547 217.907 24.3551 216.584 23.2718C214.782 21.801 212.801 20.7018 210.506 20.259L211.227 21.2158C211.532 18.717 211.72 16.0917 211.72 13.5771C211.72 12.1696 211.532 10.0978 209.903 9.65499C208.877 9.37032 207.483 9.71034 206.575 10.1453C205.799 10.5169 205.133 11.197 205.11 12.1142C205.094 12.8575 205.29 13.6325 205.306 14.3916C205.361 16.6927 205.274 19.0017 205.173 21.3028L205.893 20.346C204.209 20.6702 202.565 21.2633 201.108 22.1805C199.534 23.1769 198.226 24.5607 196.941 25.905C196.072 26.8064 195.226 27.8582 194.138 28.4987C192.986 29.1708 191.725 28.8624 190.48 29.1155C189.446 29.321 188.749 30.1751 189.094 31.2347C189.352 32.0254 190.073 32.6185 190.762 33.0218C193.558 34.6428 197.356 34.3423 200.403 33.8363C203.888 33.259 207.178 31.7249 209.629 29.1313L208.094 28.9336C209.911 31.8673 213.874 33.0139 217.085 33.0455C220.296 33.0771 225.99 32.1519 226.076 27.961C226.099 26.9567 225.434 26.3004 224.447 26.3557C223.93 26.3874 223.436 26.5613 222.927 26.6404C222.066 26.7669 221.275 26.6641 220.46 26.3636C219.278 25.9208 218.769 27.8344 219.943 28.2693C221.244 28.7517 222.528 28.7359 223.867 28.467C223.961 28.4512 224.525 28.3959 224.564 28.3247C224.58 28.301 224.212 27.874 224.118 27.9214C224.079 27.9372 224.102 28.1824 224.016 28.3801C223.429 29.8271 221.58 30.5309 220.053 30.8314C217.429 31.3454 214.422 31.1872 212.041 29.8588C211.383 29.495 210.78 29.0522 210.255 28.5066C210.169 28.4196 209.762 27.9372 209.919 28.1428C209.864 28.0796 209.817 28.0084 209.778 27.9372C209.449 27.4074 208.689 27.2651 208.243 27.7395C206.465 29.6215 204.233 30.863 201.758 31.5273C198.97 32.2785 195.579 32.6422 192.783 31.7645C192.093 31.551 191.412 31.1161 191.013 30.7207C190.88 30.5942 190.966 30.5942 190.95 30.61C191.075 30.5467 190.715 30.9816 190.793 31.0765C190.817 31.1002 191.577 31.0133 191.663 31.0133C192.093 31.0054 192.524 30.9895 192.947 30.9421C195.046 30.6811 196.464 29.2815 197.866 27.8107C199.103 26.5139 200.333 25.0984 201.821 24.0942C203.215 23.1532 204.781 22.5917 206.418 22.2833C206.849 22.1964 207.123 21.7377 207.138 21.3265C207.232 19.1757 207.311 17.0169 207.279 14.8582C207.279 14.3283 207.264 13.7985 207.217 13.2687C207.193 12.9999 206.99 12.4622 207.076 12.2328C207.24 11.8058 208.219 11.6714 208.642 11.6161C208.814 11.5923 208.987 11.5844 209.159 11.5765C209.457 11.5607 209.292 11.5212 209.457 11.6002C209.316 11.5291 209.464 11.5765 209.543 11.8058C209.684 12.2091 209.731 12.6203 209.754 13.0473C209.833 14.6209 209.613 16.2262 209.527 17.7919C209.464 18.9384 209.41 20.0929 209.269 21.2316C209.222 21.627 209.605 22.1094 209.989 22.1884C212.198 22.6075 214.038 23.683 215.738 25.138C216.983 26.2055 218.166 27.5102 219.693 28.1665C220.836 28.6568 221.839 26.9567 220.68 26.4585V26.4427Z" fill="#410A0A"/>
<path d="M206.7 44.1161C206.676 46.3539 206.261 49.5169 204.311 50.964C202.58 52.2529 201.084 50.2286 200.466 48.7499C199.408 46.2037 199.354 43.1118 200.121 40.4786C200.544 39.0394 201.844 36.1453 203.826 36.9835C204.789 37.3947 205.415 38.4622 205.823 39.3874C206.465 40.874 206.692 42.5109 206.708 44.124C206.716 45.1994 208.376 45.2073 208.368 44.124C208.345 41.2377 207.648 37.4263 205.024 35.742C202.62 34.2 200.223 36.1453 199.174 38.3515C197.693 41.4592 197.568 45.4208 198.672 48.6708C199.448 50.9561 201.413 53.8345 204.202 52.9093C207.507 51.8101 208.345 47.121 208.368 44.1319C208.376 43.0565 206.716 43.0486 206.708 44.1319L206.7 44.1161Z" fill="#410A0A"/>
<path d="M205.322 44.445C206.651 43.9565 207.111 41.8473 206.349 39.7338C205.587 37.6203 203.892 36.303 202.563 36.7914C201.234 37.2798 200.774 39.3891 201.536 41.5026C202.298 43.616 203.993 44.9334 205.322 44.445Z" fill="#410A0A"/>
<path d="M216.364 44.1161C216.34 46.3539 215.925 49.5169 213.975 50.964C212.244 52.2529 210.749 50.2286 210.13 48.7499C209.073 46.2037 209.018 43.1118 209.785 40.4786C210.208 39.0394 211.508 36.1453 213.49 36.9835C214.453 37.3947 215.08 38.4622 215.487 39.3874C216.129 40.874 216.356 42.5109 216.372 44.124C216.38 45.1994 218.04 45.2073 218.032 44.124C218.009 41.2377 217.312 37.4263 214.688 35.742C212.284 34.2 209.887 36.1453 208.838 38.3515C207.357 41.4592 207.232 45.4208 208.336 48.6708C209.112 50.9561 211.077 53.8345 213.866 52.9093C217.171 51.8101 218.009 47.121 218.032 44.1319C218.04 43.0565 216.38 43.0486 216.372 44.1319L216.364 44.1161Z" fill="#410A0A"/>
<path d="M214.991 44.4523C216.32 43.9639 216.78 41.8546 216.018 39.7411C215.256 37.6276 213.561 36.3103 212.232 36.7987C210.903 37.2872 210.443 39.3964 211.205 41.5099C211.967 43.6234 213.662 44.9407 214.991 44.4523Z" fill="#410A0A"/>
</g>
<defs>
<clipPath id="clip0_755_4311">
<rect width="38" height="78" fill="white" transform="translate(63)"/>
</clipPath>
<clipPath id="clip1_755_4311">
<rect width="38" height="78" fill="white" transform="translate(126)"/>
</clipPath>
<clipPath id="clip2_755_4311">
<rect width="38" height="78" fill="white" transform="translate(189)"/>
</clipPath>
</defs>
</svg>
