<svg width="16" height="16" viewBox="0 0 16 16" fill="none" xmlns="http://www.w3.org/2000/svg">
<path opacity="0.7" d="M3.50172 0.00498521C4.11391 -0.0775056 5.01095 0.882261 5.46946 1.55093C5.92796 2.2196 6.34402 2.85062 6.34402 3.51055C6.34402 4.33545 6.2347 4.43888 5.90674 4.74822C5.57878 5.05756 4.48557 5.26379 4.15761 6.50115C3.82964 7.73851 7.43723 11.5537 8.3118 11.863C9.18636 12.1724 9.84229 12.1724 10.6075 11.2444C11.3728 10.3163 11.5824 10.2132 12.2473 10.2132C13.4499 10.2132 15.6363 12.1724 15.9643 13.1004C16.2266 13.8428 14.9804 14.7159 14.3244 15.0596C13.5592 15.5064 11.5914 16.2969 9.84229 15.8845C7.65587 15.3689 5.03221 13.2035 3.72036 11.863C2.40851 10.5226 -0.105869 6.9136 0.00345169 4.74822C0.112772 2.58283 2.73647 0.108099 3.50172 0.00498521Z" fill="#BF2202"/>
</svg>
