<svg width="105" height="48" viewBox="0 0 105 48" fill="none" xmlns="http://www.w3.org/2000/svg">
<path d="M17.5725 14.384H27.5885V13.872H17.5725V12.032H30.0685V16.224H20.0685V16.736H30.3885V18.576H17.5725V14.384ZM24.5005 3.824V4.384C24.5005 5.184 24.3352 5.94667 24.0045 6.672C23.6738 7.38667 23.1992 8.048 22.5805 8.656C21.9618 9.264 21.2098 9.81333 20.3245 10.304C19.4392 10.784 18.4472 11.1947 17.3485 11.536L16.2605 9.744C16.9112 9.54133 17.5352 9.30667 18.1325 9.04C18.7405 8.76267 19.2845 8.45867 19.7645 8.128C20.2552 7.78667 20.6712 7.424 21.0125 7.04C21.3645 6.656 21.6152 6.25067 21.7645 5.824H17.0765V3.824H24.5005ZM27.5885 3.616H30.0685V11.424H27.5885V10.032H24.7885V8.016H27.5885V6.832H25.0925V4.816H27.5885V3.616ZM47.068 9.152V11.168H44.956V18.576H42.476V3.616H44.956V9.152H47.068ZM38.524 5.808H32.54V3.824H41.004V14.208H38.524V5.808ZM42.14 17.792C41.34 17.8667 40.508 17.936 39.644 18C38.78 18.064 37.9053 18.1173 37.02 18.16C36.1453 18.2027 35.276 18.2347 34.412 18.256C33.548 18.2773 32.716 18.288 31.916 18.288L31.612 16.32L34.412 16.272V10.336H36.908V16.192C37.772 16.1493 38.6147 16.1013 39.436 16.048C40.2573 15.9947 41.052 15.9307 41.82 15.856L42.14 17.792ZM1.725 27.824H4.221V30.64H11.725V27.824H14.205V37.088H1.725V27.824ZM0.605 40.256H6.701V37.744H9.197V40.256H15.325V42.256H0.605V40.256ZM4.221 32.624V35.12H11.725V32.624H4.221ZM25.7805 42.288H16.9325V33.952H22.4685V29.84H16.9005V27.824H24.9805V35.968H19.4285V40.288H25.7805V42.288ZM27.5885 27.616H30.0685V42.576H27.5885V35.648H25.7485V33.632H27.5885V27.616ZM40.028 27.824V31.472C40.028 32.7947 39.8733 34.0053 39.564 35.104C39.2547 36.2027 38.8013 37.2 38.204 38.096C37.6173 38.992 36.8973 39.7867 36.044 40.48C35.2013 41.184 34.236 41.7973 33.148 42.32L31.868 40.448C32.668 40.064 33.4093 39.6053 34.092 39.072C34.7853 38.528 35.3827 37.9093 35.884 37.216C36.3853 36.5227 36.7747 35.76 37.052 34.928C37.34 34.0853 37.484 33.184 37.484 32.224V29.824H32.444V27.824H40.028ZM47.068 33.312V35.328H44.956V42.576H42.476V27.616H44.956V33.312H47.068ZM55.8755 27.824V31.472C55.8755 32.7947 55.7208 34.0053 55.4115 35.104C55.1022 36.2027 54.6488 37.2 54.0515 38.096C53.4648 38.992 52.7448 39.7867 51.8915 40.48C51.0488 41.184 50.0835 41.7973 48.9955 42.32L47.7155 40.448C48.5155 40.064 49.2568 39.6053 49.9395 39.072C50.6328 38.528 51.2302 37.9093 51.7315 37.216C52.2328 36.5227 52.6222 35.76 52.8995 34.928C53.1875 34.0853 53.3315 33.184 53.3315 32.224V29.824H48.2915V27.824H55.8755ZM58.9635 42.576V27.616H61.4435V42.576H58.9635Z" fill="#E55936"/>
<path d="M92 11L102.453 23.3541C102.769 23.7269 102.769 24.2731 102.453 24.6459L92 37" stroke="#E55936" stroke-width="4" stroke-linecap="round"/>
<path d="M79 11L89.4534 23.3541C89.7689 23.7269 89.7689 24.2731 89.4534 24.6459L79 37" stroke="#E55936" stroke-width="4" stroke-linecap="round"/>
</svg>
