<svg width="304" height="428" viewBox="0 0 304 428" fill="none" xmlns="http://www.w3.org/2000/svg">
<g filter="url(#filter0_d_523_3278)">
<rect x="11" y="11" width="276" height="400" rx="6" fill="white" shape-rendering="crispEdges"/>
<rect x="8" y="8" width="282" height="406" rx="9" stroke="#961200" stroke-width="6" shape-rendering="crispEdges"/>
<path d="M271.919 327.729L260.947 332.965L267.058 339.165L257.254 336.812L256.204 345.271L248.193 336.941L244.075 343.918L244.524 334.729L237.763 339.353L243.603 330.482L235.073 325.141L247.367 326.141L248.582 315.882L252.983 325.318L259.932 320.682L259.035 327.376L271.919 327.729Z" fill="#E55936"/>
<path d="M236.358 261.741L229.067 266.247L234.424 269.812H227.463L230.094 279.236L224.053 273.33L222.224 280.941L221.092 273.224L209.612 279.918L214.485 270.377L204.314 270.965L214.508 265.271L210.402 260.718L218.614 261.659L222.224 268.294L219.345 261.636L228.949 253.177L226.33 262.2L236.358 261.741Z" fill="#E55936"/>
<path d="M219.347 261.635L222.225 268.294L218.615 261.659L204.587 235.8C204.953 235.871 205.141 234.859 205 233.659H205.059C206.286 233 207.006 233.565 207.277 233.883C207.371 233.988 207.418 234.059 207.418 234.059L208.445 236.424L219.347 261.635Z" fill="#8C725B"/>
<path d="M210.402 230.929C208.55 229.471 207.063 228.153 207.063 228.153C208.055 228.094 209.152 228.012 210.379 227.894C210.379 227.894 211.193 228.412 212.349 228.812C213.269 230.635 217.599 233.341 217.635 233.765C217.871 236.341 213.588 233.423 210.402 230.929Z" fill="#FFD9B3"/>
<path d="M111.923 211.224C113.173 209.165 114.318 207.53 115.474 206.294C117.692 203.93 119.945 203.024 122.954 203.365C123.308 203.412 123.674 203.459 124.051 203.541C125.679 203.871 128.192 204.577 131.118 205.471C139.991 208.2 152.626 212.635 155.8 213.235C160.024 214.024 164.684 211.988 172.554 214.365C180.411 216.753 191.867 220.33 196.079 219.941C200.291 219.541 201.377 222.777 205.589 224.424C209.813 226.071 210.839 225.047 212.432 225.671C214.025 226.294 216.479 228.965 216.479 228.965C215.11 229.518 213.553 229.224 212.349 228.812C211.193 228.412 210.379 227.894 210.379 227.894C209.152 228.012 208.055 228.094 207.064 228.153C207.064 228.153 208.55 229.471 210.402 230.93C210.367 231.165 209.99 234 208.822 236.259L208.444 236.424L207.418 234.059C207.418 234.059 207.37 233.988 207.276 233.883L207.418 231.871L204.315 231.412C204.704 232.083 204.916 232.906 204.999 233.659C205.14 234.859 204.952 235.871 204.586 235.8C204.468 235.788 204.315 235.624 204.149 235.306C203.052 233.153 199.253 231.071 196.893 229.894C194.546 228.718 193.743 225.047 193.743 225.047C184.553 222.553 160.98 228.53 150.22 223.235C144.556 220.447 139.53 218.765 135.472 217.753L135.413 217.977C135.413 217.977 137.265 220.671 137.36 223.577C135.908 222.941 133.619 224.93 133.372 225.141C133.561 224.847 135.342 221.883 131.083 219.083C126.576 216.13 116.547 221.012 111.368 223.918C106.33 226.741 102.873 225.812 102.696 225.753C103.829 224.647 104.914 223.271 106.023 221.577C106.873 220.283 107.722 218.788 108.631 217.094C109.822 214.847 110.908 212.894 111.923 211.224Z" fill="#FFD9B3"/>
<path d="M213.399 306.565L205.883 308.153L207.476 315.647L200.645 309.694L196.881 318.718L195.855 309.694L185.26 312.13L193.472 305.024L184.352 297.812L195.855 299.977L200.421 291.341L202.58 299.977L210.095 299.294L205.883 302.93L213.399 306.565Z" fill="#E55936"/>
<path d="M126.163 166.635C126.317 168.165 127.662 170.341 127.662 170.341C123.107 169.329 120.441 167.165 118.884 165.059C118.884 165.059 117.185 173.529 114.448 177.106L114.294 177.129C114.648 180.223 115.356 184.141 116.654 185.612C116.394 185.506 112.194 183.67 109.209 179.2C109.209 179.2 108.655 180.647 108.631 182.682H108.407C108.407 182.682 101.8 178.917 101.8 163.306C101.8 157.694 102.98 153.27 104.761 149.894C107.947 143.859 113.032 141.153 116.725 140.976C119.12 140.859 121.125 141.306 122.895 141.988H122.907C127.437 143.753 130.422 147.106 134.552 146.823C140.309 146.435 143.212 143.365 143.212 143.365C143.318 145.106 142.763 146.07 142.669 146.2C149.005 143.223 155.458 145.859 155.458 145.859C152.391 146.165 149.394 147.682 147.424 148.906C155.895 146.47 161.44 150.917 161.44 150.917C158.538 150.576 155.859 152.682 155.859 152.682C155.859 152.682 163.033 153.753 164.861 163.306C166.678 172.847 160.13 175.435 160.13 175.435C158.667 180.541 154.326 182.541 154.054 182.659C156.319 178.682 153.653 172.753 153.653 172.753C153.382 173.988 152.839 174.494 152.839 174.494C152.167 172.294 151.27 170.553 150.326 169.188C148.025 165.882 145.453 164.776 145.182 164.67H145.158C144.745 163.823 144.038 162.847 142.846 161.706L140.179 162.176C140.498 163.07 140.675 164.07 140.734 165.094C140.935 168.576 139.79 172.529 138.693 174.729C137.82 176.482 136.97 177.141 136.829 175.576C136.652 173.588 135.507 171.623 134.257 170.035L133.867 170.341C130.576 169.412 128.063 168.07 126.163 166.635Z" fill="#FFED8E"/>
<path d="M150.325 169.189C150.277 169.389 149.959 170.6 149.593 172.271L148.142 172.106C147.305 171.541 146.444 171.506 145.653 171.765L144.922 168.4C144.922 168.4 146.432 167.2 145.181 164.671C145.453 164.777 148.024 165.883 150.325 169.189Z" fill="#FFD9B3"/>
<path d="M141.488 199.777C138.845 200.965 135.412 199.718 135.412 199.718L135.742 197.518C136.875 197.671 138.338 197.718 140.179 197.541C140.839 197.482 141.476 197.259 142.031 196.894C142.739 196.412 143.694 195.612 144.308 194.541L141.937 192.177C141.937 192.177 143.27 190.965 143.223 190.129C143.187 189.365 140.875 188.212 140.426 186.682C140.521 186.741 141.748 187.33 143.824 186.682C145.134 186.282 146.774 185.4 148.662 183.6H148.673C149.334 185.682 150.62 187.165 150.62 189.541C150.62 191.671 148.791 197.024 144.662 200.682L141.488 199.777Z" fill="#FFD9B3"/>
<path d="M148.143 172.106L149.594 172.271C149.346 173.389 149.063 174.73 148.839 176.106C146.715 176.071 145.146 176.859 143.99 177.895L141.843 175.095C141.843 175.095 141.878 175.036 141.937 174.942C142.338 174.377 143.837 172.33 145.654 171.765C146.444 171.506 147.305 171.542 148.143 172.106Z" fill="#FFD9B3"/>
<path d="M143.991 177.894C145.147 176.859 146.716 176.07 148.84 176.106C148.71 176.87 148.592 177.647 148.498 178.412L148.273 178.388C147.955 178.423 147.648 178.447 147.377 178.482C144.687 178.788 142.362 180.4 141.194 182.67H141.183C141.183 182.67 141.843 179.847 143.991 177.894Z" fill="#FFED8E"/>
<path d="M143.105 363.376C147.093 363.376 150.338 366.612 150.338 370.588C150.338 374.565 147.093 377.8 143.105 377.8C139.118 377.8 135.873 374.576 135.873 370.588C135.873 370.365 135.885 370.153 135.908 369.929C136.085 367.965 137.053 366.224 138.492 365.035C139.743 364 141.359 363.376 143.105 363.376Z" fill="white"/>
<path d="M148.672 183.6H148.661C146.773 185.4 145.133 186.282 143.824 186.682C143.824 186.682 142.975 183.317 144.992 181.612C146.903 180 148.271 181.917 148.271 181.917H148.318C148.377 182.529 148.507 183.082 148.672 183.6Z" fill="#BCD8E2"/>
<path d="M148.273 178.388L148.497 178.412C148.403 179.176 148.332 179.918 148.285 180.623C148.261 181.082 148.285 181.518 148.32 181.918H148.273C148.273 181.918 146.905 180 144.993 181.612C142.976 183.318 143.825 186.682 143.825 186.682C141.749 187.329 140.522 186.741 140.427 186.682C140.368 186.529 140.345 186.376 140.345 186.212C140.345 186.047 140.345 185.871 140.357 185.706C140.416 184.612 140.699 183.588 141.194 182.671C142.362 180.4 144.686 178.788 147.376 178.482C147.648 178.447 147.955 178.423 148.273 178.388Z" fill="white"/>
<path d="M144.415 231.612C145.323 230.812 146.444 230.035 147.53 229.859C147.978 229.776 148.273 230.341 147.942 230.682C146.361 232.353 142.68 236.365 141.619 238.8C141.619 238.8 145.264 238.176 146.008 239.423C146.751 240.67 143.093 241.012 141.961 241.859C140.816 242.718 140.651 243.459 137.749 243.506C134.835 243.565 127.201 243.682 123.166 243C119.119 242.318 108.076 237.718 108.076 237.718C111.934 235.612 117.173 235.2 120.712 233.882C120.712 233.882 124.476 237.318 131.649 238.118C131.649 238.118 134.622 234.2 137.112 233.435C137.607 233.282 138.079 233.247 138.504 233.4C138.504 233.4 139.047 233.012 139.837 232.576C141.17 231.847 143.2 230.965 144.415 231.612Z" fill="#FFD9B3"/>
<path d="M144.922 168.4L145.653 171.765C143.836 172.33 142.338 174.377 141.937 174.941L138.692 174.73C139.79 172.53 140.934 168.577 140.733 165.094H140.757C140.757 165.094 144.013 166.224 144.922 168.4Z" fill="#FFD9B3"/>
<path d="M145.18 164.671C146.431 167.2 144.921 168.4 144.921 168.4C144.013 166.224 140.757 165.094 140.757 165.094H140.733C140.674 164.071 140.497 163.071 140.179 162.177L142.845 161.706C144.036 162.847 144.744 163.824 145.157 164.659H145.18V164.671Z" fill="#FFED8E"/>
<path d="M140.427 186.683C140.875 188.212 143.188 189.365 143.223 190.13C143.27 190.965 141.937 192.177 141.937 192.177L144.309 194.541C143.695 195.612 142.74 196.412 142.032 196.894C141.477 197.259 140.84 197.483 140.179 197.541C138.339 197.718 136.876 197.671 135.743 197.518L135.413 199.718C135.413 199.718 138.846 200.965 141.489 199.777L144.663 200.683C143.046 202.118 141.076 203.294 138.716 203.918C136.321 204.553 133.702 204.153 131.118 203.177C128.228 202.071 125.396 200.247 122.977 198.318C120.653 196.459 118.707 194.494 117.491 192.989C116.984 193.2 116.37 193.318 115.604 193.13C114.365 192.836 112.748 191.73 110.625 188.918C109.02 186.777 108.607 184.494 108.631 182.683C108.654 180.647 109.209 179.2 109.209 179.2C112.194 183.671 116.394 185.506 116.654 185.612C115.356 184.141 114.648 180.224 114.294 177.13L114.447 177.106C117.185 173.53 118.884 165.059 118.884 165.059C120.441 167.165 123.107 169.33 127.661 170.341C127.661 170.341 126.316 168.165 126.163 166.636C128.063 168.071 130.576 169.412 133.867 170.341L134.257 170.036C135.507 171.624 136.652 173.588 136.829 175.577C136.97 177.141 137.82 176.483 138.693 174.73L141.937 174.941C141.878 175.036 141.843 175.094 141.843 175.094L143.99 177.894C141.843 179.847 141.182 182.671 141.182 182.671H141.194C140.698 183.588 140.415 184.612 140.356 185.706C140.345 185.871 140.345 186.047 140.345 186.212C140.345 186.377 140.368 186.53 140.427 186.683ZM133.242 189.871C133.112 188.188 132.687 186.941 132.098 186.012C131.814 185.565 131.484 185.189 131.118 184.883C127.083 179.93 120.712 182.671 120.712 182.671C121.255 184.447 123.261 184.341 123.261 184.341C123.851 188.188 125.856 189.73 127.921 190.224C130.54 190.871 133.242 189.871 133.242 189.871Z" fill="#FFD9B3"/>
<path d="M143.105 377.8V378.694C143.105 379.6 142.374 380.33 141.477 380.341C139.943 380.353 137.466 380.012 134.728 378.2C129.962 375.047 131.378 370.318 128.416 366.988C125.455 363.659 123.862 360.847 123.555 358.659C123.261 356.459 126.434 355.306 126.434 355.306C127.331 360.189 128.983 367.212 135.413 369.906L135.908 369.93C135.885 370.153 135.873 370.365 135.873 370.588C135.873 374.577 139.106 377.8 143.105 377.8Z" fill="#A5D75F"/>
<path d="M112.016 268.047C107.002 267.024 102.389 266.294 102.07 266.247C104.005 261.706 103.51 254.529 103.51 254.529C103.51 254.529 106.235 254.529 111.202 249.765C115.98 245.153 119.697 247.847 119.956 248.047C119.956 248.047 139.836 262.541 139.836 266.741C139.836 270.941 140.627 276.847 137.5 278.106C135.212 279.023 119.036 283.282 108.064 286.929C106.66 282.4 104.914 277.788 103.321 273.882C107.356 270.8 110.695 268.282 112.004 268.059L112.016 268.047Z" fill="#FFD9B3"/>
<path d="M139.754 232.412L139.837 232.577C139.046 233.012 138.504 233.4 138.504 233.4C138.079 233.247 137.607 233.283 137.112 233.436C137.112 233.436 136.876 231.141 137.112 230.694C137.218 230.483 138.35 228.388 138.881 227.941C139.27 227.624 139.872 227.883 139.884 228.388C139.884 229.036 139.306 231.541 139.754 232.412Z" fill="#FFD9B3"/>
<path d="M138.374 364.906L138.492 365.036C137.052 366.224 136.085 367.965 135.908 369.93L135.412 369.906C128.982 367.212 127.331 360.189 126.434 355.306C126.115 353.612 125.903 352.177 125.608 351.271C124.475 347.753 107.946 334.8 102.247 328.553C96.5607 322.294 96.8203 315.636 96.3719 312C95.9944 309.059 96.2304 301.718 90.9919 294.942C89.7649 293.353 88.2429 291.8 86.3434 290.342C85.8361 289.953 85.317 289.53 84.8096 289.071C79.3353 284.283 73.7665 276.553 70.0146 270.812L73.271 270.389C74.0732 271.483 75.1351 272.365 76.5391 272.765C76.5391 272.765 79.2055 268.224 83.0753 266.024C86.9451 263.824 89.3756 262.083 89.6115 257.542C89.6115 257.542 98.649 260.118 98.8732 263.6C98.8732 263.6 99.7108 265.365 100.938 268.189C101.634 269.789 102.46 271.73 103.333 273.883C104.926 277.789 106.672 282.4 108.076 286.93C109.846 292.577 111.096 298.094 110.907 301.965C110.341 313.671 127.779 339.565 130.622 345.365C133.466 351.153 138.256 361.377 138.374 364.906Z" fill="#FFD9B3"/>
<path d="M133.372 225.142C133.62 224.93 135.908 222.942 137.36 223.577C137.419 225.024 137.029 226.53 135.755 227.777C134.387 229.118 132.015 230.177 128.063 230.565C128.063 230.565 125.833 231.953 120.712 233.883C117.173 235.2 111.934 235.612 108.076 237.718C106.861 238.377 105.799 239.2 104.95 240.271C104.938 240.518 105.009 242.8 110.908 243.283C116.937 243.789 119.792 247.8 119.957 248.047C119.698 247.847 115.981 245.153 111.203 249.765C106.236 254.53 103.51 254.53 103.51 254.53C103.51 254.53 104.006 261.706 102.071 266.247C101.753 266.977 101.387 267.636 100.938 268.189C99.7115 265.365 98.8738 263.6 98.8738 263.6C98.6496 260.118 89.6122 257.542 89.6122 257.542C89.3762 262.083 86.9458 263.824 83.0759 266.024C79.2061 268.224 76.5397 272.765 76.5397 272.765C75.1357 272.365 74.0739 271.483 73.2716 270.389C70.7468 266.895 70.8176 261.153 70.8176 261.153C68.9416 262.2 67.1129 262.895 65.4022 263.33C58.4412 265.059 53.2264 262.542 53.2264 262.542C53.2264 262.542 57.6035 261.789 58.0873 257.695C58.2996 255.883 58.6536 254.4 59.0783 253.177C48.2121 251.436 50.4184 237.436 50.4184 237.436C53.3798 240.953 65.1072 239.93 67.3843 236.295C69.6731 232.659 77.8729 226.753 88.3498 228.577C95.063 229.742 99.1216 229.177 102.685 225.753H102.696C102.873 225.812 106.33 226.742 111.368 223.918C116.548 221.012 126.576 216.13 131.083 219.083C135.342 221.883 133.561 224.847 133.372 225.142Z" fill="#A5D75F"/>
<path d="M132.097 186.012C132.687 186.942 133.112 188.189 133.242 189.871C133.242 189.871 130.54 190.871 127.921 190.236C127.815 189.93 125.975 184.506 132.097 186.012Z" fill="#BCD8E2"/>
<path d="M131.118 184.882C131.484 185.188 131.814 185.565 132.098 186.012C125.974 184.506 127.815 189.929 127.921 190.224C125.856 189.729 123.851 188.188 123.261 184.341C123.261 184.341 128.169 182.365 131.118 184.882Z" fill="white"/>
<path d="M131.118 203.177V205.471C128.193 204.577 125.679 203.871 124.051 203.541C123.674 203.459 123.308 203.412 122.954 203.365L122.978 203.165C123.52 201.871 122.978 198.318 122.978 198.318C125.396 200.247 128.228 202.071 131.118 203.165V203.177Z" fill="#FFD9B3"/>
<path d="M131.118 184.882C128.168 182.365 123.26 184.341 123.26 184.341C123.26 184.341 121.255 184.447 120.712 182.671C120.712 182.671 127.083 179.929 131.118 184.882Z" fill="#FFED8E"/>
<path d="M124.181 126.377C124.181 126.377 128.287 129.271 126.01 133.824C126.01 133.824 127.414 140.377 122.907 141.989H122.895C121.126 141.306 119.12 140.859 116.725 140.977C113.032 141.153 107.947 143.859 104.761 149.894C104.761 149.894 95.0751 145.118 97.5881 139.047C97.5881 139.047 95.7594 127.741 104.478 127.683C104.478 127.683 105.576 125.471 108.714 124.294C110.165 123.753 112.041 123.436 114.448 123.647C114.448 123.647 121.456 121.612 124.181 126.377Z" fill="#FFED8E"/>
<path d="M115.603 193.129L115.579 193.223C115.579 193.223 115.981 201.247 115.473 206.294C114.317 207.529 113.173 209.165 111.922 211.223C105.173 193.8 94.8146 176.612 84.4911 161.765C79.1583 123.176 91.9712 91.4351 96.3719 81.7175C96.6905 81.0116 97.7287 81.1881 97.7877 81.9528C98.0709 85.5175 99.817 91.1292 101.799 96.894C106.684 111.094 108.713 124.294 108.713 124.294C105.575 125.47 104.477 127.682 104.477 127.682C95.7584 127.741 97.5872 139.047 97.5872 139.047C95.0741 145.117 104.76 149.894 104.76 149.894C102.979 153.27 101.799 157.694 101.799 163.306C101.799 178.917 108.406 182.67 108.406 182.67H108.63C108.607 184.494 109.02 186.776 110.624 188.917C112.748 191.729 114.364 192.835 115.603 193.129Z" fill="#D9F7FF"/>
<path d="M111.923 211.224C110.908 212.894 109.823 214.847 108.631 217.094C107.723 218.788 106.873 220.282 106.024 221.576C94.9333 218.094 67.1957 198.541 46.6903 164.306C30.7391 137.671 31.152 100.671 32.1195 85.5647C32.2021 84.2706 34.019 84.0706 34.3847 85.3059C36.768 93.2706 42.1362 107.329 53.0732 121.129C58.7245 128.271 71.5846 143.188 84.4919 161.765C94.8154 176.612 105.174 193.8 111.923 211.224Z" fill="#D9F7FF"/>
<path d="M86.3433 290.341C88.2428 291.8 89.7647 293.353 90.9918 294.941C82.9572 299.235 72.6927 304.47 70.3566 305.023L70.1915 305.211C69.0942 304.188 67.6194 303.564 66.0031 303.564C65.8025 303.564 65.6019 303.576 65.4014 303.6C65.4014 303.6 69.3538 294.788 78.698 292.929C79.3351 292.8 79.984 292.706 80.6683 292.647C80.6683 292.647 82.2965 291.223 84.8095 289.07C85.3168 289.529 85.8359 289.953 86.3433 290.341Z" fill="#FFD9B3"/>
<path d="M78.6993 292.918C69.355 294.789 65.4026 303.6 65.4026 303.6C62.63 303.859 60.4002 305.953 59.9282 308.636L57.9225 308.036C57.3562 307.859 57.0259 307.294 57.1321 306.73C57.3562 305.636 57.9933 303.765 59.8221 301.624C62.7362 298.212 65.2256 299.694 67.6207 296.847C70.0157 294.012 74.1097 288.894 76.0446 289.071C77.9206 289.236 78.6521 292.683 78.6993 292.918Z" fill="#A5D75F"/>
<path d="M73.2708 270.388L70.0145 270.812C67.1947 266.518 65.4014 263.329 65.4014 263.329C67.1121 262.894 68.9408 262.2 70.8168 261.153C70.8168 261.153 70.746 266.894 73.2708 270.388Z" fill="#FFD9B3"/>
<path d="M72.1741 309.73C72.1741 313.13 69.4133 315.883 66.0036 315.883C62.5939 315.883 59.8213 313.13 59.8213 309.73C59.8213 309.353 59.8567 308.988 59.9275 308.636C60.3994 305.953 62.6293 303.859 65.4019 303.6C65.6024 303.577 65.803 303.565 66.0036 303.565C67.6199 303.565 69.0947 304.188 70.1919 305.212C71.4072 306.33 72.1741 307.941 72.1741 309.73Z" fill="white"/>
<path d="M111.935 211.259C111.935 211.259 111.923 211.235 111.923 211.224C105.174 193.8 94.8154 176.612 84.4919 161.765C71.5846 143.188 58.7245 128.271 53.0732 121.129C42.1362 107.329 36.768 93.2706 34.3847 85.3059C34.019 84.0706 32.2021 84.2706 32.1195 85.5647C31.152 100.671 30.7391 137.671 46.6903 164.306C67.1957 198.541 94.9333 218.094 106.024 221.576" stroke="black" stroke-width="0.4" stroke-linecap="round" stroke-linejoin="round"/>
<path d="M131.119 203.165C128.228 202.071 125.396 200.247 122.978 198.318C120.654 196.459 118.707 194.494 117.492 192.988C116.902 192.259 116.489 191.647 116.265 191.188" stroke="black" stroke-width="0.4" stroke-linecap="round" stroke-linejoin="round"/>
<path d="M150.338 169.153C150.338 169.153 150.338 169.165 150.326 169.189C150.279 169.389 149.96 170.6 149.594 172.271C149.346 173.389 149.063 174.73 148.839 176.106C148.709 176.871 148.591 177.647 148.497 178.412C148.403 179.177 148.332 179.918 148.285 180.624C148.261 181.083 148.285 181.518 148.32 181.918C148.379 182.53 148.509 183.083 148.674 183.6C149.335 185.683 150.621 187.165 150.621 189.542C150.621 191.671 148.792 197.024 144.663 200.683C143.046 202.118 141.076 203.294 138.716 203.918C136.321 204.553 133.702 204.153 131.118 203.177" stroke="black" stroke-width="0.4" stroke-linecap="round" stroke-linejoin="round"/>
<path d="M120.712 159.835C120.712 159.835 121.892 163.423 126.163 166.635C128.062 168.07 130.575 169.411 133.867 170.341" stroke="black" stroke-width="0.4" stroke-linecap="round" stroke-linejoin="round"/>
<path d="M130.848 166.541C130.848 166.541 132.629 167.965 134.257 170.035C135.508 171.624 136.652 173.588 136.829 175.577C136.971 177.141 137.82 176.482 138.693 174.729C139.791 172.529 140.935 168.577 140.735 165.094C140.676 164.071 140.499 163.071 140.18 162.177C139.932 161.506 139.602 160.894 139.165 160.353" stroke="black" stroke-width="0.4" stroke-linecap="round" stroke-linejoin="round"/>
<path d="M145.158 164.659C144.745 163.824 144.037 162.847 142.846 161.706" stroke="black" stroke-width="0.4" stroke-linecap="round" stroke-linejoin="round"/>
<path d="M140.757 165.094C140.757 165.094 144.013 166.224 144.921 168.4C144.921 168.4 146.431 167.2 145.181 164.671" stroke="black" stroke-width="0.4" stroke-linecap="round" stroke-linejoin="round"/>
<path d="M145.158 164.659H145.182C145.453 164.776 148.025 165.882 150.326 169.188C151.27 170.553 152.166 172.294 152.839 174.494C152.839 174.494 153.382 173.988 153.653 172.753C153.924 171.506 153.924 169.553 152.839 166.647" stroke="black" stroke-width="0.4" stroke-linecap="round" stroke-linejoin="round"/>
<path d="M116.724 159.835C116.724 159.835 116.924 162.4 118.883 165.058C120.44 167.164 123.106 169.329 127.661 170.341C127.661 170.341 126.316 168.164 126.162 166.635" stroke="black" stroke-width="0.4" stroke-linecap="round" stroke-linejoin="round"/>
<path d="M118.883 165.059C118.883 165.059 117.184 173.53 114.447 177.106" stroke="black" stroke-width="0.4" stroke-linecap="round" stroke-linejoin="round"/>
<path d="M116.666 185.624H116.654C116.394 185.506 112.194 183.671 109.209 179.2C107.758 177.035 106.59 174.247 106.295 170.741" stroke="black" stroke-width="0.4" stroke-linecap="round" stroke-linejoin="round"/>
<path d="M113.928 172.906C113.928 172.906 114.01 174.789 114.293 177.13C114.647 180.224 115.355 184.142 116.653 185.612" stroke="black" stroke-width="0.4" stroke-linecap="round" stroke-linejoin="round"/>
<path d="M154.042 182.671H154.054C154.325 182.541 158.666 180.541 160.129 175.436C160.978 172.506 160.86 168.541 158.477 163.306" stroke="black" stroke-width="0.4" stroke-linecap="round" stroke-linejoin="round"/>
<path d="M153.652 172.753C153.652 172.753 156.318 178.683 154.053 182.659" stroke="black" stroke-width="0.4" stroke-linecap="round" stroke-linejoin="round"/>
<path d="M160.131 175.436C160.131 175.436 166.679 172.847 164.862 163.306C163.033 153.753 155.86 152.683 155.86 152.683C155.86 152.683 158.538 150.577 161.44 150.918C161.44 150.918 155.895 146.471 147.424 148.906" stroke="black" stroke-width="0.4" stroke-linecap="round" stroke-linejoin="round"/>
<path d="M142.668 146.212C141.5 146.753 140.333 147.494 139.224 148.471" stroke="black" stroke-width="0.4" stroke-linecap="round" stroke-linejoin="round"/>
<path d="M145.158 150.459C145.158 150.459 146.02 149.753 147.412 148.906H147.424C149.394 147.683 152.391 146.165 155.458 145.859C155.458 145.859 149.005 143.224 142.669 146.2" stroke="black" stroke-width="0.4" stroke-linecap="round" stroke-linejoin="round"/>
<path d="M122.895 141.988C121.125 141.306 119.12 140.859 116.725 140.976C113.032 141.153 107.947 143.859 104.761 149.894C102.98 153.27 101.8 157.694 101.8 163.306C101.8 178.917 108.407 182.67 108.407 182.67" stroke="black" stroke-width="0.4" stroke-linecap="round" stroke-linejoin="round"/>
<path d="M142.668 146.212C142.763 146.071 143.317 145.106 143.211 143.365C143.211 143.365 140.309 146.435 134.551 146.824C130.422 147.106 127.437 143.753 122.906 141.988" stroke="black" stroke-width="0.4" stroke-linecap="round" stroke-linejoin="round"/>
<path d="M109.209 179.2C109.209 179.2 108.654 180.647 108.631 182.683C108.607 184.494 109.02 186.777 110.625 188.918C112.748 191.73 114.365 192.835 115.604 193.13C116.37 193.318 116.984 193.2 117.491 192.988H117.503" stroke="black" stroke-width="0.4" stroke-linecap="round" stroke-linejoin="round"/>
<path d="M108.713 124.294C108.713 124.294 106.684 111.094 101.799 96.894C99.817 91.1292 98.0709 85.5175 97.7877 81.9528C97.7287 81.1881 96.6905 81.0116 96.3719 81.7175C91.9712 91.4351 79.1583 123.176 84.4911 161.765" stroke="black" stroke-width="0.4" stroke-linecap="round" stroke-linejoin="round"/>
<path d="M104.761 149.894C104.761 149.894 95.0751 145.118 97.5881 139.047C97.5881 139.047 95.7594 127.741 104.478 127.683C104.478 127.683 105.576 125.471 108.714 124.294C110.165 123.753 112.041 123.436 114.448 123.647C114.448 123.647 121.456 121.612 124.181 126.377C124.181 126.377 128.287 129.271 126.01 133.824C126.01 133.824 127.414 140.377 122.907 141.989H122.895" stroke="black" stroke-width="0.4" stroke-linecap="round" stroke-linejoin="round"/>
<path d="M141.843 175.095C141.843 175.095 141.878 175.036 141.937 174.942C142.338 174.377 143.836 172.33 145.653 171.765C146.443 171.506 147.305 171.542 148.142 172.106" stroke="black" stroke-width="0.4" stroke-linecap="round" stroke-linejoin="round"/>
<path d="M131.672 179.071C131.672 179.071 123.39 172.73 120.452 178.577" stroke="black" stroke-width="0.4" stroke-linecap="round" stroke-linejoin="round"/>
<path d="M141.937 192.176C141.937 192.176 143.271 190.965 143.224 190.129C143.188 189.365 140.876 188.212 140.427 186.682C140.368 186.529 140.345 186.376 140.345 186.212C140.345 186.047 140.345 185.871 140.357 185.706C140.416 184.612 140.699 183.588 141.194 182.671C142.362 180.4 144.686 178.788 147.376 178.482C147.648 178.447 147.955 178.423 148.273 178.388" stroke="black" stroke-width="0.4" stroke-linecap="round" stroke-linejoin="round"/>
<path d="M127.921 190.224C125.856 189.729 123.851 188.188 123.261 184.341C123.261 184.341 128.169 182.365 131.118 184.882C131.484 185.188 131.814 185.565 132.098 186.012C132.688 186.941 133.112 188.188 133.242 189.871C133.242 189.871 130.54 190.871 127.921 190.235" stroke="black" stroke-width="0.4" stroke-linecap="round" stroke-linejoin="round"/>
<path d="M140.415 186.682C140.509 186.741 141.736 187.33 143.813 186.682C145.123 186.282 146.762 185.4 148.65 183.6" stroke="black" stroke-width="0.4" stroke-linecap="round" stroke-linejoin="round"/>
<path d="M127.921 190.236C127.815 189.93 125.975 184.506 132.097 186.012" stroke="black" stroke-width="0.4" stroke-linecap="round" stroke-linejoin="round"/>
<path d="M143.824 186.682C143.824 186.682 142.975 183.317 144.992 181.612C146.903 180 148.271 181.917 148.271 181.917" stroke="black" stroke-width="0.4" stroke-linecap="round" stroke-linejoin="round"/>
<path d="M123.26 184.341C123.26 184.341 121.255 184.447 120.712 182.671C120.712 182.671 127.083 179.929 131.118 184.882" stroke="black" stroke-width="0.4" stroke-linecap="round" stroke-linejoin="round"/>
<path d="M141.183 182.67C141.183 182.67 141.843 179.847 143.991 177.894C145.147 176.859 146.716 176.07 148.84 176.106" stroke="black" stroke-width="0.4" stroke-linecap="round" stroke-linejoin="round"/>
<path d="M138.681 192.012C138.681 192.012 139.164 192.329 139.79 192.529" stroke="black" stroke-width="0.4" stroke-linecap="round" stroke-linejoin="round"/>
<path d="M144.309 194.541C143.695 195.612 142.74 196.412 142.032 196.894C141.477 197.259 140.84 197.482 140.179 197.541C138.339 197.717 136.876 197.67 135.743 197.517C133.006 197.141 132.098 196.129 132.098 196.129" stroke="black" stroke-width="0.4" stroke-linecap="round" stroke-linejoin="round"/>
<path d="M135.412 199.718C135.412 199.718 138.845 200.965 141.487 199.777C141.605 199.73 141.723 199.671 141.841 199.6" stroke="black" stroke-width="0.4" stroke-linecap="round" stroke-linejoin="round"/>
<path d="M115.58 193.224C115.58 193.224 115.981 201.247 115.474 206.294" stroke="black" stroke-width="0.4" stroke-linecap="round" stroke-linejoin="round"/>
<path d="M124.665 216.224C124.665 216.224 128.759 216.082 135.472 217.753C139.531 218.765 144.557 220.447 150.22 223.235C160.98 228.53 184.553 222.553 193.744 225.047C193.744 225.047 194.546 228.718 196.894 229.894C199.254 231.071 203.053 233.153 204.15 235.306C204.315 235.624 204.468 235.788 204.586 235.8C204.952 235.871 205.141 234.859 204.999 233.659C204.917 232.906 204.704 232.082 204.315 231.412C204.103 231.035 203.831 230.706 203.501 230.459" stroke="black" stroke-width="0.4" stroke-linecap="round" stroke-linejoin="round"/>
<path d="M102.696 225.753C103.829 224.647 104.914 223.271 106.023 221.577C106.873 220.283 107.722 218.788 108.631 217.094C109.822 214.847 110.908 212.894 111.923 211.224C113.173 209.165 114.318 207.53 115.474 206.294C117.692 203.93 119.945 203.024 122.954 203.365C123.308 203.412 123.674 203.459 124.051 203.541C125.679 203.871 128.192 204.577 131.118 205.471C139.991 208.2 152.626 212.635 155.8 213.235C160.024 214.024 164.684 211.988 172.554 214.365C180.411 216.753 191.867 220.33 196.079 219.941C200.291 219.541 201.377 222.777 205.589 224.424C209.813 226.071 210.839 225.047 212.432 225.671C214.025 226.294 216.479 228.965 216.479 228.965C215.11 229.518 213.553 229.224 212.349 228.812C211.193 228.412 210.379 227.894 210.379 227.894C209.152 228.012 208.055 228.094 207.064 228.153C196.905 228.8 197.896 226.871 197.896 226.871" stroke="black" stroke-width="0.4" stroke-linecap="round" stroke-linejoin="round"/>
<path d="M59.0783 253.176C48.2121 251.435 50.4184 237.435 50.4184 237.435C53.3798 240.953 65.1072 239.929 67.3843 236.294C69.6731 232.659 77.8729 226.753 88.3498 228.576C95.063 229.741 99.1216 229.176 102.685 225.753" stroke="black" stroke-width="0.4" stroke-linecap="round" stroke-linejoin="round"/>
<path d="M204.314 231.412L207.417 231.871L207.275 233.883" stroke="black" stroke-width="0.4" stroke-linecap="round" stroke-linejoin="round"/>
<path d="M207.063 228.153C207.063 228.153 208.55 229.471 210.402 230.93C213.588 233.424 217.871 236.342 217.635 233.765C217.599 233.342 213.269 230.636 212.349 228.812" stroke="black" stroke-width="0.4" stroke-linecap="round" stroke-linejoin="round"/>
<path d="M210.403 230.918C210.368 231.165 209.99 234 208.822 236.259" stroke="black" stroke-width="0.4" stroke-linecap="round" stroke-linejoin="round"/>
<path d="M204.587 235.8L218.615 261.659L222.225 268.294L219.347 261.635L208.445 236.424L207.418 234.059C207.418 234.059 207.371 233.988 207.277 233.883C207.006 233.565 206.286 233 205.059 233.659" stroke="black" stroke-width="0.4" stroke-linecap="round" stroke-linejoin="round"/>
<path d="M62.6652 247.965C62.6652 247.965 60.4943 249.106 59.0785 253.177C58.6538 254.4 58.2998 255.882 58.0874 257.694C57.6037 261.788 53.2266 262.541 53.2266 262.541C53.2266 262.541 58.4414 265.059 65.4024 263.33C67.1131 262.894 68.9418 262.2 70.8177 261.153C71.9504 260.518 73.0948 259.741 74.2628 258.824" stroke="black" stroke-width="0.4" stroke-linecap="round" stroke-linejoin="round"/>
<path d="M70.8176 261.153C70.8176 261.153 70.7468 266.894 73.2716 270.389C74.0739 271.483 75.1357 272.365 76.5397 272.765C76.5397 272.765 79.2061 268.224 83.076 266.024C86.9458 263.824 89.3762 262.083 89.6122 257.542C89.6122 257.542 98.6496 260.118 98.8738 263.6C98.8738 263.6 99.7115 265.365 100.939 268.189C101.635 269.789 102.46 271.73 103.334 273.883C104.926 277.789 106.672 282.4 108.076 286.93C109.846 292.577 111.097 298.094 110.908 301.965C110.342 313.671 127.78 339.565 130.623 345.365C133.466 351.153 138.256 361.377 138.374 364.906" stroke="black" stroke-width="0.4" stroke-linecap="round" stroke-linejoin="round"/>
<path d="M65.4014 263.33C65.4014 263.33 67.1947 266.518 70.0145 270.812C73.7663 276.553 79.3351 284.283 84.8095 289.071C85.3168 289.53 85.8359 289.953 86.3433 290.341C88.2428 291.8 89.7647 293.353 90.9918 294.941C96.2302 301.718 95.9942 309.059 96.3718 312C96.8201 315.635 96.5605 322.294 102.247 328.553C107.946 334.8 124.475 347.753 125.608 351.271C125.903 352.177 126.115 353.612 126.434 355.306C127.33 360.188 128.982 367.212 135.412 369.906" stroke="black" stroke-width="0.4" stroke-linecap="round" stroke-linejoin="round"/>
<path d="M119.968 248.059C119.803 247.8 116.948 243.789 110.919 243.283C105.02 242.8 104.949 240.518 104.961 240.283" stroke="black" stroke-width="0.4" stroke-linecap="round" stroke-linejoin="round"/>
<path d="M100.938 268.188C101.387 267.635 101.753 266.976 102.071 266.247C104.006 261.706 103.51 254.529 103.51 254.529C103.51 254.529 106.236 254.529 111.203 249.765C115.981 245.153 119.698 247.847 119.957 248.047" stroke="black" stroke-width="0.4" stroke-linecap="round" stroke-linejoin="round"/>
<path d="M138.492 365.035C139.743 364 141.359 363.376 143.105 363.376C147.093 363.376 150.338 366.612 150.338 370.588C150.338 374.565 147.093 377.8 143.105 377.8C139.118 377.8 135.873 374.576 135.873 370.588C135.873 370.365 135.885 370.153 135.908 369.929C136.085 367.965 137.053 366.224 138.492 365.035Z" stroke="black" stroke-width="0.4" stroke-linecap="round" stroke-linejoin="round"/>
<path d="M126.434 355.306C126.434 355.306 123.261 356.459 123.555 358.659C123.862 360.847 125.455 363.659 128.416 366.988C131.378 370.318 129.962 375.047 134.728 378.2C137.466 380.012 139.943 380.353 141.477 380.341C142.374 380.33 143.105 379.6 143.105 378.694V377.8" stroke="black" stroke-width="0.4" stroke-linecap="round" stroke-linejoin="round"/>
<path d="M70.3574 305.024C72.6935 304.471 82.958 299.236 90.9926 294.941" stroke="black" stroke-width="0.4" stroke-linecap="round" stroke-linejoin="round"/>
<path d="M119.969 248.059C119.969 248.059 139.849 262.541 139.849 266.741C139.849 270.941 140.639 276.847 137.513 278.106C135.224 279.024 119.049 283.283 108.076 286.93" stroke="black" stroke-width="0.4" stroke-linecap="round" stroke-linejoin="round"/>
<path d="M70.1919 305.212C71.4072 306.33 72.1741 307.941 72.1741 309.73C72.1741 313.13 69.4133 315.883 66.0036 315.883C62.5939 315.883 59.8213 313.13 59.8213 309.73C59.8213 309.353 59.8567 308.988 59.9275 308.636C60.3994 305.953 62.6293 303.859 65.4019 303.6C65.6024 303.577 65.803 303.565 66.0036 303.565C67.6199 303.565 69.0947 304.188 70.1919 305.212Z" stroke="black" stroke-width="0.4" stroke-linecap="round" stroke-linejoin="round"/>
<path d="M112.017 268.059C110.708 268.283 107.369 270.8 103.334 273.883" stroke="black" stroke-width="0.4" stroke-linecap="round" stroke-linejoin="round"/>
<path d="M78.6992 292.917C79.3362 292.8 79.985 292.706 80.6692 292.647C80.6692 292.647 82.2972 291.223 84.8098 289.07" stroke="black" stroke-width="0.4" stroke-linecap="round" stroke-linejoin="round"/>
<path d="M65.4014 303.6C65.4014 303.6 69.3538 294.789 78.698 292.93" stroke="black" stroke-width="0.4" stroke-linecap="round" stroke-linejoin="round"/>
<path d="M78.6993 292.93C78.6521 292.683 77.9206 289.236 76.0446 289.071C74.1097 288.894 70.0157 294.012 67.6207 296.847C65.2256 299.694 62.7362 298.212 59.8221 301.624C57.9933 303.765 57.3562 305.636 57.1321 306.73C57.0259 307.294 57.3562 307.859 57.9225 308.036L59.9282 308.636" stroke="black" stroke-width="0.4" stroke-linecap="round" stroke-linejoin="round"/>
<path d="M102.06 266.247H102.071C102.39 266.294 107.003 267.024 112.017 268.047C116.996 269.071 122.353 270.365 124.358 271.588" stroke="black" stroke-width="0.4" stroke-linecap="round" stroke-linejoin="round"/>
<path d="M133.348 225.165L133.371 225.141C133.619 224.929 135.908 222.941 137.358 223.576" stroke="black" stroke-width="0.4" stroke-linecap="round" stroke-linejoin="round"/>
<path d="M102.685 225.753H102.696C102.873 225.812 106.33 226.742 111.368 223.918C116.548 221.012 126.576 216.13 131.083 219.083C135.342 221.883 133.561 224.847 133.372 225.142" stroke="black" stroke-width="0.4" stroke-linecap="round" stroke-linejoin="round"/>
<path d="M135.413 217.977C135.413 217.977 137.265 220.671 137.36 223.577C137.419 225.024 137.029 226.53 135.755 227.777C134.387 229.118 132.015 230.177 128.063 230.565C128.063 230.565 125.833 231.953 120.712 233.882C117.173 235.2 111.935 235.612 108.077 237.718C106.861 238.377 105.8 239.2 104.95 240.271C104.561 240.753 104.23 241.282 103.959 241.859" stroke="black" stroke-width="0.4" stroke-linecap="round" stroke-linejoin="round"/>
<path d="M120.712 233.882C120.712 233.882 124.476 237.318 131.649 238.118C131.649 238.118 134.622 234.2 137.111 233.435C137.607 233.282 138.079 233.247 138.504 233.4C138.504 233.4 139.046 233.012 139.837 232.576C141.17 231.847 143.199 230.965 144.415 231.612" stroke="black" stroke-width="0.4" stroke-linecap="round" stroke-linejoin="round"/>
<path d="M142.421 233.741C142.421 233.741 143.247 232.647 144.415 231.612C145.323 230.812 146.444 230.035 147.53 229.859C147.978 229.776 148.273 230.341 147.942 230.682C146.361 232.353 142.68 236.365 141.619 238.8C141.619 238.8 145.264 238.176 146.008 239.423C146.751 240.67 143.093 241.012 141.961 241.859C140.816 242.718 140.651 243.459 137.749 243.506C134.835 243.565 127.201 243.682 123.166 243C119.119 242.318 108.076 237.718 108.076 237.718" stroke="black" stroke-width="0.4" stroke-linecap="round" stroke-linejoin="round"/>
<path d="M137.112 233.436C137.112 233.436 136.876 231.141 137.112 230.694C137.218 230.483 138.35 228.388 138.881 227.941C139.27 227.624 139.872 227.883 139.884 228.388C139.884 229.036 139.306 231.541 139.754 232.412" stroke="black" stroke-width="0.4" stroke-linecap="round" stroke-linejoin="round"/>
<path d="M218.614 261.659L210.402 260.718L214.508 265.271L204.314 270.965L214.485 270.377L209.612 279.918L221.092 273.224L222.224 280.941L224.053 273.33L230.094 279.236L227.463 269.812H234.424L229.067 266.247L236.358 261.741L226.33 262.2L228.949 253.177L219.345 261.636" stroke="black" stroke-width="0.4" stroke-linecap="round" stroke-linejoin="round"/>
<path d="M213.399 306.565L205.883 308.153L207.476 315.647L200.645 309.694L196.881 318.718L195.855 309.694L185.26 312.13L193.472 305.024L184.352 297.812L195.855 299.977L200.421 291.341L202.58 299.977L210.095 299.294L205.883 302.93L213.399 306.565Z" stroke="black" stroke-width="0.4" stroke-linecap="round" stroke-linejoin="round"/>
<path d="M271.919 327.729L260.947 332.965L267.058 339.165L257.254 336.812L256.204 345.271L248.193 336.941L244.075 343.918L244.524 334.729L237.763 339.353L243.603 330.482L235.073 325.141L247.367 326.141L248.582 315.882L252.983 325.318L259.932 320.682L259.035 327.376L271.919 327.729Z" stroke="black" stroke-width="0.4" stroke-linecap="round" stroke-linejoin="round"/>
<path d="M122.977 198.318C122.977 198.318 123.519 201.871 122.977 203.165" stroke="black" stroke-width="0.4" stroke-linecap="round" stroke-linejoin="round"/>
<path d="M131.118 203.165V203.176V205.47" stroke="black" stroke-width="0.4" stroke-linecap="round" stroke-linejoin="round"/>
<path d="M237.537 88.8345C237.228 89.0158 236.921 89.0549 236.614 88.952C236.33 88.8548 236.097 88.6521 235.915 88.3441C235.756 88.0417 235.68 87.7373 235.688 87.4309C235.73 87.0857 235.881 86.8279 236.139 86.6573C237.231 85.8474 238.35 85.3415 239.498 85.1396C240.595 84.9484 241.812 85.0257 243.151 85.3716C244.065 85.608 245.006 86.1121 245.971 86.8839C246.521 87.3345 247.3 88.0936 248.307 89.1611C249.105 90.0318 249.709 90.6389 250.119 90.9824C250.78 91.5565 251.4 91.9186 251.98 92.0684C252.961 92.3221 253.855 92.4106 254.66 92.3339C255.56 92.258 256.401 92.0005 257.182 91.5614C257.418 91.3851 257.695 91.3735 258.012 91.5267C258.285 91.6684 258.512 91.8933 258.694 92.2014C258.892 92.5375 258.97 92.8781 258.928 93.2233C258.88 93.5907 258.685 93.8844 258.342 94.1044C257.246 94.747 256.07 95.1075 254.811 95.1859C253.766 95.2716 252.618 95.1531 251.369 94.8303C250.387 94.5766 249.397 94.0359 248.398 93.208C247.804 92.7459 246.984 91.9642 245.937 90.8629C245.14 89.9922 244.544 89.3991 244.15 89.0836C243.529 88.5432 242.95 88.2039 242.415 88.0655C241.478 87.8234 240.612 87.7658 239.817 87.8927C239.067 88.0312 238.307 88.3451 237.537 88.8345Z" fill="#410A0A"/>
<path d="M225.695 69.9649C224.155 69.7566 222.828 69.6394 221.716 69.6131C221.073 69.6131 220.386 69.649 219.653 69.7207C219.066 69.7826 218.652 69.7707 218.412 69.685C218.084 69.5763 217.564 69.2402 216.853 68.6768C216.21 68.1307 215.734 67.6278 215.424 67.1681C215.177 66.748 215.065 66.3987 215.09 66.1203C215.137 65.8476 215.27 65.6565 215.489 65.5469C215.68 65.4538 215.903 65.4641 216.159 65.5777C217.608 66.0472 218.86 66.4062 219.914 66.655C221.392 67.0132 223.197 67.3492 225.33 67.6629C225.726 67.6941 226.114 67.7114 226.494 67.7147C226.713 67.6998 226.992 67.6772 227.333 67.6466C227.854 67.5675 228.231 67.5819 228.465 67.6898C228.81 67.8265 229.226 68.1951 229.713 68.7957C230.288 69.514 230.52 70.0844 230.411 70.507C230.341 70.774 230.034 71.1336 229.488 71.5859C229.099 71.8891 228.809 72.1346 228.618 72.3224C228.291 72.6652 228.027 73.0363 227.828 73.4359C228.503 74.3222 228.65 74.9895 228.272 75.4377C227.95 75.8529 227.384 75.9678 226.576 75.7825L222.817 75.1316C221.857 74.9785 221.162 74.8582 220.733 74.771C220.024 74.659 219.466 74.5622 219.058 74.4807C218.938 74.8531 218.834 75.2534 218.746 75.6818C218.659 76.1102 218.613 76.5139 218.61 76.8928C219.364 77.0163 220.184 77.1098 221.072 77.1731C221.614 77.1945 222.349 77.2064 223.277 77.2088C224.842 77.2334 225.886 77.3371 226.41 77.5199C227.218 77.8 227.662 78.4252 227.743 79.3956C227.752 80.2763 227.204 80.7397 226.096 80.7859C225.398 80.8189 223.921 80.639 221.666 80.2463L218.209 79.6732C217.225 79.7037 216.516 79.3187 216.081 78.518C215.547 77.5492 215.698 76.2352 216.534 74.576C216.469 74.3693 216.356 74.1621 216.196 73.9545C216.085 73.831 215.916 73.6567 215.689 73.4319C215.312 73.0496 215.058 72.7465 214.926 72.5224C214.711 72.1583 214.63 71.7815 214.684 71.3918C214.788 70.9914 215.178 70.8192 215.854 70.8752C216.278 70.89 217.126 71.0617 218.398 71.3903C219.831 71.737 220.961 71.9696 221.787 72.0882C223.227 72.3179 224.57 72.4158 225.817 72.382C225.904 72.0483 225.965 71.72 226.002 71.3971C226.039 70.9794 226.059 70.5337 226.063 70.0601L225.695 69.9649ZM218.921 85.5896C215.779 85.0388 213.118 84.6954 210.94 84.5597C209.739 84.5104 208.498 84.522 207.217 84.5946C206.395 84.6432 205.823 84.6021 205.5 84.4711C205.087 84.3171 204.421 83.86 203.499 83.0997C201.99 81.855 201.163 80.8698 201.018 80.1441C200.884 79.4686 201.331 79.2634 202.357 79.5286C204.05 80.1562 206.37 80.8031 209.315 81.4693C211.429 81.9445 214.389 82.5551 218.194 83.3012C218.197 83.017 218.157 82.7101 218.076 82.3806C218.028 82.2018 217.929 81.9391 217.781 81.5922C217.623 81.1952 217.53 80.9102 217.504 80.7372C217.433 80.4579 217.472 80.2186 217.619 80.0192C217.761 79.7473 218.039 79.6411 218.452 79.7003C218.915 79.7489 219.475 79.9766 220.131 80.3835C221.082 80.9379 221.589 81.4132 221.653 81.8094C221.701 82.0829 221.51 82.4965 221.08 83.0501L220.69 83.5901C221.934 83.8405 223.042 83.9726 224.015 83.9865C224.579 84.0137 225.242 83.9832 226.003 83.895C226.618 83.8166 227.085 83.8067 227.403 83.8652C227.866 83.9138 228.398 84.1106 228.999 84.4557C230.101 84.9779 230.808 85.5998 231.121 86.3215C231.428 86.9706 231.334 87.5633 230.837 88.0997C230.488 88.4366 230.126 88.5923 229.752 88.5668C229.489 88.5701 228.915 88.398 228.029 88.0504C226.809 87.6164 225.714 87.2503 224.744 86.9522C223.015 86.458 221.074 86.0038 218.921 85.5896ZM219.165 88.3588C220.86 88.797 222.148 89.7945 223.029 91.3514C223.816 92.8127 224.024 94.2552 223.654 95.6788C223.261 97.1913 222.41 98.3599 221.1 99.1846C219.673 100.098 218.033 100.315 216.182 99.8362C214.665 99.4442 213.405 98.4776 212.401 96.9363C211.397 95.3951 211.077 93.9238 211.441 92.5225C211.852 90.9432 212.697 89.7495 213.979 88.9412C215.406 88.0284 217.135 87.8342 219.165 88.3588ZM218.527 91.3629C217.434 91.0804 216.461 91.1138 215.609 91.4632C214.778 91.8183 214.271 92.3517 214.086 93.0635C213.912 93.7308 214.102 94.4207 214.655 95.1333C215.246 95.8796 216.077 96.3911 217.148 96.6678C218.263 96.9561 219.15 96.8884 219.807 96.465C220.375 96.1132 220.754 95.5702 220.945 94.8362C221.107 94.2134 221.001 93.5688 220.626 92.9024C220.186 92.1239 219.486 91.6107 218.527 91.3629Z" fill="#410A0A"/>
<path d="M182.142 84.6297C179.301 84.1093 176.862 83.7874 174.823 83.664C173.7 83.5875 172.526 83.569 171.302 83.6086C170.508 83.6408 169.969 83.6083 169.685 83.5112C169.311 83.3909 168.795 83.0437 168.135 82.4696C167.32 81.6656 166.667 80.9271 166.175 80.2541C165.755 79.6709 165.503 79.1783 165.417 78.7763C165.331 78.3743 165.4 78.1074 165.625 77.9755C165.872 77.8495 166.235 77.8721 166.714 78.0434C168.703 78.8185 171.152 79.6058 174.063 80.4055C176.89 81.1599 179.679 81.7858 182.43 82.2831C182.546 81.8383 182.547 81.3283 182.435 80.7533C182.354 80.4238 182.19 79.9543 181.944 79.3447C181.681 78.7071 181.534 78.2655 181.503 78.02C181.423 77.5958 181.507 77.2733 181.754 77.0525C180.861 76.9166 180.209 76.7243 179.798 76.4755C179.147 76.0464 178.715 75.3293 178.5 74.3243C178.464 73.9116 178.518 73.5219 178.661 73.1553C178.769 72.9222 178.934 72.6087 179.155 72.2149C179.427 71.8104 179.606 71.4887 179.692 71.2498C179.869 70.8445 179.953 70.4272 179.946 69.998C179.935 69.9477 179.88 69.886 179.78 69.8127C179.724 69.7509 179.608 69.6496 179.43 69.5087C178.792 69.0351 178.337 68.6327 178.066 68.3015C177.59 67.7513 177.44 67.2735 177.617 66.8682C177.855 66.5024 178.189 66.3157 178.62 66.3083C179.05 66.3009 179.879 66.4557 181.106 66.7727C182.132 67.0379 183.644 67.3101 185.642 67.5892C187.691 67.8576 189.16 67.9761 190.049 67.9447C190.022 67.8665 190.02 67.7355 190.044 67.5518C190.051 67.4348 190.078 67.1926 190.126 66.8252L190.377 64.8962C189.082 64.7513 187.909 64.6855 186.858 64.6988C186.237 64.7046 185.524 64.7458 184.719 64.8225C183.936 64.905 183.385 64.9169 183.067 64.8585C182.621 64.7432 182.098 64.4182 181.499 63.8836C180.634 63.1851 179.988 62.5554 179.562 61.9944C179.17 61.4894 178.955 61.078 178.919 60.76C178.905 60.4478 179.027 60.2538 179.285 60.1779C179.548 60.0799 179.905 60.1248 180.357 60.3126C181.882 60.9443 183.432 61.4397 185.005 61.7987C186.695 62.1644 188.195 62.3027 189.503 62.2136C189.794 62.1938 190.074 62.1711 190.342 62.1456C190.516 62.1192 190.726 62.0903 190.972 62.059C191.492 61.9799 191.883 61.986 192.145 62.0775C192.485 62.2364 193.015 62.6701 193.735 63.3785C194.5 64.1932 194.894 64.7818 194.919 65.1442C194.945 65.412 194.704 65.7889 194.197 66.275C193.841 66.6342 193.556 66.9522 193.342 67.229C192.963 67.6772 192.621 68.1702 192.314 68.7082C193.317 69.798 193.583 70.6502 193.114 71.2648C192.673 71.8629 191.856 71.9841 190.663 71.6283L188.093 71.2133C187.071 71.0206 186.273 70.8856 185.698 70.8082C184.694 70.6435 183.764 70.5101 182.91 70.408C183.018 70.8158 183.032 71.1754 182.951 71.4868C182.899 71.687 182.751 71.9811 182.508 72.3691C182.349 72.613 182.238 72.8099 182.175 72.9598C182.039 73.2094 181.922 73.4759 181.825 73.7593C183.214 74.0945 184.497 74.2839 185.676 74.3274C186.33 74.3776 187.132 74.3595 188.083 74.2729C188.592 74.2382 188.952 74.2246 189.165 74.232C189.522 74.2295 189.852 74.2909 190.152 74.4161C191.11 74.8534 191.687 75.3823 191.883 76.0026C192.078 76.6229 191.827 77.2226 191.129 77.8018C190.758 78.0383 190.229 78.1507 189.542 78.1393C189.117 78.1245 188.35 78.0092 187.239 77.7935C186.62 77.7045 186.14 77.628 185.799 77.5637C185.202 77.4806 184.658 77.4229 184.166 77.3909C185.533 78.3612 186.317 79.1454 186.518 79.7434C186.655 80.1347 186.508 80.6546 186.077 81.3029C185.907 81.5913 185.774 81.8298 185.677 82.0184C185.535 82.2903 185.435 82.5848 185.376 82.902C186.52 83.079 187.517 83.1823 188.366 83.2119C188.841 83.216 189.384 83.19 189.993 83.1339C190.463 83.0655 190.813 83.049 191.042 83.0844C191.41 83.1322 191.859 83.2837 192.387 83.5391C193.478 84.1057 194.185 84.7277 194.509 85.4048C194.86 86.1602 194.703 86.8555 194.038 87.4907C193.621 87.9051 193.248 88.1053 192.918 88.0913C192.655 88.0946 192.143 87.9147 191.38 87.5514C190.228 87.04 189.172 86.6129 188.214 86.2703C186.492 85.6591 184.516 85.1127 182.284 84.631L182.142 84.6297Z" fill="#410A0A"/>
<path d="M139.73 58.3584C139.731 58.169 139.675 57.9288 139.56 57.638C139.511 57.4593 139.407 57.1714 139.249 56.7743C138.893 55.9464 138.699 55.3624 138.669 55.0221C138.607 54.4364 138.839 54.0929 139.365 53.9915C140.009 53.802 140.776 54.0594 141.664 54.7636C142.507 55.4564 142.954 56.1652 143.004 56.8902C143.182 56.9363 143.391 56.9548 143.632 56.9457C143.771 56.9581 143.995 56.9683 144.302 56.9766C144.906 56.9427 145.308 56.9991 145.508 57.1458C145.842 57.327 146 57.7714 145.983 58.479C145.994 59.1702 145.794 59.6171 145.384 59.8198C145.109 59.9624 144.606 60.0221 143.874 59.9991L142.901 60.0326L142.264 62.8945C142.666 62.9982 143.168 63.0332 143.772 62.9994C144.376 62.9656 144.835 62.8943 145.149 62.7855C145.438 61.6734 145.662 60.7223 145.819 59.9322C146.064 58.8086 146.228 57.8542 146.313 57.0691C146.343 56.8631 146.326 56.6094 146.261 56.3079C146.218 56.1069 146.146 55.7914 146.043 55.3614C145.794 54.4898 145.679 53.8786 145.699 53.5276C145.737 52.9205 146.076 52.5806 146.713 52.5081C147.524 52.5039 148.277 52.9952 148.973 53.9821C149.685 54.997 149.855 55.9905 149.483 56.9626C149.169 58.4479 148.817 59.71 148.428 60.7488C148.05 61.7432 147.595 62.67 147.062 63.5293C147.342 64.8358 146.994 65.5768 146.02 65.7524C145.248 65.8851 143.775 65.6467 141.6 65.0372C141.007 65.7622 140.499 66.07 140.075 65.9604C139.623 65.8674 139.39 65.2969 139.377 64.249C139.383 63.4911 139.415 62.7279 139.472 61.9593C139.499 61.4914 139.552 60.8286 139.632 59.971L139.762 58.5092L139.73 58.3584ZM153.843 61.7567L153.13 64.7768C153.654 64.9597 154.248 65.054 154.913 65.0597C155.439 65.053 155.967 64.9879 156.499 64.8643L156.614 64.1464C156.685 63.69 156.739 63.3477 156.774 63.1195C156.855 62.8081 156.939 62.4856 157.026 62.1519C156.78 62.0885 156.521 62.0333 156.247 61.9864C156.086 61.9683 155.82 61.9354 155.452 61.8876L154.061 61.7419L153.843 61.7567ZM150.993 59.8095C151.04 59.5368 151.035 59.1912 150.977 58.7728C150.945 58.5273 150.865 58.1504 150.735 57.6421C150.562 56.9328 150.477 56.4361 150.48 56.1519C150.484 55.6782 150.654 55.3898 150.99 55.2868C151.663 54.9861 152.424 55.2657 153.272 56.1257C154.142 56.9915 154.542 57.8782 154.473 58.7861C155.261 58.7761 155.83 58.8284 156.182 58.9429C156.756 59.115 157.155 59.4556 157.38 59.9647C157.717 59.126 157.859 58.2606 157.805 57.3685C157.748 56.8552 157.589 56.1851 157.328 55.358C157.165 54.7937 157.079 54.3917 157.07 54.152C157.061 53.8175 157.187 53.565 157.445 53.3945C157.89 53.0583 158.495 53.1555 159.262 53.686C160.012 54.1884 160.626 54.8931 161.105 55.8001C161.451 56.483 161.625 57.0502 161.627 57.5016C161.624 57.7858 161.526 58.164 161.332 58.636L160.98 59.5777C160.433 61.4065 159.977 62.7485 159.612 63.6037C159.384 64.1144 159.123 64.5692 158.829 64.9679C158.682 65.1673 158.572 65.3168 158.498 65.4165C158.379 65.5994 158.274 65.8214 158.182 66.0826C158.434 67.3108 158.155 67.9744 157.343 68.0734C156.605 68.1673 154.926 67.8046 152.306 66.9851C151.704 67.4704 151.205 67.6026 150.81 67.3819C150.438 67.1669 150.216 66.6467 150.145 65.8212L150.548 62.7567L150.95 59.9763L150.993 59.8095ZM147.248 76.0036C144.347 75.4437 141.874 75.0657 139.83 74.8698C138.691 74.7653 137.518 74.6995 136.311 74.6724C135.528 74.6601 134.984 74.6025 134.677 74.4995C134.304 74.3793 133.734 74.0539 132.967 73.5234C132.002 72.6569 131.301 71.918 130.865 71.3068C130.501 70.7853 130.337 70.3631 130.373 70.0402C130.42 69.7675 130.598 69.5879 130.906 69.5014C131.164 69.4256 131.457 69.442 131.786 69.5508C132.922 70.0342 134.496 70.5717 136.509 71.163C138.633 71.7831 140.746 72.3057 142.85 72.7306C142.928 72.0625 142.895 71.3656 142.751 70.6398C142.665 70.2378 142.51 69.6875 142.287 68.9889C142.075 68.3406 141.956 67.8826 141.93 67.6149C141.911 67.2302 142.048 66.9332 142.34 66.7239C142.718 66.3705 143.26 66.3918 143.966 66.788C144.672 67.1842 145.349 67.8337 145.995 68.7366C146.276 69.2127 146.401 69.6011 146.37 69.9018C146.357 70.1358 146.214 70.5024 145.942 71.0016C145.754 71.3567 145.606 71.6508 145.498 71.8839C145.293 72.3057 145.119 72.7473 144.975 73.2086C145.862 73.3667 146.853 73.5397 147.947 73.7274C149.203 73.9333 150.355 74.1243 151.404 74.3005C151.597 73.377 151.699 72.5726 151.71 71.8872C151.764 70.8566 151.663 69.8693 151.409 68.9252C151.08 68.1756 151.096 67.61 151.457 67.2286C151.83 66.8027 152.408 66.8216 153.192 67.2853C153.586 67.6008 153.952 67.9328 154.29 68.2812C154.711 68.7697 155.08 69.3162 155.399 69.9209C155.652 70.4135 155.749 70.8184 155.691 71.1356C155.655 71.3637 155.47 71.7077 155.137 72.1674C154.848 72.5439 154.622 72.8652 154.458 73.1313C154.169 73.6025 153.915 74.1187 153.698 74.6797C154.206 74.7398 154.709 74.7748 155.206 74.7846C155.469 74.7813 155.833 74.7565 156.297 74.7104C156.906 74.6543 157.367 74.6666 157.68 74.7473C158.182 74.8297 158.744 75.0937 159.366 75.5393C160.211 76.1373 160.675 76.7321 160.759 77.3235C160.827 77.887 160.571 78.4143 159.991 78.9053C159.653 79.1978 159.342 79.3428 159.057 79.3403C158.822 79.3272 158.293 79.1666 157.468 78.8585C156.231 78.3965 155.095 78.0077 154.058 77.6923C152.157 77.1298 150.001 76.5846 147.591 76.0567L147.248 76.0036Z" fill="#410A0A"/>
</g>
<defs>
<filter id="filter0_d_523_3278" x="0" y="0" width="304" height="428" filterUnits="userSpaceOnUse" color-interpolation-filters="sRGB">
<feFlood flood-opacity="0" result="BackgroundImageFix"/>
<feColorMatrix in="SourceAlpha" type="matrix" values="0 0 0 0 0 0 0 0 0 0 0 0 0 0 0 0 0 0 127 0" result="hardAlpha"/>
<feOffset dx="3" dy="3"/>
<feGaussianBlur stdDeviation="4"/>
<feComposite in2="hardAlpha" operator="out"/>
<feColorMatrix type="matrix" values="0 0 0 0 0 0 0 0 0 0 0 0 0 0 0 0 0 0 0.2 0"/>
<feBlend mode="normal" in2="BackgroundImageFix" result="effect1_dropShadow_523_3278"/>
<feBlend mode="normal" in="SourceGraphic" in2="effect1_dropShadow_523_3278" result="shape"/>
</filter>
</defs>
</svg>
