<svg width="244" height="356" viewBox="0 0 244 356" fill="none" xmlns="http://www.w3.org/2000/svg">
<g filter="url(#filter0_d_570_3160)">
<rect x="5" y="5" width="228" height="340" rx="12" fill="url(#paint0_linear_570_3160)"/>
<rect x="7" y="7" width="224" height="336" rx="10" stroke="url(#paint1_linear_570_3160)" stroke-width="4"/>
<rect x="13" y="13" width="212" height="324" rx="7" stroke="white" stroke-width="2"/>
<path d="M80.4541 138.37C81.1074 137.903 81.8307 137.565 82.6241 137.355C83.4407 137.145 84.2574 137.04 85.0741 137.04C86.5207 137.04 87.8274 137.262 88.9941 137.705C90.1841 138.125 91.1874 138.778 92.0041 139.665C92.8441 140.552 93.4857 141.66 93.9291 142.99C94.3957 144.32 94.6291 145.895 94.6291 147.715C94.6291 149.092 94.4307 150.422 94.0341 151.705C93.6607 152.988 93.0541 154.12 92.2141 155.1C91.3974 156.08 90.3357 156.862 89.0291 157.445C87.7457 158.052 86.1941 158.355 84.3741 158.355C83.0674 158.355 81.8424 158.157 80.6991 157.76C79.5557 157.387 78.5407 156.792 77.6541 155.975C76.7674 155.182 76.0441 154.167 75.4841 152.93C74.9241 151.693 74.5857 150.212 74.4691 148.485H79.7891C80.0924 152.148 81.6791 153.98 84.5491 153.98C86.1591 153.98 87.3724 153.42 88.1891 152.3C89.0291 151.157 89.4491 149.523 89.4491 147.4C89.4491 146.513 89.3557 145.708 89.1691 144.985C89.0057 144.238 88.7374 143.608 88.3641 143.095C88.0141 142.558 87.5357 142.15 86.9291 141.87C86.3457 141.567 85.6341 141.415 84.7941 141.415C83.6741 141.415 82.7524 141.66 82.0291 142.15C81.3057 142.64 80.7107 143.34 80.2441 144.25H75.2041V127.065H93.6491V131.545H80.4541V138.37ZM98.6781 143.83V126.365H116.983V130.775H104.138V139.455H117.683V143.83H98.6781ZM100.078 146.7H105.538V153.91H126.713V158.285H100.078V146.7ZM130.633 134.905V139.28H126.013V150.34H120.588V125.91H126.013V134.905H130.633ZM147.8 126.365V133.4H150.88V126.19H156.095V158.18H150.88V149.29H147.275V144.915H150.88V137.775H147.73C147.59 139.992 147.216 142.092 146.61 144.075C146.026 146.058 145.175 147.913 144.055 149.64C142.958 151.343 141.581 152.907 139.925 154.33C138.291 155.777 136.343 157.048 134.08 158.145L131.42 154.225C135.013 152.452 137.731 150.188 139.575 147.435C141.418 144.682 142.34 141.438 142.34 137.705V130.74H133.31V126.365H147.8ZM157.565 125.91H162.815V158.74H157.565V125.91ZM76.1272 202.99V185.91H81.5522V202.99H76.1272ZM54.2172 209.465H76.1272V208.345H54.2172V204.32H81.5522V213.49H59.6772V214.61H82.2522V218.635H54.2172V209.465ZM69.6172 202.255C68.2172 201.648 66.8872 200.843 65.6272 199.84C64.3672 198.837 63.1772 197.483 62.0572 195.78C61.0772 197.343 59.9105 198.732 58.5572 199.945C57.2039 201.135 55.7105 202.127 54.0772 202.92L51.2772 199.21C53.7505 197.997 55.6872 196.515 57.0872 194.765C58.5105 193.015 59.2222 190.938 59.2222 188.535V186.19H64.7172V188.395C64.7172 189.655 64.9272 190.81 65.3472 191.86C65.7672 192.887 66.3272 193.82 67.0272 194.66C67.7272 195.5 68.5322 196.235 69.4422 196.865C70.3522 197.472 71.2972 197.985 72.2772 198.405L69.6172 202.255ZM105.089 218.005H87.1336V186.365H92.5936V198.72H99.6286V186.365H105.089V218.005ZM110.444 218.635V185.91H115.869V218.635H110.444ZM99.6286 203.095H92.5936V213.665H99.6286V203.095ZM139.825 186.365C141.272 186.365 142.52 186.528 143.57 186.855C144.643 187.182 145.565 187.613 146.335 188.15C147.105 188.687 147.735 189.305 148.225 190.005C148.715 190.705 149.1 191.428 149.38 192.175C149.683 192.922 149.882 193.668 149.975 194.415C150.092 195.162 150.15 195.85 150.15 196.48C150.15 197.437 150.022 198.498 149.765 199.665C149.508 200.832 149.007 201.94 148.26 202.99C147.537 204.017 146.498 204.88 145.145 205.58C143.792 206.28 142.03 206.63 139.86 206.63H132.44C130.993 206.63 129.733 206.467 128.66 206.14C127.587 205.813 126.665 205.382 125.895 204.845C125.125 204.285 124.495 203.655 124.005 202.955C123.538 202.255 123.165 201.532 122.885 200.785C122.605 200.038 122.407 199.292 122.29 198.545C122.197 197.798 122.15 197.11 122.15 196.48C122.15 195.85 122.197 195.162 122.29 194.415C122.407 193.668 122.605 192.922 122.885 192.175C123.188 191.428 123.585 190.705 124.075 190.005C124.565 189.305 125.195 188.687 125.965 188.15C126.735 187.613 127.645 187.182 128.695 186.855C129.768 186.528 131.028 186.365 132.475 186.365H139.825ZM120.05 213.56H126.63V208.065H132.09V213.56H140.21V208.065H145.67V213.56H152.25V217.935H120.05V213.56ZM127.505 196.48C127.505 197.227 127.587 197.95 127.75 198.65C127.937 199.327 128.228 199.945 128.625 200.505C129.022 201.042 129.547 201.473 130.2 201.8C130.877 202.127 131.693 202.29 132.65 202.29H139.65C140.63 202.29 141.447 202.138 142.1 201.835C142.753 201.508 143.278 201.077 143.675 200.54C144.095 200.003 144.387 199.385 144.55 198.685C144.713 197.985 144.795 197.25 144.795 196.48C144.795 195.733 144.713 195.022 144.55 194.345C144.387 193.645 144.095 193.027 143.675 192.49C143.278 191.953 142.753 191.533 142.1 191.23C141.447 190.903 140.63 190.74 139.65 190.74H132.65C131.693 190.74 130.877 190.903 130.2 191.23C129.547 191.557 129.022 191.988 128.625 192.525C128.228 193.062 127.937 193.68 127.75 194.38C127.587 195.057 127.505 195.757 127.505 196.48ZM164.236 218.635C163.186 218.635 162.195 218.542 161.261 218.355C160.328 218.168 159.511 217.83 158.811 217.34C158.111 216.873 157.551 216.232 157.131 215.415C156.711 214.598 156.501 213.548 156.501 212.265C156.501 211.052 156.711 210.037 157.131 209.22C157.551 208.403 158.111 207.762 158.811 207.295C159.511 206.828 160.316 206.502 161.226 206.315C162.16 206.105 163.14 206 164.166 206H177.536C178.54 206 179.508 206.105 180.441 206.315C181.375 206.502 182.191 206.828 182.891 207.295C183.591 207.762 184.151 208.403 184.571 209.22C184.991 210.037 185.201 211.052 185.201 212.265C185.201 213.548 184.991 214.598 184.571 215.415C184.151 216.232 183.591 216.873 182.891 217.34C182.191 217.83 181.375 218.168 180.441 218.355C179.508 218.542 178.516 218.635 177.466 218.635H164.236ZM172.461 203.585C171.061 203.212 169.696 202.605 168.366 201.765C167.06 200.902 165.846 199.7 164.726 198.16C163.723 199.653 162.521 200.925 161.121 201.975C159.721 203.002 158.17 203.842 156.466 204.495L154.016 200.855C156.49 199.828 158.415 198.592 159.791 197.145C161.168 195.675 161.856 193.82 161.856 191.58V190.775H155.241V186.365H173.896V190.775H167.316V191.44C167.316 192.537 167.515 193.54 167.911 194.45C168.331 195.337 168.88 196.13 169.556 196.83C170.256 197.507 171.061 198.102 171.971 198.615C172.881 199.105 173.826 199.502 174.806 199.805L172.461 203.585ZM179.076 185.91H184.501V204.915H179.076V197.075H173.301V192.665H179.076V185.91ZM161.856 212.195C161.856 212.755 162.008 213.245 162.311 213.665C162.638 214.108 163.268 214.33 164.201 214.33H177.501C178.435 214.33 179.053 214.108 179.356 213.665C179.683 213.245 179.846 212.755 179.846 212.195C179.846 211.658 179.671 211.215 179.321 210.865C178.995 210.492 178.388 210.305 177.501 210.305H164.201C163.315 210.305 162.696 210.492 162.346 210.865C162.02 211.215 161.856 211.658 161.856 212.195Z" fill="white"/>
</g>
<defs>
<filter id="filter0_d_570_3160" x="0" y="0" width="244" height="356" filterUnits="userSpaceOnUse" color-interpolation-filters="sRGB">
<feFlood flood-opacity="0" result="BackgroundImageFix"/>
<feColorMatrix in="SourceAlpha" type="matrix" values="0 0 0 0 0 0 0 0 0 0 0 0 0 0 0 0 0 0 127 0" result="hardAlpha"/>
<feOffset dx="3" dy="3"/>
<feGaussianBlur stdDeviation="4"/>
<feComposite in2="hardAlpha" operator="out"/>
<feColorMatrix type="matrix" values="0 0 0 0 0 0 0 0 0 0 0 0 0 0 0 0 0 0 0.2 0"/>
<feBlend mode="normal" in2="BackgroundImageFix" result="effect1_dropShadow_570_3160"/>
<feBlend mode="normal" in="SourceGraphic" in2="effect1_dropShadow_570_3160" result="shape"/>
</filter>
<linearGradient id="paint0_linear_570_3160" x1="233" y1="175" x2="5" y2="175" gradientUnits="userSpaceOnUse">
<stop stop-color="#961200"/>
<stop offset="1" stop-color="#660C00"/>
</linearGradient>
<linearGradient id="paint1_linear_570_3160" x1="233" y1="175" x2="5" y2="175" gradientUnits="userSpaceOnUse">
<stop stop-color="#961200"/>
<stop offset="1" stop-color="#660C00"/>
</linearGradient>
</defs>
</svg>
