<svg width="505" height="309" viewBox="0 0 505 309" fill="none" xmlns="http://www.w3.org/2000/svg">
<rect opacity="0.2" width="505" height="309" rx="12" fill="#961200"/>
<g opacity="0.3">
<mask id="mask0_983_6195" style="mask-type:alpha" maskUnits="userSpaceOnUse" x="397" y="179" width="85" height="174">
<g clip-path="url(#clip0_983_6195)">
<path d="M465.059 250.988C469.667 259.032 469.754 268.487 468.318 277.448C466.881 286.409 463.903 295.194 459.856 303.326C456.23 310.611 451.745 317.579 446.104 323.453C441.286 328.481 435.891 332.996 430.302 337.124C424.714 341.252 419.231 345.009 413.012 347.373C411.172 348.078 408.755 348.925 406.915 348.661C405.566 348.484 404.795 347.761 404.638 346.808C404.427 345.538 405.216 343.122 405.759 341.481C406.757 338.5 407.879 335.572 408.86 332.591C411.75 323.788 413.642 314.563 414.255 305.302C414.746 297.893 413.625 290.766 412.311 283.499C411.558 279.283 410.927 275.049 410.576 270.78C410.103 265.189 409.701 259.755 411.943 254.481C413.047 251.906 409.263 249.648 408.159 252.259C404.34 261.272 405.934 271.433 407.441 280.853C408.509 287.556 410.051 294.136 410.033 300.98C410.016 310.876 408.001 320.878 405.006 330.28C403.937 333.649 402.658 336.965 401.519 340.317C400.819 342.416 400.065 344.692 400.241 346.95C400.626 351.942 405.566 353.564 409.823 352.859C416.13 351.818 422.121 347.973 427.359 344.515C440.603 335.731 452.568 324.988 460.627 311.105C466.075 301.721 470.157 291.331 472.154 280.641C474.151 269.951 474.379 258.521 468.808 248.783C467.407 246.332 463.623 248.536 465.024 251.006L465.059 250.988Z" fill="black"/>
<path d="M467.862 237.988C464.306 236.453 461.661 233.331 458.7 230.914C454.671 227.633 450.238 225.181 445.106 224.193L446.717 226.328C447.4 220.754 447.821 214.897 447.821 209.288C447.821 206.148 447.4 201.526 443.757 200.538C441.462 199.903 438.343 200.662 436.311 201.632C434.577 202.461 433.088 203.978 433.035 206.024C433 207.682 433.438 209.411 433.473 211.105C433.596 216.238 433.403 221.389 433.175 226.522L434.787 224.387C431.021 225.111 427.342 226.434 424.083 228.48C420.562 230.702 417.636 233.789 414.763 236.788C412.819 238.799 410.927 241.145 408.492 242.574C405.917 244.074 403.096 243.386 400.311 243.95C397.998 244.409 396.439 246.314 397.21 248.678C397.788 250.442 399.4 251.765 400.941 252.664C407.195 256.28 415.692 255.61 422.507 254.481C430.302 253.193 437.66 249.771 443.143 243.985L439.71 243.544C443.774 250.089 452.639 252.647 459.821 252.717C467.004 252.788 479.74 250.724 479.932 241.375C479.985 239.134 478.496 237.67 476.289 237.794C475.132 237.864 474.029 238.252 472.89 238.429C470.963 238.711 469.194 238.482 467.372 237.811C464.726 236.824 463.588 241.092 466.215 242.063C469.123 243.139 471.997 243.103 474.992 242.504C475.202 242.468 476.464 242.345 476.551 242.186C476.586 242.133 475.763 241.181 475.553 241.286C475.465 241.322 475.518 241.869 475.325 242.31C474.011 245.538 469.877 247.108 466.461 247.778C460.592 248.924 453.865 248.572 448.539 245.608C447.068 244.797 445.719 243.809 444.545 242.592C444.352 242.398 443.441 241.322 443.792 241.78C443.669 241.639 443.564 241.48 443.476 241.322C442.741 240.14 441.041 239.822 440.043 240.881C436.066 245.079 431.073 247.848 425.537 249.33C419.301 251.006 411.715 251.817 405.461 249.859C403.919 249.383 402.395 248.413 401.502 247.531C401.204 247.249 401.397 247.249 401.362 247.284C401.642 247.143 400.836 248.113 401.011 248.325C401.064 248.378 402.763 248.184 402.956 248.184C403.919 248.166 404.883 248.131 405.829 248.025C410.524 247.443 413.695 244.32 416.831 241.039C419.599 238.147 422.349 234.989 425.677 232.749C428.796 230.65 432.299 229.397 435.961 228.709C436.924 228.515 437.538 227.492 437.573 226.575C437.783 221.777 437.958 216.961 437.888 212.145C437.888 210.963 437.853 209.782 437.748 208.6C437.695 208 437.24 206.8 437.432 206.289C437.8 205.336 439.99 205.036 440.936 204.913C441.322 204.86 441.707 204.842 442.092 204.825C442.758 204.789 442.39 204.701 442.758 204.878C442.443 204.719 442.776 204.825 442.951 205.336C443.266 206.236 443.371 207.153 443.424 208.106C443.599 211.616 443.108 215.197 442.916 218.69C442.776 221.247 442.653 223.823 442.338 226.363C442.232 227.245 443.091 228.321 443.949 228.497C448.89 229.432 453.006 231.831 456.808 235.077C459.593 237.459 462.239 240.369 465.655 241.833C468.212 242.927 470.455 239.134 467.862 238.023V237.988Z" fill="black"/>
<path d="M436.592 277.413C436.539 282.405 435.611 289.461 431.249 292.69C427.377 295.565 424.031 291.049 422.647 287.75C420.282 282.07 420.159 275.173 421.876 269.299C422.822 266.089 425.73 259.632 430.163 261.502C432.317 262.419 433.719 264.801 434.63 266.865C436.066 270.181 436.574 273.832 436.609 277.431C436.627 279.83 440.341 279.848 440.323 277.431C440.271 270.992 438.712 262.49 432.843 258.733C427.465 255.293 422.104 259.632 419.757 264.554C416.446 271.486 416.165 280.324 418.635 287.574C420.37 292.672 424.767 299.093 431.003 297.029C438.396 294.577 440.271 284.117 440.323 277.449C440.341 275.05 436.627 275.032 436.609 277.449L436.592 277.413Z" fill="black"/>
<path d="M433.51 278.146C436.483 277.057 437.511 272.352 435.807 267.637C434.103 262.922 430.311 259.983 427.338 261.073C424.365 262.163 423.337 266.868 425.041 271.583C426.745 276.297 430.537 279.236 433.51 278.146Z" fill="black"/>
<path d="M458.21 277.413C458.157 282.405 457.229 289.461 452.867 292.69C448.995 295.565 445.649 291.049 444.265 287.75C441.9 282.07 441.778 275.173 443.494 269.299C444.44 266.089 447.349 259.632 451.781 261.502C453.935 262.419 455.337 264.801 456.248 266.865C457.684 270.181 458.192 273.832 458.228 277.431C458.245 279.83 461.959 279.848 461.941 277.431C461.889 270.992 460.33 262.49 454.461 258.733C449.083 255.293 443.722 259.632 441.375 264.554C438.064 271.486 437.783 280.324 440.253 287.574C441.988 292.672 446.385 299.093 452.622 297.029C460.014 294.577 461.889 284.117 461.941 277.449C461.959 275.05 458.245 275.032 458.228 277.449L458.21 277.413Z" fill="black"/>
<path d="M455.138 278.163C458.111 277.073 459.139 272.368 457.435 267.653C455.731 262.939 451.939 260 448.966 261.09C445.993 262.179 444.965 266.885 446.669 271.599C448.373 276.314 452.165 279.253 455.138 278.163Z" fill="black"/>
<path d="M419.564 186.779C413.853 196.005 413.853 208.106 419.564 217.349C421.053 219.748 424.837 217.543 423.348 215.126C418.425 207.171 418.425 196.957 423.348 189.019C424.837 186.603 421.053 184.38 419.564 186.797V186.779Z" fill="black"/>
<path d="M406.46 180.041C398.227 193.359 398.227 210.787 406.46 224.088C407.95 226.487 411.734 224.282 410.244 221.865C402.799 209.835 402.799 194.311 410.244 182.263C411.734 179.847 407.95 177.624 406.46 180.041Z" fill="black"/>
<path d="M462.729 217.349C468.44 208.123 468.44 196.022 462.729 186.779C461.24 184.38 457.456 186.585 458.945 189.002C463.868 196.957 463.868 207.171 458.945 215.109C457.456 217.525 461.24 219.748 462.729 217.331V217.349Z" fill="black"/>
<path d="M475.834 224.088C484.068 210.769 484.068 193.341 475.834 180.023C474.345 177.624 470.561 179.829 472.05 182.246C479.495 194.294 479.495 209.817 472.05 221.847C470.561 224.264 474.345 226.487 475.834 224.07V224.088Z" fill="black"/>
</g>
</mask>
<g mask="url(#mask0_983_6195)">
<rect width="505" height="309" rx="12" fill="#961200"/>
</g>
</g>
<defs>
<clipPath id="clip0_983_6195">
<rect width="85" height="174" fill="white" transform="translate(397 179)"/>
</clipPath>
</defs>
</svg>
