<svg width="228" height="340" viewBox="0 0 228 340" fill="none" xmlns="http://www.w3.org/2000/svg">
<path d="M217.76 269.22L208.46 273.67L213.64 278.94L205.33 276.94L204.44 284.13L197.65 277.05L194.16 282.98L194.54 275.17L188.81 279.1L193.76 271.56L186.53 267.02L196.95 267.87L197.98 259.15L201.71 267.17L207.6 263.23L206.84 268.92L217.76 269.22Z" fill="#E55936"/>
<path d="M187.62 213.13L181.44 216.96L185.98 219.99H180.08L182.31 228L177.19 222.98L175.64 229.45L174.68 222.89L164.95 228.58L169.08 220.47L160.46 220.97L169.1 216.13L165.62 212.26L172.58 213.06L175.64 218.7L173.2 213.04L181.34 205.85L179.12 213.52L187.62 213.13Z" fill="#E55936"/>
<path d="M173.2 213.04L175.64 218.7L172.58 213.06L160.69 191.08C161 191.14 161.16 190.28 161.04 189.26H161.09C162.13 188.7 162.74 189.18 162.97 189.45C163.05 189.54 163.09 189.6 163.09 189.6L163.96 191.61L173.2 213.04Z" fill="#8C725B"/>
<path d="M165.62 186.94C164.05 185.7 162.79 184.58 162.79 184.58C163.63 184.53 164.56 184.46 165.6 184.36C165.6 184.36 166.29 184.8 167.27 185.14C168.05 186.69 171.72 188.99 171.75 189.35C171.95 191.54 168.32 189.06 165.62 186.94Z" fill="#FFD9B3"/>
<path d="M82.1501 170.19C83.2101 168.44 84.1801 167.05 85.1601 166C87.0401 163.99 88.9501 163.22 91.5001 163.51C91.8001 163.55 92.1101 163.59 92.4301 163.66C93.8101 163.94 95.9401 164.54 98.4201 165.3C105.94 167.62 116.65 171.39 119.34 171.9C122.92 172.57 126.87 170.84 133.54 172.86C140.2 174.89 149.91 177.93 153.48 177.6C157.05 177.26 157.97 180.01 161.54 181.41C165.12 182.81 165.99 181.94 167.34 182.47C168.69 183 170.77 185.27 170.77 185.27C169.61 185.74 168.29 185.49 167.27 185.14C166.29 184.8 165.6 184.36 165.6 184.36C164.56 184.46 163.63 184.53 162.79 184.58C162.79 184.58 164.05 185.7 165.62 186.94C165.59 187.14 165.27 189.55 164.28 191.47L163.96 191.61L163.09 189.6C163.09 189.6 163.05 189.54 162.97 189.45L163.09 187.74L160.46 187.35C160.79 187.92 160.97 188.62 161.04 189.26C161.16 190.28 161 191.14 160.69 191.08C160.59 191.07 160.46 190.93 160.32 190.66C159.39 188.83 156.17 187.06 154.17 186.06C152.18 185.06 151.5 181.94 151.5 181.94C143.71 179.82 123.73 184.9 114.61 180.4C109.81 178.03 105.55 176.6 102.11 175.74L102.06 175.93C102.06 175.93 103.63 178.22 103.71 180.69C102.48 180.15 100.54 181.84 100.33 182.02C100.49 181.77 102 179.25 98.3901 176.87C94.5701 174.36 86.0701 178.51 81.6801 180.98C77.4101 183.38 74.4801 182.59 74.3301 182.54C75.2901 181.6 76.2101 180.43 77.1501 178.99C77.8701 177.89 78.5901 176.62 79.3601 175.18C80.3701 173.27 81.2901 171.61 82.1501 170.19Z" fill="#FFD9B3"/>
<path d="M168.16 251.23L161.79 252.58L163.14 258.95L157.35 253.89L154.16 261.56L153.29 253.89L144.31 255.96L151.27 249.92L143.54 243.79L153.29 245.63L157.16 238.29L158.99 245.63L165.36 245.05L161.79 248.14L168.16 251.23Z" fill="#E55936"/>
<path d="M94.2203 132.29C94.3503 133.59 95.4903 135.44 95.4903 135.44C91.6303 134.58 89.3703 132.74 88.0503 130.95C88.0503 130.95 86.6103 138.15 84.2903 141.19L84.1603 141.21C84.4603 143.84 85.0603 147.17 86.1603 148.42C85.9403 148.33 82.3803 146.77 79.8503 142.97C79.8503 142.97 79.3803 144.2 79.3603 145.93H79.1703C79.1703 145.93 73.5703 142.73 73.5703 129.46C73.5703 124.69 74.5703 120.93 76.0803 118.06C78.7803 112.93 83.0903 110.63 86.2203 110.48C88.2503 110.38 89.9503 110.76 91.4503 111.34H91.4603C95.3003 112.84 97.8303 115.69 101.33 115.45C106.21 115.12 108.67 112.51 108.67 112.51C108.76 113.99 108.29 114.81 108.21 114.92C113.58 112.39 119.05 114.63 119.05 114.63C116.45 114.89 113.91 116.18 112.24 117.22C119.42 115.15 124.12 118.93 124.12 118.93C121.66 118.64 119.39 120.43 119.39 120.43C119.39 120.43 125.47 121.34 127.02 129.46C128.56 137.57 123.01 139.77 123.01 139.77C121.77 144.11 118.09 145.81 117.86 145.91C119.78 142.53 117.52 137.49 117.52 137.49C117.29 138.54 116.83 138.97 116.83 138.97C116.26 137.1 115.5 135.62 114.7 134.46C112.75 131.65 110.57 130.71 110.34 130.62H110.32C109.97 129.9 109.37 129.07 108.36 128.1L106.1 128.5C106.37 129.26 106.52 130.11 106.57 130.98C106.74 133.94 105.77 137.3 104.84 139.17C104.1 140.66 103.38 141.22 103.26 139.89C103.11 138.2 102.14 136.53 101.08 135.18L100.75 135.44C97.9603 134.65 95.8303 133.51 94.2203 132.29Z" fill="#FFED8E"/>
<path d="M114.7 134.46C114.66 134.63 114.39 135.66 114.08 137.08L112.85 136.94C112.14 136.46 111.41 136.43 110.74 136.65L110.12 133.79C110.12 133.79 111.4 132.77 110.34 130.62C110.57 130.71 112.75 131.65 114.7 134.46Z" fill="#FFD9B3"/>
<path d="M107.21 160.46C104.97 161.47 102.06 160.41 102.06 160.41L102.34 158.54C103.3 158.67 104.54 158.71 106.1 158.56C106.66 158.51 107.2 158.32 107.67 158.01C108.27 157.6 109.08 156.92 109.6 156.01L107.59 154C107.59 154 108.72 152.97 108.68 152.26C108.65 151.61 106.69 150.63 106.31 149.33C106.39 149.38 107.43 149.88 109.19 149.33C110.3 148.99 111.69 148.24 113.29 146.71H113.3C113.86 148.48 114.95 149.74 114.95 151.76C114.95 153.57 113.4 158.12 109.9 161.23L107.21 160.46Z" fill="#FFD9B3"/>
<path d="M112.85 136.94L114.08 137.08C113.87 138.03 113.63 139.17 113.44 140.34C111.64 140.31 110.31 140.98 109.33 141.86L107.51 139.48C107.51 139.48 107.54 139.43 107.59 139.35C107.93 138.87 109.2 137.13 110.74 136.65C111.41 136.43 112.14 136.46 112.85 136.94Z" fill="#FFD9B3"/>
<path d="M109.33 141.86C110.31 140.98 111.64 140.31 113.44 140.34C113.33 140.99 113.23 141.65 113.15 142.3L112.96 142.28C112.69 142.31 112.43 142.33 112.2 142.36C109.92 142.62 107.95 143.99 106.96 145.92H106.95C106.95 145.92 107.51 143.52 109.33 141.86Z" fill="#FFED8E"/>
<path d="M108.58 299.52C111.96 299.52 114.71 302.27 114.71 305.65C114.71 309.03 111.96 311.78 108.58 311.78C105.2 311.78 102.45 309.04 102.45 305.65C102.45 305.46 102.46 305.28 102.48 305.09C102.63 303.42 103.45 301.94 104.67 300.93C105.73 300.05 107.1 299.52 108.58 299.52Z" fill="white"/>
<path d="M113.3 146.71H113.29C111.69 148.24 110.3 148.99 109.19 149.33C109.19 149.33 108.47 146.47 110.18 145.02C111.8 143.65 112.96 145.28 112.96 145.28H113C113.05 145.8 113.16 146.27 113.3 146.71Z" fill="#BCD8E2"/>
<path d="M112.96 142.28L113.15 142.3C113.07 142.95 113.01 143.58 112.97 144.18C112.95 144.57 112.97 144.94 113 145.28H112.96C112.96 145.28 111.8 143.65 110.18 145.02C108.47 146.47 109.19 149.33 109.19 149.33C107.43 149.88 106.39 149.38 106.31 149.33C106.26 149.2 106.24 149.07 106.24 148.93C106.24 148.79 106.24 148.64 106.25 148.5C106.3 147.57 106.54 146.7 106.96 145.92C107.95 143.99 109.92 142.62 112.2 142.36C112.43 142.33 112.69 142.31 112.96 142.28Z" fill="white"/>
<path d="M109.69 187.52C110.46 186.84 111.41 186.18 112.33 186.03C112.71 185.96 112.96 186.44 112.68 186.73C111.34 188.15 108.22 191.56 107.32 193.63C107.32 193.63 110.41 193.1 111.04 194.16C111.67 195.22 108.57 195.51 107.61 196.23C106.64 196.96 106.5 197.59 104.04 197.63C101.57 197.68 95.0996 197.78 91.6796 197.2C88.2496 196.62 78.8896 192.71 78.8896 192.71C82.1596 190.92 86.5996 190.57 89.5996 189.45C89.5996 189.45 92.7897 192.37 98.8697 193.05C98.8697 193.05 101.39 189.72 103.5 189.07C103.92 188.94 104.32 188.91 104.68 189.04C104.68 189.04 105.14 188.71 105.81 188.34C106.94 187.72 108.66 186.97 109.69 187.52Z" fill="#FFD9B3"/>
<path d="M110.12 133.79L110.74 136.65C109.2 137.13 107.93 138.87 107.59 139.35L104.84 139.17C105.77 137.3 106.74 133.94 106.57 130.98H106.59C106.59 130.98 109.35 131.94 110.12 133.79Z" fill="#FFD9B3"/>
<path d="M110.34 130.62C111.4 132.77 110.12 133.79 110.12 133.79C109.35 131.94 106.59 130.98 106.59 130.98H106.57C106.52 130.11 106.37 129.26 106.1 128.5L108.36 128.1C109.37 129.07 109.97 129.9 110.32 130.61H110.34V130.62Z" fill="#FFED8E"/>
<path d="M106.31 149.33C106.69 150.63 108.65 151.61 108.68 152.26C108.72 152.97 107.59 154 107.59 154L109.6 156.01C109.08 156.92 108.27 157.6 107.67 158.01C107.2 158.32 106.66 158.51 106.1 158.56C104.54 158.71 103.3 158.67 102.34 158.54L102.06 160.41C102.06 160.41 104.97 161.47 107.21 160.46L109.9 161.23C108.53 162.45 106.86 163.45 104.86 163.98C102.83 164.52 100.61 164.18 98.4202 163.35C95.9702 162.41 93.5702 160.86 91.5202 159.22C89.5502 157.64 87.9002 155.97 86.8702 154.69C86.4402 154.87 85.9202 154.97 85.2702 154.81C84.2202 154.56 82.8502 153.62 81.0502 151.23C79.6902 149.41 79.3402 147.47 79.3602 145.93C79.3802 144.2 79.8502 142.97 79.8502 142.97C82.3802 146.77 85.9402 148.33 86.1602 148.42C85.0602 147.17 84.4602 143.84 84.1602 141.21L84.2902 141.19C86.6102 138.15 88.0502 130.95 88.0502 130.95C89.3702 132.74 91.6302 134.58 95.4902 135.44C95.4902 135.44 94.3502 133.59 94.2202 132.29C95.8302 133.51 97.9602 134.65 100.75 135.44L101.08 135.18C102.14 136.53 103.11 138.2 103.26 139.89C103.38 141.22 104.1 140.66 104.84 139.17L107.59 139.35C107.54 139.43 107.51 139.48 107.51 139.48L109.33 141.86C107.51 143.52 106.95 145.92 106.95 145.92H106.96C106.54 146.7 106.3 147.57 106.25 148.5C106.24 148.64 106.24 148.79 106.24 148.93C106.24 149.07 106.26 149.2 106.31 149.33ZM100.22 152.04C100.11 150.61 99.7502 149.55 99.2502 148.76C99.0102 148.38 98.7302 148.06 98.4202 147.8C95.0002 143.59 89.6002 145.92 89.6002 145.92C90.0602 147.43 91.7602 147.34 91.7602 147.34C92.2602 150.61 93.9602 151.92 95.7102 152.34C97.9302 152.89 100.22 152.04 100.22 152.04Z" fill="#FFD9B3"/>
<path d="M108.58 311.78V312.54C108.58 313.31 107.96 313.93 107.2 313.94C105.9 313.95 103.8 313.66 101.48 312.12C97.4396 309.44 98.6396 305.42 96.1296 302.59C93.6196 299.76 92.2696 297.37 92.0096 295.51C91.7596 293.64 94.4496 292.66 94.4496 292.66C95.2096 296.81 96.6096 302.78 102.06 305.07L102.48 305.09C102.46 305.28 102.45 305.46 102.45 305.65C102.45 309.04 105.19 311.78 108.58 311.78Z" fill="#A5D75F"/>
<path d="M82.2298 218.49C77.9798 217.62 74.0698 217 73.7998 216.96C75.4398 213.1 75.0198 207 75.0198 207C75.0198 207 77.3298 207 81.5398 202.95C85.5898 199.03 88.7398 201.32 88.9598 201.49C88.9598 201.49 105.81 213.81 105.81 217.38C105.81 220.95 106.48 225.97 103.83 227.04C101.89 227.82 88.1798 231.44 78.8798 234.54C77.6898 230.69 76.2098 226.77 74.8598 223.45C78.2798 220.83 81.1098 218.69 82.2198 218.5L82.2298 218.49Z" fill="#FFD9B3"/>
<path d="M105.74 188.2L105.81 188.34C105.14 188.71 104.68 189.04 104.68 189.04C104.32 188.91 103.92 188.94 103.5 189.07C103.5 189.07 103.3 187.12 103.5 186.74C103.59 186.56 104.55 184.78 105 184.4C105.33 184.13 105.84 184.35 105.85 184.78C105.85 185.33 105.36 187.46 105.74 188.2Z" fill="#FFD9B3"/>
<path d="M104.57 300.82L104.67 300.93C103.45 301.94 102.63 303.42 102.48 305.09L102.06 305.07C96.6099 302.78 95.2099 296.81 94.4499 292.66C94.1799 291.22 93.9999 290 93.7499 289.23C92.7899 286.24 78.7799 275.23 73.9499 269.92C69.1299 264.6 69.3499 258.94 68.9699 255.85C68.6499 253.35 68.8499 247.11 64.4099 241.35C63.3699 240 62.0799 238.68 60.4699 237.44C60.0399 237.11 59.5999 236.75 59.1699 236.36C54.5299 232.29 49.8099 225.72 46.6299 220.84L49.3899 220.48C50.0699 221.41 50.9699 222.16 52.1599 222.5C52.1599 222.5 54.4199 218.64 57.6999 216.77C60.9799 214.9 63.0399 213.42 63.2399 209.56C63.2399 209.56 70.8999 211.75 71.0899 214.71C71.0899 214.71 71.7999 216.21 72.8399 218.61C73.4299 219.97 74.1299 221.62 74.8699 223.45C76.2199 226.77 77.6999 230.69 78.8899 234.54C80.3899 239.34 81.4499 244.03 81.2899 247.32C80.8099 257.27 95.5899 279.28 97.9999 284.21C100.41 289.13 104.47 297.82 104.57 300.82Z" fill="#FFD9B3"/>
<path d="M100.33 182.02C100.54 181.84 102.48 180.15 103.71 180.69C103.76 181.92 103.43 183.2 102.35 184.26C101.19 185.4 99.1802 186.3 95.8302 186.63C95.8302 186.63 93.9402 187.81 89.6002 189.45C86.6002 190.57 82.1602 190.92 78.8902 192.71C77.8602 193.27 76.9602 193.97 76.2402 194.88C76.2302 195.09 76.2902 197.03 81.2902 197.44C86.4002 197.87 88.8202 201.28 88.9602 201.49C88.7402 201.32 85.5902 199.03 81.5402 202.95C77.3302 207 75.0202 207 75.0202 207C75.0202 207 75.4402 213.1 73.8002 216.96C73.5302 217.58 73.2202 218.14 72.8402 218.61C71.8002 216.21 71.0902 214.71 71.0902 214.71C70.9002 211.75 63.2402 209.56 63.2402 209.56C63.0402 213.42 60.9802 214.9 57.7002 216.77C54.4202 218.64 52.1602 222.5 52.1602 222.5C50.9702 222.16 50.0702 221.41 49.3902 220.48C47.2502 217.51 47.3102 212.63 47.3102 212.63C45.7202 213.52 44.1702 214.11 42.7202 214.48C36.8202 215.95 32.4002 213.81 32.4002 213.81C32.4002 213.81 36.1102 213.17 36.5202 209.69C36.7002 208.15 37.0002 206.89 37.3602 205.85C28.1502 204.37 30.0202 192.47 30.0202 192.47C32.5302 195.46 42.4702 194.59 44.4002 191.5C46.3402 188.41 53.2902 183.39 62.1702 184.94C67.8602 185.93 71.3002 185.45 74.3202 182.54H74.3302C74.4802 182.59 77.4102 183.38 81.6802 180.98C86.0702 178.51 94.5702 174.36 98.3902 176.87C102 179.25 100.49 181.77 100.33 182.02Z" fill="#A5D75F"/>
<path d="M99.2504 148.76C99.7504 149.55 100.11 150.61 100.22 152.04C100.22 152.04 97.9304 152.89 95.7104 152.35C95.6204 152.09 94.0604 147.48 99.2504 148.76Z" fill="#BCD8E2"/>
<path d="M98.4198 147.8C98.7298 148.06 99.0098 148.38 99.2498 148.76C94.0598 147.48 95.6198 152.09 95.7098 152.34C93.9598 151.92 92.2598 150.61 91.7598 147.34C91.7598 147.34 95.9198 145.66 98.4198 147.8Z" fill="white"/>
<path d="M98.42 163.35V165.3C95.94 164.54 93.81 163.94 92.43 163.66C92.11 163.59 91.8 163.55 91.5 163.51L91.52 163.34C91.98 162.24 91.52 159.22 91.52 159.22C93.57 160.86 95.97 162.41 98.42 163.34V163.35Z" fill="#FFD9B3"/>
<path d="M98.4196 147.8C95.9196 145.66 91.7596 147.34 91.7596 147.34C91.7596 147.34 90.0596 147.43 89.5996 145.92C89.5996 145.92 94.9996 143.59 98.4196 147.8Z" fill="#FFED8E"/>
<path d="M92.5403 98.07C92.5403 98.07 96.0203 100.53 94.0903 104.4C94.0903 104.4 95.2803 109.97 91.4603 111.34H91.4503C89.9503 110.76 88.2503 110.38 86.2203 110.48C83.0903 110.63 78.7803 112.93 76.0803 118.06C76.0803 118.06 67.8703 114 70.0003 108.84C70.0003 108.84 68.4503 99.23 75.8403 99.18C75.8403 99.18 76.7703 97.3 79.4303 96.3C80.6603 95.84 82.2503 95.57 84.2903 95.75C84.2903 95.75 90.2303 94.02 92.5403 98.07Z" fill="#FFED8E"/>
<path d="M85.2699 154.81L85.25 154.89C85.25 154.89 85.59 161.71 85.16 166C84.18 167.05 83.21 168.44 82.15 170.19C76.43 155.38 67.65 140.77 58.9 128.15C54.38 95.3498 65.24 68.3698 68.97 60.1098C69.24 59.5098 70.1199 59.6598 70.1699 60.3098C70.4099 63.3398 71.8899 68.1098 73.57 73.0098C77.7099 85.0798 79.43 96.2998 79.43 96.2998C76.77 97.2998 75.8399 99.1798 75.8399 99.1798C68.4499 99.2298 70 108.84 70 108.84C67.87 114 76.08 118.06 76.08 118.06C74.57 120.93 73.57 124.69 73.57 129.46C73.57 142.73 79.1699 145.92 79.1699 145.92H79.36C79.34 147.47 79.69 149.41 81.05 151.23C82.85 153.62 84.2199 154.56 85.2699 154.81Z" fill="#D9F7FF"/>
<path d="M82.1502 170.19C81.2902 171.61 80.3702 173.27 79.3602 175.18C78.5902 176.62 77.8702 177.89 77.1502 178.99C67.7502 176.03 44.2402 159.41 26.8602 130.31C13.3402 107.67 13.6902 76.2199 14.5102 63.3799C14.5802 62.2799 16.1202 62.1099 16.4302 63.1599C18.4502 69.9299 23.0002 81.8799 32.2702 93.6099C37.0602 99.6799 47.9602 112.36 58.9002 128.15C67.6502 140.77 76.4302 155.38 82.1502 170.19Z" fill="#D9F7FF"/>
<path d="M60.4697 237.44C62.0797 238.68 63.3697 240 64.4097 241.35C57.5997 245 48.8997 249.45 46.9197 249.92L46.7797 250.08C45.8497 249.21 44.5997 248.68 43.2297 248.68C43.0597 248.68 42.8897 248.69 42.7197 248.71C42.7197 248.71 46.0697 241.22 53.9897 239.64C54.5297 239.53 55.0797 239.45 55.6597 239.4C55.6597 239.4 57.0397 238.19 59.1697 236.36C59.5997 236.75 60.0397 237.11 60.4697 237.44Z" fill="#FFD9B3"/>
<path d="M53.9901 239.63C46.0701 241.22 42.7201 248.71 42.7201 248.71C40.3701 248.93 38.4801 250.71 38.0801 252.99L36.3801 252.48C35.9001 252.33 35.6201 251.85 35.7101 251.37C35.9001 250.44 36.4401 248.85 37.9901 247.03C40.4601 244.13 42.5701 245.39 44.6001 242.97C46.6301 240.56 50.1001 236.21 51.7401 236.36C53.3301 236.5 53.9501 239.43 53.9901 239.63Z" fill="#A5D75F"/>
<path d="M49.3897 220.48L46.6297 220.84C44.2397 217.19 42.7197 214.48 42.7197 214.48C44.1697 214.11 45.7197 213.52 47.3097 212.63C47.3097 212.63 47.2497 217.51 49.3897 220.48Z" fill="#FFD9B3"/>
<path d="M48.4602 253.92C48.4602 256.81 46.1202 259.15 43.2302 259.15C40.3402 259.15 37.9902 256.81 37.9902 253.92C37.9902 253.6 38.0202 253.29 38.0802 252.99C38.4802 250.71 40.3702 248.93 42.7202 248.71C42.8902 248.69 43.0602 248.68 43.2302 248.68C44.6002 248.68 45.8502 249.21 46.7802 250.08C47.8102 251.03 48.4602 252.4 48.4602 253.92Z" fill="white"/>
<path d="M82.1602 170.22C82.1602 170.22 82.1502 170.2 82.1502 170.19C76.4302 155.38 67.6502 140.77 58.9002 128.15C47.9602 112.36 37.0602 99.6799 32.2702 93.6099C23.0002 81.8799 18.4502 69.9299 16.4302 63.1599C16.1202 62.1099 14.5802 62.2799 14.5102 63.3799C13.6902 76.2199 13.3402 107.67 26.8602 130.31C44.2402 159.41 67.7502 176.03 77.1502 178.99" stroke="black" stroke-width="0.4" stroke-linecap="round" stroke-linejoin="round"/>
<path d="M98.4201 163.34C95.9701 162.41 93.5701 160.86 91.5201 159.22C89.5501 157.64 87.9001 155.97 86.8701 154.69C86.3701 154.07 86.0201 153.55 85.8301 153.16" stroke="black" stroke-width="0.4" stroke-linecap="round" stroke-linejoin="round"/>
<path d="M114.71 134.43C114.71 134.43 114.71 134.44 114.7 134.46C114.66 134.63 114.39 135.66 114.08 137.08C113.87 138.03 113.63 139.17 113.44 140.34C113.33 140.99 113.23 141.65 113.15 142.3C113.07 142.95 113.01 143.58 112.97 144.18C112.95 144.57 112.97 144.94 113 145.28C113.05 145.8 113.16 146.27 113.3 146.71C113.86 148.48 114.95 149.74 114.95 151.76C114.95 153.57 113.4 158.12 109.9 161.23C108.53 162.45 106.86 163.45 104.86 163.98C102.83 164.52 100.61 164.18 98.4199 163.35" stroke="black" stroke-width="0.4" stroke-linecap="round" stroke-linejoin="round"/>
<path d="M89.5996 126.51C89.5996 126.51 90.5996 129.56 94.2196 132.29C95.8296 133.51 97.9596 134.65 100.75 135.44" stroke="black" stroke-width="0.4" stroke-linecap="round" stroke-linejoin="round"/>
<path d="M98.1904 132.21C98.1904 132.21 99.7004 133.42 101.08 135.18C102.14 136.53 103.11 138.2 103.26 139.89C103.38 141.22 104.1 140.66 104.84 139.17C105.77 137.3 106.74 133.94 106.57 130.98C106.52 130.11 106.37 129.26 106.1 128.5C105.89 127.93 105.61 127.41 105.24 126.95" stroke="black" stroke-width="0.4" stroke-linecap="round" stroke-linejoin="round"/>
<path d="M110.32 130.61C109.97 129.9 109.37 129.07 108.36 128.1" stroke="black" stroke-width="0.4" stroke-linecap="round" stroke-linejoin="round"/>
<path d="M106.59 130.98C106.59 130.98 109.35 131.94 110.12 133.79C110.12 133.79 111.4 132.77 110.34 130.62" stroke="black" stroke-width="0.4" stroke-linecap="round" stroke-linejoin="round"/>
<path d="M110.32 130.61H110.34C110.57 130.71 112.75 131.65 114.7 134.46C115.5 135.62 116.26 137.1 116.83 138.97C116.83 138.97 117.29 138.54 117.52 137.49C117.75 136.43 117.75 134.77 116.83 132.3" stroke="black" stroke-width="0.4" stroke-linecap="round" stroke-linejoin="round"/>
<path d="M86.2197 126.51C86.2197 126.51 86.3897 128.69 88.0497 130.95C89.3697 132.74 91.6297 134.58 95.4897 135.44C95.4897 135.44 94.3497 133.59 94.2197 132.29" stroke="black" stroke-width="0.4" stroke-linecap="round" stroke-linejoin="round"/>
<path d="M88.05 130.95C88.05 130.95 86.61 138.15 84.29 141.19" stroke="black" stroke-width="0.4" stroke-linecap="round" stroke-linejoin="round"/>
<path d="M86.1699 148.43H86.1599C85.9399 148.33 82.3799 146.77 79.8499 142.97C78.6199 141.13 77.6299 138.76 77.3799 135.78" stroke="black" stroke-width="0.4" stroke-linecap="round" stroke-linejoin="round"/>
<path d="M83.8496 137.62C83.8496 137.62 83.9196 139.22 84.1596 141.21C84.4596 143.84 85.0596 147.17 86.1596 148.42" stroke="black" stroke-width="0.4" stroke-linecap="round" stroke-linejoin="round"/>
<path d="M117.85 145.92H117.86C118.09 145.81 121.77 144.11 123.01 139.77C123.73 137.28 123.63 133.91 121.61 129.46" stroke="black" stroke-width="0.4" stroke-linecap="round" stroke-linejoin="round"/>
<path d="M117.52 137.49C117.52 137.49 119.78 142.53 117.86 145.91" stroke="black" stroke-width="0.4" stroke-linecap="round" stroke-linejoin="round"/>
<path d="M123.01 139.77C123.01 139.77 128.56 137.57 127.02 129.46C125.47 121.34 119.39 120.43 119.39 120.43C119.39 120.43 121.66 118.64 124.12 118.93C124.12 118.93 119.42 115.15 112.24 117.22" stroke="black" stroke-width="0.4" stroke-linecap="round" stroke-linejoin="round"/>
<path d="M108.21 114.93C107.22 115.39 106.23 116.02 105.29 116.85" stroke="black" stroke-width="0.4" stroke-linecap="round" stroke-linejoin="round"/>
<path d="M110.32 118.54C110.32 118.54 111.05 117.94 112.23 117.22H112.24C113.91 116.18 116.45 114.89 119.05 114.63C119.05 114.63 113.58 112.39 108.21 114.92" stroke="black" stroke-width="0.4" stroke-linecap="round" stroke-linejoin="round"/>
<path d="M91.4503 111.34C89.9503 110.76 88.2503 110.38 86.2203 110.48C83.0903 110.63 78.7803 112.93 76.0803 118.06C74.5703 120.93 73.5703 124.69 73.5703 129.46C73.5703 142.73 79.1703 145.92 79.1703 145.92" stroke="black" stroke-width="0.4" stroke-linecap="round" stroke-linejoin="round"/>
<path d="M108.21 114.93C108.29 114.81 108.76 113.99 108.67 112.51C108.67 112.51 106.21 115.12 101.33 115.45C97.83 115.69 95.3 112.84 91.46 111.34" stroke="black" stroke-width="0.4" stroke-linecap="round" stroke-linejoin="round"/>
<path d="M79.8502 142.97C79.8502 142.97 79.3802 144.2 79.3602 145.93C79.3402 147.47 79.6902 149.41 81.0502 151.23C82.8502 153.62 84.2202 154.56 85.2702 154.81C85.9202 154.97 86.4402 154.87 86.8702 154.69H86.8802" stroke="black" stroke-width="0.4" stroke-linecap="round" stroke-linejoin="round"/>
<path d="M79.43 96.2998C79.43 96.2998 77.7099 85.0798 73.57 73.0098C71.89 68.1098 70.4099 63.3398 70.1699 60.3098C70.1199 59.6598 69.24 59.5098 68.97 60.1098C65.24 68.3698 54.38 95.3498 58.9 128.15" stroke="black" stroke-width="0.4" stroke-linecap="round" stroke-linejoin="round"/>
<path d="M76.0803 118.06C76.0803 118.06 67.8703 114 70.0003 108.84C70.0003 108.84 68.4503 99.23 75.8403 99.18C75.8403 99.18 76.7703 97.3 79.4303 96.3C80.6603 95.84 82.2503 95.57 84.2903 95.75C84.2903 95.75 90.2303 94.02 92.5403 98.07C92.5403 98.07 96.0203 100.53 94.0903 104.4C94.0903 104.4 95.2803 109.97 91.4603 111.34H91.4503" stroke="black" stroke-width="0.4" stroke-linecap="round" stroke-linejoin="round"/>
<path d="M107.51 139.48C107.51 139.48 107.54 139.43 107.59 139.35C107.93 138.87 109.2 137.13 110.74 136.65C111.41 136.43 112.14 136.46 112.85 136.94" stroke="black" stroke-width="0.4" stroke-linecap="round" stroke-linejoin="round"/>
<path d="M98.8899 142.86C98.8899 142.86 91.8699 137.47 89.3799 142.44" stroke="black" stroke-width="0.4" stroke-linecap="round" stroke-linejoin="round"/>
<path d="M107.59 154C107.59 154 108.72 152.97 108.68 152.26C108.65 151.61 106.69 150.63 106.31 149.33C106.26 149.2 106.24 149.07 106.24 148.93C106.24 148.79 106.24 148.64 106.25 148.5C106.3 147.57 106.54 146.7 106.96 145.92C107.95 143.99 109.92 142.62 112.2 142.36C112.43 142.33 112.69 142.31 112.96 142.28" stroke="black" stroke-width="0.4" stroke-linecap="round" stroke-linejoin="round"/>
<path d="M95.7098 152.34C93.9598 151.92 92.2598 150.61 91.7598 147.34C91.7598 147.34 95.9198 145.66 98.4198 147.8C98.7298 148.06 99.0098 148.38 99.2498 148.76C99.7498 149.55 100.11 150.61 100.22 152.04C100.22 152.04 97.9298 152.89 95.7098 152.35" stroke="black" stroke-width="0.4" stroke-linecap="round" stroke-linejoin="round"/>
<path d="M106.3 149.33C106.38 149.38 107.42 149.88 109.18 149.33C110.29 148.99 111.68 148.24 113.28 146.71" stroke="black" stroke-width="0.4" stroke-linecap="round" stroke-linejoin="round"/>
<path d="M95.7104 152.35C95.6204 152.09 94.0604 147.48 99.2504 148.76" stroke="black" stroke-width="0.4" stroke-linecap="round" stroke-linejoin="round"/>
<path d="M109.19 149.33C109.19 149.33 108.47 146.47 110.18 145.02C111.8 143.65 112.96 145.28 112.96 145.28" stroke="black" stroke-width="0.4" stroke-linecap="round" stroke-linejoin="round"/>
<path d="M91.7596 147.34C91.7596 147.34 90.0596 147.43 89.5996 145.92C89.5996 145.92 94.9996 143.59 98.4196 147.8" stroke="black" stroke-width="0.4" stroke-linecap="round" stroke-linejoin="round"/>
<path d="M106.95 145.92C106.95 145.92 107.51 143.52 109.33 141.86C110.31 140.98 111.64 140.31 113.44 140.34" stroke="black" stroke-width="0.4" stroke-linecap="round" stroke-linejoin="round"/>
<path d="M104.83 153.86C104.83 153.86 105.24 154.13 105.77 154.3" stroke="black" stroke-width="0.4" stroke-linecap="round" stroke-linejoin="round"/>
<path d="M109.6 156.01C109.08 156.92 108.27 157.6 107.67 158.01C107.2 158.32 106.66 158.51 106.1 158.56C104.54 158.71 103.3 158.67 102.34 158.54C100.02 158.22 99.25 157.36 99.25 157.36" stroke="black" stroke-width="0.4" stroke-linecap="round" stroke-linejoin="round"/>
<path d="M102.06 160.41C102.06 160.41 104.97 161.47 107.21 160.46C107.31 160.42 107.41 160.37 107.51 160.31" stroke="black" stroke-width="0.4" stroke-linecap="round" stroke-linejoin="round"/>
<path d="M85.2502 154.89C85.2502 154.89 85.5902 161.71 85.1602 166" stroke="black" stroke-width="0.4" stroke-linecap="round" stroke-linejoin="round"/>
<path d="M92.9502 174.44C92.9502 174.44 96.4202 174.32 102.11 175.74C105.55 176.6 109.81 178.03 114.61 180.4C123.73 184.9 143.71 179.82 151.5 181.94C151.5 181.94 152.18 185.06 154.17 186.06C156.17 187.06 159.39 188.83 160.32 190.66C160.46 190.93 160.59 191.07 160.69 191.08C161 191.14 161.16 190.28 161.04 189.26C160.97 188.62 160.79 187.92 160.46 187.35C160.28 187.03 160.05 186.75 159.77 186.54" stroke="black" stroke-width="0.4" stroke-linecap="round" stroke-linejoin="round"/>
<path d="M74.3301 182.54C75.2901 181.6 76.2101 180.43 77.1501 178.99C77.8701 177.89 78.5901 176.62 79.3601 175.18C80.3701 173.27 81.2901 171.61 82.1501 170.19C83.2101 168.44 84.1801 167.05 85.1601 166C87.0401 163.99 88.9501 163.22 91.5001 163.51C91.8001 163.55 92.1101 163.59 92.4301 163.66C93.8101 163.94 95.9401 164.54 98.4201 165.3C105.94 167.62 116.65 171.39 119.34 171.9C122.92 172.57 126.87 170.84 133.54 172.86C140.2 174.89 149.91 177.93 153.48 177.6C157.05 177.26 157.97 180.01 161.54 181.41C165.12 182.81 165.99 181.94 167.34 182.47C168.69 183 170.77 185.27 170.77 185.27C169.61 185.74 168.29 185.49 167.27 185.14C166.29 184.8 165.6 184.36 165.6 184.36C164.56 184.46 163.63 184.53 162.79 184.58C154.18 185.13 155.02 183.49 155.02 183.49" stroke="black" stroke-width="0.4" stroke-linecap="round" stroke-linejoin="round"/>
<path d="M37.3602 205.85C28.1502 204.37 30.0202 192.47 30.0202 192.47C32.5302 195.46 42.4702 194.59 44.4002 191.5C46.3402 188.41 53.2902 183.39 62.1702 184.94C67.8602 185.93 71.3002 185.45 74.3202 182.54" stroke="black" stroke-width="0.4" stroke-linecap="round" stroke-linejoin="round"/>
<path d="M160.46 187.35L163.09 187.74L162.97 189.45" stroke="black" stroke-width="0.4" stroke-linecap="round" stroke-linejoin="round"/>
<path d="M162.79 184.58C162.79 184.58 164.05 185.7 165.62 186.94C168.32 189.06 171.95 191.54 171.75 189.35C171.72 188.99 168.05 186.69 167.27 185.14" stroke="black" stroke-width="0.4" stroke-linecap="round" stroke-linejoin="round"/>
<path d="M165.62 186.93C165.59 187.14 165.27 189.55 164.28 191.47" stroke="black" stroke-width="0.4" stroke-linecap="round" stroke-linejoin="round"/>
<path d="M160.69 191.08L172.58 213.06L175.64 218.7L173.2 213.04L163.96 191.61L163.09 189.6C163.09 189.6 163.05 189.54 162.97 189.45C162.74 189.18 162.13 188.7 161.09 189.26" stroke="black" stroke-width="0.4" stroke-linecap="round" stroke-linejoin="round"/>
<path d="M40.4004 201.42C40.4004 201.42 38.5604 202.39 37.3604 205.85C37.0004 206.89 36.7004 208.15 36.5204 209.69C36.1104 213.17 32.4004 213.81 32.4004 213.81C32.4004 213.81 36.8204 215.95 42.7204 214.48C44.1704 214.11 45.7204 213.52 47.3104 212.63C48.2704 212.09 49.2404 211.43 50.2304 210.65" stroke="black" stroke-width="0.4" stroke-linecap="round" stroke-linejoin="round"/>
<path d="M47.3097 212.63C47.3097 212.63 47.2497 217.51 49.3897 220.48C50.0697 221.41 50.9697 222.16 52.1597 222.5C52.1597 222.5 54.4197 218.64 57.6997 216.77C60.9797 214.9 63.0397 213.42 63.2397 209.56C63.2397 209.56 70.8997 211.75 71.0897 214.71C71.0897 214.71 71.7997 216.21 72.8397 218.61C73.4297 219.97 74.1297 221.62 74.8697 223.45C76.2197 226.77 77.6997 230.69 78.8897 234.54C80.3897 239.34 81.4497 244.03 81.2897 247.32C80.8097 257.27 95.5897 279.28 97.9997 284.21C100.41 289.13 104.47 297.82 104.57 300.82" stroke="black" stroke-width="0.4" stroke-linecap="round" stroke-linejoin="round"/>
<path d="M42.7197 214.48C42.7197 214.48 44.2397 217.19 46.6297 220.84C49.8097 225.72 54.5297 232.29 59.1697 236.36C59.5997 236.75 60.0397 237.11 60.4697 237.44C62.0797 238.68 63.3697 240 64.4097 241.35C68.8497 247.11 68.6497 253.35 68.9697 255.85C69.3497 258.94 69.1297 264.6 73.9497 269.92C78.7797 275.23 92.7897 286.24 93.7497 289.23C93.9997 290 94.1797 291.22 94.4497 292.66C95.2097 296.81 96.6097 302.78 102.06 305.07" stroke="black" stroke-width="0.4" stroke-linecap="round" stroke-linejoin="round"/>
<path d="M88.9696 201.5C88.8296 201.28 86.4096 197.87 81.2996 197.44C76.2996 197.03 76.2396 195.09 76.2496 194.89" stroke="black" stroke-width="0.4" stroke-linecap="round" stroke-linejoin="round"/>
<path d="M72.8398 218.61C73.2198 218.14 73.5299 217.58 73.7999 216.96C75.4399 213.1 75.0198 207 75.0198 207C75.0198 207 77.3298 207 81.5398 202.95C85.5898 199.03 88.7398 201.32 88.9598 201.49" stroke="black" stroke-width="0.4" stroke-linecap="round" stroke-linejoin="round"/>
<path d="M104.67 300.93C105.73 300.05 107.1 299.52 108.58 299.52C111.96 299.52 114.71 302.27 114.71 305.65C114.71 309.03 111.96 311.78 108.58 311.78C105.2 311.78 102.45 309.04 102.45 305.65C102.45 305.46 102.46 305.28 102.48 305.09C102.63 303.42 103.45 301.94 104.67 300.93Z" stroke="black" stroke-width="0.4" stroke-linecap="round" stroke-linejoin="round"/>
<path d="M94.4496 292.66C94.4496 292.66 91.7596 293.64 92.0096 295.51C92.2696 297.37 93.6196 299.76 96.1296 302.59C98.6396 305.42 97.4396 309.44 101.48 312.12C103.8 313.66 105.9 313.95 107.2 313.94C107.96 313.93 108.58 313.31 108.58 312.54V311.78" stroke="black" stroke-width="0.4" stroke-linecap="round" stroke-linejoin="round"/>
<path d="M46.9199 249.92C48.8999 249.45 57.5999 245 64.4099 241.35" stroke="black" stroke-width="0.4" stroke-linecap="round" stroke-linejoin="round"/>
<path d="M88.9697 201.5C88.9697 201.5 105.82 213.81 105.82 217.38C105.82 220.95 106.49 225.97 103.84 227.04C101.9 227.82 88.1896 231.44 78.8896 234.54" stroke="black" stroke-width="0.4" stroke-linecap="round" stroke-linejoin="round"/>
<path d="M46.7802 250.08C47.8102 251.03 48.4602 252.4 48.4602 253.92C48.4602 256.81 46.1202 259.15 43.2302 259.15C40.3402 259.15 37.9902 256.81 37.9902 253.92C37.9902 253.6 38.0202 253.29 38.0802 252.99C38.4802 250.71 40.3702 248.93 42.7202 248.71C42.8902 248.69 43.0602 248.68 43.2302 248.68C44.6002 248.68 45.8502 249.21 46.7802 250.08Z" stroke="black" stroke-width="0.4" stroke-linecap="round" stroke-linejoin="round"/>
<path d="M82.2301 218.5C81.1201 218.69 78.2901 220.83 74.8701 223.45" stroke="black" stroke-width="0.4" stroke-linecap="round" stroke-linejoin="round"/>
<path d="M53.9902 239.63C54.5302 239.53 55.0802 239.45 55.6602 239.4C55.6602 239.4 57.0402 238.19 59.1702 236.36" stroke="black" stroke-width="0.4" stroke-linecap="round" stroke-linejoin="round"/>
<path d="M42.7197 248.71C42.7197 248.71 46.0697 241.22 53.9897 239.64" stroke="black" stroke-width="0.4" stroke-linecap="round" stroke-linejoin="round"/>
<path d="M53.9901 239.64C53.9501 239.43 53.3301 236.5 51.7401 236.36C50.1001 236.21 46.6301 240.56 44.6001 242.97C42.5701 245.39 40.4601 244.13 37.9901 247.03C36.4401 248.85 35.9001 250.44 35.7101 251.37C35.6201 251.85 35.9001 252.33 36.3801 252.48L38.0801 252.99" stroke="black" stroke-width="0.4" stroke-linecap="round" stroke-linejoin="round"/>
<path d="M73.79 216.96H73.8C74.07 217 77.98 217.62 82.23 218.49C86.45 219.36 90.99 220.46 92.69 221.5" stroke="black" stroke-width="0.4" stroke-linecap="round" stroke-linejoin="round"/>
<path d="M100.31 182.04L100.33 182.02C100.54 181.84 102.48 180.15 103.71 180.69" stroke="black" stroke-width="0.4" stroke-linecap="round" stroke-linejoin="round"/>
<path d="M74.3203 182.54H74.3303C74.4803 182.59 77.4103 183.38 81.6803 180.98C86.0703 178.51 94.5703 174.36 98.3903 176.87C102 179.25 100.49 181.77 100.33 182.02" stroke="black" stroke-width="0.4" stroke-linecap="round" stroke-linejoin="round"/>
<path d="M102.06 175.93C102.06 175.93 103.63 178.22 103.71 180.69C103.76 181.92 103.43 183.2 102.35 184.26C101.19 185.4 99.1804 186.3 95.8304 186.63C95.8304 186.63 93.9404 187.81 89.6004 189.45C86.6004 190.57 82.1604 190.92 78.8904 192.71C77.8604 193.27 76.9604 193.97 76.2404 194.88C75.9104 195.29 75.6304 195.74 75.4004 196.23" stroke="black" stroke-width="0.4" stroke-linecap="round" stroke-linejoin="round"/>
<path d="M89.5996 189.45C89.5996 189.45 92.7896 192.37 98.8696 193.05C98.8696 193.05 101.39 189.72 103.5 189.07C103.92 188.94 104.32 188.91 104.68 189.04C104.68 189.04 105.14 188.71 105.81 188.34C106.94 187.72 108.66 186.97 109.69 187.52" stroke="black" stroke-width="0.4" stroke-linecap="round" stroke-linejoin="round"/>
<path d="M108 189.33C108 189.33 108.7 188.4 109.69 187.52C110.46 186.84 111.41 186.18 112.33 186.03C112.71 185.96 112.96 186.44 112.68 186.73C111.34 188.15 108.22 191.56 107.32 193.63C107.32 193.63 110.41 193.1 111.04 194.16C111.67 195.22 108.57 195.51 107.61 196.23C106.64 196.96 106.5 197.59 104.04 197.63C101.57 197.68 95.0996 197.78 91.6796 197.2C88.2496 196.62 78.8896 192.71 78.8896 192.71" stroke="black" stroke-width="0.4" stroke-linecap="round" stroke-linejoin="round"/>
<path d="M103.5 189.07C103.5 189.07 103.3 187.12 103.5 186.74C103.59 186.56 104.55 184.78 105 184.4C105.33 184.13 105.84 184.35 105.85 184.78C105.85 185.33 105.36 187.46 105.74 188.2" stroke="black" stroke-width="0.4" stroke-linecap="round" stroke-linejoin="round"/>
<path d="M172.58 213.06L165.62 212.26L169.1 216.13L160.46 220.97L169.08 220.47L164.95 228.58L174.68 222.89L175.64 229.45L177.19 222.98L182.31 228L180.08 219.99H185.98L181.44 216.96L187.62 213.13L179.12 213.52L181.34 205.85L173.2 213.04" stroke="black" stroke-width="0.4" stroke-linecap="round" stroke-linejoin="round"/>
<path d="M168.16 251.23L161.79 252.58L163.14 258.95L157.35 253.89L154.16 261.56L153.29 253.89L144.31 255.96L151.27 249.92L143.54 243.79L153.29 245.63L157.16 238.29L158.99 245.63L165.36 245.05L161.79 248.14L168.16 251.23Z" stroke="black" stroke-width="0.4" stroke-linecap="round" stroke-linejoin="round"/>
<path d="M217.76 269.22L208.46 273.67L213.64 278.94L205.33 276.94L204.44 284.13L197.65 277.05L194.16 282.98L194.54 275.17L188.81 279.1L193.76 271.56L186.53 267.02L196.95 267.87L197.98 259.15L201.71 267.17L207.6 263.23L206.84 268.92L217.76 269.22Z" stroke="black" stroke-width="0.4" stroke-linecap="round" stroke-linejoin="round"/>
<path d="M91.5195 159.22C91.5195 159.22 91.9795 162.24 91.5195 163.34" stroke="black" stroke-width="0.4" stroke-linecap="round" stroke-linejoin="round"/>
<path d="M98.4199 163.34V163.35V165.3" stroke="black" stroke-width="0.4" stroke-linecap="round" stroke-linejoin="round"/>
<path d="M105.719 40.2547C105.721 40.0937 105.673 39.8896 105.575 39.6424C105.534 39.4905 105.446 39.2457 105.311 38.9082C105.01 38.2045 104.846 37.7081 104.82 37.4189C104.767 36.921 104.964 36.629 105.41 36.5428C105.956 36.3817 106.606 36.6005 107.358 37.1992C108.073 37.788 108.452 38.3905 108.494 39.0067C108.645 39.0459 108.823 39.0617 109.027 39.0539C109.145 39.0644 109.334 39.0732 109.595 39.0802C110.107 39.0514 110.447 39.0993 110.617 39.224C110.9 39.378 111.034 39.7558 111.019 40.3573C111.028 40.9447 110.859 41.3246 110.512 41.4969C110.279 41.6181 109.852 41.6689 109.232 41.6493L108.407 41.6777L107.867 44.1104C108.208 44.1986 108.634 44.2283 109.146 44.1996C109.658 44.1708 110.046 44.1102 110.313 44.0178C110.558 43.0724 110.747 42.264 110.881 41.5925C111.088 40.6373 111.227 39.8261 111.3 39.1588C111.325 38.9837 111.31 38.7681 111.255 38.5118C111.219 38.3409 111.157 38.0727 111.07 37.7072C110.859 36.9664 110.762 36.4468 110.778 36.1485C110.811 35.6325 111.098 35.3436 111.638 35.2819C112.325 35.2784 112.964 35.696 113.553 36.5349C114.157 37.3975 114.301 38.242 113.986 39.0683C113.72 40.3308 113.421 41.4036 113.092 42.2866C112.772 43.1318 112.386 43.9196 111.934 44.6499C112.171 45.7605 111.877 46.3904 111.051 46.5396C110.396 46.6524 109.148 46.4497 107.305 45.9317C106.802 46.548 106.371 46.8095 106.012 46.7164C105.629 46.6373 105.431 46.1524 105.42 45.2617C105.426 44.6175 105.453 43.9688 105.501 43.3155C105.523 42.9177 105.568 42.3544 105.636 41.6254L105.746 40.3829L105.719 40.2547ZM117.682 43.1433L117.077 45.7104C117.521 45.8658 118.025 45.9459 118.588 45.9508C119.034 45.9452 119.482 45.8898 119.933 45.7847L120.03 45.1745C120.091 44.7866 120.136 44.4956 120.166 44.3016C120.234 44.0369 120.306 43.7628 120.379 43.4792C120.171 43.4253 119.951 43.3784 119.719 43.3385C119.582 43.3231 119.357 43.2951 119.045 43.2545L117.867 43.1307L117.682 43.1433ZM115.266 41.4881C115.306 41.2564 115.301 40.9626 115.252 40.6069C115.225 40.3982 115.157 40.0779 115.047 39.6459C114.901 39.043 114.829 38.6207 114.831 38.3792C114.834 37.9765 114.978 37.7314 115.263 37.6439C115.834 37.3883 116.479 37.6259 117.197 38.3569C117.935 39.0928 118.274 39.8466 118.215 40.6182C118.883 40.6098 119.366 40.6542 119.664 40.7515C120.15 40.8978 120.489 41.1873 120.679 41.6201C120.965 40.9072 121.085 40.1716 121.039 39.4133C120.991 38.977 120.856 38.4074 120.635 37.7044C120.497 37.2247 120.424 36.883 120.416 36.6793C120.409 36.395 120.515 36.1804 120.735 36.0354C121.111 35.7497 121.624 35.8323 122.274 36.2831C122.91 36.7102 123.431 37.3092 123.836 38.0802C124.13 38.6606 124.277 39.1427 124.279 39.5265C124.277 39.768 124.193 40.0894 124.029 40.4907L123.73 41.2911C123.267 42.8456 122.881 43.9863 122.571 44.7132C122.378 45.1473 122.157 45.5339 121.907 45.8728C121.783 46.0423 121.689 46.1694 121.627 46.2541C121.526 46.4096 121.437 46.5983 121.359 46.8203C121.573 47.8643 121.336 48.4283 120.648 48.5124C120.022 48.5923 118.599 48.284 116.379 47.5874C115.868 47.9999 115.446 48.1123 115.111 47.9247C114.795 47.7419 114.607 47.2998 114.547 46.5981L114.889 43.9932L115.229 41.6299L115.266 41.4881ZM112.092 55.2532C109.632 54.7772 107.537 54.4559 105.804 54.2894C104.839 54.2006 103.844 54.1446 102.821 54.1216C102.158 54.1111 101.697 54.0622 101.437 53.9747C101.12 53.8725 100.637 53.5959 99.9873 53.145C99.1694 52.4084 98.5756 51.7804 98.2058 51.2608C97.897 50.8176 97.758 50.4587 97.7887 50.1843C97.8286 49.9525 97.9792 49.7998 98.2404 49.7263C98.4588 49.6618 98.7074 49.6758 98.9861 49.7682C99.9489 50.1792 101.283 50.636 102.989 51.1386C104.789 51.6657 106.581 52.1099 108.364 52.4711C108.43 51.9032 108.402 51.3108 108.28 50.6939C108.207 50.3522 108.076 49.8845 107.887 49.2907C107.707 48.7396 107.606 48.3503 107.584 48.1227C107.568 47.7957 107.684 47.5433 107.932 47.3654C108.252 47.065 108.711 47.0831 109.31 47.4199C109.908 47.7567 110.482 48.3088 111.029 49.0762C111.267 49.4809 111.374 49.811 111.348 50.0666C111.336 50.2655 111.215 50.5771 110.984 51.0014C110.825 51.3033 110.7 51.5532 110.608 51.7514C110.435 52.11 110.287 52.4853 110.165 52.8774C110.917 53.0118 111.757 53.1588 112.684 53.3184C113.748 53.4933 114.725 53.6557 115.614 53.8055C115.777 53.0205 115.864 52.3368 115.874 51.7542C115.919 50.8782 115.834 50.039 115.618 49.2365C115.34 48.5993 115.353 48.1186 115.659 47.7944C115.975 47.4323 116.465 47.4484 117.13 47.8426C117.464 48.1107 117.774 48.3929 118.06 48.6891C118.417 49.1043 118.73 49.5689 119 50.0828C119.215 50.5015 119.297 50.8457 119.247 51.1153C119.217 51.3093 119.061 51.6016 118.778 51.9924C118.534 52.3124 118.342 52.5855 118.202 52.8117C117.957 53.2122 117.743 53.6509 117.559 54.1278C117.989 54.1789 118.415 54.2086 118.837 54.217C119.06 54.2142 119.368 54.1931 119.761 54.1539C120.278 54.1062 120.669 54.1167 120.933 54.1853C121.359 54.2553 121.836 54.4797 122.363 54.8585C123.079 55.3668 123.472 55.8723 123.544 56.3751C123.601 56.854 123.384 57.3022 122.893 57.7196C122.606 57.9682 122.342 58.0914 122.101 58.0894C121.902 58.0782 121.453 57.9417 120.754 57.6798C119.706 57.2871 118.742 56.9566 117.863 56.6885C116.252 56.2104 114.425 55.747 112.383 55.2983L112.092 55.2532ZM141.667 62.5854C139.259 62.143 137.192 61.8694 135.463 61.7645C134.512 61.6995 133.517 61.6838 132.479 61.7175C131.806 61.7448 131.35 61.7172 131.109 61.6346C130.792 61.5324 130.354 61.2373 129.795 60.7493C129.104 60.0659 128.551 59.4382 128.134 58.8661C127.778 58.3704 127.564 57.9517 127.491 57.61C127.418 57.2683 127.477 57.0414 127.667 56.9293C127.877 56.8222 128.184 56.8414 128.591 56.987C130.276 57.6458 132.352 58.3151 134.819 58.9948C137.216 59.636 139.58 60.168 141.911 60.5908C142.009 60.2126 142.011 59.7792 141.915 59.2905C141.847 59.0104 141.708 58.6112 141.499 58.0931C141.277 57.5511 141.152 57.1758 141.125 56.9672C141.057 56.6065 141.129 56.3324 141.339 56.1447C140.582 56.0292 140.029 55.8658 139.68 55.6543C139.129 55.2896 138.762 54.68 138.58 53.8258C138.55 53.475 138.596 53.1437 138.717 52.8321C138.808 52.634 138.948 52.3675 139.136 52.0328C139.366 51.689 139.518 51.4155 139.59 51.2124C139.74 50.8679 139.812 50.5132 139.806 50.1484C139.797 50.1057 139.75 50.0532 139.665 49.9909C139.618 49.9384 139.519 49.8523 139.369 49.7325C138.827 49.3299 138.442 48.9879 138.212 48.7064C137.809 48.2387 137.682 47.8326 137.832 47.4881C138.033 47.1771 138.317 47.0185 138.682 47.0122C139.046 47.0059 139.749 47.1374 140.789 47.407C141.658 47.6324 142.94 47.8637 144.634 48.1009C146.37 48.3291 147.616 48.4298 148.369 48.4031C148.346 48.3366 148.344 48.2253 148.365 48.0691C148.37 47.9697 148.393 47.7638 148.434 47.4515L148.647 45.8119C147.549 45.6888 146.555 45.6328 145.664 45.6441C145.138 45.649 144.534 45.6841 143.851 45.7493C143.187 45.8193 142.721 45.8295 142.451 45.7798C142.073 45.6818 141.63 45.4056 141.122 44.9512C140.388 44.3575 139.841 43.8222 139.481 43.3454C139.148 42.9162 138.966 42.5664 138.935 42.2961C138.923 42.0307 139.027 41.8658 139.245 41.8014C139.469 41.718 139.771 41.7562 140.154 41.9158C141.447 42.4528 142.76 42.8739 144.094 43.1791C145.526 43.4899 146.797 43.6074 147.906 43.5317C148.153 43.5149 148.39 43.4956 148.618 43.4739C148.765 43.4514 148.942 43.4269 149.151 43.4003C149.592 43.333 149.924 43.3383 150.146 43.416C150.434 43.5511 150.883 43.9197 151.493 44.5219C152.141 45.2144 152.476 45.7146 152.497 46.0227C152.518 46.2503 152.314 46.5707 151.884 46.9839C151.583 47.2892 151.342 47.5595 151.16 47.7948C150.839 48.1757 150.549 48.5948 150.289 49.0521C151.138 49.9784 151.364 50.7028 150.967 51.2252C150.593 51.7336 149.9 51.8366 148.889 51.5342L146.711 51.1814C145.845 51.0176 145.169 50.9029 144.681 50.8371C143.83 50.6971 143.042 50.5837 142.318 50.4969C142.41 50.8436 142.421 51.1492 142.353 51.4139C142.309 51.5841 142.183 51.834 141.977 52.1639C141.842 52.3711 141.749 52.5385 141.695 52.666C141.58 52.8781 141.481 53.1047 141.398 53.3455C142.575 53.6304 143.663 53.7914 144.663 53.8285C145.217 53.8711 145.897 53.8557 146.702 53.7821C147.134 53.7526 147.439 53.7411 147.619 53.7473C147.923 53.7452 148.202 53.7974 148.457 53.9038C149.268 54.2755 149.757 54.725 149.923 55.2523C150.089 55.7796 149.876 56.2894 149.284 56.7817C148.97 56.9827 148.522 57.0783 147.939 57.0685C147.579 57.0559 146.929 56.958 145.987 56.7746C145.462 56.699 145.055 56.6339 144.767 56.5793C144.261 56.5086 143.799 56.4596 143.383 56.4324C144.541 57.2571 145.205 57.9237 145.376 58.4321C145.492 58.7647 145.367 59.2065 145.002 59.7576C144.858 60.0027 144.745 60.2054 144.663 60.3658C144.543 60.5969 144.458 60.8472 144.408 61.1168C145.378 61.2673 146.223 61.3551 146.943 61.3802C147.345 61.3837 147.805 61.3616 148.322 61.314C148.72 61.2558 149.016 61.2418 149.21 61.2719C149.523 61.3125 149.903 61.4413 150.351 61.6583C151.275 62.14 151.875 62.6686 152.149 63.2442C152.447 63.8863 152.314 64.4773 151.75 65.0172C151.397 65.3695 151.08 65.5396 150.801 65.5278C150.578 65.5306 150.144 65.3776 149.497 65.0689C148.52 64.6341 147.626 64.2711 146.814 63.9799C145.354 63.4604 143.679 62.9959 141.788 62.5864L141.667 62.5854ZM178.582 50.1202C177.276 49.9431 176.152 49.8435 175.21 49.8211C174.665 49.8212 174.082 49.8517 173.461 49.9126C172.963 49.9652 172.612 49.9551 172.409 49.8823C172.131 49.7898 171.69 49.5042 171.088 49.0253C170.542 48.5611 170.139 48.1336 169.877 47.7429C169.667 47.3858 169.572 47.0889 169.593 46.8522C169.633 46.6205 169.746 46.458 169.931 46.3648C170.093 46.2857 170.282 46.2944 170.5 46.3911C171.728 46.7901 172.789 47.0953 173.682 47.3067C174.935 47.6112 176.465 47.8968 178.272 48.1634C178.608 48.19 178.937 48.2047 179.26 48.2075C179.444 48.1949 179.681 48.1756 179.971 48.1496C180.412 48.0824 180.731 48.0946 180.93 48.1863C181.222 48.3026 181.575 48.6159 181.987 49.1263C182.475 49.7369 182.672 50.2218 182.579 50.581C182.52 50.8079 182.259 51.1135 181.796 51.498C181.467 51.7557 181.222 51.9644 181.059 52.1241C180.782 52.4154 180.559 52.7309 180.39 53.0705C180.962 53.8239 181.087 54.3911 180.766 54.772C180.493 55.1249 180.014 55.2227 179.328 55.0652L176.143 54.5119C175.329 54.3817 174.74 54.2795 174.376 54.2053C173.775 54.1101 173.302 54.0279 172.957 53.9586C172.855 54.2751 172.766 54.6154 172.692 54.9796C172.618 55.3437 172.58 55.6868 172.577 56.0089C173.215 56.1139 173.911 56.1933 174.664 56.2472C175.123 56.2653 175.746 56.2754 176.532 56.2775C177.859 56.2984 178.744 56.3865 179.188 56.542C179.873 56.78 180.249 57.3114 180.318 58.1363C180.326 58.8848 179.861 59.2788 178.922 59.318C178.33 59.3461 177.078 59.1932 175.167 58.8593L172.237 58.3722C171.403 58.3982 170.802 58.0709 170.433 57.3903C169.981 56.5668 170.109 55.45 170.817 54.0396C170.762 53.8639 170.666 53.6878 170.531 53.5113C170.437 53.4063 170.294 53.2582 170.101 53.0671C169.782 52.7422 169.566 52.4845 169.454 52.2941C169.272 51.9846 169.203 51.6642 169.249 51.333C169.337 50.9927 169.668 50.8463 170.24 50.8939C170.6 50.9065 171.319 51.0524 172.397 51.3317C173.612 51.6264 174.569 51.8242 175.27 51.925C176.49 52.1202 177.629 52.2035 178.685 52.1747C178.759 51.8911 178.811 51.612 178.842 51.3375C178.873 50.9825 178.891 50.6037 178.894 50.2011L178.582 50.1202ZM172.84 63.4012C170.177 62.9329 167.922 62.6411 166.076 62.5257C165.058 62.4838 164.006 62.4937 162.92 62.5554C162.224 62.5968 161.738 62.5618 161.465 62.4505C161.115 62.3196 160.55 61.931 159.769 61.2847C158.49 60.2268 157.789 59.3894 157.666 58.7725C157.553 58.1983 157.931 58.0239 158.801 58.2493C160.236 58.7828 162.202 59.3326 164.698 59.8989C166.49 60.3028 168.999 60.8218 172.224 61.456C172.226 61.2144 172.193 60.9536 172.124 60.6735C172.083 60.5216 172 60.2982 171.874 60.0034C171.74 59.6659 171.662 59.4236 171.639 59.2766C171.58 59.0392 171.612 58.8358 171.737 58.6663C171.857 58.4352 172.092 58.3449 172.443 58.3953C172.835 58.4366 173.31 58.6301 173.866 58.976C174.672 59.4472 175.102 59.8512 175.156 60.188C175.196 60.4205 175.035 60.772 174.671 61.2426L174.34 61.7016C175.394 61.9144 176.334 62.0267 177.158 62.0386C177.636 62.0616 178.198 62.0357 178.843 61.9607C179.364 61.8941 179.76 61.8857 180.029 61.9354C180.422 61.9767 180.873 62.144 181.382 62.4374C182.316 62.8812 182.916 63.4099 183.181 64.0232C183.441 64.575 183.361 65.0788 182.94 65.5347C182.644 65.8211 182.337 65.9535 182.02 65.9318C181.798 65.9346 181.311 65.7883 180.56 65.4929C179.526 65.1239 178.598 64.8128 177.776 64.5593C176.311 64.1393 174.666 63.7533 172.84 63.4012ZM173.047 65.755C174.484 66.1274 175.576 66.9753 176.322 68.2987C176.989 69.5408 177.166 70.7669 176.852 71.9769C176.519 73.2626 175.797 74.2559 174.687 74.9569C173.477 75.7329 172.088 75.9175 170.519 75.5108C169.233 75.1776 168.165 74.3559 167.314 73.0459C166.463 71.7358 166.192 70.4852 166.501 69.2941C166.848 67.9518 167.565 66.9371 168.651 66.2501C169.861 65.4741 171.327 65.3091 173.047 65.755ZM172.506 68.3084C171.58 68.0683 170.755 68.0967 170.033 68.3937C169.329 68.6956 168.899 69.149 168.742 69.754C168.595 70.3212 168.756 70.9076 169.224 71.5133C169.726 72.1477 170.43 72.5824 171.338 72.8176C172.283 73.0627 173.034 73.0052 173.592 72.6452C174.073 72.3462 174.394 71.8847 174.556 71.2608C174.693 70.7314 174.603 70.1835 174.286 69.617C173.912 68.9553 173.319 68.5191 172.506 68.3084ZM188.62 66.1592C188.358 66.3133 188.097 66.3466 187.837 66.2591C187.596 66.1765 187.399 66.0042 187.245 65.7423C187.109 65.4854 187.045 65.2266 187.052 64.9662C187.088 64.6728 187.215 64.4536 187.435 64.3086C188.36 63.6202 189.308 63.1902 190.281 63.0186C191.211 62.856 192.243 62.9218 193.377 63.2158C194.153 63.4167 194.949 63.8452 195.768 64.5012C196.234 64.8842 196.894 65.5294 197.748 66.4369C198.424 67.1769 198.936 67.693 199.284 67.9849C199.843 68.473 200.369 68.7807 200.86 68.9081C201.692 69.1237 202.45 69.1989 203.132 69.1337C203.896 69.0692 204.608 68.8504 205.27 68.4771C205.47 68.3272 205.705 68.3174 205.973 68.4476C206.205 68.568 206.397 68.7592 206.551 69.0211C206.719 69.3067 206.785 69.5963 206.75 69.8897C206.709 70.202 206.544 70.4516 206.253 70.6386C205.325 71.1849 204.327 71.4913 203.261 71.5579C202.374 71.6308 201.402 71.53 200.343 71.2556C199.511 71.04 198.672 70.5804 197.825 69.8767C197.322 69.4839 196.626 68.8195 195.739 67.8833C195.063 67.1432 194.558 66.6391 194.224 66.371C193.698 65.9116 193.207 65.6232 192.754 65.5056C191.96 65.2998 191.226 65.2508 190.552 65.3587C189.916 65.4764 189.272 65.7432 188.62 66.1592Z" fill="#410A0A"/>
</svg>
