<svg width="244" height="356" viewBox="0 0 244 356" fill="none" xmlns="http://www.w3.org/2000/svg">
<g filter="url(#filter0_d_523_3283)">
<g clip-path="url(#clip0_523_3283)">
<rect x="5" y="5" width="228" height="340" rx="12" fill="white"/>
<path d="M222.76 274.22L213.46 278.67L218.64 283.94L210.33 281.94L209.44 289.13L202.65 282.05L199.16 287.98L199.54 280.17L193.81 284.1L198.76 276.56L191.53 272.02L201.95 272.87L202.98 264.15L206.71 272.17L212.6 268.23L211.84 273.92L222.76 274.22Z" fill="#E55936"/>
<path d="M192.62 218.13L186.44 221.96L190.98 224.99H185.08L187.31 233L182.19 227.98L180.64 234.45L179.68 227.89L169.95 233.58L174.08 225.47L165.46 225.97L174.1 221.13L170.62 217.26L177.58 218.06L180.64 223.7L178.2 218.04L186.34 210.85L184.12 218.52L192.62 218.13Z" fill="#E55936"/>
<path d="M178.2 218.04L180.64 223.7L177.58 218.06L165.69 196.08C166 196.14 166.16 195.28 166.04 194.26H166.09C167.13 193.7 167.74 194.18 167.97 194.45C168.05 194.54 168.09 194.6 168.09 194.6L168.96 196.61L178.2 218.04Z" fill="#8C725B"/>
<path d="M170.62 191.94C169.05 190.7 167.79 189.58 167.79 189.58C168.63 189.53 169.56 189.46 170.6 189.36C170.6 189.36 171.29 189.8 172.27 190.14C173.05 191.69 176.72 193.99 176.75 194.35C176.95 196.54 173.32 194.06 170.62 191.94Z" fill="#FFD9B3"/>
<path d="M87.1501 175.19C88.2101 173.44 89.1801 172.05 90.1601 171C92.0401 168.99 93.9501 168.22 96.5001 168.51C96.8001 168.55 97.1101 168.59 97.4301 168.66C98.8101 168.94 100.94 169.54 103.42 170.3C110.94 172.62 121.65 176.39 124.34 176.9C127.92 177.57 131.87 175.84 138.54 177.86C145.2 179.89 154.91 182.93 158.48 182.6C162.05 182.26 162.97 185.01 166.54 186.41C170.12 187.81 170.99 186.94 172.34 187.47C173.69 188 175.77 190.27 175.77 190.27C174.61 190.74 173.29 190.49 172.27 190.14C171.29 189.8 170.6 189.36 170.6 189.36C169.56 189.46 168.63 189.53 167.79 189.58C167.79 189.58 169.05 190.7 170.62 191.94C170.59 192.14 170.27 194.55 169.28 196.47L168.96 196.61L168.09 194.6C168.09 194.6 168.05 194.54 167.97 194.45L168.09 192.74L165.46 192.35C165.79 192.92 165.97 193.62 166.04 194.26C166.16 195.28 166 196.14 165.69 196.08C165.59 196.07 165.46 195.93 165.32 195.66C164.39 193.83 161.17 192.06 159.17 191.06C157.18 190.06 156.5 186.94 156.5 186.94C148.71 184.82 128.73 189.9 119.61 185.4C114.81 183.03 110.55 181.6 107.11 180.74L107.06 180.93C107.06 180.93 108.63 183.22 108.71 185.69C107.48 185.15 105.54 186.84 105.33 187.02C105.49 186.77 107 184.25 103.39 181.87C99.5701 179.36 91.0701 183.51 86.6801 185.98C82.4101 188.38 79.4801 187.59 79.3301 187.54C80.2901 186.6 81.2101 185.43 82.1501 183.99C82.8701 182.89 83.5901 181.62 84.3601 180.18C85.3701 178.27 86.2901 176.61 87.1501 175.19Z" fill="#FFD9B3"/>
<path d="M173.16 256.23L166.79 257.58L168.14 263.95L162.35 258.89L159.16 266.56L158.29 258.89L149.31 260.96L156.27 254.92L148.54 248.79L158.29 250.63L162.16 243.29L163.99 250.63L170.36 250.05L166.79 253.14L173.16 256.23Z" fill="#E55936"/>
<path d="M99.2203 137.29C99.3503 138.59 100.49 140.44 100.49 140.44C96.6303 139.58 94.3703 137.74 93.0503 135.95C93.0503 135.95 91.6103 143.15 89.2903 146.19L89.1603 146.21C89.4603 148.84 90.0603 152.17 91.1603 153.42C90.9403 153.33 87.3803 151.77 84.8503 147.97C84.8503 147.97 84.3803 149.2 84.3603 150.93H84.1703C84.1703 150.93 78.5703 147.73 78.5703 134.46C78.5703 129.69 79.5703 125.93 81.0803 123.06C83.7803 117.93 88.0903 115.63 91.2203 115.48C93.2503 115.38 94.9503 115.76 96.4503 116.34H96.4603C100.3 117.84 102.83 120.69 106.33 120.45C111.21 120.12 113.67 117.51 113.67 117.51C113.76 118.99 113.29 119.81 113.21 119.92C118.58 117.39 124.05 119.63 124.05 119.63C121.45 119.89 118.91 121.18 117.24 122.22C124.42 120.15 129.12 123.93 129.12 123.93C126.66 123.64 124.39 125.43 124.39 125.43C124.39 125.43 130.47 126.34 132.02 134.46C133.56 142.57 128.01 144.77 128.01 144.77C126.77 149.11 123.09 150.81 122.86 150.91C124.78 147.53 122.52 142.49 122.52 142.49C122.29 143.54 121.83 143.97 121.83 143.97C121.26 142.1 120.5 140.62 119.7 139.46C117.75 136.65 115.57 135.71 115.34 135.62H115.32C114.97 134.9 114.37 134.07 113.36 133.1L111.1 133.5C111.37 134.26 111.52 135.11 111.57 135.98C111.74 138.94 110.77 142.3 109.84 144.17C109.1 145.66 108.38 146.22 108.26 144.89C108.11 143.2 107.14 141.53 106.08 140.18L105.75 140.44C102.96 139.65 100.83 138.51 99.2203 137.29Z" fill="#FFED8E"/>
<path d="M119.699 139.46C119.659 139.63 119.389 140.66 119.08 142.08L117.85 141.94C117.14 141.46 116.41 141.43 115.74 141.65L115.12 138.79C115.12 138.79 116.4 137.77 115.34 135.62C115.57 135.71 117.75 136.65 119.699 139.46Z" fill="#FFD9B3"/>
<path d="M112.21 165.46C109.97 166.47 107.06 165.41 107.06 165.41L107.34 163.54C108.3 163.67 109.54 163.71 111.1 163.56C111.66 163.51 112.2 163.32 112.67 163.01C113.27 162.6 114.08 161.92 114.6 161.01L112.59 159C112.59 159 113.72 157.97 113.68 157.26C113.65 156.61 111.69 155.63 111.31 154.33C111.39 154.38 112.43 154.88 114.19 154.33C115.3 153.99 116.69 153.24 118.29 151.71H118.3C118.86 153.48 119.95 154.74 119.95 156.76C119.95 158.57 118.4 163.12 114.9 166.23L112.21 165.46Z" fill="#FFD9B3"/>
<path d="M117.85 141.94L119.08 142.08C118.87 143.03 118.63 144.17 118.44 145.34C116.64 145.31 115.31 145.98 114.33 146.86L112.51 144.48C112.51 144.48 112.54 144.43 112.59 144.35C112.93 143.87 114.2 142.13 115.74 141.65C116.41 141.43 117.14 141.46 117.85 141.94Z" fill="#FFD9B3"/>
<path d="M114.33 146.86C115.31 145.98 116.64 145.31 118.44 145.34C118.33 145.99 118.23 146.65 118.15 147.3L117.96 147.28C117.69 147.31 117.43 147.33 117.2 147.36C114.92 147.62 112.95 148.99 111.96 150.92H111.95C111.95 150.92 112.51 148.52 114.33 146.86Z" fill="#FFED8E"/>
<path d="M113.58 304.52C116.96 304.52 119.71 307.27 119.71 310.65C119.71 314.03 116.96 316.78 113.58 316.78C110.2 316.78 107.45 314.04 107.45 310.65C107.45 310.46 107.46 310.28 107.48 310.09C107.63 308.42 108.45 306.94 109.67 305.93C110.73 305.05 112.1 304.52 113.58 304.52Z" fill="white"/>
<path d="M118.299 151.71H118.289C116.689 153.24 115.299 153.99 114.19 154.33C114.19 154.33 113.47 151.47 115.179 150.02C116.799 148.65 117.959 150.28 117.959 150.28H117.999C118.049 150.8 118.159 151.27 118.299 151.71Z" fill="#BCD8E2"/>
<path d="M117.96 147.28L118.15 147.3C118.07 147.95 118.01 148.58 117.97 149.18C117.95 149.57 117.97 149.94 118 150.28H117.96C117.96 150.28 116.8 148.65 115.18 150.02C113.47 151.47 114.19 154.33 114.19 154.33C112.43 154.88 111.39 154.38 111.31 154.33C111.26 154.2 111.24 154.07 111.24 153.93C111.24 153.79 111.24 153.64 111.25 153.5C111.3 152.57 111.54 151.7 111.96 150.92C112.95 148.99 114.92 147.62 117.2 147.36C117.43 147.33 117.69 147.31 117.96 147.28Z" fill="white"/>
<path d="M114.69 192.52C115.46 191.84 116.41 191.18 117.33 191.03C117.71 190.96 117.96 191.44 117.68 191.73C116.34 193.15 113.22 196.56 112.32 198.63C112.32 198.63 115.41 198.1 116.04 199.16C116.67 200.22 113.57 200.51 112.61 201.23C111.64 201.96 111.5 202.59 109.04 202.63C106.57 202.68 100.1 202.78 96.6796 202.2C93.2496 201.62 83.8896 197.71 83.8896 197.71C87.1596 195.92 91.5996 195.57 94.5996 194.45C94.5996 194.45 97.7897 197.37 103.87 198.05C103.87 198.05 106.39 194.72 108.5 194.07C108.92 193.94 109.32 193.91 109.68 194.04C109.68 194.04 110.14 193.71 110.81 193.34C111.94 192.72 113.66 191.97 114.69 192.52Z" fill="#FFD9B3"/>
<path d="M115.12 138.79L115.74 141.65C114.2 142.13 112.93 143.87 112.59 144.35L109.84 144.17C110.77 142.3 111.74 138.94 111.57 135.98H111.59C111.59 135.98 114.35 136.94 115.12 138.79Z" fill="#FFD9B3"/>
<path d="M115.339 135.62C116.399 137.77 115.119 138.79 115.119 138.79C114.349 136.94 111.59 135.98 111.59 135.98H111.57C111.52 135.11 111.37 134.26 111.1 133.5L113.359 133.1C114.369 134.07 114.969 134.9 115.319 135.61H115.339V135.62Z" fill="#FFED8E"/>
<path d="M111.31 154.33C111.69 155.63 113.65 156.61 113.68 157.26C113.72 157.97 112.59 159 112.59 159L114.6 161.01C114.08 161.92 113.27 162.6 112.67 163.01C112.2 163.32 111.66 163.51 111.1 163.56C109.54 163.71 108.3 163.67 107.34 163.54L107.06 165.41C107.06 165.41 109.97 166.47 112.21 165.46L114.9 166.23C113.53 167.45 111.86 168.45 109.86 168.98C107.83 169.52 105.61 169.18 103.42 168.35C100.97 167.41 98.5702 165.86 96.5202 164.22C94.5502 162.64 92.9002 160.97 91.8702 159.69C91.4402 159.87 90.9202 159.97 90.2702 159.81C89.2202 159.56 87.8502 158.62 86.0502 156.23C84.6902 154.41 84.3402 152.47 84.3602 150.93C84.3802 149.2 84.8502 147.97 84.8502 147.97C87.3802 151.77 90.9402 153.33 91.1602 153.42C90.0602 152.17 89.4602 148.84 89.1602 146.21L89.2902 146.19C91.6102 143.15 93.0502 135.95 93.0502 135.95C94.3702 137.74 96.6302 139.58 100.49 140.44C100.49 140.44 99.3502 138.59 99.2202 137.29C100.83 138.51 102.96 139.65 105.75 140.44L106.08 140.18C107.14 141.53 108.11 143.2 108.26 144.89C108.38 146.22 109.1 145.66 109.84 144.17L112.59 144.35C112.54 144.43 112.51 144.48 112.51 144.48L114.33 146.86C112.51 148.52 111.95 150.92 111.95 150.92H111.96C111.54 151.7 111.3 152.57 111.25 153.5C111.24 153.64 111.24 153.79 111.24 153.93C111.24 154.07 111.26 154.2 111.31 154.33ZM105.22 157.04C105.11 155.61 104.75 154.55 104.25 153.76C104.01 153.38 103.73 153.06 103.42 152.8C100 148.59 94.6002 150.92 94.6002 150.92C95.0602 152.43 96.7602 152.34 96.7602 152.34C97.2602 155.61 98.9602 156.92 100.71 157.34C102.93 157.89 105.22 157.04 105.22 157.04Z" fill="#FFD9B3"/>
<path d="M113.58 316.78V317.54C113.58 318.31 112.96 318.93 112.2 318.94C110.9 318.95 108.8 318.66 106.48 317.12C102.44 314.44 103.64 310.42 101.13 307.59C98.6196 304.76 97.2696 302.37 97.0096 300.51C96.7596 298.64 99.4496 297.66 99.4496 297.66C100.21 301.81 101.61 307.78 107.06 310.07L107.48 310.09C107.46 310.28 107.45 310.46 107.45 310.65C107.45 314.04 110.19 316.78 113.58 316.78Z" fill="#A5D75F"/>
<path d="M87.2298 223.49C82.9798 222.62 79.0698 222 78.7998 221.96C80.4398 218.1 80.0198 212 80.0198 212C80.0198 212 82.3298 212 86.5398 207.95C90.5898 204.03 93.7398 206.32 93.9598 206.49C93.9598 206.49 110.81 218.81 110.81 222.38C110.81 225.95 111.48 230.97 108.83 232.04C106.89 232.82 93.1798 236.44 83.8798 239.54C82.6898 235.69 81.2098 231.77 79.8598 228.45C83.2798 225.83 86.1098 223.69 87.2198 223.5L87.2298 223.49Z" fill="#FFD9B3"/>
<path d="M110.74 193.2L110.81 193.34C110.14 193.71 109.68 194.04 109.68 194.04C109.32 193.91 108.92 193.94 108.5 194.07C108.5 194.07 108.3 192.12 108.5 191.74C108.59 191.56 109.55 189.78 110 189.4C110.33 189.13 110.84 189.35 110.85 189.78C110.85 190.33 110.36 192.46 110.74 193.2Z" fill="#FFD9B3"/>
<path d="M109.57 305.82L109.67 305.93C108.45 306.94 107.63 308.42 107.48 310.09L107.06 310.07C101.61 307.78 100.21 301.81 99.4499 297.66C99.1799 296.22 98.9999 295 98.7499 294.23C97.7899 291.24 83.7799 280.23 78.9499 274.92C74.1299 269.6 74.3499 263.94 73.9699 260.85C73.6499 258.35 73.8499 252.11 69.4099 246.35C68.3699 245 67.0799 243.68 65.4699 242.44C65.0399 242.11 64.5999 241.75 64.1699 241.36C59.5299 237.29 54.8099 230.72 51.6299 225.84L54.3899 225.48C55.0699 226.41 55.9699 227.16 57.1599 227.5C57.1599 227.5 59.4199 223.64 62.6999 221.77C65.9799 219.9 68.0399 218.42 68.2399 214.56C68.2399 214.56 75.8999 216.75 76.0899 219.71C76.0899 219.71 76.7999 221.21 77.8399 223.61C78.4299 224.97 79.1299 226.62 79.8699 228.45C81.2199 231.77 82.6999 235.69 83.8899 239.54C85.3899 244.34 86.4499 249.03 86.2899 252.32C85.8099 262.27 100.59 284.28 103 289.21C105.41 294.13 109.47 302.82 109.57 305.82Z" fill="#FFD9B3"/>
<path d="M105.33 187.02C105.54 186.84 107.48 185.15 108.71 185.69C108.76 186.92 108.43 188.2 107.35 189.26C106.19 190.4 104.18 191.3 100.83 191.63C100.83 191.63 98.9402 192.81 94.6002 194.45C91.6002 195.57 87.1602 195.92 83.8902 197.71C82.8602 198.27 81.9602 198.97 81.2402 199.88C81.2302 200.09 81.2902 202.03 86.2902 202.44C91.4002 202.87 93.8202 206.28 93.9602 206.49C93.7402 206.32 90.5902 204.03 86.5402 207.95C82.3302 212 80.0202 212 80.0202 212C80.0202 212 80.4402 218.1 78.8002 221.96C78.5302 222.58 78.2202 223.14 77.8402 223.61C76.8002 221.21 76.0902 219.71 76.0902 219.71C75.9002 216.75 68.2402 214.56 68.2402 214.56C68.0402 218.42 65.9802 219.9 62.7002 221.77C59.4202 223.64 57.1602 227.5 57.1602 227.5C55.9702 227.16 55.0702 226.41 54.3902 225.48C52.2502 222.51 52.3102 217.63 52.3102 217.63C50.7202 218.52 49.1702 219.11 47.7202 219.48C41.8202 220.95 37.4002 218.81 37.4002 218.81C37.4002 218.81 41.1102 218.17 41.5202 214.69C41.7002 213.15 42.0002 211.89 42.3602 210.85C33.1502 209.37 35.0202 197.47 35.0202 197.47C37.5302 200.46 47.4702 199.59 49.4002 196.5C51.3402 193.41 58.2902 188.39 67.1702 189.94C72.8602 190.93 76.3002 190.45 79.3202 187.54H79.3302C79.4802 187.59 82.4102 188.38 86.6802 185.98C91.0702 183.51 99.5702 179.36 103.39 181.87C107 184.25 105.49 186.77 105.33 187.02Z" fill="#A5D75F"/>
<path d="M104.25 153.76C104.75 154.55 105.11 155.61 105.22 157.04C105.22 157.04 102.93 157.89 100.71 157.35C100.62 157.09 99.0606 152.48 104.25 153.76Z" fill="#BCD8E2"/>
<path d="M103.42 152.8C103.73 153.06 104.01 153.38 104.25 153.76C99.0598 152.48 100.62 157.09 100.71 157.34C98.9598 156.92 97.2598 155.61 96.7598 152.34C96.7598 152.34 100.92 150.66 103.42 152.8Z" fill="white"/>
<path d="M103.42 168.35V170.3C100.94 169.54 98.81 168.94 97.43 168.66C97.11 168.59 96.8 168.55 96.5 168.51L96.52 168.34C96.98 167.24 96.52 164.22 96.52 164.22C98.57 165.86 100.97 167.41 103.42 168.34V168.35Z" fill="#FFD9B3"/>
<path d="M103.42 152.8C100.92 150.66 96.7596 152.34 96.7596 152.34C96.7596 152.34 95.0596 152.43 94.5996 150.92C94.5996 150.92 99.9996 148.59 103.42 152.8Z" fill="#FFED8E"/>
<path d="M97.5403 103.07C97.5403 103.07 101.02 105.53 99.0903 109.4C99.0903 109.4 100.28 114.97 96.4603 116.34H96.4503C94.9503 115.76 93.2503 115.38 91.2203 115.48C88.0903 115.63 83.7803 117.93 81.0803 123.06C81.0803 123.06 72.8703 119 75.0003 113.84C75.0003 113.84 73.4503 104.23 80.8403 104.18C80.8403 104.18 81.7703 102.3 84.4303 101.3C85.6603 100.84 87.2503 100.57 89.2903 100.75C89.2903 100.75 95.2303 99.02 97.5403 103.07Z" fill="#FFED8E"/>
<path d="M90.2699 159.81L90.25 159.89C90.25 159.89 90.59 166.71 90.16 171C89.18 172.05 88.21 173.44 87.15 175.19C81.43 160.38 72.65 145.77 63.9 133.15C59.38 100.35 70.24 73.3698 73.97 65.1098C74.24 64.5098 75.1199 64.6598 75.1699 65.3098C75.4099 68.3398 76.8899 73.1098 78.57 78.0098C82.7099 90.0798 84.43 101.3 84.43 101.3C81.77 102.3 80.8399 104.18 80.8399 104.18C73.4499 104.23 75 113.84 75 113.84C72.87 119 81.08 123.06 81.08 123.06C79.57 125.93 78.57 129.69 78.57 134.46C78.57 147.73 84.1699 150.92 84.1699 150.92H84.36C84.34 152.47 84.69 154.41 86.05 156.23C87.85 158.62 89.2199 159.56 90.2699 159.81Z" fill="#D9F7FF"/>
<path d="M87.1502 175.19C86.2902 176.61 85.3702 178.27 84.3602 180.18C83.5902 181.62 82.8702 182.89 82.1502 183.99C72.7502 181.03 49.2402 164.41 31.8602 135.31C18.3402 112.67 18.6902 81.2199 19.5102 68.3799C19.5802 67.2799 21.1202 67.1099 21.4302 68.1599C23.4502 74.9299 28.0002 86.8799 37.2702 98.6099C42.0602 104.68 52.9602 117.36 63.9002 133.15C72.6502 145.77 81.4302 160.38 87.1502 175.19Z" fill="#D9F7FF"/>
<path d="M65.4697 242.44C67.0797 243.68 68.3697 245 69.4097 246.35C62.5997 250 53.8997 254.45 51.9197 254.92L51.7797 255.08C50.8497 254.21 49.5997 253.68 48.2297 253.68C48.0597 253.68 47.8897 253.69 47.7197 253.71C47.7197 253.71 51.0697 246.22 58.9897 244.64C59.5297 244.53 60.0797 244.45 60.6597 244.4C60.6597 244.4 62.0397 243.19 64.1697 241.36C64.5997 241.75 65.0397 242.11 65.4697 242.44Z" fill="#FFD9B3"/>
<path d="M58.9901 244.63C51.0701 246.22 47.7201 253.71 47.7201 253.71C45.3701 253.93 43.4801 255.71 43.0801 257.99L41.3801 257.48C40.9001 257.33 40.6201 256.85 40.7101 256.37C40.9001 255.44 41.4401 253.85 42.9901 252.03C45.4601 249.13 47.5701 250.39 49.6001 247.97C51.6301 245.56 55.1001 241.21 56.7401 241.36C58.3301 241.5 58.9501 244.43 58.9901 244.63Z" fill="#A5D75F"/>
<path d="M54.3897 225.48L51.6297 225.84C49.2397 222.19 47.7197 219.48 47.7197 219.48C49.1697 219.11 50.7197 218.52 52.3097 217.63C52.3097 217.63 52.2497 222.51 54.3897 225.48Z" fill="#FFD9B3"/>
<path d="M53.4602 258.92C53.4602 261.81 51.1202 264.15 48.2302 264.15C45.3402 264.15 42.9902 261.81 42.9902 258.92C42.9902 258.6 43.0202 258.29 43.0802 257.99C43.4802 255.71 45.3702 253.93 47.7202 253.71C47.8902 253.69 48.0602 253.68 48.2302 253.68C49.6002 253.68 50.8502 254.21 51.7802 255.08C52.8102 256.03 53.4602 257.4 53.4602 258.92Z" fill="white"/>
<path d="M87.1602 175.22C87.1602 175.22 87.1502 175.2 87.1502 175.19C81.4302 160.38 72.6502 145.77 63.9002 133.15C52.9602 117.36 42.0602 104.68 37.2702 98.6099C28.0002 86.8799 23.4502 74.9299 21.4302 68.1599C21.1202 67.1099 19.5802 67.2799 19.5102 68.3799C18.6902 81.2199 18.3402 112.67 31.8602 135.31C49.2402 164.41 72.7502 181.03 82.1502 183.99" stroke="black" stroke-width="0.4" stroke-linecap="round" stroke-linejoin="round"/>
<path d="M103.42 168.34C100.97 167.41 98.5701 165.86 96.5201 164.22C94.5501 162.64 92.9001 160.97 91.8701 159.69C91.3701 159.07 91.0201 158.55 90.8301 158.16" stroke="black" stroke-width="0.4" stroke-linecap="round" stroke-linejoin="round"/>
<path d="M119.71 139.43C119.71 139.43 119.71 139.44 119.7 139.46C119.66 139.63 119.39 140.66 119.08 142.08C118.87 143.03 118.63 144.17 118.44 145.34C118.33 145.99 118.23 146.65 118.15 147.3C118.07 147.95 118.01 148.58 117.97 149.18C117.95 149.57 117.97 149.94 118 150.28C118.05 150.8 118.16 151.27 118.3 151.71C118.86 153.48 119.95 154.74 119.95 156.76C119.95 158.57 118.4 163.12 114.9 166.23C113.53 167.45 111.86 168.45 109.86 168.98C107.83 169.52 105.61 169.18 103.42 168.35" stroke="black" stroke-width="0.4" stroke-linecap="round" stroke-linejoin="round"/>
<path d="M94.5996 131.51C94.5996 131.51 95.5996 134.56 99.2196 137.29C100.83 138.51 102.96 139.65 105.75 140.44" stroke="black" stroke-width="0.4" stroke-linecap="round" stroke-linejoin="round"/>
<path d="M103.19 137.21C103.19 137.21 104.7 138.42 106.08 140.18C107.14 141.53 108.11 143.2 108.26 144.89C108.38 146.22 109.1 145.66 109.84 144.17C110.77 142.3 111.74 138.94 111.57 135.98C111.52 135.11 111.37 134.26 111.1 133.5C110.89 132.93 110.61 132.41 110.24 131.95" stroke="black" stroke-width="0.4" stroke-linecap="round" stroke-linejoin="round"/>
<path d="M115.32 135.61C114.97 134.9 114.37 134.07 113.36 133.1" stroke="black" stroke-width="0.4" stroke-linecap="round" stroke-linejoin="round"/>
<path d="M111.59 135.98C111.59 135.98 114.349 136.94 115.119 138.79C115.119 138.79 116.399 137.77 115.339 135.62" stroke="black" stroke-width="0.4" stroke-linecap="round" stroke-linejoin="round"/>
<path d="M115.32 135.61H115.34C115.57 135.71 117.75 136.65 119.7 139.46C120.5 140.62 121.26 142.1 121.83 143.97C121.83 143.97 122.29 143.54 122.52 142.49C122.75 141.43 122.75 139.77 121.83 137.3" stroke="black" stroke-width="0.4" stroke-linecap="round" stroke-linejoin="round"/>
<path d="M91.2197 131.51C91.2197 131.51 91.3897 133.69 93.0497 135.95C94.3697 137.74 96.6297 139.58 100.49 140.44C100.49 140.44 99.3497 138.59 99.2197 137.29" stroke="black" stroke-width="0.4" stroke-linecap="round" stroke-linejoin="round"/>
<path d="M93.0495 135.95C93.0495 135.95 91.6097 143.15 89.29 146.19" stroke="black" stroke-width="0.4" stroke-linecap="round" stroke-linejoin="round"/>
<path d="M91.1699 153.43H91.1599C90.9399 153.33 87.3799 151.77 84.8499 147.97C83.6199 146.13 82.6299 143.76 82.3799 140.78" stroke="black" stroke-width="0.4" stroke-linecap="round" stroke-linejoin="round"/>
<path d="M88.8496 142.62C88.8496 142.62 88.9196 144.22 89.1596 146.21C89.4595 148.84 90.0594 152.17 91.1593 153.42" stroke="black" stroke-width="0.4" stroke-linecap="round" stroke-linejoin="round"/>
<path d="M122.85 150.92H122.86C123.09 150.81 126.769 149.11 128.009 144.77C128.729 142.28 128.629 138.91 126.609 134.46" stroke="black" stroke-width="0.4" stroke-linecap="round" stroke-linejoin="round"/>
<path d="M122.52 142.49C122.52 142.49 124.779 147.53 122.859 150.91" stroke="black" stroke-width="0.4" stroke-linecap="round" stroke-linejoin="round"/>
<path d="M128.01 144.77C128.01 144.77 133.56 142.57 132.02 134.46C130.47 126.34 124.39 125.43 124.39 125.43C124.39 125.43 126.66 123.64 129.12 123.93C129.12 123.93 124.42 120.15 117.24 122.22" stroke="black" stroke-width="0.4" stroke-linecap="round" stroke-linejoin="round"/>
<path d="M113.21 119.93C112.22 120.39 111.23 121.02 110.29 121.85" stroke="black" stroke-width="0.4" stroke-linecap="round" stroke-linejoin="round"/>
<path d="M115.32 123.54C115.32 123.54 116.05 122.94 117.23 122.22H117.24C118.91 121.18 121.45 119.89 124.05 119.63C124.05 119.63 118.58 117.39 113.21 119.92" stroke="black" stroke-width="0.4" stroke-linecap="round" stroke-linejoin="round"/>
<path d="M96.4503 116.34C94.9503 115.76 93.2503 115.38 91.2203 115.48C88.0903 115.63 83.7803 117.93 81.0803 123.06C79.5703 125.93 78.5703 129.69 78.5703 134.46C78.5703 147.73 84.1703 150.92 84.1703 150.92" stroke="black" stroke-width="0.4" stroke-linecap="round" stroke-linejoin="round"/>
<path d="M113.21 119.93C113.29 119.81 113.76 118.99 113.67 117.51C113.67 117.51 111.21 120.12 106.33 120.45C102.83 120.69 100.3 117.84 96.46 116.34" stroke="black" stroke-width="0.4" stroke-linecap="round" stroke-linejoin="round"/>
<path d="M84.8502 147.97C84.8502 147.97 84.3802 149.2 84.3602 150.93C84.3402 152.47 84.6902 154.41 86.0502 156.23C87.8502 158.62 89.2202 159.56 90.2702 159.81C90.9202 159.97 91.4402 159.87 91.8702 159.69H91.8802" stroke="black" stroke-width="0.4" stroke-linecap="round" stroke-linejoin="round"/>
<path d="M84.43 101.3C84.43 101.3 82.7099 90.0798 78.57 78.0098C76.89 73.1098 75.4099 68.3398 75.1699 65.3098C75.1199 64.6598 74.24 64.5098 73.97 65.1098C70.24 73.3698 59.38 100.35 63.9 133.15" stroke="black" stroke-width="0.4" stroke-linecap="round" stroke-linejoin="round"/>
<path d="M81.0803 123.06C81.0803 123.06 72.8703 119 75.0003 113.84C75.0003 113.84 73.4503 104.23 80.8403 104.18C80.8403 104.18 81.7703 102.3 84.4303 101.3C85.6603 100.84 87.2503 100.57 89.2903 100.75C89.2903 100.75 95.2303 99.02 97.5403 103.07C97.5403 103.07 101.02 105.53 99.0903 109.4C99.0903 109.4 100.28 114.97 96.4603 116.34H96.4503" stroke="black" stroke-width="0.4" stroke-linecap="round" stroke-linejoin="round"/>
<path d="M112.51 144.48C112.51 144.48 112.54 144.43 112.59 144.35C112.93 143.87 114.2 142.13 115.739 141.65C116.409 141.43 117.139 141.46 117.849 141.94" stroke="black" stroke-width="0.4" stroke-linecap="round" stroke-linejoin="round"/>
<path d="M103.89 147.86C103.89 147.86 96.8699 142.47 94.3799 147.44" stroke="black" stroke-width="0.4" stroke-linecap="round" stroke-linejoin="round"/>
<path d="M112.59 159C112.59 159 113.72 157.97 113.68 157.26C113.65 156.61 111.69 155.63 111.31 154.33C111.26 154.2 111.24 154.07 111.24 153.93C111.24 153.79 111.24 153.64 111.25 153.5C111.3 152.57 111.54 151.7 111.96 150.92C112.95 148.99 114.92 147.62 117.2 147.36C117.43 147.33 117.69 147.31 117.96 147.28" stroke="black" stroke-width="0.4" stroke-linecap="round" stroke-linejoin="round"/>
<path d="M100.71 157.34C98.9598 156.92 97.2598 155.61 96.7598 152.34C96.7598 152.34 100.92 150.66 103.42 152.8C103.73 153.06 104.01 153.38 104.25 153.76C104.75 154.55 105.11 155.61 105.22 157.04C105.22 157.04 102.93 157.89 100.71 157.35" stroke="black" stroke-width="0.4" stroke-linecap="round" stroke-linejoin="round"/>
<path d="M111.3 154.33C111.38 154.38 112.42 154.88 114.18 154.33C115.29 153.99 116.68 153.24 118.28 151.71" stroke="black" stroke-width="0.4" stroke-linecap="round" stroke-linejoin="round"/>
<path d="M100.71 157.35C100.62 157.09 99.0606 152.48 104.25 153.76" stroke="black" stroke-width="0.4" stroke-linecap="round" stroke-linejoin="round"/>
<path d="M114.19 154.33C114.19 154.33 113.47 151.47 115.179 150.02C116.799 148.65 117.959 150.28 117.959 150.28" stroke="black" stroke-width="0.4" stroke-linecap="round" stroke-linejoin="round"/>
<path d="M96.7596 152.34C96.7596 152.34 95.0596 152.43 94.5996 150.92C94.5996 150.92 99.9996 148.59 103.42 152.8" stroke="black" stroke-width="0.4" stroke-linecap="round" stroke-linejoin="round"/>
<path d="M111.95 150.92C111.95 150.92 112.51 148.52 114.33 146.86C115.31 145.98 116.64 145.31 118.44 145.34" stroke="black" stroke-width="0.4" stroke-linecap="round" stroke-linejoin="round"/>
<path d="M109.83 158.86C109.83 158.86 110.24 159.13 110.77 159.3" stroke="black" stroke-width="0.4" stroke-linecap="round" stroke-linejoin="round"/>
<path d="M114.6 161.01C114.08 161.92 113.27 162.6 112.67 163.01C112.2 163.32 111.66 163.51 111.1 163.56C109.54 163.71 108.3 163.67 107.34 163.54C105.02 163.22 104.25 162.36 104.25 162.36" stroke="black" stroke-width="0.4" stroke-linecap="round" stroke-linejoin="round"/>
<path d="M107.06 165.41C107.06 165.41 109.969 166.47 112.209 165.46C112.309 165.42 112.409 165.37 112.509 165.31" stroke="black" stroke-width="0.4" stroke-linecap="round" stroke-linejoin="round"/>
<path d="M90.2501 159.89C90.2501 159.89 90.5901 166.71 90.1602 171" stroke="black" stroke-width="0.4" stroke-linecap="round" stroke-linejoin="round"/>
<path d="M97.9502 179.44C97.9502 179.44 101.42 179.32 107.11 180.74C110.55 181.6 114.81 183.03 119.61 185.4C128.73 189.9 148.71 184.82 156.5 186.94C156.5 186.94 157.18 190.06 159.17 191.06C161.17 192.06 164.39 193.83 165.32 195.66C165.46 195.93 165.59 196.07 165.69 196.08C166 196.14 166.16 195.28 166.04 194.26C165.97 193.62 165.79 192.92 165.46 192.35C165.28 192.03 165.05 191.75 164.77 191.54" stroke="black" stroke-width="0.4" stroke-linecap="round" stroke-linejoin="round"/>
<path d="M79.3301 187.54C80.2901 186.6 81.2101 185.43 82.1501 183.99C82.8701 182.89 83.5901 181.62 84.3601 180.18C85.3701 178.27 86.2901 176.61 87.1501 175.19C88.2101 173.44 89.1801 172.05 90.1601 171C92.0401 168.99 93.9501 168.22 96.5001 168.51C96.8001 168.55 97.1101 168.59 97.4301 168.66C98.8101 168.94 100.94 169.54 103.42 170.3C110.94 172.62 121.65 176.39 124.34 176.9C127.92 177.57 131.87 175.84 138.54 177.86C145.2 179.89 154.91 182.93 158.48 182.6C162.05 182.26 162.97 185.01 166.54 186.41C170.12 187.81 170.99 186.94 172.34 187.47C173.69 188 175.77 190.27 175.77 190.27C174.61 190.74 173.29 190.49 172.27 190.14C171.29 189.8 170.6 189.36 170.6 189.36C169.56 189.46 168.63 189.53 167.79 189.58C159.18 190.13 160.02 188.49 160.02 188.49" stroke="black" stroke-width="0.4" stroke-linecap="round" stroke-linejoin="round"/>
<path d="M42.3602 210.85C33.1502 209.37 35.0202 197.47 35.0202 197.47C37.5302 200.46 47.4702 199.59 49.4002 196.5C51.3402 193.41 58.2902 188.39 67.1702 189.94C72.8602 190.93 76.3002 190.45 79.3202 187.54" stroke="black" stroke-width="0.4" stroke-linecap="round" stroke-linejoin="round"/>
<path d="M165.46 192.35L168.09 192.74L167.97 194.45" stroke="black" stroke-width="0.4" stroke-linecap="round" stroke-linejoin="round"/>
<path d="M167.79 189.58C167.79 189.58 169.05 190.7 170.62 191.94C173.32 194.06 176.95 196.54 176.75 194.35C176.72 193.99 173.05 191.69 172.27 190.14" stroke="black" stroke-width="0.4" stroke-linecap="round" stroke-linejoin="round"/>
<path d="M170.62 191.93C170.59 192.14 170.27 194.55 169.28 196.47" stroke="black" stroke-width="0.4" stroke-linecap="round" stroke-linejoin="round"/>
<path d="M165.69 196.08L177.58 218.06L180.64 223.7L178.2 218.04L168.96 196.61L168.09 194.6C168.09 194.6 168.05 194.54 167.97 194.45C167.74 194.18 167.13 193.7 166.09 194.26" stroke="black" stroke-width="0.4" stroke-linecap="round" stroke-linejoin="round"/>
<path d="M45.4004 206.42C45.4004 206.42 43.5604 207.39 42.3604 210.85C42.0004 211.89 41.7004 213.15 41.5204 214.69C41.1104 218.17 37.4004 218.81 37.4004 218.81C37.4004 218.81 41.8204 220.95 47.7204 219.48C49.1704 219.11 50.7204 218.52 52.3104 217.63C53.2704 217.09 54.2404 216.43 55.2304 215.65" stroke="black" stroke-width="0.4" stroke-linecap="round" stroke-linejoin="round"/>
<path d="M52.3097 217.63C52.3097 217.63 52.2497 222.51 54.3897 225.48C55.0697 226.41 55.9697 227.16 57.1597 227.5C57.1597 227.5 59.4197 223.64 62.6997 221.77C65.9797 219.9 68.0397 218.42 68.2397 214.56C68.2397 214.56 75.8997 216.75 76.0897 219.71C76.0897 219.71 76.7997 221.21 77.8397 223.61C78.4297 224.97 79.1297 226.62 79.8697 228.45C81.2197 231.77 82.6997 235.69 83.8897 239.54C85.3897 244.34 86.4497 249.03 86.2897 252.32C85.8097 262.27 100.59 284.28 103 289.21C105.41 294.13 109.47 302.82 109.57 305.82" stroke="black" stroke-width="0.4" stroke-linecap="round" stroke-linejoin="round"/>
<path d="M47.7197 219.48C47.7197 219.48 49.2397 222.19 51.6297 225.84C54.8097 230.72 59.5297 237.29 64.1697 241.36C64.5997 241.75 65.0397 242.11 65.4697 242.44C67.0797 243.68 68.3697 245 69.4097 246.35C73.8497 252.11 73.6497 258.35 73.9697 260.85C74.3497 263.94 74.1297 269.6 78.9497 274.92C83.7797 280.23 97.7897 291.24 98.7497 294.23C98.9997 295 99.1797 296.22 99.4497 297.66C100.21 301.81 101.61 307.78 107.06 310.07" stroke="black" stroke-width="0.4" stroke-linecap="round" stroke-linejoin="round"/>
<path d="M93.9696 206.5C93.8296 206.28 91.4096 202.87 86.2996 202.44C81.2996 202.03 81.2396 200.09 81.2496 199.89" stroke="black" stroke-width="0.4" stroke-linecap="round" stroke-linejoin="round"/>
<path d="M77.8398 223.61C78.2198 223.14 78.5299 222.58 78.7999 221.96C80.4399 218.1 80.0198 212 80.0198 212C80.0198 212 82.3298 212 86.5398 207.95C90.5898 204.03 93.7398 206.32 93.9598 206.49" stroke="black" stroke-width="0.4" stroke-linecap="round" stroke-linejoin="round"/>
<path d="M109.67 305.93C110.73 305.05 112.1 304.52 113.58 304.52C116.96 304.52 119.71 307.27 119.71 310.65C119.71 314.03 116.96 316.78 113.58 316.78C110.2 316.78 107.45 314.04 107.45 310.65C107.45 310.46 107.46 310.28 107.48 310.09C107.63 308.42 108.45 306.94 109.67 305.93Z" stroke="black" stroke-width="0.4" stroke-linecap="round" stroke-linejoin="round"/>
<path d="M99.4496 297.66C99.4496 297.66 96.7596 298.64 97.0096 300.51C97.2696 302.37 98.6196 304.76 101.13 307.59C103.64 310.42 102.44 314.44 106.48 317.12C108.8 318.66 110.9 318.95 112.2 318.94C112.96 318.93 113.58 318.31 113.58 317.54V316.78" stroke="black" stroke-width="0.4" stroke-linecap="round" stroke-linejoin="round"/>
<path d="M51.9199 254.92C53.8999 254.45 62.5999 250 69.4099 246.35" stroke="black" stroke-width="0.4" stroke-linecap="round" stroke-linejoin="round"/>
<path d="M93.9696 206.5C93.9696 206.5 110.82 218.81 110.82 222.38C110.82 225.95 111.49 230.97 108.84 232.04C106.9 232.82 93.1896 236.44 83.8896 239.54" stroke="black" stroke-width="0.4" stroke-linecap="round" stroke-linejoin="round"/>
<path d="M51.7802 255.08C52.8102 256.03 53.4602 257.4 53.4602 258.92C53.4602 261.81 51.1202 264.15 48.2302 264.15C45.3402 264.15 42.9902 261.81 42.9902 258.92C42.9902 258.6 43.0202 258.29 43.0802 257.99C43.4802 255.71 45.3702 253.93 47.7202 253.71C47.8902 253.69 48.0602 253.68 48.2302 253.68C49.6002 253.68 50.8502 254.21 51.7802 255.08Z" stroke="black" stroke-width="0.4" stroke-linecap="round" stroke-linejoin="round"/>
<path d="M87.2301 223.5C86.1201 223.69 83.2901 225.83 79.8701 228.45" stroke="black" stroke-width="0.4" stroke-linecap="round" stroke-linejoin="round"/>
<path d="M58.9902 244.63C59.5302 244.53 60.0801 244.45 60.66 244.4C60.66 244.4 62.0398 243.19 64.1695 241.36" stroke="black" stroke-width="0.4" stroke-linecap="round" stroke-linejoin="round"/>
<path d="M47.7197 253.71C47.7197 253.71 51.0697 246.22 58.9897 244.64" stroke="black" stroke-width="0.4" stroke-linecap="round" stroke-linejoin="round"/>
<path d="M58.9901 244.64C58.9501 244.43 58.3301 241.5 56.7401 241.36C55.1001 241.21 51.6301 245.56 49.6001 247.97C47.5701 250.39 45.4601 249.13 42.9901 252.03C41.4401 253.85 40.9001 255.44 40.7101 256.37C40.6201 256.85 40.9001 257.33 41.3801 257.48L43.0801 257.99" stroke="black" stroke-width="0.4" stroke-linecap="round" stroke-linejoin="round"/>
<path d="M78.79 221.96H78.8C79.07 222 82.98 222.62 87.23 223.49C91.45 224.36 95.99 225.46 97.69 226.5" stroke="black" stroke-width="0.4" stroke-linecap="round" stroke-linejoin="round"/>
<path d="M105.31 187.04L105.33 187.02C105.54 186.84 107.479 185.15 108.709 185.69" stroke="black" stroke-width="0.4" stroke-linecap="round" stroke-linejoin="round"/>
<path d="M79.3203 187.54H79.3303C79.4803 187.59 82.4103 188.38 86.6803 185.98C91.0703 183.51 99.5703 179.36 103.39 181.87C107 184.25 105.49 186.77 105.33 187.02" stroke="black" stroke-width="0.4" stroke-linecap="round" stroke-linejoin="round"/>
<path d="M107.06 180.93C107.06 180.93 108.63 183.22 108.71 185.69C108.76 186.92 108.43 188.2 107.35 189.26C106.19 190.4 104.18 191.3 100.83 191.63C100.83 191.63 98.9404 192.81 94.6004 194.45C91.6004 195.57 87.1604 195.92 83.8904 197.71C82.8604 198.27 81.9604 198.97 81.2404 199.88C80.9104 200.29 80.6304 200.74 80.4004 201.23" stroke="black" stroke-width="0.4" stroke-linecap="round" stroke-linejoin="round"/>
<path d="M94.5996 194.45C94.5996 194.45 97.7896 197.37 103.87 198.05C103.87 198.05 106.39 194.72 108.5 194.07C108.92 193.94 109.32 193.91 109.68 194.04C109.68 194.04 110.14 193.71 110.81 193.34C111.94 192.72 113.66 191.97 114.69 192.52" stroke="black" stroke-width="0.4" stroke-linecap="round" stroke-linejoin="round"/>
<path d="M113 194.33C113 194.33 113.7 193.4 114.69 192.52C115.46 191.84 116.41 191.18 117.33 191.03C117.71 190.96 117.96 191.44 117.68 191.73C116.34 193.15 113.22 196.56 112.32 198.63C112.32 198.63 115.41 198.1 116.04 199.16C116.67 200.22 113.57 200.51 112.61 201.23C111.64 201.96 111.5 202.59 109.04 202.63C106.57 202.68 100.1 202.78 96.6796 202.2C93.2496 201.62 83.8896 197.71 83.8896 197.71" stroke="black" stroke-width="0.4" stroke-linecap="round" stroke-linejoin="round"/>
<path d="M108.5 194.07C108.5 194.07 108.3 192.12 108.5 191.74C108.59 191.56 109.55 189.78 110 189.4C110.33 189.13 110.84 189.35 110.85 189.78C110.85 190.33 110.36 192.46 110.74 193.2" stroke="black" stroke-width="0.4" stroke-linecap="round" stroke-linejoin="round"/>
<path d="M177.58 218.06L170.62 217.26L174.1 221.13L165.46 225.97L174.08 225.47L169.95 233.58L179.68 227.89L180.64 234.45L182.19 227.98L187.31 233L185.08 224.99H190.98L186.44 221.96L192.62 218.13L184.12 218.52L186.34 210.85L178.2 218.04" stroke="black" stroke-width="0.4" stroke-linecap="round" stroke-linejoin="round"/>
<path d="M173.16 256.23L166.79 257.58L168.14 263.95L162.35 258.89L159.16 266.56L158.29 258.89L149.31 260.96L156.27 254.92L148.54 248.79L158.29 250.63L162.16 243.29L163.99 250.63L170.36 250.05L166.79 253.14L173.16 256.23Z" stroke="black" stroke-width="0.4" stroke-linecap="round" stroke-linejoin="round"/>
<path d="M222.76 274.22L213.46 278.67L218.64 283.94L210.33 281.94L209.44 289.13L202.65 282.05L199.16 287.98L199.54 280.17L193.81 284.1L198.76 276.56L191.53 272.02L201.95 272.87L202.98 264.15L206.71 272.17L212.6 268.23L211.84 273.92L222.76 274.22Z" stroke="black" stroke-width="0.4" stroke-linecap="round" stroke-linejoin="round"/>
<path d="M96.5195 164.22C96.5195 164.22 96.9795 167.24 96.5195 168.34" stroke="black" stroke-width="0.4" stroke-linecap="round" stroke-linejoin="round"/>
<path d="M103.42 168.34V168.35V170.3" stroke="black" stroke-width="0.4" stroke-linecap="round" stroke-linejoin="round"/>
<path d="M110.719 45.2547C110.721 45.0937 110.673 44.8896 110.575 44.6424C110.534 44.4905 110.446 44.2457 110.311 43.9082C110.01 43.2045 109.846 42.7081 109.82 42.4189C109.767 41.921 109.964 41.629 110.41 41.5428C110.956 41.3817 111.606 41.6005 112.358 42.1992C113.073 42.788 113.452 43.3905 113.494 44.0067C113.645 44.0459 113.823 44.0617 114.027 44.0539C114.145 44.0644 114.334 44.0732 114.595 44.0802C115.107 44.0514 115.447 44.0993 115.617 44.224C115.9 44.378 116.034 44.7558 116.019 45.3573C116.028 45.9447 115.859 46.3246 115.512 46.4969C115.279 46.6181 114.852 46.6689 114.232 46.6493L113.407 46.6777L112.867 49.1104C113.208 49.1986 113.634 49.2283 114.146 49.1996C114.658 49.1708 115.046 49.1102 115.313 49.0178C115.558 48.0724 115.747 47.264 115.881 46.5925C116.088 45.6373 116.227 44.8261 116.3 44.1588C116.325 43.9837 116.31 43.7681 116.255 43.5118C116.219 43.3409 116.157 43.0727 116.07 42.7072C115.859 41.9664 115.762 41.4468 115.778 41.1485C115.811 40.6325 116.098 40.3436 116.638 40.2819C117.325 40.2784 117.964 40.696 118.553 41.5349C119.157 42.3975 119.301 43.242 118.986 44.0683C118.72 45.3308 118.421 46.4036 118.092 47.2866C117.772 48.1318 117.386 48.9196 116.934 49.6499C117.171 50.7605 116.877 51.3904 116.051 51.5396C115.396 51.6524 114.148 51.4497 112.305 50.9317C111.802 51.548 111.371 51.8095 111.012 51.7164C110.629 51.6373 110.431 51.1524 110.42 50.2617C110.426 49.6175 110.453 48.9688 110.501 48.3155C110.523 47.9177 110.568 47.3544 110.636 46.6254L110.746 45.3829L110.719 45.2547ZM122.682 48.1433L122.077 50.7104C122.521 50.8658 123.025 50.9459 123.588 50.9508C124.034 50.9452 124.482 50.8898 124.933 50.7847L125.03 50.1745C125.091 49.7866 125.136 49.4956 125.166 49.3016C125.234 49.0369 125.306 48.7628 125.379 48.4792C125.171 48.4253 124.951 48.3784 124.719 48.3385C124.582 48.3231 124.357 48.2951 124.045 48.2545L122.867 48.1307L122.682 48.1433ZM120.266 46.4881C120.306 46.2564 120.301 45.9626 120.252 45.6069C120.225 45.3982 120.157 45.0779 120.047 44.6459C119.901 44.043 119.829 43.6207 119.831 43.3792C119.834 42.9765 119.978 42.7314 120.263 42.6439C120.834 42.3883 121.479 42.6259 122.197 43.3569C122.935 44.0928 123.274 44.8466 123.215 45.6182C123.883 45.6098 124.366 45.6542 124.664 45.7515C125.15 45.8978 125.489 46.1873 125.679 46.6201C125.965 45.9072 126.085 45.1716 126.039 44.4133C125.991 43.977 125.856 43.4074 125.635 42.7044C125.497 42.2247 125.424 41.883 125.416 41.6793C125.409 41.395 125.515 41.1804 125.735 41.0354C126.111 40.7497 126.624 40.8323 127.274 41.2831C127.91 41.7102 128.431 42.3092 128.836 43.0802C129.13 43.6606 129.277 44.1427 129.279 44.5265C129.277 44.768 129.193 45.0894 129.029 45.4907L128.73 46.2911C128.267 47.8456 127.881 48.9863 127.571 49.7132C127.378 50.1473 127.157 50.5339 126.907 50.8728C126.783 51.0423 126.689 51.1694 126.627 51.2541C126.526 51.4096 126.437 51.5983 126.359 51.8203C126.573 52.8643 126.336 53.4283 125.648 53.5124C125.022 53.5923 123.599 53.284 121.379 52.5874C120.868 52.9999 120.446 53.1123 120.111 52.9247C119.795 52.7419 119.607 52.2998 119.547 51.5981L119.889 48.9932L120.229 46.6299L120.266 46.4881ZM117.092 60.2532C114.632 59.7772 112.537 59.4559 110.804 59.2894C109.839 59.2006 108.844 59.1446 107.821 59.1216C107.158 59.1111 106.697 59.0622 106.437 58.9747C106.12 58.8725 105.637 58.5959 104.987 58.145C104.169 57.4084 103.576 56.7804 103.206 56.2608C102.897 55.8176 102.758 55.4587 102.789 55.1843C102.829 54.9525 102.979 54.7998 103.24 54.7263C103.459 54.6618 103.707 54.6758 103.986 54.7682C104.949 55.1792 106.283 55.636 107.989 56.1386C109.789 56.6657 111.581 57.1099 113.364 57.4711C113.43 56.9032 113.402 56.3108 113.28 55.6939C113.207 55.3522 113.076 54.8845 112.887 54.2907C112.707 53.7396 112.606 53.3503 112.584 53.1227C112.568 52.7957 112.684 52.5433 112.932 52.3654C113.252 52.065 113.711 52.0831 114.31 52.4199C114.908 52.7567 115.482 53.3088 116.029 54.0762C116.267 54.4809 116.374 54.811 116.348 55.0666C116.336 55.2655 116.215 55.5771 115.984 56.0014C115.825 56.3033 115.7 56.5532 115.608 56.7514C115.435 57.11 115.287 57.4853 115.165 57.8774C115.917 58.0118 116.757 58.1588 117.684 58.3184C118.748 58.4933 119.725 58.6557 120.614 58.8055C120.777 58.0205 120.864 57.3368 120.874 56.7542C120.919 55.8782 120.834 55.039 120.618 54.2365C120.34 53.5993 120.353 53.1186 120.659 52.7944C120.975 52.4323 121.465 52.4484 122.13 52.8426C122.464 53.1107 122.774 53.3929 123.06 53.6891C123.417 54.1043 123.73 54.5689 124 55.0828C124.215 55.5015 124.297 55.8457 124.247 56.1153C124.217 56.3093 124.061 56.6016 123.778 56.9924C123.534 57.3124 123.342 57.5855 123.202 57.8117C122.957 58.2122 122.743 58.6509 122.559 59.1278C122.989 59.1789 123.415 59.2086 123.837 59.217C124.06 59.2142 124.368 59.1931 124.761 59.1539C125.278 59.1062 125.669 59.1167 125.933 59.1853C126.359 59.2553 126.836 59.4797 127.363 59.8585C128.079 60.3668 128.472 60.8723 128.544 61.3751C128.601 61.854 128.384 62.3022 127.893 62.7196C127.606 62.9682 127.342 63.0914 127.101 63.0894C126.902 63.0782 126.453 62.9417 125.754 62.6798C124.706 62.2871 123.742 61.9566 122.863 61.6885C121.252 61.2104 119.425 60.747 117.383 60.2983L117.092 60.2532ZM146.667 67.5854C144.259 67.143 142.192 66.8694 140.463 66.7645C139.512 66.6995 138.517 66.6838 137.479 66.7175C136.806 66.7448 136.35 66.7172 136.109 66.6346C135.792 66.5324 135.354 66.2373 134.795 65.7493C134.104 65.0659 133.551 64.4382 133.134 63.8661C132.778 63.3704 132.564 62.9517 132.491 62.61C132.418 62.2683 132.477 62.0414 132.667 61.9293C132.877 61.8222 133.184 61.8414 133.591 61.987C135.276 62.6458 137.352 63.3151 139.819 63.9948C142.216 64.636 144.58 65.168 146.911 65.5908C147.009 65.2126 147.011 64.7792 146.915 64.2905C146.847 64.0104 146.708 63.6112 146.499 63.0931C146.277 62.5511 146.152 62.1758 146.125 61.9672C146.057 61.6065 146.129 61.3324 146.339 61.1447C145.582 61.0292 145.029 60.8658 144.68 60.6543C144.129 60.2896 143.762 59.68 143.58 58.8258C143.55 58.475 143.596 58.1437 143.717 57.8321C143.808 57.634 143.948 57.3675 144.136 57.0328C144.366 56.689 144.518 56.4155 144.59 56.2124C144.74 55.8679 144.812 55.5132 144.806 55.1484C144.797 55.1057 144.75 55.0532 144.665 54.9909C144.618 54.9384 144.519 54.8523 144.369 54.7325C143.827 54.3299 143.442 53.9879 143.212 53.7064C142.809 53.2387 142.682 52.8326 142.832 52.4881C143.033 52.1771 143.317 52.0185 143.682 52.0122C144.046 52.0059 144.749 52.1374 145.789 52.407C146.658 52.6324 147.94 52.8637 149.634 53.1009C151.37 53.3291 152.616 53.4298 153.369 53.4031C153.346 53.3366 153.344 53.2253 153.365 53.0691C153.37 52.9697 153.393 52.7638 153.434 52.4515L153.647 50.8119C152.549 50.6888 151.555 50.6328 150.664 50.6441C150.138 50.649 149.534 50.6841 148.851 50.7493C148.187 50.8193 147.721 50.8295 147.451 50.7798C147.073 50.6818 146.63 50.4056 146.122 49.9512C145.388 49.3575 144.841 48.8222 144.481 48.3454C144.148 47.9162 143.966 47.5664 143.935 47.2961C143.923 47.0307 144.027 46.8658 144.245 46.8014C144.469 46.718 144.771 46.7562 145.154 46.9158C146.447 47.4528 147.76 47.8739 149.094 48.1791C150.526 48.4899 151.797 48.6074 152.906 48.5317C153.153 48.5149 153.39 48.4956 153.618 48.4739C153.765 48.4514 153.942 48.4269 154.151 48.4003C154.592 48.333 154.924 48.3383 155.146 48.416C155.434 48.5511 155.883 48.9197 156.493 49.5219C157.141 50.2144 157.476 50.7146 157.497 51.0227C157.518 51.2503 157.314 51.5707 156.884 51.9839C156.583 52.2892 156.342 52.5595 156.16 52.7948C155.839 53.1757 155.549 53.5948 155.289 54.0521C156.138 54.9784 156.364 55.7028 155.967 56.2252C155.593 56.7336 154.9 56.8366 153.889 56.5342L151.711 56.1814C150.845 56.0176 150.169 55.9029 149.681 55.8371C148.83 55.6971 148.042 55.5837 147.318 55.4969C147.41 55.8436 147.421 56.1492 147.353 56.4139C147.309 56.5841 147.183 56.834 146.977 57.1639C146.842 57.3711 146.749 57.5385 146.695 57.666C146.58 57.8781 146.481 58.1047 146.398 58.3455C147.575 58.6304 148.663 58.7914 149.663 58.8285C150.217 58.8711 150.897 58.8557 151.702 58.7821C152.134 58.7526 152.439 58.7411 152.619 58.7473C152.923 58.7452 153.202 58.7974 153.457 58.9038C154.268 59.2755 154.757 59.725 154.923 60.2523C155.089 60.7796 154.876 61.2894 154.284 61.7817C153.97 61.9827 153.522 62.0783 152.939 62.0685C152.579 62.0559 151.929 61.958 150.987 61.7746C150.462 61.699 150.055 61.6339 149.767 61.5793C149.261 61.5086 148.799 61.4596 148.383 61.4324C149.541 62.2571 150.205 62.9237 150.376 63.4321C150.492 63.7647 150.367 64.2065 150.002 64.7576C149.858 65.0027 149.745 65.2054 149.663 65.3658C149.543 65.5969 149.458 65.8472 149.408 66.1168C150.378 66.2673 151.223 66.3551 151.943 66.3802C152.345 66.3837 152.805 66.3616 153.322 66.314C153.72 66.2558 154.016 66.2418 154.21 66.2719C154.523 66.3125 154.903 66.4413 155.351 66.6583C156.275 67.14 156.875 67.6686 157.149 68.2442C157.447 68.8863 157.314 69.4773 156.75 70.0172C156.397 70.3695 156.08 70.5396 155.801 70.5278C155.578 70.5306 155.144 70.3776 154.497 70.0689C153.52 69.6341 152.626 69.2711 151.814 68.9799C150.354 68.4604 148.679 67.9959 146.788 67.5864L146.667 67.5854ZM183.582 55.1202C182.276 54.9431 181.152 54.8435 180.21 54.8211C179.665 54.8212 179.082 54.8517 178.461 54.9126C177.963 54.9652 177.612 54.9551 177.409 54.8823C177.131 54.7898 176.69 54.5042 176.088 54.0253C175.542 53.5611 175.139 53.1336 174.877 52.7429C174.667 52.3858 174.572 52.0889 174.593 51.8522C174.633 51.6205 174.746 51.458 174.931 51.3648C175.093 51.2857 175.282 51.2944 175.5 51.3911C176.728 51.7901 177.789 52.0953 178.682 52.3067C179.935 52.6112 181.465 52.8968 183.272 53.1634C183.608 53.19 183.937 53.2047 184.26 53.2075C184.444 53.1949 184.681 53.1756 184.971 53.1496C185.412 53.0824 185.731 53.0946 185.93 53.1863C186.222 53.3026 186.575 53.6159 186.987 54.1263C187.475 54.7369 187.672 55.2218 187.579 55.581C187.52 55.8079 187.259 56.1135 186.796 56.498C186.467 56.7557 186.222 56.9644 186.059 57.1241C185.782 57.4154 185.559 57.7309 185.39 58.0705C185.962 58.8239 186.087 59.3911 185.766 59.772C185.493 60.1249 185.014 60.2227 184.328 60.0652L181.143 59.5119C180.329 59.3817 179.74 59.2795 179.376 59.2053C178.775 59.1101 178.302 59.0279 177.957 58.9586C177.855 59.2751 177.766 59.6154 177.692 59.9796C177.618 60.3437 177.58 60.6868 177.577 61.0089C178.215 61.1139 178.911 61.1933 179.664 61.2472C180.123 61.2653 180.746 61.2754 181.532 61.2775C182.859 61.2984 183.744 61.3865 184.188 61.542C184.873 61.78 185.249 62.3114 185.318 63.1363C185.326 63.8848 184.861 64.2788 183.922 64.318C183.33 64.3461 182.078 64.1932 180.167 63.8593L177.237 63.3722C176.403 63.3982 175.802 63.0709 175.433 62.3903C174.981 61.5668 175.109 60.45 175.817 59.0396C175.762 58.8639 175.666 58.6878 175.531 58.5113C175.437 58.4063 175.294 58.2582 175.101 58.0671C174.782 57.7422 174.566 57.4845 174.454 57.2941C174.272 56.9846 174.203 56.6642 174.249 56.333C174.337 55.9927 174.668 55.8463 175.24 55.8939C175.6 55.9065 176.319 56.0524 177.397 56.3317C178.612 56.6264 179.569 56.8242 180.27 56.925C181.49 57.1202 182.629 57.2035 183.685 57.1747C183.759 56.8911 183.811 56.612 183.842 56.3375C183.873 55.9825 183.891 55.6037 183.894 55.2011L183.582 55.1202ZM177.84 68.4012C175.177 67.9329 172.922 67.6411 171.076 67.5257C170.058 67.4838 169.006 67.4937 167.92 67.5554C167.224 67.5968 166.738 67.5618 166.465 67.4505C166.115 67.3196 165.55 66.931 164.769 66.2847C163.49 65.2268 162.789 64.3894 162.666 63.7725C162.553 63.1983 162.931 63.0239 163.801 63.2493C165.236 63.7828 167.202 64.3326 169.698 64.8989C171.49 65.3028 173.999 65.8218 177.224 66.456C177.226 66.2144 177.193 65.9536 177.124 65.6735C177.083 65.5216 177 65.2982 176.874 65.0034C176.74 64.6659 176.662 64.4236 176.639 64.2766C176.58 64.0392 176.612 63.8358 176.737 63.6663C176.857 63.4352 177.092 63.3449 177.443 63.3953C177.835 63.4366 178.31 63.6301 178.866 63.976C179.672 64.4472 180.102 64.8512 180.156 65.188C180.196 65.4205 180.035 65.772 179.671 66.2426L179.34 66.7016C180.394 66.9144 181.334 67.0267 182.158 67.0386C182.636 67.0616 183.198 67.0357 183.843 66.9607C184.364 66.8941 184.76 66.8857 185.029 66.9354C185.422 66.9767 185.873 67.144 186.382 67.4374C187.316 67.8812 187.916 68.4099 188.181 69.0232C188.441 69.575 188.361 70.0788 187.94 70.5347C187.644 70.8211 187.337 70.9535 187.02 70.9318C186.798 70.9346 186.311 70.7883 185.56 70.4929C184.526 70.1239 183.598 69.8128 182.776 69.5593C181.311 69.1393 179.666 68.7533 177.84 68.4012ZM178.047 70.755C179.484 71.1274 180.576 71.9753 181.322 73.2987C181.989 74.5408 182.166 75.7669 181.852 76.9769C181.519 78.2626 180.797 79.2559 179.687 79.9569C178.477 80.7329 177.088 80.9175 175.519 80.5108C174.233 80.1776 173.165 79.3559 172.314 78.0459C171.463 76.7358 171.192 75.4852 171.501 74.2941C171.848 72.9518 172.565 71.9371 173.651 71.2501C174.861 70.4741 176.327 70.3091 178.047 70.755ZM177.506 73.3084C176.58 73.0683 175.755 73.0967 175.033 73.3937C174.329 73.6956 173.899 74.149 173.742 74.754C173.595 75.3212 173.756 75.9076 174.224 76.5133C174.726 77.1477 175.43 77.5824 176.338 77.8176C177.283 78.0627 178.034 78.0052 178.592 77.6452C179.073 77.3462 179.394 76.8847 179.556 76.2608C179.693 75.7314 179.603 75.1835 179.286 74.617C178.912 73.9553 178.319 73.5191 177.506 73.3084ZM193.62 71.1592C193.358 71.3133 193.097 71.3466 192.837 71.2591C192.596 71.1765 192.399 71.0042 192.245 70.7423C192.109 70.4854 192.045 70.2266 192.052 69.9662C192.088 69.6728 192.215 69.4536 192.435 69.3086C193.36 68.6202 194.308 68.1902 195.281 68.0186C196.211 67.856 197.243 67.9218 198.377 68.2158C199.153 68.4167 199.949 68.8452 200.768 69.5012C201.234 69.8842 201.894 70.5294 202.748 71.4369C203.424 72.1769 203.936 72.693 204.284 72.9849C204.843 73.473 205.369 73.7807 205.86 73.9081C206.692 74.1237 207.45 74.1989 208.132 74.1337C208.896 74.0692 209.608 73.8504 210.27 73.4771C210.47 73.3272 210.705 73.3174 210.973 73.4476C211.205 73.568 211.397 73.7592 211.551 74.0211C211.719 74.3067 211.785 74.5963 211.75 74.8897C211.709 75.202 211.544 75.4516 211.253 75.6386C210.325 76.1849 209.327 76.4913 208.261 76.5579C207.374 76.6308 206.402 76.53 205.343 76.2556C204.511 76.04 203.672 75.5804 202.825 74.8767C202.322 74.4839 201.626 73.8195 200.739 72.8833C200.063 72.1432 199.558 71.6391 199.224 71.371C198.698 70.9116 198.207 70.6232 197.754 70.5056C196.96 70.2998 196.226 70.2508 195.552 70.3587C194.916 70.4764 194.272 70.7432 193.62 71.1592Z" fill="#410A0A"/>
</g>
<rect x="7" y="7" width="224" height="336" rx="10" stroke="#961200" stroke-width="4"/>
</g>
<defs>
<filter id="filter0_d_523_3283" x="0" y="0" width="244" height="356" filterUnits="userSpaceOnUse" color-interpolation-filters="sRGB">
<feFlood flood-opacity="0" result="BackgroundImageFix"/>
<feColorMatrix in="SourceAlpha" type="matrix" values="0 0 0 0 0 0 0 0 0 0 0 0 0 0 0 0 0 0 127 0" result="hardAlpha"/>
<feOffset dx="3" dy="3"/>
<feGaussianBlur stdDeviation="4"/>
<feComposite in2="hardAlpha" operator="out"/>
<feColorMatrix type="matrix" values="0 0 0 0 0 0 0 0 0 0 0 0 0 0 0 0 0 0 0.2 0"/>
<feBlend mode="normal" in2="BackgroundImageFix" result="effect1_dropShadow_523_3283"/>
<feBlend mode="normal" in="SourceGraphic" in2="effect1_dropShadow_523_3283" result="shape"/>
</filter>
<clipPath id="clip0_523_3283">
<rect x="5" y="5" width="228" height="340" rx="12" fill="white"/>
</clipPath>
</defs>
</svg>
