<svg width="14" height="20" viewBox="0 0 14 20" fill="none" xmlns="http://www.w3.org/2000/svg">
<path fill-rule="evenodd" clip-rule="evenodd" d="M12.9286 10.7525C12.7977 10.994 12.6548 11.2576 12.5 11.5558L7.84428 18.8922C7.45151 19.5111 6.54837 19.5111 6.15561 18.8921L1.5 11.5558C0.5 9.62983 0 8.57122 0 6.74088C0 3.01802 3.13403 0 7 0C10.866 0 14 3.01802 14 6.74088C14 8.77555 13.6429 9.43454 12.9286 10.7525ZM7 9.80478C8.75727 9.80478 10.1818 8.43296 10.1818 6.74074C10.1818 5.04852 8.75727 3.6767 7 3.6767C5.24273 3.6767 3.81818 5.04852 3.81818 6.74074C3.81818 8.43296 5.24273 9.80478 7 9.80478Z" fill="#BF2202"/>
</svg>
