<svg width="396" height="396" viewBox="0 0 396 396" fill="none" xmlns="http://www.w3.org/2000/svg">
<g filter="url(#filter0_i_487_2412)">
<rect width="396" height="396" rx="24" fill="#F6B95B"/>
</g>
<path d="M56.136 62.092V64.892H40.848V39.804H44.32V62.092H56.136ZM66.076 52.488H62.1V65.396H58.656V39.44H62.1V49.632H66.076V52.488ZM88.0691 39.44H91.5131V65.396H88.0691V39.44ZM87.1731 64.164C85.7358 64.3133 84.1958 64.444 82.5531 64.556C80.9291 64.668 79.2771 64.752 77.5971 64.808C75.9171 64.8827 74.2465 64.9387 72.5851 64.976C70.9238 65.0133 69.3558 65.032 67.8811 65.032L67.4331 62.232C68.8891 62.2133 70.4385 62.1853 72.0811 62.148C73.7425 62.1107 75.4131 62.064 77.0931 62.008C78.7731 61.952 80.4345 61.8773 82.0771 61.784C83.7198 61.6907 85.2691 61.5787 86.7251 61.448L87.1731 64.164ZM84.5691 49.996C84.5691 52.4787 83.9345 54.2987 82.6651 55.456C81.3958 56.6133 79.5105 57.192 77.0091 57.192C74.5078 57.192 72.6131 56.6133 71.3251 55.456C70.0558 54.2987 69.4211 52.4787 69.4211 49.996V46.72C69.4211 44.2373 70.0558 42.4173 71.3251 41.26C72.6131 40.1027 74.5078 39.524 77.0091 39.524C79.5105 39.524 81.3958 40.1027 82.6651 41.26C83.9345 42.4173 84.5691 44.2373 84.5691 46.72V49.996ZM81.0971 46.608C81.0971 45.8053 80.9945 45.1333 80.7891 44.592C80.6025 44.032 80.3225 43.5933 79.9491 43.276C79.5945 42.94 79.1651 42.7067 78.6611 42.576C78.1758 42.4267 77.6251 42.352 77.0091 42.352C76.3931 42.352 75.8331 42.4267 75.3291 42.576C74.8251 42.7067 74.3865 42.94 74.0131 43.276C73.6585 43.5933 73.3785 44.032 73.1731 44.592C72.9865 45.1333 72.8931 45.8053 72.8931 46.608V50.108C72.8931 50.9293 72.9865 51.6107 73.1731 52.152C73.3785 52.6933 73.6585 53.132 74.0131 53.468C74.3865 53.7853 74.8251 54.0187 75.3291 54.168C75.8331 54.2987 76.3931 54.364 77.0091 54.364C77.6251 54.364 78.1758 54.2987 78.6611 54.168C79.1651 54.0187 79.5945 53.7853 79.9491 53.468C80.3225 53.132 80.6025 52.6933 80.7891 52.152C80.9945 51.6107 81.0971 50.9293 81.0971 50.108V46.608ZM109.301 54.392V57.22H124.477V54.392H127.921V65.396H105.829V54.392H109.301ZM116.385 39.804V52.32H104.513V39.804H116.385ZM124.561 39.44H127.921V53.132H124.561V47.168H121.817V52.852H118.457V39.636H121.817V44.34H124.561V39.44ZM109.301 62.624H124.477V59.992H109.301V62.624ZM107.845 49.576H113.025V42.548H107.845V49.576ZM144.734 46.048C144.734 48.4933 144.454 50.6773 143.894 52.6C143.334 54.5227 142.531 56.2493 141.486 57.78C140.459 59.292 139.209 60.6267 137.734 61.784C136.259 62.9413 134.598 63.968 132.75 64.864L131.042 62.372C132.479 61.6813 133.814 60.86 135.046 59.908C136.297 58.9373 137.37 57.8173 138.266 56.548C139.181 55.2787 139.899 53.8413 140.422 52.236C140.945 50.6307 141.206 48.8293 141.206 46.832V42.632H131.91V39.804H144.734V46.048ZM151.37 39.44H154.814V65.396H151.37V39.44ZM167.814 64.892V50.752H175.682V42.66H167.758V39.804H179.182V53.608H171.286V62.092H180.722V64.892H167.814ZM182.598 39.664H185.958V65.032H182.598V53.048H180.05V50.22H182.598V39.664ZM191.25 39.44V65.396H187.862V39.44H191.25ZM215.231 58.452V57.164H196.583V54.392H218.675V61.224H200.055V62.624H219.095V65.396H196.583V58.452H215.231ZM210.051 44.34V39.636H213.411V52.852H210.051V47.168H207.111V52.292H195.267V39.804H198.711V43.64H203.667V39.804H207.111V44.34H210.051ZM218.675 39.44V53.132H215.315V39.44H218.675ZM198.711 46.468V49.52H203.667V46.468H198.711ZM64.06 101.512V111.396H42.248V101.512H64.06ZM54.036 87.54C54.036 89.052 53.7467 90.4613 53.168 91.768C52.608 93.0747 51.8053 94.2693 50.76 95.352C49.7147 96.416 48.4453 97.368 46.952 98.208C45.4773 99.0293 43.8347 99.7293 42.024 100.308L40.4 97.704C41.6507 97.3307 42.8547 96.8453 44.012 96.248C45.188 95.6507 46.224 94.9693 47.12 94.204C48.0347 93.42 48.7813 92.5613 49.36 91.628C49.9387 90.676 50.2747 89.668 50.368 88.604H41.38V85.776H54.036V87.54ZM64.06 85.44V100.532H60.616V93.84H54.988V90.984H60.616V85.44H64.06ZM45.72 108.624H60.616V104.284H45.72V108.624ZM81.7131 110.808C80.4625 109.968 79.2771 108.951 78.1571 107.756C77.0558 106.561 76.1505 105.236 75.4411 103.78C74.6945 105.255 73.7425 106.627 72.5851 107.896C71.4278 109.184 70.2051 110.248 68.9171 111.088L66.8731 108.792C69.0198 107.448 70.6905 105.815 71.8851 103.892C73.0985 101.951 73.7051 99.7947 73.7051 97.424V85.664H77.2051V97.424C77.2051 99.8507 77.7558 101.969 78.8571 103.78C79.9771 105.591 81.6105 107.168 83.7571 108.512L81.7131 110.808ZM93.5291 98.488H89.5531V111.396H86.1091V85.44H89.5531V95.632H93.5291V98.488ZM109.782 103.416C109.782 105.955 109.232 107.877 108.13 109.184C107.029 110.509 105.246 111.172 102.782 111.172C100.318 111.172 98.5263 110.509 97.4062 109.184C96.3049 107.877 95.7542 105.955 95.7542 103.416V102.268C95.7542 99.7293 96.3049 97.8067 97.4062 96.5C98.5263 95.1747 100.318 94.512 102.782 94.512C105.246 94.512 107.029 95.1747 108.13 96.5C109.232 97.8067 109.782 99.7293 109.782 102.268V103.416ZM120.982 98.488H117.006V111.396H113.562V85.44H117.006V95.632H120.982V98.488ZM106.31 102.156C106.31 100.513 106.03 99.3 105.47 98.516C104.91 97.732 104.014 97.34 102.782 97.34C101.55 97.34 100.645 97.732 100.066 98.516C99.5063 99.3 99.2263 100.513 99.2263 102.156V103.528C99.2263 105.171 99.5063 106.384 100.066 107.168C100.645 107.952 101.55 108.344 102.782 108.344C104.014 108.344 104.91 107.952 105.47 107.168C106.03 106.384 106.31 105.171 106.31 103.528V102.156ZM95.3623 93.028V90.172H110.454V93.028H95.3623ZM98.1623 88.38V85.524H107.626V88.38H98.1623ZM136.339 92.048C136.339 94.4933 136.059 96.6773 135.499 98.6C134.939 100.523 134.137 102.249 133.091 103.78C132.065 105.292 130.814 106.627 129.339 107.784C127.865 108.941 126.203 109.968 124.355 110.864L122.647 108.372C124.085 107.681 125.419 106.86 126.651 105.908C127.902 104.937 128.975 103.817 129.871 102.548C130.786 101.279 131.505 99.8413 132.027 98.236C132.55 96.6307 132.811 94.8293 132.811 92.832V88.632H123.515V85.804H136.339V92.048ZM142.975 85.44H146.419V111.396H142.975V85.44Z" fill="#410A0A"/>
<path fill-rule="evenodd" clip-rule="evenodd" d="M249.182 263.397C249.182 261.153 250.99 259.333 253.22 259.333H307.231C309.462 259.333 311.27 261.153 311.27 263.397C311.27 265.641 309.462 267.46 307.231 267.46H253.22C250.99 267.46 249.182 265.641 249.182 263.397Z" fill="#410A0A"/>
<path fill-rule="evenodd" clip-rule="evenodd" d="M300.604 328.413H307.231C309.462 328.413 311.27 326.594 311.27 324.349C311.27 322.105 309.462 320.286 307.231 320.286H290.418C291.168 321.628 292.112 322.891 293.247 324.034C295.37 326.17 297.911 327.63 300.604 328.413ZM276.423 328.413C274.961 325.832 273.867 323.097 273.141 320.286H253.22C250.99 320.286 249.182 322.105 249.182 324.349C249.182 326.594 250.99 328.413 253.22 328.413H276.423Z" fill="#410A0A"/>
<path fill-rule="evenodd" clip-rule="evenodd" d="M288.623 308.095H307.231C309.462 308.095 311.27 306.276 311.27 304.032C311.27 301.788 309.462 299.968 307.231 299.968H292.902C290.696 302.318 289.269 305.138 288.623 308.095ZM272.273 308.095C272.578 305.332 273.224 302.6 274.211 299.968H253.22C250.99 299.968 249.182 301.788 249.182 304.032C249.182 306.276 250.99 308.095 253.22 308.095H272.273Z" fill="#410A0A"/>
<path fill-rule="evenodd" clip-rule="evenodd" d="M295.994 279.651C290.951 281.136 286.188 283.845 282.168 287.778H253.22C250.99 287.778 249.182 285.959 249.182 283.714C249.182 281.47 250.99 279.651 253.22 279.651L295.994 279.651Z" fill="#410A0A"/>
<path fill-rule="evenodd" clip-rule="evenodd" d="M242.115 246.127H318.841C321.072 246.127 322.88 247.946 322.88 250.19V283.285C325.035 284.626 327.071 286.236 328.94 288.118C329.651 288.833 330.323 289.572 330.956 290.333V250.19C330.956 243.458 325.532 238 318.841 238H242.115C235.424 238 230 243.458 230 250.191V337.556C230 344.288 235.424 349.746 242.115 349.746H318.841C322.363 349.746 325.534 348.234 327.747 345.82L322.532 340.573C312.625 346.567 300.287 346.916 290.096 341.619H242.115C239.884 341.619 238.076 339.8 238.076 337.556V250.191C238.076 247.946 239.884 246.127 242.115 246.127Z" fill="#410A0A"/>
<path fill-rule="evenodd" clip-rule="evenodd" d="M290.391 296.738C282.111 305.069 282.111 318.576 290.391 326.907C298.67 335.239 312.094 335.239 320.373 326.907C328.652 318.576 328.652 305.069 320.373 296.738C312.094 288.406 298.67 288.406 290.391 296.738ZM284.68 332.654C273.246 321.149 273.246 302.496 284.68 290.991C296.113 279.486 314.65 279.486 326.084 290.991C337.517 302.496 337.517 321.149 326.084 332.654C314.65 344.159 296.113 344.159 284.68 332.654Z" fill="#410A0A"/>
<path fill-rule="evenodd" clip-rule="evenodd" d="M321.445 327.267C323.022 325.68 325.579 325.68 327.156 327.267L347.145 347.38C348.722 348.967 348.722 351.54 347.145 353.127C345.567 354.714 343.011 354.714 341.434 353.127L321.445 333.013C319.868 331.427 319.868 328.854 321.445 327.267Z" fill="#410A0A"/>
<defs>
<filter id="filter0_i_487_2412" x="-5" y="-5" width="401" height="401" filterUnits="userSpaceOnUse" color-interpolation-filters="sRGB">
<feFlood flood-opacity="0" result="BackgroundImageFix"/>
<feBlend mode="normal" in="SourceGraphic" in2="BackgroundImageFix" result="shape"/>
<feColorMatrix in="SourceAlpha" type="matrix" values="0 0 0 0 0 0 0 0 0 0 0 0 0 0 0 0 0 0 127 0" result="hardAlpha"/>
<feMorphology radius="5" operator="erode" in="SourceAlpha" result="effect1_innerShadow_487_2412"/>
<feOffset dx="-5" dy="-5"/>
<feGaussianBlur stdDeviation="4"/>
<feComposite in2="hardAlpha" operator="arithmetic" k2="-1" k3="1"/>
<feColorMatrix type="matrix" values="0 0 0 0 0 0 0 0 0 0 0 0 0 0 0 0 0 0 0.15 0"/>
<feBlend mode="normal" in2="shape" result="effect1_innerShadow_487_2412"/>
</filter>
</defs>
</svg>
