<svg width="647" height="438" viewBox="0 0 647 438" fill="none" xmlns="http://www.w3.org/2000/svg">
<g opacity="0.4" clip-path="url(#clip0_714_4119)">
<path d="M399.656 333.186C488.456 307.331 516.942 195.654 453.015 128.93C427.772 102.615 392.367 81.1349 347.613 91.9969C250.274 115.624 248.529 141.45 144.968 143.537C61.342 145.262 25.2699 120.315 16.4263 147.172C5.35775 180.734 105.329 269.239 157.584 298.488C225.391 336.447 325.212 354.014 397.47 333.781C398.199 333.582 398.928 333.384 399.647 333.14L399.656 333.186Z" fill="#F6B95B"/>
<path d="M401.386 341.574C439.973 329.965 471.006 302.713 486.329 265.295C500.897 229.809 499.181 188.361 481.57 154.274C462.501 117.316 423.952 85.7212 381.789 81.154C356.497 78.3933 331.139 86.7453 307.385 94.4784C288.952 100.49 271.081 107.826 253.079 114.998C211.334 131.582 167.516 136.485 122.737 134.86C101.318 134.088 80.2279 131.181 59.0269 128.201C47.1922 126.557 32.9948 123.719 21.6058 128.902C-5.59433 141.382 11.9228 175.248 23.622 191.863C46.3865 224.119 77.4826 251.293 108.469 275.366C180.741 331.48 276.266 360.167 367.743 348.463C379.079 346.991 390.3 344.725 401.285 341.547C412.269 338.369 408.46 321.761 397.825 324.77C354.54 337.156 308.099 335.633 264.196 327.292C222.79 319.397 181.696 304.856 146.354 281.584C115.52 261.275 86.7035 236.995 61.273 210.238C50.4537 198.823 39.6953 186.771 31.6998 173.188C27.2683 165.693 21.6817 154.929 25.1157 148.023C26.486 145.338 27.6177 144.528 30.1267 143.866C34.5912 142.658 39.1115 143.119 43.8624 143.533C59.779 144.911 75.5208 148.008 91.4021 149.682C135.275 154.377 182.222 153.922 225.106 142.388C259.152 133.254 290.727 116.797 324.566 106.888C346.886 100.363 369.41 94.1331 392.533 100.368C412.084 105.61 429.15 117.227 443.366 131.352C469.373 157.173 482.418 192.442 478.064 228.944C473.967 263.423 453.864 295.629 423.757 313.369C415.562 318.182 406.872 321.992 397.816 324.724C387.358 327.89 390.725 344.685 401.275 341.501L401.386 341.574Z" fill="#F6B95B"/>
<path d="M485.207 298.103C489.648 273.691 520.644 248.128 519.291 202.377C531.84 201.422 548.249 198.423 575.131 194.898C615.03 189.65 608.381 177.231 607.066 172.024C605.922 167.407 598.675 145.79 586.256 151.811C575.928 156.775 527.574 164.872 511.376 167.492C505.359 152.54 494.496 133.686 475.136 119.804C439.661 94.2539 422.437 90.5021 414.777 69.4506C411.22 59.6615 410.974 45.874 404.679 45.2022C398.374 44.4842 384.159 61.1573 393.041 103.531C403.442 153.039 425.949 185.443 455.839 203.737C455.839 203.737 428.448 229.517 440.071 282.617C451.694 335.717 477.764 343.651 489.435 341.004C501.107 338.357 480.49 324.446 485.262 298.14L485.207 298.103Z" fill="#E55936"/>
<path d="M493.315 300.804C496.325 286.009 506.184 273.405 512.991 260.229C522.31 242.211 528.133 223.329 527.821 202.924L521.02 210.765C542.739 209.025 565.393 205.987 586.718 201.638C598.668 199.174 615.914 193.936 616.817 179.191C617.411 169.939 612.089 158.592 606.782 151.518C602.267 145.482 595.331 141.002 587.495 142.426C581.146 143.591 574.936 146.601 568.506 148.071C549.048 152.612 529.324 155.863 509.637 159.057C512.74 160.579 515.881 162.046 518.984 163.568C513.241 149.713 505.35 136.637 494.977 125.755C483.75 113.992 469.629 105.228 456.017 96.5991C446.828 90.758 436.385 85.3677 429.058 77.1247C421.294 68.3952 421.709 57.1142 417.382 46.8591C413.804 38.3715 405.325 33.8736 396.992 38.7151C390.758 42.3069 386.956 49.5293 384.795 56.0772C375.979 82.8326 385.226 114.848 394.896 140.05C405.982 168.852 424.753 194.339 451.141 210.808L450.13 197.274C428.474 217.98 425.734 253.909 431.121 281.436C436.242 307.671 454.416 356.153 490.177 349.5C498.751 347.924 503.118 341.113 500.918 332.774C499.775 328.397 497.378 324.471 495.829 320.226C493.211 313.126 492.727 306.114 493.829 298.632C495.476 287.721 478.332 286.692 476.713 297.5C474.897 309.454 477.307 320.441 481.934 331.451C482.234 332.206 483.684 336.904 484.415 337.186C484.619 337.24 487.627 333.401 487.041 332.657C486.79 332.372 484.798 332.975 482.948 332.636C469.593 330.152 460.428 315.561 455.191 302.995C446.18 281.454 442.251 255.404 449.262 232.721C451.194 226.461 453.867 220.528 457.559 215.106C458.154 214.263 461.529 209.867 460.107 211.602C460.575 211.073 461.089 210.534 461.603 209.996C465.499 206.261 465.405 199.506 460.592 196.462C441.492 184.545 427.029 167.587 416.982 147.556C405.646 125.004 396.614 96.5959 399.156 71.1344C399.785 64.8544 402.222 58.2495 404.887 54.1444C405.766 52.8099 405.863 53.5108 405.742 53.3915C406.468 54.3469 402.187 52.0105 401.489 52.827C401.296 53.059 403.384 59.4514 403.582 60.1793C404.435 63.8474 405.278 67.4694 406.5 71.0614C412.421 88.5795 426.824 98.2464 441.761 107.707C454.928 116.043 469.146 124.114 480.305 135.075C490.748 145.366 498.266 157.798 503.831 171.258C505.284 174.802 509.68 176.298 513.179 175.769C531.611 172.785 550.061 169.653 568.33 165.646C572.842 164.667 577.344 163.643 581.744 162.351C583.966 161.7 588.219 158.998 590.263 159.345C594.193 159.976 597.039 168.182 598.251 171.728C598.74 173.165 599.136 174.621 599.487 176.086C600.111 178.648 600.186 177.143 599.788 178.715C600.095 177.402 599.982 178.723 598.233 179.804C595.066 181.706 591.645 182.844 588.084 183.771C574.837 187.175 560.893 188.128 547.361 190.15C537.512 191.604 527.636 193.16 517.7 193.96C514.246 194.24 510.814 198.359 510.899 201.801C511.197 221.439 505.367 239.122 495.987 256.144C489.093 268.665 480.166 281.124 477.273 295.319C475.099 306.001 491.298 311.55 493.509 300.812L493.315 300.804Z" fill="#E55936"/>
<path d="M318.631 211.993C299.584 215.729 272.046 217.707 256.278 203.517C242.283 190.931 256.804 174.579 268.307 166.682C288.027 153.15 314.23 147.266 337.92 149.252C350.842 150.335 377.779 156.409 374.116 174.798C372.31 183.771 364.379 191.028 357.249 196.102C345.794 204.23 332.259 209.039 318.621 211.947C309.505 213.923 312.386 228.128 321.549 226.143C346 220.86 377.163 208.236 386.791 182.851C395.646 159.547 374.899 142.444 354.36 137.309C325.366 130.123 291.549 135.943 265.907 151.08C247.852 161.722 226.914 183.578 239.68 205.834C254.826 232.165 296.079 231.154 321.549 226.143C330.703 224.351 327.822 210.146 318.621 211.947L318.631 211.993Z" fill="#E55936"/>
<path d="M313.406 200.806C319.902 211.336 338.617 211.589 355.207 201.37C371.797 191.151 379.979 174.331 373.483 163.8C366.987 153.27 348.272 153.018 331.682 163.237C315.092 173.456 306.91 190.276 313.406 200.806Z" fill="#E55936"/>
<path d="M335.699 294.769C316.653 298.505 289.115 300.483 273.346 286.293C259.351 273.707 273.872 257.355 285.375 249.458C305.095 235.926 331.299 230.042 354.988 232.028C367.91 233.111 394.847 239.185 391.184 257.574C389.379 266.547 381.448 273.804 374.317 278.878C362.862 287.006 349.328 291.815 335.69 294.723C326.574 296.699 329.455 310.904 338.617 308.919C363.069 303.637 394.231 291.012 403.859 265.627C412.714 242.323 391.968 225.22 371.429 220.085C342.434 212.899 308.618 218.719 282.976 233.856C264.92 244.498 243.982 266.354 256.749 288.611C271.894 314.941 313.148 313.93 338.617 308.919C347.771 307.127 344.89 292.922 335.69 294.723L335.699 294.769Z" fill="#E55936"/>
<path d="M330.494 283.611C336.99 294.142 355.705 294.394 372.295 284.175C388.884 273.956 397.067 257.136 390.571 246.606C384.075 236.075 365.36 235.823 348.77 246.042C332.18 256.261 323.998 273.081 330.494 283.611Z" fill="#E55936"/>
</g>
<defs>
<clipPath id="clip0_714_4119">
<rect width="324" height="593" fill="white" transform="translate(580.781) rotate(78.3486)"/>
</clipPath>
</defs>
</svg>
