<svg width="461" height="656" viewBox="0 0 461 656" fill="none" xmlns="http://www.w3.org/2000/svg">
<g opacity="0.4" clip-path="url(#clip0_718_4128)">
<path d="M93.7852 309.112C78.1154 217.805 166.029 143.219 254.026 171.563C288.745 182.769 323.57 205.247 333.417 250.314C354.831 348.337 332.379 361.223 375.883 455.412C410.979 531.487 449.213 553.047 428.944 572.779C403.622 597.452 280.25 546.188 231.056 511.938C167.218 467.497 107.683 385.287 94.2083 311.342C94.0672 310.599 93.9262 309.855 93.8307 309.101L93.7852 309.112Z" fill="#CAE8D0"/>
<path d="M85.4859 311.23C79.0127 271.389 89.9135 231.499 116.837 201.303C142.354 172.635 180.368 156.022 218.729 156.949C260.31 157.931 305.606 178.808 328.188 214.782C341.753 236.353 345.357 262.851 348.814 287.634C351.488 306.87 352.723 326.18 354.165 345.536C357.549 390.401 372.342 432.015 393.426 471.634C403.507 490.587 415.361 508.309 427.33 526.098C433.994 536.037 442.767 547.581 443.098 560.11C443.798 590.076 405.677 589.136 385.614 585.879C346.641 579.507 308.585 563.406 273.365 546.045C191.249 505.536 123.6 432.069 94.0354 344.55C90.3917 333.695 87.5115 322.595 85.5549 311.309C83.6237 300.504 100.198 296.178 102.153 307.075C109.986 351.487 131.706 392.648 158.443 428.536C183.685 462.371 214.765 493.011 251.173 514.647C282.943 533.521 317.398 548.836 352.596 560.018C367.599 564.762 383.148 569.171 398.863 570.421C407.542 571.129 419.667 571.444 424.371 565.326C426.184 562.915 426.417 561.541 425.912 558.991C425.042 554.441 422.647 550.571 420.193 546.474C411.979 532.742 402.297 519.921 393.832 506.35C370.386 468.892 350.223 426.408 341.799 382.731C335.092 348.064 336.05 312.415 330.129 277.596C326.214 254.635 321.945 231.618 306.207 213.524C292.927 198.211 275.005 187.93 256.077 181.315C221.467 169.204 184.045 172.908 153.138 192.821C123.937 211.618 103.794 243.834 101.039 278.724C100.303 288.213 100.686 297.709 102.198 307.063C103.935 317.87 87.3609 322.196 85.6005 311.298L85.4859 311.23Z" fill="#CAE8D0"/>
<path d="M87.8349 216.689C107.834 201.993 117.233 162.876 158.956 144.05C154.314 132.329 149.82 116.236 141.209 90.4796C128.443 52.2447 142.522 52.7924 147.778 51.6948C152.43 50.7028 175.04 47.7591 175.069 61.5821C175.132 73.0592 189.042 120.158 193.786 135.895C209.864 134.764 231.573 136.286 252.537 147.642C291.052 168.399 301.972 182.268 324.254 179.944C334.613 178.859 347.115 173.04 350.478 178.415C353.886 183.779 345.126 203.887 303.141 214.452C254.076 226.775 215.082 220.701 185.538 201.795C185.538 201.795 174.365 237.761 121.536 250.557C68.7063 263.354 50.1497 243.349 47.4147 231.677C44.6798 220.005 66.2204 232.479 87.7776 216.655L87.8349 216.689Z" fill="#3A7C45"/>
<path d="M81.8539 210.57C93.8356 201.377 100.846 186.975 109.708 175.072C121.822 158.783 136.246 145.266 154.726 136.607C153.35 139.782 152.032 142.992 150.657 146.167C142.704 125.844 135.507 104.109 130.072 82.9966C127.051 71.1543 124.203 53.3265 137.062 46.0524C145.12 41.4644 157.653 41.2863 166.338 42.9665C173.743 44.3888 180.809 48.6733 182.963 56.354C184.698 62.5832 184.713 69.4947 186.209 75.9309C190.654 95.4455 196.375 114.634 202.13 133.766L193.978 127.323C208.951 126.425 224.164 127.804 238.492 132.378C253.987 137.337 268.054 146.215 281.776 154.695C291.053 160.412 300.475 167.456 311.097 170.444C322.347 173.612 332.306 168.295 343.422 167.7C352.62 167.204 360.379 172.87 359.678 182.496C359.181 189.685 354.354 196.273 349.414 201.088C329.225 220.751 296.391 226.45 269.498 228.782C238.747 231.416 207.609 225.676 181.24 209.125L193.85 204.106C184.725 232.683 153.626 250.893 126.52 258.1C100.69 264.982 49.1414 269.855 39.4519 234.731C37.1115 226.319 41.3202 219.401 49.7814 217.729C54.2171 216.841 58.7971 217.28 63.2923 216.815C70.8223 216.062 77.3376 213.426 83.5813 209.155C92.6681 202.892 101.106 217.881 92.0988 224.075C82.1478 230.948 71.2149 233.591 59.2893 234.248C58.4792 234.308 53.6203 235.061 53.0466 234.525C52.9087 234.366 55.0423 229.974 55.968 230.176C56.3339 230.278 56.6647 232.336 57.7803 233.853C65.8651 244.794 82.9985 246.656 96.59 245.867C119.904 244.545 145.044 236.67 162.364 220.418C167.145 215.935 171.307 210.929 174.564 205.228C175.061 204.322 177.534 199.357 176.598 201.397C176.868 200.744 177.127 200.045 177.386 199.346C179.036 194.201 185.15 191.326 189.995 194.327C209.079 206.308 230.662 211.905 253.072 212.178C278.313 212.508 307.81 208.196 329.585 194.752C334.955 191.434 339.825 186.344 342.348 182.145C343.162 180.769 342.49 180.989 342.65 181.046C341.473 180.81 345.449 183.643 345.021 184.629C344.897 184.904 338.235 185.824 337.494 185.965C333.823 186.804 330.197 187.631 326.433 188.105C308.089 190.447 293.088 181.71 278.037 172.401C264.773 164.195 251.286 154.925 236.543 149.677C222.715 144.78 208.245 143.455 193.706 144.34C189.883 144.585 186.612 141.28 185.555 137.897C180.16 119.989 174.891 101.999 170.487 83.7891C169.39 79.2966 168.338 74.7925 167.571 70.2643C167.182 67.9773 167.748 62.9629 166.54 61.2744C164.251 58.0113 155.626 59.0428 151.907 59.5046C150.402 59.6939 148.919 59.9748 147.448 60.3013C144.872 60.8613 146.192 60.1349 144.953 61.1814C145.999 60.3302 144.861 61.0101 144.655 63.0593C144.333 66.7453 144.809 70.3249 145.537 73.9379C148.281 87.3605 153.535 100.338 157.647 113.411C160.656 122.919 163.585 132.496 167.22 141.796C168.482 145.029 166.282 149.924 163.151 151.356C145.366 159.692 132.023 172.69 120.832 188.597C112.597 200.291 105.307 213.79 93.8146 222.615C85.1637 229.254 73.0768 217.094 81.7617 210.398L81.8539 210.57Z" fill="#3A7C45"/>
<path d="M238.241 328.993C243.229 347.784 253.518 373.453 273.185 381.439C290.632 388.529 298.969 368.286 301.028 354.466C304.552 330.776 298.358 304.597 286.192 284.131C279.556 272.967 262.292 251.366 247.365 262.723C240.09 268.28 237.041 278.603 235.604 287.248C233.317 301.127 234.925 315.424 238.287 328.981C240.505 338.057 226.472 341.686 224.242 332.564C218.276 308.227 215.969 274.628 234.571 254.835C251.641 236.649 276.108 247.841 289.724 264.091C308.89 287.057 318.477 320.064 316.105 349.791C314.45 370.716 303.978 399.15 278.375 397.403C248.066 395.298 230.898 357.699 224.242 332.564C221.841 323.534 235.874 319.905 238.287 328.981L238.241 328.993Z" fill="#3A7C45"/>
<path d="M156.347 349.886C161.336 368.677 171.624 394.347 191.291 402.332C208.738 409.422 217.075 389.179 219.134 375.359C222.658 351.669 216.465 325.49 204.298 305.024C197.662 293.86 180.398 272.259 165.472 283.616C158.196 289.173 155.148 299.496 153.711 308.141C151.424 322.02 153.031 336.317 156.393 349.874C158.612 358.951 144.579 362.579 142.349 353.457C136.383 329.12 134.076 295.522 152.678 275.728C169.747 257.542 194.215 268.734 207.831 284.984C226.997 307.95 236.583 340.957 234.212 370.685C232.556 391.609 222.084 420.043 196.481 418.296C166.173 416.191 149.004 378.593 142.349 353.457C139.948 344.427 153.98 340.799 156.393 349.874L156.347 349.886Z" fill="#3A7C45"/>
<path d="M144.704 345.746L303.522 305.228L306.917 318.533L148.098 359.052L144.704 345.746Z" fill="#3A7C45"/>
</g>
<defs>
<clipPath id="clip0_718_4128">
<rect width="324" height="594" fill="white" transform="matrix(-0.968963 0.247206 0.247206 0.968963 313.944 0)"/>
</clipPath>
</defs>
</svg>
