<svg width="120" height="118" viewBox="0 0 120 118" fill="none" xmlns="http://www.w3.org/2000/svg">
<path fill-rule="evenodd" clip-rule="evenodd" d="M19.1816 25.3968C19.1816 23.1525 20.9896 21.3333 23.2199 21.3333H77.2313C79.4616 21.3333 81.2696 23.1525 81.2696 25.3968C81.2696 27.641 79.4616 29.4603 77.2313 29.4603H23.2199C20.9896 29.4603 19.1816 27.641 19.1816 25.3968Z" fill="#410A0A"/>
<path fill-rule="evenodd" clip-rule="evenodd" d="M70.6044 90.4129H77.2313C79.4616 90.4129 81.2696 88.5936 81.2696 86.3494C81.2696 84.1052 79.4616 82.2859 77.2313 82.2859H60.4175C61.1683 83.6285 62.1115 84.8915 63.2471 86.0342C65.37 88.1704 67.9106 89.6299 70.6044 90.4129ZM46.4234 90.4129C44.9611 87.8319 43.867 85.0971 43.141 82.2859H23.2199C20.9896 82.2859 19.1816 84.1052 19.1816 86.3494C19.1816 88.5936 20.9896 90.4129 23.2199 90.4129H46.4234Z" fill="#410A0A"/>
<path fill-rule="evenodd" clip-rule="evenodd" d="M58.6226 70.0953H77.2313C79.4616 70.0953 81.2696 68.276 81.2696 66.0318C81.2696 63.7876 79.4616 61.9683 77.2313 61.9683H62.9018C60.6957 64.3177 59.2693 67.1375 58.6226 70.0953ZM42.2727 70.0953C42.5781 67.3324 43.2242 64.6004 44.211 61.9683H23.2199C20.9896 61.9683 19.1816 63.7876 19.1816 66.0318C19.1816 68.276 20.9896 70.0953 23.2199 70.0953H42.2727Z" fill="#410A0A"/>
<path fill-rule="evenodd" clip-rule="evenodd" d="M65.9942 41.6509C60.951 43.1362 56.1882 45.8452 52.1678 49.7779H23.2199C20.9896 49.7779 19.1816 47.9586 19.1816 45.7144C19.1816 43.4702 20.9896 41.6509 23.2199 41.6509L65.9942 41.6509Z" fill="#410A0A"/>
<path fill-rule="evenodd" clip-rule="evenodd" d="M12.1147 8.127H88.8413C91.0715 8.127 92.8795 9.94629 92.8795 12.1905V45.2851C95.0348 46.6257 97.0711 48.2365 98.9405 50.1176C99.6511 50.8327 100.323 51.5721 100.956 52.3331V12.1905C100.956 5.45787 95.532 0 88.8413 0H12.1147C5.42394 0 0 5.45787 0 12.1905V99.5558C0 106.288 5.42394 111.746 12.1147 111.746H88.8413C92.3629 111.746 95.5336 110.234 97.7471 107.82L92.5325 102.573C82.6249 108.567 70.2867 108.916 60.0963 103.619H12.1147C9.88446 103.619 8.07648 101.8 8.07648 99.5558V12.1905C8.07648 9.94629 9.88446 8.127 12.1147 8.127Z" fill="#410A0A"/>
<path fill-rule="evenodd" clip-rule="evenodd" d="M60.3906 58.7375C52.1112 67.0687 52.1112 80.5763 60.3906 88.9075C68.67 97.2387 82.0936 97.2387 90.373 88.9075C98.6524 80.5763 98.6524 67.0687 90.373 58.7375C82.0936 50.4063 68.67 50.4063 60.3906 58.7375ZM54.6797 94.6541C43.2462 83.1491 43.2462 64.4959 54.6797 52.9909C66.1131 41.4859 84.6505 41.4859 96.0839 52.9909C107.517 64.4959 107.517 83.1491 96.0839 94.6541C84.6505 106.159 66.1131 106.159 54.6797 94.6541Z" fill="#410A0A"/>
<path fill-rule="evenodd" clip-rule="evenodd" d="M91.4453 89.2668C93.0223 87.6799 95.5792 87.6799 97.1562 89.2668L117.145 109.38C118.722 110.967 118.722 113.54 117.145 115.127C115.567 116.714 113.011 116.714 111.434 115.127L91.4453 95.0135C89.8683 93.4266 89.8683 90.8537 91.4453 89.2668Z" fill="#410A0A"/>
</svg>
