<svg width="433" height="645" viewBox="0 0 433 645" fill="none" xmlns="http://www.w3.org/2000/svg">
<g opacity="0.4" clip-path="url(#clip0_718_4138)">
<path d="M351.594 296.062C362.161 204.181 270.241 134.653 183.963 167.737C149.923 180.814 116.403 205.133 109.079 250.599C93.1498 349.49 116.283 361.105 78.0851 457.386C47.2763 535.149 10.3028 558.74 31.6362 577.298C58.2892 600.504 178.613 542.629 225.822 505.787C287.087 457.981 341.955 372.761 351.296 298.308C351.395 297.559 351.495 296.81 351.548 296.053L351.594 296.062Z" fill="#E55936"/>
<path d="M359.997 297.717C364.244 257.646 351.143 218.479 322.583 189.856C295.513 162.678 256.637 148.202 218.389 151.232C176.93 154.493 132.868 177.791 112.322 214.892C99.9785 237.139 97.8542 263.753 95.7806 288.647C94.181 307.97 94.0212 327.288 93.6585 346.662C92.7745 391.572 80.3189 433.868 61.4722 474.52C52.4617 493.967 41.6116 512.284 30.6508 530.674C24.5504 540.948 16.4334 552.937 16.7997 565.445C17.7669 595.356 55.7746 592.327 75.6245 587.978C114.18 579.488 151.279 561.348 185.477 542.109C265.208 497.22 328.664 420.27 353.314 331.403C356.348 320.381 358.607 309.158 359.932 297.8C361.258 286.442 344.471 283.52 343.126 294.49C337.774 339.193 318.378 381.417 293.68 418.66C270.36 453.774 241.034 486.025 205.888 509.591C175.219 530.149 141.67 547.308 107.151 560.386C92.4359 565.938 77.1571 571.187 61.5374 573.296C52.9112 574.478 40.8233 575.458 35.7866 569.617C33.8422 567.313 33.534 565.956 33.8962 563.387C34.5113 558.803 36.6878 554.814 38.9099 550.594C46.3473 536.455 55.3006 523.142 62.9968 509.15C84.3225 470.522 102.091 427.065 108.072 383.062C112.841 348.135 109.902 312.651 113.877 277.616C116.509 254.511 119.492 231.332 134.199 212.431C146.606 196.437 163.926 185.205 182.457 177.572C216.337 163.599 253.905 165.237 285.87 183.392C316.069 200.528 337.971 231.537 342.661 266.167C343.924 275.586 344.069 285.073 343.08 294.481C341.946 305.349 358.735 308.752 359.886 297.791L359.997 297.717Z" fill="#E55936"/>
<path d="M352.395 203.602C331.61 190.049 320.052 151.57 277.349 135.093C281.331 123.154 284.924 106.865 292.088 80.7162C302.708 41.9004 288.682 43.2191 283.373 42.4134C278.674 41.6798 255.937 39.9862 256.676 53.7676C257.251 65.2121 245.983 112.927 242.122 128.875C226.007 128.629 204.417 131.339 184.119 143.81C146.82 166.615 136.689 181.04 114.314 179.946C103.911 179.434 91.1048 174.319 88.0465 179.862C84.942 185.396 94.806 204.96 137.311 213.188C186.982 222.78 225.576 214.585 254.021 194.116C254.021 194.116 267.176 229.356 320.632 239.213C374.088 249.07 391.502 228.109 393.583 216.324C395.665 204.538 374.853 218.156 352.45 203.565L352.395 203.602Z" fill="#BF2202"/>
<path d="M358.026 197.173C345.552 188.666 337.752 174.694 328.243 163.315C315.242 147.742 300.09 135.059 281.158 127.441L285.752 136.748C292.563 116.052 298.539 93.9901 302.791 72.6454C305.149 60.6743 307.001 42.7461 293.758 36.2005C285.459 32.0691 272.936 32.5793 264.358 34.7309C257.044 36.5552 250.227 41.2142 248.504 48.989C247.118 55.2939 247.488 62.1846 246.352 68.6827C242.999 88.3802 238.354 107.823 233.672 127.211L241.453 120.341C226.455 120.267 211.343 122.476 197.292 127.823C182.097 133.617 168.547 143.239 155.319 152.445C146.374 158.653 137.359 166.192 126.921 169.754C115.865 173.53 105.626 168.776 94.4952 168.793C85.2843 168.803 77.8527 174.877 79.0877 184.435C79.9839 191.574 85.1695 197.876 90.3687 202.406C111.619 220.899 144.717 224.778 171.697 225.626C202.544 226.565 233.313 219.134 258.719 201.187L245.851 196.876C256.55 224.863 288.611 241.309 316.075 247.006C342.246 252.449 393.982 254.477 401.703 218.931C403.572 210.417 398.985 203.752 390.445 202.55C385.967 201.908 381.418 202.596 376.905 202.38C369.345 202.043 362.694 199.773 356.222 195.857C346.802 190.113 339.211 205.518 348.548 211.198C358.865 217.504 369.928 219.539 381.871 219.538C382.683 219.554 387.576 220.038 388.119 219.473C388.247 219.306 385.873 215.045 384.96 215.297C384.6 215.419 384.385 217.489 383.355 219.062C375.892 230.412 358.89 233.209 345.276 233.168C321.926 233.13 296.389 226.66 278.193 211.409C273.17 207.202 268.736 202.44 265.168 196.936C264.621 196.06 261.876 191.246 262.924 193.229C262.618 192.593 262.321 191.91 262.024 191.227C260.09 186.189 253.826 183.659 249.155 186.916C230.769 199.907 209.532 206.671 187.173 208.173C161.991 209.887 132.302 207.208 109.813 195C104.268 191.987 99.123 187.181 96.3708 183.134C95.4812 181.806 96.1647 181.989 96.008 182.054C97.17 181.755 93.3573 184.797 93.8399 185.756C93.979 186.024 100.681 186.576 101.429 186.675C105.141 187.31 108.807 187.936 112.591 188.201C131.035 189.53 145.527 179.997 160.036 169.891C172.822 160.982 185.772 151.001 200.199 144.96C213.733 139.32 228.107 137.205 242.671 137.289C246.501 137.323 249.583 133.849 250.451 130.419C254.841 112.271 259.102 94.0485 262.485 75.6536C263.331 71.1149 264.131 66.5671 264.645 62.011C264.906 59.7098 264.062 54.7422 265.174 52.9927C267.278 49.6141 275.946 50.1691 279.685 50.4253C281.199 50.5314 282.694 50.73 284.181 50.9748C286.785 51.3916 285.426 50.74 286.721 51.7152C285.63 50.9241 286.804 51.5394 287.123 53.5708C287.65 57.2276 287.373 60.8222 286.848 64.4638C284.854 77.995 280.331 91.22 276.952 104.478C274.477 114.122 272.085 123.829 268.973 133.299C267.893 136.592 270.361 141.351 273.567 142.606C291.787 149.94 305.831 162.165 317.889 177.408C326.761 188.614 334.789 201.67 346.754 209.837C355.76 215.98 367.151 203.195 358.108 196.997L358.026 197.173Z" fill="#BF2202"/>
<path d="M208.475 323.808C204.539 342.814 195.694 368.968 176.503 378.008C159.479 386.034 150.029 366.311 147.205 352.647C142.37 329.225 147.097 302.788 158.106 281.718C164.111 270.225 180.146 247.744 195.68 258.246C203.253 263.387 206.87 273.51 208.786 282.049C211.841 295.759 211.031 310.099 208.428 323.799C206.718 332.969 220.93 335.816 222.649 326.6C227.253 302.011 227.687 268.392 208.015 249.681C189.961 232.489 166.156 244.989 153.465 261.935C135.607 285.881 127.871 319.311 131.892 348.815C134.708 369.583 146.745 397.353 172.21 394.207C202.352 390.445 217.402 352.022 222.649 326.6C224.544 317.466 210.332 314.619 208.428 323.799L208.475 323.808Z" fill="#BF2202"/>
<path d="M291.399 340.141C287.464 359.148 278.619 385.301 259.428 394.341C242.403 402.367 232.954 382.645 230.13 368.981C225.295 345.558 230.022 319.121 241.031 298.051C247.036 286.558 263.071 264.078 278.605 274.579C286.177 279.72 289.795 289.843 291.71 298.383C294.766 312.092 293.956 326.433 291.353 340.132C289.643 349.302 303.855 352.149 305.574 342.933C310.177 318.345 310.612 284.725 290.94 266.014C272.886 248.822 249.081 261.322 236.39 278.268C218.532 302.214 210.796 335.644 214.817 365.148C217.633 385.917 229.67 413.687 255.134 410.54C285.277 406.778 300.327 368.355 305.574 342.933C307.469 333.8 293.257 330.952 291.353 340.132L291.399 340.141Z" fill="#BF2202"/>
<path d="M145.338 293.943C160.698 304.843 176.067 315.696 191.426 326.596C193.618 328.132 195.8 329.714 198.038 331.259C199.695 326.256 201.398 321.262 203.046 316.305C185.519 319.574 167.946 322.835 150.428 326.058C147.937 326.528 145.4 326.989 142.91 327.458C138.38 328.295 134.642 331.688 135.007 336.657C135.323 340.896 139.617 345.391 144.193 344.564C161.72 341.294 179.293 338.034 196.811 334.81C199.301 334.341 201.838 333.88 204.329 333.41C207.714 332.781 210.589 331.09 211.706 327.613C212.676 324.635 212.12 320.397 209.337 318.456C193.977 307.557 178.608 296.703 163.249 285.804C161.057 284.268 158.875 282.686 156.637 281.141C152.846 278.473 147.824 278.156 144.549 281.88C141.761 285.076 141.501 291.267 145.283 293.98L145.338 293.943Z" fill="#BF2202"/>
<path d="M294.376 308.222C276.031 312.483 257.694 316.698 239.348 320.958C236.738 321.549 234.118 322.185 231.462 322.766C228.243 323.524 225.964 327.301 225.797 330.341C225.65 334.009 227.448 336.571 230.425 338.502C245.403 348.174 260.427 357.855 275.414 367.481C277.54 368.86 279.713 370.248 281.84 371.628C285.714 374.119 291.438 371.598 293.338 367.795C295.569 363.289 293.425 358.833 289.514 356.286C274.536 346.614 259.512 336.933 244.525 327.307C242.398 325.928 240.226 324.54 238.099 323.161C237.735 328.419 237.417 333.686 237.062 338.897C255.408 334.636 273.744 330.422 292.09 326.161C294.7 325.571 297.32 324.935 299.976 324.354C304.496 323.323 306.658 317.459 305.244 313.436C303.588 308.693 298.868 307.091 294.339 308.167L294.376 308.222Z" fill="#BF2202"/>
</g>
<defs>
<clipPath id="clip0_718_4138">
<rect width="324" height="593" fill="white" transform="translate(114.6) rotate(11.1427)"/>
</clipPath>
</defs>
</svg>
