<svg width="244" height="356" viewBox="0 0 244 356" fill="none" xmlns="http://www.w3.org/2000/svg">
<g filter="url(#filter0_d_570_3161)">
<rect x="5" y="5" width="228" height="340" rx="12" fill="url(#paint0_linear_570_3161)"/>
<rect x="7" y="7" width="224" height="336" rx="10" stroke="url(#paint1_linear_570_3161)" stroke-width="4"/>
<rect x="13" y="13" width="212" height="324" rx="7" stroke="white" stroke-width="2"/>
<path d="M73.8391 152.3V149.045L86.8941 127.065H92.2141V147.925H95.4341V152.3H92.2141V158.005H87.1041V152.3H73.8391ZM79.2641 147.925H87.1041V134.73L79.2641 147.925ZM98.6781 143.83V126.365H116.983V130.775H104.138V139.455H117.683V143.83H98.6781ZM100.078 146.7H105.538V153.91H126.713V158.285H100.078V146.7ZM130.633 134.905V139.28H126.013V150.34H120.588V125.91H126.013V134.905H130.633ZM147.8 126.365V133.4H150.88V126.19H156.095V158.18H150.88V149.29H147.275V144.915H150.88V137.775H147.73C147.59 139.992 147.216 142.092 146.61 144.075C146.026 146.058 145.175 147.913 144.055 149.64C142.958 151.343 141.581 152.907 139.925 154.33C138.291 155.777 136.343 157.048 134.08 158.145L131.42 154.225C135.013 152.452 137.731 150.188 139.575 147.435C141.418 144.682 142.34 141.438 142.34 137.705V130.74H133.31V126.365H147.8ZM157.565 125.91H162.815V158.74H157.565V125.91ZM36.009 195.115C36.009 193.692 36.2423 192.42 36.709 191.3C37.199 190.157 37.864 189.2 38.704 188.43C39.5673 187.637 40.594 187.042 41.784 186.645C42.974 186.225 44.2807 186.015 45.704 186.015C47.1273 186.015 48.434 186.225 49.624 186.645C50.814 187.042 51.8407 187.625 52.704 188.395C53.5673 189.165 54.2323 190.122 54.699 191.265C55.189 192.385 55.434 193.668 55.434 195.115C55.434 196.562 55.189 197.845 54.699 198.965C54.2323 200.085 53.5673 201.03 52.704 201.8C51.8407 202.57 50.814 203.165 49.624 203.585C48.434 203.982 47.1273 204.18 45.704 204.18C44.2807 204.18 42.974 203.982 41.784 203.585C40.594 203.165 39.5673 202.57 38.704 201.8C37.864 201.007 37.199 200.05 36.709 198.93C36.2423 197.81 36.009 196.538 36.009 195.115ZM58.969 218.635V185.91H64.394V218.635H58.969ZM43.359 210.585C41.819 210.632 40.3373 210.667 38.914 210.69C37.514 210.713 36.149 210.725 34.819 210.725L34.154 206.42C35.7407 206.42 37.514 206.408 39.474 206.385C41.434 206.338 43.429 206.28 45.459 206.21C47.5123 206.14 49.5423 206.047 51.549 205.93C53.579 205.813 55.4573 205.662 57.184 205.475L57.884 209.71C56.484 209.85 55.0257 209.978 53.509 210.095C51.9923 210.188 50.429 210.282 48.819 210.375V218.11H43.359V210.585ZM50.044 195.115C50.044 193.645 49.7057 192.49 49.029 191.65C48.3523 190.81 47.244 190.39 45.704 190.39C44.234 190.39 43.149 190.822 42.449 191.685C41.749 192.525 41.399 193.657 41.399 195.08C41.399 196.55 41.749 197.705 42.449 198.545C43.149 199.385 44.234 199.805 45.704 199.805C47.244 199.805 48.3523 199.397 49.029 198.58C49.7057 197.74 50.044 196.585 50.044 195.115ZM71.0254 206H96.9604V218.635H71.0254V206ZM68.5404 194.94C68.5404 193.517 68.7854 192.257 69.2754 191.16C69.7654 190.04 70.4304 189.107 71.2704 188.36C72.1337 187.59 73.1254 187.007 74.2454 186.61C75.3887 186.213 76.6021 186.015 77.8854 186.015C79.1687 186.015 80.3821 186.213 81.5254 186.61C82.6687 186.983 83.6604 187.555 84.5004 188.325C85.3637 189.072 86.0404 190.005 86.5304 191.125C87.0204 192.222 87.2654 193.493 87.2654 194.94C87.2654 196.387 87.0204 197.67 86.5304 198.79C86.0404 199.887 85.3637 200.808 84.5004 201.555C83.6604 202.302 82.6687 202.873 81.5254 203.27C80.3821 203.643 79.1687 203.83 77.8854 203.83C76.6021 203.83 75.3887 203.632 74.2454 203.235C73.1254 202.838 72.1337 202.267 71.2704 201.52C70.4304 200.773 69.7654 199.852 69.2754 198.755C68.7854 197.635 68.5404 196.363 68.5404 194.94ZM101.58 192.455V196.83H96.9604V204.565H91.5354V185.91H96.9604V192.455H101.58ZM76.4854 210.305V214.33H91.5354V210.305H76.4854ZM81.8754 194.94C81.8754 193.47 81.5371 192.35 80.8604 191.58C80.2071 190.787 79.2154 190.39 77.8854 190.39C76.6254 190.39 75.6454 190.787 74.9454 191.58C74.2687 192.373 73.9304 193.482 73.9304 194.905C73.9304 196.375 74.2687 197.507 74.9454 198.3C75.6454 199.07 76.6254 199.455 77.8854 199.455C79.2154 199.455 80.2071 199.07 80.8604 198.3C81.5371 197.53 81.8754 196.41 81.8754 194.94ZM105.167 210.305H127.392V209.395H105.167V205.615H132.817V213.98H110.627V214.855H133.517V218.635H105.167V210.305ZM104.817 195.08H109.612L109.297 191.86L114.652 191.405L115.002 195.08H122.982L123.367 191.405L128.722 191.86L128.372 195.08H133.167V199.35H104.817V195.08ZM102.892 200.47H135.022V204.565H102.892V200.47ZM105.167 186.365H132.817V190.635H105.167V186.365ZM162.828 198.405V185.91H168.078V218.635H162.828V202.78H161.008V218.18H155.793V186.19H161.008V198.405H162.828ZM154.183 218.005H138.713V199.77H148.338V190.775H138.643V186.365H153.833V204.18H144.173V213.63H154.183V218.005ZM172.925 186.365H178.385V213.63H192.245V218.005H172.925V186.365ZM196.235 185.91H201.66V218.635H196.235V202.78H188.01V198.37H196.235V185.91Z" fill="white"/>
</g>
<defs>
<filter id="filter0_d_570_3161" x="0" y="0" width="244" height="356" filterUnits="userSpaceOnUse" color-interpolation-filters="sRGB">
<feFlood flood-opacity="0" result="BackgroundImageFix"/>
<feColorMatrix in="SourceAlpha" type="matrix" values="0 0 0 0 0 0 0 0 0 0 0 0 0 0 0 0 0 0 127 0" result="hardAlpha"/>
<feOffset dx="3" dy="3"/>
<feGaussianBlur stdDeviation="4"/>
<feComposite in2="hardAlpha" operator="out"/>
<feColorMatrix type="matrix" values="0 0 0 0 0 0 0 0 0 0 0 0 0 0 0 0 0 0 0.2 0"/>
<feBlend mode="normal" in2="BackgroundImageFix" result="effect1_dropShadow_570_3161"/>
<feBlend mode="normal" in="SourceGraphic" in2="effect1_dropShadow_570_3161" result="shape"/>
</filter>
<linearGradient id="paint0_linear_570_3161" x1="233" y1="175" x2="5" y2="175" gradientUnits="userSpaceOnUse">
<stop stop-color="#BF2202"/>
<stop offset="1" stop-color="#871700"/>
</linearGradient>
<linearGradient id="paint1_linear_570_3161" x1="233" y1="175" x2="5" y2="175" gradientUnits="userSpaceOnUse">
<stop stop-color="#BF2202"/>
<stop offset="1" stop-color="#871700"/>
</linearGradient>
</defs>
</svg>
