<svg width="244" height="356" viewBox="0 0 244 356" fill="none" xmlns="http://www.w3.org/2000/svg">
<g filter="url(#filter0_d_399_3289)">
<g clip-path="url(#clip0_399_3289)">
<rect x="5" y="5" width="228" height="340" rx="12" fill="white"/>
<g clip-path="url(#clip1_399_3289)">
<path d="M123.048 49.1741L122.457 49.2329C122.116 49.3058 121.846 49.2963 121.648 49.2046C121.303 49.0548 120.83 48.6599 120.23 48.0199C119.841 47.4955 119.726 47.0824 119.885 46.7806C120.039 46.4977 120.35 46.3867 120.819 46.4475C121.901 46.7079 122.81 46.8224 123.544 46.7908C123.971 46.7803 124.457 46.6944 125.003 46.5333C125.222 46.4689 125.386 46.4206 125.495 46.3884C125.685 46.3568 125.869 46.3442 126.049 46.3505C126.533 46.3547 126.995 46.5955 127.436 47.073C127.839 47.5407 128.025 47.9521 127.994 48.3071C129.11 48.5157 130.014 48.6088 130.706 48.5863C131.094 48.566 131.519 48.4844 131.98 48.3415C132.222 48.263 132.417 48.2126 132.564 48.1902C132.777 48.1447 133.019 48.1467 133.289 48.1964C134.021 48.4065 134.565 48.7593 134.921 49.2551C135.258 49.7459 135.292 50.1986 135.023 50.6131C134.85 50.8912 134.676 51.0578 134.5 51.1132C134.348 51.1545 134.016 51.1493 133.505 51.0975L132.035 51.0493C132.793 52.0933 133.156 52.833 133.124 53.2686C133.107 53.5669 132.798 53.9408 132.198 54.3904C131.926 54.5823 131.723 54.7416 131.59 54.8684C131.332 55.084 131.093 55.3046 130.873 55.5301C131.08 55.7451 131.327 55.9604 131.614 56.176C131.802 56.3056 132.052 56.4711 132.363 56.6728C132.985 57.0761 133.368 57.3873 133.513 57.6065C133.775 57.9972 133.785 58.5041 133.543 59.1273C133.209 59.9487 132.715 60.3756 132.061 60.4078C131.454 60.4121 131.044 60.1646 130.831 59.6653L130.113 57.9964L129.501 56.506C128.513 57.2791 127.292 57.9816 125.837 58.6133C124.154 59.3473 122.735 59.6856 121.579 59.6282C121.063 59.5954 120.64 59.5159 120.309 59.3899C120.035 59.2786 119.873 59.1659 119.822 59.0517C119.795 58.9236 119.895 58.8487 120.122 58.8269C120.393 58.7961 120.759 58.8609 121.222 59.0212C121.648 59.0912 122.38 58.7967 123.418 58.1377C124.342 57.5298 125.365 56.7357 126.487 55.7552C127.571 54.765 128.467 53.8372 129.176 52.9716C129.942 52.0403 130.303 51.3873 130.259 51.0126L129.64 51.0642C129.175 51.1454 128.832 51.1069 128.611 50.9487C128.253 50.6946 127.813 50.056 127.291 49.033L125.152 49.114C125.713 49.9858 125.989 50.5921 125.982 50.9332C125.961 51.1698 125.709 51.478 125.227 51.8575L124.562 52.4416C124.707 52.5802 124.867 52.7024 125.042 52.8081C125.159 52.8991 125.315 52.9999 125.508 53.1106C125.862 53.3031 126.092 53.4638 126.2 53.5926C126.407 53.8076 126.539 54.1143 126.597 54.5127C126.641 54.8873 126.548 55.2465 126.318 55.5904C126.116 55.9013 125.835 56.131 125.474 56.2794C125.107 56.4468 124.775 56.4819 124.478 56.3846C124.142 56.2774 123.922 56.0387 123.816 55.6683L123.666 54.9635C123.579 54.598 123.51 54.3179 123.46 54.1232C123.382 53.8004 123.304 53.5179 123.226 53.2756C122.296 53.9024 121.255 54.379 120.101 54.7054C118.976 54.9989 117.968 55.111 117.078 55.0417C116.407 54.9081 116.095 54.7467 116.144 54.5576C116.212 54.3734 116.518 54.3216 117.062 54.4021C117.355 54.5183 117.849 54.3639 118.544 53.9388C119.163 53.5746 119.852 53.0571 120.611 52.3862C121.304 51.7384 121.887 51.1229 122.361 50.5396C122.864 49.9233 123.104 49.5014 123.082 49.2738L123.048 49.1741ZM138.427 48.1057C138.53 47.6281 138.424 47.0256 138.108 46.2981C137.89 45.8178 137.584 45.2846 137.191 44.6985C136.747 44.0788 136.561 43.6675 136.634 43.4644C136.716 43.2235 137.122 43.1772 137.85 43.3256C138.294 43.4005 138.787 43.6393 139.329 44.0419C139.936 44.5019 140.624 45.1947 141.393 46.1203C141.74 46.4928 141.927 46.8237 141.953 47.1129C141.965 47.2977 141.897 47.5624 141.747 47.9069L141.506 48.6012L138.588 59.8601C138.872 59.9336 139.147 59.9644 139.412 59.9525C139.554 59.949 139.758 59.901 140.024 59.8085C140.371 59.7168 140.646 59.667 140.85 59.6593C141.22 59.6341 141.643 59.7135 142.12 59.8976C142.809 60.1973 143.27 60.5589 143.503 60.9825C143.75 61.43 143.722 61.9271 143.419 62.474C143.164 62.9124 142.855 63.1347 142.49 63.1411C142.248 63.139 141.764 62.9832 141.037 62.6738C140.527 62.4609 140.107 62.2915 139.777 62.1655C139.243 61.9667 138.7 61.8057 138.146 61.6825C137.47 64.2916 136.727 66.4193 135.917 68.0656C135.367 69.1741 134.733 70.18 134.015 71.0834C133.407 71.7935 133.03 72.1194 132.884 72.0613C132.724 71.9794 132.872 71.5638 133.328 70.8145C133.482 70.5316 133.609 70.1609 133.707 69.7022C133.767 69.3948 133.84 68.8388 133.928 68.0342C134.091 66.7045 134.247 65.5547 134.398 64.5849C134.697 62.8868 135.096 61.0735 135.596 59.145L138.427 48.1057ZM167.483 55.4548C167.553 55.0291 167.418 54.54 167.076 53.9875C166.843 53.6444 166.343 53.0409 165.579 52.1768L165.466 52.0266C165.278 51.8166 165.2 51.6146 165.23 51.4206C165.246 51.2028 165.361 51.0309 165.575 50.9049C165.79 50.7788 166.048 50.7147 166.351 50.7126C166.716 50.7063 167.087 50.7924 167.465 50.9709C167.969 51.2832 168.503 51.6738 169.068 52.143C169.689 52.6268 170.161 53.0619 170.485 53.4484C170.855 53.8874 171.065 54.2848 171.114 54.6405C171.141 54.8492 171.091 55.1188 170.965 55.4493L170.884 55.7612L168.237 66.0916C168.558 66.1749 168.871 66.2155 169.174 66.2133C169.34 66.1958 169.582 66.1576 169.9 66.0988C170.218 66.04 170.457 66.0112 170.618 66.0126C170.921 66.0105 171.236 66.0819 171.561 66.2268C172.284 66.4746 172.785 66.8366 173.066 67.3128C173.425 67.8701 173.366 68.4499 172.887 69.0521C172.634 69.3295 172.313 69.438 171.925 69.3778C171.688 69.3568 171.242 69.2109 170.586 68.9399C170.057 68.7222 169.634 68.5622 169.318 68.46C168.765 68.2563 168.227 68.1166 167.701 68.0411C167.345 69.2602 166.894 70.263 166.347 71.0494C166.044 71.5157 165.633 71.9741 165.113 72.4243L164.94 72.6218C163.976 73.4615 163.464 73.7626 163.405 73.5252C163.364 73.3733 163.509 72.9672 163.842 72.3068L163.87 72.3142C164.034 71.9934 164.155 71.6416 164.235 71.2585C164.279 71.0078 164.326 70.5961 164.373 70.0233C164.429 69.5738 164.472 69.2117 164.503 68.9373C164.564 68.4688 164.641 68.0147 164.735 67.5749C163.302 67.3447 161.228 67.1705 158.515 67.0524C156.545 66.9454 154.594 66.8836 152.662 66.8669L151.794 66.9447C151.139 67.0575 150.692 67.0323 150.452 66.8692C150.07 66.629 149.777 66.0083 149.572 65.007C149.578 64.3628 149.66 63.8898 149.819 63.5879C149.93 63.3947 150.13 63.2045 150.421 63.0176C150.759 62.8026 151 62.5725 151.144 62.3274C151.437 61.8989 151.651 61.2683 151.786 60.4357L151.511 60.2131C151.021 59.8441 150.666 59.5402 150.446 59.3014C150.023 58.8288 149.866 58.4248 149.973 58.0894C149.961 57.824 150.166 57.6552 150.588 57.5831C151.02 57.4731 151.601 57.4923 152.329 57.6407C153.104 57.8416 154.012 57.9963 155.054 58.1047C156.019 58.1936 157.082 58.2572 158.242 58.2957C158.278 58.0023 158.32 57.5692 158.367 56.9964C158.39 56.5986 158.43 56.0542 158.488 55.3631C157.839 55.2959 157.226 55.2883 156.648 55.3401C156.34 55.3611 155.944 55.4098 155.46 55.4862C154.909 55.5857 154.499 55.6106 154.23 55.5609C153.842 55.5007 153.382 55.2907 152.85 54.9308C152.294 54.5044 151.876 54.0934 151.595 53.6978C151.343 53.3498 151.222 53.0361 151.234 52.7567C151.26 52.5011 151.38 52.3103 151.594 52.1842C151.823 52.082 152.116 52.0774 152.475 52.1705L153.234 52.3973C154.358 52.7291 155.178 52.9517 155.694 53.0651C156.559 53.2289 157.393 53.2835 158.194 53.2288L158.898 53.0785C159.397 52.9455 159.786 52.9251 160.064 53.0175C160.513 53.154 160.981 53.5678 161.468 54.2589C161.884 54.9115 162.073 55.4248 162.037 55.7987C162.021 56.0165 161.869 56.2899 161.582 56.619C161.472 56.7318 161.389 56.8211 161.331 56.8869C161.24 57.0046 161.168 57.1271 161.115 57.2545L160.071 58.8301C160.649 59.4036 160.824 59.9736 160.596 60.5401C160.345 61.1206 159.73 61.3545 158.75 61.2418L158.402 61.182C157.508 61.0511 156.779 60.943 156.216 60.8576C155.199 60.7351 154.418 60.6739 153.873 60.674C153.885 60.9394 153.76 61.4617 153.497 62.2411C153.274 62.8692 153.02 63.4995 152.735 64.1318C154.307 64.2164 156.203 64.3346 158.424 64.4864C161.486 64.7354 163.73 64.9537 165.154 65.1413L167.483 55.4548ZM155.524 69.4852C156.28 69.6812 156.926 70.0705 157.461 70.653C157.991 71.2545 158.241 71.8843 158.212 72.5425C158.206 72.7225 158.161 72.9329 158.079 73.1738C158.039 73.325 157.967 73.5281 157.86 73.783C157.666 74.2977 157.571 74.6664 157.574 74.889C157.556 75.2679 157.745 75.5893 158.141 75.8532C158.864 76.0205 159.595 76.1192 160.334 76.1492C160.788 76.1863 161.411 76.1964 162.202 76.1796L163.716 76.1784C164.327 76.1552 164.8 76.318 165.133 76.6667C165.447 77.0105 165.534 77.4162 165.393 77.884C165.221 78.5457 164.509 78.9565 163.257 79.1162C162.166 79.2774 160.968 79.2291 159.663 78.9716C158.849 78.8414 158.245 78.6443 157.849 78.3804C157.293 78.0345 156.73 77.4043 156.16 76.4899C156.021 76.1713 155.917 75.8719 155.848 75.5919C155.793 75.4161 155.742 75.1812 155.698 74.8871C155.616 74.4221 155.525 74.0353 155.423 73.7265C155.252 73.2181 154.966 72.6093 154.565 71.9C154 70.9666 153.726 70.3105 153.744 69.9317C153.776 69.4156 154.313 69.2521 155.354 69.4411L155.524 69.4852ZM177.579 69.6326C177.317 69.7867 177.056 69.82 176.797 69.7325C176.556 69.6499 176.358 69.4776 176.204 69.2157C176.069 68.9588 176.005 68.7 176.012 68.4395C176.048 68.1461 176.175 67.927 176.394 67.782C177.319 67.0936 178.268 66.6636 179.24 66.492C180.17 66.3294 181.202 66.3952 182.337 66.6892C183.112 66.8901 183.909 67.3186 184.728 67.9746C185.193 68.3576 185.853 69.0028 186.708 69.9102C187.383 70.6503 187.895 71.1664 188.243 71.4583C188.803 71.9464 189.328 72.2541 189.82 72.3815C190.652 72.5971 191.409 72.6723 192.092 72.6071C192.855 72.5426 193.568 72.3238 194.229 71.9505C194.43 71.8006 194.664 71.7908 194.933 71.921C195.164 72.0414 195.357 72.2326 195.511 72.4945C195.679 72.7801 195.745 73.0697 195.709 73.3631C195.669 73.6754 195.503 73.925 195.213 74.112C194.284 74.6583 193.287 74.9647 192.22 75.0313C191.334 75.1042 190.361 75.0034 189.302 74.729C188.47 74.5134 187.631 74.0538 186.785 73.3501C186.281 72.9573 185.586 72.2929 184.698 71.3567C184.023 70.6166 183.518 70.1125 183.184 69.8443C182.657 69.385 182.167 69.0966 181.713 68.979C180.919 68.7732 180.185 68.7242 179.512 68.8321C178.876 68.9498 178.232 69.2166 177.579 69.6326Z" fill="#410A0A"/>
<path d="M211.52 221.73L211.82 208.66L211.92 204.55C211.95 203.5 211.12 202.63 210.07 202.61L206.72 202.54L195.01 202.27H194.88L194.96 199.07L187.09 198.89V198.82C187.89 198.03 188.4 196.95 188.43 195.74C188.48 193.26 186.5 191.21 184 191.15C181.5 191.09 179.42 193.05 179.37 195.53C179.34 196.74 179.8 197.84 180.56 198.67V198.74L172.69 198.56L172.62 201.74H172.56L157.36 201.39C156.32 201.37 155.44 202.21 155.41 203.25L154.84 229.51C153.01 229.91 151.24 232.38 151.24 232.38C149.93 233 147.53 235.83 147.83 237.47C148.06 238.69 149.18 239.2 149.18 239.2L149.23 239.24C148.77 239.82 148.44 240.38 148.35 240.84C147.98 242.78 149.1 243.59 149.1 243.59L149.37 243.84C149.22 244.04 149.13 244.21 149.12 244.34C149.02 245.36 149.32 246.34 149.86 247.11L150.17 247.28C149.95 247.58 149.83 247.86 149.84 248.08C149.92 249.46 150.18 251.41 154.21 252.48H154.33L154.2 258.65L153.9 271.97C153.87 273 154.7 273.88 155.75 273.91L179.74 274.45L197.63 274.87C200.91 283.39 201.74 289.2 201.47 292.64C201.37 293.97 201.11 294.94 200.76 295.58C200.18 296.63 199.63 297.18 198.33 298.01H198.32C195.82 299.61 190.55 302.25 176.91 311.44C167.96 317.47 161.25 320.79 155.88 322.41L155.06 321.06C155.06 321.06 154.32 321.32 153.14 321.61H153.13C149.16 319.7 152.87 313.91 149.96 311.8C146.49 309.29 145.05 308.13 144.69 305.99C144.23 303.23 144.9 302.04 146.02 298.9C147.14 295.75 140.48 286.47 135.32 270.47C130.15 254.47 131.05 227.33 128.35 223.99C125.65 220.66 122.55 211.02 122.55 211.02C122.99 210.42 123.42 209.72 123.82 208.91C123.82 208.91 126.59 208.87 128.08 207.94C132.25 210.36 137.38 210.16 137.38 210.16C138.16 206.54 137.63 203.62 136.79 201.48L137.08 201.39C145.09 194.48 143.26 176.81 143.26 176.81H143.27C143.27 176.81 149.31 177.49 152.48 178.43C155.64 179.36 163.5 179.3 166.97 180.05C176.67 175.84 192.74 185.12 202.87 192.18C207.29 195.26 211.42 198.75 215.15 202.64C220.86 208.58 234.45 215.76 239.28 218.94C248.13 224.76 246.47 238.72 246.33 241.78C245.94 249.92 244.35 256.53 222.79 254.6C218.96 254.25 215.43 253.03 210.82 253.22C209.94 253.25 209.07 253.28 208.22 253.31C204.23 253.45 200.55 253.55 197.95 253.65C191.87 253.88 185.72 251.26 183.73 250.81C183.73 250.81 183.71 250.82 183.66 250.84L183.6 250.68C180.12 244.26 180.29 234.18 180.3 233.76C180.37 233.54 181.39 230.15 182.84 230C184.34 229.85 185.53 230.61 185.53 230.61C185.53 230.61 197.51 224.66 208.92 222.23C209.8 222.04 210.67 221.87 211.53 221.73H211.52Z" fill="white"/>
<path d="M221.78 316.87C224.87 332.58 219.82 349.88 219.82 349.88C157.95 374.15 141.59 349.88 141.59 349.88C141.52 347.55 141.52 346.93 141.59 345.57C141.67 344.21 138.5 340.28 137.52 336.05C136.53 331.82 139.53 324.94 139.53 324.94C139.85 326.07 140.25 327.19 140.67 327.63C141.63 328.65 146.16 329.95 150.55 330.38L151.68 332.25C151.68 332.25 157.8 332.5 161.08 330.92L160.28 329.61C160.28 329.61 173.74 327.17 198.31 298.02H198.32C199.62 297.18 200.17 296.63 200.75 295.58C201.1 294.94 201.36 293.97 201.46 292.64C201.46 292.64 218.67 301.17 221.77 316.87H221.78Z" fill="#232322"/>
<path d="M210.07 202.61C211.12 202.63 211.95 203.5 211.92 204.55L211.82 208.66L211.52 221.73C210.66 221.87 209.79 222.04 208.91 222.23L209.31 205.55V205.51H209.27L194.92 205.18H194.81L194.87 202.27H195L206.71 202.54L210.06 202.61H210.07Z" fill="#8C725B"/>
<path d="M210.81 253.22L210.72 256.99L210.34 273.25C210.31 274.3 209.45 275.14 208.4 275.12L197.62 274.87L179.73 274.45L155.74 273.91C154.69 273.88 153.86 273 153.89 271.97L154.19 258.65L154.32 252.48L154.4 249.04L155.36 248.09C155.36 248.09 155.99 248.4 157.02 248.78L156.8 258.32L156.51 271L179.04 271.52L196.43 271.92L207.77 272.18L208.11 257.53L208.21 253.31C209.06 253.28 209.93 253.25 210.81 253.22Z" fill="#8C725B"/>
<path d="M209.31 205.51V205.55L208.91 222.23C197.5 224.66 185.52 230.61 185.52 230.61C185.52 230.61 184.33 229.85 182.83 230C181.38 230.15 180.36 233.54 180.29 233.75L170.68 233.55C170.49 233.91 170.33 234.3 170.2 234.72C166.05 234.13 164.58 233.42 164.58 233.42C164.58 233.42 161.13 232.3 157.45 230.36L158.05 204.34L172.29 204.66H172.54L172.47 207.5L194.74 208.01L194.81 205.18H194.92L209.27 205.51H209.31Z" fill="white"/>
<path d="M208.21 253.31L208.11 257.53L207.77 272.18L196.43 271.92L179.04 271.52L156.51 271L156.8 258.32L157.02 248.78C158.83 249.45 161.85 250.35 164.77 250.22C169.7 250 170.96 248.7 170.96 248.7C171.26 249.96 171.49 250.75 171.49 250.75C174.21 250.67 180.88 251.84 182.71 251.18C183.18 251.02 183.51 250.89 183.65 250.84C183.7 250.82 183.72 250.81 183.72 250.81C185.71 251.26 191.86 253.88 197.94 253.65C200.54 253.55 204.22 253.45 208.21 253.31Z" fill="white"/>
<path d="M194.95 199.07L194.87 202.26L194.81 205.18L194.74 208.01L172.47 207.5L172.54 204.67L172.61 201.75L172.68 198.56L180.55 198.74V198.67C179.79 197.84 179.33 196.74 179.36 195.53C179.41 193.05 181.49 191.09 183.99 191.15C186.49 191.21 188.47 193.26 188.42 195.74C188.39 196.95 187.88 198.03 187.08 198.82V198.89L194.95 199.07ZM185.59 195.72C185.61 194.78 184.86 194 183.92 193.98C182.99 193.96 182.21 194.7 182.19 195.64C182.17 196.57 182.91 197.35 183.85 197.37C184.79 197.4 185.56 196.65 185.59 195.72Z" fill="#CCCCCC"/>
<path d="M170.2 234.72C170.33 234.3 170.49 233.91 170.68 233.55L180.29 233.75C180.28 234.18 180.11 244.26 183.59 250.68L183.65 250.84C183.51 250.89 183.18 251.02 182.71 251.18C180.88 251.84 174.21 250.67 171.49 250.75C171.49 250.75 171.26 249.96 170.96 248.7C170.18 245.37 168.93 238.76 170.2 234.72Z" fill="white"/>
<path d="M172.61 201.74L172.54 204.67H172.29L158.05 204.34L157.45 230.36C157.05 230.15 156.66 229.93 156.26 229.7C155.8 229.44 155.31 229.4 154.83 229.51L155.4 203.25C155.43 202.21 156.31 201.37 157.35 201.39L172.55 201.74H172.61Z" fill="#8C725B"/>
<path d="M149.22 239.24L149.17 239.2C149.17 239.2 148.05 238.69 147.82 237.47C147.52 235.83 149.92 233 151.23 232.38C151.23 232.38 153 229.91 154.83 229.51C155.31 229.4 155.8 229.44 156.26 229.7C156.66 229.93 157.05 230.15 157.45 230.36C161.13 232.3 164.58 233.42 164.58 233.42C164.58 233.42 166.05 234.13 170.2 234.72C168.93 238.76 170.18 245.37 170.96 248.7C170.96 248.7 169.7 250 164.77 250.22C161.85 250.35 158.83 249.45 157.02 248.78C155.99 248.4 155.36 248.09 155.36 248.09L154.4 249.04L154.32 252.48H154.2C150.17 251.41 149.91 249.46 149.83 248.08C149.82 247.86 149.94 247.58 150.16 247.28L149.85 247.11C149.31 246.34 149.01 245.36 149.11 244.34C149.12 244.21 149.21 244.04 149.36 243.84L149.09 243.59C149.09 243.59 147.97 242.78 148.34 240.84C148.43 240.38 148.76 239.82 149.22 239.24Z" fill="#FFD9B3"/>
<path d="M160.28 329.61L161.08 330.92C157.8 332.5 151.68 332.25 151.68 332.25L150.55 330.38L146.48 323.65L145.71 322.37C148.5 322.56 151.32 322.04 153.12 321.61H153.13C154.31 321.32 155.05 321.06 155.05 321.06L155.87 322.41L160.28 329.61ZM158.08 329.26L154.4 323.25C154.4 323.25 151.54 324.23 148.71 324.04L152.35 330.07C152.35 330.07 156.08 330.22 158.08 329.26Z" fill="#CCCCCC"/>
<path d="M41.3004 220.04C42.0304 219.02 47.5704 217.26 47.5704 217.26C53.8604 209.45 58.8404 210.98 58.8404 210.98C65.7504 203.5 85.3404 196.37 85.3404 196.37C85.3404 196.37 84.7204 194.64 86.4504 193.42C88.1704 192.21 99.0104 192.52 99.0104 192.52C99.0104 192.52 102.77 201.58 111.53 206.41L111.66 206.39C111.99 208.84 113.11 212.96 116.91 214.82C116.91 214.82 119.93 214.61 122.54 211.02C122.54 211.02 125.64 220.66 128.34 223.99C131.04 227.33 130.14 254.47 135.31 270.47C140.47 286.47 147.13 295.75 146.01 298.9C144.89 302.04 144.22 303.23 144.68 305.99C145.04 308.13 146.48 309.29 149.95 311.8C152.86 313.91 149.15 319.7 153.12 321.61C151.32 322.04 148.5 322.56 145.71 322.37L146.48 323.65C143.67 323.47 141.22 322.78 138.82 321.91C138.66 321.86 138.5 321.8 138.34 321.74C130.37 318.82 127.59 304.53 127.02 302.15C126.45 299.77 113.77 275.08 104.03 257.3C94.2904 239.52 89.3404 239.1 89.3404 239.1C79.5304 235.94 60.6504 242.43 58.1604 243.03C55.6704 243.64 42.9104 249.15 37.6204 250.13C34.3704 250.74 28.9104 250.71 25.1904 250.6C18.8404 250.41 13.7404 245.26 13.6904 238.9V238.58C13.7604 226.85 18.0704 206.87 18.3704 205.43C18.6704 203.99 21.0704 202.99 21.0704 202.99C21.0704 202.99 22.8204 208.28 41.0204 203.98L41.2604 204.05C40.0804 207.12 41.9504 213.86 41.3004 220.04Z" fill="white"/>
<path d="M143.25 176.81C143.25 176.81 145.08 194.48 137.07 201.39L136.78 201.48C135.73 198.8 134.2 197.36 134.2 197.36C132.46 197.52 129.77 200.4 128.35 202.07L122.62 200.11C122.93 200.11 129.55 199.88 136.17 180.21C136.45 179.38 136 176.99 135.31 174.29C135.31 174.29 140.16 174.85 143.25 176.81Z" fill="white"/>
<path d="M136.78 201.48C137.62 203.62 138.15 206.54 137.37 210.16C137.37 210.16 132.24 210.36 128.07 207.94C128.17 207.87 128.26 207.81 128.34 207.74L127.32 203.25H127.37C127.37 203.25 127.75 202.76 128.35 202.07C129.77 200.4 132.46 197.52 134.2 197.36C134.2 197.36 135.73 198.8 136.78 201.48Z" fill="#232322"/>
<path d="M116.48 153.43C115.24 153.7 114.3 154.17 113.6 154.69C113.6 154.69 114.26 157.45 115.51 157.11C116.75 156.77 117.22 154.93 116.48 153.43ZM99.9097 161.64C99.0197 161.69 97.9897 161.91 96.9797 162.53C96.9797 162.53 97.8797 164.96 99.2297 164.62C100.59 164.28 99.9097 161.64 99.9097 161.64ZM137.21 153.18C137.89 161.33 136.31 163.22 132.23 163.98C132.23 163.98 133.64 168.19 134.79 172.36L131.85 172.91C132.15 181.08 130.27 186.18 119.39 191.31C114.59 193.58 109.87 191.67 105.9 188.56C105.23 188.05 104.57 187.48 103.94 186.91C100.74 183.95 98.1797 180.49 96.6597 178.43C96.2697 177.88 95.9397 177.43 95.6897 177.11C93.2697 174.02 84.7397 158.54 89.1197 147.06C93.4997 135.59 108.67 136.34 108.67 136.34L111.99 133.43L111.96 136.98C111.96 136.98 127.25 143.93 131.1 160.3C131.1 160.3 131.1 152.76 130.42 145.86C130.42 145.86 131.84 145.67 133.39 146.39C135.06 147.15 136.86 148.97 137.21 153.18ZM116.58 179.96C121.34 177.64 121.83 172.88 121.83 172.88C112.87 178.6 107.86 179.22 107.86 179.22C107.86 179.22 111.82 182.28 116.58 179.96ZM115.64 149.14C118.3 148.06 120.95 148.29 120.95 148.29C120.95 148.29 117.79 146.65 115.24 146.82C112.69 146.99 107.54 153.27 107.54 153.27C107.54 153.27 112.98 150.22 115.64 149.14ZM91.5097 159.13C92.9497 158.55 100.05 157 100.05 157C100.05 157 91.6997 156.13 90.1497 157.34C88.6097 158.55 88.9097 161.57 88.9097 161.57C88.9097 161.57 90.0797 159.72 91.5097 159.13Z" fill="#FFD9B3"/>
<path d="M135.3 174.29C135.99 176.99 136.44 179.38 136.16 180.21C129.54 199.88 122.92 200.11 122.61 200.11H122.6C112.47 199.31 108.67 193.57 108.67 193.57L105.89 188.57H105.9C109.87 191.67 114.59 193.58 119.39 191.31C130.27 186.18 132.15 181.08 131.85 172.91L134.79 172.36C134.97 173.01 135.14 173.66 135.3 174.29Z" fill="#FFD9B3"/>
<path d="M117.18 124.21C117.42 124.11 121.53 122.49 124.68 126.38C127.93 130.38 133.35 139.21 133.39 146.38C131.84 145.67 130.42 145.86 130.42 145.86C131.1 152.76 131.1 160.3 131.1 160.3C127.25 143.93 111.96 136.98 111.96 136.98L111.99 133.43L108.67 136.34C108.67 136.34 93.4996 135.59 89.1196 147.06C84.7396 158.54 93.2696 174.02 95.6896 177.11C95.9396 177.43 96.2696 177.88 96.6596 178.43C92.0196 178.43 89.8996 176.23 84.9996 166.81C81.2896 159.67 78.7696 149.03 78.7696 149.03C78.7696 149.03 77.4596 148.89 76.0596 148.19C73.2696 146.79 70.1496 143.12 76.6196 133.74C78.6096 130.86 81.5396 128.28 84.8896 126.06C93.7396 120.2 105.53 116.88 110.82 117.2C119.1 117.7 117.27 123.89 117.18 124.21Z" fill="#232322"/>
<path d="M128.34 202.06C127.74 202.76 127.36 203.25 127.36 203.25H127.31L122.29 204.68C122.29 204.68 121.76 204.6 120.94 204.49L122.59 200.11H122.6L128.33 202.06H128.34Z" fill="white"/>
<path d="M127.32 203.25L128.34 207.74C128.26 207.81 128.17 207.87 128.07 207.94C126.58 208.87 123.81 208.91 123.81 208.91L122.3 204.68L127.32 203.25Z" fill="#232322"/>
<path d="M122.3 204.68L123.81 208.91C123.41 209.72 122.98 210.42 122.54 211.02C119.93 214.61 116.91 214.82 116.91 214.82C113.11 212.96 111.99 208.84 111.66 206.39C111.51 205.22 111.53 204.43 111.53 204.43C112.92 203.57 118.38 204.16 120.95 204.49C121.77 204.6 122.3 204.68 122.3 204.68Z" fill="#232322"/>
<path d="M122.6 200.11L120.95 204.49C118.38 204.16 112.92 203.57 111.53 204.43C111.53 204.43 111.51 205.22 111.66 206.39L111.53 206.41C102.77 201.58 99.0098 192.52 99.0098 192.52C100.22 189.5 103.94 186.91 103.94 186.91C104.57 187.48 105.23 188.05 105.9 188.56H105.89L108.67 193.57C108.67 193.57 112.47 199.31 122.6 200.11Z" fill="white"/>
<path d="M121.83 172.88C121.83 172.88 121.34 177.64 116.58 179.96C111.82 182.28 107.86 179.22 107.86 179.22C107.86 179.22 112.87 178.6 121.83 172.88Z" fill="#9E6363"/>
<path d="M120.95 148.29C120.95 148.29 118.3 148.06 115.64 149.14C112.98 150.22 107.54 153.27 107.54 153.27C107.54 153.27 112.69 146.99 115.24 146.82C117.79 146.65 120.95 148.29 120.95 148.29Z" fill="#232322"/>
<path d="M116.48 153.43C117.22 154.93 116.75 156.77 115.51 157.11C114.26 157.45 113.6 154.69 113.6 154.69C114.3 154.17 115.24 153.7 116.48 153.43Z" fill="#232322"/>
<path d="M99.9105 161.64C99.9105 161.64 100.59 164.28 99.2305 164.62C97.8805 164.96 96.9805 162.54 96.9805 162.54C97.9905 161.91 99.0205 161.69 99.9105 161.64Z" fill="#232322"/>
<path d="M100.05 157C100.05 157 92.9503 158.55 91.5103 159.13C90.0803 159.72 88.9103 161.57 88.9103 161.57C88.9103 161.57 88.6103 158.55 90.1503 157.34C91.7003 156.13 100.05 157 100.05 157Z" fill="#232322"/>
<path d="M73.4797 116.49C73.4797 116.49 70.5397 120.26 68.0497 121.17C67.8697 121.23 67.6997 121.29 67.5197 121.35C64.3697 122.42 62.5997 124.11 61.0497 127.05C59.6997 129.61 58.0997 134.03 56.5697 139.17C55.0497 144.33 51.8897 157.58 55.3297 158.31C59.0697 159.11 69.0597 144.06 73.4797 116.49ZM84.2797 108.1C88.6997 108.42 84.9697 125.71 84.8897 126.05C81.5397 128.28 78.6097 130.86 76.6197 133.74C70.1497 143.12 73.2697 146.79 76.0597 148.19C76.0597 148.19 65.0297 175.53 52.1197 176.81C49.6697 177.05 47.7097 176.19 46.1697 174.53C41.7997 169.85 40.7697 158.85 41.5297 148.71C41.5997 147.75 41.6797 146.8 41.7797 145.87C42.2397 141.72 42.9697 137.84 43.8897 134.76C46.1897 127 54.4597 122.83 64.9597 119.58C67.9297 118.66 70.3497 116.34 72.7997 114.03C76.0997 110.89 79.4597 107.75 84.2797 108.1Z" fill="#961200"/>
<path d="M72.8002 114.02C70.3502 116.34 67.9302 118.66 64.9602 119.58C54.4602 122.83 46.1902 127 43.8902 134.76C42.9702 137.84 42.2402 141.72 41.7802 145.87C41.7802 145.87 41.0502 145.55 39.9902 145.11H40.3402C40.2702 128.11 48.1902 112.56 52.1902 110.97C56.2002 109.39 72.8002 114.02 72.8002 114.02Z" fill="#961200"/>
<path d="M68.0497 121.17C70.5397 120.26 73.4797 116.49 73.4797 116.49C69.0597 144.06 59.0697 159.11 55.3297 158.31C51.8897 157.58 55.0497 144.33 56.5697 139.17C58.0997 134.03 59.6997 129.61 61.0497 127.05C62.5997 124.11 64.3697 122.42 67.5197 121.35C67.6997 121.29 67.8697 121.23 68.0497 121.17Z" fill="#410A0A"/>
<path d="M31.8798 178.06C32.7198 175.86 33.3998 173.89 33.5498 172.91C33.9998 169.94 23.9498 160.65 24.3298 157.86C24.5598 156.18 27.5199 151.86 30.0399 148.71C30.0399 148.71 30.0398 148.7 30.0498 148.69C31.7098 146.63 33.1798 145.07 33.5598 145.1C34.5298 145.18 41.5198 148.71 41.5198 148.71H41.5298C40.7698 158.85 41.7998 169.85 46.1698 174.53L46.0898 174.6L44.1598 182.38C38.7598 181.97 33.4698 180.31 31.2998 179.57C31.4998 179.05 31.6998 178.55 31.8798 178.06Z" fill="#FFD9B3"/>
<path d="M45.1397 182.44L44.0397 187.38C44.0397 187.38 43.6397 187.42 42.9097 187.42C40.7197 187.46 35.5297 187.23 29.1497 184.88C28.8297 184.76 28.5097 184.64 28.1797 184.51L30.2597 179.19C30.2597 179.19 30.6297 179.34 31.2997 179.56C33.4697 180.31 38.7597 181.97 44.1597 182.38C44.4897 182.4 44.8097 182.42 45.1397 182.44Z" fill="#232322"/>
<path d="M42.9099 187.42L42.1699 190.42C36.8099 191.93 30.8299 190.63 29.4699 190.03C28.1099 189.42 27.8799 187.84 27.8799 187.84C27.8799 187.84 28.1699 187.18 28.6199 186.13C28.7799 185.76 28.9599 185.34 29.1499 184.88C35.5299 187.23 40.7199 187.46 42.9099 187.42Z" fill="#FFD9B3"/>
<path d="M42.1705 190.43C42.2105 190.85 43.0005 200.51 41.4005 203.73C41.3505 203.83 41.3005 203.94 41.2605 204.05L41.0205 203.98C22.8205 208.28 21.0705 202.99 21.0705 202.99C20.5005 197.84 27.8805 187.84 27.8805 187.84C27.8805 187.84 28.1105 189.42 29.4705 190.03C30.8305 190.63 36.8105 191.93 42.1705 190.42V190.43Z" fill="white"/>
<path d="M41.7798 145.87C41.6798 146.8 41.5998 147.75 41.5298 148.71H41.5198C41.5198 148.71 34.5298 145.18 33.5598 145.1C33.1798 145.07 31.7098 146.63 30.0498 148.69C30.1298 148.35 31.5398 142.9 32.5598 142.61C33.2998 142.4 37.5198 144.08 39.9898 145.11C41.0498 145.55 41.7798 145.87 41.7798 145.87Z" fill="#FFD9B3"/>
<path d="M31.8795 178.05C31.6995 178.55 31.4995 179.05 31.2995 179.56C30.6295 179.34 30.2595 179.19 30.2595 179.19L28.1795 184.51C28.5095 184.64 28.8295 184.76 29.1495 184.88C28.9595 185.34 28.7795 185.76 28.6195 186.13C28.6195 186.13 27.3495 186.54 25.9895 184.88C25.9895 184.88 25.3995 180.45 28.9695 176.85C28.9695 176.85 30.8295 177.02 31.8795 178.05Z" fill="#232322"/>
<path d="M122.61 200.11C122.92 200.11 129.54 199.88 136.16 180.21C136.44 179.38 135.99 176.99 135.3 174.29C135.14 173.66 134.97 173.01 134.79 172.36C133.64 168.19 132.23 163.98 132.23 163.98C136.31 163.22 137.89 161.33 137.21 153.18C136.86 148.97 135.06 147.15 133.39 146.39C131.84 145.67 130.42 145.86 130.42 145.86C131.1 152.76 131.1 160.3 131.1 160.3C127.25 143.93 111.96 136.98 111.96 136.98L111.99 133.43L108.67 136.34C108.67 136.34 93.4997 135.59 89.1197 147.06C84.7397 158.54 93.2697 174.02 95.6897 177.11C95.9397 177.43 96.2697 177.88 96.6597 178.43C98.1797 180.49 100.74 183.95 103.94 186.91C104.57 187.48 105.23 188.05 105.9 188.56C109.87 191.67 114.59 193.58 119.39 191.31C130.27 186.18 132.15 181.08 131.85 172.91" stroke="black" stroke-width="0.4" stroke-linecap="round" stroke-linejoin="round"/>
<path d="M105.89 188.57L108.67 193.57C108.67 193.57 112.47 199.31 122.6 200.11" stroke="black" stroke-width="0.4" stroke-linecap="round" stroke-linejoin="round"/>
<path d="M117.17 124.22C117.41 124.11 121.52 122.49 124.67 126.38C127.92 130.38 133.34 139.21 133.38 146.38" stroke="black" stroke-width="0.4" stroke-linecap="round" stroke-linejoin="round"/>
<path d="M84.8896 126.05C93.7396 120.2 105.53 116.88 110.82 117.2C119.1 117.7 117.27 123.89 117.18 124.21" stroke="black" stroke-width="0.4" stroke-linecap="round" stroke-linejoin="round"/>
<path d="M96.6596 178.43C92.0196 178.43 89.8996 176.23 84.9996 166.81C81.2896 159.67 78.7696 149.03 78.7696 149.03C78.7696 149.03 77.4596 148.89 76.0596 148.19C73.2696 146.79 70.1496 143.12 76.6196 133.74C78.6096 130.86 81.5396 128.28 84.8896 126.06" stroke="black" stroke-width="0.4" stroke-linecap="round" stroke-linejoin="round"/>
<path d="M122.3 204.68L123.81 208.91C123.81 208.91 126.58 208.87 128.07 207.94C128.17 207.87 128.26 207.81 128.34 207.74L127.32 203.25L122.3 204.68Z" stroke="black" stroke-width="0.4" stroke-linecap="round" stroke-linejoin="round"/>
<path d="M127.37 203.25C127.37 203.25 127.75 202.76 128.35 202.07C129.77 200.4 132.46 197.52 134.2 197.36C134.2 197.36 135.73 198.8 136.78 201.48C137.62 203.62 138.15 206.54 137.37 210.16C137.37 210.16 132.24 210.36 128.07 207.94" stroke="black" stroke-width="0.4" stroke-linecap="round" stroke-linejoin="round"/>
<path d="M122.3 204.68C122.3 204.68 121.77 204.6 120.95 204.49C118.38 204.16 112.92 203.57 111.53 204.43C111.53 204.43 111.51 205.22 111.66 206.39C111.99 208.84 113.11 212.96 116.91 214.82C116.91 214.82 119.93 214.61 122.54 211.02C122.98 210.42 123.41 209.72 123.81 208.91" stroke="black" stroke-width="0.4" stroke-linecap="round" stroke-linejoin="round"/>
<path d="M135.31 174.29C135.31 174.29 140.16 174.85 143.25 176.81C143.25 176.81 145.08 194.48 137.07 201.39" stroke="black" stroke-width="0.4" stroke-linecap="round" stroke-linejoin="round"/>
<path d="M120.95 204.49L122.6 200.11H122.61L128.34 202.06" stroke="black" stroke-width="0.4" stroke-linecap="round" stroke-linejoin="round"/>
<path d="M103.94 186.91C103.94 186.91 100.22 189.5 99.0098 192.52C99.0098 192.52 102.77 201.58 111.53 206.41" stroke="black" stroke-width="0.4" stroke-linecap="round" stroke-linejoin="round"/>
<path d="M99.0098 192.52C99.0098 192.52 88.1698 192.21 86.4498 193.42C84.7198 194.64 85.3398 196.37 85.3398 196.37C85.3398 196.37 65.7498 203.5 58.8398 210.98C58.8398 210.98 53.8598 209.45 47.5698 217.26C47.5698 217.26 42.0298 219.02 41.2998 220.04" stroke="black" stroke-width="0.4" stroke-linecap="round" stroke-linejoin="round"/>
<path d="M198.31 298.02C195.81 299.61 190.54 302.25 176.9 311.44C167.95 317.47 161.24 320.79 155.87 322.41" stroke="black" stroke-width="0.4" stroke-linecap="round" stroke-linejoin="round"/>
<path d="M197.62 274.87C200.9 283.39 201.73 289.2 201.46 292.64C201.36 293.97 201.1 294.94 200.75 295.58C200.17 296.63 199.62 297.18 198.32 298.01" stroke="black" stroke-width="0.4" stroke-linecap="round" stroke-linejoin="round"/>
<path d="M166.96 180.05C163.49 179.3 155.63 179.36 152.47 178.43C149.3 177.49 143.26 176.81 143.26 176.81" stroke="black" stroke-width="0.4" stroke-linecap="round" stroke-linejoin="round"/>
<path d="M180.29 233.75L170.68 233.55C170.49 233.91 170.33 234.3 170.2 234.72C168.93 238.76 170.18 245.37 170.96 248.7C171.26 249.96 171.49 250.75 171.49 250.75C174.21 250.67 180.88 251.84 182.71 251.18C183.18 251.02 183.51 250.89 183.65 250.84C183.7 250.82 183.72 250.81 183.72 250.81C185.71 251.26 191.86 253.88 197.94 253.65C200.54 253.55 204.22 253.45 208.21 253.31C209.06 253.28 209.93 253.25 210.81 253.22C215.42 253.03 218.95 254.25 222.78 254.6C244.34 256.53 245.93 249.92 246.32 241.78C246.46 238.72 248.12 224.76 239.27 218.94C234.44 215.76 220.85 208.58 215.14 202.64C211.41 198.75 207.28 195.26 202.86 192.18C192.73 185.12 176.66 175.84 166.96 180.05" stroke="black" stroke-width="0.4" stroke-linecap="round" stroke-linejoin="round"/>
<path d="M183.59 250.68C180.11 244.26 180.28 234.18 180.29 233.76" stroke="black" stroke-width="0.4" stroke-linecap="round" stroke-linejoin="round"/>
<path d="M42.1704 190.42C36.8104 191.93 30.8304 190.63 29.4704 190.03C28.1104 189.42 27.8804 187.84 27.8804 187.84C27.8804 187.84 20.5004 197.84 21.0704 202.99C21.0704 202.99 18.6704 203.99 18.3704 205.43C18.0704 206.87 13.7604 226.85 13.6904 238.58V238.9C13.7404 245.26 18.8404 250.41 25.1904 250.6C28.9104 250.71 34.3704 250.74 37.6204 250.13C42.9104 249.15 55.6704 243.64 58.1604 243.03C60.6504 242.43 79.5304 235.94 89.3404 239.1C89.3404 239.1 94.2904 239.52 104.03 257.3C113.77 275.08 126.45 299.77 127.02 302.15C127.59 304.53 130.37 318.82 138.34 321.74C138.5 321.8 138.66 321.86 138.82 321.91C141.22 322.78 143.67 323.47 146.48 323.65" stroke="black" stroke-width="0.4" stroke-linecap="round" stroke-linejoin="round"/>
<path d="M36.1299 233.29C37.8899 231.65 39.7199 227.33 40.8899 222.47C41.0799 221.68 41.2099 220.87 41.2999 220.04C41.9499 213.86 40.0799 207.12 41.2599 204.05C41.2999 203.94 41.3499 203.83 41.3999 203.73C42.9999 200.51 42.2099 190.85 42.1699 190.43" stroke="black" stroke-width="0.4" stroke-linecap="round" stroke-linejoin="round"/>
<path d="M21.0703 202.99C21.0703 202.99 22.8203 208.28 41.0203 203.98" stroke="black" stroke-width="0.4" stroke-linecap="round" stroke-linejoin="round"/>
<path d="M153.12 321.61C151.32 322.04 148.5 322.56 145.71 322.37L146.48 323.65L150.55 330.38L151.68 332.25C151.68 332.25 157.8 332.5 161.08 330.92L160.28 329.61L155.87 322.41L155.05 321.06C155.05 321.06 154.31 321.32 153.13 321.61" stroke="black" stroke-width="0.4" stroke-linecap="round" stroke-linejoin="round"/>
<path d="M158.08 329.26L154.4 323.25C154.4 323.25 151.54 324.23 148.71 324.04L152.35 330.07C152.35 330.07 156.08 330.22 158.08 329.26Z" stroke="black" stroke-width="0.4" stroke-linecap="round" stroke-linejoin="round"/>
<path d="M138.82 321.91C138.82 321.91 139.11 323.44 139.53 324.94C139.85 326.07 140.25 327.19 140.67 327.63C141.63 328.65 146.16 329.95 150.55 330.38" stroke="black" stroke-width="0.4" stroke-linecap="round" stroke-linejoin="round"/>
<path d="M160.28 329.61C160.28 329.61 173.74 327.17 198.31 298.02H198.32" stroke="black" stroke-width="0.4" stroke-linecap="round" stroke-linejoin="round"/>
<path d="M139.53 324.94C139.53 324.94 136.53 331.82 137.52 336.05C138.5 340.28 141.67 344.21 141.59 345.57C141.52 346.93 141.52 347.55 141.59 349.88C141.59 349.88 157.95 374.15 219.82 349.88C219.82 349.88 224.87 332.58 221.78 316.87C218.68 301.17 201.47 292.64 201.47 292.64" stroke="black" stroke-width="0.4" stroke-linecap="round" stroke-linejoin="round"/>
<path d="M197.35 330.38C197.35 330.38 176.63 341.89 174.93 349.88" stroke="black" stroke-width="0.4" stroke-linecap="round" stroke-linejoin="round"/>
<path d="M30.0498 148.69C31.7098 146.63 33.1798 145.07 33.5598 145.1C34.5298 145.18 41.5198 148.71 41.5198 148.71" stroke="black" stroke-width="0.4" stroke-linecap="round" stroke-linejoin="round"/>
<path d="M31.8798 178.05C32.7198 175.86 33.3998 173.89 33.5498 172.91C33.9998 169.94 23.9498 160.65 24.3298 157.86C24.5598 156.18 27.5199 151.86 30.0399 148.71" stroke="black" stroke-width="0.4" stroke-linecap="round" stroke-linejoin="round"/>
<path d="M31.2998 179.56C31.4998 179.05 31.6998 178.55 31.8798 178.06" stroke="black" stroke-width="0.4" stroke-linecap="round" stroke-linejoin="round"/>
<path d="M29.1499 184.88C28.9599 185.34 28.7799 185.76 28.6199 186.13C28.1699 187.18 27.8799 187.84 27.8799 187.84" stroke="black" stroke-width="0.4" stroke-linecap="round" stroke-linejoin="round"/>
<path d="M30.04 148.71C30.04 148.71 30.04 148.7 30.05 148.69C30.13 148.35 31.54 142.9 32.56 142.61C33.3 142.4 37.52 144.08 39.99 145.11C41.05 145.55 41.78 145.87 41.78 145.87" stroke="black" stroke-width="0.4" stroke-linecap="round" stroke-linejoin="round"/>
<path d="M29.1699 153.86C29.1699 153.86 33.3199 147.56 34.1499 147.8C34.9799 148.05 41.2999 151.44 41.2999 151.44" stroke="black" stroke-width="0.4" stroke-linecap="round" stroke-linejoin="round"/>
<path d="M42.9101 187.43L42.1701 190.42V190.43L42.1201 190.63" stroke="black" stroke-width="0.4" stroke-linecap="round" stroke-linejoin="round"/>
<path d="M46.0902 174.6L44.1602 182.38" stroke="black" stroke-width="0.4" stroke-linecap="round" stroke-linejoin="round"/>
<path d="M76.0597 148.19C76.0597 148.19 65.0297 175.53 52.1197 176.81C49.6697 177.05 47.7097 176.19 46.1697 174.53C41.7997 169.85 40.7697 158.85 41.5297 148.71C41.5997 147.75 41.6797 146.8 41.7797 145.87C42.2397 141.72 42.9697 137.84 43.8897 134.76C46.1897 127 54.4597 122.83 64.9597 119.58C67.9297 118.66 70.3497 116.34 72.7997 114.03C76.0997 110.89 79.4597 107.75 84.2797 108.1C88.6997 108.42 84.9697 125.71 84.8897 126.05" stroke="black" stroke-width="0.4" stroke-linecap="round" stroke-linejoin="round"/>
<path d="M72.8003 114.02C72.8003 114.02 56.2003 109.39 52.1903 110.97C48.1903 112.56 40.2703 128.11 40.3403 145.1" stroke="black" stroke-width="0.4" stroke-linecap="round" stroke-linejoin="round"/>
<path d="M36.2695 154.55C37.0595 155.03 38.5595 155.78 41.2995 156.73" stroke="black" stroke-width="0.4" stroke-linecap="round" stroke-linejoin="round"/>
<path d="M35.4502 153.94C35.4502 153.94 35.6302 154.15 36.2702 154.54" stroke="black" stroke-width="0.4" stroke-linecap="round" stroke-linejoin="round"/>
<path d="M73.4797 116.49C73.4797 116.49 70.5397 120.26 68.0497 121.17C67.8697 121.23 67.6997 121.29 67.5197 121.35C64.3697 122.42 62.5997 124.11 61.0497 127.05C59.6997 129.61 58.0997 134.03 56.5697 139.17C55.0497 144.33 51.8897 157.58 55.3297 158.31C59.0697 159.11 69.0597 144.06 73.4797 116.49Z" stroke="black" stroke-width="0.4" stroke-linecap="round" stroke-linejoin="round"/>
<path d="M73.4805 116.48V116.49" stroke="black" stroke-width="0.4" stroke-linecap="round" stroke-linejoin="round"/>
<path d="M115.64 149.14C112.98 150.22 107.54 153.27 107.54 153.27C107.54 153.27 112.69 146.99 115.24 146.82C117.79 146.65 120.95 148.29 120.95 148.29C120.95 148.29 118.3 148.06 115.64 149.14Z" stroke="black" stroke-width="0.4" stroke-linecap="round" stroke-linejoin="round"/>
<path d="M91.5103 159.13C92.9503 158.55 100.05 157 100.05 157C100.05 157 91.7003 156.13 90.1503 157.34C88.6103 158.55 88.9103 161.57 88.9103 161.57C88.9103 161.57 90.0803 159.72 91.5103 159.13Z" stroke="black" stroke-width="0.4" stroke-linecap="round" stroke-linejoin="round"/>
<path d="M111.53 157.41C111.53 157.41 111.94 155.9 113.6 154.69C114.3 154.17 115.24 153.7 116.48 153.43C117.58 153.19 118.93 153.1 120.56 153.27" stroke="black" stroke-width="0.4" stroke-linecap="round" stroke-linejoin="round"/>
<path d="M102.33 161.94C102.33 161.94 101.3 161.57 99.91 161.64C99.02 161.69 97.99 161.91 96.98 162.53C96.08 163.08 95.2 163.94 94.46 165.26" stroke="black" stroke-width="0.4" stroke-linecap="round" stroke-linejoin="round"/>
<path d="M113.6 154.69C113.6 154.69 114.26 157.45 115.51 157.11C116.75 156.77 117.22 154.93 116.48 153.43" stroke="black" stroke-width="0.4" stroke-linecap="round" stroke-linejoin="round"/>
<path d="M96.9805 162.54C96.9805 162.54 97.8805 164.96 99.2305 164.62C100.59 164.28 99.9105 161.64 99.9105 161.64" stroke="black" stroke-width="0.4" stroke-linecap="round" stroke-linejoin="round"/>
<path d="M104.82 159.9C104.82 159.9 106.71 168.66 106.78 170.32C106.86 171.98 110.55 171.49 111.53 171.11" stroke="black" stroke-width="0.4" stroke-linecap="round" stroke-linejoin="round"/>
<path d="M116.58 179.96C121.34 177.64 121.83 172.88 121.83 172.88C112.87 178.6 107.86 179.22 107.86 179.22C107.86 179.22 111.82 182.28 116.58 179.96Z" stroke="black" stroke-width="0.4" stroke-linecap="round" stroke-linejoin="round"/>
<path d="M36.27 154.54V154.55L35.71 156.73" stroke="black" stroke-width="0.4" stroke-linecap="round" stroke-linejoin="round"/>
<path d="M34.0898 156.73C34.0898 156.73 38.0798 157.22 39.5498 160.2" stroke="black" stroke-width="0.4" stroke-linecap="round" stroke-linejoin="round"/>
<path d="M29.1497 184.88C28.8297 184.76 28.5097 184.64 28.1797 184.51L30.2597 179.19C30.2597 179.19 30.6297 179.34 31.2997 179.56C33.4697 180.31 38.7597 181.97 44.1597 182.38C44.4897 182.4 44.8097 182.42 45.1397 182.44L44.0397 187.38C44.0397 187.38 43.6397 187.42 42.9097 187.42C40.7197 187.46 35.5297 187.23 29.1497 184.88Z" stroke="black" stroke-width="0.4" stroke-linecap="round" stroke-linejoin="round"/>
<path d="M28.6195 186.13C28.6195 186.13 27.3495 186.54 25.9895 184.88C25.9895 184.88 25.3995 180.45 28.9695 176.85C28.9695 176.85 30.8295 177.02 31.8795 178.05" stroke="black" stroke-width="0.4" stroke-linecap="round" stroke-linejoin="round"/>
<path d="M154.83 229.51L155.4 203.25C155.43 202.21 156.31 201.37 157.35 201.39L172.55 201.74" stroke="black" stroke-width="0.4" stroke-linecap="round" stroke-linejoin="round"/>
<path d="M154.4 249.04L154.32 252.48L154.19 258.65L153.89 271.97C153.86 273 154.69 273.88 155.74 273.91L179.73 274.45L197.62 274.87L208.4 275.12C209.45 275.14 210.31 274.3 210.34 273.25L210.72 256.99L210.81 253.22" stroke="black" stroke-width="0.4" stroke-linecap="round" stroke-linejoin="round"/>
<path d="M195 202.27L206.71 202.54L210.06 202.61C211.11 202.63 211.94 203.5 211.91 204.55L211.81 208.66L211.51 221.73" stroke="black" stroke-width="0.4" stroke-linecap="round" stroke-linejoin="round"/>
<path d="M194.92 205.18L209.27 205.51H209.28H209.31V205.55L208.91 222.23" stroke="black" stroke-width="0.4" stroke-linecap="round" stroke-linejoin="round"/>
<path d="M157.45 230.36L158.05 204.34L172.29 204.66" stroke="black" stroke-width="0.4" stroke-linecap="round" stroke-linejoin="round"/>
<path d="M157.02 248.78L156.8 258.32L156.51 271L179.04 271.52L196.43 271.92L207.77 272.18L208.11 257.53L208.21 253.31" stroke="black" stroke-width="0.4" stroke-linecap="round" stroke-linejoin="round"/>
<path d="M187.08 198.89L194.95 199.07L194.87 202.26V202.27L194.81 205.18L194.74 208.01L172.47 207.5L172.54 204.67L172.61 201.75V201.74L172.68 198.56L180.55 198.74" stroke="black" stroke-width="0.4" stroke-linecap="round" stroke-linejoin="round"/>
<path d="M180.55 198.67C179.79 197.84 179.33 196.74 179.36 195.53C179.41 193.05 181.49 191.09 183.99 191.15C186.49 191.21 188.47 193.26 188.42 195.74C188.39 196.95 187.88 198.03 187.08 198.82" stroke="black" stroke-width="0.4" stroke-miterlimit="10" stroke-linecap="round"/>
<path d="M185.59 195.72C185.56 196.65 184.79 197.4 183.85 197.37C182.91 197.35 182.17 196.57 182.19 195.64C182.21 194.7 182.99 193.96 183.92 193.98C184.86 194 185.61 194.78 185.59 195.72Z" stroke="black" stroke-width="0.4" stroke-linecap="round" stroke-linejoin="round"/>
<path d="M180.29 233.76C180.36 233.54 181.38 230.15 182.83 230C184.33 229.85 185.52 230.61 185.52 230.61C185.52 230.61 197.5 224.66 208.91 222.23C209.79 222.04 210.66 221.87 211.52 221.73C215.6 221.06 219.47 220.95 222.55 221.84" stroke="black" stroke-width="0.4" stroke-linecap="round" stroke-linejoin="round"/>
<path d="M153.95 249.48L154.4 249.04L155.36 248.09C155.36 248.09 155.99 248.4 157.02 248.78C158.83 249.45 161.85 250.35 164.77 250.22C169.7 250 170.96 248.7 170.96 248.7" stroke="black" stroke-width="0.4" stroke-linecap="round" stroke-linejoin="round"/>
<path d="M149.17 239.2C149.17 239.2 148.05 238.69 147.82 237.47C147.52 235.83 149.92 233 151.23 232.38C152.05 232 153.08 231.75 154.78 231.89C155.52 231.95 156.38 232.09 157.41 232.32C157.82 232.41 158.26 232.52 158.72 232.64" stroke="black" stroke-width="0.4" stroke-linecap="round" stroke-linejoin="round"/>
<path d="M153.35 235.36C153.35 235.36 150.67 237.41 149.22 239.24C148.76 239.82 148.43 240.38 148.34 240.84C147.97 242.78 149.09 243.59 149.09 243.59" stroke="black" stroke-width="0.4" stroke-linecap="round" stroke-linejoin="round"/>
<path d="M154.2 239.43C154.2 239.43 150.38 242.41 149.36 243.84C149.21 244.04 149.12 244.21 149.11 244.34C149.01 245.36 149.31 246.34 149.85 247.11" stroke="black" stroke-width="0.4" stroke-linecap="round" stroke-linejoin="round"/>
<path d="M154.86 243.38C154.86 243.38 151.28 245.71 150.16 247.28C149.94 247.58 149.82 247.86 149.83 248.08C149.91 249.46 150.17 251.41 154.2 252.48" stroke="black" stroke-width="0.4" stroke-linecap="round" stroke-linejoin="round"/>
<path d="M170.21 234.72H170.2C166.05 234.13 164.58 233.42 164.58 233.42C164.58 233.42 161.13 232.3 157.45 230.36C157.05 230.15 156.66 229.93 156.26 229.7C155.8 229.44 155.31 229.4 154.83 229.51C153 229.91 151.23 232.38 151.23 232.38" stroke="black" stroke-width="0.4" stroke-linecap="round" stroke-linejoin="round"/>
<path d="M122.54 211.02C122.54 211.02 125.64 220.66 128.34 223.99C131.04 227.33 130.14 254.47 135.31 270.47C140.47 286.47 147.13 295.75 146.01 298.9C144.89 302.04 144.22 303.23 144.68 305.99C145.04 308.13 146.48 309.29 149.95 311.8C152.86 313.91 149.15 319.7 153.12 321.61H153.13" stroke="black" stroke-width="0.4" stroke-linecap="round" stroke-linejoin="round"/>
</g>
</g>
<rect x="7" y="7" width="224" height="336" rx="10" stroke="#BF2202" stroke-width="4"/>
</g>
<defs>
<filter id="filter0_d_399_3289" x="0" y="0" width="244" height="356" filterUnits="userSpaceOnUse" color-interpolation-filters="sRGB">
<feFlood flood-opacity="0" result="BackgroundImageFix"/>
<feColorMatrix in="SourceAlpha" type="matrix" values="0 0 0 0 0 0 0 0 0 0 0 0 0 0 0 0 0 0 127 0" result="hardAlpha"/>
<feOffset dx="3" dy="3"/>
<feGaussianBlur stdDeviation="4"/>
<feComposite in2="hardAlpha" operator="out"/>
<feColorMatrix type="matrix" values="0 0 0 0 0 0 0 0 0 0 0 0 0 0 0 0 0 0 0.2 0"/>
<feBlend mode="normal" in2="BackgroundImageFix" result="effect1_dropShadow_399_3289"/>
<feBlend mode="normal" in="SourceGraphic" in2="effect1_dropShadow_399_3289" result="shape"/>
</filter>
<clipPath id="clip0_399_3289">
<rect x="5" y="5" width="228" height="340" rx="12" fill="white"/>
</clipPath>
<clipPath id="clip1_399_3289">
<rect width="228" height="340" fill="white" transform="translate(5 5)"/>
</clipPath>
</defs>
</svg>
