<svg width="304" height="428" viewBox="0 0 304 428" fill="none" xmlns="http://www.w3.org/2000/svg">
<g filter="url(#filter0_d_523_3280)">
<rect x="11" y="11" width="276" height="400" rx="6" fill="white" shape-rendering="crispEdges"/>
<rect x="8" y="8" width="282" height="406" rx="9" stroke="#BF2202" stroke-width="6" shape-rendering="crispEdges"/>
<g clip-path="url(#clip0_523_3280)">
<path d="M221.856 87.0381C221.549 87.2194 221.242 87.2585 220.937 87.1556C220.653 87.0584 220.421 86.8558 220.24 86.5477C220.081 86.2453 220.006 85.941 220.014 85.6345C220.056 85.2893 220.206 85.0315 220.464 84.8609C221.551 84.051 222.666 83.5451 223.809 83.3432C224.902 83.152 226.115 83.2294 227.449 83.5753C228.36 83.8116 229.297 84.3157 230.259 85.0875C230.806 85.5381 231.582 86.2972 232.586 87.3647C233.381 88.2354 233.982 88.8425 234.392 89.186C235.049 89.7602 235.667 90.1222 236.245 90.2721C237.223 90.5257 238.113 90.6142 238.915 90.5375C239.812 90.4617 240.65 90.2042 241.428 89.765C241.663 89.5887 241.939 89.5771 242.255 89.7303C242.526 89.872 242.753 90.0969 242.934 90.405C243.132 90.7411 243.209 91.0817 243.167 91.4269C243.12 91.7943 242.925 92.088 242.583 92.308C241.492 92.9506 240.32 93.3111 239.066 93.3895C238.024 93.4753 236.881 93.3567 235.636 93.0339C234.659 92.7802 233.672 92.2395 232.677 91.4116C232.085 90.9495 231.268 90.1678 230.225 89.0665C229.43 88.1958 228.837 87.6027 228.444 87.2872C227.825 86.7468 227.249 86.4075 226.716 86.2691C225.782 86.027 224.92 85.9694 224.128 86.0963C223.381 86.2348 222.623 86.5487 221.856 87.0381Z" fill="#410A0A"/>
<path d="M209.988 70.3585C210.071 69.8576 209.911 69.2822 209.51 68.6323C209.236 68.2286 208.649 67.5186 207.75 66.5021L207.618 66.3254C207.397 66.0783 207.304 65.8406 207.34 65.6124C207.359 65.3562 207.494 65.154 207.746 65.0056C207.998 64.8573 208.302 64.7819 208.658 64.7794C209.087 64.772 209.523 64.8733 209.967 65.0833C210.56 65.4507 211.188 65.9103 211.851 66.4622C212.581 67.0314 213.136 67.5434 213.517 67.9981C213.952 68.5146 214.199 68.982 214.256 69.4005C214.288 69.646 214.229 69.9632 214.081 70.352L213.986 70.719L210.875 82.8724C211.252 82.9704 211.619 83.0181 211.976 83.0156C212.171 82.995 212.455 82.9501 212.829 82.8809C213.203 82.8116 213.484 82.7778 213.673 82.7795C214.03 82.777 214.399 82.861 214.782 83.0315C215.632 83.323 216.221 83.7489 216.55 84.309C216.973 84.9648 216.903 85.6469 216.34 86.3554C216.043 86.6816 215.666 86.8093 215.21 86.7385C214.931 86.7138 214.407 86.5421 213.635 86.2234C213.014 85.9672 212.517 85.779 212.145 85.6588C211.496 85.4191 210.862 85.2548 210.245 85.1659C209.826 86.6001 209.295 87.7799 208.653 88.705C208.297 89.2537 207.814 89.7929 207.202 90.3227L207 90.555C205.866 91.5428 205.265 91.8971 205.195 91.6179C205.146 91.4391 205.317 90.9613 205.708 90.1844L205.742 90.1931C205.934 89.8157 206.077 89.4018 206.17 88.9511C206.223 88.6562 206.277 88.1718 206.333 87.4979C206.399 86.9691 206.45 86.5432 206.486 86.2202C206.557 85.6691 206.648 85.1349 206.758 84.6175C205.074 84.3466 202.636 84.1417 199.447 84.0027C197.132 83.8768 194.838 83.8041 192.567 83.7845L191.547 83.876C190.777 84.0087 190.251 83.9791 189.969 83.7872C189.52 83.5047 189.176 82.7744 188.935 81.5964C188.942 80.8385 189.039 80.282 189.225 79.9269C189.355 79.6995 189.591 79.4759 189.933 79.2559C190.33 79.0029 190.614 78.7323 190.783 78.444C191.127 77.9398 191.379 77.1979 191.538 76.2184L191.214 75.9565C190.639 75.5224 190.221 75.1649 189.962 74.884C189.466 74.3279 189.28 73.8526 189.406 73.458C189.392 73.1458 189.633 72.9472 190.13 72.8624C190.638 72.733 191.32 72.7556 192.176 72.9302C193.087 73.1665 194.154 73.3485 195.378 73.4761C196.513 73.5806 197.763 73.6555 199.126 73.7007C199.168 73.3555 199.217 72.846 199.273 72.1721C199.3 71.7042 199.347 71.0637 199.415 70.2506C198.653 70.1716 197.932 70.1626 197.252 70.2236C196.89 70.2483 196.424 70.3056 195.856 70.3955C195.209 70.5125 194.727 70.5418 194.41 70.4833C193.954 70.4125 193.413 70.1654 192.788 69.742C192.135 69.2404 191.644 68.7568 191.313 68.2914C191.016 67.882 190.875 67.513 190.889 67.1843C190.919 66.8836 191.06 66.6591 191.312 66.5108C191.58 66.3905 191.926 66.3851 192.348 66.4946L193.239 66.7615C194.561 67.1518 195.525 67.4137 196.131 67.5471C197.148 67.7398 198.128 67.804 199.069 67.7397L199.898 67.5629C200.484 67.4064 200.94 67.3824 201.268 67.4911C201.796 67.6517 202.346 68.1386 202.918 68.9516C203.407 69.7194 203.63 70.3232 203.587 70.7631C203.568 71.0193 203.39 71.341 203.052 71.7282C202.923 71.8609 202.825 71.9659 202.757 72.0433C202.65 72.1817 202.566 72.3259 202.503 72.4759L201.276 74.3295C201.955 75.0041 202.161 75.6747 201.893 76.3412C201.598 77.0241 200.875 77.2993 199.723 77.1668L199.314 77.0964C198.263 76.9424 197.407 76.8152 196.745 76.7147C195.549 76.5707 194.631 76.4987 193.991 76.4987C194.005 76.8109 193.857 77.4255 193.549 78.3424C193.286 79.0814 192.988 79.8228 192.653 80.5667C194.501 80.6663 196.729 80.8053 199.339 80.9839C202.94 81.2769 205.577 81.5337 207.251 81.7543L209.988 70.3585ZM195.931 86.8648C196.82 87.0954 197.579 87.5534 198.208 88.2388C198.831 88.9464 199.125 89.6873 199.091 90.4617C199.083 90.6734 199.031 90.921 198.934 91.2044C198.888 91.3823 198.802 91.6212 198.677 91.9211C198.449 92.5266 198.337 92.9604 198.34 93.2223C198.32 93.668 198.542 94.0461 199.007 94.3566C199.857 94.5535 200.717 94.6696 201.585 94.7049C202.119 94.7485 202.851 94.7604 203.781 94.7406L205.56 94.7392C206.279 94.712 206.834 94.9034 207.226 95.3137C207.596 95.7181 207.697 96.1955 207.531 96.7458C207.329 97.5243 206.493 98.0076 205.021 98.1955C203.739 98.3851 202.331 98.3283 200.796 98.0253C199.84 97.8721 199.129 97.6403 198.664 97.3298C198.011 96.9229 197.349 96.1815 196.679 95.1057C196.515 94.7308 196.393 94.3787 196.312 94.0492C196.247 93.8424 196.188 93.566 196.135 93.22C196.04 92.673 195.932 92.2179 195.813 91.8546C195.612 91.2565 195.276 90.5403 194.804 89.7058C194.14 88.6077 193.818 87.8359 193.838 87.3902C193.877 86.783 194.508 86.5906 195.731 86.813L195.931 86.8648Z" fill="#410A0A"/>
<path d="M157.758 62.9693L157.064 63.0386C156.663 63.1243 156.345 63.1132 156.112 63.0053C155.707 62.829 155.152 62.3644 154.445 61.6115C153.989 60.9946 153.854 60.5085 154.04 60.1534C154.221 59.8206 154.587 59.69 155.138 59.7616C156.41 60.068 157.478 60.2026 158.342 60.1655C158.843 60.1531 159.415 60.0521 160.057 59.8626C160.313 59.7868 160.506 59.7299 160.634 59.692C160.857 59.6549 161.075 59.6401 161.286 59.6475C161.854 59.6524 162.397 59.9357 162.916 60.4975C163.39 61.0478 163.609 61.5317 163.572 61.9494C164.884 62.1948 165.946 62.3043 166.76 62.2779C167.216 62.2539 167.716 62.1579 168.257 61.9898C168.542 61.8975 168.771 61.8382 168.944 61.8118C169.195 61.7583 169.479 61.7607 169.795 61.8192C170.656 62.0663 171.296 62.4814 171.714 63.0646C172.11 63.6421 172.15 64.1747 171.834 64.6624C171.631 64.9894 171.426 65.1855 171.219 65.2506C171.041 65.2992 170.651 65.2931 170.05 65.2322L168.322 65.1755C169.213 66.4037 169.64 67.274 169.602 67.7864C169.582 68.1373 169.219 68.5773 168.513 69.1062C168.194 69.3319 167.956 69.5194 167.798 69.6685C167.496 69.9222 167.215 70.1818 166.956 70.447C167.199 70.6999 167.489 70.9532 167.827 71.2069C168.048 71.3593 168.342 71.5541 168.707 71.7914C169.438 72.2658 169.889 72.6319 170.059 72.8898C170.367 73.3494 170.379 73.9459 170.094 74.6791C169.701 75.6454 169.121 76.1476 168.352 76.1855C167.639 76.1905 167.157 75.8993 166.906 75.312L166.063 73.3485L165.343 71.5951C164.182 72.5047 162.747 73.3311 161.037 74.0743C159.058 74.9378 157.39 75.3358 156.032 75.2684C155.425 75.2297 154.928 75.1362 154.539 74.988C154.217 74.857 154.026 74.7244 153.966 74.5901C153.934 74.4394 154.052 74.3512 154.319 74.3257C154.637 74.2894 155.068 74.3656 155.612 74.5542C156.112 74.6365 156.973 74.29 158.193 73.5147C159.28 72.7996 160.482 71.8653 161.801 70.7119C163.075 69.5469 164.128 68.4553 164.961 67.437C165.861 66.3413 166.286 65.5731 166.234 65.1324L165.507 65.193C164.96 65.2886 164.557 65.2433 164.297 65.0571C163.876 64.7581 163.359 64.0069 162.746 62.8033L160.231 62.8987C160.89 63.9243 161.215 64.6377 161.206 65.0388C161.182 65.3173 160.886 65.6798 160.32 66.1263L159.537 66.8134C159.709 66.9765 159.897 67.1203 160.102 67.2447C160.24 67.3517 160.423 67.4703 160.65 67.6005C161.066 67.827 161.337 68.016 161.463 68.1676C161.706 68.4205 161.862 68.7813 161.93 69.25C161.982 69.6908 161.873 70.1134 161.602 70.5179C161.365 70.8837 161.034 71.1539 160.609 71.3286C160.179 71.5255 159.789 71.5667 159.439 71.4523C159.045 71.3262 158.785 71.0454 158.661 70.6096L158.484 69.7804C158.382 69.3504 158.302 69.0209 158.242 68.7919C158.151 68.4121 158.059 68.0797 157.967 67.7947C156.875 68.5321 155.651 69.0928 154.294 69.4768C152.972 69.8221 151.787 69.9539 150.741 69.8725C149.952 69.7152 149.586 69.5253 149.643 69.3029C149.723 69.0862 150.083 69.0252 150.722 69.1199C151.066 69.2567 151.647 69.075 152.464 68.5749C153.192 68.1464 154.002 67.5376 154.894 66.7483C155.708 65.9862 156.394 65.2621 156.951 64.5758C157.542 63.8508 157.824 63.3544 157.799 63.0867L157.758 62.9693ZM175.835 61.7124C175.957 61.1506 175.832 60.4417 175.461 59.5858C175.204 59.0207 174.845 58.3934 174.383 57.7039C173.86 56.9749 173.642 56.491 173.727 56.2521C173.824 55.9687 174.301 55.9143 175.157 56.0888C175.68 56.1769 176.259 56.4578 176.895 56.9314C177.609 57.4726 178.418 58.2877 179.322 59.3767C179.73 59.8149 179.949 60.2042 179.98 60.5444C179.994 60.7619 179.914 61.0733 179.738 61.4786L179.455 62.2954L176.025 75.5411C176.358 75.6276 176.681 75.6638 176.993 75.6498C177.16 75.6457 177.4 75.5892 177.713 75.4804C178.12 75.3725 178.444 75.314 178.683 75.3049C179.118 75.2752 179.615 75.3687 180.176 75.5853C180.986 75.9378 181.528 76.3633 181.802 76.8616C182.093 77.388 182.06 77.9729 181.703 78.6163C181.404 79.1321 181.04 79.3936 180.611 79.4011C180.327 79.3986 179.758 79.2154 178.903 78.8513C178.304 78.601 177.81 78.4016 177.422 78.2534C176.794 78.0195 176.156 77.83 175.506 77.6851C174.711 80.7546 173.837 83.2578 172.885 85.1947C172.239 86.4988 171.494 87.6822 170.649 88.745C169.935 89.5804 169.492 89.9639 169.32 89.8955C169.131 89.7992 169.305 89.3102 169.842 88.4287C170.023 88.0959 170.172 87.6597 170.288 87.1201C170.357 86.7584 170.444 86.1043 170.547 85.1578C170.738 83.5934 170.923 82.2407 171.099 81.0997C171.451 79.1019 171.92 76.9687 172.508 74.6999L175.835 61.7124Z" fill="#410A0A"/>
<path d="M261.752 265.976L262.104 250.6L262.222 245.765C262.257 244.529 261.281 243.506 260.047 243.482L256.11 243.4L242.345 243.082H242.192L242.286 239.318L233.036 239.106V239.024C233.976 238.094 234.575 236.824 234.611 235.4C234.67 232.482 232.342 230.071 229.404 230C226.465 229.929 224.02 232.235 223.961 235.153C223.926 236.576 224.467 237.871 225.36 238.847V238.929L216.109 238.718L216.027 242.459H215.957L198.09 242.047C196.867 242.024 195.833 243.012 195.798 244.235L195.128 275.129C192.977 275.6 190.896 278.506 190.896 278.506C189.356 279.235 186.535 282.565 186.888 284.494C187.158 285.929 188.475 286.529 188.475 286.529L188.534 286.576C187.993 287.259 187.605 287.918 187.499 288.459C187.064 290.741 188.381 291.694 188.381 291.694L188.698 291.988C188.522 292.224 188.416 292.424 188.404 292.576C188.287 293.776 188.639 294.929 189.274 295.835L189.638 296.035C189.38 296.388 189.239 296.718 189.251 296.976C189.345 298.6 189.65 300.894 194.387 302.153H194.528L194.375 309.412L194.023 325.082C193.988 326.294 194.963 327.329 196.197 327.365L224.396 328L245.425 328.494C249.28 338.518 250.256 345.353 249.938 349.4C249.821 350.965 249.515 352.106 249.104 352.859C248.422 354.094 247.776 354.741 246.248 355.718H246.236C243.297 357.6 237.103 360.706 221.07 371.518C210.55 378.612 202.662 382.518 196.35 384.424L195.386 382.835C195.386 382.835 194.517 383.141 193.13 383.482H193.118C188.451 381.235 192.812 374.424 189.392 371.941C185.313 368.988 183.62 367.624 183.197 365.106C182.656 361.859 183.444 360.459 184.76 356.765C186.077 353.059 178.248 342.141 172.183 323.318C166.106 304.494 167.164 272.565 163.99 268.635C160.817 264.718 157.173 253.376 157.173 253.376C157.69 252.671 158.195 251.847 158.666 250.894C158.666 250.894 161.922 250.847 163.673 249.753C168.575 252.6 174.605 252.365 174.605 252.365C175.521 248.106 174.898 244.671 173.911 242.153L174.252 242.047C183.667 233.918 181.516 213.129 181.516 213.129H181.528C181.528 213.129 188.628 213.929 192.354 215.035C196.068 216.129 205.307 216.059 209.386 216.941C220.788 211.988 239.677 222.906 251.584 231.212C256.78 234.835 261.634 238.941 266.018 243.518C272.73 250.506 288.704 258.953 294.382 262.694C304.784 269.541 302.833 285.965 302.669 289.565C302.21 299.141 300.341 306.918 274.999 304.647C270.497 304.235 266.348 302.8 260.929 303.024C259.894 303.059 258.872 303.094 257.873 303.129C253.183 303.294 248.857 303.412 245.801 303.529C238.654 303.8 231.425 300.718 229.086 300.188C229.086 300.188 229.063 300.2 229.004 300.224L228.933 300.035C224.843 292.482 225.043 280.624 225.054 280.129C225.137 279.871 226.336 275.882 228.04 275.706C229.803 275.529 231.202 276.424 231.202 276.424C231.202 276.424 245.284 269.424 258.695 266.565C259.73 266.341 260.753 266.141 261.763 265.976H261.752Z" fill="white"/>
<path d="M273.811 377.906C277.443 396.388 271.507 416.741 271.507 416.741C198.783 445.294 179.553 416.741 179.553 416.741C179.47 414 179.47 413.27 179.553 411.67C179.647 410.07 175.921 405.447 174.769 400.47C173.605 395.494 177.131 387.4 177.131 387.4C177.508 388.729 177.978 390.047 178.471 390.565C179.6 391.765 184.925 393.294 190.085 393.8L191.413 396C191.413 396 198.607 396.294 202.462 394.435L201.522 392.894C201.522 392.894 217.343 390.023 246.224 355.729H246.235C247.763 354.741 248.41 354.094 249.092 352.859C249.503 352.106 249.809 350.965 249.926 349.4C249.926 349.4 270.156 359.435 273.799 377.906H273.811Z" fill="#232322"/>
<path d="M260.048 243.483C261.282 243.506 262.257 244.53 262.222 245.765L262.105 250.6L261.752 265.977C260.741 266.141 259.718 266.341 258.684 266.565L259.154 246.941V246.894H259.107L242.24 246.506H242.11L242.181 243.083H242.334L256.098 243.4L260.036 243.483H260.048Z" fill="#8C725B"/>
<path d="M260.917 303.024L260.811 307.459L260.364 326.588C260.329 327.824 259.318 328.812 258.084 328.788L245.413 328.494L224.384 328L196.185 327.365C194.951 327.329 193.975 326.294 194.011 325.082L194.363 309.412L194.516 302.153L194.61 298.106L195.739 296.988C195.739 296.988 196.479 297.353 197.69 297.8L197.431 309.024L197.09 323.941L223.573 324.553L244.014 325.024L257.343 325.329L257.743 308.094L257.861 303.129C258.86 303.094 259.882 303.059 260.917 303.024Z" fill="#8C725B"/>
<path d="M259.154 246.894V246.941L258.683 266.565C245.272 269.423 231.19 276.423 231.19 276.423C231.19 276.423 229.791 275.529 228.028 275.706C226.324 275.882 225.125 279.871 225.042 280.118L213.746 279.882C213.523 280.306 213.335 280.765 213.182 281.259C208.304 280.565 206.576 279.729 206.576 279.729C206.576 279.729 202.521 278.412 198.195 276.129L198.901 245.518L215.639 245.894H215.933L215.85 249.235L242.027 249.835L242.11 246.506H242.239L259.107 246.894H259.154Z" fill="white"/>
<path d="M257.861 303.13L257.743 308.094L257.344 325.33L244.014 325.024L223.573 324.553L197.091 323.941L197.432 309.024L197.69 297.8C199.818 298.588 203.368 299.647 206.8 299.494C212.595 299.235 214.076 297.706 214.076 297.706C214.429 299.188 214.699 300.118 214.699 300.118C217.896 300.024 225.736 301.4 227.887 300.624C228.44 300.435 228.828 300.283 228.992 300.224C229.051 300.2 229.075 300.188 229.075 300.188C231.414 300.718 238.643 303.8 245.789 303.53C248.845 303.412 253.171 303.294 257.861 303.13Z" fill="white"/>
<path d="M242.274 239.318L242.18 243.071L242.11 246.506L242.028 249.835L215.851 249.235L215.933 245.906L216.015 242.471L216.097 238.718L225.348 238.93V238.847C224.455 237.871 223.914 236.577 223.949 235.153C224.008 232.235 226.453 229.93 229.392 230C232.33 230.071 234.658 232.482 234.599 235.4C234.564 236.824 233.964 238.094 233.024 239.024V239.106L242.274 239.318ZM231.272 235.377C231.296 234.271 230.414 233.353 229.309 233.33C228.216 233.306 227.299 234.177 227.276 235.282C227.252 236.377 228.122 237.294 229.227 237.318C230.332 237.353 231.237 236.471 231.272 235.377Z" fill="#CCCCCC"/>
<path d="M213.182 281.259C213.335 280.765 213.523 280.306 213.746 279.882L225.042 280.118C225.03 280.623 224.831 292.482 228.921 300.035L228.992 300.223C228.827 300.282 228.439 300.435 227.887 300.623C225.736 301.4 217.896 300.023 214.698 300.118C214.698 300.118 214.428 299.188 214.075 297.706C213.159 293.788 211.689 286.012 213.182 281.259Z" fill="white"/>
<path d="M216.016 242.459L215.933 245.906H215.639L198.901 245.518L198.196 276.13C197.726 275.883 197.267 275.624 196.797 275.353C196.256 275.047 195.68 275 195.116 275.13L195.786 244.236C195.821 243.012 196.856 242.024 198.078 242.047L215.945 242.459H216.016Z" fill="#8C725B"/>
<path d="M188.522 286.577L188.463 286.53C188.463 286.53 187.146 285.93 186.876 284.494C186.523 282.565 189.344 279.235 190.884 278.506C190.884 278.506 192.965 275.6 195.116 275.13C195.68 275 196.256 275.047 196.797 275.353C197.267 275.624 197.725 275.883 198.195 276.13C202.521 278.412 206.576 279.73 206.576 279.73C206.576 279.73 208.304 280.565 213.182 281.259C211.689 286.012 213.159 293.788 214.076 297.706C214.076 297.706 212.594 299.235 206.8 299.494C203.367 299.647 199.817 298.588 197.69 297.8C196.479 297.353 195.739 296.988 195.739 296.988L194.61 298.106L194.516 302.153H194.375C189.638 300.894 189.333 298.6 189.239 296.977C189.227 296.718 189.368 296.388 189.626 296.035L189.262 295.835C188.627 294.93 188.275 293.777 188.392 292.577C188.404 292.424 188.51 292.224 188.686 291.988L188.369 291.694C188.369 291.694 187.052 290.741 187.487 288.459C187.593 287.918 187.981 287.259 188.522 286.577Z" fill="#FFD9B3"/>
<path d="M201.522 392.894L202.462 394.435C198.607 396.294 191.413 396 191.413 396L190.085 393.8L185.301 385.883L184.396 384.377C187.675 384.6 190.99 383.988 193.105 383.482H193.117C194.504 383.141 195.374 382.835 195.374 382.835L196.338 384.424L201.522 392.894ZM198.936 392.483L194.61 385.412C194.61 385.412 191.248 386.565 187.922 386.341L192.2 393.435C192.2 393.435 196.585 393.612 198.936 392.483Z" fill="#CCCCCC"/>
<path d="M61.6687 263.988C62.5268 262.788 69.0387 260.718 69.0387 260.718C76.4322 251.529 82.2859 253.329 82.2859 253.329C90.4082 244.529 113.435 236.141 113.435 236.141C113.435 236.141 112.706 234.106 114.74 232.671C116.761 231.247 129.503 231.612 129.503 231.612C129.503 231.612 133.923 242.271 144.22 247.953L144.373 247.929C144.76 250.812 146.077 255.659 150.544 257.847C150.544 257.847 154.093 257.6 157.161 253.376C157.161 253.376 160.805 264.718 163.979 268.635C167.153 272.565 166.095 304.494 172.172 323.318C178.237 342.141 186.065 353.059 184.749 356.765C183.432 360.459 182.645 361.859 183.186 365.106C183.609 367.623 185.301 368.988 189.38 371.941C192.801 374.423 188.44 381.235 193.106 383.482C190.99 383.988 187.676 384.6 184.396 384.376L185.301 385.882C181.998 385.671 179.119 384.859 176.297 383.835C176.109 383.776 175.921 383.706 175.733 383.635C166.365 380.2 163.097 363.388 162.427 360.588C161.757 357.788 146.853 328.741 135.404 307.823C123.955 286.906 118.137 286.412 118.137 286.412C106.606 282.694 84.4134 290.329 81.4866 291.035C78.5598 291.753 63.5612 298.235 57.3431 299.388C53.5229 300.106 47.105 300.071 42.7324 299.941C35.2684 299.718 29.2736 293.659 29.2148 286.176V285.8C29.2971 272 34.3633 248.494 34.7159 246.8C35.0685 245.106 37.8896 243.929 37.8896 243.929C37.8896 243.929 39.9466 250.153 61.3396 245.094L61.6217 245.176C60.2347 248.788 62.4327 256.718 61.6687 263.988Z" fill="white"/>
<path d="M181.504 213.129C181.504 213.129 183.655 233.917 174.24 242.047L173.899 242.153C172.665 239 170.866 237.306 170.866 237.306C168.821 237.494 165.659 240.882 163.99 242.847L157.255 240.541C157.619 240.541 165.401 240.27 173.182 217.129C173.511 216.153 172.982 213.341 172.171 210.165C172.171 210.165 177.872 210.823 181.504 213.129Z" fill="white"/>
<path d="M173.899 242.153C174.886 244.67 175.509 248.106 174.592 252.364C174.592 252.364 168.562 252.6 163.661 249.753C163.778 249.67 163.884 249.6 163.978 249.517L162.779 244.235H162.838C162.838 244.235 163.285 243.659 163.99 242.847C165.659 240.882 168.821 237.494 170.866 237.306C170.866 237.306 172.665 239 173.899 242.153Z" fill="#232322"/>
<path d="M150.038 185.624C148.58 185.941 147.475 186.494 146.652 187.106C146.652 187.106 147.428 190.353 148.897 189.953C150.355 189.553 150.907 187.388 150.038 185.624ZM130.561 195.282C129.514 195.341 128.304 195.6 127.117 196.33C127.117 196.33 128.174 199.188 129.761 198.788C131.36 198.388 130.561 195.282 130.561 195.282ZM174.404 185.33C175.204 194.918 173.347 197.141 168.551 198.035C168.551 198.035 170.208 202.988 171.56 207.894L168.104 208.541C168.457 218.153 166.247 224.153 153.458 230.188C147.816 232.859 142.268 230.612 137.601 226.953C136.814 226.353 136.038 225.682 135.298 225.012C131.536 221.53 128.527 217.459 126.74 215.035C126.282 214.388 125.894 213.859 125.6 213.482C122.756 209.847 112.729 191.635 117.878 178.13C123.026 164.635 140.857 165.518 140.857 165.518L144.76 162.094L144.725 166.271C144.725 166.271 162.697 174.447 167.223 193.706C167.223 193.706 167.223 184.835 166.423 176.718C166.423 176.718 168.092 176.494 169.914 177.341C171.877 178.235 173.993 180.377 174.404 185.33ZM150.155 216.835C155.75 214.106 156.326 208.506 156.326 208.506C145.794 215.235 139.905 215.965 139.905 215.965C139.905 215.965 144.56 219.565 150.155 216.835ZM149.05 180.577C152.177 179.306 155.292 179.577 155.292 179.577C155.292 179.577 151.577 177.647 148.58 177.847C145.583 178.047 139.529 185.435 139.529 185.435C139.529 185.435 145.924 181.847 149.05 180.577ZM120.687 192.33C122.38 191.647 130.725 189.824 130.725 189.824C130.725 189.824 120.91 188.8 119.088 190.224C117.278 191.647 117.631 195.2 117.631 195.2C117.631 195.2 119.006 193.024 120.687 192.33Z" fill="#FFD9B3"/>
<path d="M172.16 210.165C172.971 213.341 173.5 216.153 173.17 217.129C165.389 240.271 157.608 240.541 157.243 240.541H157.231C145.324 239.6 140.858 232.847 140.858 232.847L137.59 226.965H137.602C142.268 230.612 147.816 232.859 153.458 230.188C166.247 224.153 168.457 218.153 168.104 208.541L171.56 207.894C171.772 208.659 171.971 209.423 172.16 210.165Z" fill="#FFD9B3"/>
<path d="M150.86 151.247C151.142 151.129 155.974 149.224 159.676 153.8C163.496 158.506 169.867 168.894 169.914 177.329C168.092 176.494 166.423 176.718 166.423 176.718C167.222 184.835 167.222 193.706 167.222 193.706C162.697 174.447 144.725 166.271 144.725 166.271L144.76 162.094L140.857 165.518C140.857 165.518 123.026 164.635 117.878 178.129C112.729 191.635 122.756 209.847 125.6 213.482C125.894 213.859 126.282 214.388 126.74 215.035C121.286 215.035 118.794 212.447 113.035 201.365C108.674 192.965 105.712 180.447 105.712 180.447C105.712 180.447 104.172 180.282 102.526 179.459C99.2468 177.812 95.5795 173.494 103.185 162.459C105.524 159.071 108.968 156.035 112.905 153.424C123.308 146.529 137.166 142.624 143.385 143C153.117 143.588 150.966 150.871 150.86 151.247Z" fill="#232322"/>
<path d="M163.979 242.835C163.273 243.659 162.827 244.235 162.827 244.235H162.768L156.867 245.917C156.867 245.917 156.244 245.823 155.28 245.694L157.22 240.541H157.231L163.967 242.835H163.979Z" fill="white"/>
<path d="M162.78 244.235L163.979 249.518C163.885 249.6 163.779 249.671 163.661 249.753C161.91 250.847 158.654 250.894 158.654 250.894L156.879 245.918L162.78 244.235Z" fill="#232322"/>
<path d="M156.879 245.918L158.654 250.894C158.184 251.847 157.679 252.671 157.161 253.376C154.093 257.6 150.544 257.847 150.544 257.847C146.077 255.659 144.76 250.812 144.373 247.929C144.196 246.553 144.22 245.623 144.22 245.623C145.854 244.612 152.272 245.306 155.292 245.694C156.256 245.823 156.879 245.918 156.879 245.918Z" fill="#232322"/>
<path d="M157.232 240.541L155.292 245.694C152.271 245.306 145.853 244.612 144.219 245.623C144.219 245.623 144.196 246.553 144.372 247.929L144.219 247.953C133.923 242.271 129.503 231.612 129.503 231.612C130.925 228.059 135.298 225.012 135.298 225.012C136.038 225.682 136.814 226.353 137.602 226.953H137.59L140.858 232.847C140.858 232.847 145.324 239.6 157.232 240.541Z" fill="white"/>
<path d="M156.326 208.506C156.326 208.506 155.75 214.106 150.155 216.835C144.56 219.565 139.905 215.965 139.905 215.965C139.905 215.965 145.794 215.235 156.326 208.506Z" fill="#9E6363"/>
<path d="M155.292 179.576C155.292 179.576 152.177 179.306 149.05 180.576C145.924 181.847 139.529 185.435 139.529 185.435C139.529 185.435 145.583 178.047 148.58 177.847C151.578 177.647 155.292 179.576 155.292 179.576Z" fill="#232322"/>
<path d="M150.038 185.624C150.907 187.388 150.355 189.553 148.897 189.953C147.428 190.353 146.652 187.106 146.652 187.106C147.475 186.494 148.58 185.941 150.038 185.624Z" fill="#232322"/>
<path d="M130.561 195.282C130.561 195.282 131.361 198.388 129.762 198.788C128.175 199.188 127.117 196.341 127.117 196.341C128.304 195.6 129.515 195.341 130.561 195.282Z" fill="#232322"/>
<path d="M130.726 189.823C130.726 189.823 122.38 191.647 120.687 192.329C119.006 193.023 117.631 195.2 117.631 195.2C117.631 195.2 117.279 191.647 119.089 190.223C120.911 188.8 130.726 189.823 130.726 189.823Z" fill="#232322"/>
<path d="M99.4943 142.165C99.4943 142.165 96.0385 146.6 93.1116 147.671C92.9001 147.741 92.7002 147.812 92.4887 147.882C88.786 149.141 86.7055 151.13 84.8836 154.588C83.2967 157.6 81.416 162.8 79.6176 168.847C77.8309 174.918 74.1165 190.506 78.1601 191.365C82.5562 192.306 94.2988 174.6 99.4943 142.165ZM112.189 132.294C117.384 132.671 113 153.012 112.906 153.412C108.968 156.035 105.524 159.071 103.185 162.459C95.5801 173.494 99.2474 177.812 102.527 179.459C102.527 179.459 89.5618 211.624 74.3869 213.129C71.5071 213.412 69.2032 212.4 67.393 210.447C62.2564 204.941 61.0457 192 61.939 180.071C62.0213 178.941 62.1153 177.824 62.2329 176.729C62.7736 171.847 63.6316 167.282 64.713 163.659C67.4165 154.529 77.1374 149.624 89.4795 145.8C92.9706 144.718 95.8151 141.988 98.695 139.271C102.574 135.577 106.523 131.882 112.189 132.294Z" fill="#961200"/>
<path d="M98.695 139.259C95.8152 141.988 92.9707 144.718 89.4796 145.8C77.1375 149.624 67.4166 154.53 64.7131 163.659C63.6317 167.283 62.7736 171.847 62.2329 176.73C62.2329 176.73 61.3749 176.353 60.1289 175.836H60.5403C60.458 155.836 69.7675 137.541 74.4693 135.671C79.1828 133.812 98.695 139.259 98.695 139.259Z" fill="#961200"/>
<path d="M93.1111 147.67C96.0379 146.6 99.4937 142.165 99.4937 142.165C94.2983 174.6 82.5556 192.306 78.1595 191.365C74.116 190.506 77.8304 174.917 79.617 168.847C81.4155 162.8 83.2962 157.6 84.883 154.588C86.7049 151.129 88.7855 149.141 92.4881 147.882C92.6997 147.812 92.8995 147.741 93.1111 147.67Z" fill="#410A0A"/>
<path d="M50.5959 214.6C51.5833 212.012 52.3826 209.694 52.5589 208.541C53.0878 205.047 41.2747 194.118 41.7213 190.836C41.9917 188.859 45.471 183.777 48.4331 180.071C48.4331 180.071 48.4331 180.059 48.4449 180.047C50.3961 177.624 52.124 175.788 52.5706 175.824C53.7108 175.918 61.9271 180.071 61.9271 180.071H61.9389C61.0456 192 62.2563 204.941 67.3929 210.447L67.2989 210.53L65.0303 219.683C58.6829 219.2 52.4649 217.247 49.9141 216.377C50.1492 215.765 50.3843 215.177 50.5959 214.6Z" fill="#FFD9B3"/>
<path d="M66.1825 219.753L64.8895 225.564C64.8895 225.564 64.4194 225.612 63.5613 225.612C60.9871 225.659 54.8865 225.388 47.3872 222.623C47.0111 222.482 46.635 222.341 46.2471 222.188L48.692 215.929C48.692 215.929 49.1269 216.106 49.9144 216.364C52.4651 217.247 58.6832 219.2 65.0306 219.682C65.4185 219.706 65.7946 219.729 66.1825 219.753Z" fill="#232322"/>
<path d="M63.5604 225.612L62.6906 229.141C56.3902 230.918 49.3611 229.388 47.7625 228.682C46.1639 227.965 45.8936 226.106 45.8936 226.106C45.8936 226.106 46.2344 225.329 46.7634 224.094C46.9515 223.659 47.163 223.165 47.3864 222.624C54.8857 225.388 60.9862 225.659 63.5604 225.612Z" fill="#FFD9B3"/>
<path d="M62.6912 229.153C62.7382 229.647 63.6668 241.012 61.7861 244.8C61.7273 244.918 61.6686 245.047 61.6215 245.177L61.3394 245.094C39.9465 250.153 37.8894 243.929 37.8894 243.929C37.2194 237.871 45.8942 226.106 45.8942 226.106C45.8942 226.106 46.1645 227.965 47.7631 228.682C49.3617 229.388 56.3908 230.918 62.6912 229.141V229.153Z" fill="white"/>
<path d="M62.2322 176.729C62.1147 177.824 62.0207 178.941 61.9384 180.071H61.9266C61.9266 180.071 53.7103 175.918 52.5701 175.824C52.1235 175.788 50.3956 177.624 48.4443 180.047C48.5384 179.647 50.1957 173.235 51.3947 172.894C52.2645 172.647 57.2249 174.624 60.1282 175.835C61.3742 176.353 62.2322 176.729 62.2322 176.729Z" fill="#FFD9B3"/>
<path d="M50.596 214.588C50.3844 215.176 50.1493 215.764 49.9143 216.364C49.1267 216.106 48.6918 215.929 48.6918 215.929L46.2469 222.188C46.6348 222.341 47.0109 222.482 47.3871 222.623C47.1637 223.165 46.9522 223.659 46.7641 224.094C46.7641 224.094 45.2713 224.576 43.6727 222.623C43.6727 222.623 42.9792 217.412 47.1755 213.176C47.1755 213.176 49.3618 213.376 50.596 214.588Z" fill="#232322"/>
<path d="M157.243 240.541C157.607 240.541 165.389 240.271 173.17 217.13C173.499 216.153 172.97 213.341 172.159 210.165C171.971 209.424 171.771 208.659 171.56 207.894C170.208 202.988 168.551 198.035 168.551 198.035C173.347 197.141 175.204 194.918 174.404 185.33C173.993 180.377 171.877 178.235 169.914 177.341C168.092 176.494 166.423 176.718 166.423 176.718C167.223 184.835 167.223 193.706 167.223 193.706C162.697 174.447 144.725 166.271 144.725 166.271L144.76 162.094L140.857 165.518C140.857 165.518 123.026 164.635 117.878 178.13C112.729 191.635 122.756 209.847 125.6 213.482C125.894 213.859 126.282 214.388 126.74 215.035C128.527 217.459 131.536 221.53 135.298 225.012C136.038 225.682 136.814 226.353 137.601 226.953C142.268 230.612 147.816 232.859 153.458 230.188C166.247 224.153 168.457 218.153 168.104 208.541" stroke="black" stroke-width="0.4" stroke-linecap="round" stroke-linejoin="round"/>
<path d="M137.59 226.965L140.858 232.847C140.858 232.847 145.324 239.6 157.231 240.541" stroke="black" stroke-width="0.4" stroke-linecap="round" stroke-linejoin="round"/>
<path d="M150.849 151.259C151.131 151.129 155.962 149.224 159.664 153.8C163.485 158.506 169.855 168.894 169.903 177.329" stroke="black" stroke-width="0.4" stroke-linecap="round" stroke-linejoin="round"/>
<path d="M112.906 153.412C123.309 146.529 137.167 142.624 143.385 143C153.118 143.588 150.967 150.871 150.861 151.247" stroke="black" stroke-width="0.4" stroke-linecap="round" stroke-linejoin="round"/>
<path d="M126.74 215.035C121.286 215.035 118.794 212.447 113.035 201.365C108.674 192.965 105.712 180.447 105.712 180.447C105.712 180.447 104.172 180.282 102.526 179.459C99.2468 177.812 95.5795 173.494 103.185 162.459C105.524 159.07 108.968 156.035 112.905 153.423" stroke="black" stroke-width="0.4" stroke-linecap="round" stroke-linejoin="round"/>
<path d="M156.879 245.918L158.654 250.894C158.654 250.894 161.91 250.847 163.661 249.753C163.779 249.671 163.885 249.6 163.979 249.518L162.78 244.235L156.879 245.918Z" stroke="black" stroke-width="0.4" stroke-linecap="round" stroke-linejoin="round"/>
<path d="M162.839 244.235C162.839 244.235 163.286 243.659 163.991 242.847C165.66 240.882 168.822 237.494 170.867 237.306C170.867 237.306 172.666 239 173.9 242.153C174.887 244.67 175.51 248.106 174.593 252.364C174.593 252.364 168.563 252.6 163.662 249.753" stroke="black" stroke-width="0.4" stroke-linecap="round" stroke-linejoin="round"/>
<path d="M156.879 245.918C156.879 245.918 156.256 245.823 155.292 245.694C152.272 245.306 145.854 244.612 144.22 245.623C144.22 245.623 144.196 246.553 144.373 247.929C144.76 250.812 146.077 255.659 150.544 257.847C150.544 257.847 154.093 257.6 157.161 253.376C157.679 252.671 158.184 251.847 158.654 250.894" stroke="black" stroke-width="0.4" stroke-linecap="round" stroke-linejoin="round"/>
<path d="M172.172 210.165C172.172 210.165 177.873 210.823 181.505 213.129C181.505 213.129 183.656 233.918 174.241 242.047" stroke="black" stroke-width="0.4" stroke-linecap="round" stroke-linejoin="round"/>
<path d="M155.292 245.694L157.231 240.541H157.243L163.978 242.835" stroke="black" stroke-width="0.4" stroke-linecap="round" stroke-linejoin="round"/>
<path d="M135.298 225.012C135.298 225.012 130.925 228.059 129.503 231.612C129.503 231.612 133.923 242.271 144.219 247.953" stroke="black" stroke-width="0.4" stroke-linecap="round" stroke-linejoin="round"/>
<path d="M129.503 231.612C129.503 231.612 116.761 231.247 114.739 232.671C112.706 234.106 113.434 236.141 113.434 236.141C113.434 236.141 90.4074 244.529 82.2852 253.329C82.2852 253.329 76.4315 251.529 69.038 260.718C69.038 260.718 62.526 262.788 61.668 263.988" stroke="black" stroke-width="0.4" stroke-linecap="round" stroke-linejoin="round"/>
<path d="M246.224 355.729C243.286 357.6 237.091 360.706 221.058 371.518C210.538 378.612 202.651 382.518 196.339 384.424" stroke="black" stroke-width="0.4" stroke-linecap="round" stroke-linejoin="round"/>
<path d="M245.413 328.494C249.269 338.518 250.244 345.353 249.927 349.4C249.809 350.965 249.504 352.106 249.092 352.859C248.41 354.094 247.764 354.741 246.236 355.718" stroke="black" stroke-width="0.4" stroke-linecap="round" stroke-linejoin="round"/>
<path d="M209.375 216.941C205.296 216.059 196.057 216.129 192.342 215.035C188.616 213.929 181.517 213.129 181.517 213.129" stroke="black" stroke-width="0.4" stroke-linecap="round" stroke-linejoin="round"/>
<path d="M225.043 280.117L213.747 279.882C213.523 280.306 213.335 280.765 213.182 281.259C211.69 286.012 213.159 293.788 214.076 297.706C214.428 299.188 214.699 300.117 214.699 300.117C217.896 300.023 225.736 301.4 227.887 300.623C228.44 300.435 228.828 300.282 228.992 300.223C229.051 300.2 229.074 300.188 229.074 300.188C231.413 300.717 238.642 303.8 245.789 303.529C248.845 303.412 253.171 303.294 257.861 303.129C258.86 303.094 259.883 303.059 260.917 303.023C266.336 302.8 270.485 304.235 274.987 304.647C300.329 306.917 302.198 299.141 302.657 289.565C302.821 285.965 304.773 269.541 294.37 262.694C288.693 258.953 272.718 250.506 266.007 243.517C261.622 238.941 256.768 234.835 251.572 231.212C239.665 222.906 220.776 211.988 209.374 216.941" stroke="black" stroke-width="0.4" stroke-linecap="round" stroke-linejoin="round"/>
<path d="M228.922 300.035C224.831 292.482 225.031 280.624 225.043 280.129" stroke="black" stroke-width="0.4" stroke-linecap="round" stroke-linejoin="round"/>
<path d="M62.6913 229.141C56.391 230.918 49.3619 229.388 47.7633 228.682C46.1647 227.965 45.8943 226.106 45.8943 226.106C45.8943 226.106 37.2196 237.871 37.8896 243.929C37.8896 243.929 35.0685 245.106 34.7159 246.8C34.3633 248.494 29.2971 272 29.2148 285.8V286.177C29.2736 293.659 35.2684 299.718 42.7324 299.941C47.105 300.071 53.5229 300.106 57.3431 299.388C63.5612 298.235 78.5598 291.753 81.4866 291.035C84.4134 290.329 106.606 282.694 118.137 286.412C118.137 286.412 123.955 286.906 135.404 307.824C146.853 328.741 161.757 357.788 162.427 360.588C163.097 363.388 166.365 380.2 175.733 383.635C175.921 383.706 176.109 383.777 176.297 383.835C179.119 384.859 181.998 385.671 185.301 385.882" stroke="black" stroke-width="0.4" stroke-linecap="round" stroke-linejoin="round"/>
<path d="M55.5918 279.576C57.6606 277.647 59.8116 272.565 61.1869 266.847C61.4102 265.918 61.563 264.965 61.6688 263.988C62.4328 256.718 60.2348 248.788 61.6218 245.176C61.6688 245.047 61.7276 244.918 61.7864 244.8C63.6671 241.012 62.7385 229.647 62.6914 229.153" stroke="black" stroke-width="0.4" stroke-linecap="round" stroke-linejoin="round"/>
<path d="M37.8896 243.929C37.8896 243.929 39.9467 250.153 61.3397 245.094" stroke="black" stroke-width="0.4" stroke-linecap="round" stroke-linejoin="round"/>
<path d="M193.105 383.482C190.99 383.988 187.675 384.6 184.396 384.377L185.301 385.883L190.085 393.8L191.413 396C191.413 396 198.607 396.294 202.462 394.435L201.522 392.894L196.338 384.424L195.374 382.835C195.374 382.835 194.504 383.141 193.117 383.482" stroke="black" stroke-width="0.4" stroke-linecap="round" stroke-linejoin="round"/>
<path d="M198.936 392.482L194.61 385.412C194.61 385.412 191.248 386.565 187.922 386.341L192.2 393.435C192.2 393.435 196.585 393.612 198.936 392.482Z" stroke="black" stroke-width="0.4" stroke-linecap="round" stroke-linejoin="round"/>
<path d="M176.297 383.835C176.297 383.835 176.638 385.635 177.131 387.4C177.508 388.73 177.978 390.047 178.471 390.565C179.6 391.765 184.925 393.294 190.085 393.8" stroke="black" stroke-width="0.4" stroke-linecap="round" stroke-linejoin="round"/>
<path d="M201.522 392.894C201.522 392.894 217.344 390.024 246.224 355.729H246.236" stroke="black" stroke-width="0.4" stroke-linecap="round" stroke-linejoin="round"/>
<path d="M177.131 387.4C177.131 387.4 173.605 395.494 174.769 400.47C175.921 405.447 179.647 410.07 179.553 411.67C179.47 413.27 179.47 414 179.553 416.741C179.553 416.741 198.783 445.294 271.507 416.741C271.507 416.741 277.443 396.388 273.811 377.906C270.167 359.435 249.938 349.4 249.938 349.4" stroke="black" stroke-width="0.4" stroke-linecap="round" stroke-linejoin="round"/>
<path d="M245.096 393.8C245.096 393.8 220.74 407.341 218.742 416.741" stroke="black" stroke-width="0.4" stroke-linecap="round" stroke-linejoin="round"/>
<path d="M48.4443 180.047C50.3956 177.624 52.1235 175.788 52.5701 175.824C53.7103 175.918 61.9266 180.071 61.9266 180.071" stroke="black" stroke-width="0.4" stroke-linecap="round" stroke-linejoin="round"/>
<path d="M50.5959 214.588C51.5833 212.012 52.3826 209.694 52.5589 208.541C53.0878 205.047 41.2747 194.118 41.7213 190.835C41.9917 188.859 45.471 183.777 48.4331 180.071" stroke="black" stroke-width="0.4" stroke-linecap="round" stroke-linejoin="round"/>
<path d="M49.9141 216.365C50.1492 215.765 50.3842 215.177 50.5958 214.6" stroke="black" stroke-width="0.4" stroke-linecap="round" stroke-linejoin="round"/>
<path d="M47.3864 222.624C47.163 223.165 46.9515 223.659 46.7634 224.094C46.2344 225.329 45.8936 226.106 45.8936 226.106" stroke="black" stroke-width="0.4" stroke-linecap="round" stroke-linejoin="round"/>
<path d="M48.4326 180.071C48.4326 180.071 48.4326 180.059 48.4444 180.047C48.5384 179.647 50.1958 173.235 51.3947 172.894C52.2645 172.647 57.2249 174.624 60.1282 175.835C61.3742 176.353 62.2323 176.729 62.2323 176.729" stroke="black" stroke-width="0.4" stroke-linecap="round" stroke-linejoin="round"/>
<path d="M47.4102 186.129C47.4102 186.129 52.2882 178.718 53.2638 179C54.2395 179.294 61.6682 183.282 61.6682 183.282" stroke="black" stroke-width="0.4" stroke-linecap="round" stroke-linejoin="round"/>
<path d="M63.5604 225.624L62.6906 229.141V229.153L62.6318 229.388" stroke="black" stroke-width="0.4" stroke-linecap="round" stroke-linejoin="round"/>
<path d="M67.2989 210.529L65.0303 219.682" stroke="black" stroke-width="0.4" stroke-linecap="round" stroke-linejoin="round"/>
<path d="M102.527 179.459C102.527 179.459 89.5618 211.624 74.3869 213.129C71.5071 213.412 69.2032 212.4 67.393 210.447C62.2564 204.941 61.0457 192 61.939 180.071C62.0213 178.941 62.1153 177.824 62.2329 176.729C62.7736 171.847 63.6316 167.282 64.713 163.659C67.4165 154.529 77.1374 149.624 89.4795 145.8C92.9706 144.718 95.8151 141.988 98.695 139.271C102.574 135.577 106.523 131.882 112.189 132.294C117.384 132.671 113 153.012 112.906 153.412" stroke="black" stroke-width="0.4" stroke-linecap="round" stroke-linejoin="round"/>
<path d="M98.6943 139.259C98.6943 139.259 79.1821 133.812 74.4685 135.671C69.7668 137.541 60.4573 155.836 60.5396 175.824" stroke="black" stroke-width="0.4" stroke-linecap="round" stroke-linejoin="round"/>
<path d="M55.7559 186.941C56.6845 187.506 58.4476 188.388 61.6683 189.506" stroke="black" stroke-width="0.4" stroke-linecap="round" stroke-linejoin="round"/>
<path d="M54.792 186.224C54.792 186.224 55.0036 186.471 55.7559 186.93" stroke="black" stroke-width="0.4" stroke-linecap="round" stroke-linejoin="round"/>
<path d="M99.4937 142.165C99.4937 142.165 96.0379 146.6 93.1111 147.67C92.8995 147.741 92.6997 147.812 92.4881 147.882C88.7855 149.141 86.7049 151.129 84.883 154.588C83.2962 157.6 81.4155 162.8 79.617 168.847C77.8304 174.917 74.116 190.506 78.1595 191.365C82.5556 192.306 94.2983 174.6 99.4937 142.165Z" stroke="black" stroke-width="0.4" stroke-linecap="round" stroke-linejoin="round"/>
<path d="M99.4941 142.153V142.164" stroke="black" stroke-width="0.4" stroke-linecap="round" stroke-linejoin="round"/>
<path d="M149.05 180.576C145.924 181.847 139.529 185.435 139.529 185.435C139.529 185.435 145.583 178.047 148.58 177.847C151.578 177.647 155.292 179.576 155.292 179.576C155.292 179.576 152.177 179.306 149.05 180.576Z" stroke="black" stroke-width="0.4" stroke-linecap="round" stroke-linejoin="round"/>
<path d="M120.687 192.329C122.38 191.647 130.726 189.823 130.726 189.823C130.726 189.823 120.911 188.8 119.089 190.223C117.279 191.647 117.631 195.2 117.631 195.2C117.631 195.2 119.006 193.023 120.687 192.329Z" stroke="black" stroke-width="0.4" stroke-linecap="round" stroke-linejoin="round"/>
<path d="M144.22 190.306C144.22 190.306 144.702 188.529 146.653 187.106C147.476 186.494 148.581 185.941 150.038 185.623C151.331 185.341 152.918 185.235 154.834 185.435" stroke="black" stroke-width="0.4" stroke-linecap="round" stroke-linejoin="round"/>
<path d="M133.405 195.635C133.405 195.635 132.194 195.2 130.56 195.282C129.514 195.341 128.304 195.6 127.116 196.329C126.059 196.976 125.024 197.988 124.154 199.541" stroke="black" stroke-width="0.4" stroke-linecap="round" stroke-linejoin="round"/>
<path d="M146.652 187.106C146.652 187.106 147.428 190.353 148.897 189.953C150.355 189.553 150.907 187.388 150.038 185.624" stroke="black" stroke-width="0.4" stroke-linecap="round" stroke-linejoin="round"/>
<path d="M127.117 196.341C127.117 196.341 128.175 199.188 129.762 198.788C131.361 198.388 130.561 195.282 130.561 195.282" stroke="black" stroke-width="0.4" stroke-linecap="round" stroke-linejoin="round"/>
<path d="M136.332 193.235C136.332 193.235 138.554 203.541 138.636 205.494C138.73 207.447 143.067 206.871 144.219 206.424" stroke="black" stroke-width="0.4" stroke-linecap="round" stroke-linejoin="round"/>
<path d="M150.155 216.835C155.75 214.106 156.326 208.506 156.326 208.506C145.794 215.235 139.905 215.965 139.905 215.965C139.905 215.965 144.56 219.565 150.155 216.835Z" stroke="black" stroke-width="0.4" stroke-linecap="round" stroke-linejoin="round"/>
<path d="M55.7559 186.929V186.941L55.0977 189.506" stroke="black" stroke-width="0.4" stroke-linecap="round" stroke-linejoin="round"/>
<path d="M53.1934 189.506C53.1934 189.506 57.8834 190.082 59.6113 193.588" stroke="black" stroke-width="0.4" stroke-linecap="round" stroke-linejoin="round"/>
<path d="M47.3872 222.623C47.0111 222.482 46.635 222.341 46.2471 222.188L48.692 215.929C48.692 215.929 49.1269 216.106 49.9144 216.364C52.4651 217.247 58.6832 219.2 65.0306 219.682C65.4185 219.706 65.7946 219.729 66.1825 219.753L64.8895 225.564C64.8895 225.564 64.4194 225.612 63.5613 225.612C60.9871 225.659 54.8865 225.388 47.3872 222.623Z" stroke="black" stroke-width="0.4" stroke-linecap="round" stroke-linejoin="round"/>
<path d="M46.7641 224.094C46.7641 224.094 45.2713 224.576 43.6727 222.623C43.6727 222.623 42.9792 217.412 47.1755 213.176C47.1755 213.176 49.3618 213.376 50.596 214.588" stroke="black" stroke-width="0.4" stroke-linecap="round" stroke-linejoin="round"/>
<path d="M195.116 275.13L195.786 244.236C195.821 243.012 196.856 242.024 198.078 242.047L215.945 242.459" stroke="black" stroke-width="0.4" stroke-linecap="round" stroke-linejoin="round"/>
<path d="M194.61 298.106L194.516 302.153L194.363 309.412L194.011 325.082C193.975 326.294 194.951 327.329 196.185 327.365L224.384 328L245.413 328.494L258.084 328.788C259.318 328.812 260.329 327.824 260.364 326.588L260.811 307.459L260.917 303.024" stroke="black" stroke-width="0.4" stroke-linecap="round" stroke-linejoin="round"/>
<path d="M242.333 243.083L256.097 243.4L260.035 243.483C261.269 243.506 262.245 244.53 262.21 245.765L262.092 250.6L261.739 265.977" stroke="black" stroke-width="0.4" stroke-linecap="round" stroke-linejoin="round"/>
<path d="M242.239 246.506L259.107 246.894H259.119H259.154V246.941L258.684 266.565" stroke="black" stroke-width="0.4" stroke-linecap="round" stroke-linejoin="round"/>
<path d="M198.195 276.129L198.901 245.518L215.639 245.894" stroke="black" stroke-width="0.4" stroke-linecap="round" stroke-linejoin="round"/>
<path d="M197.69 297.8L197.432 309.023L197.091 323.941L223.573 324.553L244.014 325.023L257.344 325.329L257.743 308.094L257.861 303.129" stroke="black" stroke-width="0.4" stroke-linecap="round" stroke-linejoin="round"/>
<path d="M233.024 239.106L242.274 239.318L242.18 243.071V243.082L242.11 246.506L242.028 249.835L215.851 249.235L215.933 245.906L216.015 242.471V242.459L216.097 238.718L225.348 238.93" stroke="black" stroke-width="0.4" stroke-linecap="round" stroke-linejoin="round"/>
<path d="M225.349 238.847C224.455 237.871 223.915 236.577 223.95 235.153C224.009 232.235 226.454 229.93 229.392 230C232.331 230.071 234.658 232.482 234.599 235.4C234.564 236.824 233.965 238.094 233.024 239.024" stroke="black" stroke-width="0.4" stroke-miterlimit="10" stroke-linecap="round"/>
<path d="M231.272 235.377C231.237 236.471 230.332 237.353 229.227 237.318C228.122 237.294 227.252 236.377 227.276 235.283C227.299 234.177 228.216 233.306 229.309 233.33C230.414 233.353 231.296 234.271 231.272 235.377Z" stroke="black" stroke-width="0.4" stroke-linecap="round" stroke-linejoin="round"/>
<path d="M225.043 280.129C225.125 279.871 226.324 275.882 228.029 275.706C229.792 275.53 231.191 276.424 231.191 276.424C231.191 276.424 245.272 269.424 258.684 266.565C259.718 266.341 260.741 266.141 261.752 265.977C266.548 265.188 271.097 265.059 274.717 266.106" stroke="black" stroke-width="0.4" stroke-linecap="round" stroke-linejoin="round"/>
<path d="M194.082 298.624L194.611 298.106L195.739 296.988C195.739 296.988 196.48 297.353 197.691 297.8C199.818 298.588 203.368 299.647 206.8 299.494C212.595 299.235 214.076 297.706 214.076 297.706" stroke="black" stroke-width="0.4" stroke-linecap="round" stroke-linejoin="round"/>
<path d="M188.463 286.53C188.463 286.53 187.146 285.93 186.876 284.494C186.523 282.565 189.344 279.235 190.884 278.506C191.848 278.059 193.059 277.765 195.057 277.93C195.927 278 196.938 278.165 198.148 278.435C198.63 278.541 199.147 278.671 199.688 278.812" stroke="black" stroke-width="0.4" stroke-linecap="round" stroke-linejoin="round"/>
<path d="M193.376 282.012C193.376 282.012 190.226 284.423 188.522 286.576C187.981 287.259 187.593 287.918 187.488 288.459C187.053 290.741 188.369 291.694 188.369 291.694" stroke="black" stroke-width="0.4" stroke-linecap="round" stroke-linejoin="round"/>
<path d="M194.376 286.8C194.376 286.8 189.885 290.306 188.686 291.988C188.51 292.223 188.404 292.423 188.393 292.576C188.275 293.776 188.628 294.929 189.262 295.835" stroke="black" stroke-width="0.4" stroke-linecap="round" stroke-linejoin="round"/>
<path d="M195.151 291.447C195.151 291.447 190.943 294.188 189.627 296.035C189.368 296.388 189.227 296.718 189.239 296.977C189.333 298.6 189.639 300.894 194.376 302.153" stroke="black" stroke-width="0.4" stroke-linecap="round" stroke-linejoin="round"/>
<path d="M213.195 281.259H213.183C208.305 280.565 206.577 279.73 206.577 279.73C206.577 279.73 202.522 278.412 198.196 276.13C197.726 275.883 197.267 275.624 196.797 275.353C196.257 275.047 195.681 275 195.116 275.13C192.965 275.6 190.885 278.506 190.885 278.506" stroke="black" stroke-width="0.4" stroke-linecap="round" stroke-linejoin="round"/>
<path d="M157.161 253.376C157.161 253.376 160.805 264.718 163.979 268.635C167.152 272.565 166.094 304.494 172.171 323.318C178.237 342.141 186.065 353.059 184.749 356.765C183.432 360.459 182.645 361.859 183.185 365.106C183.608 367.624 185.301 368.988 189.38 371.941C192.8 374.424 188.44 381.235 193.106 383.482H193.118" stroke="black" stroke-width="0.4" stroke-linecap="round" stroke-linejoin="round"/>
</g>
</g>
<defs>
<filter id="filter0_d_523_3280" x="0" y="0" width="304" height="428" filterUnits="userSpaceOnUse" color-interpolation-filters="sRGB">
<feFlood flood-opacity="0" result="BackgroundImageFix"/>
<feColorMatrix in="SourceAlpha" type="matrix" values="0 0 0 0 0 0 0 0 0 0 0 0 0 0 0 0 0 0 127 0" result="hardAlpha"/>
<feOffset dx="3" dy="3"/>
<feGaussianBlur stdDeviation="4"/>
<feComposite in2="hardAlpha" operator="out"/>
<feColorMatrix type="matrix" values="0 0 0 0 0 0 0 0 0 0 0 0 0 0 0 0 0 0 0.2 0"/>
<feBlend mode="normal" in2="BackgroundImageFix" result="effect1_dropShadow_523_3280"/>
<feBlend mode="normal" in="SourceGraphic" in2="effect1_dropShadow_523_3280" result="shape"/>
</filter>
<clipPath id="clip0_523_3280">
<rect width="268" height="400" fill="white" transform="translate(19 11)"/>
</clipPath>
</defs>
</svg>
