<svg width="17" height="19" viewBox="0 0 17 19" fill="none" xmlns="http://www.w3.org/2000/svg">
<line opacity="0.7" y1="18.7495" x2="14" y2="18.7495" stroke="#BF2202" stroke-width="0.5"/>
<g opacity="0.7">
<mask id="path-2-inside-1_1045_6237" fill="white">
<path fill-rule="evenodd" clip-rule="evenodd" d="M12.2977 1.84437L1.41421 12.7279L1.06066 15.2027L3.53553 14.8492L14.419 3.96569L12.2977 1.84437ZM15.0339 3.35081L16.2635 2.12127L14.1421 -4.55379e-05L12.9126 1.22949L15.0339 3.35081Z"/>
</mask>
<path fill-rule="evenodd" clip-rule="evenodd" d="M12.2977 1.84437L1.41421 12.7279L1.06066 15.2027L3.53553 14.8492L14.419 3.96569L12.2977 1.84437ZM15.0339 3.35081L16.2635 2.12127L14.1421 -4.55379e-05L12.9126 1.22949L15.0339 3.35081Z" fill="#BF2202"/>
<path d="M1.41421 12.7279L0.707107 12.0208L0.471405 12.2565L0.424264 12.5865L1.41421 12.7279ZM12.2977 1.84437L13.0048 1.13726L12.2977 0.430157L11.5906 1.13726L12.2977 1.84437ZM1.06066 15.2027L0.0707107 15.0613L-0.117851 16.3813L1.20208 16.1927L1.06066 15.2027ZM3.53553 14.8492L3.67696 15.8391L4.00694 15.792L4.24264 15.5563L3.53553 14.8492ZM14.419 3.96569L15.1261 4.6728L15.8333 3.96569L15.1261 3.25858L14.419 3.96569ZM16.2635 2.12127L16.9706 2.82838L17.6777 2.12127L16.9706 1.41417L16.2635 2.12127ZM15.0339 3.35081L14.3268 4.05792L15.0339 4.76503L15.741 4.05792L15.0339 3.35081ZM14.1421 -4.55379e-05L14.8492 -0.707152L14.1421 -1.41426L13.435 -0.707152L14.1421 -4.55379e-05ZM12.9126 1.22949L12.2055 0.522388L11.4984 1.22949L12.2055 1.9366L12.9126 1.22949ZM2.12132 13.435L13.0048 2.55148L11.5906 1.13726L0.707107 12.0208L2.12132 13.435ZM2.05061 15.3442L2.40416 12.8693L0.424264 12.5865L0.0707107 15.0613L2.05061 15.3442ZM3.39411 13.8592L0.919239 14.2128L1.20208 16.1927L3.67696 15.8391L3.39411 13.8592ZM13.7119 3.25858L2.82843 14.1421L4.24264 15.5563L15.1261 4.6728L13.7119 3.25858ZM15.1261 3.25858L13.0048 1.13726L11.5906 2.55148L13.7119 4.6728L15.1261 3.25858ZM15.5563 1.41417L14.3268 2.64371L15.741 4.05792L16.9706 2.82838L15.5563 1.41417ZM13.435 0.707061L15.5563 2.82838L16.9706 1.41417L14.8492 -0.707152L13.435 0.707061ZM13.6197 1.9366L14.8492 0.707061L13.435 -0.707152L12.2055 0.522388L13.6197 1.9366ZM12.2055 1.9366L14.3268 4.05792L15.741 2.64371L13.6197 0.522388L12.2055 1.9366Z" fill="#BF2202" mask="url(#path-2-inside-1_1045_6237)"/>
</g>
</svg>
